<svg xmlns="http://www.w3.org/2000/svg" xmlns:xlink="http://www.w3.org/1999/xlink" version="1.1" id="Layer_1" x="0px" y="0px" width="250px" height="110px" viewBox="0 25 250 110" enable-background="new 0 25 250 110" xml:space="preserve">
<g opacity="0.8">
	<polygon points="150.7,130 149.5,126.6 149.1,123.7 149.2,121.4 148.9,123.2 149.2,126.4 150.4,129.8 150.7,133.1 151,133 150.9,132.4"/>
	<polygon points="154.4,112 154.2,111.9 152.8,113.5 151.2,116.1 149.6,119.3 149.3,121.1 150.2,118.1 152.2,115"/>
	<path d="M163.902 106.368l2.504-1.519l1.287-0.985l2.657-2.506l0.618-0.388l0.986-0.683l1.204-0.903l0.46-0.92l0.017-0.009 l4.641-2.129l2.628-0.736l-0.137-1.616l0.711-1.574l0.314-3.475l0.291-1.084l-0.727-1.02l0.018-0.032l0.94-1.641 c0.035-0.106 0.065-0.213 0.08-0.313c0.03 0 0 0 0.1 0.057l0.257-0.446l0.341-3.906l-0.348-0.365l-0.002-0.021 l-0.094-1.462l-1.981-2.616l-0.421-2.32l-1.262-2.089l-0.329-1.697l-0.031-0.428c-0.252-0.049-0.451-0.154-0.481-0.3 c-0.07-0.355 0.181-0.398 0.438-0.284l-0.04-0.555c-0.225-0.174-0.418-0.387-0.452-0.538c0.118-0.006 0.3 0 0.4 0 l-0.046-0.626c-0.09 0.019-0.179 0.008-0.261-0.072c-0.036-0.219 0.067-0.297 0.164-0.386c0.021 0 0 0 0.1 0 l-0.101-1.377l0.019-4.571l-0.262-2.832l-1.212-0.513l-1.44 0.629l-1.179-0.962l-0.703-0.37l-1.336-0.377l-1.685-0.981 l-0.902-1.114l-0.466-0.102c0.011 0.1 0 0.2 0 0.243c-0.086 0.091-0.256 0.024-0.33-0.055 c-0.358 0.502-0.887 0.836-1.263 1.322c-0.26 0.03-0.149-0.312-0.11-0.44c-0.176-0.048-0.171 0.085-0.218 0.2 c-0.001-0.118 0.087-0.241 0.211-0.366h-1.354l-0.401-0.756l-0.466-0.019l-1.33 1l-0.869-0.448l-2.039-0.021l-0.331 1.2 l-0.91 0.483l-1.634-0.571l-1.146-0.386c-0.015 0.066-0.028 0.133-0.056 0.193c-0.41-0.133-0.733-0.12-1.098-0.166 c-0.091-0.11-0.133-0.216-0.153-0.321l-0.983-0.166l-0.577-0.971l-0.397-0.037h-0.113l-0.696 1.951l-0.792 0.381l-0.021-0.008 l-3.004-1.003l-0.434-1.135l-1.025-0.018l-0.974-0.28l-1.098 0.968l-1.115-0.398l0.076-0.923l-0.48-0.142l-0.013-0.018 l-1.031-1.497l-1.701-0.281l-1.016 0.995l-1.146-1.002l-1.859-0.249l-1.366-0.56l-0.062-0.001c-0.119 0.206-0.28 0.395-0.338 0.6 c-0.35-0.038-0.528 0.093-0.879 0.055c-0.084-0.08-0.048-0.282-0.055-0.441c0.222-0.033 0.363-0.144 0.492-0.27l-1.133-0.026 l0.172-1.884l-0.494-0.178l-0.709-0.41l0.001 0.64l-1.083-0.023l-0.478-0.754l-0.152 0.744l-0.614 0.29l-0.005-0.004 c-0.094 0.144-0.313 0.155-0.444 0.166c-1.565 0.128-3.671-0.523-4.943-0.937c1.51 0 3.4 0.5 5.2 0.636l-0.771-0.563 l-2.066-1.817l-0.034-1.004l0.069-4.193c-0.452-0.131-0.888-0.075-1.466-0.058c-0.048-0.119-0.144-0.188-0.11-0.385 c0.548 0.3 1.017-0.444 1.4 0.055c0.044-0.036 0.101-0.066 0.157-0.097l0.063-3.866l1.095-10.98l-14.57-0.535l-2.107-0.1 c-0.005 0.013-0.007 0.028-0.014 0.039c-0.061-0.009-0.086-0.025-0.093-0.044l-1.39-0.066c0 0 0 0.1 0 0.1 c-0.037 0-0.073 0-0.109 0c0-0.037 0-0.074 0-0.111c0.031 0 0.1 0 0.1 0l-7.054-0.335l0-0.026l-0.026 0l-0.748 8.8 l-0.885 12.643c0.055 0 0.1 0 0.2 0.001c0.007 0.131-0.075 0.216-0.181 0.269l-0.926 13.223l-0.475 4.1 c0.278 0.1 0.4 0.3 0.8 0.331c-0.086 0.315-0.571 0.405-0.878 0.243l-0.1 0.874c0.279-0.255 0.6 0.331-0.053 0.5 l-0.363 3.162l-0.054-0.003l-2.589-0.143c0.211 0.1 0.4 0.2 0.7 0.255c-0.004 0.325-0.363 0.296-0.604 0.4 c-0.021-0.286-0.169-0.488-0.382-0.656l-9.934-0.548c0.403 0.3 0.8 0.6 1.1 0.984c-0.611-0.253-1.16-0.604-1.667-1.013 l-0.315-0.017l-13.664-1.291l-3.693-0.316l0.291 2.091l0.893 0.222l0.011 0.014l1.229 1.389l0.596 1.785c0.003 0 0 0 0 0 c0 0 0 0 0 0.031l0.071 0.215l2.203 1.063l0.449 1.122c0.044 0 0.1 0 0.1 0 c-0.029 0.015-0.064 0.026-0.096 0.041l0.129 0.321l3.339 3.719l0.602 0.751l2.363 0.991l0.535 0.993l0.769 0.461l0.048 0.3 c0.07-0.664 0.7 0 0 0.002l0.184 1.038l1.523 3.062v3.788l1.055 2.187l0.369 0.385c0.021-0.551 0.804-0.901 0.824-0.32 c0.008 0.241-0.282 0.465-0.594 0.561l0.34 0.354c0.058-0.092 0.11-0.189 0.089-0.362c0.24-0.038 0.473-0.343 0.659-0.11 c-0.019 0.392-0.271 0.552-0.48 0.753l2.279 2.378l2.443 0.998l0.852 0.93v0.294l1.797 1.048l0.902 0.299l0.849 0.538l1.172 0.4 l1.116-1.114l1.809-2.548c-0.101-0.085-0.125-0.234-0.051-0.376c0.132-0.021 0.2 0 0.3 0.055l0.005-0.007l0.462-1.758 l0.301-0.429c-0.554 0.108-1.123 0.169-1.595 0.264c0.042-0.48 0.644-0.315 0.988-0.385c0.273-0.057 0.567-0.15 0.858-0.237 l0.524-0.747l0.015-0.008l1.673-0.684l2.16-0.848l1.458 1.075l0.394 0.034c0.109-0.195 0.405-0.094 0.717-0.185 c-0.239-1.049 1.476-0.718 1 0c-0.779-0.426-0.773-0.07-0.469 0.298l1.798 0.155l3.214 0.534l0.012 0.011l1.238 1.007v0.539 l1.204 1.429l2.825 2.518l0.076 0.688l0.835 0.911l0.003 0.016l0.381 1.977l2.511 5.783l-0.074 0.892l1.96 1.207l0.008 0 l1.673 3.117l1.583 2.035l1.522 0.608l0.009 0.015l0.777 1.087l-0.009 0.027l-0.6 2.027l0.278 0.422l0.633 0.314l-0.126 1.3 c0.094 0.1 0 0.372-0.01 0.426c-0.012-0.023-0.04-0.03-0.059-0.049l-0.261 0.26l0.289 1.011l1.522 0.916l0.008 0 l0.605 3.033l0.976 1.801l3.557 1.589l2.445 0.539l1.968 1.438l1.492 0.299l0.609-0.228l0.017 0.004l2.606 0.539l2.631 1.8 l1.403-0.888l0.429-0.642l-0.825-1.285l-0.456-2.889l-0.835-3.265l-0.384-1.152l0.002-0.014l0.38-2.13l0.533-1.832l0.61-2.129 l0.673-2.55l-1.072-0.92l0.492-0.981l1.907-0.151l1.823-2.584l0.023-0.005l1.587-0.301l2.729-1.669l0.829-0.679l2.977-1.604 L163.902 106.368z M181.463 86.214c0.019-0.066 0.145-0.045 0.2 0C181.677 86.3 181.4 86.3 181.5 86.214z M181.407 77.287c0.083 0.2 0.2 0.4 0.3 0.605c-0.378 0.011-0.428-0.306-0.494-0.605 C181.261 77.3 181.3 77.3 181.4 77.287z M181.242 86.545c0.035 0.1 0.1 0.3 0 0.4 C180.742 87.1 180.8 86.5 181.2 86.545z M179.925 75.358c0.132 0.1 0.2 0.2 0.2 0.4 c-0.105 0.023-0.139 0.118-0.275 0.109C179.881 75.7 179.8 75.5 179.9 75.358z M179.484 88.4 c0.075 0.1 0.1 0.2 0.1 0.385C179.16 89.2 178.9 88.3 179.5 88.419z M178.771 91.725c0.341 0 0.2 0.5 0 0.6 C178.571 92.2 178.6 91.8 178.8 91.725z M172.401 85.607c-0.026-0.172 0.047-0.246 0.219-0.221 C172.646 85.6 172.6 85.6 172.4 85.607z M172.674 83.294c0.029-0.174 0.253-0.152 0.387-0.221 C173.095 83.2 172.9 83.5 172.7 83.294z M173.553 80.813c0-0.11 0-0.22 0-0.33c0.169 0.2 0.5 0.2 0.5 0.5 C173.859 80.9 173.8 80.8 173.6 80.813z M174.213 81.089c-0.036 0-0.073 0-0.11 0c0-0.037 0-0.072 0-0.11 c0.037 0 0.1 0 0.1 0C174.213 81 174.2 81.1 174.2 81.089z M175.091 84.285c0.008-0.158 0.234-0.097 0.22-0.275 C175.449 84.1 175.3 84.4 175.1 84.285z M174.707 81.419c0.008-0.121 0.233-0.023 0.329-0.055 c-0.029 0.046-0.058 0.09-0.056 0.165c0.198-0.082 0.5 0 0.5 0.276c-0.063-0.009-0.098 0.012-0.11 0.1 C175.158 81.6 175 81.6 174.7 81.419z M175.476 81.916C175.487 81.8 175.7 82 175.5 81.916L175.476 81.916z M176.738 93.377c-0.154-0.045-0.142 0.079-0.273 0.056c-0.137-0.112-0.077-0.226 0-0.386c0.129 0.1 0.102-0.007 0.3 0.1 C176.738 93.2 176.7 93.3 176.7 93.377z M177.453 60.921c0.017 0.145-0.076 0.181-0.221 0.2 C177.234 60.9 177.3 60.8 177.5 60.921z M176.794 75.524c0.036 0 0.1 0 0.1 0c0 0 0 0.1 0 0.1 c-0.036 0-0.073 0-0.109 0C176.794 75.6 176.8 75.6 176.8 75.524z M176.738 75.634c0 0.459-0.185 0.732-0.55 0.8 C176.038 76.1 176.4 75.7 176.7 75.634z M175.75 75.689c0.099 0 0.271-0.095 0.438-0.165 C176.28 75.8 175.9 75.8 175.8 75.689z M175.75 69.572c-0.169 0.079-0.246 0.024-0.385-0.055 C175.369 69.4 175.8 69.3 175.8 69.572z M174.871 77.452c0.293-0.201 0.509-0.482 0.825-0.661 c0.14 0.51-0.331 0.881-0.77 0.992c-0.047-0.063-0.073-0.148-0.056-0.276c-0.474 0.001-0.48 0.473-1.098 0.3 c0.09-0.479 0.688-0.449 1.098-0.606C174.964 77.3 174.9 77.3 174.9 77.452z M174.268 58.1 c0.164 0.037-0.053 0.1 0 0.221C174.13 58.3 174.3 58.1 174.3 58.055z M174.432 69.5 c-0.05 0.223-0.241 0.308-0.329 0.496C173.844 69.9 174.2 69.3 174.4 69.517z M173.553 58.385c0.074-0.079 0.313-0.079 0.4 0 c-0.01 0.231-0.194 0.319-0.386 0.22C173.553 58.5 173.6 58.5 173.6 58.385z M173.828 70.7 c-0.016 0.222-0.209 0.268-0.275 0.441C173.252 71 173.6 70.5 173.8 70.729z M173.224 78.8 c0.097 0.1 0.2 0.1 0.2 0.275c-0.135 0.124-0.438 0.169-0.438-0.11C173.09 79 173.1 78.9 173.2 78.83z M172.784 64.777c0.046 0.157-0.076 0.143-0.055 0.276c-0.127 0.018-0.21-0.008-0.274-0.055 C172.572 64.9 172.6 64.8 172.8 64.777z M172.51 70.895c-0.021 0.137-0.213 0.003-0.165-0.111 C172.467 70.8 172.4 70.9 172.5 70.895z M172.314 83.031c-0.002 0.003-0.009 0.017-0.023 0 c-0.014 0.023-0.023 0.04-0.032 0.054C172.279 83.1 172.3 83 172.3 83.031z M172.235 65.2 c-0.059 0.366-0.038 0.576-0.329 0.771C171.792 65.7 171.8 65.2 172.2 65.219z M170.533 66.4 c0.188-0.062 0.2 0.401-0.056 0.276C170.433 66.5 170.6 66.5 170.5 66.375z M170.753 71.9 c-0.036 0.286-0.428 0.1-0.385-0.165C170.482 71.7 170.6 71.9 170.8 71.941z M127.478 38.4 c0.196 0.255-0.158 0.425-0.056 0.771C126.399 39.3 126.9 38.4 127.5 38.437z M125.939 41.4 c-0.053 0.001-0.043 0.067-0.055 0.11c-0.089 0.082-0.274-0.048-0.494 0C125.314 40.9 125.9 41 125.9 41.358z M71.846 69.958C71.158 70 71.9 69.3 71.8 69.958L71.846 69.958z M72.395 72.052c0.073 0 0.1 0 0.2 0 C72.625 72.2 72.4 72.3 72.4 72.052z M73.438 71.667c0.008-0.064-0.013-0.099-0.055-0.111 c0.091-0.232 0.402-0.178 0.4 0.111C73.657 71.7 73.5 71.7 73.4 71.667z M74.426 69 c-0.243-0.058-0.423-0.319-0.33-0.551C74.328 68.5 74.6 68.7 74.4 69.021z M77.776 70.564c0 0.1 0 0.1 0 0.2 C77.606 70.8 77.6 70.6 77.8 70.564z M76.733 67.864c0.064 0 0.098-0.012 0.11-0.055 c0.074 0 0 0.1 0.1 0.22c-0.044-0.029-0.089-0.058-0.165-0.055C76.733 67.9 76.7 67.9 76.7 67.864z M76.019 69.572c0.055 0 0.1 0 0.2 0c0.055 0.1 0.1 0.369-0.055 0.441C75.903 70 76 69.7 76 69.572z M76.074 70.454c-0.148-0.065 0-0.288 0-0.385C76.294 70.1 76.3 70.4 76.1 70.454z M75.415 70.5 c0.245 0 0.33-0.074 0.55-0.056C76.104 70.8 75.3 71 75.4 70.509z M74.976 69.517c0.024-0.068 0.07-0.113 0.165-0.11 C75.166 69.5 75.1 69.5 75 69.517z M75.195 73.264c-0.119 0.01-0.025-0.195-0.055-0.275 c0.088-0.016 0.1 0.1 0.2 0.055C75.345 73.2 75.2 73.2 75.2 73.264z M75.305 71.28c0.073 0 0.1 0 0.2 0 c0.007 0.099-0.068 0.116-0.055 0.22C75.39 71.5 75.3 71.4 75.3 71.28z M77.392 77.893c-0.041-0.088-0.27 0.013-0.22-0.165 C77.316 77.7 77.4 77.7 77.4 77.893z M75.635 75.469c0.017-0.127-0.159-0.062-0.165-0.166 c0.666-0.176 1.802-0.561 2.471-0.275C77.436 75.5 76.3 75.1 75.6 75.469z M81.236 70.8 c-0.157 0.011-0.3 0.007-0.274-0.165C81.067 70.5 81.3 70.6 81.2 70.784z M79.644 77.783c-0.037 0-0.074 0-0.109 0 c-0.017-0.089 0.051-0.096 0.055-0.166C79.704 77.6 79.7 77.7 79.6 77.783z M79.259 76.6 c0.156 0 0.143-0.078 0.275-0.055C79.626 76.8 79.2 76.9 79.3 76.626z M79.369 70.343c-0.014 0.13-0.241 0.033-0.274 0 C79.12 70.2 79.3 70.2 79.4 70.343z M78.545 79.16c0.112-0.512 0.772-0.474 0.989-0.881c0.108 0 0.1 0.2 0.2 0.1 C79.375 78.7 79 78.9 78.5 79.16z M80.577 72.327c-0.036 0.276-0.223 0.4-0.549 0.4 C79.671 72.3 80.3 72.1 80.6 72.327z M80.742 74.531c-0.022 0.138-0.213 0.003-0.166-0.11 C80.699 74.4 80.7 74.5 80.7 74.531z M80.083 78.389c0-0.037 0-0.073 0-0.11c0.073 0 0.1 0 0.2 0 C80.358 78.4 80.2 78.4 80.1 78.389z M80.303 74.973c-0.08-0.048-0.174-0.083-0.165-0.221c0.091 0 0.2 0 0.3 0 C80.384 74.8 80.3 74.9 80.3 74.973z M80.467 79.491c0.024-0.233 0.364-0.149 0.549-0.221 C80.972 79.4 80.7 79.7 80.5 79.491z M81.071 76.185c-0.071-0.284 0.206-0.414 0.384-0.276 C81.433 76.1 81.3 76.2 81.1 76.185z M81.292 74.477c0.071 0.384-0.138 0.486-0.275 0.7 c-0.604-0.347 0.435-1.325 0.66-0.661C81.547 74.5 81.4 74.5 81.3 74.477z M81.621 70.3 c0.013-0.096 0.095-0.125 0.22-0.11C81.896 70.4 81.7 70.3 81.6 70.343z M82.17 77.838c-0.055 0-0.11 0-0.166 0 c-0.022-0.116 0.038-0.146 0.055-0.221C82.225 77.6 82.2 77.7 82.2 77.838z M82.115 72.7 c-0.322 0.094-0.238-0.424-0.165-0.551c0.19-0.044 0.2 0.1 0.3 0.11C82.272 72.5 82.2 72.6 82.1 72.713z M82.719 69.076c0.083-0.084 0.376-0.099 0.3 0.11c-0.129-0.001-0.162 0.095-0.33 0.1 C82.719 69.2 82.7 69.1 82.7 69.076z M82.664 71.887c0.098-0.007 0.1 0.1 0.2 0.1 c0.039 0.204-0.087 0.244-0.274 0.221C82.548 72 82.6 72 82.7 71.887z M82.555 75 c-0.172-0.443 0.066-0.867 0.549-0.827C83.221 74.5 83.1 75.1 82.6 74.973z M83.049 71 c-0.095-0.228 0.249-0.295 0.329-0.166C83.456 71 83.2 70.9 83 70.95z M84.092 70.5 c0.338 0.1 0.333-0.051 0.494-0.221c0.164 0.1 0.1 0.4 0.2 0.607c-0.143-0.046-0.301 0.167-0.385 0 c-0.14 0.006-0.109 0.184-0.109 0.33C84.104 71.1 84 70.7 84.1 70.509z M84.312 72.2 C84.513 72.5 84.2 72.4 84.3 72.217L84.312 72.217z M84.202 80.979c0.208-0.105 0.347-0.017 0.5 0.1 c-0.184 0.2 0.1 0.316-0.11 0.497C84.396 81.5 84.3 81.2 84.2 80.979z M84.696 83.1 c0.184 0 0.2 0.3 0.2 0.44C84.484 83.7 84.6 83.3 84.7 83.127z M85.685 70.509c0.055 0 0.1 0 0.2 0 c0 0.1 0 0.2 0 0.275C85.599 70.8 85.6 70.7 85.7 70.509z M85.465 70.784c0.094 0.1 0.2 0.1 0.2 0.3 C85.475 71.2 85.2 70.9 85.5 70.784z M85.85 76.626c-0.124 0.107-0.414 0.048-0.549 0 C85.219 76.1 86 76.2 85.8 76.626z M155.266 65.935c0.181 0.2 0.3 0.6 0.7 0.5 c-0.001 0.1 0 0.315-0.055 0.386c-0.849-0.186-1.435-0.295-1.813-0.937c0.09-0.214 0.144-0.359-0.056-0.496 c0.065-0.193 0.213-0.301 0.22-0.551C154.611 65.2 155.7 65.2 155.3 65.935z M155.926 90.9 c-0.17-0.053 0.023-0.185 0.055-0.221C156.147 90.7 156 90.9 155.9 90.897z M155.266 72.3 c0.04-0.055 0.4 0 0.5 0.11c-0.036 0.058-0.327 0.075-0.495 0C155.3 72.3 155.3 72.3 155.3 72.272z M154.988 72.2 c-0.011-0.006-0.028-0.015-0.052-0.028c-0.041-0.022-0.067-0.038-0.088-0.049C154.889 72.1 155 72.2 155 72.19z M153.672 71.776c0.146 0 0.7 0.1 0.8 0.275C154.235 71.9 153.8 72 153.7 71.776z M154.497 73.6 c-0.171-0.104-0.518-0.137-0.385-0.386C154.413 73.2 154.5 73.3 154.5 73.595z M153.178 58.276c0.093 0 0.2 0 0.3 0 C153.482 58.6 153 58.5 153.2 58.276z M150.929 61.196c0.182 0.2 0.1 0.8 0.4 0.9 c0.154 0 0.135-0.156 0.217-0.22c0.609 0.8 1.9 0.1 2.034-0.771c0.54 0 0.752-0.445 1.264-0.606 c-0.544 0.908-1.732 1.641-2.637 2.369c0.186 0.2 0.6 0.2 0.8 0.11c-0.221 0.441-0.417 0.904-0.933 1 c0.023 0.2 0.2 0.2 0.2 0.386c-0.286 0.01-0.514-0.065-0.716-0.275c-0.456 0.238-0.436 0.958-0.933 1.2 c-0.299-0.596-0.176-1.208 0.11-1.653c-0.102-0.063-0.437 0.069-0.44-0.22c-0.052-0.2 0.238-0.055 0.274-0.165 C150.542 62.5 150.4 61.6 150.9 61.196z M153.234 71.721C153.313 71.5 153.4 71.9 153.2 71.721L153.234 71.721z M153.234 92.441c-0.535 0.216-0.498 1.005-1.043 1.212c-0.152-0.3 0.23-0.487 0.164-0.882 C152.712 92.9 152.8 92.2 153.2 92.441z M152.52 76.791c-0.141-0.005-0.077-0.215-0.221-0.22 c0.087-0.134 0.234-0.207 0.441-0.221C152.761 76.6 152.7 76.7 152.5 76.791z M152.96 76.3 c0.167 0 0.2 0.45-0.057 0.386C152.871 76.5 152.9 76.5 153 76.295z M153.014 68.7 c-0.016-0.089 0.052-0.095 0.057-0.166C153.176 68.6 153.2 68.8 153 68.746z M152.903 69.1 C153.041 68.9 153 69.3 152.9 69.076L152.903 69.076z M152.299 69.462c-0.158-0.164 0-0.476 0.167-0.496 C152.732 69.1 152.5 69.4 152.3 69.462z M149.939 70.784c-0.018-0.219 0.105-0.298 0.328-0.275 C150.406 70.8 150.1 70.9 149.9 70.784z M150.268 60.645c-0.014 0.2 0 0.446-0.054 0.6 c-0.253-0.068-0.356 0.038-0.551-0.11C149.579 60.5 150 60.7 150.3 60.645z M149.445 58.9 c0.014 0.144-0.021 0.237-0.165 0.221C149.302 59.1 149.3 58.9 149.4 58.937z M149.062 63.2 c0.466-0.421 0.8 0.4 1.1 0.221c0.002 0.2 0.1 0.3 0.1 0.551C149.752 63.9 148.9 64 149.1 63.179z M149.005 70.343c0.037 0 0.1 0 0.1 0c0 0 0 0.1 0 0.111c-0.035 0-0.073 0-0.11 0 C149.005 70.4 149 70.4 149 70.343z M151.697 71.39c0.039-0.188-0.224-0.069-0.167-0.275 c0.518 0.1 1.3 0 1.6 0.44c-2.118 0.091-3.971 1.355-6.37 0.882C147.992 71.9 150.4 72.3 151.7 71.39z M150.268 86.104C150.54 87 149.3 86.2 150.3 86.104L150.268 86.104z M149.939 90.5 c-0.074-0.017-0.046-0.139-0.056-0.221C150.013 90.3 150 90.4 149.9 90.457z M150.268 90.3 c-0.033 0.2 0.1 0.2 0 0.276c-0.183 0.038-0.2-0.094-0.219-0.222C150.098 90.4 150.2 90.3 150.3 90.347z M148.841 79.436c-0.143-0.159 0.042-0.325 0.11-0.441C149.111 79.1 149 79.4 148.8 79.436z M148.512 96.5 C148.763 96.5 148.5 96.8 148.5 96.463L148.512 96.463z M147.137 82.743c0.183 0 0.1 0.2 0.1 0.3 c-0.225-0.094-0.593 0.182-0.769-0.109C146.547 82.8 147 82.9 147.1 82.743z M147.193 78.7 c0.038 0.204-0.087 0.243-0.273 0.22C146.796 78.6 147 78.6 147.2 78.665z M148.236 59.322c0.037 0 0.1 0 0.1 0 c0 0 0 0.1 0 0.11c-0.037 0-0.072 0-0.109 0C148.236 59.4 148.2 59.4 148.2 59.322z M148.236 68.8 c-0.068-0.024-0.112-0.07-0.11-0.166C148.243 68.6 148.2 68.7 148.2 68.801z M147.688 59.708c0.037 0 0.1 0 0.1 0 c0 0 0 0.1 0 0.11c-0.037 0-0.073 0-0.11 0C147.688 59.8 147.7 59.7 147.7 59.708z M147.412 63.1 c0.227 0.1 0.1 0.4 0.1 0.551C147.158 63.7 147.2 63.2 147.4 63.124z M146.754 55.4 c0.043 0 0.1 0.1 0.2 0.055c-0.013 0.045-0.057 0.055-0.056 0.11c-0.036 0-0.073 0-0.11 0 C146.754 55.5 146.8 55.4 146.8 55.355z M146.645 59.928c0.167 0.138-0.096 0.306-0.275 0.3 C146.299 59.9 146.6 60.1 146.6 59.928z M146.425 66.981c0.094 0.376-0.356 0.33-0.275 0 C146.254 66.9 146.2 67 146.4 66.981z M146.041 89.189C146.176 89 146.1 89.4 146 89.189L146.041 89.189z M145.436 74.311c0.037 0 0.1 0 0.1 0c0 0.1 0 0.1 0 0.22c-0.038 0-0.074 0-0.111 0 C145.436 74.5 145.4 74.4 145.4 74.311z M144.447 74.751c0.354 0.1 0.37-0.178 0.659-0.165 C145.654 75.3 144.1 75.7 144.4 74.751z M144.831 88.804c0.115 0.049-0.017 0.309-0.163 0.3 C144.608 88.9 144.8 88.9 144.8 88.804z M144.668 77.066c0.273 0.6 0.6 1.8 0.1 2.4 C144.717 78.7 144.4 77.8 144.7 77.066z M144.776 83.127c-0.16-0.145 0.233-0.203 0.439-0.163 C145.248 83.2 144.8 83.1 144.8 83.127z M144.722 75.854c-0.087 0.3 0.1 0.735-0.11 1 c-0.117-0.047-0.194-0.135-0.164-0.331c-0.635 0.2 0.2 1.168-0.274 1.487c-0.18-0.604-0.134-1.117-0.11-1.873 C144.347 76.1 144.4 75.6 144.7 75.854z M143.13 54.252c0.206 0.1 0.249-0.053 0.3 0.1 c0.005 0.188-0.204 0.164-0.384 0.166C143.057 54.4 143.1 54.3 143.1 54.252z M143.403 67.8 c-0.036 0.074-0.117 0.103-0.219 0.11c0-0.074 0-0.147 0-0.221C143.265 67.7 143.3 67.7 143.4 67.753z M142.91 55.4 c-0.097-0.051-0.122-0.172-0.11-0.331C142.998 55 142.9 55.2 142.9 55.355z M142.416 52.7 c0.247 0.1 0.4 0.5 0.3 0.771C142.473 53.4 142.3 53 142.4 52.709z M142.141 53.1 c-0.128-0.057-0.114-0.254-0.109-0.441C142.353 52.6 142.3 53 142.1 53.096z M142.47 63.5 c-0.03 0.283-0.772 0.515-0.824 0.11C141.852 63.5 142.1 63.4 142.5 63.455z M142.249 67.6 c-0.096-0.013-0.124-0.094-0.108-0.22C142.306 67.3 142.2 67.5 142.2 67.588z M139.889 62.9 c0.018 0.465-0.353 0.347-0.714 0.331C139.049 62.8 139.6 62.8 139.9 62.904z M139.724 66.596c0 0.1 0 0.2 0 0.3 c-0.183 0.038-0.201-0.092-0.22-0.22C139.554 66.6 139.6 66.6 139.7 66.596z M142.854 68.1 c0.263 0 0.6 0.1 0.8 0.331c-0.518 0.172-1.189 0.09-1.979 0.055c-1.123-0.049-2.946 0.097-3.294-0.11 c-0.12-0.071-0.282-0.28-0.166-0.496C139.912 68.3 141.2 68.1 142.9 68.139z M142.854 70.2 c-0.022-0.115 0.037-0.146 0.057-0.22C143.068 70 143 70.3 142.9 70.233z M142.416 70.2 c-0.099-0.04-0.008-0.1 0-0.165C142.513 70.1 142.4 70.1 142.4 70.178z M142.306 84 c-0.065 0.143-0.188 0.104-0.33 0.055c0.028-0.044 0.059-0.089 0.056-0.165C142.136 83.9 142.2 84 142.3 84.01z M141.043 104.729c0.016-0.186-0.073-0.479 0.164-0.44C141.199 104.5 141.2 104.7 141 104.729z M139.285 93.4 c0.237-0.497 1.361-0.268 1.7 0.166C140.461 93.5 139.7 93.7 139.3 93.377z M140.658 103.8 c-0.274 0.036-0.214-0.263-0.33-0.387c0.018-0.074 0.138-0.045 0.22-0.054C140.603 103.5 140.6 103.7 140.7 103.849z M139.285 98.062c-0.023-0.711-0.355-1.113-0.44-1.763c-0.169 0.052-0.065 0.374-0.384 0.276c0.054-0.374-0.183-0.525-0.22-0.938 c0.552-0.293 1.462-1.075 1.6 0.274C138.582 95.7 139.6 97.4 139.3 98.062z M135.879 74 c0.06-0.28-0.102-0.339-0.219-0.441c-0.205-0.059-0.157 0.137-0.329 0.11c-0.034-0.131-0.08-0.251-0.055-0.44 c0.621-0.068 0.727-0.055 1.2 0.276c-0.016 0.2 0 0.447-0.056 0.55C136.268 74.1 136.1 74 135.9 73.981z M136.044 96.959c-0.007 0.142-0.101 0.195-0.165 0.277c-0.51-0.181-0.889 0.079-1.371-0.11 C134.596 96.5 135.7 96.8 136 96.959z M135.825 68.083C136.145 68.2 135.9 68.4 135.8 68.083L135.825 68.083z M136.374 68.58c-0.077-0.083-0.203-0.238-0.109-0.331c0.375 0.1 0.7 0.2 1 0.385c0.041 0.151-0.109 0.111-0.109 0.2 C137.033 68.6 136.6 68.4 136.4 68.58z M137.253 68.746C137.425 68.6 137.3 68.9 137.3 68.746L137.253 68.746z M138.022 97.621c0.202 0.528-0.855 0.525-1.209 0.496C136.601 97.5 137.7 97.6 138 97.621z M137.197 94.9 c0.042-0.049 0.061-0.125 0.056-0.221c0.345-0.006 0.901-0.583 0.9 0.056C137.765 94.8 137.6 95 137.2 94.866z M137.197 73.319c0.778-0.817 2.067-1.123 3.077-1.708c0.073 0 0 0.1 0.1 0.2 C139.425 72.1 138.2 72.9 137.2 73.319z M138.076 69.462c0.072 0 0.1 0 0.2 0c0 0.1 0 0.2 0 0.3 C138.193 69.7 138 69.7 138.1 69.462z M139.285 69.792c-0.201 0.036-0.293-0.037-0.384-0.11 c0.325-0.396-0.24-0.532-0.44-0.496c0.014-0.244 0.039-0.475 0.275-0.496c0.032 0.3 0.3 0.3 0.5 0.4 C139.123 69.5 139.3 69.5 139.3 69.792z M139.285 69.241c0.228 0.1 0.314-0.047 0.4 0.1 c0.021 0.224-0.341 0.061-0.493 0.111C139.222 69.4 139.3 69.3 139.3 69.241z M139.449 94.3 c-0.017-0.403 0.423-0.348 0.715-0.44C140.178 94.2 139.7 94.2 139.4 94.26z M138.241 53.2 c0.135 0.1 0.1 0.2 0.1 0.33C138.175 53.5 138.3 53.2 138.2 53.151z M137.966 52.1 c0.162 0.1 0.468-0.218 0.66-0.055c0.046 0.303-0.137 0.376-0.109 0.661c-0.265 0.018-0.236 0.083-0.551 0.1 C137.889 52.6 137.9 52.3 138 52.104z M137.857 60.535c0.011 0.158-0.013 0.28-0.11 0.3 c-0.16-0.041-0.231-0.172-0.219-0.386C137.664 60.5 137.8 60.5 137.9 60.535z M137.033 59.3 c-0.268 0.063-0.61-0.455-0.549-0.717C136.853 58.7 137 58.9 137 59.322z M137.033 65.6 c-0.048 0.16-0.082 0.062-0.22 0.055c0-0.037 0-0.074 0-0.11c0.047 0 0.051-0.022 0.055-0.056 C136.923 65.5 136.9 65.6 137 65.604z M135.879 60.48c0.279-0.005 0.4 0.4 0.3 0.6 C135.923 61 135.7 60.7 135.9 60.48z M136.209 63.896c0.255 0.5-0.04 1.531-0.494 1.3 c-0.113 0.169-0.114 0.247-0.22 0.496c-0.132-0.182-0.271-0.019-0.549-0.055c-0.428-0.337-0.088-1.028 0.494-0.771 C135.564 64.4 135.8 64 136.2 63.896z M134.014 59.653c-0.12-0.27 0.022-0.596 0.163-0.771 C134.357 59.1 134.4 59.7 134 59.653z M133.903 51.442c0.089-0.016 0.1 0.1 0.2 0.1 c0.04 0.168-0.096 0.162-0.055 0.33C133.751 51.8 133.8 51.6 133.9 51.442z M135.331 62.7 c0.133 0.585-1.754 0.844-1.867 0.11C133.583 62.7 135.2 62.3 135.3 62.684z M133.135 53.6 c-0.144 0.033-0.198-0.022-0.165-0.166C133.089 53.4 133.1 53.5 133.1 53.592z M132.529 51.3 c0.155-0.064 0.234-0.011 0.4 0.055c-0.023 0.159-0.114 0.251-0.274 0.275C132.57 51.5 132.4 51.5 132.5 51.332z M132.914 59.488c0.18 0.1 0.2 0.1 0.4 0.165c0.056 0.637-0.503 0.651-0.878 0.6 C132.392 59.8 132.9 59.9 132.9 59.488z M133.135 66.816c-0.056 0-0.11 0-0.165 0c-0.063-0.173 0.085-0.133 0.109-0.22 C133.153 66.6 133.1 66.7 133.1 66.816z M131.926 63.345c-0.12-0.008-0.118-0.14-0.109-0.276 C131.936 63.1 131.9 63.2 131.9 63.345z M131.871 66.046c-0.169 0.151-0.174-0.195-0.385-0.166 C131.604 65.7 131.9 65.8 131.9 66.046z M130.993 49.293c0.036 0 0.1 0 0.1 0c0 0 0 0.1 0 0.1 c-0.036 0-0.072 0-0.108 0C130.993 49.4 131 49.3 131 49.293z M130.004 51.442c0.299 0 0.3 0.3 0.2 0.6 C129.873 52.2 129.7 51.6 130 51.442z M129.62 82.137c-0.216 0.031-0.319-0.048-0.44-0.11 c0-0.146-0.021-0.315 0.056-0.386C129.563 81.6 129.6 81.9 129.6 82.137z M129.51 76.9 c0.089-0.015 0.1 0.1 0.2 0.055c0.006 0.099-0.066 0.116-0.054 0.221C129.429 77.2 129.4 77 129.5 76.901z M129.235 82.411c-0.065-0.008-0.047-0.099-0.056-0.165C129.363 82.2 129.3 82.4 129.2 82.411z M129.289 105.6 c0.02 0.649-0.916 0.307-0.604-0.221C128.917 105.4 129.1 105.5 129.3 105.557z M128.41 98 c-0.042-0.375 0.277-0.384 0.604-0.386C128.973 97.9 128.7 98 128.4 98.007z M128.631 69.1 c0.021-0.186 0.425-0.147 0.3 0.11C128.788 69.2 128.7 69.1 128.6 69.076z M127.587 62.8 c0.009-0.064-0.012-0.099-0.056-0.11c0.569-0.424 1.502-0.672 2.197-0.661C129.172 62.6 128.4 62.4 127.6 62.794z M128.521 63.786C128.772 63.8 128.5 64.1 128.5 63.786L128.521 63.786z M126.105 78.7 c-0.232-0.274-0.064-0.563-0.056-0.827c0.144 0 0.343-0.051 0.3 0.166c0.091-0.073 0.085-0.244 0.165-0.33 c0.325-0.173 0.4 0.2 0.7 0.055c0.063 0.1 0.1 0.2 0.1 0.33c-0.33 0.02-0.316 0.382-0.44 0.6 C126.479 78.7 126.4 78.7 126.1 78.72z M126.763 81.364c0.074 0.332-0.402 0.587-0.604 0.8 c-0.197 0.031-0.167-0.163-0.164-0.332C126.396 81.8 126.4 81.5 126.8 81.364z M126.379 67.1 c0.025 0.21-0.016 0.352-0.11 0.44c-0.048-0.042-0.124-0.059-0.219-0.055C126.017 67.3 126.1 67.1 126.4 67.147z M127.531 79.933c0.066 0.2 0.1 0.334-0.054 0.44c-0.26 0.04-0.241-0.199-0.274-0.386 C127.268 79.9 127.4 79.9 127.5 79.933z M126.269 73.926c0.279-0.37 1 0 1.6 0.1 c0.118 0.394-0.186 0.366-0.221 0.605C127.188 74.4 126.5 74.4 126.3 73.926z M127.531 67.7 c0.142 0 0.1 0.2 0.1 0.276C127.415 67.9 127.5 67.8 127.5 67.698z M127.862 77.4 c0.16 0.1 0.2 0.3 0.2 0.495c-0.08 0.082-0.358 0.082-0.439 0C127.598 77.6 127.7 77.5 127.9 77.397z M127.313 64.888c-0.852-0.063-1.771-0.256-2.636-0.331c0.03-0.149 0.044-0.137 0.109-0.332c0.197-0.08 0.4 0.2 0.495-0.109 c0.75 0.5 2.1 0.2 2.6 0.716c0.105-0.022 0.004-0.252 0.22-0.166C128.252 65.1 127.6 64.9 127.3 64.888z M125.774 67.809C126.026 67.8 125.7 68.1 125.8 67.809L125.774 67.809z M124.896 68.3 c-0.189 0.038-0.197-0.194-0.11-0.276C124.971 68 124.9 68.2 124.9 68.305z M129.51 51.4 C129.193 51.2 129.8 51.2 129.5 51.442L129.51 51.442z M129.399 60.7c-0.006 0.104-0.182 0.038-0.164 0.2 C128.976 60.8 129.3 60.5 129.4 60.7z M127.972 52.6C127.855 51.3 129.2 52.7 128 52.6L127.972 52.6z M127.697 57.725c-0.273-0.036-0.233-0.027-0.439 0.055c-0.031-0.333 0.051-0.478-0.055-0.882 C127.727 56.8 127.9 57.4 127.7 57.725z M125.885 52.93c0.07 0.346-0.408 0.375-0.549 0.3 C125.401 53 125.6 52.9 125.9 52.93z M125.116 53.151c0.055 0 0.1 0 0.2 0c-0.004 0.161-0.02 0.31-0.22 0.3 C125.043 53.3 125.1 53.2 125.1 53.151z M125.61 62.959c0.536-0.017 0.921-0.479 1.263-0.165 c-0.753 0.745-2.24 0.528-3.35 0.937c-0.187-0.135-0.063-0.368-0.055-0.606c0.562 0.4 1.065-0.19 1.593-0.275 C125.181 62.8 125.4 63 125.6 62.959z M124.841 37.831c0.173 0 0.1 0.2 0.2 0.4 C124.713 38.3 124.7 38 124.8 37.831z M124.896 41.248c-0.058 0.675-0.912-0.013-1.153 0 C123.968 41 124.5 41.2 124.9 41.248z M124.017 59.818c-0.072 0.222-0.16 0.428-0.494 0.4 C123.458 59.9 123.8 59.7 124 59.818z M123.523 42.405c-0.04-0.125-0.232-0.098-0.33-0.165 c0.008-0.158 0.23-0.101 0.385-0.11C123.595 42.3 123.6 42.3 123.5 42.405z M123.308 55.06c0 0.005-0.001 0.011-0.004 0 c-0.001 0.001-0.001 0.002-0.001 0.003C123.305 55.1 123.3 55.1 123.3 55.06z M123.468 41.1 C123.707 41.2 123.4 41.5 123.5 41.138L123.468 41.138z M122.755 27.691c0.348 0.1 0.5 0.3 0.7 0.5 c-0.054 0.222-0.265 0.125-0.439 0.055c-0.044 0.2 0.1 0.2 0 0.331c-0.103 0.044-0.201 0.092-0.329 0.1 C122.419 28.5 122.6 27.9 122.8 27.691z M122.26 35.076c-0.198-0.003-0.292-0.111-0.274-0.331 C122.208 34.7 122.3 34.8 122.3 35.076z M121.272 35.902c0.788 0 1.2 0.1 1.8 0.331c0 0.1 0 0.3 0 0.4 c-0.501-0.214-1.109-0.321-1.757-0.386C121.266 36 121.2 36.1 121.3 35.902z M119.734 76.4 c-0.611 0.246-1.382 0.579-2.087 0.551c-0.128 0.35-0.317 0.636-0.384 1.047c-0.422 0.036-2.125 0.181-1.648-0.826 c0.345 0.6 1.135-0.214 1.6 0.165c0.12-0.008 0.118-0.139 0.11-0.276c-0.228-0.218-0.515 0.051-0.604-0.166 c0.036-0.147 0.202-0.165 0.275-0.275c0.198 0.2 0.5 0.1 0.659-0.055c-0.131-0.089-0.184-0.256-0.22-0.441 c0.571-0.398 1.7 0.1 2.527-0.276c-0.062 0.104-0.064 0.266-0.274 0.222C119.678 76.2 119.8 76.2 119.7 76.405z M117.867 77.783c0 0.1 0 0.1 0 0.22c-0.146 0.017-0.142-0.115-0.165-0.22C117.757 77.8 117.8 77.8 117.9 77.783z M115.56 62.409C115.571 62.2 115.8 62.5 115.6 62.409L115.56 62.409z M115.78 63.51c0 0 0 0.1 0 0.1 C115.512 63.7 115.7 63.3 115.8 63.51z M115.725 64.558c-0.102 0.073-0.512 0.232-0.494-0.055 C115.394 64.4 115.6 64.4 115.7 64.558z M115.341 73.485c0-0.055 0-0.11 0-0.166 C115.501 73.2 115.5 73.6 115.3 73.485z M115.615 79.381c-0.216-0.023-0.234-0.243-0.439-0.276 C115.244 78.6 115.9 79 115.6 79.381z M115.944 62.132c0.22 0 0.2 0.2 0.2 0.4 C115.828 62.6 115.8 62.2 115.9 62.132z M115.999 64.558c-0.165 0.055-0.097-0.123-0.11-0.221 C115.986 64.4 116 64.4 116 64.558z M116.658 59.322c0.299 0.1 0.1 0.5 0.1 0.8 c0.017 0.1 0.1 0 0.2 0.055c-0.032 0.2 0 0.3 0.1 0.386c-0.125 0.201-0.465 0.194-0.66 0.1 C116.488 60.2 116.5 59.7 116.7 59.322z M116.384 50.01c0.172-0.025 0.2 0.1 0.2 0.3 C116.394 50.3 116.4 50.1 116.4 50.01z M116.713 59.157c0-0.056 0-0.111 0-0.166c0.048 0 0.1 0.1 0.1 0 c0.046-0.01 0.1 0 0.1 0.055c0 0 0 0.1 0 0.111C116.823 59.2 116.8 59.2 116.7 59.157z M116.878 50 c0.272-0.316 0.704-0.084 0.4 0.441C117.098 50.4 116.9 50 116.9 49.955z M116.769 76.1 C116.779 76 117 76.2 116.8 76.13L116.769 76.13z M116.603 61.967c0.011 0.121-0.044 0.175-0.165 0.2 C116.429 62 116.5 62 116.6 61.967z M118.25 64.117c0.045 0.155-0.077 0.143-0.055 0.3 c-0.178-0.005-0.337-0.028-0.439-0.111C117.853 64.1 118.1 64 118.2 64.117z M118.196 62.9 c0.025-0.159 0.116-0.25 0.275-0.275c0 0.1 0 0.1 0 0.22C118.407 62.9 118.3 62.9 118.2 62.904z M117.812 72 c0.075 0.3 0.2 0.5 0.1 0.717c-0.182-0.149-0.317-0.343-0.274-0.717C117.666 72 117.7 72 117.8 71.997z M118.526 75.303c0.097 0 0.1 0.1 0.1 0.221C118.47 75.6 118.5 75.4 118.5 75.303z M118.91 70.2 c0.399 0 0.4 0.553-0.055 0.551C118.699 70.7 118.8 70.4 118.9 70.233z M118.855 64.171c0-0.037 0-0.073 0-0.11 c0.037 0 0.1 0 0.1 0c0 0 0 0.1 0 0.11C118.928 64.2 118.9 64.2 118.9 64.171z M116.988 59.6 c0.877 0.8 2.4 0.1 2.9 0.937C119.072 60.8 117 60.7 117 59.598z M118.196 57.063c0.055 0 0.1 0 0.2 0 c0.112 0.118-0.013 0.311-0.11 0.386C118.092 57.4 118.1 57.1 118.2 57.063z M119.569 45.1 c0.017 0.201-0.009 0.359-0.054 0.497C119.034 45.6 119 45 119.6 45.104z M119.35 50 C119.601 50 119.3 50.3 119.3 50.01L119.35 50.01z M119.734 59.157c0 0.1 0 0.1 0 0.2 c-0.396-0.069-0.556 0.287-1.043 0.166C118.922 59.3 119.3 59.3 119.7 59.157z M120.448 60.3 c0.024-0.104 0.157-0.099 0.109-0.275c0.177-0.112 0.2 0.2 0.2 0.055C120.974 60.2 120.6 60.4 120.4 60.259z M121.272 71.667c0.739 0.822-1.426 1.237-0.769 0.165C120.816 71.8 121.2 71.9 121.3 71.667z M120.557 70.8 c0.141 0.256-0.123 0.373-0.164 0.606c-0.181-0.112-0.522-0.063-0.659-0.22c0.001-0.146-0.021-0.314 0.055-0.386 C120.142 70.9 120.2 70.9 120.6 70.839z M119.898 63.896C120.096 64.2 119.8 64.1 119.9 63.896L119.898 63.896z M120.008 41.743c-0.137-0.013-0.227-0.162-0.109-0.275C120.083 41.4 120 41.6 120 41.743z M119.294 73 c0.71-0.392 1.607-0.257 2.307-0.055c0 0.1 0 0.2 0 0.33c-0.29 0.021-0.687-0.024-0.825 0.3 c-0.369-0.29-0.849-0.187-1.373-0.11C119.401 73.2 119.2 73.2 119.3 72.989z M121.546 68.801c0-0.037 0-0.074 0-0.11 c0.037 0 0.1 0 0.1 0c0 0 0 0.1 0 0.11C121.62 68.8 121.6 68.8 121.5 68.801z M121.711 73.4 c0.104 0.264-0.313 0.607-0.604 0.496C121.184 73.6 121.5 73.5 121.7 73.375z M121.546 63.896c0-0.074 0-0.147 0-0.221 c0.45 0 1.02-0.333 1.482-0.11C122.729 64 122 64 121.5 63.896z M122.37 54.087c0.073 0 0.1 0 0.2 0 c0 0.1 0 0.2 0 0.331C122.356 54.5 122.4 54.3 122.4 54.087z M121.217 68.305c0.119-0.01 0 0.2 0.1 0.3 C121.132 68.6 121.1 68.4 121.2 68.305z M119.515 29.124c0.18 0.2 0.3 0 0.329-0.22 c0.156-0.126 0.4 0.1 0.439-0.11c0.373 0.494-0.285 0.884-0.769 0.882C119.515 29.4 119.4 29.3 119.5 29.124z M118.746 29.621c-0.186-0.163-0.343-0.354-0.33-0.717C118.733 28.8 118.9 29.2 118.7 29.621z M118.471 35.9 c0.047-0.12-0.063-0.479 0.165-0.551c0.172 0.1 0.2 0.4 0.3 0.606c0.706 0 1.2 0.6 1.9 0.3 c0.084 0.2 0.2 0.4 0.2 0.661c-0.402-0.043-0.779-0.098-0.934 0.22c-0.499-0.407-1.92-0.097-1.921-1.157 C118.179 35.9 118.3 35.9 118.5 35.902z M117.427 28.408C117.438 28.2 117.7 28.5 117.4 28.408L117.427 28.408z M116.658 38.547C116.67 38.4 116.9 38.6 116.7 38.547L116.658 38.547z M116.878 40.917c0.127 0.425-0.402 0.425-0.275 0 C116.695 40.9 116.8 40.9 116.9 40.917z M116.603 37.611c0.158 0 0.1 0.2 0.1 0.4 C116.579 38 116.5 37.7 116.6 37.611z M116.384 25.818c0.117-0.033 0.2 0.3 0 0.3 C116.423 25.9 116.4 26 116.4 25.818z M115.669 37.556c0 0.1 0 0.3 0 0.385c-0.168 0.042-0.105-0.151-0.273-0.11 C115.426 37.7 115.5 37.5 115.7 37.556z M114.571 46.152c0.333 0 0.907-0.148 0.934-0.495 c0.16 0.1 0.562-0.182 0.714-0.441c0.582 0.1 0.719-0.653 1.373-0.661c0.373 1.129-1.003 0.975-1.373 1.5 c-0.714 0.037-0.904 0.599-1.593 0.661c-0.182-0.193-0.044-0.317 0-0.551C114.636 46.2 114.6 46.2 114.6 46.152z M114.901 58.716c0.041 0.235-0.299 0.192-0.33 0.055C114.579 58.6 114.8 58.7 114.9 58.716z M114.242 49.3 c0.317 0.2 0 0.865-0.165 1.047C113.38 50 113.9 49.8 114.2 49.293z M112.045 27.2 c0.192-0.05 0.1 0.2 0.1 0.22C112.026 27.4 112.1 27.3 112 27.196z M112.1 42.5 C112.284 42.4 112 42.7 112.1 42.515L112.1 42.515z M112.045 42.35C112.212 42.2 111.9 42.5 112 42.4 L112.045 42.35z M113.363 64.944c-0.281 0.447-0.841 0.465-1.318 0.606C112.141 65.2 112.8 64.9 113.4 64.944z M113.308 40.972C113.493 40.8 113.2 41.2 113.3 40.972L113.308 40.972z M113.363 40.8 c0.077-0.084 0.285-0.156 0.385-0.055c-0.017 0.186-0.027 0.376-0.109 0.496C113.339 41.2 113.7 40.8 113.4 40.807z M113.693 46.262c-0.488 0.049-0.518-0.361-0.494-0.827C113.597 45.5 113.9 45.9 113.7 46.262z M113.583 49.8 c0 0.1 0 0.3 0 0.386C112.588 50.5 112.8 49.2 113.6 49.844z M112.924 48.467c-0.223 0.051-0.19-0.299-0.11-0.386 C113.022 48 112.9 48.3 112.9 48.467z M112.814 63.896c-0.088 0.101-0.324 0.158-0.33-0.055 C112.648 63.8 112.7 63.8 112.8 63.896z M113.308 57.008C113.065 56 114.4 56.9 113.3 57.008L113.308 57.008z M113.639 58.716c0.073 0 0 0.1 0.1 0.22C113.566 58.9 113.6 58.8 113.6 58.716z M113.693 61.2 c0.125 0 0.1 0.3 0.1 0.441C113.624 61.6 113.7 61.3 113.7 61.196z M113.528 51.7 c-0.11-0.459 0.013-0.819 0.439-0.882c0.091 0.137-0.063 0.4 0.1 0.662C113.818 51.5 113.8 51.7 113.5 51.663z M114.022 37.114C114.207 37 113.9 37.3 114 37.114L114.022 37.114z M113.802 34.2 C113.545 34.5 113.6 34.1 113.8 34.25L113.802 34.25z M113.748 33.423c-0.045 0.126-0.219 0.27-0.33 0.2 C113.522 33.5 113.6 33.5 113.7 33.423z M113.253 37.556c0.054-0.002 0.043-0.067 0.055-0.11 c0.193 0.015-0.099 0.2 0.1 0.22c-0.055 0.17-0.09-0.119-0.164-0.11C113.094 37.5 113.3 37.5 113.3 37.556z M113.034 34.415C113.045 34.2 113.3 34.5 113 34.415L113.034 34.415z M113.034 36.8 c0.079-0.163 0 0.127-0.11 0.055C112.824 36.8 113 36.8 113 36.784z M112.705 40.5 c0.081 0 0.1 0.1 0.2 0.11c0 0.2 0 0.4 0 0.606c-0.167 0.04-0.2-0.057-0.329-0.056 C112.663 40.7 112.4 40.8 112.7 40.532z M112.484 33.423c0.013-0.023 0.02-0.035 0.023-0.04 c-0.011 0.018-0.062 0.106-0.073 0.125C112.44 33.5 112.5 33.5 112.5 33.423z M112.43 41 c0.019-0.131-0.001 0.007-0.011 0.074C112.421 41 112.4 41 112.4 40.972z M112.65 58.6 c-0.271-0.004-0.4-0.15-0.439-0.385C112.448 58.1 112.7 58.3 112.7 58.605z M112.208 37.4 c0.001-0.01 0.003-0.022 0.004-0.032c0 0.003-0.001 0.006-0.001 0.01C112.209 37.3 112.2 37.4 112.2 37.357z M112.32 33.588C112.17 33.4 112.5 33.7 112.3 33.588L112.32 33.588z M112.265 33.8 C112.276 33.6 112.5 33.8 112.3 33.753L112.265 33.753z M112.155 34.139C112.167 34 112.4 34.2 112.2 34.1 L112.155 34.139z M112.21 26.81c-0.056 0.006-0.111-0.238-0.166-0.055C111.909 26.7 112.3 26.5 112.2 26.81z M111.991 29.179C112.127 29 112.1 29.4 112 29.179L111.991 29.179z M111.992 38.482c0 0 0 0.007-0.001 0 c-0.001 0.008-0.002 0.016-0.004 0.023C111.988 38.5 112 38.5 112 38.482z M111.936 40.5 c-0.043 0.1-0.059-0.034-0.054-0.111C111.718 40.3 112 40.4 111.9 40.532z M111.167 66 c0.041-0.363 0.4-0.407 0.769-0.441C111.746 65.8 111.5 65.9 111.2 66.046z M111.716 69.9 c-0.025 0.178-0.083 0.32-0.329 0.275c-0.056-0.24 0.113-0.253 0.164-0.385C111.624 69.8 111.6 69.9 111.7 69.902z M111.164 40.72c0.001-0.012 0.003-0.022 0.004-0.033c0 0 0 0.006-0.001 0.01C111.165 40.7 111.2 40.7 111.2 40.72z M111.332 31.108c-0.024 0.086-0.173 0.047-0.11 0.22c-0.21-0.032-0.172 0.001-0.274-0.166 C111.049 31.2 111.1 31.2 111.3 31.108z M110.947 30.281C110.833 30.5 111.1 30 110.9 30.281L110.947 30.281z M111.167 30.171c0.157 0.1 0 0.2 0.2 0.331c-0.208-0.08-0.105 0.151-0.275 0.1 C111.266 30.3 110.9 30.5 111.2 30.171z M111.277 37.06c-0.074-0.037-0.103-0.118-0.11-0.22 C111.262 36.9 111.4 37 111.3 37.06z M111.222 37.28C111.406 37.1 111.1 37.5 111.2 37.28L111.222 37.28z M111.222 31.383c0.055 0 0.1 0.1 0.2 0.11C111.364 31.6 111.2 31.5 111.2 31.383z M111.111 33.6 C110.961 33.4 111.3 33.7 111.1 33.588L111.111 33.588z M111.057 37.776c0 0 0 0.1 0 0.11c-0.037 0-0.073 0-0.109 0 c0-0.037 0-0.073 0-0.11C110.983 37.8 111 37.8 111.1 37.776z M111.002 38.8 C111.187 38.6 110.9 39 111 38.768L111.002 38.768z M111.057 33.808C111.068 33.6 111.3 33.9 111.1 33.8 L111.057 33.808z M111.441 38.823c0.056 0.185-0.171 0.085-0.275 0.11c0.009-0.064-0.012-0.098-0.055-0.11 C111.118 38.7 111.3 38.9 111.4 38.823z M111.496 33.367C111.507 33.2 111.7 33.4 111.5 33.367L111.496 33.367z M111.605 31.604C111.773 31.5 111.5 31.8 111.6 31.604L111.605 31.604z M111.826 37.6 C111.855 37.4 111.9 38.2 111.8 37.611L111.826 37.611z M111.826 41.138C111.999 41.3 111.6 41.4 111.8 41.1 L111.826 41.138z M111.661 29.951c-0.023 0.123-0.291 0.043-0.329 0C111.381 29.8 111.5 30 111.7 29.951z M111.496 26.589c-0.143 0.033-0.197-0.022-0.165-0.165C111.383 26.5 111.5 26.4 111.5 26.589z M111.387 26.6 c0.262 0.103-0.143 0.3 0.1 0.44c-0.134 0.149-0.206-0.23-0.219-0.385C111.34 26.7 111.4 26.7 111.4 26.645z M111.441 27.196c-0.028 0.082-0.082 0.139-0.11 0.22c-0.097-0.014-0.125-0.095-0.11-0.22 C111.295 27.2 111.4 27.2 111.4 27.196z M111.167 29.069C111.334 28.9 111 29.2 111.2 29.069L111.167 29.069z M111.002 27.196c0.19 0.016-0.005 0.1 0.1 0.165C111.05 27.5 111 27.3 111 27.196z M110.892 30 C110.903 29.8 111.1 30.1 110.9 30.006L110.892 30.006z M110.892 35.021C111.077 34.9 110.8 35.2 110.9 35 L110.892 35.021z M110.672 38.547c-0.062-0.079-0.015-0.299 0-0.386c0.044 0 0.1 0.1 0.2 0.1 C110.788 38.3 110.7 38.4 110.7 38.547z M110.73 38.601c-0.011 0.005-0.022 0.011-0.033 0 c0.008-0.004 0.019-0.009 0.03-0.016C110.728 38.6 110.7 38.6 110.7 38.601z M109.464 77.8 c0.12 0 0.1 0.1 0.1 0.275C109.411 78.1 109.4 77.9 109.5 77.783z M109.244 74.5 c-0.045-0.197 0.117-0.273 0.22-0.165C109.481 74.5 109.4 74.5 109.2 74.531z M108.475 70 c-0.152 0.15-0.286 0.456-0.549 0.331c-0.065-0.305 0.157-0.32 0.165-0.551c-0.595-0.766-1.514 0.031-2.197-0.22 c0.395-0.502 2.272-1.091 2.3 0.165c0.276 0.1 1.739-0.236 1.5 0.606C109.161 70.3 108.8 70.1 108.5 69.958z M108.97 74.146c-0.068 0.134-0.111 0.293-0.329 0.276C108.449 74.2 108.8 74 109 74.146z M107.652 71.3 c-0.308 0.645-0.472 1.317-0.824 1.928c0.001-0.362 0.081-0.806-0.055-1.267c0.633-0.228 0.716-1.007 1.099-1.487 C108.287 70.7 108 71.3 107.7 71.335z M107.432 75.138c-0.047-0.044-0.032-0.151-0.109-0.165 c0-0.22 0.334-0.106 0.439-0.221C108.025 74.9 107.6 75.1 107.4 75.138z M108.201 74.6 c0.025 0.118-0.079 0.105-0.166 0.11C108.06 74.6 108.1 74.6 108.2 74.586z M106.664 75.1 c-0.247 0.075-0.267-0.222-0.165-0.331C106.695 74.7 106.7 74.9 106.7 75.083z M103.258 63.8 c0.282-0.025 0.4 0.1 0.5 0.275c0.347-0.157 0.6 0.1 0.9 0.165c0.071 0.603-0.483 0.418-0.824 0.5 c0.205 0.6 0.4 1.678-0.385 1.708C104.143 65.7 103.3 64.7 103.3 63.841z M102.764 45.1 c-0.288-0.129-0.369-0.816-0.165-1.102C102.924 44.1 102.8 44.8 102.8 45.104z M103.423 54.3 c0.047 0.599-0.203 0.899-0.715 0.937C102.703 54.8 102.9 54.4 103.4 54.308z M102.874 64.3 c0.026 0.174-0.078 0.216-0.11 0.331c-0.108-0.038-0.146-0.146-0.165-0.275C102.754 64.4 102.7 64.3 102.9 64.281z M102.819 63.73c0-0.036 0-0.073 0-0.11c0.037 0 0.1 0 0.1 0c0 0 0 0.1 0 0.11C102.893 63.7 102.9 63.7 102.8 63.7 z M103.204 71.721c0.087 0.292-0.362 0.292-0.275 0C103.021 71.7 103.1 71.7 103.2 71.721z M103.094 70.1 c-0.111-0.227-0.055-0.553 0.274-0.496C103.411 69.9 103.3 70 103.1 70.068z M103.039 66.6 c-0.033-0.217 0.123-0.244 0.275-0.276c-0.009 0.1 0 0.1 0.1 0.11C103.276 66.5 103.3 66.6 103 66.596z M104.611 63.669c0.007-0.036 0.017-0.086 0.023-0.117c-0.001 0.004-0.001 0.008-0.002 0 C104.622 63.6 104.6 63.6 104.6 63.669z M104.357 72.658c0.393 0.422-0.207 1.125-0.66 0.7 C103.825 73 103.9 72.7 104.4 72.658z M103.808 74.146c0.082 0.1 0.2 0 0.2 0.221c-0.073 0-0.146 0-0.22 0 C103.808 74.3 103.8 74.2 103.8 74.146z M104.687 76.516c-0.547-0.15-0.636-0.758-0.824-1.268 C104.294 75.5 104.5 76 104.7 76.516z M104.521 65.99c0.258-0.385 0.783-0.5 1.373-0.551 C105.642 65.6 105.1 66.1 104.5 65.99z M104.851 64.392c-0.14-0.005-0.129-0.205-0.055-0.275 C104.936 64.1 104.9 64.3 104.9 64.392z M104.796 62.739c0.42 0.1 0.9 0.2 1 0.7 c-0.25-0.067-0.216 0.151-0.439 0.11c-0.046-0.266-0.169-0.455-0.494-0.441C104.891 62.9 104.8 62.9 104.8 62.739z M105.894 64.281c0.186-0.07 0.2 0.3 0.1 0.331C105.806 64.7 105.9 64.4 105.9 64.281z M105.894 63 c-0.001-0.053-0.067-0.042-0.109-0.055c-0.018-0.127 0.009-0.211 0.054-0.275c0.156-0.046 0.1 0.1 0.3 0.1 C106.083 62.8 106.1 63 105.9 62.959z M105.29 67.588c0.223-0.039 0.3 0.1 0.3 0.3 C105.414 67.8 105.3 67.8 105.3 67.588z M105.345 71.445c0 0.1 0 0.1 0 0.166c-0.12 0.01-0.175-0.045-0.165-0.166 C105.236 71.4 105.3 71.4 105.3 71.445z M105.181 68.635c-0.14-0.006-0.213-0.08-0.22-0.22 C105.059 68.3 105.2 68.4 105.2 68.635z M105.125 73.264c0.389 0.1 0.8 0.4 0.7 0.8 C105.403 74 104.9 73.7 105.1 73.264z M105.675 68.58c0.161-0.049 0.168-0.049 0.3 0c0 0.1 0 0.2 0 0.3 C105.781 68.9 105.7 68.8 105.7 68.58z M106.444 73.871c0 0.1 0 0.1 0 0.165c0.003 0.206-0.244 0.16-0.439 0.2 c0.04-0.169-0.056-0.201-0.055-0.331C106.064 73.8 106.3 73.8 106.4 73.871z M105.839 71.3 C105.85 70.8 106.5 71.4 105.8 71.335L105.839 71.335z M106.828 45.766c0 0.1 0 0.2 0 0.3 c-0.158-0.007-0.261-0.069-0.22-0.276C106.682 45.8 106.8 45.8 106.8 45.766z M106.664 40 C106.867 40.1 106.5 40.2 106.7 39.98L106.664 39.98z M106.938 55.355c-0.178 0.031-0.256-0.038-0.385-0.055 c-0.006-0.099 0.067-0.117 0.055-0.221C106.801 55.2 106.9 55.1 106.9 55.355z M106.608 63.5 c0.593-0.052 1 0.2 1 0.771c-0.258-0.136-0.811-0.279-1.099-0.551C106.547 63.6 106.6 63.6 106.6 63.455z M106.664 67.643c0.223 0 0.4 0.2 0.3 0.44c-0.063-0.008-0.098 0.013-0.11 0.1 C106.663 68.1 106.5 67.8 106.7 67.643z M106.664 63.951c0.142 0.2 0.2 0.7 0.1 0.8 C106.489 64.7 106.6 64.1 106.7 63.951z M106.825 65.737c0.001-0.006 0.002-0.014 0.003-0.022c0-0.004 0-0.007 0.001-0.01 C106.828 65.7 106.8 65.7 106.8 65.737z M106.333 68.801c0-0.128 0-0.257 0-0.386c0.074 0 0.1 0 0.2 0 C106.669 68.6 106.6 68.9 106.3 68.801z M106.278 65.494c-0.009-0.12 0.046-0.175 0.166-0.165 C106.454 65.4 106.4 65.5 106.3 65.494z M107.487 67.919c0.091 0.11-0.005 0.1 0 0.2 C107.275 68.2 107.3 67.9 107.5 67.919z M107.817 68.856c0.082-0.064 0.064-0.229 0.219-0.221 c-0.009 0 0 0.1 0.1 0.056C108.041 68.8 108 68.9 107.8 68.856z M109.354 56.567c0 0 0 0.1 0 0.1 c-0.037 0-0.073 0-0.11 0c0-0.036 0-0.073 0-0.11C109.281 56.6 109.3 56.6 109.4 56.567z M109.354 37.9 C109.204 37.8 109.5 38.1 109.4 37.941L109.354 37.941z M109.354 65.715c0.115-0.023 0.1 0 0.2 0.1 c0.045 0.156-0.078 0.143-0.055 0.276C109.322 66.1 109.4 65.9 109.4 65.715z M109.464 43.2 C109.544 43 109.6 43.4 109.5 43.231L109.464 43.231z M109.464 38.933C109.601 38.7 109.5 39.1 109.5 38.9 L109.464 38.933z M109.629 38.823C109.766 38.6 109.7 39 109.6 38.823L109.629 38.823z M109.903 37.6 c0.117-0.032 0.2 0.3 0 0.275C110.006 37.8 109.9 37.7 109.9 37.611z M110.013 38.4 c0.075 0 0 0.1 0.1 0.22c-0.099-0.007-0.116 0.068-0.22 0.055c0.01-0.063-0.012-0.098-0.055-0.11 c0.02-0.077 0.097-0.005 0.1 0.055C109.977 38.6 110 38.5 110 38.382z M109.903 57.1 c0.14 0 0.2 0.1 0.2 0.22C109.951 57.3 109.9 57.2 109.9 57.063z M110.123 61.1 c-0.105-0.078-0.336-0.03-0.275-0.276C110.018 60.7 110.2 60.8 110.1 61.086z M110.068 34.4 c-0.007-0.002-0.013-0.005-0.02-0.006c0.012 0 0 0 0 0.012C110.079 34.4 110.1 34.4 110.1 34.359z M110.07 38.097c-0.001 0.011-0.003 0.021-0.005 0.033c0.001-0.007 0.002-0.015 0.003-0.023 C110.068 38.1 110.1 38.1 110.1 38.097z M109.684 36.563C109.534 36.4 109.9 36.7 109.7 36.563L109.684 36.563z M109.848 74.477c0 0.1 0 0.2 0 0.275c-0.167 0.021-0.114-0.178-0.165-0.275C109.739 74.5 109.8 74.5 109.8 74.477z M109.848 75.303c-0.036 0-0.073 0-0.109 0c0.01-0.046-0.022-0.051-0.055-0.055C109.662 75.1 109.9 75.2 109.8 75.303z M109.903 61.912c0.051 0.2 0.2 0.3 0.2 0.551C109.71 62.5 109.9 62.1 109.9 61.912z M110.013 66.4 C109.714 65.3 111 66.1 110 66.375L110.013 66.375z M110.618 37.445c0.069 0.1 0.2 0.363-0.055 0.3 C110.696 37.7 110.5 37.5 110.6 37.445z M110.618 37.391c-0.239-0.1-0.452 0.201-0.439-0.276 c0.136-0.029 0.309-0.049 0.384-0.11C110.685 37 110.6 37.3 110.6 37.391z M110.782 33.9 C110.426 33.9 110.7 33.6 110.8 33.863L110.782 33.863z M110.508 62.188c-0.193-0.038-0.271-0.191-0.165-0.385 C110.612 61.7 110.6 62.1 110.5 62.188z M110.398 40.09C110.409 39.9 110.6 40.1 110.4 40.09L110.398 40.09z M110.178 44.609C110.27 44.4 110.4 44.8 110.2 44.609L110.178 44.609z M110.178 39.3 C110.314 39.1 110.3 39.5 110.2 39.319L110.178 39.319z M110.178 35.626c-0.098-0.04-0.008-0.1 0-0.165 C110.276 35.5 110.2 35.6 110.2 35.626z M110.672 67.533C109.683 67.6 110.9 66.4 110.7 67.533L110.672 67.533z M110.727 38.051c-0.039-0.168 0.057-0.201 0.055-0.331c0.183 0.1 0 0.2 0.1 0.3 C110.837 38.1 110.8 38.1 110.7 38.051z M110.782 29.29C110.793 29.1 111 29.3 110.8 29.29L110.782 29.29z M110.837 31.438c-0.074-0.055-0.108-0.148-0.22-0.165C110.682 31.1 110.9 31.3 110.8 31.438z M110.672 30.3 c-0.091 0.005-0.131 0.009-0.142 0.009C110.563 30.3 110.9 30.3 110.7 30.337z M110.453 30.4 c0.146-0.01 0.3 0.1 0 0.166C110.453 30.6 110.5 30.5 110.5 30.447z M110.563 30.9 c0.077 0 0 0.098-0.055 0.111c-0.009 0.1 0 0.1 0.1 0.11c-0.061 0.161-0.179-0.07-0.165-0.166 C110.476 30.9 110.6 31 110.6 30.887z M110.398 31.935C110.478 31.8 110.5 32.1 110.4 31.935L110.398 31.935z M110.288 30.777c-0.108-0.038-0.146-0.146-0.165-0.275C110.295 30.5 110.3 30.6 110.3 30.777z M110.123 30 c-0.142-0.071-0.173-0.114-0.11-0.275c0.044 0 0.1 0.1 0.2 0.055C110.135 29.8 110.1 29.9 110.1 29.951z M110.123 29.234c0.03 0.123-0.105 0.079-0.11 0.165c-0.064-0.009-0.046-0.1-0.055-0.165 C110.013 29.2 110.1 29.2 110.1 29.234z M109.574 29.069C109.585 28.9 109.8 29.1 109.6 29.069L109.574 29.069z M109.574 29.234C109.639 29.1 109.9 29.3 109.6 29.234L109.574 29.234z M109.848 30.8 c-0.095 0.2 0 0.1 0.1 0.33c-0.2 0.148-0.315-0.172-0.384-0.33C109.692 30.8 109.6 30.8 109.8 30.833z M109.409 29.841C109.42 29.7 109.6 29.9 109.4 29.841L109.409 29.841z M109.409 31.2 C109.42 31 109.6 31.2 109.4 31.163L109.409 31.163z M109.409 36.398C109.474 36.2 109.7 36.5 109.4 36.4 L109.409 36.398z M109.409 36.784C109.096 37 109.2 36.6 109.4 36.784L109.409 36.784z M109.19 30.8 C109.282 30.6 109.4 31 109.2 30.777L109.19 30.777z M109.19 37.721C109.356 37.6 109 37.9 109.2 37.7 L109.19 37.721z M109.354 66.981c0.119-0.008 0 0.2 0.1 0.276c-0.097-0.049-0.16-0.134-0.275-0.166 C109.14 66.9 109.3 67.1 109.4 66.981z M108.97 43.893c0.037 0 0.1 0 0.1 0c0 0 0 0.1 0 0.1 c-0.036 0-0.072 0-0.109 0C108.97 44 109 43.9 109 43.893z M107.432 65.494c-0.355 0.225-0.003 0.738-0.494 0.8 c0.018-0.331 0.131-0.565 0.274-0.771c0.01-0.12-0.195-0.025-0.274-0.056c-0.024-0.199-0.141-0.266-0.055-0.44 c0.651 0.2 1.165-0.096 1.922-0.055C108.763 65.8 107.8 65.3 107.4 65.494z M107.762 39.3 C107.929 39.2 107.6 39.5 107.8 39.319L107.762 39.319z M107.817 40.255C107.828 40.1 108 40.3 107.8 40.3 L107.817 40.255z M108.146 40.146C108.157 40 108.4 40.2 108.1 40.146L108.146 40.146z M108.201 56 c-0.128-0.019-0.258-0.036-0.22-0.221C108.109 55.8 108.2 55.8 108.2 55.961z M108.201 39.4 C108.081 39.6 107.8 39.4 108.2 39.429L108.201 39.429z M108.036 39.319c-0.036 0-0.072 0-0.109 0c0-0.037 0-0.073 0-0.11 c0.037 0 0.1 0 0.1 0C108.036 39.2 108 39.3 108 39.319z M108.421 43.7 C108.432 43.5 108.6 43.7 108.4 43.672L108.421 43.672z M108.475 37.391C108.612 37.2 108.6 37.6 108.5 37.4 L108.475 37.391z M108.475 37.721C108.486 37.6 108.7 37.8 108.5 37.721L108.475 37.721z M108.475 39.5 c-0.097 0-0.159-0.309-0.274-0.11c-0.232-0.055 0.194-0.148 0-0.165c0.126-0.275 0.2 0.4 0.3 0 C108.636 39.3 108.4 39.4 108.5 39.484z M108.366 38.051C108.377 37.9 108.6 38.1 108.4 38.051L108.366 38.051z M108.421 38.437c-0.075-0.017-0.046-0.138-0.055-0.221c-0.044 0.03-0.089 0.058-0.165 0.1 C108.212 38 108.5 38.2 108.4 38.437z M108.256 38.602C108.268 38.4 108.5 38.7 108.3 38.602L108.256 38.602z M108.091 38.823c0.097-0.006 0.1 0.1 0.3 0.165c-0.133 0.148-0.438 0.002-0.604 0c0.016-0.129 0.148-0.129 0.2 0 c0.175-0.196-0.008-0.473 0.275-0.606C108.268 38.6 108.1 38.6 108.1 38.823z M108.146 37.4 c-0.039 0.044-0.085 0.1 0 0.165c-0.049 0.148-0.132-0.116-0.165-0.165c-0.044 0.028-0.089 0.057-0.165 0.1 C107.867 37.2 108 37.4 108.1 37.391z M107.652 38.327C107.744 38.1 107.8 38.5 107.7 38.327L107.652 38.327z M107.817 38.547c0.062 0 0 0.1 0 0.055c-0.011 0 0 0.1 0.1 0.055c-0.018 0.075-0.138 0.046-0.22 0.1 C107.635 38.6 107.8 38.7 107.8 38.547z M107.652 38.823C107.732 38.6 107.8 39 107.7 38.823L107.652 38.823z M107.487 38.162C107.552 38 107.8 38.2 107.5 38.162L107.487 38.162z M107.652 39.5 c-0.203 0.039-0.243-0.087-0.22-0.275C107.478 39.3 107.6 39.3 107.7 39.484z M107.543 40.2 c0 0.003-0.001 0.006-0.001 0.01c-0.001 0.009-0.002 0.016-0.003 0.022C107.541 40.2 107.5 40.2 107.5 40.191z M107.268 28.022C107.278 27.9 107.5 28.1 107.3 28.022L107.268 28.022z M107.323 40.4 c0.006 0 0 0 0 0.027c-0.03-0.047-0.11-0.155-0.18-0.138c0.019-0.072 0.097-0.087 0.11-0.165 C107.386 40.2 107.2 40.2 107.3 40.366z M107.157 39.925C107.324 39.7 107.3 40.1 107.2 39.925L107.157 39.925z M107.157 38.933c0.099 0 0 0.1 0 0.166C107.06 39.1 107.1 39 107.2 38.933z M106.828 46.4 C107.806 45.1 108 47.5 106.8 46.372L106.828 46.372z M106.828 40.532c-0.089-0.055-0.126-0.147-0.055-0.221 C106.864 40.4 107 40.4 106.8 40.532z M106.773 38.988C106.653 39.2 106.4 38.9 106.8 38.988L106.773 38.988z M106.608 38.602C106.812 38.8 106.4 38.8 106.6 38.602L106.608 38.602z M106.553 28.4 c-0.093-0.021-0.103 0.042-0.109 0.11C106.347 28.4 106.6 27.8 106.6 28.353z M106.444 55.1 c-0.091 0.1 0 0.1 0 0.221c-0.064-0.046-0.147-0.073-0.275-0.056C106.144 55.1 106.3 55.1 106.4 55.079z M106.06 35.902C106.071 35.7 106.3 36 106.1 35.902L106.06 35.902z M105.839 31 C106.024 30.9 105.7 31.2 105.8 30.998L105.839 30.998z M105.071 29.621C105.083 29.5 105.3 29.7 105.1 29.6 L105.071 29.621z M105.949 55.3c-0.337-0.064-0.489-0.21-0.878-0.166c0.022-0.132-0.101-0.119-0.055-0.275 C105.285 55 106 54.8 105.9 55.3z M104.851 61.912c0.049 0 0.1 0.1 0.2 0.1 c-0.049 0.116-0.086 0.245-0.165 0.331c-0.028 0.2 0.3 0 0.2 0.221c-0.374 0.25-0.66-0.403-1.208-0.331 c-0.163 0.001-0.07 0.26-0.164 0.331c-0.723-0.796 0.678-0.81 1.043-0.331C104.87 62.1 104.8 62 104.9 61.912z M103.972 51.498c0.131 0 0.2 0.2 0.1 0.33C103.846 51.8 103.9 51.6 104 51.498z M104.576 54.9 c-0.189 0.197-0.89 0.215-0.934-0.166C104.009 54.7 104.3 54.7 104.6 54.859z M103.423 55.8 c-0.007-0.136-0.009-0.265 0.055-0.331C103.718 55.5 103.6 55.8 103.4 55.795z M103.478 40.1 c0.051 0.583-0.544 0.519-0.714 0.881C102.007 40.8 102.9 39.9 103.5 40.146z M101.775 62.7 c0.062 0.223-0.168 0.273-0.274 0.166C101.551 62.8 101.6 62.7 101.8 62.684z M100.623 74 c-0.109-0.001-0.07-0.151-0.22-0.11C100.425 73.7 100.7 73.8 100.6 73.981z M100.072 76.1 C100.084 75.9 100.3 76.1 100.1 76.075L100.072 76.075z M98.48 76.46c0.191 0 0.211-0.082 0.384-0.056 c0.086 0.601-0.474 0.553-0.769 0.772c0.025-0.118-0.079-0.105-0.165-0.111C97.966 76.7 98.5 76.9 98.5 76.46z M97.986 71.611c-0.057 0.354-0.551 0.476-0.934 0.33C97.14 71.4 97.7 71.6 98 71.611z M97.657 74.7 c0.018 0.128-0.009 0.211-0.055 0.276C97.438 75 97.5 74.6 97.7 74.697z M97.492 76 c-0.405-0.049-0.082-0.466-0.11-0.771C97.592 75.4 97.6 75.8 97.5 76.019z M97.107 78.7 c-0.072 0.11-0.18 0.186-0.33 0.22C96.786 78.7 96.9 78.6 97.1 78.665z M96.833 76.681c-0.08-0.13-0.116-0.103-0.055-0.276 c0.137-0.007 0.2 0.1 0.3 0.111C97.005 76.6 97 76.7 96.8 76.681z M96.778 70.3 c-0.177 0.076-0.287 0.161-0.329-0.11C96.532 70.1 96.8 70.1 96.8 70.343z M96.503 72.9 c-0.017 0.074-0.137 0.046-0.22 0.055C96.27 72.8 96.5 72.8 96.5 72.934z M96.668 85.9 c0.076 0.2 0.3 0.3 0.3 0.605c-0.444 0.023-0.403-0.44-0.768-0.496C96.241 85.9 96.5 86 96.7 85.939z M96.833 83.349c0-0.073 0-0.147 0-0.222c0.055 0 0.1 0 0.2 0C97.014 83.3 97 83.4 96.8 83.349z M96.119 93.2 c0.089-0.015 0.1 0.1 0.2 0.055c-0.012 0.2 0.1 0.497-0.165 0.497C96.071 93.6 96 93.3 96.1 93.157z M96.119 94.921c0.007 0.098-0.067 0.117-0.055 0.22c-0.119-0.007-0.117-0.138-0.109-0.274 C96.043 94.9 96 94.9 96.1 94.921z M96.174 92.165c-0.097-0.013-0.125-0.094-0.11-0.221c0.055 0 0.1 0 0.2 0 C96.251 92.1 96.2 92.1 96.2 92.165z M95.735 89.411C95.42 88.1 96.9 89.2 95.7 89.411L95.735 89.411z M95.899 74.477c0.11-0.019 0.2 0 0.2 0.11c-0.055 0-0.109 0-0.164 0C95.899 74.5 95.9 74.5 95.9 74.477z M94.801 83.127c0.189-0.018 0.2 0.3 0.1 0.387C94.736 83.5 94.7 83.3 94.8 83.127z M94.251 75 c0.045 0 0.1 0.1 0.1 0.055c-0.01 0.045-0.055 0.055-0.055 0.11c-0.044-0.011-0.054-0.055-0.11-0.055 C94.208 75.1 94.3 75.1 94.3 75.027z M94.033 69.407c0.154 0.1 0.2 0.2 0.1 0.4 C93.929 69.8 93.9 69.4 94 69.407z M93.922 71.776c0.261 0.1 0.1 0.516-0.166 0.4 C93.592 72 93.8 71.8 93.9 71.776z M94.033 74.917c-0.043 0.049-0.06 0.125-0.055 0.2 c-0.112-0.017-0.108-0.149-0.221-0.165C93.749 74.9 94 74.9 94 74.917z M93.867 77.3 c-0.103 0.108-0.264 0.031-0.22-0.165C93.792 77.2 93.9 77.2 93.9 77.342z M93.482 74.7 C93.494 74.5 93.7 74.8 93.5 74.697L93.482 74.697z M92.878 74.751c-0.007 0.177-0.125 0.243-0.329 0.2 C92.497 74.7 92.7 74.7 92.9 74.751z M92.714 71.832c-0.221 0.002-0.387-0.053-0.383-0.276 C92.5 71.6 92.7 71.6 92.7 71.832z M92.385 72.603C92.227 74.4 90.8 72.9 92.4 72.603L92.385 72.603z M91.78 79.822c-0.086 0.434-0.715 0.048-1.043 0.056C90.8 79.5 91.5 79.8 91.8 79.822z M90.792 77.6 c0.152 0.1 0.3 0.1 0.2 0.33C90.786 78 90.7 77.8 90.8 77.618z M91.89 78.7 C91.004 78.4 92.5 77.8 91.9 78.72L91.89 78.72z M91.945 74.862c-0.073 0-0.147 0-0.22 0c-0.041-0.17 0.15-0.106 0.11-0.276 C92.02 74.5 91.9 74.8 91.9 74.862z M91.671 75.303C90.819 75.9 91.3 74.3 91.7 75.303L91.671 75.303z M91.176 71.225c-0.924-0.396-2.242-0.688-2.636-1.433C89.409 70.3 90.5 70.5 91.2 71.225z M90.462 79.8 C90.473 79.6 90.7 79.8 90.5 79.767L90.462 79.767z M89.254 76.405c-0.023-0.115 0.038-0.145 0.055-0.22 C89.406 76.2 89.4 76.5 89.3 76.405z M89.324 76.084c0.004-0.018 0.016-0.07 0.04-0.176 C89.388 75.8 89.3 76 89.3 76.084z M89.145 80.428c0 0.1 0 0.2 0 0.275c-0.158-0.007-0.261-0.068-0.219-0.275 C88.998 80.4 89.1 80.4 89.1 80.428z M88.705 75.579c0.046 0.1 0.1 0.1 0.1 0.3 c-0.203 0.04-0.243-0.087-0.22-0.275C88.595 75.6 88.7 75.6 88.7 75.579z M88.101 74.6 c0.144 0.1 0.2 0.2 0.2 0.441c-0.11 0-0.22 0-0.33 0C88.013 74.8 88 74.7 88.1 74.642z M86.014 76.1 c0.133 0 0.12-0.102 0.275-0.056C86.318 76.2 86 76.3 86 76.075z M86.564 76.516c-0.055 0-0.111 0-0.166 0 c0.034-0.049 0.066-0.099 0-0.111c-0.01-0.047 0.021-0.052 0.055-0.055c0.037 0 0.1 0 0.1 0 C86.564 76.4 86.6 76.5 86.6 76.516z M86.564 71.556c-0.115-0.05-0.167-0.162-0.166-0.331c0.155-0.057 0.229-0.057 0.4 0 C86.83 71.5 86.6 71.4 86.6 71.556z M86.729 81.806C86.739 81.6 87 81.9 86.7 81.806L86.729 81.806z M86.893 71.225c0.171-0.026 0.2 0.1 0.1 0.22C86.906 71.4 86.9 71.4 86.9 71.225z M86.947 85.7 c0.218-0.016 0.3 0.1 0.3 0.331C86.97 86 86.9 85.9 86.9 85.662z M87.332 80.8 c0.082-0.088 0.313-0.081 0.3 0.11C87.428 80.9 87.3 81.1 87.3 80.813z M87.552 70 C87.617 69.8 87.8 70 87.6 69.958L87.552 69.958z M87.936 73.595c0.023 0.189-0.017 0.314-0.22 0.3 C87.721 73.7 87.7 73.6 87.9 73.595z M88.321 81.31c-0.143-0.076-0.331-0.109-0.495-0.164 C87.917 80.9 88.5 81.1 88.3 81.31z M87.881 92.552c-0.082-0.359 0.406-0.438 0.55-0.387 C88.439 92.5 88.2 92.5 87.9 92.552z M87.991 87.426c-0.111-0.441 0.374-0.763 0.879-0.771 c-0.015 0.2 0.1 0.3 0.1 0.44C88.47 87 88.3 87.3 88 87.426z M89.309 85.112c-0.167 0.04-0.2-0.056-0.329-0.056 c-0.065-0.304 0.196-0.28 0.438-0.275C89.445 85 89.3 85 89.3 85.112z M89.089 81.1 c0.021-0.377 0.147-0.312 0.439-0.386C89.389 80.8 89.3 81 89.1 81.089z M90.13 88.165c0-0.007 0.001-0.014 0.003-0.021 c0-0.004 0.001-0.007 0.002-0.011C90.133 88.1 90.1 88.2 90.1 88.165z M89.914 71.225c-0.132-0.184 0.108-0.357 0.274-0.22 C90.178 71.2 90.1 71.2 89.9 71.225z M90.297 87.765c0-0.002 0-0.005 0-0.007c0.002-0.014 0.003-0.023 0.005-0.031 C90.3 87.7 90.3 87.8 90.3 87.765z M90.297 87.592C90.309 87.4 90.5 87.6 90.3 87.592L90.297 87.592z M90.462 86.711c-0.01 0.046-0.016 0.079-0.021 0.104c0.007-0.036 0.017-0.087 0.022-0.117 C90.464 86.7 90.5 86.7 90.5 86.711z M90.518 80.483c0.589-0.233 1.666-0.566 2.196-0.11 c-0.078 0.231-0.467 0.392-0.714 0.275c-0.116-0.033-0.198 0.3 0 0.275c-0.007 0.121-0.137 0.118-0.274 0.1 c0-0.075 0-0.147 0-0.222C91.249 80.8 90.7 81 90.5 80.483z M92.934 84.562c0.027 0.21-0.015 0.352-0.109 0.4 c-0.191-0.122-0.509-0.115-0.604-0.33C92.449 84.7 92.7 84.3 92.9 84.562z M90.957 82.2 c0.003-0.005 0.006-0.009 0.008-0.014c-0.011 0.019-0.023 0.042-0.036 0.063C90.936 82.3 90.9 82.3 91 82.246z M92.604 90.127c-0.691 0.104-1.012 0.67-1.648 0c0-0.092 0-0.185 0-0.275c0.088-0.095 0.23-0.138 0.44-0.111 c-0.017-0.167-0.17-0.196-0.11-0.44c0.242-0.303 0.86-0.081 0.8 0.387C92.521 89.4 93 89.8 92.6 90.127z M92.714 89.3 C93.835 89.4 92.7 90.5 92.7 89.3L92.714 89.3z M93.593 81.31c-0.045-0.197 0.117-0.273 0.219-0.164 C93.764 81.2 93.8 81.4 93.6 81.31z M93.867 83.734c-0.068-0.023-0.112-0.07-0.11-0.167 C93.874 83.5 93.9 83.6 93.9 83.734z M93.867 93.269c-0.372 0.01-0.179-0.446 0-0.497 C94.069 92.8 94 93.2 93.9 93.269z M93.867 90.897c0.05-0.097 0.102-0.189 0.275-0.164 C94.074 90.8 94 91 93.9 90.897z M94.417 81.419c-0.201 0.013-0.21 0.076-0.384 0c0.041-0.159 0.13-0.273 0.219-0.384 c-0.036-0.075-0.117-0.104-0.219-0.111c0-0.092 0-0.184 0-0.275c0.25-0.018 0.304-0.057 0.5 0.1 C94.334 80.9 94.3 81.1 94.4 81.419z M93.812 80.483c-0.256 0.036-0.315-0.125-0.439-0.222 c-0.044 0.031-0.089 0.059-0.164 0.056c-0.023 0.1 0.1 0.1 0.1 0.276c-0.079-0.005-0.157-0.009-0.166 0.1 c-0.017-0.119-0.131-0.448-0.385-0.497c0.448-0.156 1.986-0.695 2.032-0.11C94.799 80.7 93.8 79.7 93.8 80.483z M94.582 90.844c-0.075-0.326 0.264-0.299 0.439-0.221C94.993 90.8 94.8 90.9 94.6 90.844z M95.24 81.4 c-0.27-0.004-0.398-0.149-0.438-0.386c0.189-0.173 0.2 0.1 0.5 0.057C95.303 81.2 95.3 81.3 95.2 81.364z M95.021 80.1 c-0.048-0.29 0.299-0.366 0.274-0.056C95.231 80.1 95.1 80.1 95 80.098z M95.405 83.4 c-0.14-0.007-0.129-0.207-0.055-0.277C95.522 83.2 95.4 83.3 95.4 83.404z M95.57 79.8 c0.119-0.035 0.2 0.2 0.165-0.055c0.067 0 0.1 0.1 0.1 0.166C95.741 79.9 95.5 80 95.6 79.822z M97.107 97.896c-0.509 0.152-0.737 0.846-1.482 0.44c-0.136-0.576 0.316-0.769 0.659-0.551c0.22-0.019 0.026-0.452 0.166-0.55 c0.036 0 0.1 0 0.1 0c0.138 0.2 0.3 0.3 0.5 0.274C97.107 97.6 97.1 97.8 97.1 97.896z M97.766 89.7 c-0.119-0.009-0.117-0.139-0.109-0.275c0.155-0.046 0.1 0.1 0.3 0.055C97.98 89.6 97.8 89.5 97.8 89.687z M97.602 85.884c0.201-0.134 0.5 0.1 0.5 0.275C97.867 86.3 97.5 86.1 97.6 85.884z M97.492 81 c-0.007-0.099 0.067-0.116 0.055-0.22c0.044 0 0.1 0.1 0.2 0.055C97.729 81 97.6 81 97.5 80.979z M98.754 94.921c-0.198 0.089-0.265-0.01-0.438 0.056c-0.229-0.313 0.196-0.505 0.438-0.331 C98.754 94.7 98.8 94.8 98.8 94.921z M98.151 83.127c0.032-0.112 0.105-0.228 0.219-0.109 C98.357 83.1 98.3 83.1 98.2 83.127z M98.7 80.262c-0.163 0.002-0.223-0.218-0.109-0.329 c0.088-0.016 0.1 0.1 0.2 0.055C98.777 80.1 98.7 80.1 98.7 80.262z M96.503 79.2 c0.381 0.3 1.003-0.006 1.538-0.055c-0.145 0.2 0 0.3 0.2 0.331c0.25-0.005 0.224-0.29 0.438-0.331 c0.12 0.2 0.4 0.2 0.4 0.551C98.377 79.9 96.9 80.2 96.5 79.215z M99.03 79.2 c-0.023-0.115 0.038-0.146 0.055-0.22c0.158 0 0.3 0.1 0.2 0.275C99.172 79.2 99.2 79.1 99 79.16z M99.084 86.655c0.001-0.161 0.31-0.13 0.385-0.055C99.517 86.8 99.1 86.8 99.1 86.655z M99.579 90.2 C99.589 90 99.8 90.2 99.6 90.182L99.579 90.182z M100.293 89.52C100.385 89.3 100.5 89.7 100.3 89.5 L100.293 89.52z M100.293 87.096c-0.117 0.027-0.105-0.078-0.11-0.165c-0.128 0.124-0.393 0.266-0.549 0.1 c0.03-0.044 0.058-0.089 0.055-0.164c0.19 0 0.211-0.082 0.384-0.055c-0.028-0.209-0.076-0.259 0.055-0.386 c0.055 0 0.1 0 0.2 0C100.384 86.6 100.6 87 100.3 87.096z M100.951 88.252c0.003-0.415 0.105-0.644-0.109-0.881 c0.191-0.164 0.2 0.2 0.4 0.221c-0.013 0.079-0.164 0.019-0.165 0.111c0.083 0.1 0.2 0.1 0.2 0.2 C101.353 88 101.2 88.2 101 88.252z M102.215 79.05c-0.895-0.123-1.836 0.92-2.636 0.3 c0.057-0.2 0.314-0.199 0.439-0.331c0.176-0.048 0.1 0.1 0.2 0.165c0.104-0.005 0.039-0.182 0.165-0.165 c-0.115-0.163-0.284-0.532-0.054-0.716c0.259-0.026 0.3 0.5 0.1 0.606c0.399-0.208 1.042-0.144 1.648-0.166 C102.079 78.9 102.3 78.8 102.2 79.05z M101.94 54.914c0.025-0.246 0.501-0.353 0.5 0 C102.179 54.9 102.1 55 101.9 54.914z M102.38 80.538c-0.04-0.15 0.3 0 0.219-0.11c0.129 0 0 0.2 0 0.3 C102.423 80.8 102.5 80.6 102.4 80.538z M102.708 92.827c-0.072 0-0.146 0-0.219 0c-0.025-0.172 0.048-0.246 0.219-0.222 C102.708 92.7 102.7 92.8 102.7 92.827z M103.149 84.01c-0.075-0.018-0.046-0.138-0.055-0.221 C103.286 83.7 103.2 84 103.1 84.01z M104.357 79.16c0.009-0.228 0.123-0.393 0.384-0.495 c-0.418-0.117-1.023 0.426-1.373-0.056c-0.217 0.075-0.353 0.469-0.66 0.276c-0.017-0.257 0.38-0.096 0.496-0.22 c0.018-0.111-0.012-0.173-0.11-0.166c0.72-0.27 1.46-0.518 2.251-0.716c-0.17 0.27-0.296 0.584-0.604 0.7 C106.027 78.1 105.8 79.5 104.4 79.16z M105.455 80.483c-0.073 0-0.147 0-0.219 0c-0.05-0.233 0.056-0.311 0.164-0.386 C105.471 80.2 105.5 80.4 105.5 80.483z M105.125 88.749c-0.079-0.42 0.347-0.785 0.385-1.268 C105.754 87.8 105.4 88.6 105.1 88.749z M105.51 76.075C105.603 75.9 105.7 76.3 105.5 76.075L105.51 76.075z M105.785 92.222c-0.113-0.204 0.015-0.306 0.054-0.497c0.055 0 0.1 0 0.2 0C106.01 92 106 92.2 105.8 92.222z M106.06 88.144c-0.099-0.009-0.116 0.066-0.221 0.055c-0.062-0.241 0.001-0.182 0.055-0.387 C106.092 87.8 106.1 88 106.1 88.144z M106.115 77.342c0-0.13-0.095-0.163-0.055-0.331 c0.497 0.3 1.2 0.4 1.4 0.937c-0.433 0.036-0.66-0.514-1.263-0.22c-0.043-0.191 0.051-0.243 0.165-0.276 C106.38 77.3 106.2 77.3 106.1 77.342z M106.608 78.554c-0.064-0.009-0.046-0.1-0.055-0.166 C106.736 78.4 106.6 78.5 106.6 78.554z M107.432 81.199C107.413 82.7 106.1 81.3 107.4 81.199L107.432 81.199z M106.938 88.252c-0.08-0.157-0.154-0.323 0-0.44c0.094-0.012 0.1 0.1 0.2 0C107.249 87.9 107.1 88.2 106.9 88.252z M107.981 88.252c0.009-0.063-0.012-0.096-0.055-0.108c-0.059-0.28 0.211-0.229 0.33-0.332c0.096 0.1 0.1 0.2 0.1 0.3 C108.274 88.2 108.2 88.3 108 88.252z M108.421 84.119c-0.556-0.195-0.727-0.776-1.264-0.992 c-0.026-0.209 0.017-0.351 0.11-0.44c0.295 0.2 0.6 0.3 0.7 0.662c0.25-0.179 0.444-0.157 0.7 0 C108.788 83.8 108.4 83.7 108.4 84.119z M107.652 82.577c0.713 0 1.4 0.2 2.1 0.3 C109.244 83.2 108.1 82.9 107.7 82.577z M109.684 86.82c-0.163 0.065-0.187 0.015-0.33-0.055 c-0.162 0.057-0.07 0.37-0.275 0.386c-0.101-0.543 0.156-0.726 0.604-0.717C109.762 86.5 109.8 86.7 109.7 86.82z M109.19 84.505c-0.168 0.04-0.2-0.056-0.33-0.054C108.837 84.2 109.3 84.2 109.2 84.505z M110.123 91.8 c-0.378 0.119-0.334-0.423-0.055-0.385C110.145 91.5 110.1 91.6 110.1 91.779z M108.97 88.1 c0.263-0.604 0.8 0 1.208-0.22C110.152 88.2 109.2 88.3 109 88.088z M110.288 74.9 c-0.176-0.083-0.33-0.385-0.165-0.496c0.044 0 0.1 0.1 0.2 0.055C110.288 74.6 110.3 74.7 110.3 74.862z M110.288 71.667c-0.201-0.052-0.179-0.269 0.055-0.276C110.389 71.5 110.3 71.5 110.3 71.667z M110.288 70.1 c0.075 0 0 0.1 0.1 0.22C110.215 70.3 110.2 70.1 110.3 70.068z M110.727 85.6 c-0.127 0.019-0.21-0.009-0.274-0.054c0.006-0.159 0.068-0.263 0.274-0.223C110.727 85.4 110.7 85.5 110.7 85.553z M110.727 39.153C110.864 38.9 110.8 39.3 110.7 39.153L110.727 39.153z M111.111 38.9 c0.044 0.1 0.1 0.2 0.1 0.33c-0.055 0-0.11 0-0.165 0c0.142-0.161-0.12-0.292-0.219-0.165 C110.753 38.9 111 38.9 111.1 38.878z M110.837 40.09C110.93 39.9 111 40.3 110.8 40.09L110.837 40.09z M110.947 40.586C111.131 40.5 110.8 40.8 110.9 40.586L110.947 40.586z M110.947 65.4 c0.142-0.017 0.2 0.373-0.055 0.275C110.847 65.6 111 65.6 110.9 65.439z M110.837 70.1 c0.132 0 0.119-0.102 0.274-0.055c0.018 0.127-0.009 0.211-0.055 0.275C110.885 70.3 110.8 70.2 110.8 70.068z M113.089 85.057c-0.268 0.056-0.101-0.294 0-0.11C113.089 85 113.1 85 113.1 85.057z M111.605 83.3 c-0.065-0.072-0.021-0.088 0-0.165c0.325 0.1 1.2 0.1 1.5 0.384C112.809 83.9 112 83.5 111.6 83.349z M112.375 82.302c-0.237-0.428 0.51-0.455 0.824-0.331C113.22 82.4 112.7 82.2 112.4 82.302z M111.057 73.4 c-0.138-0.222 0.127-0.44 0.11-0.716c0.497 0.4 1.179-0.095 1.7 0.275c0.071-0.22 0.393-0.261 0.549-0.11 C113.279 74 111.8 73.2 111.1 73.43z M113.418 85.167C113.499 85 113.6 85.4 113.4 85.167L113.418 85.167z M113.308 64.558c0.095-0.623 0.402-1 0.44-1.543C113.975 63.3 113.7 64.2 113.3 64.558z M113.802 62.6 c-0.124-0.041-0.021-0.309-0.054-0.441C113.915 62.1 113.9 62.5 113.8 62.574z M114.022 85.442c0.055 0 0.1 0 0.2 0 c0.063 0.1 0.1 0.2 0.1 0.331C113.982 85.9 113.9 85.6 114 85.442z M114.242 82 c-0.288-0.041-0.101-0.328 0-0.44C114.481 81.7 114.2 81.9 114.2 82.026z M114.407 79 c-0.495-0.218-0.288-0.916-0.44-1.543C114.153 77.9 114.6 78.6 114.4 78.995z M114.187 64.8 c0.005-0.272 0.572-0.268 0.769-0.165C114.904 64.9 114.4 64.9 114.2 64.777z M114.901 82.1 c-0.199-0.036-0.089-0.32 0-0.385C115.177 81.7 114.9 82 114.9 82.081z M115.396 83.6 C115.532 83.4 115.5 83.8 115.4 83.624L115.396 83.624z M115.396 81.696c0.142-0.867-0.931-1.092-0.66-2.095 c0.295 0.8 0.7 1.6 1.3 2.095C115.928 81.8 115.5 81.8 115.4 81.696z M116.077 82.2 c-0.003-0.005-0.01-0.017-0.023-0.039c-0.029-0.052-0.044-0.076-0.05-0.085C116.017 82.1 116.1 82.2 116.1 82.23z M115.999 91.944c-0.178-0.005-0.201-0.332-0.11-0.44C116.068 91.5 116.2 91.9 116 91.944z M116.878 81.2 c-0.022 0.1 0.1 0.1 0.1 0.276c-0.131 0.053-0.352 0.181-0.495 0.054C116.39 81.2 116.6 81.2 116.9 81.199z M117.757 84.836c-0.396-0.593-0.785-1.195-1.209-1.763C117.152 83.2 117.5 84.1 117.8 84.836z M116.713 88.9 c0.257 0 0.3 0.3 0.3 0.552C116.774 89.3 116.7 89.2 116.7 88.859z M116.878 93.2 c-0.017-0.128 0.009-0.212 0.055-0.275C117.053 92.9 117.1 93.2 116.9 93.157z M117.757 89.6 c-0.129-0.043-0.222-0.265-0.11-0.384C117.855 89.2 117.7 89.5 117.8 89.63z M117.647 81.476c0-0.111 0-0.22 0-0.33 c0.055 0 0.1 0 0.2 0C117.811 81.3 117.8 81.5 117.6 81.476z M117.977 85.276c0.115 0.1 0.2 0.2 0.2 0.3 C118.026 85.6 118 85.4 118 85.276z M118.306 84.451c-0.064-0.01-0.046-0.101-0.055-0.166 C118.434 84.2 118.3 84.4 118.3 84.451z M118.526 86.655c-0.096-0.05-0.121-0.173-0.11-0.331 C118.615 86.3 118.5 86.5 118.5 86.655z M118.196 81.364c0-0.108 0-0.219 0-0.329c0.176-0.166 0.305-0.035 0.605-0.057 c0.04 0.2 0 0.2 0 0.44C118.584 81.5 118.4 81.4 118.2 81.364z M118.25 79.326c0-0.055 0-0.11 0-0.166 C118.412 79.1 118.4 79.4 118.2 79.326z M118.636 86.931c0.219 0.1 0.3 0.3 0.5 0.4 C119.153 87.5 118.6 87.3 118.6 86.931z M119.294 87.481c-0.128-0.015-0.032-0.242 0-0.274 c0.209-0.01 0.3 0.1 0.4 0.164C119.656 87.6 119.3 87.3 119.3 87.481z M117.208 78.6 c0.539-0.467 2 0.2 2.526-0.496c0.416 0 0.6-0.041 0.9 0c0 0.1 0 0.3 0 0.4 C119.594 78.4 118.3 79.1 117.2 78.554z M120.393 87.096c-0.137-0.009-0.017-0.187 0-0.22 C120.557 86.9 120.3 87 120.4 87.096z M120.612 92.495c-0.059-0.278 0.102-0.338 0.22-0.44 c0.141 0.1 0.1 0.3 0.1 0.497C120.774 92.6 120.8 92.5 120.6 92.495z M121.052 76.5 c-0.261-0.17-0.761 0.107-0.769-0.385c0.396-0.04 0.57-0.218 0.879-0.167C121.162 76.1 121.1 76.2 121.1 76.46z M121.656 99.88c-0.448-0.18-0.028-0.842 0.33-0.882C122.037 99.5 121.8 99.6 121.7 99.88z M122.15 75 c-1.239-0.106-2.259 1.159-3.295 0.22c0.211-0.157 0.696-0.038 0.66-0.441c0.164 0 0.3 0.1 0.4 0.2 c0.501-0.178 0.88-0.477 1.374-0.662c0.055 0.1 0.1 0.2 0.2 0.275c0.2-0.031 0.235-0.057 0.55-0.055 C122.043 74.7 122.2 74.7 122.2 74.973z M122.205 71.667c-0.127-0.016-0.126-0.147-0.055-0.221 C122.239 71.5 122.3 71.6 122.2 71.667z M122.37 68.746c-0.149 0.041-0.111-0.11-0.219-0.111c0.01-0.061 0.055-0.03 0.1 0 c0.086-0.023 0.047-0.173 0.22-0.11C122.432 68.6 122.4 68.6 122.4 68.746z M122.59 102.1 c0.039-0.316-0.303-0.513-0.056-0.717C122.574 101.6 122.9 102.1 122.6 102.14z M123.962 106.9 c-0.125-0.112-0.02-0.458-0.054-0.662C124.121 106.2 124 106.8 124 106.879z M124.182 109.1 c-0.131-0.101-0.031-0.432 0-0.552C124.365 108.7 124.3 109 124.2 109.139z M123.853 72.5 c-0.226-0.241-0.669-0.103-0.879-0.11c-0.124 0 0 0.303-0.164 0.276c-0.377-0.158-0.377-0.549-0.33-0.992 c0.819-0.029 1.42-0.014 2.032-0.166c0.126 0.378-0.066 0.539-0.165 0.827C124.084 72.5 123.9 72.3 123.9 72.547z M124.567 86.931c-0.119 0.01-0.025-0.196-0.055-0.275C124.754 86.6 124.5 86.8 124.6 86.931z M124.567 84.1 c-0.149-0.313 0.106-0.65 0.274-0.825C125.171 83.5 125.1 84.2 124.6 84.119z M125.335 96.9 c-0.155-0.098-0.318-0.341-0.11-0.495C125.479 96.5 125.6 96.7 125.3 96.904z M128.631 88.6 c-1.229-0.164-2.458-0.803-3.075-1.763C126.913 86.9 128.1 87.6 128.6 88.639z M125.774 97.3 c-0.04-0.278 0.061-0.417 0.165-0.552c0.15-0.039 0.1 0.1 0.2 0.11C126.165 97.2 126.1 97.4 125.8 97.346z M127.094 98.724c-0.028-0.305 0.089-0.462 0.384-0.44C127.506 98.6 127.4 98.7 127.1 98.724z M127.422 103.8 c0.286-0.274 0.829-0.089 0.6 0.275C127.821 103.7 127.5 104.3 127.4 103.793z M128.41 106.8 c-0.037 0.251-0.553 0.146-0.604 0.222C127.69 106.8 128.1 106.8 128.4 106.768z M128.686 114.4 c-0.279 0.086-0.526 0.209-0.823 0.276c-0.167-0.436 0.297-0.685 0.714-0.717C128.592 114.2 128.7 114.2 128.7 114.428z M128.521 106.768c0.131-0.175 0.515-0.169 0.604-0.11C129.083 106.8 128.6 106.8 128.5 106.768z M129.015 114.6 c0.155-0.134 0.3 0.2 0.3 0.387C129.065 115.1 129.2 114.7 129 114.647z M129.18 114.428c0-0.092 0-0.183 0-0.274 c0.088-0.017 0.1 0.1 0.2 0.054c0-0.184-0.139-0.227-0.22-0.33c0.229 0 0.8 0.1 0.9 0.5 C129.629 114.4 129.5 114.4 129.2 114.428z M129.345 104.729c-0.126-0.144 0.002-0.363 0.055-0.496 c0.321 0 0.4 0.1 0.7 0C130.027 104.7 129.7 104.7 129.3 104.729z M130.223 97.3 c-0.221 0.048-0.398 0.156-0.658 0.165c-0.088-0.236 0.312-0.457 0.658-0.44C130.223 97.2 130.2 97.3 130.2 97.346z M130.277 109.139c-0.006-0.099 0.068-0.116 0.056-0.222c0.191-0.043 0.2 0.1 0.4 0.1 C130.682 109.1 130.4 109.2 130.3 109.139z M130.662 97.126c-0.245-0.45 0.623-0.799 0.659-0.222 C131.146 97 130.9 97 130.7 97.126z M130.938 71.556c0-0.073 0-0.146 0-0.22c0.126-0.018 0.2 0 0.3 0.1 C131.236 71.6 131.1 71.6 130.9 71.556z M129.235 68.966c0.1 0 0.3 0 0.2 0.3 c-0.792-0.631 0.144-1.455 0.769-1.653c0.015-0.198-0.102-0.265-0.11-0.44c0.234-0.032 0.3 0.1 0.3 0.3 c0.885-0.566 2.521-0.91 3.404-0.165c0.495-0.368 0.9 0.3 1.374-0.055c0.382 0.3 1.1 0.3 1.4 0.3 c0.259 0.3 1.1 0.1 1.3 0.551c-0.742-0.179-1.427 0.046-2.087-0.22c-0.082 0.046-0.118 0.138-0.11 0.3 C133.53 66.9 130.5 67 129.2 68.966z M133.024 96.134c0.078-0.399 0.477-0.478 0.934-0.496 C133.934 96.1 133.4 96 133 96.134z M133.848 105.557C134.031 105.4 133.7 105.7 133.8 105.6 L133.848 105.557z M133.408 69.407c-0.032 0.049-0.065 0.1 0 0.11c-0.286 0.189-0.69 0.049-0.879-0.166 C132.864 69.3 133.2 69.3 133.4 69.407z M133.135 67.753c0.136 0 0 0.2 0 0.2 C132.996 68 133.1 67.8 133.1 67.753z M133.243 93.103c0.093 0 0.2 0 0.3 0c0 0.1 0 0.2 0 0.3 C133.367 93.3 133.2 93.3 133.2 93.103z M133.464 75.193c0.385-0.191 0.8 0 0.7 0.6 C133.782 75.9 133.4 75.6 133.5 75.193z M133.298 71.667c0.039-0.277-0.094-0.384-0.055-0.662 c0.128-0.04 0.412-0.14 0.4 0.11c0.194-0.29 0.528-0.152 0.8 0C134.512 71.9 133.8 71.6 133.3 71.667z M132.091 80.6 C132.274 80.5 132 80.8 132.1 80.648L132.091 80.648z M131.762 73.76c0.281 0 0.5 0.1 0.7 0.1 C132.447 74.5 131.7 74.4 131.8 73.76z M132.529 125.174c-0.064-0.01-0.046-0.102-0.055-0.164 C132.658 125 132.6 125.1 132.5 125.174z M132.75 125.119c0.009-0.157 0.102-0.23 0.109-0.387 c0.141 0 0.2 0.1 0.3 0.167C133.153 125.1 133 125.1 132.8 125.119z M134.014 124.5 c-0.273-0.071-0.271 0.134-0.495 0.11c-0.047-0.064-0.072-0.147-0.055-0.275c0.109-0.091 0.4 0 0.494-0.11 C134.076 124.2 134 124.4 134 124.457z M134.122 123.795c-0.143-0.054 0.064-0.335 0.165-0.165 C134.304 123.8 134.1 123.7 134.1 123.795z M134.177 122.749c0.075 0 0 0.1 0.1 0.2 C134.105 123 134.1 122.8 134.2 122.749z M134.343 118.507c-0.078-0.177 0.328-0.141 0.328-0.056 C134.704 118.7 134.4 118.6 134.3 118.507z M134.837 118.341c0.135 0.1 0.4 0.2 0.4 0.4 c-0.048 0.192-0.376 0.136-0.439 0.164C134.611 118.7 134.8 118.5 134.8 118.341z M135.221 122.5 c-0.023-0.017 0.25-0.255-0.055-0.109c0.396-0.382 1.452-0.708 1.592-0.167C136.854 122.6 135.6 122.8 135.2 122.474z M136.649 125.34C136.729 125.2 136.8 125.6 136.6 125.34L136.649 125.34z M135.387 124.7 c-0.045-0.029-0.09-0.058-0.166-0.055c0.063-0.065 0.063-0.194 0.056-0.331C135.41 124.3 135.4 124.6 135.4 124.678z M135.387 123.905c-0.044 0.101-0.06-0.032-0.056-0.11C135.168 123.7 135.5 123.8 135.4 123.905z M134.946 122.5 C134.692 122.4 135 122.1 134.9 122.474L134.946 122.474z M134.946 125.284c-0.14-0.005-0.108-0.185-0.109-0.331 C135.044 124.9 135 125.2 134.9 125.284z M135.715 127.985C135.563 128.4 135.8 127.7 135.7 128 L135.715 127.985z M137.033 126.276c-0.259-0.097-0.71-0.088-0.879 0.165c-0.28-0.345-0.752 0.147-1.043-0.11 c0.526-0.279 1.353-0.232 1.976-0.275C137.095 126.2 137 126.2 137 126.276z M137.033 115.3 c0.059-0.052 0.017-0.202 0.164-0.165C137.208 115.3 137.2 115.3 137 115.31z M137.691 127 c0.063-0.046 0.148-0.072 0.274-0.054C138.085 127.3 137.6 127.3 137.7 126.992z M138.681 121.2 c-0.018-0.128 0.01-0.212 0.056-0.275c0.371 0.1 0.563-0.009 0.9 0.11C139.374 121.4 139 121.1 138.7 121.151z M139.449 128.702c0.043-0.824 1.02-0.609 1.594-0.717C140.708 128.4 139.9 128.6 139.4 128.702z M140.054 125.2 c-0.069 0.115-0.216 0.151-0.273 0.275C139.59 125.3 139.9 125.2 140.1 125.174z M139.834 114 c-0.01-0.12 0.044-0.176 0.165-0.166c0 0.1 0 0.1 0 0.166C139.943 114 139.9 114 139.8 114.043z M140.603 120.9 c0.046 0.154-0.077 0.144-0.055 0.275C140.384 121.1 140.4 120.8 140.6 120.876z M140.822 124.5 c-0.007-0.265 0.053-0.462 0.165-0.607C141.094 124.1 141 124.5 140.8 124.513z M142.249 128.9 c-0.039-0.166 0.058-0.199 0.057-0.33C142.39 128.6 142.4 129 142.2 128.92z M141.921 127.5 c-0.049-0.042-0.124-0.058-0.22-0.054c0.142-0.464 0.606-0.604 0.769-1.047C142.829 126.9 142 127.1 141.9 127.542z M141.646 120.711c0.073-0.071 0.203-0.071 0.3 0C141.784 120.8 141.8 121 141.6 120.711z M142.031 110.2 c0.023-0.115-0.038-0.146-0.056-0.221c-0.294 0.019-0.214 0.41-0.384 0.552c-0.048-0.907-1.575-1.362-2.582-1.544 c-1.299-0.232-3.105-1.146-4.229-0.936c-0.684 0.127-1.549 0.513-2.252 0.44c0.045-0.251 0.41-0.178 0.55-0.33 c-0.008-0.231-0.247 0.04-0.385-0.11c0.896 0.1 1.788-0.623 2.746-0.497c0.679 0.1 2.1 0.7 3.1 1 c0.8 0.3 1.6 0.3 2.3 0.771c0.445-0.986-0.802-2.137-0.164-2.976c-0.2-0.399-0.504-0.949-0.056-1.268 c-0.032-0.113-0.115-0.178-0.165-0.274c-0.114 0.087-0.019 0.384-0.109 0.496c-0.403-0.451-0.675-1.378-0.219-1.93 c0.106 0.1 0.1 0.3 0.1 0.496c0.056-0.035 0.057-0.126 0.164-0.109c-0.051 0.3 0.2 0.3 0.2 0.6 c0.152 0.023-0.043-0.303 0.11-0.276c0.443 0.1 0.3 0.9 0.5 1.268c0.063 0.1 0.2 0.1 0.3 0.1 c0.597 1.2 1 2.6 1 4.133c0.018 0.225-0.113 0.03-0.221 0.056c0 0.4 0.6 0.2 0.8 0.5 C142.728 110.5 142.3 110 142 110.24z M142.47 89.74c0.171-0.078 0.67-0.011 0.7 0.3 C142.847 90.2 142.6 90 142.5 89.74z M143.13 70.343c-0.107-0.194 0.017-0.301 0.109-0.44 c0.046 0.5 1.3 0.1 1 0.717C143.845 70.4 143.7 70.4 143.1 70.343z M143.789 87.5 c-0.436 0.029-0.332-0.781 0.107-0.662C144.03 87.1 143.8 87.3 143.8 87.538z M143.295 97.1 c0.14-0.468 0.69-0.155 0.987-0.276C144.292 97.5 143.7 97.3 143.3 97.126z M144.173 88 c-0.025-0.208 0.108-0.258 0.164-0.385c0.27-0.03 0.2 0.4 0.1 0.44C144.344 88 144.3 88 144.2 88.032z M144.611 106.494c0.052-0.329 0.046-0.497 0.165-0.662C145.016 105.9 144.9 106.5 144.6 106.494z M145.052 106.4 c0.119 0 0.1 0.1 0.1 0.276C144.971 106.8 145 106.5 145.1 106.438z M145.052 106 c0.181 0 0.1 0.2 0.1 0.33C145.031 106.3 145 106.1 145.1 105.997z M145.325 123.1 C145.515 123.2 145 123.2 145.3 123.08L145.325 123.08z M145.71 123.191C145.59 123.4 145.4 123.1 145.7 123.2 L145.71 123.191z M144.447 92.662c0.244-0.429 1.57-0.293 1.757-0.277C145.869 92.8 145.1 92.7 144.4 92.662z M146.204 72.272c-0.173-0.214 0.152-0.396 0.165-0.606c-0.525-0.538 0.078-1.189 0.33-1.598c0.017-0.112-0.16 0.011-0.165 0.1 c-0.093-0.389 0.533-0.734 0.33-1.103c0.322 0.1 0.343-0.133 0.439-0.275c0.347 0 0.3 0.5 0.7 0.5 c0.192 0.8 0 1.056-0.329 1.708c-0.082-0.029-0.14-0.082-0.221-0.11c-0.306 0.355-0.449 0.871-0.713 1.3 C146.541 71.9 146.3 72.1 146.2 72.272z M146.754 96.904c0.061-0.244-0.094-0.273-0.109-0.441 c0.414 0 1.261-0.316 1.3 0.496c-0.508 0.154-1.163 0.31-1.536 0.111C146.399 96.9 146.6 97 146.8 96.904z M147.357 118.341c-0.38-0.095-0.693-0.016-0.933-0.165c0.152-0.282 0.914-0.304 1 0.1 C147.36 118.2 147.4 118.3 147.4 118.341z M146.92 111.508c0.26 0 0.5 0.2 0.7 0.1 C147.468 111.8 147 111.8 146.9 111.508z M147.688 111.674C148.062 111.7 147.5 112 147.7 111.7 L147.688 111.674z M146.81 98.117c0.394-0.457 1.595-0.39 2.031-0.331C148.456 98.3 147.2 98.2 146.8 98.117z M148.73 92.8 c0.073-0.157 0.74-0.416 0.7 0C149.11 92.9 149.1 92.9 148.7 92.827z M149.609 82.687c0.03 0.122-0.104 0.08-0.11 0.2 c-0.063-0.01-0.046-0.101-0.054-0.167C149.499 82.7 149.6 82.7 149.6 82.687z M149.499 94.8 c0.274-0.514 1.181-0.147 1.814-0.22C151.11 95.2 149.9 94.9 149.5 94.811z M151.751 94.2 c-0.221 0.009-0.146-0.142-0.11-0.274c0.057 0 0.1 0 0.2 0C151.852 94.1 151.7 94.1 151.8 94.204z M152.024 86.8 C152.161 85.5 153 87.1 152 86.82L152.024 86.82z M152.136 94.866c-0.163-0.204 0.22-0.229 0.273-0.386 c0.399 0.3 1.4 0.1 1.7 0.221C153.937 95.2 152.6 94.9 152.1 94.866z M154.223 76.3 c-0.097-0.013-0.125-0.095-0.11-0.22C154.276 76.1 154.2 76.3 154.2 76.35z M154.475 94.4 c0.018-0.012 0.042-0.027 0.076-0.051C154.65 94.2 154.5 94.3 154.5 94.365z M154.551 92.4 c-0.109-0.316 0.357-0.335 0.496-0.22C155.008 92.4 154.8 92.4 154.6 92.385z M154.718 94.4 c0.219-0.277 1.064-0.217 1.373-0.222C155.849 94.7 155.2 94.4 154.7 94.426z M155.815 103.5 C155.825 103.3 156 103.5 155.8 103.462L155.815 103.462z M155.98 103.4 C156.044 103.2 156.3 103.5 156 103.408L155.98 103.408z M155.706 56.677c0.223-0.142 0.6 0.1 0.712-0.11 c-0.01-0.253-0.399-0.169-0.438 0c-0.189-0.543 0.446-0.732 1.099-0.551C157.536 56.8 156.1 57.2 155.7 56.677z M156.943 64.583c-0.003 0.01-0.027 0.076-0.04 0.114c0.002-0.008 0.007-0.018 0.01-0.03 C156.933 64.6 156.9 64.6 156.9 64.583z M156.693 65.825c0.349 0.3 0.3 0.8 0.3 1.3 C156.451 67.1 156.5 66.2 156.7 65.825z M156.804 103.188C156.814 103 157 103.2 156.8 103.2 L156.804 103.188z M156.913 91.944c-0.096-0.031-0.322 0.067-0.328-0.055c-0.002-0.167 0.191-0.137 0.328-0.165 C156.913 91.8 156.9 91.9 156.9 91.944z M157.079 85.057c-0.252 0.039-0.491-0.129-0.33-0.331 c0.274 0.2 0.147-0.007 0.4 0.056C157.235 85 157.1 85 157.1 85.057z M157.407 91.8 c0.012-0.301 0.327-0.296 0.604-0.33C157.97 91.7 157.7 91.7 157.4 91.779z M158.176 102.8 C158.188 102.6 158.4 102.9 158.2 102.801L158.176 102.801z M158.727 64.612c-0.038 0-0.075 0-0.11 0 c0-0.073 0-0.146 0-0.22c0.035 0 0.1 0 0.1 0C158.727 64.5 158.7 64.5 158.7 64.612z M163.338 72.4 c-0.063-0.009-0.046-0.101-0.054-0.165C163.467 72.2 163.4 72.3 163.3 72.382z M163.889 71.8 c-0.121-0.009-0.118-0.139-0.11-0.276c0.054 0 0.1 0 0.2 0C163.988 71.7 163.9 71.6 163.9 71.776z M165.097 89.4 C165.233 89.1 165.2 89.5 165.1 89.355L165.097 89.355z M165.262 86.601c0.01-0.157 0.1-0.23 0.11-0.387 C165.607 86.2 165.4 86.6 165.3 86.601z M165.151 69.517c0.009-0.121 0.139-0.119 0.274-0.11 C165.386 69.5 165.3 69.6 165.2 69.517z M165.482 90.292c-0.134-0.128 0.084-0.148 0.107-0.275 C165.717 90.1 165.6 90.4 165.5 90.292z M165.699 101.037c-0.043-0.209 0.261-0.069 0.385-0.11 C166.032 101 165.9 101 165.7 101.037z M165.699 70.399C165.792 70.2 165.9 70.6 165.7 70.399L165.699 70.399z M165.865 90.017c-0.056-0.471 0.57-0.462 0.6 0.055C166.158 89.9 166.1 89.9 165.9 90.017z M166.909 101.3 c-0.174 0.01-0.185-0.146-0.385-0.11c0.028-0.044 0.057-0.088 0.054-0.165c0.191-0.043 0.2 0.1 0.4 0.1 C166.97 101.2 166.9 101.2 166.9 101.313z M166.963 89.3c0-0.092 0-0.183 0-0.274c0.056 0 0.1 0 0.2 0 c0.004 0.087-0.026 0.2 0.1 0.221C167.167 89.3 167 89.3 167 89.3z M167.403 88.6 c-0.028 0.3 0.2 0.4 0.1 0.661c-0.343-0.043-0.22-0.551-0.551-0.606C166.993 88.5 167.3 88.6 167.4 88.639z M167.348 86.38c0.086 0.1 0.1 0.2 0.1 0.386C167.248 86.8 167.3 86.5 167.3 86.38z M167.239 95.2 c-0.133-0.21 0.152-0.294 0.383-0.22C167.596 95.2 167.3 95.1 167.2 95.196z M170.039 71.832c0 0.1 0 0.2 0 0.3 c-0.105 0.107-0.221-0.058-0.384-0.055c0-0.073 0-0.147 0-0.22C169.758 71.7 169.9 71.8 170 71.832z M169.766 67.4 c-0.012 0.209-0.232 0.209-0.221 0.441C169.307 67.7 169.6 67.4 169.8 67.368z M169.489 71.3 c-0.174-0.01-0.186-0.182-0.165-0.386C169.534 70.9 169.5 71.3 169.5 71.335z M169.489 76.8 c0.26-0.015 0.3 0.1 0.5 0c-0.312 0.312-1.282-0.093-1.264-0.662C168.98 76.4 169.4 76.5 169.5 76.846z M168.336 63.124c0.099-0.007 0.1 0.1 0.2 0.055c-0.008 0.141-0.08 0.214-0.221 0.2 C168.336 63.3 168.3 63.2 168.3 63.124z M168.501 70.784c-0.146 0-0.313 0.021-0.383-0.055 C168.101 70.4 168.6 70.5 168.5 70.784z M167.951 63.124c0.206-0.058 0.2 0.1 0.3 0.2 C168.153 63.4 167.9 63.3 168 63.124z M168.118 78.279c-0.048 0.161-0.141-0.071-0.276 0 c-0.021-0.364-0.263-0.507-0.274-0.881C167.899 77.5 167.9 78 168.1 78.279z M167.403 82.6 c0.089-0.015 0.1 0.1 0.2 0.055C167.588 82.7 167.3 82.7 167.4 82.577z M167.348 84.6 c0.064 0.1 0.1 0.2 0.1 0.331c-0.34-0.057-0.609 0.151-0.715-0.11C166.673 84.5 167.2 84.8 167.3 84.615z M164.932 66.541c0.236 0.1 0.3 0.4 0.4 0.662c0.269-0.072 0.497-0.187 0.6 0.11c0.176-0.025 0.194-0.21 0.385-0.22 c0.059 0.2 0.4 0.1 0.5 0.166c0.063 0.3 0.1 0.594-0.164 0.716c-0.658-0.412-1.547-0.13-1.978-1.103 C164.663 66.7 164.9 66.7 164.9 66.541z M165.205 82.797c-0.258 0.035-0.301 0.286-0.438 0.4 c-0.236-0.078 0.025-0.401-0.109-0.495C164.786 82.6 165.1 82.7 165.2 82.797z M164.492 60 c0.031 0.179-0.038 0.256-0.056 0.386C164.101 60.4 164.3 60 164.5 59.984z M164.382 68.3 c-0.343 0.406-1.174 0.71-1.592 0.385C163.171 68.4 164 68.3 164.4 68.305z M162.79 64.062c0.073 0 0.1 0 0.2 0 c0.095 0.279-0.238 0.128-0.22 0.331C162.635 64.3 162.8 64.2 162.8 64.062z M163.23 62.8 c-0.401 0.223-1.207 0.373-1.1-0.275C162.529 62.7 163.2 62.1 163.2 62.794z M162.131 64.1 c0.241-0.012 0 0.2 0 0.275C161.97 64.3 162.2 64.2 162.1 64.062z M161.637 91.835c0.12-0.01 0 0.2 0.1 0.3 c-0.114 0.021-0.145-0.038-0.218-0.057C161.424 91.9 161.6 91.9 161.6 91.835z M160.428 73.76c0.038 0 0.1 0 0.1 0 c0 0 0 0.1 0 0.111c-0.036 0-0.072 0-0.11 0C160.428 73.8 160.4 73.8 160.4 73.76z M160.153 74.1 C160.476 74.2 160 74.4 160.2 74.146L160.153 74.146z M159.989 74.366C160 74.2 160.2 74.4 160 74.4 L159.989 74.366z M160.373 90.677c-0.056 0.258-0.277 0.226-0.44 0.167C160.006 90.7 160.2 90.7 160.4 90.677z M160.428 95.308c-0.064-0.01-0.046-0.102-0.055-0.167c0.055 0 0.1 0 0.2 0C160.568 95.3 160.4 95.2 160.4 95.308z M160.043 91.669c0.358-0.047 0.4 0.2 0.8 0.166C160.762 92.1 160 92 160 91.669z M160.812 94.6 c-0.121-0.023-0.042-0.294 0-0.331c0.145 0.2 0.595-0.079 0.8 0.166C161.385 94.8 161.1 94.3 160.8 94.591z"/>
</g>
</svg>
