<?xml version="1.0" encoding="utf-8"?>
<!-- Generator: Adobe Illustrator 16.0.3, SVG Export Plug-In . SVG Version: 6.00 Build 0)  -->
<!DOCTYPE svg PUBLIC "-//W3C//DTD SVG 1.1//EN" "http://www.w3.org/Graphics/SVG/1.1/DTD/svg11.dtd">
<svg version="1.1" id="Layer_3" xmlns="http://www.w3.org/2000/svg" xmlns:xlink="http://www.w3.org/1999/xlink" x="0px" y="0px"
	 width="100px" height="100px" viewBox="0 0 100 100" enable-background="new 0 0 100 100" xml:space="preserve">
<g opacity="0.5">
	<path d="M94.25,15.758c0,0,0.069,1.227,0.191,3.373c0.053,1.073,0.116,2.376,0.189,3.871c0.037,0.748,0.076,1.542,0.117,2.381
		c0.038,0.838-0.012,1.72,0.002,2.64c0,7.358,0,17.17,0,26.981s0,19.623,0,26.981c-0.016,0.92,0.038,1.802-0.009,2.64
		c-0.041,0.839-0.08,1.634-0.116,2.381c-0.072,1.495-0.136,2.798-0.188,3.871c-0.119,2.146-0.187,3.373-0.187,3.373
		s-0.067-1.227-0.187-3.373c-0.053-1.073-0.116-2.376-0.188-3.871c-0.036-0.747-0.075-1.542-0.116-2.381
		c-0.047-0.838,0.007-1.72-0.009-2.64c0-7.358,0-17.17,0-26.981s0-19.623,0-26.981c0.014-0.92-0.036-1.802,0.002-2.64
		c0.041-0.838,0.08-1.633,0.117-2.381c0.073-1.495,0.137-2.798,0.189-3.871C94.181,16.984,94.25,15.758,94.25,15.758z"/>
</g>
<g opacity="0.5">
	<path d="M5.75,94.25c0,0,1.227-0.069,3.373-0.191c1.073-0.053,2.376-0.116,3.871-0.189c0.748-0.037,1.542-0.076,2.381-0.117
		c0.838-0.038,1.72,0.012,2.64-0.002c7.359,0,17.17,0,26.981,0c9.812,0,19.623,0,26.981,0c0.92,0.016,1.802-0.038,2.64,0.009
		c0.839,0.041,1.634,0.08,2.382,0.116c1.494,0.072,2.797,0.136,3.87,0.188c2.146,0.119,3.373,0.187,3.373,0.187
		s-1.227,0.067-3.373,0.187c-1.073,0.053-2.376,0.116-3.87,0.188c-0.748,0.036-1.543,0.075-2.382,0.116
		c-0.838,0.047-1.72-0.007-2.64,0.009c-7.358,0-17.17,0-26.981,0c-9.811,0-19.623,0-26.981,0c-0.919-0.014-1.801,0.036-2.64-0.002
		c-0.838-0.041-1.633-0.08-2.381-0.117c-1.495-0.073-2.798-0.137-3.871-0.189C6.977,94.319,5.75,94.25,5.75,94.25z"/>
</g>
<polygon opacity="0.5" points="93.766,5.75 5.266,5.25 5.266,5.75 5.25,5.75 5.75,94.25 6.247,6.245 "/>
</svg>
