<?xml version="1.0" encoding="utf-8"?>
<!-- Generator: Adobe Illustrator 16.0.3, SVG Export Plug-In . SVG Version: 6.00 Build 0)  -->
<!DOCTYPE svg PUBLIC "-//W3C//DTD SVG 1.1//EN" "http://www.w3.org/Graphics/SVG/1.1/DTD/svg11.dtd">
<svg version="1.1" xmlns="http://www.w3.org/2000/svg" xmlns:xlink="http://www.w3.org/1999/xlink" x="0px" y="0px" width="100px"
	 height="100px" viewBox="0 0 100 100" enable-background="new 0 0 100 100" xml:space="preserve">
<g id="Layer_1" display="none">
	
		<image display="inline" overflow="visible" width="100" height="100" xlink:href="double_line.png"  transform="matrix(1 0 0 1 -4.882813e-004 0)">
	</image>
</g>
<g id="Layer_2">
	<path d="M90,90H10V10h80V90z M12.078,87.922h75.844V12.078H12.078V87.922z"/>
	<g>
		<path d="M10,2v8H2V2H10 M12,0H0v12h12V0L12,0z"/>
	</g>
	<g>
		<path d="M10,90v8H2v-8H10 M12,88H0v12h12V88L12,88z"/>
	</g>
	<g>
		<path d="M98,2v8h-8V2H98 M100,0H88v12h12V0L100,0z"/>
	</g>
	<g>
		<path d="M98,90v8h-8v-8H98 M100,88H88v12h12V88L100,88z"/>
	</g>
	<g opacity="0.75">
		<path d="M94.25,94.25l-22.125,0.399L50,95.003L5.75,95H5v-0.75V5.75V5h0.75h88.5H95v0.75V50L94.25,94.25z M94.25,94.25L93.5,50
			V5.75l0.75,0.75H5.75L6.5,5.75v88.5L5.75,93.5L50,93.497l22.125,0.354L94.25,94.25z"/>
	</g>
</g>
</svg>
