<?xml version="1.0" encoding="utf-8"?>
<!-- Generator: Adobe Illustrator 16.0.3, SVG Export Plug-In . SVG Version: 6.00 Build 0)  -->
<!DOCTYPE svg PUBLIC "-//W3C//DTD SVG 1.1//EN" "http://www.w3.org/Graphics/SVG/1.1/DTD/svg11.dtd">
<svg version="1.1" xmlns="http://www.w3.org/2000/svg" xmlns:xlink="http://www.w3.org/1999/xlink" x="0px" y="0px" width="950px"
	 height="71px" viewBox="0 0 950 71" enable-background="new 0 0 950 71" xml:space="preserve">
<g id="on">
	<g>
		<g>
			<line fill="#FFFFFF" x1="404.445" y1="43.965" x2="404.445" y2="57.635"/>
			<path d="M404.445,58.137c-0.277,0-0.5-0.225-0.5-0.502v-13.67c0-0.277,0.224-0.502,0.5-0.502s0.501,0.225,0.501,0.502v13.67
				C404.946,57.912,404.722,58.137,404.445,58.137z"/>
		</g>
		<g>
			<line fill="#FFFFFF" x1="417.274" y1="43.965" x2="417.274" y2="57.635"/>
			<path d="M417.274,58.137c-0.277,0-0.501-0.225-0.501-0.502v-13.67c0-0.277,0.224-0.502,0.501-0.502s0.501,0.225,0.501,0.502
				v13.67C417.775,57.912,417.551,58.137,417.274,58.137z"/>
		</g>
		<g>
			<line fill="#FFFFFF" x1="430.104" y1="43.965" x2="430.104" y2="57.635"/>
			<path d="M430.104,58.137c-0.277,0-0.501-0.225-0.501-0.502v-13.67c0-0.277,0.224-0.502,0.501-0.502s0.5,0.225,0.5,0.502v13.67
				C430.604,57.912,430.381,58.137,430.104,58.137z"/>
		</g>
		<g>
			<line fill="#FFFFFF" x1="442.933" y1="43.965" x2="442.933" y2="57.635"/>
			<path d="M442.933,58.137c-0.277,0-0.5-0.225-0.5-0.502v-13.67c0-0.277,0.224-0.502,0.5-0.502s0.501,0.225,0.501,0.502v13.67
				C443.434,57.912,443.21,58.137,442.933,58.137z"/>
		</g>
		<g>
			<line fill="#FFFFFF" x1="455.763" y1="43.965" x2="455.763" y2="57.635"/>
			<path d="M455.763,58.137c-0.277,0-0.501-0.225-0.501-0.502v-13.67c0-0.277,0.224-0.502,0.501-0.502s0.501,0.225,0.501,0.502
				v13.67C456.264,57.912,456.04,58.137,455.763,58.137z"/>
		</g>
		<g>
			<line fill="#FFFFFF" x1="468.591" y1="43.965" x2="468.591" y2="57.635"/>
			<path d="M468.591,58.137c-0.277,0-0.501-0.225-0.501-0.502v-13.67c0-0.277,0.224-0.502,0.501-0.502s0.5,0.225,0.5,0.502v13.67
				C469.092,57.912,468.868,58.137,468.591,58.137z"/>
		</g>
		<g>
			<line fill="#FFFFFF" x1="481.421" y1="43.965" x2="481.421" y2="57.635"/>
			<path d="M481.421,58.137c-0.275,0-0.5-0.225-0.5-0.502v-13.67c0-0.277,0.225-0.502,0.5-0.502c0.277,0,0.502,0.225,0.502,0.502
				v13.67C481.923,57.912,481.698,58.137,481.421,58.137z"/>
		</g>
		<g>
			<line fill="#FFFFFF" x1="494.251" y1="43.965" x2="494.251" y2="57.635"/>
			<path d="M494.251,58.137c-0.277,0-0.5-0.225-0.5-0.502v-13.67c0-0.277,0.223-0.502,0.5-0.502s0.501,0.225,0.501,0.502v13.67
				C494.752,57.912,494.528,58.137,494.251,58.137z"/>
		</g>
		<g>
			<line fill="#FFFFFF" x1="507.079" y1="43.965" x2="507.079" y2="57.635"/>
			<path d="M507.079,58.137c-0.277,0-0.502-0.225-0.502-0.502v-13.67c0-0.277,0.225-0.502,0.502-0.502c0.276,0,0.5,0.225,0.5,0.502
				v13.67C507.579,57.912,507.355,58.137,507.079,58.137z"/>
		</g>
		<g>
			<line fill="#FFFFFF" x1="519.906" y1="43.965" x2="519.906" y2="57.635"/>
			<path d="M519.906,58.137c-0.275,0-0.5-0.225-0.5-0.502v-13.67c0-0.277,0.225-0.502,0.5-0.502c0.277,0,0.502,0.225,0.502,0.502
				v13.67C520.408,57.912,520.184,58.137,519.906,58.137z"/>
		</g>
		<g>
			<line fill="#FFFFFF" x1="532.736" y1="43.965" x2="532.736" y2="57.635"/>
			<path d="M532.736,58.137c-0.277,0-0.5-0.225-0.5-0.502v-13.67c0-0.277,0.223-0.502,0.5-0.502s0.502,0.225,0.502,0.502v13.67
				C533.238,57.912,533.014,58.137,532.736,58.137z"/>
		</g>
		<g>
			<line fill="#FFFFFF" x1="545.566" y1="43.965" x2="545.566" y2="57.635"/>
			<path d="M545.566,58.137c-0.277,0-0.502-0.225-0.502-0.502v-13.67c0-0.277,0.225-0.502,0.502-0.502c0.275,0,0.5,0.225,0.5,0.502
				v13.67C546.066,57.912,545.842,58.137,545.566,58.137z"/>
		</g>
		<path d="M582.311,63.27H370.265c-0.277,0-0.501-0.225-0.501-0.502c0-0.275,0.224-0.5,0.501-0.5h212.046c0.277,0,0.5,0.225,0.5,0.5
			C582.811,63.045,582.588,63.27,582.311,63.27z"/>
		<path d="M579.746,65.832H365.667c-0.277,0-0.5-0.225-0.5-0.502c0-0.275,0.224-0.5,0.5-0.5h214.079c0.277,0,0.502,0.225,0.502,0.5
			C580.248,65.607,580.023,65.832,579.746,65.832z"/>
		<g>
			<path d="M474.952,36.484h-61.291c0,0,1.12-2.564,0.078-3.605c-1.041-1.041-3.152-0.988-3.152-0.988l29.564-29.566
				c0.114-0.115,0.19-0.277,0.191-0.453c0.001-0.352-0.285-0.637-0.636-0.639l-10.977-0.045l-10.977,0.135
				c-7.317,0.164-14.631,0.389-21.938,0.75c-3.657,0.141-7.307,0.391-10.959,0.6c-3.654,0.195-7.302,0.451-10.95,0.73
				c-7.3,0.504-14.587,1.156-21.872,1.844l-10.917,1.102L330.21,7.57c-7.262,0.883-14.521,1.785-21.766,2.809
				c-3.627,0.473-7.241,1.039-10.86,1.566c-3.622,0.521-7.234,1.088-10.845,1.676c-7.227,1.135-14.435,2.391-21.635,3.686
				c-7.201,1.295-14.381,2.697-21.554,4.137l-10.742,2.248l-10.714,2.379c-7.13,1.641-14.247,3.342-21.336,5.152
				c-7.089,1.814-14.154,3.723-21.188,5.742c-7.034,2.02-14.03,4.176-20.993,6.438l-10.396,3.541
				c-3.431,1.275-6.897,2.457-10.301,3.811c-3.411,1.332-6.828,2.65-10.188,4.113c-3.393,1.381-6.712,2.938-10.044,4.467
				c-6.606,3.174-13.12,6.578-19.293,10.584c-0.173,0.115-0.292,0.318-0.292,0.543c0.002,0.354,0.29,0.637,0.644,0.635h153.83
				c0.355,0,0.641-0.285,0.641-0.641V36.164c0-0.102-0.025-0.211-0.076-0.305c-0.169-0.311-0.557-0.426-0.867-0.26l-0.005,0.002
				c-2.513,1.59-4.994,3.158-7.45,4.795c-2.453,1.631-4.883,3.309-7.192,5.166c-1.155,0.93-2.292,1.895-3.338,2.98
				c-0.533,0.531-1.021,1.117-1.497,1.723c-0.466,0.615-0.93,1.258-1.274,2.016c-0.399,0.721-0.601,1.623-0.613,2.598
				c0.087,0.469,0.096,1.021,0.34,1.455l0.319,0.695c0.129,0.209,0.283,0.389,0.423,0.594c0.284,0.432,0.616,0.736,0.958,1.051
				c0.347,0.34,0.69,0.613,1.049,0.875c0.728,0.574,1.438,0.979,2.187,1.516c0.501,0.361,1.129,0.561,1.792,0.512
				c1.505-0.107,2.639-1.412,2.531-2.916c-0.105-1.504-1.412-2.639-2.917-2.531h-0.022c-0.631,0.045-1.365,0.104-1.936-0.02
				c-0.312-0.039-0.636-0.074-0.877-0.182c-0.272-0.088-0.562-0.174-0.76-0.311c-0.517-0.232-0.744-0.602-0.987-1.047
				c-0.111-0.484-0.18-1.086,0.036-1.707c0.161-0.623,0.471-1.248,0.841-1.838c0.364-0.596,0.802-1.16,1.268-1.699
				c0.93-1.09,2.145-2.129,3.245-3.084c2.185-1.922,4.365-3.521,6.825-5.109c0.839-0.537,2.549-1.605,2.549-1.605
				s-0.48,2.244,1.015,3.207c1.496,0.961,3.151,0.428,3.151,0.428v26.652H100.965c5.54-3.451,11.339-6.49,17.231-9.322
				c3.315-1.521,6.617-3.068,9.995-4.447c3.347-1.453,6.75-2.768,10.151-4.094c3.391-1.348,6.847-2.527,10.269-3.799l10.367-3.533
				c6.945-2.254,13.925-4.406,20.946-6.424c7.02-2.016,14.074-3.92,21.15-5.73c7.08-1.807,14.185-3.506,21.305-5.145l10.7-2.377
				l10.726-2.246c7.165-1.434,14.336-2.836,21.527-4.131c7.193-1.291,14.391-2.547,21.61-3.678
				c3.605-0.588,7.215-1.152,10.831-1.674c3.615-0.531,7.225-1.096,10.847-1.566c7.235-1.021,14.486-1.922,21.74-2.809l10.893-1.217
				l10.903-1.102c7.275-0.686,14.554-1.336,21.842-1.844c3.643-0.273,7.287-0.533,10.935-0.727
				c3.647-0.211,7.291-0.459,10.941-0.598c7.298-0.359,14.6-0.584,21.903-0.75l10.956-0.135c0,0-1.667,2.664-0.573,4.213
				c1.095,1.547,3.926,1.895,3.926,1.895l-28.095,28.096c-0.114,0.115-0.188,0.277-0.188,0.453c0,0.355,0.288,0.643,0.64,0.643
				h70.507c0.354,0,0.641-0.287,0.641-0.643C475.592,36.773,475.305,36.484,474.952,36.484z"/>
			<path d="M251.897,65.555c-2.319,0.057-4.185,1.932-4.213,4.26h4.213V65.555z"/>
		</g>
		<g>
			<path d="M475.048,36.484h61.292c0,0-1.121-2.564-0.082-3.605c1.043-1.041,3.154-0.988,3.154-0.988L509.85,2.324
				c-0.114-0.115-0.192-0.277-0.192-0.453c-0.002-0.352,0.283-0.637,0.637-0.639l10.978-0.045l10.975,0.135
				c7.316,0.164,14.631,0.389,21.939,0.75c3.656,0.141,7.307,0.391,10.959,0.6c3.654,0.195,7.303,0.451,10.949,0.73
				c7.299,0.504,14.588,1.156,21.871,1.844l10.918,1.102l10.908,1.223c7.26,0.883,14.52,1.785,21.764,2.809
				c3.629,0.473,7.242,1.039,10.861,1.566c3.621,0.521,7.234,1.088,10.844,1.676c7.229,1.135,14.436,2.391,21.637,3.686
				c7.197,1.295,14.381,2.697,21.553,4.137l10.742,2.248l10.713,2.379c7.131,1.641,14.248,3.342,21.338,5.152
				c7.088,1.814,14.152,3.723,21.188,5.742s14.029,4.176,20.992,6.438l10.395,3.541c3.432,1.275,6.898,2.457,10.301,3.811
				c3.412,1.332,6.828,2.65,10.189,4.113c3.395,1.381,6.711,2.938,10.045,4.467c6.605,3.174,13.119,6.578,19.293,10.584
				c0.172,0.115,0.291,0.318,0.289,0.543c-0.002,0.354-0.289,0.637-0.643,0.635h-153.83c-0.354,0-0.641-0.285-0.641-0.641V36.164
				c0-0.102,0.025-0.211,0.076-0.305c0.168-0.311,0.557-0.426,0.867-0.26l0.006,0.002c2.514,1.59,4.994,3.158,7.449,4.795
				c2.453,1.631,4.883,3.309,7.191,5.166c1.156,0.93,2.293,1.895,3.342,2.98c0.531,0.531,1.018,1.117,1.494,1.723
				c0.467,0.615,0.932,1.258,1.273,2.016c0.4,0.721,0.604,1.623,0.613,2.598c-0.086,0.469-0.094,1.021-0.34,1.455l-0.318,0.695
				c-0.127,0.209-0.281,0.389-0.424,0.594c-0.283,0.432-0.617,0.736-0.959,1.051c-0.346,0.34-0.689,0.613-1.049,0.875
				c-0.727,0.574-1.436,0.979-2.184,1.516c-0.504,0.361-1.131,0.561-1.795,0.512c-1.504-0.107-2.637-1.412-2.529-2.916
				c0.104-1.504,1.412-2.639,2.916-2.531h0.021c0.631,0.045,1.365,0.104,1.938-0.02c0.311-0.039,0.635-0.074,0.875-0.182
				c0.273-0.088,0.563-0.174,0.762-0.311c0.516-0.232,0.742-0.602,0.986-1.047c0.111-0.484,0.18-1.086-0.035-1.707
				c-0.162-0.623-0.473-1.248-0.846-1.838c-0.361-0.596-0.797-1.16-1.266-1.699c-0.93-1.09-2.146-2.129-3.244-3.084
				c-2.186-1.922-4.365-3.521-6.828-5.109c-0.836-0.537-2.547-1.605-2.547-1.605s0.48,2.244-1.014,3.207
				c-1.496,0.961-3.15,0.428-3.15,0.428v26.652h150.932c-5.541-3.451-11.34-6.49-17.232-9.322c-3.314-1.521-6.615-3.068-9.996-4.447
				c-3.344-1.453-6.75-2.768-10.148-4.094c-3.393-1.348-6.85-2.527-10.27-3.799l-10.367-3.533
				c-6.947-2.254-13.926-4.406-20.945-6.424c-7.023-2.016-14.074-3.92-21.152-5.73c-7.078-1.807-14.182-3.506-21.303-5.145
				l-10.699-2.377l-10.727-2.246c-7.164-1.434-14.338-2.836-21.529-4.131c-7.191-1.291-14.389-2.547-21.607-3.678
				c-3.609-0.588-7.215-1.152-10.832-1.674c-3.615-0.531-7.225-1.096-10.848-1.566c-7.236-1.021-14.486-1.922-21.74-2.809
				l-10.893-1.217l-10.904-1.102C590.568,5.836,583.289,5.186,576,4.678c-3.643-0.273-7.285-0.533-10.934-0.727
				c-3.646-0.211-7.293-0.459-10.943-0.598c-7.295-0.359-14.598-0.584-21.9-0.75l-10.957-0.135c0,0,1.666,2.664,0.574,4.213
				c-1.096,1.547-3.928,1.895-3.928,1.895l28.096,28.096c0.115,0.115,0.188,0.277,0.188,0.453c0,0.355-0.287,0.643-0.643,0.643
				h-70.504c-0.353,0-0.641-0.287-0.641-0.643C474.407,36.773,474.696,36.484,475.048,36.484z"/>
			<path d="M698.104,65.555c2.318,0.057,4.184,1.932,4.213,4.26h-4.213V65.555z"/>
		</g>
		<path fill="none" stroke="#000000" stroke-width="0.5" d="M692.596-1.08"/>
	</g>
</g>
<g id="off" display="none">
	<g display="inline">
		<g>
			<line fill="#FFFFFF" x1="404.445" y1="43.965" x2="404.445" y2="57.635"/>
			<path d="M404.445,58.137c-0.277,0-0.5-0.225-0.5-0.502v-13.67c0-0.277,0.224-0.502,0.5-0.502s0.501,0.225,0.501,0.502v13.67
				C404.946,57.912,404.722,58.137,404.445,58.137z"/>
		</g>
		<g>
			<line fill="#FFFFFF" x1="417.274" y1="43.965" x2="417.274" y2="57.635"/>
			<path d="M417.274,58.137c-0.277,0-0.501-0.225-0.501-0.502v-13.67c0-0.277,0.224-0.502,0.501-0.502s0.501,0.225,0.501,0.502
				v13.67C417.775,57.912,417.551,58.137,417.274,58.137z"/>
		</g>
		<g>
			<line fill="#FFFFFF" x1="430.104" y1="43.965" x2="430.104" y2="57.635"/>
			<path d="M430.104,58.137c-0.277,0-0.501-0.225-0.501-0.502v-13.67c0-0.277,0.224-0.502,0.501-0.502s0.5,0.225,0.5,0.502v13.67
				C430.604,57.912,430.381,58.137,430.104,58.137z"/>
		</g>
		<g>
			<line fill="#FFFFFF" x1="442.933" y1="43.965" x2="442.933" y2="57.635"/>
			<path d="M442.933,58.137c-0.277,0-0.5-0.225-0.5-0.502v-13.67c0-0.277,0.224-0.502,0.5-0.502s0.501,0.225,0.501,0.502v13.67
				C443.434,57.912,443.21,58.137,442.933,58.137z"/>
		</g>
		<g>
			<line fill="#FFFFFF" x1="455.763" y1="43.965" x2="455.763" y2="57.635"/>
			<path d="M455.763,58.137c-0.277,0-0.501-0.225-0.501-0.502v-13.67c0-0.277,0.224-0.502,0.501-0.502s0.501,0.225,0.501,0.502
				v13.67C456.264,57.912,456.04,58.137,455.763,58.137z"/>
		</g>
		<g>
			<line fill="#FFFFFF" x1="468.591" y1="43.965" x2="468.591" y2="57.635"/>
			<path d="M468.591,58.137c-0.277,0-0.501-0.225-0.501-0.502v-13.67c0-0.277,0.224-0.502,0.501-0.502s0.5,0.225,0.5,0.502v13.67
				C469.092,57.912,468.868,58.137,468.591,58.137z"/>
		</g>
		<g>
			<line fill="#FFFFFF" x1="481.421" y1="43.965" x2="481.421" y2="57.635"/>
			<path d="M481.421,58.137c-0.275,0-0.5-0.225-0.5-0.502v-13.67c0-0.277,0.225-0.502,0.5-0.502c0.277,0,0.502,0.225,0.502,0.502
				v13.67C481.923,57.912,481.698,58.137,481.421,58.137z"/>
		</g>
		<g>
			<line fill="#FFFFFF" x1="494.251" y1="43.965" x2="494.251" y2="57.635"/>
			<path d="M494.251,58.137c-0.277,0-0.5-0.225-0.5-0.502v-13.67c0-0.277,0.223-0.502,0.5-0.502s0.501,0.225,0.501,0.502v13.67
				C494.752,57.912,494.528,58.137,494.251,58.137z"/>
		</g>
		<g>
			<line fill="#FFFFFF" x1="507.079" y1="43.965" x2="507.079" y2="57.635"/>
			<path d="M507.079,58.137c-0.277,0-0.502-0.225-0.502-0.502v-13.67c0-0.277,0.225-0.502,0.502-0.502c0.276,0,0.5,0.225,0.5,0.502
				v13.67C507.579,57.912,507.355,58.137,507.079,58.137z"/>
		</g>
		<g>
			<line fill="#FFFFFF" x1="519.906" y1="43.965" x2="519.906" y2="57.635"/>
			<path d="M519.906,58.137c-0.275,0-0.5-0.225-0.5-0.502v-13.67c0-0.277,0.225-0.502,0.5-0.502c0.277,0,0.502,0.225,0.502,0.502
				v13.67C520.408,57.912,520.184,58.137,519.906,58.137z"/>
		</g>
		<g>
			<line fill="#FFFFFF" x1="532.736" y1="43.965" x2="532.736" y2="57.635"/>
			<path d="M532.736,58.137c-0.277,0-0.5-0.225-0.5-0.502v-13.67c0-0.277,0.223-0.502,0.5-0.502s0.502,0.225,0.502,0.502v13.67
				C533.238,57.912,533.014,58.137,532.736,58.137z"/>
		</g>
		<g>
			<line fill="#FFFFFF" x1="545.566" y1="43.965" x2="545.566" y2="57.635"/>
			<path d="M545.566,58.137c-0.277,0-0.502-0.225-0.502-0.502v-13.67c0-0.277,0.225-0.502,0.502-0.502c0.275,0,0.5,0.225,0.5,0.502
				v13.67C546.066,57.912,545.842,58.137,545.566,58.137z"/>
		</g>
		<path d="M582.311,63.27H370.265c-0.277,0-0.501-0.225-0.501-0.502c0-0.275,0.224-0.5,0.501-0.5h212.046c0.277,0,0.5,0.225,0.5,0.5
			C582.811,63.045,582.588,63.27,582.311,63.27z"/>
		<path d="M579.746,65.832H365.667c-0.277,0-0.5-0.225-0.5-0.502c0-0.275,0.224-0.5,0.5-0.5h214.079c0.277,0,0.502,0.225,0.502,0.5
			C580.248,65.607,580.023,65.832,579.746,65.832z"/>
		<g>
			<path d="M547.4-17.704c-0.211-0.91-0.633-1.7-1.158-2.322c-1.053-1.25-2.371-1.989-3.695-2.514
				c-1.334-0.519-2.709-0.796-4.086-0.931c-2.773-0.206-5.42,0.092-8.076,0.508c-2.643,0.448-5.236,1.094-7.789,1.853
				c-5.107,1.526-10.053,3.498-14.894,5.669c-4.844,2.176-9.573,4.58-14.236,7.103c-9.344,5.006-18.417,10.498-27.3,16.271
				c-0.348,0.229-0.695,0.457-1.043,0.686v-69.986c0-0.356-0.286-0.641-0.641-0.641h-9.4v-27.135c0-0.354-0.287-0.645-0.641-0.645
				H0.642c-0.279,0-0.537,0.187-0.617,0.47c-0.096,0.341,0.103,0.694,0.444,0.79l0.007,0.004l7.215,2.029
				c2.4,0.692,4.821,1.316,7.204,2.067l7.155,2.224l3.578,1.115l3.546,1.209l7.091,2.422c2.354,0.831,4.684,1.733,7.028,2.594
				c2.343,0.867,4.686,1.731,6.991,2.691l6.946,2.812l6.868,2.987c2.303,0.968,4.533,2.091,6.804,3.128
				c2.274,1.034,4.505,2.153,6.734,3.276l3.346,1.678l3.302,1.767c2.213,1.15,4.385,2.379,6.549,3.623
				c2.185,1.203,4.29,2.543,6.434,3.814c2.101,1.342,4.213,2.666,6.261,4.085c2.048,1.398,4.097,2.861,5.971,4.412l0.007,0.008
				c0.172,0.142,0.411,0.192,0.634,0.114c4.538-1.595,9.141-3.118,13.724-4.645l13.787-4.489c9.205-2.955,18.43-5.845,27.687-8.629
				l13.902-4.117c4.641-1.352,9.292-2.664,13.95-3.949c2.324-0.659,4.664-1.264,6.996-1.89c2.333-0.63,4.667-1.25,7.011-1.833
				c2.343-0.587,4.678-1.209,7.028-1.765l7.048-1.673c0.281-0.066,0.498-0.322,0.498-0.626c0-0.352-0.287-0.64-0.641-0.64l0,0
				l-15.172,0.155l-15.173,0.092l-30.344,0.016l-30.346-0.183l-7.586-0.049c-2.544,0.006-5.02-0.074-7.635,0.002
				c-1.301,0.059-2.614,0.188-3.951,0.528c-0.67,0.175-1.338,0.427-2.011,0.8c-0.662,0.374-1.337,0.936-1.779,1.761
				c-0.422,0.824-0.569,1.837-0.417,2.712c0.136,0.886,0.476,1.658,0.849,2.37c0.383,0.71,0.854,1.333,1.339,1.935
				c0.25,0.312,0.494,0.571,0.785,0.877c0.316,0.326,0.54,0.548,0.751,0.79c0.313,0.354,0.73,0.642,1.214,0.794
				c1.407,0.44,2.907-0.344,3.35-1.75c0.442-1.407-0.34-2.907-1.749-3.35l-0.059-0.02l-0.829-0.26
				c-0.223-0.063-0.482-0.184-0.707-0.292c-0.474-0.219-0.892-0.509-1.26-0.813c-0.732-0.636-1.153-1.359-1.015-2.007
				c0.133-0.69,1.033-1.455,2.092-1.882c1.074-0.44,2.278-0.687,3.497-0.823c1.22-0.126,2.467-0.124,3.739-0.132l3.794-0.023
				l7.586-0.043l30.346-0.184l30.344,0.018c0,0,13.04,0.403,13.04,1.687c0,1.281-8.648,3.805-10.976,4.466
				c-4.665,1.283-9.32,2.598-13.966,3.951l-13.916,4.12c-9.264,2.789-18.496,5.683-27.708,8.638l-13.798,4.493
				c-4.479,1.491-8.945,2.972-13.416,4.537c-1.885-1.54-3.818-2.919-5.793-4.269c-2.067-1.432-4.193-2.766-6.31-4.116
				c-2.157-1.279-4.276-2.627-6.472-3.838c-2.176-1.248-4.358-2.484-6.582-3.642l-3.318-1.771l-3.361-1.688
				c-2.239-1.129-4.48-2.252-6.76-3.288c-2.28-1.043-4.521-2.172-6.831-3.14l-6.893-3.001l-6.969-2.819
				c-2.314-0.964-4.664-1.828-7.013-2.699c-2.351-0.866-4.689-1.77-7.052-2.604l-7.111-2.43c0,0-3.996-1.529-3.996-4.362
				c0-2.83,3.845-3.046,3.845-3.046H453.8v26.496h-32.69c-0.228,0.002-0.453,0.124-0.566,0.341
				c-0.166,0.313-0.045,0.698,0.268,0.864c1.787,0.965,3.522,2.027,5.2,3.182c1.666,1.171,3.284,2.411,4.842,3.729
				c3.111,2.644,6.009,5.54,8.73,8.592c2.714,3.063,5.265,6.275,7.649,9.604c2.38,3.328,4.643,6.774,6.644,10.315l0.006,0.01
				c0.109,0.191,0.318,0.32,0.558,0.32c0.354,0,0.641-0.283,0.641-0.64v-35.036h8.759V9.461c-3.657,2.393-7.306,4.799-10.906,7.281
				c-4.364,3.006-8.693,6.055-12.981,9.188l-0.002,0.004c-0.154,0.117-0.255,0.305-0.253,0.512c0,0.352,0.287,0.641,0.641,0.641
				h24.143c0.354,0,0.641-0.289,0.641-0.641V9.586c0.494-0.326,0.98-0.662,1.476-0.986c8.862-5.773,17.901-11.285,27.223-16.275
				c4.676-2.465,9.418-4.805,14.259-6.914c4.836-2.104,9.77-4.005,14.826-5.454c2.529-0.718,5.088-1.324,7.672-1.731
				c2.566-0.365,5.23-0.653,7.738-0.385c1.25,0.16,2.475,0.528,3.551,1.107c1.076,0.564,2.006,1.404,2.475,2.331
				c0.934,1.966-0.58,3.196-2.736,3.637c-0.49,0.096-0.957,0.333-1.344,0.704c-1.07,1.037-1.098,2.746-0.063,3.818
				c1.039,1.074,2.748,1.102,3.82,0.064l0.16-0.152c1.188-1.15,2.432-2.412,3.047-4.237C547.521-15.785,547.613-16.792,547.4-17.704
				z M453.119-31.348c-0.962,0.372-2.894-2.365-4.844-5.092c-2.408-3.364-4.985-6.609-7.732-9.708
				c-2.756-3.093-5.694-6.033-8.861-8.723c-1.586-1.34-3.574-2.758-3.2-4.039c0.588-1.979,3.098-1.815,3.098-1.815H453.8v24.42
				C453.8-36.305,454.08-31.723,453.119-31.348z M463.841,25.803h-12.711c0,0-2.458-0.135-3.446-1.629
				c-0.989-1.496,2.12-3.988,2.12-3.988s2.457-1.77,3.691-2.641c3.419-2.41,6.867-4.781,10.347-7.1V25.803z"/>
			<path d="M474.952,36.484h-61.291c0,0,1.12-2.564,0.078-3.605c-1.041-1.041-3.152-0.988-3.152-0.988l29.564-29.566
				c0.114-0.115,0.19-0.277,0.191-0.453c0.001-0.352-0.285-0.637-0.636-0.639l-10.977-0.045l-10.977,0.135
				c-7.317,0.164-14.631,0.389-21.938,0.75c-3.657,0.141-7.307,0.391-10.959,0.6c-3.654,0.195-7.302,0.451-10.95,0.73
				c-7.3,0.504-14.587,1.156-21.872,1.844l-10.917,1.102L330.21,7.57c-7.262,0.883-14.521,1.785-21.766,2.809
				c-3.627,0.473-7.241,1.039-10.86,1.566c-3.622,0.521-7.234,1.088-10.845,1.676c-7.227,1.135-14.435,2.391-21.635,3.686
				c-7.201,1.295-14.381,2.697-21.554,4.137l-10.742,2.248l-10.714,2.379c-7.13,1.641-14.247,3.342-21.336,5.152
				c-7.089,1.814-14.154,3.723-21.188,5.742c-7.034,2.02-14.03,4.176-20.993,6.438l-10.396,3.541
				c-3.431,1.275-6.897,2.457-10.301,3.811c-3.411,1.332-6.828,2.65-10.188,4.113c-3.393,1.381-6.712,2.938-10.044,4.467
				c-6.606,3.174-13.12,6.578-19.293,10.584c-0.173,0.115-0.292,0.318-0.292,0.543c0.002,0.354,0.29,0.637,0.644,0.635h153.83
				c0.355,0,0.641-0.285,0.641-0.641V36.164c0-0.102-0.025-0.211-0.076-0.305c-0.169-0.311-0.557-0.426-0.867-0.26l-0.005,0.002
				c-2.513,1.59-4.994,3.158-7.45,4.795c-2.453,1.631-4.883,3.309-7.192,5.166c-1.155,0.93-2.292,1.895-3.338,2.98
				c-0.533,0.531-1.021,1.117-1.497,1.723c-0.466,0.615-0.93,1.258-1.274,2.016c-0.399,0.721-0.601,1.623-0.613,2.598
				c0.087,0.469,0.096,1.021,0.34,1.455l0.319,0.695c0.129,0.209,0.283,0.389,0.423,0.594c0.284,0.432,0.616,0.736,0.958,1.051
				c0.347,0.34,0.69,0.613,1.049,0.875c0.728,0.574,1.438,0.979,2.187,1.516c0.501,0.361,1.129,0.561,1.792,0.512
				c1.505-0.107,2.639-1.412,2.531-2.916c-0.105-1.504-1.412-2.639-2.917-2.531h-0.022c-0.631,0.045-1.365,0.104-1.936-0.02
				c-0.312-0.039-0.636-0.074-0.877-0.182c-0.272-0.088-0.562-0.174-0.76-0.311c-0.517-0.232-0.744-0.602-0.987-1.047
				c-0.111-0.484-0.18-1.086,0.036-1.707c0.161-0.623,0.471-1.248,0.841-1.838c0.364-0.596,0.802-1.16,1.268-1.699
				c0.93-1.09,2.145-2.129,3.245-3.084c2.185-1.922,4.365-3.521,6.825-5.109c0.839-0.537,2.549-1.605,2.549-1.605
				s-0.48,2.244,1.015,3.207c1.496,0.961,3.151,0.428,3.151,0.428v26.652H100.965c5.54-3.451,11.339-6.49,17.231-9.322
				c3.315-1.521,6.617-3.068,9.995-4.447c3.347-1.453,6.75-2.768,10.151-4.094c3.391-1.348,6.847-2.527,10.269-3.799l10.367-3.533
				c6.945-2.254,13.925-4.406,20.946-6.424c7.02-2.016,14.074-3.92,21.15-5.73c7.08-1.807,14.185-3.506,21.305-5.145l10.7-2.377
				l10.726-2.246c7.165-1.434,14.336-2.836,21.527-4.131c7.193-1.291,14.391-2.547,21.61-3.678
				c3.605-0.588,7.215-1.152,10.831-1.674c3.615-0.531,7.225-1.096,10.847-1.566c7.235-1.021,14.486-1.922,21.74-2.809l10.893-1.217
				l10.903-1.102c7.275-0.686,14.554-1.336,21.842-1.844c3.643-0.273,7.287-0.533,10.935-0.727
				c3.647-0.211,7.291-0.459,10.941-0.598c7.298-0.359,14.6-0.584,21.903-0.75l10.956-0.135c0,0-1.667,2.664-0.573,4.213
				c1.095,1.547,3.926,1.895,3.926,1.895l-28.095,28.096c-0.114,0.115-0.188,0.277-0.188,0.453c0,0.355,0.288,0.643,0.64,0.643
				h70.507c0.354,0,0.641-0.287,0.641-0.643C475.592,36.773,475.305,36.484,474.952,36.484z"/>
			<path d="M114.579-43.345c-0.233-2.26-2.12-4.027-4.44-4.027c-1.797,0-3.336,1.064-4.052,2.588
				c1.341,0.948,2.663,1.933,3.96,2.993C111.558-42.322,113.068-42.831,114.579-43.345z"/>
			<path d="M251.897,65.555c-2.319,0.057-4.185,1.932-4.213,4.26h4.213V65.555z"/>
		</g>
		<g>
			<path d="M402.773-14.887c0.616,1.825,1.86,3.087,3.047,4.237l0.16,0.152c1.072,1.037,2.782,1.01,3.818-0.064
				c1.039-1.072,1.009-2.781-0.063-3.818c-0.386-0.371-0.852-0.608-1.342-0.704c-2.156-0.44-3.67-1.671-2.736-3.637
				c0.471-0.927,1.399-1.767,2.477-2.331c1.074-0.579,2.301-0.947,3.552-1.107c2.504-0.269,5.171,0.02,7.737,0.385
				c2.584,0.407,5.143,1.014,7.668,1.731c5.058,1.449,9.99,3.351,14.831,5.454c4.84,2.108,9.582,4.448,14.258,6.914
				c9.321,4.99,18.36,10.502,27.221,16.275c0.494,0.324,0.98,0.66,1.478,0.986v16.859c0,0.352,0.284,0.641,0.64,0.641h24.143
				c0.355,0,0.641-0.289,0.641-0.641c0.004-0.207-0.102-0.395-0.254-0.512l-0.002-0.004c-4.287-3.133-8.617-6.182-12.98-9.188
				c-3.6-2.482-7.25-4.889-10.904-7.281v-70.186h8.758v35.036c0,0.356,0.289,0.64,0.64,0.64c0.241,0,0.449-0.129,0.559-0.32
				l0.006-0.01c2-3.541,4.265-6.987,6.644-10.315c2.385-3.329,4.936-6.541,7.65-9.604c2.722-3.052,5.618-5.948,8.729-8.592
				c1.559-1.318,3.178-2.559,4.844-3.729c1.676-1.154,3.412-2.217,5.197-3.182c0.316-0.166,0.436-0.551,0.27-0.864
				c-0.115-0.217-0.342-0.339-0.568-0.341h-32.688v-26.496H920.57c0,0,3.844,0.216,3.844,3.046c0,2.833-3.996,4.362-3.996,4.362
				l-7.111,2.43c-2.363,0.834-4.699,1.737-7.051,2.604c-2.35,0.871-4.699,1.735-7.014,2.699l-6.969,2.819l-6.893,3.001
				c-2.313,0.968-4.553,2.097-6.832,3.14c-2.281,1.036-4.521,2.159-6.76,3.288l-3.361,1.688l-3.318,1.771
				c-2.223,1.157-4.406,2.394-6.582,3.642c-2.195,1.211-4.314,2.559-6.473,3.838c-2.115,1.351-4.242,2.685-6.309,4.116
				c-1.977,1.35-3.91,2.729-5.793,4.269c-4.471-1.565-8.936-3.046-13.418-4.537l-13.795-4.493
				c-9.213-2.955-18.445-5.849-27.709-8.638l-13.916-4.12c-4.646-1.354-9.301-2.668-13.967-3.951
				c-2.326-0.661-10.975-3.185-10.975-4.466c0-1.283,13.039-1.687,13.039-1.687l30.346-0.018l30.346,0.184l7.586,0.043l3.793,0.023
				c1.271,0.008,2.52,0.006,3.74,0.132c1.219,0.137,2.424,0.383,3.494,0.823c1.063,0.427,1.963,1.191,2.094,1.882
				c0.139,0.647-0.283,1.371-1.016,2.007c-0.367,0.305-0.785,0.595-1.26,0.813c-0.225,0.108-0.484,0.229-0.705,0.292l-0.83,0.26
				l-0.057,0.02c-1.41,0.442-2.193,1.942-1.75,3.35c0.443,1.406,1.943,2.19,3.35,1.75c0.486-0.152,0.902-0.439,1.215-0.794
				c0.211-0.242,0.434-0.464,0.75-0.79c0.293-0.306,0.535-0.565,0.785-0.877c0.486-0.602,0.957-1.225,1.338-1.935
				c0.373-0.712,0.715-1.484,0.85-2.37c0.152-0.875,0.004-1.888-0.416-2.712c-0.441-0.825-1.115-1.387-1.777-1.761
				c-0.674-0.373-1.342-0.625-2.014-0.8c-1.336-0.34-2.648-0.47-3.949-0.528c-2.615-0.076-5.092,0.004-7.635-0.002l-7.586,0.049
				l-30.346,0.183l-30.346-0.016l-15.17-0.092l-15.174-0.155h-0.002c-0.352,0-0.641,0.288-0.641,0.64
				c0,0.304,0.219,0.56,0.498,0.626l7.049,1.673c2.35,0.556,4.686,1.178,7.029,1.765c2.344,0.583,4.678,1.203,7.01,1.833
				c2.334,0.626,4.67,1.23,6.996,1.89c4.658,1.285,9.309,2.598,13.949,3.949l13.904,4.117c9.256,2.784,18.48,5.674,27.686,8.629
				l13.787,4.489c4.582,1.526,9.186,3.05,13.723,4.645c0.225,0.078,0.463,0.027,0.637-0.114l0.006-0.008
				c1.875-1.551,3.922-3.014,5.971-4.412c2.047-1.419,4.16-2.743,6.262-4.085c2.143-1.271,4.25-2.611,6.434-3.814
				c2.166-1.244,4.336-2.473,6.549-3.623l3.303-1.767l3.348-1.678c2.229-1.123,4.459-2.242,6.732-3.276
				c2.27-1.037,4.502-2.16,6.805-3.128l6.867-2.987l6.947-2.812c2.305-0.96,4.648-1.824,6.99-2.691
				c2.342-0.86,4.674-1.763,7.027-2.594l7.092-2.422l3.547-1.209l3.576-1.115l7.158-2.224c2.379-0.751,4.801-1.375,7.201-2.067
				l7.215-2.029l0.008-0.004c0.342-0.096,0.541-0.449,0.443-0.79c-0.08-0.283-0.336-0.47-0.617-0.47H495.559
				c-0.351,0-0.64,0.29-0.64,0.645v27.135h-9.4c-0.355,0-0.64,0.284-0.64,0.641V8.619c-0.349-0.229-0.696-0.457-1.044-0.686
				C474.952,2.16,465.88-3.332,456.533-8.338c-4.661-2.523-9.391-4.927-14.234-7.103c-4.842-2.171-9.79-4.143-14.895-5.669
				c-2.554-0.759-5.147-1.404-7.79-1.853c-2.656-0.416-5.303-0.714-8.076-0.508c-1.378,0.135-2.752,0.412-4.086,0.931
				c-1.325,0.524-2.643,1.264-3.697,2.514c-0.526,0.622-0.949,1.412-1.159,2.322C402.387-16.792,402.478-15.785,402.773-14.887z
				 M496.201-36.305v-24.42h22.219c0,0,2.512-0.163,3.098,1.815c0.375,1.281-1.613,2.699-3.199,4.039
				c-3.166,2.689-6.105,5.63-8.86,8.723c-2.745,3.099-5.322,6.344-7.73,9.708c-1.952,2.727-3.885,5.464-4.846,5.092
				C495.921-31.723,496.201-36.305,496.201-36.305z M486.161,10.445c3.479,2.318,6.927,4.689,10.346,7.1
				c1.232,0.871,3.689,2.641,3.689,2.641s3.111,2.492,2.121,3.988c-0.988,1.494-3.443,1.629-3.443,1.629h-12.713V10.445z"/>
			<path d="M475.048,36.484h61.292c0,0-1.121-2.564-0.082-3.605c1.043-1.041,3.154-0.988,3.154-0.988L509.85,2.324
				c-0.114-0.115-0.192-0.277-0.192-0.453c-0.002-0.352,0.283-0.637,0.637-0.639l10.978-0.045l10.975,0.135
				c7.316,0.164,14.631,0.389,21.939,0.75c3.656,0.141,7.307,0.391,10.959,0.6c3.654,0.195,7.303,0.451,10.949,0.73
				c7.299,0.504,14.588,1.156,21.871,1.844l10.918,1.102l10.908,1.223c7.26,0.883,14.52,1.785,21.764,2.809
				c3.629,0.473,7.242,1.039,10.861,1.566c3.621,0.521,7.234,1.088,10.844,1.676c7.229,1.135,14.436,2.391,21.637,3.686
				c7.197,1.295,14.381,2.697,21.553,4.137l10.742,2.248l10.713,2.379c7.131,1.641,14.248,3.342,21.338,5.152
				c7.088,1.814,14.152,3.723,21.188,5.742s14.029,4.176,20.992,6.438l10.395,3.541c3.432,1.275,6.898,2.457,10.301,3.811
				c3.412,1.332,6.828,2.65,10.189,4.113c3.395,1.381,6.711,2.938,10.045,4.467c6.605,3.174,13.119,6.578,19.293,10.584
				c0.172,0.115,0.291,0.318,0.289,0.543c-0.002,0.354-0.289,0.637-0.643,0.635h-153.83c-0.354,0-0.641-0.285-0.641-0.641V36.164
				c0-0.102,0.025-0.211,0.076-0.305c0.168-0.311,0.557-0.426,0.867-0.26l0.006,0.002c2.514,1.59,4.994,3.158,7.449,4.795
				c2.453,1.631,4.883,3.309,7.191,5.166c1.156,0.93,2.293,1.895,3.342,2.98c0.531,0.531,1.018,1.117,1.494,1.723
				c0.467,0.615,0.932,1.258,1.273,2.016c0.4,0.721,0.604,1.623,0.613,2.598c-0.086,0.469-0.094,1.021-0.34,1.455l-0.318,0.695
				c-0.127,0.209-0.281,0.389-0.424,0.594c-0.283,0.432-0.617,0.736-0.959,1.051c-0.346,0.34-0.689,0.613-1.049,0.875
				c-0.727,0.574-1.436,0.979-2.184,1.516c-0.504,0.361-1.131,0.561-1.795,0.512c-1.504-0.107-2.637-1.412-2.529-2.916
				c0.104-1.504,1.412-2.639,2.916-2.531h0.021c0.631,0.045,1.365,0.104,1.938-0.02c0.311-0.039,0.635-0.074,0.875-0.182
				c0.273-0.088,0.563-0.174,0.762-0.311c0.516-0.232,0.742-0.602,0.986-1.047c0.111-0.484,0.18-1.086-0.035-1.707
				c-0.162-0.623-0.473-1.248-0.846-1.838c-0.361-0.596-0.797-1.16-1.266-1.699c-0.93-1.09-2.146-2.129-3.244-3.084
				c-2.186-1.922-4.365-3.521-6.828-5.109c-0.836-0.537-2.547-1.605-2.547-1.605s0.48,2.244-1.014,3.207
				c-1.496,0.961-3.15,0.428-3.15,0.428v26.652h150.932c-5.541-3.451-11.34-6.49-17.232-9.322c-3.314-1.521-6.615-3.068-9.996-4.447
				c-3.344-1.453-6.75-2.768-10.148-4.094c-3.393-1.348-6.85-2.527-10.27-3.799l-10.367-3.533
				c-6.947-2.254-13.926-4.406-20.945-6.424c-7.023-2.016-14.074-3.92-21.152-5.73c-7.078-1.807-14.182-3.506-21.303-5.145
				l-10.699-2.377l-10.727-2.246c-7.164-1.434-14.338-2.836-21.529-4.131c-7.191-1.291-14.389-2.547-21.607-3.678
				c-3.609-0.588-7.215-1.152-10.832-1.674c-3.615-0.531-7.225-1.096-10.848-1.566c-7.236-1.021-14.486-1.922-21.74-2.809
				l-10.893-1.217l-10.904-1.102C590.568,5.836,583.289,5.186,576,4.678c-3.643-0.273-7.285-0.533-10.934-0.727
				c-3.646-0.211-7.293-0.459-10.943-0.598c-7.295-0.359-14.598-0.584-21.9-0.75l-10.957-0.135c0,0,1.666,2.664,0.574,4.213
				c-1.096,1.547-3.928,1.895-3.928,1.895l28.096,28.096c0.115,0.115,0.188,0.277,0.188,0.453c0,0.355-0.287,0.643-0.643,0.643
				h-70.504c-0.353,0-0.641-0.287-0.641-0.643C474.407,36.773,474.696,36.484,475.048,36.484z"/>
			<path d="M835.422-43.345c0.23-2.26,2.119-4.027,4.441-4.027c1.795,0,3.334,1.064,4.049,2.588
				c-1.342,0.948-2.662,1.933-3.959,2.993C838.441-42.322,836.932-42.831,835.422-43.345z"/>
			<path d="M698.104,65.555c2.318,0.057,4.184,1.932,4.213,4.26h-4.213V65.555z"/>
		</g>
		<path d="M595.727-57.328c0.535-4.175-1.58-6.564-6.348-7.179l0.238-1.827l17.781,2.292c0.535,0.066,1.08,0.556,1.637,1.46
			c0.563,0.903,0.902,1.365,1.025,1.383c3.412-1.782,6.76-2.463,10.049-2.038c15.496,1.995,22.516,8.63,21.064,19.901l-2.873,22.311
			c-0.541,4.168,1.576,6.561,6.344,7.175l-0.232,1.827l-27.863-3.588l0.238-1.825c4.271,0.548,6.672-1.262,7.211-5.432l2.76-21.416
			c1.369-10.651-0.922-16.359-6.881-17.128c-3.066-0.397-6.232,0.322-9.494,2.146c-0.012,0.757-0.131,2.017-0.355,3.781
			l-3.906,30.313c-0.537,4.173,1.328,6.531,5.602,7.083l-0.234,1.825l-27.859-3.59l0.236-1.825c4.766,0.615,7.418-1.163,7.955-5.334
			L595.727-57.328z"/>
		<path d="M684.557-9.091c4.109-1.471,7.559-3.768,10.352-6.881l1.373,1.24c-2.947,3.28-6.648,5.742-11.104,7.386
			c-3.828,1.418-8.701,1.631-14.605,0.643c-8.053-1.346-13.879-4.42-17.473-9.224c-3.59-4.803-4.736-11.098-3.438-18.881
			c1.299-7.761,4.451-13.336,9.465-16.729c4.971-3.37,11.453-4.394,19.447-3.056c7.982,1.332,13.779,4.403,17.396,9.214
			c3.637,4.836,4.809,11.133,3.512,18.895l-35.586-5.944c-1.508,9.018-1.98,14.603-1.426,16.754c1.033,4.008,3.834,6.395,8.406,7.16
			C676.375-7.598,680.936-7.791,684.557-9.091z M685.553-30.679c1.338-7.992,1.719-13.031,1.152-15.105
			c-1.064-3.9-3.875-6.229-8.434-6.991c-4.521-0.757-7.68,0.272-9.471,3.085c-1.828,2.882-3.361,8.03-4.6,15.444L685.553-30.679z"/>
		<path d="M744.762,4.635l-0.363,1.803l-27.531-5.545l0.363-1.805c2.895,0.469,4.502-0.102,4.826-1.707
			c0.123-0.615,0.059-1.375-0.193-2.279l-3.279-11.863l-10.063,9.173c-1.063,0.959-1.666,1.805-1.813,2.527
			c-0.26,1.301,0.939,2.217,3.604,2.758l0.293,0.059l-0.363,1.801L695.959-3.32l0.365-1.801c1.842,0.369,3.152,0.57,3.939,0.602
			c1.498-0.018,3.621-1.287,6.377-3.809l11.41-10.438l-6.07-21.96c-0.549-1.964-1.387-3.573-2.514-4.835
			c-0.699-0.779-1.99-1.36-3.881-1.739l0.363-1.804l16.781,3.38c2.02,0.509,3.672,3.106,4.961,7.796l2.928,10.665l8.85-8.293
			c1.213-1.132,1.83-1.762,1.857-1.885c0.342-1.704-1.07-2.876-4.234-3.516l0.363-1.802l14.279,2.876l-0.361,1.803
			c-1.875-0.377-3.531-0.373-4.965,0.018c-1.613,0.54-3.295,1.626-5.037,3.254l-10.193,9.532l6.398,23.178
			C738.613,1.633,741.006,3.877,744.762,4.635z"/>
		<path d="M806.963-26.89l-1.664,13.325l-1.834-0.248c0.717-7.847-2.816-12.705-10.602-14.581l-2.775-0.669l-8.648,35.885
			c-0.99,4.096,0.855,6.703,5.533,7.832l-0.43,1.791l-28.066-6.768l0.43-1.789c4.678,1.129,7.51-0.352,8.5-4.449l8.646-35.887
			l-2.775-0.669c-7.785-1.876-13.145,0.842-16.08,8.149l-1.746-0.614l4.588-12.621L806.963-26.89z"/>
		<path fill="none" stroke="#000000" stroke-width="0.5" d="M692.596-1.08"/>
		<g>
			<path d="M173.25-33.669c7.333-1.769,13.4-1.706,18.201,0.191c5.771,2.284,9.299,6.094,10.583,11.42
				c1.285,5.33-0.189,10.039-4.424,14.126c-3.379,3.25-8.822,5.781-16.326,7.588l-8.918,2.152l1.049,4.348
				c0.987,4.094,3.819,5.576,8.496,4.449l0.432,1.789l-28.066,6.768l-0.432-1.791c4.678-1.127,6.523-3.738,5.537-7.834l-7.36-30.533
				c-1.03-3.529-3.799-4.748-8.306-3.662l-0.433-1.788L173.25-33.669z M171.936,0.02l8.917-2.152
				c7.017-1.691,9.4-7.201,7.151-16.532c-2.531-10.504-7.305-14.905-14.322-13.218l-8.917,2.152L171.936,0.02z"/>
			<path d="M229.798-45.796c7.403-1.436,13.459-1.098,18.169,1.014c5.659,2.539,8.84,5.622,9.543,9.25
				c1.2,6.186-2.25,11.864-10.345,17.033c2.26-0.323,3.934-0.153,5.02,0.518l10.524,10.25c0.833,0.807,2.755,0.918,5.768,0.334
				l0.346,1.789c-3.325,1.207-6.629,2.129-9.914,2.766c-5.891,1.143-10.906-0.729-15.043-5.619l-6.403-7.564l-7.14,1.383
				l1.535,7.914c0.801,4.133,3.562,5.74,8.284,4.824l0.351,1.811l-28.335,5.492l-0.351-1.809c4.723-0.916,6.684-3.439,5.883-7.572
				l-5.976-30.824c-0.871-3.57-3.581-4.912-8.131-4.03l-0.351-1.81L229.798-45.796z M229.973-16.452l5.313-1.029
				c7.083-1.373,9.746-6.598,7.987-15.673c-1.667-8.597-6.042-12.206-13.125-10.833l-5.312,1.029L229.973-16.452z"/>
			<path d="M307.78-15.626c3.426-2.691,5.968-5.954,7.631-9.786l1.693,0.739c-1.756,4.037-4.485,7.539-8.183,10.502
				c-3.182,2.553-7.726,4.294-13.631,5.23c-8.057,1.268-14.544,0.193-19.465-3.224c-4.919-3.416-7.993-9.013-9.219-16.798
				c-1.225-7.76,0.002-14.039,3.679-18.834c3.641-4.767,9.461-7.777,17.456-9.039c7.981-1.26,14.445-0.183,19.39,3.229
				c4.973,3.435,8.071,9.029,9.295,16.789l-35.585,5.61c1.422,9.021,2.735,14.46,3.941,16.322c2.244,3.469,5.651,4.846,10.222,4.124
				C300.502-11.63,304.761-13.25,307.78-15.626z M301.905-36.391c-1.262-7.995-2.488-12.885-3.682-14.671
				c-2.238-3.358-5.637-4.68-10.197-3.959c-4.522,0.712-7.188,2.686-7.994,5.913c-0.822,3.31-0.647,8.672,0.521,16.083
				L301.905-36.391z"/>
			<path d="M321.928-54.028c-1.12-2.017-2.375-3.329-3.76-3.936c-0.96-0.425-2.422-0.515-4.382-0.272l-0.228-1.824l16.983-2.109
				c2.023-0.248,4.116,1.729,6.277,5.936l12.929,23.125l6.809-25.576c0.284-1.068,0.409-1.733,0.377-1.991
				c-0.237-1.913-1.87-2.685-4.899-2.309l-0.227-1.823l11.62-1.439l0.227,1.821c-2.663,0.393-4.412,2.351-5.247,5.872l-7.366,27.781
				l-3.773,14.556l-2.252,0.278c-1.329,0.166-2.287-0.302-2.877-1.399l-2.886-5.43L321.928-54.028z"/>
		</g>
	</g>
</g>
</svg>
