<?xml version="1.0" encoding="utf-8"?>
<!-- Generator: Adobe Illustrator 16.0.3, SVG Export Plug-In . SVG Version: 6.00 Build 0)  -->
<!DOCTYPE svg PUBLIC "-//W3C//DTD SVG 1.1//EN" "http://www.w3.org/Graphics/SVG/1.1/DTD/svg11.dtd">
<svg version="1.1" id="Layer_1" xmlns="http://www.w3.org/2000/svg" xmlns:xlink="http://www.w3.org/1999/xlink" x="0px" y="0px"
	 width="950px" height="127px" viewBox="0 0 950 127" enable-background="new 0 0 950 127" xml:space="preserve">
<g>
	<line fill="#FFFFFF" x1="387.565" y1="44.516" x2="387.565" y2="27.289"/>
	<path d="M387.565,45.016c-0.276,0-0.5-0.224-0.5-0.5V27.289c0-0.276,0.224-0.5,0.5-0.5s0.5,0.224,0.5,0.5v17.228
		C388.065,44.792,387.842,45.016,387.565,45.016z"/>
</g>
<g>
	<line fill="#FFFFFF" x1="403.728" y1="44.516" x2="403.728" y2="27.289"/>
	<path d="M403.728,45.016c-0.276,0-0.5-0.224-0.5-0.5V27.289c0-0.276,0.224-0.5,0.5-0.5s0.5,0.224,0.5,0.5v17.228
		C404.228,44.792,404.004,45.016,403.728,45.016z"/>
</g>
<g>
	<line fill="#FFFFFF" x1="419.891" y1="44.516" x2="419.891" y2="27.289"/>
	<path d="M419.891,45.016c-0.276,0-0.5-0.224-0.5-0.5V27.289c0-0.276,0.224-0.5,0.5-0.5s0.5,0.224,0.5,0.5v17.228
		C420.391,44.792,420.167,45.016,419.891,45.016z"/>
</g>
<g>
	<line fill="#FFFFFF" x1="436.054" y1="44.516" x2="436.054" y2="27.289"/>
	<path d="M436.054,45.016c-0.276,0-0.5-0.224-0.5-0.5V27.289c0-0.276,0.224-0.5,0.5-0.5s0.5,0.224,0.5,0.5v17.228
		C436.554,44.792,436.33,45.016,436.054,45.016z"/>
</g>
<g>
	<line fill="#FFFFFF" x1="452.217" y1="44.516" x2="452.217" y2="27.289"/>
	<path d="M452.217,45.016c-0.276,0-0.5-0.224-0.5-0.5V27.289c0-0.276,0.224-0.5,0.5-0.5s0.5,0.224,0.5,0.5v17.228
		C452.717,44.792,452.493,45.016,452.217,45.016z"/>
</g>
<g>
	<line fill="#FFFFFF" x1="468.379" y1="44.516" x2="468.379" y2="27.289"/>
	<path d="M468.379,45.016c-0.276,0-0.5-0.224-0.5-0.5V27.289c0-0.276,0.224-0.5,0.5-0.5s0.5,0.224,0.5,0.5v17.228
		C468.879,44.792,468.656,45.016,468.379,45.016z"/>
</g>
<g>
	<line fill="#FFFFFF" x1="484.543" y1="44.516" x2="484.543" y2="27.289"/>
	<path d="M484.543,45.016c-0.277,0-0.5-0.224-0.5-0.5V27.289c0-0.276,0.223-0.5,0.5-0.5c0.275,0,0.5,0.224,0.5,0.5v17.228
		C485.043,44.792,484.818,45.016,484.543,45.016z"/>
</g>
<g>
	<line fill="#FFFFFF" x1="500.705" y1="44.516" x2="500.705" y2="27.289"/>
	<path d="M500.705,45.016c-0.275,0-0.5-0.224-0.5-0.5V27.289c0-0.276,0.225-0.5,0.5-0.5c0.277,0,0.5,0.224,0.5,0.5v17.228
		C501.205,44.792,500.982,45.016,500.705,45.016z"/>
</g>
<g>
	<line fill="#FFFFFF" x1="516.867" y1="44.516" x2="516.867" y2="27.289"/>
	<path d="M516.867,45.016c-0.275,0-0.5-0.224-0.5-0.5V27.289c0-0.276,0.225-0.5,0.5-0.5c0.277,0,0.5,0.224,0.5,0.5v17.228
		C517.367,44.792,517.145,45.016,516.867,45.016z"/>
</g>
<g>
	<line fill="#FFFFFF" x1="533.031" y1="44.516" x2="533.031" y2="27.289"/>
	<path d="M533.031,45.016c-0.277,0-0.5-0.224-0.5-0.5V27.289c0-0.276,0.223-0.5,0.5-0.5c0.275,0,0.5,0.224,0.5,0.5v17.228
		C533.531,44.792,533.307,45.016,533.031,45.016z"/>
</g>
<g>
	<line fill="#FFFFFF" x1="549.193" y1="44.516" x2="549.193" y2="27.289"/>
	<path d="M549.193,45.016c-0.275,0-0.5-0.224-0.5-0.5V27.289c0-0.276,0.225-0.5,0.5-0.5c0.277,0,0.5,0.224,0.5,0.5v17.228
		C549.693,44.792,549.471,45.016,549.193,45.016z"/>
</g>
<g>
	<line fill="#FFFFFF" x1="565.357" y1="44.516" x2="565.357" y2="27.289"/>
	<path d="M565.357,45.016c-0.277,0-0.5-0.224-0.5-0.5V27.289c0-0.276,0.223-0.5,0.5-0.5c0.275,0,0.5,0.224,0.5,0.5v17.228
		C565.857,44.792,565.633,45.016,565.357,45.016z"/>
</g>
<path d="M611.65,21.323H344.502c-0.276,0-0.5-0.224-0.5-0.5s0.224-0.5,0.5-0.5H611.65c0.277,0,0.5,0.224,0.5,0.5
	S611.928,21.323,611.65,21.323z"/>
<path d="M608.42,18.092H338.711c-0.276,0-0.5-0.224-0.5-0.5s0.224-0.5,0.5-0.5H608.42c0.277,0,0.5,0.224,0.5,0.5
	S608.697,18.092,608.42,18.092z"/>
<g>
	<path d="M635.338,19.441c0,0,0.658,0.006,1.809,0.017c1.15,0.018,2.793,0.016,4.766,0.006c1.973-0.006,4.273-0.013,6.738-0.021
		c1.227-0.01,2.477-0.034,3.729-0.208c1.258-0.164,2.521-0.422,3.748-0.797c2.447-0.736,4.768-2.018,6.314-3.792
		c0.754-0.891,1.314-1.879,1.584-2.874c0.283-0.99,0.297-1.97,0.092-2.819c-0.209-0.849-0.578-1.573-1.027-2.129
		c-0.424-0.569-0.904-0.982-1.311-1.294c-0.424-0.304-0.773-0.51-1.035-0.631c-0.254-0.119-0.391-0.182-0.391-0.182
		c-1.053-0.49-1.51-1.741-1.02-2.794s1.742-1.509,2.795-1.019c0.41,0.191,0.73,0.498,0.938,0.863l0.016,0.024
		c0,0,0.096,0.169,0.277,0.486c0.189,0.299,0.451,0.76,0.768,1.337c0.313,0.583,0.664,1.301,0.98,2.154
		c0.32,0.848,0.578,1.852,0.652,2.955c0.078,1.098-0.035,2.311-0.486,3.462c-0.449,1.147-1.139,2.247-2.043,3.178
		c-1.801,1.877-4.25,3.201-6.813,4.011c-1.283,0.406-2.604,0.679-3.912,0.849c-1.316,0.182-2.619,0.213-3.855,0.217
		c-2.465-0.008-4.766-0.015-6.738-0.021c-1.973-0.01-3.615-0.012-4.766,0.006c-1.15,0.011-1.809,0.017-1.809,0.017
		c-0.275,0.002-0.502-0.219-0.504-0.496c-0.002-0.276,0.219-0.502,0.496-0.504C635.332,19.441,635.336,19.441,635.338,19.441z"/>
	<path d="M636.893,13.406c0,0,0.99,0.234,2.5,0.443c0.752,0.103,1.635,0.198,2.561,0.22c0.912,0.02,1.926-0.027,2.674-0.298
		c0.182-0.066,0.332-0.15,0.443-0.23l0.068-0.062l0.016-0.014l0.01-0.007l0.002-0.001c-0.113,0.098-0.029,0.024-0.053,0.045
		l0.008-0.008l0.066-0.07l0.262-0.275c0.119-0.194,0.297-0.532,0.346-0.819c0.125-0.597-0.068-1.168-0.344-1.514
		c-0.271-0.36-0.607-0.537-0.859-0.622c-0.117-0.058-0.234-0.064-0.303-0.085c-0.07-0.018-0.109-0.028-0.109-0.028l-0.137-0.035
		c-0.799-0.206-1.281-1.021-1.074-1.821c0.205-0.8,1.021-1.281,1.822-1.075c0.047,0.012,0.096,0.027,0.141,0.044
		c0,0,0.084,0.031,0.244,0.089c0.158,0.064,0.393,0.133,0.672,0.298c0.561,0.286,1.354,0.863,1.891,1.839
		c0.547,0.95,0.777,2.311,0.33,3.581c-0.23,0.64-0.553,1.193-1.119,1.753L646.65,15l-0.074,0.061l-0.008,0.008l-0.063,0.053
		l-0.008,0.005l-0.031,0.021l-0.063,0.042c-0.082,0.053-0.166,0.11-0.25,0.156c-0.336,0.177-0.668,0.288-0.982,0.36
		c-0.635,0.144-1.217,0.156-1.773,0.144c-0.557-0.017-1.086-0.074-1.588-0.147c-1.006-0.148-1.91-0.361-2.678-0.563
		c-1.531-0.407-2.523-0.774-2.523-0.774l-0.006-0.002c-0.26-0.096-0.391-0.384-0.295-0.643
		C636.396,13.479,636.65,13.348,636.893,13.406z"/>
	<circle cx="627.068" cy="19.209" r="4.012"/>
	<g>
		<path d="M476.515,50.701h77.22c0,0-1.414,3.229-0.102,4.542s3.971,1.246,3.971,1.246l-37.246,37.248
			c-0.143,0.145-0.24,0.35-0.24,0.57c-0.004,0.445,0.357,0.807,0.801,0.807l13.832,0.057L548.576,95
			c9.217-0.207,18.434-0.492,27.639-0.947c4.607-0.176,9.207-0.486,13.807-0.75c4.605-0.248,9.201-0.572,13.797-0.922
			c9.195-0.637,18.377-1.459,27.553-2.324l13.758-1.387l13.74-1.539c9.146-1.117,18.293-2.254,27.42-3.539
			c4.568-0.598,9.123-1.307,13.684-1.975c4.561-0.658,9.113-1.373,13.66-2.113c9.107-1.428,18.188-3.014,27.26-4.643
			c9.07-1.633,18.117-3.398,27.154-5.207l13.533-2.836l13.496-2.997c8.984-2.067,17.951-4.21,26.881-6.492
			c8.934-2.283,17.834-4.688,26.697-7.232c8.861-2.544,17.674-5.264,26.445-8.11l13.096-4.46c4.322-1.609,8.691-3.1,12.977-4.803
			c4.301-1.677,8.604-3.338,12.84-5.181c4.273-1.741,8.455-3.705,12.65-5.627c8.326-4.002,16.529-8.292,24.309-13.339
			c0.217-0.146,0.369-0.398,0.365-0.682c-0.002-0.444-0.365-0.805-0.811-0.801H756.723c-0.443,0-0.809,0.361-0.809,0.807v43.202
			c0.002,0.129,0.031,0.266,0.1,0.388c0.211,0.39,0.699,0.536,1.09,0.324l0.008-0.003c3.168-2,6.291-3.978,9.385-6.038
			c3.092-2.058,6.152-4.172,9.061-6.512c1.457-1.17,2.889-2.388,4.209-3.754c0.672-0.668,1.285-1.404,1.885-2.17
			c0.586-0.774,1.17-1.582,1.604-2.537c0.504-0.91,0.758-2.049,0.775-3.274c-0.111-0.59-0.123-1.29-0.432-1.835l-0.4-0.877
			c-0.162-0.262-0.357-0.489-0.533-0.746c-0.359-0.542-0.775-0.928-1.209-1.326c-0.436-0.427-0.869-0.768-1.32-1.099
			c-0.92-0.728-1.811-1.231-2.754-1.913c-0.631-0.455-1.424-0.701-2.258-0.645c-1.898,0.136-3.326,1.781-3.191,3.677
			c0.133,1.896,1.781,3.323,3.676,3.188h0.027c0.795-0.059,1.719-0.133,2.439,0.021c0.393,0.051,0.801,0.094,1.105,0.232
			c0.344,0.109,0.707,0.22,0.957,0.391c0.652,0.293,0.938,0.755,1.242,1.322c0.143,0.605,0.227,1.363-0.045,2.15
			c-0.201,0.781-0.596,1.571-1.063,2.311c-0.457,0.75-1.008,1.46-1.596,2.145c-1.168,1.371-2.703,2.68-4.088,3.882
			c-2.754,2.424-5.498,4.441-8.598,6.438c-1.059,0.677-3.211,2.022-3.211,2.022s0.605-2.828-1.279-4.039
			c-1.883-1.211-3.969-0.538-3.969-0.538V8.71h190.152c-6.979,4.347-14.287,8.176-21.711,11.744
			c-4.178,1.914-8.334,3.867-12.594,5.601c-4.213,1.835-8.5,3.491-12.785,5.161c-4.271,1.698-8.627,3.185-12.938,4.787
			l-13.063,4.449c-8.75,2.84-17.543,5.553-26.387,8.092c-8.848,2.54-17.732,4.939-26.646,7.221c-8.92,2.278-17.871,4.419-26.84,6.48
			l-13.482,2.993l-13.514,2.832c-9.025,1.807-18.061,3.572-27.121,5.203c-9.061,1.629-18.129,3.209-27.223,4.635
			c-4.545,0.74-9.092,1.455-13.648,2.111c-4.553,0.666-9.1,1.375-13.666,1.975c-9.113,1.283-18.25,2.418-27.389,3.533l-13.723,1.535
			l-13.738,1.389c-9.162,0.861-18.332,1.684-27.516,2.32c-4.59,0.346-9.182,0.67-13.777,0.918
			c-4.594,0.264-9.188,0.576-13.785,0.752c-9.191,0.453-18.395,0.736-27.592,0.943l-25.992,0.242l43.357-43.163
			c0.146-0.145,0.238-0.349,0.238-0.571c0-0.446-0.363-0.808-0.809-0.808h-88.827c-0.444,0-0.807,0.361-0.807,0.808
			S476.07,50.701,476.515,50.701z"/>
		<path d="M547.52,67.721c-0.316-0.316-0.826-0.316-1.143,0l-52.15,52.152c0,0-0.012-1.289-1.828-1.85
			c-1.875-0.58-2.582,0.57-2.582,0.57V89.234c2.5-1.641,4.992-3.293,7.473-4.959l13.367-9.037l13.248-9.223l0.002-0.002
			c0.197-0.146,0.33-0.385,0.33-0.65c0-0.445-0.361-0.807-0.807-0.807h-34.42c-0.447,0-0.809,0.361-0.809,0.807v23.75
			c-6.125,4.025-12.303,7.969-18.566,11.771c-4.611,2.754-9.269,5.426-13.99,7.971c-4.725,2.539-9.51,4.967-14.412,7.102
			c-2.452,1.064-4.934,2.053-7.454,2.893c-2.517,0.814-5.093,1.539-7.662,1.762c-2.495,0.188-5.387-0.102-7.261-1.389
			c-0.443-0.32-0.763-0.709-0.867-1.057c-0.102-0.357-0.005-0.609,0.14-0.883c0.33-0.539,1.079-1.234,2.138-1.652
			c0.957-0.383,1.761-1.166,2.127-2.215c0.673-1.922-0.344-4.023-2.265-4.695c-1.923-0.67-4.024,0.344-4.694,2.266l-0.212,0.609
			c-0.582,1.666-1.315,3.402-1.096,5.584c0.088,1.07,0.611,2.172,1.323,2.885c0.705,0.73,1.507,1.145,2.259,1.43
			c1.52,0.549,2.957,0.668,4.36,0.758c1.409,0.064,2.781,0.08,4.193-0.053c2.79-0.285,5.417-1.074,7.993-1.945
			c2.567-0.895,5.068-1.934,7.531-3.043c4.924-2.227,9.7-4.734,14.408-7.348c4.708-2.617,9.332-5.373,13.923-8.178
			c6.098-3.688,12.115-7.506,18.082-11.4v35.945c0,0.205,0.078,0.414,0.236,0.57c0.316,0.316,0.828,0.316,1.141,0l57.941-57.939
			C547.836,68.547,547.836,68.035,547.52,67.721z M489.816,66.17h31.172c-3.645,2.73-7.33,5.416-11.043,8.055
			c-4.379,3.109-8.764,6.215-13.217,9.219c-2.297,1.549-4.602,3.088-6.912,4.615V66.17z"/>
		<path d="M499.301,66.17h-9.484v9.945C494.92,75.498,498.92,71.342,499.301,66.17z"/>
	</g>
</g>
<g>
	<path d="M317.335,20.441c0,0-0.657-0.006-1.808-0.017c-1.15-0.018-2.794-0.016-4.766-0.006c-1.972,0.006-4.273,0.013-6.738,0.021
		c-1.237-0.004-2.54-0.035-3.854-0.217c-1.309-0.169-2.629-0.442-3.914-0.849c-2.562-0.81-5.01-2.134-6.812-4.011
		c-0.905-0.931-1.595-2.03-2.042-3.178c-0.452-1.151-0.566-2.364-0.487-3.462c0.073-1.104,0.332-2.107,0.651-2.955
		c0.316-0.853,0.668-1.571,0.981-2.154c0.317-0.577,0.578-1.038,0.768-1.337c0.181-0.317,0.278-0.486,0.278-0.486l0.014-0.024
		c0.576-1.009,1.861-1.359,2.87-0.783c1.008,0.577,1.358,1.861,0.782,2.87c-0.225,0.393-0.557,0.686-0.938,0.863
		c0,0-0.136,0.063-0.391,0.182c-0.261,0.121-0.61,0.326-1.034,0.631c-0.408,0.312-0.887,0.726-1.313,1.294
		c-0.448,0.556-0.818,1.28-1.027,2.129c-0.204,0.85-0.191,1.829,0.093,2.819c0.27,0.995,0.829,1.982,1.583,2.874
		c1.546,1.773,3.867,3.056,6.314,3.792c1.227,0.375,2.491,0.633,3.748,0.797c1.252,0.174,2.502,0.199,3.729,0.208
		c2.465,0.008,4.766,0.015,6.738,0.021c1.972,0.01,3.616,0.012,4.766-0.006c1.15-0.011,1.808-0.017,1.808-0.017
		c0.276-0.002,0.502,0.219,0.504,0.496c0.003,0.276-0.219,0.502-0.495,0.504C317.342,20.441,317.337,20.441,317.335,20.441z"/>
	<path d="M316.063,14.365c0,0-0.991,0.367-2.523,0.774c-0.767,0.202-1.671,0.415-2.677,0.563c-0.503,0.073-1.031,0.131-1.588,0.147
		c-0.558,0.013-1.14,0-1.773-0.144c-0.316-0.072-0.647-0.184-0.982-0.36c-0.084-0.046-0.168-0.103-0.251-0.156l-0.062-0.041
		l-0.031-0.021l-0.008-0.005l-0.062-0.053l-0.009-0.008L306.022,15l-0.297-0.247c-0.567-0.56-0.89-1.113-1.12-1.753
		c-0.447-1.271-0.218-2.631,0.329-3.581c0.537-0.976,1.33-1.554,1.89-1.84c0.28-0.165,0.515-0.233,0.673-0.298
		c0.159-0.058,0.244-0.089,0.244-0.089c0.776-0.284,1.635,0.114,1.919,0.889c0.284,0.775-0.114,1.635-0.889,1.919
		c-0.046,0.017-0.093,0.032-0.14,0.044l-0.139,0.036c0,0-0.038,0.01-0.108,0.028c-0.069,0.021-0.186,0.028-0.303,0.085
		c-0.252,0.084-0.586,0.262-0.858,0.622c-0.276,0.346-0.469,0.917-0.344,1.514c0.048,0.287,0.226,0.625,0.345,0.819l0.263,0.275
		l0.066,0.069l0.008,0.009c0.052,0.045-0.065-0.056-0.053-0.045l0.002,0.002l0.009,0.007l0.017,0.014l0.067,0.062
		c0.111,0.08,0.262,0.163,0.444,0.229c0.749,0.271,1.762,0.318,2.674,0.298c0.926-0.022,1.808-0.117,2.561-0.22
		c1.509-0.209,2.499-0.443,2.499-0.443c0.269-0.063,0.539,0.103,0.603,0.372c0.059,0.249-0.079,0.499-0.313,0.585L316.063,14.365z"
		/>
	<circle cx="325.603" cy="19.209" r="4.012"/>
	<g>
		<path d="M476.158,50.701h-77.219c0,0,1.412,3.229,0.102,4.542c-1.313,1.313-3.973,1.246-3.973,1.246l37.248,37.248
			c0.141,0.145,0.239,0.35,0.239,0.57c0.003,0.445-0.356,0.807-0.8,0.807l-13.832,0.057L404.097,95
			c-9.218-0.207-18.435-0.492-27.641-0.947c-4.607-0.176-9.206-0.486-13.806-0.75c-4.604-0.248-9.2-0.572-13.796-0.922
			c-9.194-0.637-18.377-1.459-27.553-2.324l-13.756-1.387l-13.74-1.539c-9.149-1.117-18.296-2.254-27.421-3.539
			c-4.571-0.598-9.125-1.307-13.684-1.975c-4.562-0.658-9.114-1.373-13.661-2.113c-9.107-1.428-18.188-3.014-27.259-4.643
			c-9.071-1.633-18.116-3.398-27.156-5.207l-13.531-2.836l-13.499-2.997c-8.982-2.067-17.948-4.21-26.88-6.492
			c-8.933-2.283-17.833-4.688-26.694-7.232c-8.862-2.544-17.674-5.264-26.446-8.11l-13.097-4.46
			c-4.323-1.609-8.691-3.1-12.977-4.803c-4.3-1.677-8.604-3.338-12.837-5.181c-4.275-1.741-8.457-3.705-12.654-5.627
			C17.686,17.915,9.481,13.625,1.702,8.578C1.484,8.432,1.333,8.179,1.336,7.896c0.001-0.444,0.365-0.805,0.81-0.801H195.95
			c0.445,0,0.807,0.361,0.807,0.807v43.202c-0.001,0.129-0.032,0.266-0.098,0.388c-0.211,0.39-0.699,0.536-1.091,0.324l-0.005-0.003
			c-3.168-2-6.293-3.978-9.388-6.038c-3.089-2.058-6.152-4.172-9.06-6.512c-1.458-1.17-2.89-2.388-4.208-3.754
			c-0.671-0.668-1.286-1.404-1.887-2.17c-0.585-0.774-1.169-1.582-1.602-2.537c-0.505-0.91-0.759-2.049-0.774-3.274
			c0.11-0.59,0.122-1.29,0.43-1.835l0.401-0.877c0.161-0.262,0.355-0.489,0.532-0.746c0.357-0.542,0.776-0.928,1.208-1.326
			c0.437-0.427,0.87-0.768,1.322-1.099c0.917-0.728,1.81-1.231,2.753-1.913c0.63-0.455,1.422-0.701,2.258-0.645
			c1.897,0.136,3.326,1.781,3.189,3.677c-0.133,1.896-1.779,3.323-3.675,3.188h-0.028c-0.794-0.059-1.719-0.133-2.438,0.021
			c-0.392,0.051-0.801,0.094-1.106,0.232c-0.344,0.109-0.707,0.22-0.957,0.391c-0.651,0.293-0.936,0.755-1.243,1.322
			c-0.14,0.605-0.228,1.363,0.043,2.15c0.204,0.781,0.597,1.571,1.064,2.311c0.458,0.75,1.008,1.46,1.597,2.145
			c1.169,1.371,2.703,2.68,4.087,3.882c2.754,2.424,5.498,4.441,8.6,6.438c1.056,0.677,3.209,2.022,3.209,2.022
			s-0.604-2.828,1.279-4.039c1.885-1.211,3.971-0.538,3.971-0.538V8.71H4.989c6.981,4.347,14.287,8.176,21.711,11.744
			c4.176,1.914,8.333,3.867,12.592,5.601c4.214,1.835,8.503,3.491,12.787,5.161c4.273,1.698,8.628,3.185,12.937,4.787l13.063,4.449
			c8.75,2.84,17.543,5.553,26.387,8.092c8.848,2.54,17.73,4.939,26.646,7.221c8.919,2.278,17.872,4.419,26.842,6.48l13.479,2.993
			l13.516,2.832c9.024,1.807,18.06,3.572,27.121,5.203c9.06,1.629,18.127,3.209,27.223,4.635c4.543,0.74,9.089,1.455,13.646,2.111
			c4.555,0.666,9.103,1.375,13.667,1.975c9.116,1.283,18.25,2.418,27.389,3.533l13.723,1.535l13.739,1.389
			c9.164,0.861,18.333,1.684,27.515,2.32c4.59,0.346,9.182,0.67,13.777,0.918c4.595,0.264,9.187,0.576,13.787,0.752
			c9.19,0.453,18.392,0.736,27.592,0.943l25.992,0.242L386.76,50.464c-0.145-0.145-0.236-0.349-0.236-0.571
			c0-0.446,0.361-0.808,0.807-0.808h88.827c0.443,0,0.807,0.361,0.807,0.808S476.602,50.701,476.158,50.701z"/>
		<path d="M405.153,68.861l57.94,57.939c0.314,0.316,0.827,0.316,1.142,0c0.157-0.156,0.236-0.365,0.236-0.57V90.285
			c5.966,3.895,11.984,7.713,18.082,11.4c4.592,2.805,9.217,5.561,13.922,8.178c4.709,2.613,9.486,5.121,14.41,7.348
			c2.463,1.109,4.965,2.148,7.533,3.043c2.574,0.871,5.201,1.66,7.992,1.945c1.41,0.133,2.783,0.117,4.193,0.053
			c1.402-0.09,2.84-0.209,4.359-0.758c0.752-0.285,1.555-0.699,2.26-1.43c0.711-0.713,1.234-1.814,1.322-2.885
			c0.219-2.182-0.516-3.918-1.098-5.584l-0.213-0.609c-0.668-1.922-2.771-2.936-4.691-2.266c-1.922,0.672-2.936,2.773-2.266,4.695
			c0.365,1.049,1.17,1.832,2.125,2.215c1.061,0.418,1.811,1.113,2.139,1.652c0.145,0.273,0.244,0.525,0.143,0.883
			c-0.107,0.348-0.426,0.736-0.867,1.057c-1.873,1.287-4.768,1.576-7.262,1.389c-2.57-0.223-5.145-0.947-7.662-1.762
			c-2.52-0.84-5.002-1.828-7.453-2.893c-4.902-2.135-9.688-4.563-14.41-7.102c-4.723-2.545-9.383-5.217-13.992-7.971
			c-6.264-3.803-12.44-7.746-18.566-11.771v-23.75c0-0.445-0.362-0.807-0.807-0.807h-34.419c-0.448,0-0.807,0.361-0.807,0.807
			c0,0.266,0.132,0.504,0.327,0.65l0.004,0.002l13.248,9.223l13.369,9.037c2.479,1.666,4.971,3.318,7.472,4.959v29.359
			c0,0-0.71-1.15-2.582-0.57c-1.818,0.561-1.828,1.85-1.828,1.85l-52.15-52.152c-0.315-0.316-0.827-0.316-1.143,0
			C404.837,68.035,404.837,68.547,405.153,68.861z M462.856,88.059c-2.313-1.527-4.614-3.066-6.911-4.615
			c-4.454-3.004-8.838-6.109-13.219-9.219c-3.714-2.639-7.397-5.324-11.044-8.055h31.174V88.059z"/>
		<path d="M453.371,66.17h9.485v9.945C457.753,75.498,453.753,71.342,453.371,66.17z"/>
	</g>
</g>
</svg>
