<?xml version="1.0" encoding="utf-8"?>
<!-- Generator: Adobe Illustrator 16.0.3, SVG Export Plug-In . SVG Version: 6.00 Build 0)  -->
<!DOCTYPE svg PUBLIC "-//W3C//DTD SVG 1.1//EN" "http://www.w3.org/Graphics/SVG/1.1/DTD/svg11.dtd">
<svg version="1.1" id="Layer_1" xmlns="http://www.w3.org/2000/svg" xmlns:xlink="http://www.w3.org/1999/xlink" x="0px" y="0px"
	 width="950px" height="151px" viewBox="0 0 950 151" enable-background="new 0 0 950 151" xml:space="preserve">
<g>
	<path d="M343.197,19.699h-57.733c-0.277,0-0.5,0.224-0.5,0.5s0.224,0.5,0.5,0.5h52.771c-21.981,5.819-104.199,35.705-136.93,55.177
		c-4.835-11.181-13.919-30.814-21.557-39.494c-0.184-0.207-0.5-0.229-0.707-0.045c-0.208,0.182-0.228,0.499-0.045,0.706
		c7.584,8.618,16.647,28.247,21.444,39.352c-2.001,1.212-3.805,2.384-5.38,3.503c-1.503,1.503-2.088,2.984-1.739,4.404
		c0.719,2.932,5.217,4.373,5.409,4.434l0.243,0.076l5.903-4.385l-0.142-0.356c-0.039-0.1-1.173-2.946-3.027-7.263
		C237.073,55.877,335.51,20.7,343.197,20.7V19.699z M203.66,84.083l-4.869,3.616c-0.888-0.322-3.998-1.585-4.5-3.637
		c-0.259-1.057,0.237-2.22,1.411-3.402c1.492-1.06,3.214-2.174,5.137-3.334C202.3,80.73,203.304,83.197,203.66,84.083z"/>
	<g>
		<path d="M23.902,32.214l-0.994-0.004l-0.003,1l-0.059,16.247l-0.029,8.123c0.006,0.7-0.029,1.286,0.031,2.148
			c0,0.191,0.047,0.42,0.094,0.643c0.047,0.225,0.079,0.436,0.208,0.7c0.113,0.25,0.203,0.496,0.451,0.747
			c0.111,0.122,0.221,0.247,0.351,0.348c0.143,0.092,0.296,0.179,0.454,0.256c0.318,0.169,0.614,0.18,0.935,0.244
			c0.261,0.001,0.57,0.01,0.803-0.033c0.488-0.08,0.925-0.191,1.32-0.333c0.808-0.287,1.495-0.594,2.281-0.973l0.246-0.119
			c0.394-0.19,0.732-0.506,0.946-0.926c0.522-1.021,0.117-2.272-0.905-2.794c-1.022-0.521-2.273-0.117-2.795,0.905
			c-0.25,0.49-0.686,0.955-1.086,1.282c-0.381,0.344-0.886,0.495-0.827,0.501c0.005,0.003,0.006,0.015-0.002,0.032
			c-0.003,0.002-0.001-0.01-0.01-0.006c-0.023,0.033-0.055-0.045-0.095-0.096c-0.053-0.028-0.071-0.156-0.103-0.26
			c-0.03-0.107-0.077-0.206-0.075-0.354c-0.065-0.489-0.039-1.258-0.048-1.912l-0.029-8.123l-0.056-15.252l112.044-0.392
			l109.877-0.129c-0.056,0.025-0.112,0.049-0.167,0.074c-1.011,0.487-1.989,1.02-2.945,1.58c-1.915,1.119-3.772,2.313-5.622,3.508
			c-1.85,1.196-3.692,2.398-5.559,3.549c-0.932,0.576-1.872,1.139-2.825,1.666c-0.958,0.539-1.905,1.004-2.918,1.462
			c-2.003,0.921-4.001,1.82-6.023,2.674c-1.008,0.434-2.029,0.827-3.045,1.232c-1.028,0.361-2.046,0.771-3.09,1.063
			c-1.033,0.338-2.088,0.579-3.13,0.751c-0.519,0.025-1.041,0.143-1.556,0.1c-0.56-0.016-0.995-0.105-1.491-0.25
			c-0.943-0.301-1.735-0.935-2.11-1.829c-0.391-0.887-0.403-1.937-0.207-2.943l0.001-0.006v-0.001
			c0.052-0.272-0.126-0.534-0.397-0.585c-0.271-0.053-0.534,0.125-0.586,0.396c-0.22,1.144-0.226,2.395,0.277,3.542
			c0.48,1.16,1.567,2.018,2.716,2.371c1.172,0.39,2.34,0.324,3.488,0.185c1.125-0.184,2.224-0.441,3.282-0.788
			c1.078-0.303,2.105-0.717,3.153-1.087c1.027-0.413,2.062-0.812,3.076-1.249c2.033-0.862,4.049-1.773,6.046-2.694
			c0.994-0.448,2.024-0.956,2.983-1.5c0.973-0.54,1.922-1.109,2.862-1.691c1.88-1.163,3.725-2.369,5.572-3.566
			c1.846-1.195,3.694-2.386,5.58-3.491c0.942-0.555,1.899-1.075,2.871-1.545c0.964-0.42,1.998-0.906,2.933-0.932v-0.938
			l-113.045-0.133L23.902,32.214z"/>
		<path d="M274.455,19.73l-136.013-0.133L2.428,19.202l-0.994-0.004l-0.003,1.001l-0.06,16.25l-0.029,8.125
			c0.008,0.7-0.031,1.286,0.024,2.144C1.4,47.126,1.46,47.565,1.661,48.06c0.178,0.478,0.608,1.084,1.269,1.361
			c0.648,0.28,1.26,0.275,1.742,0.203c0.492-0.079,0.919-0.194,1.321-0.333c0.809-0.291,1.48-0.59,2.284-0.983l0.261-0.128
			c0.4-0.195,0.74-0.519,0.952-0.949C10,46.198,9.576,44.949,8.543,44.44c-1.032-0.509-2.281-0.085-2.79,0.947
			c-0.234,0.475-0.682,0.955-1.08,1.278c-0.388,0.353-0.877,0.481-0.831,0.505c0.017,0.038-0.013,0.075-0.106-0.058
			c-0.08-0.123-0.152-0.359-0.181-0.624c-0.061-0.492-0.031-1.263-0.042-1.916l-0.029-8.125L3.429,21.194l135.013-0.393
			l136.013-0.133c0.259,0,0.469-0.209,0.469-0.469C274.924,19.94,274.714,19.73,274.455,19.73z"/>
	</g>
	<path d="M160.104,20.699c-0.137,0-0.273-0.056-0.372-0.166c-7.672-8.524-20.587-12.846-38.389-12.846
		c-19.585,0-22.926,12.119-23.059,12.635c-0.069,0.268-0.34,0.428-0.608,0.36c-0.267-0.068-0.429-0.339-0.361-0.607
		c0.034-0.134,3.63-13.388,24.028-13.388c18.097,0,31.263,4.433,39.132,13.177c0.185,0.205,0.168,0.521-0.037,0.706
		C160.343,20.657,160.224,20.699,160.104,20.699z"/>
	<path d="M96.901,1.707c0,0-0.018,0.091-0.053,0.263c-0.036,0.181-0.068,0.463-0.095,0.818c-0.035,0.688,0.016,1.769,0.572,2.443
		c0.269,0.336,0.683,0.59,1.295,0.73c0.572,0.088,1.547,0.098,2.441,0.125c1.822,0.052,3.766,0.106,5.71,0.162
		c7.775,0.22,15.55,0.44,15.55,0.44c0.276,0.008,0.494,0.238,0.486,0.514c-0.007,0.266-0.223,0.478-0.486,0.486
		c0,0-7.775,0.22-15.55,0.44c-1.944,0.055-3.888,0.11-5.71,0.162c-0.928,0.015-1.717,0.089-2.808-0.004
		c-1.035-0.142-2.101-0.635-2.789-1.405c-0.697-0.76-1.016-1.617-1.192-2.325c-0.163-0.716-0.194-1.325-0.205-1.823
		c0.006-0.496,0.03-0.88,0.065-1.149c0.04-0.278,0.062-0.426,0.062-0.426c0.108-0.755,0.809-1.28,1.564-1.171
		s1.28,0.809,1.171,1.564c-0.003,0.025-0.007,0.049-0.012,0.073L96.901,1.707z"/>
	<circle cx="16.604" cy="26.329" r="3.378"/>
	<circle cx="31.698" cy="26.329" r="3.378"/>
	<circle cx="47.757" cy="26.329" r="3.378"/>
	<circle cx="65.272" cy="26.329" r="3.378"/>
	<circle cx="82.037" cy="26.329" r="3.378"/>
	<circle cx="97.8" cy="26.329" r="3.378"/>
	<circle cx="113.189" cy="26.329" r="3.378"/>
	<circle cx="128.953" cy="26.329" r="3.378"/>
	<circle cx="146.843" cy="26.329" r="3.378"/>
	<circle cx="164.108" cy="26.329" r="3.378"/>
	<circle cx="183.375" cy="26.329" r="3.378"/>
	<circle cx="202.342" cy="26.329" r="3.378"/>
	<circle cx="219.281" cy="26.329" r="3.378"/>
	<circle cx="237.047" cy="26.329" r="3.378"/>
	<path d="M235.17,36.711H31.698c-0.276,0-0.5-0.224-0.5-0.5s0.224-0.5,0.5-0.5H235.17c0.276,0,0.5,0.224,0.5,0.5
		S235.447,36.711,235.17,36.711z"/>
	<path d="M122.822,36.211c0,0-0.053,6.381-0.133,15.952c-0.094,9.571-0.049,22.333-0.075,35.094
		c0.059,12.761,0.118,25.522,0.163,35.094c0.012,2.393,0.023,4.586,0.033,6.53c0.015,1.943-0.035,3.639,0.265,5.035
		c0.508,2.791,1.748,4.387,1.748,4.387c1.073,1.381,0.824,3.369-0.557,4.443c-1.381,1.072-3.37,0.824-4.443-0.557
		c-0.907-1.168-0.867-2.771,0-3.887c0,0,1.24-1.596,1.748-4.387c0.299-1.396,0.25-3.092,0.265-5.035
		c0.01-1.944,0.021-4.138,0.033-6.53c0.044-9.571,0.104-22.333,0.163-35.094c-0.026-12.761,0.019-25.523-0.075-35.094
		c-0.08-9.571-0.133-15.952-0.133-15.952c-0.002-0.276,0.22-0.502,0.496-0.504c0.276-0.002,0.502,0.22,0.504,0.496
		C122.822,36.205,122.822,36.209,122.822,36.211z"/>
	<path d="M114.471,96.766c0.906-0.598-1.792,2.896-3.046,2.082c-1.253-0.814-2.269-2.211-1.677-3.121
		c0.591-0.911,1.969-1.552,3.222-0.738C114.223,95.801,112.907,97.799,114.471,96.766z"/>
	<path d="M100.207,36.742c0,0-0.033,0.22-0.09,0.604c-0.043,0.39-0.081,0.952-0.072,1.625c0.018,0.673,0.071,1.461,0.244,2.28
		c0.154,0.818,0.455,1.674,0.908,2.386c0.239,0.346,0.524,0.644,0.839,0.839c0.151,0.096,0.337,0.171,0.473,0.212
		c0.209,0.047,0.437,0.117,0.624,0.142c0.359,0.053,0.733,0.047,0.98-0.039c0.259-0.087,0.302-0.239,0.329-0.372
		c0.057-0.29,0.009-0.828-0.047-1.211c-0.063-0.436-0.098-0.685-0.098-0.685l-0.04-0.278c-0.153-1.069,0.59-2.059,1.658-2.211
		c1.068-0.152,2.059,0.59,2.211,1.659c0.09,0.63-0.139,1.241-0.555,1.661c0,0-0.157,0.157-0.392,0.532
		c-0.128,0.207-0.283,0.457-0.461,0.744c-0.184,0.304-0.43,0.684-0.857,1.058c-0.419,0.388-1.086,0.593-1.61,0.556
		c-0.535-0.029-0.988-0.164-1.45-0.342c-0.226-0.083-0.403-0.174-0.612-0.263c-0.273-0.124-0.482-0.255-0.692-0.427
		c-0.407-0.34-0.704-0.767-0.926-1.203c-0.465-0.869-0.662-1.795-0.84-2.646c-0.153-0.858-0.256-1.661-0.319-2.352
		c-0.128-1.379-0.201-2.323-0.201-2.323c-0.021-0.278,0.187-0.52,0.464-0.542c0.278-0.021,0.52,0.187,0.542,0.464
		c0.003,0.038,0.001,0.075-0.004,0.11L100.207,36.742z"/>
	<path d="M119.861,85.102c-0.412-1.993-1.08-4.039-2.018-6.023c-0.452-0.986-1.016-2.017-1.559-2.934
		c-0.596-0.972-1.203-1.886-1.813-2.844c-1.261-1.855-2.551-3.73-3.868-5.575c-2.619-3.704-5.281-7.37-7.701-10.847
		c-1.202-1.748-2.366-3.398-3.409-5.049c-1.088-1.649-1.978-3.141-2.568-4.694c-0.237-0.602-0.424-1.19-0.588-1.769
		c0.541,0.489,1.229,1.094,2.043,1.773c0.517,0.434,1.073,0.907,1.681,1.386c0.607,0.477,1.24,0.992,1.929,1.482
		c0.681,0.5,1.405,0.991,2.152,1.477c0.384,0.229,0.771,0.459,1.158,0.692l1.216,0.626c0.425,0.176,0.846,0.366,1.278,0.529
		c0.452,0.118,0.886,0.288,1.352,0.358l0.704,0.088c0.125,0.011,0.214,0.034,0.37,0.034l0.325,0.001l0.644,0.003
		c0.231-0.022,0.461-0.044,0.689-0.065c0.901-0.122,1.778-0.306,2.563-0.743c0.777-0.418,1.469-1.007,1.926-1.708
		c0.481-0.69,0.709-1.452,0.825-2.127c0.136-0.684,0.083-1.289,0.044-1.792c-0.068-0.497-0.151-0.895-0.235-1.158
		c-0.081-0.267-0.124-0.408-0.124-0.408l0-0.001c-0.001-0.002-0.003-0.003-0.004-0.001l-2.784,1.483
		c-0.019,0.01,0.242,0.209,0.506,0.729c0.121,0.258,0.255,0.6,0.296,1.006c0.035,0.401,0.034,0.885-0.165,1.362
		c-0.195,0.47-0.532,0.967-1.062,1.352c-0.512,0.401-1.22,0.692-1.962,0.853l-0.565,0.116l-0.641,0.062l-0.324,0.03
		c-0.06,0.009-0.188-0.01-0.279-0.013l-0.606-0.038c-0.407-0.034-0.817-0.168-1.232-0.246c-0.408-0.127-0.814-0.282-1.226-0.421
		l-1.19-0.549c-0.384-0.213-0.766-0.424-1.146-0.633c-0.746-0.446-1.47-0.908-2.137-1.404c-0.676-0.483-1.315-0.974-1.901-1.464
		c-0.588-0.487-1.132-0.962-1.627-1.41c-0.972-0.913-1.754-1.703-2.293-2.262c-0.259-0.289-0.462-0.516-0.6-0.67
		c-0.322-1.697-0.381-3.206-0.354-4.377c0.024-0.966,0.103-1.722,0.18-2.229c0.076-0.512,0.135-0.764,0.135-0.764
		c0.06-0.262-0.097-0.526-0.357-0.596c-0.267-0.072-0.542,0.085-0.613,0.352l-0.004,0.016c0,0-0.314,1.159-0.404,3.185
		c-0.088,2.016,0.034,4.985,1.253,8.289c0.579,1.646,1.554,3.349,2.578,4.967c1.002,1.662,2.168,3.394,3.336,5.168
		c2.36,3.544,4.947,7.264,7.483,11.012c1.276,1.869,2.517,3.753,3.725,5.61c0.57,0.935,1.135,1.863,1.694,2.78
		c0.549,0.975,1.004,1.851,1.419,2.804c0.839,1.872,1.412,3.771,1.752,5.596c0.334,1.828,0.408,3.584,0.289,5.18
		c-0.079,0.77-0.16,1.637-0.337,2.136c-0.197,0.599-0.508,1.171-0.842,1.667c-0.677,1-1.482,1.699-2.151,2.056
		c-0.679,0.364-1.18,0.386-1.486,0.349c-0.31-0.045-0.467-0.121-0.467-0.121c-0.046-0.021-0.101-0.045-0.152-0.061
		c-0.654-0.217-1.359,0.137-1.576,0.792c-0.217,0.653,0.138,1.36,0.792,1.577l0.035,0.01c0,0,0.094,0.031,0.276,0.092
		c0.182,0.059,0.463,0.131,0.835,0.169c0.74,0.087,1.864-0.07,2.921-0.688c1.063-0.605,2.083-1.574,2.933-2.877
		c0.419-0.658,0.808-1.395,1.08-2.273c0.145-0.454,0.224-0.963,0.265-1.359c0.061-0.428,0.085-0.867,0.123-1.315
		C120.394,89.045,120.269,87.098,119.861,85.102z"/>
	<circle cx="115.452" cy="46.505" r="1.574"/>
	<path d="M466.372,46.807h-0.002l-9.627,0.176c-3.209,0.061-6.413,0.288-9.618,0.424c-3.208,0.113-6.403,0.438-9.603,0.67
		c-1.599,0.137-3.201,0.229-4.796,0.402l-4.785,0.512l-4.786,0.512l-4.771,0.639l-4.769,0.638c-1.589,0.222-3.17,0.496-4.755,0.742
		c-3.168,0.5-6.338,0.992-9.489,1.598c-3.155,0.576-6.313,1.135-9.45,1.805c-3.144,0.637-6.291,1.259-9.416,1.98
		c-3.132,0.689-6.263,1.386-9.376,2.155l-4.677,1.123l-4.661,1.189c-3.11,0.781-6.208,1.609-9.303,2.448
		c-6.193,1.664-12.358,3.427-18.52,5.198c-6.153,1.808-12.321,3.534-18.457,5.415l-9.202,2.791l-9.138,3.018
		c-3.059,0.973-6.072,2.07-9.09,3.154c-3.018,1.086-6.05,2.135-9.027,3.328c-2.982,1.18-6,2.273-8.954,3.525
		c-2.953,1.253-5.932,2.445-8.865,3.746c-5.865,2.602-11.693,5.295-17.4,8.232c-5.738,2.877-11.331,6.045-16.811,9.394
		c-1.369,0.839-2.731,1.691-4.066,2.587c-1.353,0.869-2.667,1.795-3.987,2.715c-1.299,0.973-2.616,1.828-3.842,2.997
		c-1.154,1.151-2.21,2.388-3.169,3.704c-1.884,2.624-3.48,5.629-3.789,8.977c-0.152,1.66,0.082,3.381,0.743,4.928
		c0.653,1.551,1.68,2.916,2.887,4.043c2.417,2.279,5.441,3.7,8.4,4.923c0.755,0.311,1.529,0.595,2.356,0.786
		c0.417,0.089,0.842,0.17,1.321,0.168c0.238-0.011,0.496-0.021,0.775-0.119c0.274-0.09,0.577-0.299,0.771-0.589
		c0.364-0.606,0.323-1.177,0.301-1.659c-0.036-0.493-0.12-0.948-0.199-1.408c-0.176-0.928-0.326-1.782-0.487-2.865l-0.064-0.432
		c-0.151-1.002-0.866-1.875-1.903-2.176c-1.422-0.413-2.91,0.404-3.323,1.825c-0.414,1.423,0.404,2.91,1.826,3.323
		c0.767,0.223,1.457,0.739,1.971,1.259c0.26,0.267,0.479,0.558,0.631,0.844c0.155,0.284,0.215,0.573,0.19,0.687
		c0.018,0.112-0.195,0.255-0.53,0.278c-0.323,0.027-0.696-0.025-1.06-0.109c-0.735-0.167-1.475-0.433-2.201-0.728
		c-2.944-1.202-5.837-2.566-8.119-4.704c-1.137-1.053-2.079-2.308-2.676-3.712c-0.604-1.402-0.822-2.953-0.688-4.484
		c0.267-3.084,1.768-5.983,3.59-8.53c0.924-1.278,1.952-2.489,3.064-3.604c1.088-1.053,2.464-1.973,3.726-2.92
		c1.307-0.916,2.609-1.84,3.952-2.709c1.324-0.895,2.676-1.747,4.037-2.588c5.446-3.352,11.009-6.527,16.723-9.416
		c5.683-2.947,11.489-5.653,17.334-8.27c2.922-1.307,5.892-2.508,8.837-3.767c2.944-1.261,5.953-2.361,8.928-3.55
		c2.969-1.201,5.993-2.26,9.004-3.353c3.01-1.093,6.017-2.199,9.066-3.179l9.123-3.012l9.203-2.787
		c6.123-1.874,12.304-3.6,18.452-5.404c6.161-1.766,12.324-3.525,18.513-5.184c3.093-0.836,6.188-1.665,9.295-2.442l4.657-1.186
		l4.673-1.12c3.11-0.767,6.237-1.461,9.366-2.148c3.122-0.717,6.264-1.341,9.405-1.971c3.136-0.654,6.292-1.197,9.446-1.757
		c3.148-0.589,6.315-1.065,9.481-1.55c1.583-0.236,3.163-0.502,4.75-0.716l4.764-0.614l4.763-0.615l4.778-0.487l4.777-0.489
		c1.592-0.164,3.192-0.248,4.787-0.377c3.194-0.217,6.382-0.525,9.583-0.623c3.199-0.12,6.394-0.331,9.595-0.376l9.104-0.122v41.82
		h-146.02c9.939-3.307,19.982-6.34,30.07-9.18c11.092-3.103,22.254-5.955,33.494-8.461c11.238-2.505,22.554-4.681,33.948-6.308
		c2.847-0.414,5.702-0.774,8.559-1.107l4.289-0.47l4.296-0.383c1.431-0.142,2.867-0.211,4.301-0.311
		c1.435-0.101,2.869-0.191,4.305-0.234c2.706-0.139,5.412-0.163,8.119-0.188v12.386v1.612c-0.001,0.544,0.012,1.079-0.039,1.555
		c-0.09,0.981-0.503,1.872-1.296,2.305c-0.787,0.447-1.826,0.506-2.828,0.385c-1.006-0.121-2.034-0.401-2.975-0.777l-0.016-0.006h0
		c-0.257-0.103-0.548,0.022-0.65,0.279c-0.103,0.256,0.023,0.547,0.28,0.648c1.054,0.421,2.117,0.709,3.245,0.85
		c1.109,0.127,2.338,0.105,3.445-0.512c0.547-0.304,1.007-0.791,1.293-1.341c0.292-0.55,0.442-1.144,0.497-1.722
		c0.061-0.592,0.042-1.134,0.045-1.664v-1.612V62.486v-0.007v-0.005c-0.002-0.272-0.226-0.491-0.499-0.489
		c-2.89,0.026-5.78,0.047-8.665,0.195c-1.444,0.043-2.885,0.133-4.326,0.235c-1.44,0.1-2.883,0.17-4.32,0.313l-4.313,0.384
		l-4.304,0.472c-2.866,0.334-5.731,0.695-8.586,1.11c-11.427,1.63-22.766,3.812-34.025,6.322
		c-11.259,2.512-22.438,5.368-33.545,8.474c-11.104,3.125-22.141,6.463-33.075,10.171c-0.196,0.068-0.34,0.258-0.339,0.477
		c0.002,0.277,0.227,0.499,0.503,0.497h149.63c0.276,0,0.5-0.225,0.5-0.501V47.307v-0.01v-0.006
		C466.868,47.02,466.645,46.803,466.372,46.807z"/>
	<path d="M210.029,137.648c0,0,1.988,2.472,3.505,5.328c0.37,0.72,0.723,1.457,0.993,2.195c0.125,0.376,0.271,0.725,0.347,1.098
		c0.091,0.363,0.181,0.705,0.204,1.06c0.044,0.342,0.075,0.66,0.036,0.976c-0.029,0.309-0.02,0.568-0.115,0.807
		c-0.143,0.465-0.247,0.727-0.247,0.727c-0.222,0.557-0.853,0.829-1.41,0.607c-0.521-0.207-0.792-0.771-0.645-1.3l0.102-0.359
		c0,0,0.03-0.106,0.122-0.283c0.065-0.073,0.061-0.24,0.098-0.402c0.048-0.157,0.046-0.376,0.038-0.619
		c0.015-0.235-0.032-0.515-0.076-0.81c-0.025-0.293-0.126-0.613-0.2-0.943c-0.17-0.66-0.426-1.367-0.704-2.069
		c-0.577-1.402-1.296-2.771-1.868-3.776c-0.575-1.011-0.992-1.65-0.992-1.65c-0.151-0.232-0.086-0.542,0.146-0.693
		C209.58,137.398,209.87,137.451,210.029,137.648z"/>
	<path d="M219.944,117.207c0,0-0.403,0.271-1.109,0.745c-0.694,0.493-1.686,1.198-2.875,2.044c-1.172,0.869-2.527,1.901-3.953,3.035
		c-0.712,0.566-1.445,1.158-2.159,1.791c-0.723,0.623-1.444,1.271-2.139,1.936c-0.691,0.662-1.385,1.34-1.958,2.045
		c-0.322,0.35-0.52,0.693-0.771,1.059c-0.228,0.408-0.46,0.814-0.704,1.223c-0.488,0.802-0.986,1.581-1.566,2.293
		c-0.586,0.699-1.24,1.373-2.094,1.82c-0.852,0.457-1.878,0.557-2.678,0.418c-0.202-0.037-0.398-0.072-0.587-0.107
		c-0.172-0.06-0.337-0.117-0.497-0.172c-0.333-0.105-0.589-0.244-0.822-0.371c-0.49-0.242-0.792-0.48-1.025-0.628
		c-0.228-0.153-0.349-0.235-0.349-0.235c-0.747-0.506-0.943-1.52-0.438-2.268c0.505-0.746,1.52-0.943,2.267-0.438
		c0.118,0.079,0.223,0.172,0.313,0.273l0.064,0.074c0,0,0.065,0.075,0.187,0.215c0.121,0.14,0.302,0.375,0.55,0.564
		c0.122,0.111,0.259,0.237,0.407,0.318c0.075,0.051,0.153,0.104,0.234,0.158c0.08,0.035,0.163,0.07,0.248,0.107
		c0.348,0.123,0.727,0.189,1.22,0.041c0.489-0.151,1.071-0.52,1.614-1.05c0.553-0.522,1.099-1.176,1.623-1.894
		c0.26-0.355,0.526-0.732,0.795-1.123c0.303-0.392,0.628-0.852,0.982-1.186c0.689-0.742,1.44-1.383,2.197-2.021
		c1.511-1.271,3.101-2.416,4.561-3.526c1.47-1.097,2.869-2.079,4.064-2.925c2.392-1.692,3.986-2.82,3.986-2.82
		c0.165-0.117,0.393-0.078,0.509,0.087c0.117,0.165,0.078,0.392-0.087,0.509C219.953,117.201,219.946,117.205,219.944,117.207z"/>
	<g>
		<path d="M320.82,77.331l2.474,7.622l-0.51,0.165l-2.474-7.621L320.82,77.331z"/>
		<path d="M326.518,75.523l2.397,7.635l-0.512,0.16l-2.397-7.635L326.518,75.523z"/>
		<path d="M332.238,73.748l2.336,7.666l-0.513,0.157l-2.337-7.667L332.238,73.748z"/>
		<path d="M337.933,72.043l2.275,7.68l-0.515,0.153l-2.275-7.681L337.933,72.043z"/>
		<path d="M343.684,70.372l2.215,7.696l-0.516,0.148l-2.214-7.696L343.684,70.372z"/>
		<path d="M349.432,68.757l2.138,7.713l-0.517,0.143l-2.138-7.712L349.432,68.757z"/>
		<path d="M355.174,67.189l2.077,7.729l-0.518,0.14l-2.077-7.729L355.174,67.189z"/>
		<path d="M360.957,65.663l2.016,7.743l-0.519,0.135l-2.016-7.743L360.957,65.663z"/>
		<path d="M366.734,64.187l1.94,7.773l-0.521,0.13l-1.94-7.773L366.734,64.187z"/>
		<path d="M372.561,62.764l1.864,7.788l-0.522,0.125l-1.863-7.789L372.561,62.764z"/>
		<path d="M378.364,61.404l1.787,7.805l-0.523,0.119l-1.787-7.804L378.364,61.404z"/>
		<path d="M384.195,60.099l1.71,7.819l-0.524,0.116l-1.71-7.819L384.195,60.099z"/>
		<path d="M390.063,58.858l1.619,7.834l-0.525,0.108l-1.619-7.835L390.063,58.858z"/>
		<path d="M395.953,57.669l1.527,7.864l-0.527,0.104l-1.527-7.866L395.953,57.669z"/>
		<path d="M401.83,56.574l1.42,7.881l-0.528,0.094l-1.42-7.88L401.83,56.574z"/>
		<path d="M407.753,55.55l1.314,7.896l-0.529,0.088l-1.313-7.896L407.753,55.55z"/>
		<path d="M413.692,54.614l1.191,7.911l-0.53,0.08l-1.191-7.911L413.692,54.614z"/>
		<path d="M419.649,53.767l1.054,7.941l-0.532,0.07l-1.054-7.941L419.649,53.767z"/>
		<path d="M425.645,53.033l0.901,7.957l-0.533,0.061l-0.901-7.957L425.645,53.033z"/>
		<path d="M431.659,52.419l0.733,7.973l-0.534,0.049l-0.733-7.972L431.659,52.419z"/>
		<path d="M437.722,51.94l0.535,7.987l-0.535,0.036l-0.535-7.987L437.722,51.94z"/>
		<path d="M443.794,51.615l0.32,8.002l-0.536,0.021l-0.32-8.002L443.794,51.615z"/>
		<path d="M449.907,51.479l0.061,8.002l-0.537,0.004l-0.061-8.002L449.907,51.479z"/>
	</g>
	<rect x="463.37" y="47.515" width="3.253" height="3.044"/>
	<rect x="463.37" y="87.092" width="3.253" height="3.043"/>
	<path d="M326.169,87.297c0,0-2.234,1.691,0.091,2.474c2.377,0.8-7.455,0.364-7.455,0.364v-0.688l7.2-2.564"/>
	<path d="M446.403,63.07c-0.074,0.321-0.12,0.653-0.12,0.997c0,2.484,2.014,4.498,4.498,4.498c0.155,0,0.302-0.03,0.453-0.046
		v-5.526C449.624,63.007,448.013,63.031,446.403,63.07z"/>
	<path d="M24.919,38.5c2.168-0.1,3.902-1.875,3.902-4.068c0-0.083-0.02-0.161-0.024-0.242l-3.893,0.014L24.919,38.5z"/>
	<path d="M3.443,25.175c2.05-0.2,3.658-1.896,3.687-3.993l-3.701,0.012L3.443,25.175z"/>
	<path d="M95.84,44.932l1.752,4.734c0,0,3.294,5.564,3.42,5.648c0.125,0.083,1.363,0.8,1.363,0.8s-0.695-2.427,0.264-3.303
		c0.958-0.875,2.419-0.78,2.419-0.78h0.242l-4.956-3.516l-4.066-4.066L95.84,44.932z"/>
	<path d="M319.578,20.158l0.958,0.542c0,0,1.752,0.5,1.752,2.168c0,1.669-0.19,2.795-1.355,3.184c-1.165,0.391,0,0.653,0,0.653
		l15.701-4.963l3.044-0.917l-0.667-0.667H319.578z"/>
	<rect x="268.575" y="26.705" width="1" height="6.881"/>
	<rect x="274.424" y="24.578" width="1" height="9.008"/>
	<rect x="281.586" y="24.578" width="1" height="7.632"/>
	<rect x="286.966" y="23.432" width="1" height="8.778"/>
	<rect x="291.72" y="24.578" width="1" height="7.632"/>
	<rect x="296.474" y="23.432" width="1" height="6.714"/>
	<rect x="300.853" y="20.158" width="1" height="12.824"/>
	<rect x="305.232" y="20.158" width="1" height="11.344"/>
	<rect x="309.11" y="20.158" width="1" height="9.548"/>
	<rect x="313.364" y="20.7" width="1" height="8.382"/>
	<rect x="315.616" y="20.158" width="1" height="7.663"/>
	<rect x="317.117" y="20.7" width="1" height="6.498"/>
	<rect x="319.078" y="20.158" width="1" height="7.039"/>
	<path d="M234.878,33.085c0.063,0.021,1.397,0.342,3.065,0.609c1.668,0.267,1.793,1.122,1.793,1.978c0,0.854-1.159,2.858-2.198,3.53
		s0.342,0.452,0.342,0.452l9.154-5.483l0.5-0.856h-9.655L234.878,33.085z"/>
</g>
<g>
	<path d="M609.477,20.7c7.688,0,106.123,35.177,141.49,56.109c-1.854,4.316-2.988,7.163-3.027,7.263l-0.141,0.356l5.902,4.385
		l0.244-0.076c0.191-0.061,4.689-1.502,5.408-4.434c0.348-1.42-0.236-2.901-1.738-4.404c-1.576-1.119-3.381-2.291-5.381-3.503
		c4.795-11.105,13.859-30.733,21.443-39.352c0.182-0.207,0.162-0.524-0.045-0.706c-0.207-0.184-0.523-0.162-0.707,0.045
		c-7.639,8.679-16.723,28.313-21.557,39.494C718.639,56.405,636.42,26.519,614.439,20.7h52.77c0.277,0,0.5-0.224,0.5-0.5
		s-0.223-0.5-0.5-0.5h-57.732V20.7z M751.834,77.326c1.924,1.16,3.646,2.274,5.137,3.334c1.174,1.183,1.67,2.346,1.412,3.402
		c-0.502,2.052-3.613,3.314-4.5,3.637l-4.869-3.616C749.369,83.197,750.373,80.73,751.834,77.326z"/>
	<g>
		<path d="M928.771,32.214l0.992-0.004l0.004,1l0.059,16.247l0.031,8.123c-0.006,0.7,0.029,1.286-0.031,2.148
			c0,0.191-0.049,0.42-0.094,0.643c-0.047,0.225-0.08,0.436-0.209,0.7c-0.113,0.25-0.201,0.496-0.451,0.747
			c-0.111,0.122-0.221,0.247-0.35,0.348c-0.145,0.092-0.297,0.179-0.453,0.256c-0.318,0.169-0.615,0.18-0.936,0.244
			c-0.262,0.001-0.57,0.01-0.803-0.033c-0.488-0.08-0.926-0.191-1.32-0.333c-0.807-0.287-1.494-0.594-2.281-0.973l-0.246-0.119
			c-0.395-0.19-0.732-0.506-0.945-0.926c-0.521-1.021-0.117-2.272,0.904-2.794c1.021-0.521,2.273-0.117,2.795,0.905
			c0.25,0.49,0.686,0.955,1.086,1.282c0.381,0.344,0.885,0.495,0.826,0.501c-0.004,0.003-0.006,0.015,0.002,0.032
			c0.004,0.002,0.002-0.01,0.012-0.006c0.021,0.033,0.055-0.045,0.094-0.096c0.055-0.028,0.072-0.156,0.104-0.26
			c0.029-0.107,0.078-0.206,0.076-0.354c0.066-0.489,0.039-1.258,0.049-1.912l0.029-8.123l0.057-15.252l-112.045-0.392
			l-109.879-0.129c0.055,0.025,0.111,0.049,0.168,0.074c1.012,0.487,1.988,1.02,2.945,1.58c1.916,1.119,3.771,2.313,5.621,3.508
			c1.852,1.196,3.693,2.398,5.561,3.549c0.932,0.576,1.871,1.139,2.824,1.666c0.957,0.539,1.904,1.004,2.918,1.462
			c2.002,0.921,4.002,1.82,6.023,2.674c1.006,0.434,2.029,0.827,3.045,1.232c1.029,0.361,2.047,0.771,3.09,1.063
			c1.033,0.338,2.088,0.579,3.131,0.751c0.518,0.025,1.041,0.143,1.557,0.1c0.559-0.016,0.994-0.105,1.49-0.25
			c0.943-0.301,1.734-0.935,2.109-1.829c0.393-0.887,0.404-1.937,0.209-2.943l-0.002-0.006v-0.001
			c-0.053-0.272,0.125-0.534,0.396-0.585c0.271-0.053,0.533,0.125,0.586,0.396c0.221,1.144,0.227,2.395-0.277,3.542
			c-0.48,1.16-1.566,2.018-2.715,2.371c-1.174,0.39-2.34,0.324-3.488,0.185c-1.125-0.184-2.225-0.441-3.283-0.788
			c-1.078-0.303-2.105-0.717-3.152-1.087c-1.027-0.413-2.063-0.812-3.076-1.249c-2.033-0.862-4.049-1.773-6.047-2.694
			c-0.992-0.448-2.023-0.956-2.982-1.5c-0.973-0.54-1.922-1.109-2.861-1.691c-1.881-1.163-3.725-2.369-5.572-3.566
			c-1.846-1.195-3.695-2.386-5.58-3.491c-0.941-0.555-1.898-1.075-2.871-1.545c-0.963-0.42-1.998-0.906-2.934-0.932v-0.938
			l113.047-0.133L928.771,32.214z"/>
		<path d="M678.219,19.73l136.014-0.133l136.014-0.395l0.994-0.004l0.002,1.001l0.061,16.25l0.029,8.125
			c-0.01,0.7,0.029,1.286-0.025,2.144c-0.033,0.408-0.094,0.847-0.295,1.341c-0.178,0.478-0.607,1.084-1.27,1.361
			c-0.646,0.28-1.258,0.275-1.74,0.203c-0.494-0.079-0.92-0.194-1.322-0.333c-0.809-0.291-1.48-0.59-2.283-0.983l-0.262-0.128
			c-0.4-0.195-0.74-0.519-0.953-0.949c-0.508-1.032-0.084-2.281,0.947-2.791s2.281-0.085,2.791,0.947
			c0.234,0.475,0.682,0.955,1.08,1.278c0.389,0.353,0.877,0.481,0.83,0.505c-0.016,0.038,0.014,0.075,0.107-0.058
			c0.078-0.123,0.15-0.359,0.18-0.624c0.061-0.492,0.031-1.263,0.043-1.916l0.029-8.125l0.055-15.254l-135.012-0.393l-136.014-0.133
			c-0.26,0-0.469-0.209-0.469-0.469C677.75,19.94,677.959,19.73,678.219,19.73z"/>
	</g>
	<path d="M792.568,20.699c-0.119,0-0.238-0.042-0.334-0.128c-0.205-0.185-0.223-0.501-0.037-0.706
		c7.869-8.744,21.035-13.177,39.131-13.177c20.4,0,23.996,13.254,24.029,13.388c0.068,0.268-0.094,0.539-0.359,0.607
		c-0.271,0.068-0.541-0.093-0.609-0.36c-0.133-0.516-3.473-12.635-23.061-12.635c-17.801,0-30.717,4.322-38.387,12.846
		C792.842,20.644,792.705,20.699,792.568,20.699z"/>
	<path d="M858.479,1.158c0,0,0.021,0.148,0.061,0.426c0.035,0.269,0.061,0.653,0.066,1.149c-0.01,0.498-0.043,1.106-0.205,1.823
		c-0.176,0.708-0.494,1.565-1.191,2.325c-0.689,0.77-1.754,1.263-2.789,1.405c-1.092,0.093-1.881,0.02-2.809,0.004
		c-1.822-0.052-3.766-0.106-5.709-0.162c-7.775-0.22-15.551-0.44-15.551-0.44c-0.275-0.008-0.494-0.238-0.486-0.514
		c0.008-0.266,0.225-0.478,0.486-0.486c0,0,7.775-0.22,15.551-0.44c1.943-0.055,3.887-0.11,5.709-0.162
		c0.895-0.026,1.869-0.037,2.441-0.125c0.613-0.14,1.027-0.394,1.295-0.73c0.557-0.674,0.607-1.755,0.572-2.443
		c-0.025-0.354-0.059-0.637-0.094-0.818c-0.035-0.172-0.055-0.263-0.055-0.263l-0.016-0.079c-0.15-0.748,0.334-1.477,1.082-1.628
		s1.477,0.333,1.627,1.081C858.471,1.105,858.475,1.134,858.479,1.158z"/>
	<circle cx="936.069" cy="26.329" r="3.378"/>
	<circle cx="920.976" cy="26.329" r="3.378"/>
	<circle cx="904.917" cy="26.329" r="3.378"/>
	<circle cx="887.401" cy="26.329" r="3.378"/>
	<circle cx="870.638" cy="26.329" r="3.378"/>
	<circle cx="854.874" cy="26.329" r="3.378"/>
	<circle cx="839.485" cy="26.329" r="3.378"/>
	<circle cx="823.722" cy="26.329" r="3.378"/>
	<circle cx="805.831" cy="26.329" r="3.378"/>
	<circle cx="788.565" cy="26.329" r="3.378"/>
	<circle cx="769.298" cy="26.329" r="3.378"/>
	<circle cx="750.331" cy="26.329" r="3.378"/>
	<circle cx="733.392" cy="26.329" r="3.378"/>
	<circle cx="715.626" cy="26.329" r="3.378"/>
	<path d="M920.977,36.711H717.504c-0.277,0-0.5-0.224-0.5-0.5s0.223-0.5,0.5-0.5h203.473c0.275,0,0.5,0.224,0.5,0.5
		S921.252,36.711,920.977,36.711z"/>
	<path d="M830.852,36.211c0,0-0.053,6.381-0.133,15.952c-0.094,9.571-0.049,22.333-0.076,35.094
		c0.061,12.761,0.119,25.522,0.164,35.094c0.012,2.393,0.023,4.586,0.033,6.53c0.014,1.943-0.035,3.639,0.264,5.035
		c0.508,2.791,1.748,4.387,1.748,4.387c1.074,1.381,0.824,3.369-0.557,4.443c-1.381,1.072-3.369,0.824-4.443-0.557
		c-0.906-1.168-0.867-2.771,0-3.887c0,0,1.24-1.596,1.748-4.387c0.299-1.396,0.25-3.092,0.266-5.035
		c0.01-1.944,0.021-4.138,0.033-6.53c0.045-9.571,0.104-22.333,0.162-35.094c-0.025-12.761,0.02-25.523-0.076-35.094
		c-0.078-9.571-0.133-15.952-0.133-15.952c-0.002-0.276,0.221-0.502,0.496-0.504c0.275-0.002,0.502,0.22,0.504,0.496
		C830.852,36.205,830.852,36.209,830.852,36.211z"/>
	<path d="M838.203,96.766c-0.908-0.598,1.791,2.896,3.045,2.082c1.252-0.814,2.268-2.211,1.678-3.121
		c-0.592-0.911-1.969-1.552-3.223-0.738C838.451,95.801,839.766,97.799,838.203,96.766z"/>
	<path d="M853.465,36.686c0,0-0.072,0.944-0.201,2.323c-0.063,0.691-0.166,1.493-0.318,2.352c-0.178,0.852-0.375,1.778-0.84,2.646
		c-0.223,0.437-0.52,0.863-0.926,1.203c-0.211,0.172-0.42,0.304-0.693,0.427c-0.209,0.088-0.387,0.18-0.611,0.263
		c-0.463,0.178-0.916,0.313-1.449,0.343c-0.525,0.037-1.191-0.168-1.611-0.556c-0.428-0.375-0.674-0.754-0.857-1.058
		c-0.178-0.287-0.334-0.537-0.461-0.743c-0.234-0.375-0.393-0.532-0.393-0.532c-0.766-0.761-0.768-1.999-0.006-2.764
		c0.76-0.765,1.998-0.768,2.764-0.007c0.451,0.45,0.637,1.065,0.559,1.651l-0.043,0.289c0,0-0.035,0.249-0.098,0.686
		c-0.057,0.383-0.104,0.921-0.047,1.211c0.027,0.132,0.07,0.285,0.33,0.372c0.246,0.085,0.619,0.092,0.979,0.039
		c0.188-0.025,0.414-0.095,0.625-0.142c0.135-0.041,0.32-0.116,0.473-0.212c0.314-0.195,0.6-0.493,0.838-0.839
		c0.453-0.711,0.754-1.567,0.908-2.386c0.174-0.819,0.227-1.607,0.244-2.28c0.008-0.674-0.029-1.236-0.072-1.625
		c-0.057-0.384-0.09-0.604-0.09-0.604l-0.004-0.02c-0.041-0.275,0.148-0.532,0.424-0.573c0.275-0.042,0.533,0.148,0.574,0.424
		C853.467,36.61,853.467,36.65,853.465,36.686z"/>
	<path d="M832.813,85.102c0.412-1.993,1.08-4.039,2.018-6.023c0.451-0.986,1.018-2.017,1.561-2.934
		c0.596-0.972,1.201-1.886,1.813-2.844c1.262-1.855,2.551-3.73,3.867-5.575c2.619-3.704,5.281-7.37,7.701-10.847
		c1.203-1.748,2.367-3.398,3.41-5.049c1.088-1.649,1.977-3.141,2.566-4.694c0.238-0.602,0.426-1.19,0.59-1.769
		c-0.543,0.489-1.229,1.094-2.045,1.773c-0.516,0.434-1.072,0.907-1.68,1.386c-0.607,0.477-1.242,0.992-1.93,1.482
		c-0.682,0.5-1.404,0.991-2.152,1.477c-0.383,0.229-0.77,0.459-1.158,0.692l-1.215,0.626c-0.426,0.176-0.846,0.366-1.279,0.529
		c-0.451,0.118-0.887,0.288-1.352,0.358l-0.703,0.088c-0.125,0.011-0.213,0.034-0.371,0.034l-0.324,0.001l-0.643,0.003
		c-0.232-0.022-0.463-0.044-0.689-0.065c-0.902-0.122-1.779-0.306-2.563-0.743c-0.779-0.418-1.471-1.007-1.928-1.708
		c-0.48-0.69-0.709-1.452-0.824-2.127c-0.137-0.684-0.084-1.289-0.045-1.792c0.068-0.497,0.15-0.895,0.234-1.158
		c0.08-0.267,0.123-0.408,0.123-0.408l0.002-0.001c0-0.002,0.002-0.003,0.004-0.001l2.785,1.483c0.018,0.01-0.242,0.209-0.506,0.729
		c-0.123,0.258-0.256,0.6-0.297,1.006c-0.035,0.401-0.035,0.885,0.164,1.362c0.195,0.47,0.531,0.967,1.063,1.352
		c0.512,0.401,1.219,0.692,1.963,0.853l0.564,0.116l0.641,0.062l0.322,0.03c0.063,0.009,0.189-0.01,0.281-0.013l0.605-0.038
		c0.406-0.034,0.816-0.168,1.23-0.246c0.41-0.127,0.816-0.282,1.227-0.421l1.191-0.549c0.383-0.213,0.764-0.424,1.145-0.633
		c0.744-0.446,1.469-0.908,2.137-1.404c0.676-0.483,1.316-0.974,1.9-1.464c0.59-0.487,1.133-0.962,1.629-1.41
		c0.971-0.913,1.752-1.703,2.293-2.262c0.258-0.289,0.461-0.516,0.6-0.67c0.322-1.697,0.381-3.206,0.354-4.377
		c-0.023-0.966-0.104-1.722-0.18-2.229c-0.076-0.512-0.135-0.764-0.135-0.764c-0.061-0.262,0.096-0.526,0.355-0.596
		c0.268-0.072,0.541,0.085,0.613,0.352l0.004,0.016c0,0,0.314,1.159,0.404,3.185c0.09,2.016-0.033,4.985-1.252,8.289
		c-0.578,1.646-1.555,3.349-2.578,4.967c-1.002,1.662-2.168,3.394-3.336,5.168c-2.361,3.544-4.947,7.264-7.484,11.012
		c-1.275,1.869-2.516,3.753-3.725,5.61c-0.568,0.935-1.135,1.863-1.693,2.78c-0.549,0.975-1.004,1.851-1.418,2.804
		c-0.84,1.872-1.414,3.771-1.752,5.596c-0.336,1.828-0.408,3.584-0.289,5.18c0.078,0.77,0.16,1.637,0.338,2.136
		c0.195,0.599,0.506,1.171,0.84,1.667c0.678,1,1.482,1.699,2.152,2.056c0.68,0.364,1.18,0.386,1.486,0.349
		c0.309-0.045,0.467-0.121,0.467-0.121c0.045-0.021,0.1-0.045,0.15-0.061c0.654-0.217,1.361,0.137,1.578,0.792
		c0.215,0.653-0.139,1.36-0.793,1.577l-0.035,0.01c0,0-0.094,0.031-0.275,0.092c-0.182,0.059-0.465,0.131-0.836,0.169
		c-0.74,0.087-1.865-0.07-2.92-0.688c-1.064-0.605-2.084-1.574-2.934-2.877c-0.42-0.658-0.809-1.395-1.08-2.273
		c-0.145-0.454-0.223-0.963-0.264-1.359c-0.063-0.428-0.086-0.867-0.123-1.315C832.279,89.045,832.404,87.098,832.813,85.102z"/>
	<circle cx="837.221" cy="46.505" r="1.574"/>
	<path d="M486.301,46.807h0.002l9.629,0.176c3.207,0.061,6.41,0.288,9.617,0.424c3.207,0.113,6.402,0.438,9.604,0.67
		c1.598,0.137,3.201,0.229,4.795,0.402l4.785,0.512l4.787,0.512l4.77,0.639l4.77,0.638c1.59,0.222,3.17,0.496,4.754,0.742
		c3.168,0.5,6.34,0.992,9.49,1.598c3.154,0.576,6.313,1.135,9.449,1.805c3.145,0.637,6.291,1.259,9.416,1.98
		c3.133,0.689,6.262,1.386,9.377,2.155l4.676,1.123l4.662,1.189c3.109,0.781,6.207,1.609,9.303,2.448
		c6.193,1.664,12.357,3.427,18.52,5.198c6.152,1.808,12.32,3.534,18.457,5.415l9.201,2.791l9.139,3.018
		c3.057,0.973,6.072,2.07,9.09,3.154c3.018,1.086,6.049,2.135,9.027,3.328c2.982,1.18,6,2.273,8.953,3.525
		c2.953,1.253,5.934,2.445,8.865,3.746c5.865,2.602,11.691,5.295,17.4,8.232c5.738,2.877,11.33,6.045,16.811,9.394
		c1.369,0.839,2.73,1.691,4.066,2.587c1.352,0.869,2.666,1.795,3.986,2.715c1.299,0.973,2.617,1.828,3.844,2.997
		c1.152,1.151,2.209,2.388,3.168,3.704c1.885,2.624,3.48,5.629,3.789,8.977c0.152,1.66-0.082,3.381-0.744,4.928
		c-0.652,1.551-1.68,2.916-2.887,4.043c-2.416,2.279-5.441,3.7-8.4,4.923c-0.756,0.311-1.527,0.595-2.355,0.786
		c-0.418,0.089-0.842,0.17-1.32,0.168c-0.238-0.011-0.498-0.021-0.777-0.119c-0.273-0.09-0.576-0.299-0.77-0.589
		c-0.363-0.606-0.322-1.177-0.301-1.659c0.035-0.493,0.119-0.948,0.199-1.408c0.176-0.928,0.326-1.782,0.488-2.865l0.063-0.432
		c0.15-1.002,0.867-1.875,1.904-2.176c1.422-0.413,2.908,0.404,3.322,1.825c0.414,1.423-0.404,2.91-1.826,3.323
		c-0.766,0.223-1.457,0.739-1.971,1.259c-0.26,0.267-0.479,0.558-0.631,0.844c-0.156,0.284-0.217,0.573-0.191,0.687
		c-0.018,0.112,0.197,0.255,0.531,0.278c0.324,0.027,0.695-0.025,1.061-0.109c0.734-0.167,1.475-0.433,2.201-0.728
		c2.943-1.202,5.836-2.566,8.117-4.704c1.137-1.053,2.08-2.308,2.676-3.712c0.605-1.402,0.822-2.953,0.688-4.484
		c-0.266-3.084-1.768-5.983-3.59-8.53c-0.924-1.278-1.951-2.489-3.064-3.604c-1.088-1.053-2.463-1.973-3.725-2.92
		c-1.307-0.916-2.611-1.84-3.953-2.709c-1.324-0.895-2.676-1.747-4.037-2.588c-5.445-3.352-11.008-6.527-16.723-9.416
		c-5.684-2.947-11.49-5.653-17.334-8.27c-2.922-1.307-5.893-2.508-8.838-3.767c-2.943-1.261-5.953-2.361-8.928-3.55
		c-2.969-1.201-5.992-2.26-9.004-3.353c-3.01-1.093-6.018-2.199-9.066-3.179l-9.121-3.012l-9.203-2.787
		c-6.123-1.874-12.305-3.6-18.453-5.404c-6.16-1.766-12.324-3.525-18.512-5.184c-3.094-0.836-6.189-1.665-9.297-2.442l-4.656-1.186
		l-4.674-1.12c-3.109-0.767-6.236-1.461-9.365-2.148c-3.123-0.717-6.264-1.341-9.406-1.971c-3.135-0.654-6.291-1.197-9.445-1.757
		c-3.148-0.589-6.316-1.065-9.48-1.55c-1.584-0.236-3.164-0.502-4.75-0.716l-4.764-0.614l-4.764-0.615l-4.779-0.487l-4.777-0.489
		c-1.59-0.164-3.191-0.248-4.785-0.377c-3.195-0.217-6.383-0.525-9.584-0.623c-3.199-0.12-6.395-0.331-9.596-0.376l-9.104-0.122
		v41.82h146.021c-9.941-3.307-19.982-6.34-30.072-9.18c-11.092-3.103-22.254-5.955-33.492-8.461
		c-11.238-2.505-22.555-4.681-33.949-6.308c-2.846-0.414-5.701-0.774-8.559-1.107l-4.289-0.47l-4.297-0.383
		c-1.43-0.142-2.867-0.211-4.299-0.311c-1.436-0.101-2.871-0.191-4.307-0.234c-2.705-0.139-5.412-0.163-8.119-0.188v12.386v1.612
		c0,0.544-0.012,1.079,0.039,1.555c0.09,0.981,0.502,1.872,1.297,2.305c0.787,0.447,1.826,0.506,2.828,0.385
		c1.006-0.121,2.033-0.401,2.975-0.777l0.016-0.006l0,0c0.258-0.103,0.547,0.022,0.65,0.279c0.104,0.256-0.023,0.547-0.279,0.648
		c-1.055,0.421-2.119,0.709-3.246,0.85c-1.109,0.127-2.338,0.105-3.445-0.512c-0.547-0.304-1.006-0.791-1.293-1.341
		c-0.291-0.55-0.441-1.144-0.496-1.722c-0.061-0.592-0.043-1.134-0.045-1.664v-1.612V62.486v-0.007v-0.005
		c0.002-0.272,0.225-0.491,0.498-0.489c2.889,0.026,5.779,0.047,8.664,0.195c1.443,0.043,2.885,0.133,4.326,0.235
		c1.439,0.1,2.883,0.17,4.318,0.313l4.314,0.384l4.305,0.472c2.867,0.334,5.73,0.695,8.586,1.11
		c11.426,1.63,22.766,3.812,34.023,6.322c11.26,2.512,22.439,5.368,33.545,8.474c11.105,3.125,22.143,6.463,33.076,10.171
		c0.197,0.068,0.34,0.258,0.34,0.477c-0.002,0.277-0.229,0.499-0.504,0.497H486.301c-0.275,0-0.5-0.225-0.5-0.501V47.307v-0.01
		v-0.006C485.805,47.02,486.029,46.803,486.301,46.807z"/>
	<path d="M743.457,138.232c0,0-0.418,0.64-0.992,1.65c-0.572,1.006-1.291,2.374-1.869,3.776c-0.277,0.702-0.533,1.409-0.703,2.069
		c-0.074,0.33-0.176,0.65-0.199,0.943c-0.045,0.295-0.092,0.574-0.076,0.81c-0.01,0.243-0.012,0.462,0.037,0.619
		c0.037,0.162,0.033,0.329,0.098,0.402c0.092,0.177,0.121,0.283,0.121,0.283l0.102,0.354c0.162,0.577-0.172,1.178-0.75,1.341
		c-0.539,0.153-1.1-0.135-1.305-0.644c0,0-0.104-0.262-0.246-0.727c-0.096-0.239-0.086-0.498-0.115-0.807
		c-0.039-0.315-0.008-0.635,0.035-0.977c0.023-0.354,0.115-0.695,0.205-1.059c0.076-0.373,0.223-0.722,0.348-1.098
		c0.27-0.738,0.623-1.476,0.994-2.195c1.518-2.856,3.504-5.328,3.504-5.328c0.172-0.217,0.486-0.254,0.703-0.083
		C743.551,137.727,743.594,138.018,743.457,138.232z"/>
	<path d="M733.139,116.604c0,0,1.596,1.127,3.988,2.82c1.195,0.846,2.594,1.828,4.064,2.925c1.459,1.109,3.049,2.255,4.561,3.526
		c0.756,0.639,1.508,1.279,2.197,2.021c0.354,0.334,0.678,0.794,0.982,1.186c0.268,0.391,0.535,0.768,0.795,1.123
		c0.523,0.718,1.07,1.371,1.623,1.894c0.543,0.53,1.125,0.898,1.613,1.05c0.494,0.148,0.873,0.082,1.221-0.041
		c0.086-0.037,0.168-0.072,0.248-0.107c0.08-0.055,0.158-0.107,0.234-0.158c0.148-0.081,0.285-0.207,0.406-0.318
		c0.248-0.189,0.43-0.425,0.551-0.564c0.123-0.14,0.188-0.215,0.188-0.215l0.059-0.067c0.592-0.681,1.623-0.751,2.303-0.159
		c0.682,0.592,0.752,1.623,0.16,2.303c-0.094,0.107-0.205,0.204-0.316,0.281c0,0-0.123,0.082-0.35,0.235
		c-0.234,0.147-0.535,0.386-1.025,0.628c-0.232,0.127-0.488,0.266-0.822,0.371c-0.158,0.055-0.324,0.112-0.496,0.172
		c-0.189,0.035-0.385,0.07-0.586,0.107c-0.801,0.139-1.826,0.039-2.678-0.418c-0.855-0.447-1.508-1.121-2.096-1.82
		c-0.58-0.712-1.076-1.491-1.564-2.293c-0.244-0.408-0.477-0.814-0.705-1.223c-0.252-0.365-0.449-0.709-0.77-1.059
		c-0.574-0.705-1.268-1.383-1.959-2.046c-0.695-0.665-1.416-1.312-2.139-1.935c-0.715-0.633-1.447-1.225-2.16-1.791
		c-1.426-1.134-2.781-2.166-3.953-3.035c-1.189-0.846-2.182-1.551-2.875-2.044c-0.705-0.475-1.109-0.745-1.109-0.745
		c-0.168-0.111-0.215-0.338-0.105-0.506c0.111-0.169,0.338-0.216,0.506-0.105C733.131,116.598,733.137,116.602,733.139,116.604z"/>
	<g>
		<path d="M632.365,77.497l-2.477,7.621l-0.51-0.165l2.475-7.622L632.365,77.497z"/>
		<path d="M626.668,75.683l-2.398,7.635l-0.512-0.16l2.398-7.635L626.668,75.683z"/>
		<path d="M620.949,73.904l-2.338,7.667l-0.512-0.157l2.336-7.666L620.949,73.904z"/>
		<path d="M615.256,72.196l-2.275,7.681l-0.514-0.153l2.275-7.68L615.256,72.196z"/>
		<path d="M609.504,70.521l-2.213,7.696l-0.516-0.148l2.215-7.696L609.504,70.521z"/>
		<path d="M603.758,68.901l-2.137,7.712l-0.518-0.143l2.137-7.713L603.758,68.901z"/>
		<path d="M598.018,67.329l-2.078,7.729l-0.518-0.14l2.076-7.729L598.018,67.329z"/>
		<path d="M592.236,65.798l-2.018,7.743l-0.52-0.135l2.018-7.743L592.236,65.798z"/>
		<path d="M586.461,64.317l-1.939,7.773L584,71.96l1.939-7.773L586.461,64.317z"/>
		<path d="M580.635,62.888l-1.863,7.789l-0.523-0.125l1.865-7.788L580.635,62.888z"/>
		<path d="M574.832,61.524l-1.787,7.804l-0.521-0.119l1.787-7.805L574.832,61.524z"/>
		<path d="M569.002,60.215l-1.711,7.819l-0.523-0.116l1.711-7.819L569.002,60.215z"/>
		<path d="M563.137,58.965l-1.619,7.835l-0.525-0.108l1.619-7.834L563.137,58.965z"/>
		<path d="M557.248,57.771l-1.527,7.866l-0.527-0.104l1.527-7.864L557.248,57.771z"/>
		<path d="M551.371,56.668l-1.42,7.88l-0.529-0.094l1.422-7.881L551.371,56.668z"/>
		<path d="M545.449,55.638l-1.314,7.896l-0.529-0.088l1.314-7.896L545.449,55.638z"/>
		<path d="M539.512,54.694l-1.191,7.911l-0.529-0.08l1.191-7.911L539.512,54.694z"/>
		<path d="M533.557,53.837l-1.055,7.941l-0.531-0.07l1.053-7.941L533.557,53.837z"/>
		<path d="M527.563,53.093l-0.902,7.957l-0.533-0.061l0.9-7.957L527.563,53.093z"/>
		<path d="M521.549,52.469l-0.732,7.972l-0.535-0.049l0.734-7.973L521.549,52.469z"/>
		<path d="M515.486,51.976l-0.533,7.987l-0.535-0.036l0.533-7.987L515.486,51.976z"/>
		<path d="M509.416,51.637l-0.322,8.002l-0.535-0.021l0.32-8.002L509.416,51.637z"/>
		<path d="M503.303,51.483l-0.061,8.002l-0.537-0.004l0.063-8.002L503.303,51.483z"/>
	</g>
	<rect x="486.051" y="47.515" width="3.254" height="3.044"/>
	<rect x="486.051" y="87.092" width="3.254" height="3.043"/>
	<path d="M626.504,87.297c0,0,2.234,1.691-0.092,2.474c-2.377,0.8,7.455,0.364,7.455,0.364v-0.688l-7.199-2.564"/>
	<path d="M506.27,63.07c0.074,0.321,0.121,0.653,0.121,0.997c0,2.484-2.016,4.498-4.498,4.498c-0.156,0-0.303-0.03-0.453-0.046
		v-5.526C503.051,63.007,504.66,63.031,506.27,63.07z"/>
	<path d="M927.756,38.5c-2.17-0.1-3.902-1.875-3.902-4.068c0-0.083,0.02-0.161,0.023-0.242l3.895,0.014L927.756,38.5z"/>
	<path d="M949.23,25.175c-2.051-0.2-3.658-1.896-3.686-3.993l3.699,0.012L949.23,25.175z"/>
	<path d="M856.834,44.932l-1.752,4.734c0,0-3.295,5.564-3.42,5.648c-0.125,0.083-1.363,0.8-1.363,0.8s0.695-2.427-0.264-3.303
		c-0.959-0.875-2.42-0.78-2.42-0.78h-0.242l4.957-3.516l4.066-4.066L856.834,44.932z"/>
	<path d="M633.096,20.158l-0.959,0.542c0,0-1.75,0.5-1.75,2.168c0,1.669,0.189,2.795,1.354,3.184c1.166,0.391,0,0.653,0,0.653
		l-15.701-4.963l-3.043-0.917l0.666-0.667H633.096z"/>
	<rect x="683.098" y="26.705" width="1" height="6.881"/>
	<rect x="677.25" y="24.578" width="1" height="9.008"/>
	<rect x="670.088" y="24.578" width="1" height="7.632"/>
	<rect x="664.707" y="23.432" width="1" height="8.778"/>
	<rect x="659.953" y="24.578" width="1" height="7.632"/>
	<rect x="655.199" y="23.432" width="1" height="6.714"/>
	<rect x="650.82" y="20.158" width="1" height="12.824"/>
	<rect x="646.441" y="20.158" width="1" height="11.344"/>
	<rect x="642.563" y="20.158" width="1" height="9.548"/>
	<rect x="638.309" y="20.7" width="1" height="8.382"/>
	<rect x="636.057" y="20.158" width="1" height="7.663"/>
	<rect x="634.557" y="20.7" width="1" height="6.498"/>
	<rect x="632.596" y="20.158" width="1" height="7.039"/>
	<path d="M717.795,33.085c-0.063,0.021-1.396,0.342-3.066,0.609c-1.666,0.267-1.791,1.122-1.791,1.978
		c0,0.854,1.158,2.858,2.197,3.53s-0.344,0.452-0.344,0.452l-9.152-5.483l-0.5-0.856h9.652L717.795,33.085z"/>
</g>
<g>
	<path d="M244.119,86.879c0.169,0.088,0.356,0.133,0.559,0.137c0.203,0.004,0.422-0.027,0.658-0.092
		c0.236-0.064,0.471-0.133,0.704-0.203l0.444,0.896l-1.758,0.871l-1.704,0.845l-1.758,0.871l-0.444-0.897
		c0.197-0.143,0.394-0.287,0.588-0.436s0.352-0.305,0.472-0.469s0.197-0.34,0.23-0.527c0.034-0.188-0.009-0.401-0.127-0.641
		l-4.134-8.34l-2.511,1.244l-0.453-0.914l0.018-0.009c0.293-0.19,0.607-0.391,0.942-0.601c0.335-0.211,0.628-0.432,0.879-0.66
		s0.44-0.464,0.566-0.705c0.126-0.241,0.13-0.481,0.012-0.721l1.202-0.596l0.596,1.201l0.453,0.916l4.134,8.34
		C243.805,86.629,243.949,86.793,244.119,86.879z"/>
	<path d="M260.261,79.285c0.167,0.094,0.352,0.146,0.554,0.156s0.423-0.012,0.661-0.069c0.238-0.056,0.475-0.116,0.71-0.179
		l0.413,0.911l-1.786,0.81l-1.732,0.786l-1.787,0.81l-0.414-0.911c0.202-0.136,0.403-0.274,0.603-0.416
		c0.2-0.142,0.362-0.292,0.487-0.452c0.126-0.158,0.208-0.332,0.249-0.519c0.04-0.187,0.005-0.401-0.105-0.645l-3.844-8.478
		l-2.552,1.157l-0.422-0.93l0.019-0.008c0.299-0.18,0.62-0.369,0.962-0.568c0.342-0.199,0.643-0.409,0.902-0.629
		c0.259-0.22,0.456-0.449,0.59-0.686c0.135-0.237,0.147-0.477,0.037-0.72l1.221-0.554l0.554,1.221l0.421,0.93l3.844,8.477
		C259.956,79.025,260.094,79.193,260.261,79.285z"/>
	<path d="M276.607,60.042l-0.242,0.988l-0.018,0.008c-0.369,1.697-0.562,3.188-0.58,4.473c-0.019,1.285,0.047,2.406,0.196,3.362
		c0.149,0.957,0.329,1.767,0.538,2.431c0.209,0.665,0.357,1.224,0.444,1.679c0.136,0.854-0.099,1.405-0.703,1.654
		c-0.296,0.122-0.605,0.126-0.926,0.014s-0.555-0.348-0.703-0.706c-0.173-0.419-0.3-0.955-0.382-1.607
		c-0.082-0.652-0.127-1.366-0.136-2.142c-0.01-0.775,0.011-1.582,0.063-2.419c0.051-0.836,0.129-1.645,0.234-2.424
		c0.104-0.779,0.227-1.504,0.368-2.177c0.142-0.672,0.294-1.229,0.458-1.672l-3.664,1.512c-0.222,0.091-0.434,0.183-0.634,0.272
		c-0.201,0.09-0.375,0.23-0.52,0.42c-0.146,0.19-0.261,0.462-0.346,0.814c-0.085,0.353-0.124,0.838-0.115,1.455l-0.943,0.39
		l-0.402-4.122l7.624-3.146L276.607,60.042z"/>
	<path d="M311.963,52.913c0.865,0.058,1.561,0.279,2.087,0.664s0.941,1.025,1.247,1.922c0.121,0.354,0.197,0.765,0.23,1.233
		s-0.051,0.948-0.25,1.438c-0.199,0.491-0.561,0.971-1.085,1.438c-0.524,0.468-1.279,0.87-2.265,1.205l-6.101,2.079l-0.323-0.947
		c0.214-0.115,0.428-0.234,0.64-0.355s0.389-0.256,0.529-0.402c0.141-0.146,0.24-0.311,0.298-0.493
		c0.058-0.182,0.043-0.399-0.042-0.652l-3.002-8.811c-0.086-0.252-0.209-0.437-0.368-0.551c-0.159-0.115-0.338-0.185-0.536-0.208
		c-0.199-0.024-0.419-0.02-0.662,0.014c-0.242,0.034-0.484,0.07-0.724,0.109l-0.329-0.966l5.817-1.982
		c0.568-0.193,1.138-0.31,1.71-0.35c0.571-0.039,1.106,0.011,1.605,0.151c0.499,0.14,0.94,0.381,1.325,0.722
		c0.384,0.342,0.673,0.796,0.867,1.365c0.056,0.165,0.11,0.364,0.162,0.601c0.052,0.236,0.065,0.503,0.04,0.8
		c-0.025,0.298-0.102,0.613-0.228,0.945S312.264,52.556,311.963,52.913z M306.894,54.048l2.179-0.742
		c0.745-0.254,1.243-0.656,1.492-1.207s0.258-1.167,0.026-1.849c-0.116-0.341-0.279-0.642-0.487-0.902s-0.452-0.466-0.729-0.619
		c-0.277-0.152-0.58-0.243-0.907-0.272s-0.668,0.016-1.021,0.137c-0.708,0.241-1.22,0.497-1.536,0.767
		c-0.317,0.27-0.398,0.632-0.243,1.087L306.894,54.048z M311.598,59.847c0.391-0.133,0.72-0.326,0.987-0.58
		c0.266-0.252,0.471-0.541,0.614-0.865c0.144-0.324,0.217-0.677,0.221-1.059c0.003-0.382-0.059-0.763-0.188-1.142
		c-0.129-0.379-0.317-0.724-0.564-1.034c-0.247-0.311-0.533-0.559-0.856-0.745c-0.324-0.186-0.691-0.3-1.101-0.344
		c-0.41-0.043-0.842,0.012-1.297,0.167l-2.198,0.749l1.504,4.415c0.177,0.518,0.501,0.788,0.974,0.81
		C310.167,60.243,310.802,60.118,311.598,59.847z"/>
	<path d="M336.967,50.457c0.276,0.183,0.565,0.334,0.865,0.454c0.267,0.103,0.567,0.177,0.901,0.225
		c0.334,0.047,0.687,0.016,1.058-0.094l0.29,0.979l-5.606,1.656l-0.289-0.979c0.231-0.11,0.445-0.211,0.641-0.304
		s0.33-0.191,0.403-0.297c0.073-0.105,0.064-0.23-0.028-0.377c-0.092-0.147-0.297-0.333-0.614-0.56l-3.788-2.576l-1.459,0.431
		l1.016,3.436c0.076,0.256,0.167,0.449,0.274,0.577c0.107,0.128,0.234,0.216,0.38,0.263c0.146,0.047,0.322,0.065,0.527,0.053
		c0.205-0.012,0.45-0.032,0.733-0.061l0.284,0.96l-5.241,1.548l-0.284-0.96l-0.039,0.012c0.257-0.118,0.495-0.233,0.712-0.346
		c0.217-0.113,0.399-0.239,0.545-0.38c0.146-0.14,0.245-0.312,0.296-0.515c0.051-0.203,0.033-0.452-0.054-0.746l-2.632-8.908
		c-0.068-0.23-0.17-0.401-0.308-0.514c-0.138-0.112-0.304-0.182-0.5-0.207c-0.196-0.026-0.411-0.025-0.646,0.003
		s-0.493,0.062-0.773,0.103l-0.29-0.979l6.258-1.849c1.587-0.469,2.854-0.467,3.8,0.004c0.946,0.472,1.592,1.291,1.936,2.455
		c0.2,0.679,0.245,1.288,0.133,1.829c-0.112,0.541-0.302,1.004-0.571,1.39c-0.269,0.385-0.586,0.699-0.954,0.939
		c-0.367,0.241-0.705,0.407-1.012,0.498L336.967,50.457z M329.051,48.037l2.208-0.652c0.41-0.121,0.768-0.31,1.074-0.568
		c0.307-0.257,0.548-0.559,0.725-0.903s0.282-0.716,0.317-1.117c0.035-0.399-0.008-0.804-0.129-1.214
		c-0.121-0.41-0.303-0.767-0.546-1.07c-0.243-0.304-0.526-0.547-0.852-0.729c-0.325-0.182-0.676-0.297-1.052-0.347
		c-0.376-0.048-0.756-0.017-1.141,0.097c-0.422,0.125-0.776,0.247-1.061,0.365c-0.285,0.119-0.506,0.254-0.663,0.405
		c-0.158,0.151-0.252,0.325-0.284,0.522c-0.032,0.197-0.009,0.43,0.071,0.699L329.051,48.037z"/>
	<path d="M353.91,33.544c0.894-0.222,1.774-0.248,2.641-0.078c0.867,0.17,1.668,0.503,2.404,1.001s1.379,1.14,1.932,1.923
		c0.552,0.784,0.954,1.681,1.205,2.691s0.315,1.992,0.194,2.943c-0.122,0.951-0.391,1.819-0.808,2.603
		c-0.417,0.784-0.969,1.458-1.654,2.02s-1.475,0.954-2.369,1.176s-1.778,0.246-2.653,0.071c-0.875-0.174-1.687-0.509-2.436-1.004
		s-1.399-1.134-1.951-1.918s-0.954-1.682-1.204-2.692c-0.251-1.01-0.316-1.991-0.194-2.942c0.121-0.951,0.397-1.821,0.827-2.608
		c0.43-0.788,0.992-1.459,1.686-2.017C352.223,34.155,353.017,33.766,353.91,33.544z M357.175,46.696
		c0.596-0.147,1.118-0.439,1.567-0.874c0.449-0.435,0.801-0.969,1.056-1.603c0.255-0.634,0.405-1.345,0.45-2.133
		c0.044-0.788-0.041-1.616-0.256-2.484c-0.212-0.854-0.523-1.623-0.933-2.305c-0.41-0.682-0.876-1.243-1.398-1.685
		c-0.522-0.441-1.083-0.749-1.683-0.923c-0.6-0.174-1.198-0.187-1.794-0.039c-0.609,0.151-1.138,0.444-1.586,0.878
		c-0.449,0.435-0.808,0.971-1.076,1.608c-0.268,0.637-0.424,1.353-0.467,2.147c-0.043,0.794,0.041,1.619,0.253,2.474
		c0.215,0.868,0.527,1.64,0.936,2.315s0.88,1.232,1.415,1.67c0.535,0.438,1.103,0.744,1.703,0.918
		C355.962,46.836,356.566,46.848,357.175,46.696z"/>
	<path d="M386.789,38.604c0.279,0.448,0.602,0.717,0.967,0.808c0.365,0.09,0.823,0.122,1.376,0.093l0.199,1.001l-5.929,1.18
		l-0.199-1.001c0.254-0.091,0.492-0.176,0.715-0.254c0.222-0.078,0.407-0.173,0.556-0.284c0.148-0.111,0.241-0.242,0.279-0.393
		c0.038-0.15,0.007-0.338-0.092-0.563l-1.513-2.373l-5.163,1.027l-0.423,2.595c-0.053,0.283-0.041,0.495,0.035,0.636
		c0.076,0.142,0.198,0.243,0.367,0.305c0.168,0.062,0.369,0.093,0.601,0.095c0.231,0.002,0.489-0.005,0.771-0.021l0.199,1.001
		l-4.869,0.969l-0.199-1.001c0.267-0.094,0.501-0.184,0.701-0.272c0.2-0.087,0.373-0.193,0.519-0.317s0.269-0.274,0.37-0.451
		c0.101-0.176,0.177-0.406,0.23-0.688l2.321-12.34L380,28.077L386.789,38.604z M382.521,35.923l-3.253-5.272l-1.125,6.143
		L382.521,35.923z"/>
	<path d="M404.642,23.808c0.911-0.135,1.792-0.081,2.645,0.163c0.853,0.245,1.626,0.639,2.321,1.183s1.276,1.213,1.746,2.007
		c0.469,0.794,0.774,1.673,0.918,2.636c0.141,0.95,0.103,1.87-0.116,2.759c-0.219,0.89-0.582,1.692-1.089,2.408
		c-0.507,0.717-1.134,1.312-1.879,1.787c-0.746,0.476-1.574,0.781-2.485,0.916l-6.375,0.948l-0.147-0.99
		c0.231-0.075,0.463-0.153,0.693-0.235c0.231-0.082,0.429-0.182,0.593-0.301c0.164-0.119,0.291-0.262,0.381-0.431
		c0.089-0.168,0.115-0.384,0.076-0.648l-1.369-9.207c-0.04-0.264-0.127-0.467-0.263-0.608c-0.136-0.142-0.299-0.242-0.49-0.302
		c-0.191-0.059-0.409-0.094-0.653-0.105c-0.245-0.011-0.488-0.019-0.732-0.023l-0.15-1.01L404.642,23.808z M406.555,36.678
		c0.607-0.09,1.158-0.331,1.653-0.721s0.908-0.884,1.237-1.479c0.33-0.596,0.556-1.273,0.679-2.034s0.124-1.549,0.002-2.368
		c-0.122-0.818-0.352-1.57-0.689-2.255c-0.338-0.685-0.751-1.264-1.24-1.738c-0.489-0.474-1.027-0.826-1.614-1.056
		c-0.588-0.229-1.185-0.299-1.792-0.209l-2.554,0.379l1.563,10.514c0.055,0.37,0.205,0.63,0.45,0.783
		c0.246,0.153,0.519,0.247,0.821,0.283s0.595,0.033,0.879-0.009C406.234,36.726,406.436,36.696,406.555,36.678z"/>
	<path d="M444.618,19.352l0.091,1.017c-0.275,0.065-0.518,0.13-0.726,0.196c-0.208,0.066-0.395,0.153-0.559,0.261
		c-0.165,0.109-0.303,0.248-0.415,0.419c-0.112,0.171-0.21,0.388-0.293,0.649l-2.567,11.928l-1.535,0.138l-4.238-10.271
		l-2.661,10.891l-1.535,0.138l-4.75-11.271c-0.23-0.475-0.522-0.777-0.875-0.906c-0.353-0.129-0.806-0.209-1.358-0.24l-0.091-1.017
		l6.021-0.541l0.091,1.017c-0.262,0.063-0.515,0.126-0.757,0.188c-0.243,0.062-0.45,0.141-0.622,0.236
		c-0.172,0.096-0.296,0.214-0.37,0.355c-0.075,0.141-0.068,0.328,0.02,0.561l3.833,9.122l2.569-11.908l1.375-0.124l4.489,11.274
		l1.664-9.455c0.083-0.262,0.098-0.471,0.044-0.627c-0.054-0.156-0.162-0.273-0.323-0.353c-0.162-0.079-0.36-0.132-0.597-0.158
		c-0.237-0.025-0.497-0.046-0.779-0.061l-0.091-1.017L444.618,19.352z"/>
	<path d="M469.682,30.062c0.2,0.488,0.472,0.808,0.816,0.959c0.345,0.151,0.791,0.259,1.34,0.325l0.027,1.021l-6.043,0.16
		l-0.027-1.021c0.266-0.047,0.515-0.09,0.748-0.13c0.232-0.039,0.431-0.102,0.596-0.186c0.165-0.084,0.278-0.197,0.341-0.339
		c0.063-0.142,0.064-0.332,0.005-0.571l-1.09-2.594l-5.263,0.14l-0.855,2.486c-0.1,0.27-0.125,0.48-0.073,0.632
		c0.051,0.152,0.154,0.273,0.31,0.362c0.155,0.089,0.348,0.154,0.576,0.195c0.228,0.041,0.482,0.077,0.764,0.11l0.027,1.021
		l-4.963,0.131l-0.027-1.021c0.279-0.047,0.524-0.097,0.737-0.149c0.212-0.052,0.4-0.127,0.565-0.226
		c0.164-0.098,0.311-0.225,0.44-0.382c0.129-0.157,0.244-0.37,0.343-0.64l4.374-11.77l1.421-0.038L469.682,30.062z M465.928,26.697
		l-2.315-5.746l-2.147,5.864L465.928,26.697z"/>
	<path d="M497.758,18.835l-0.031,1.021c-0.388-0.012-0.718-0.002-0.992,0.029c-0.275,0.032-0.521,0.094-0.737,0.188
		c-0.217,0.093-0.414,0.224-0.593,0.392s-0.359,0.39-0.541,0.664c-0.111,0.144-0.29,0.409-0.535,0.795
		c-0.246,0.386-0.533,0.841-0.863,1.365s-0.685,1.087-1.063,1.689c-0.379,0.603-0.751,1.199-1.116,1.788
		c-0.07,0.118-0.124,0.224-0.16,0.316s-0.066,0.202-0.09,0.328c-0.024,0.126-0.038,0.276-0.044,0.449
		c-0.005,0.173-0.012,0.394-0.021,0.66l-0.055,1.781c-0.008,0.267,0.042,0.479,0.15,0.635c0.109,0.157,0.252,0.285,0.43,0.384
		c0.177,0.099,0.385,0.176,0.623,0.229c0.239,0.054,0.478,0.105,0.717,0.152l0.4,0.012l-0.031,1l-6.623-0.204l0.031-1l0.4,0.012
		c0.241-0.033,0.482-0.068,0.724-0.108c0.242-0.039,0.454-0.103,0.637-0.19c0.184-0.088,0.334-0.207,0.452-0.357
		c0.118-0.149,0.181-0.358,0.189-0.625l0.092-2.981c-0.366-0.692-0.745-1.415-1.135-2.168c-0.392-0.753-0.75-1.448-1.078-2.086
		c-0.377-0.746-0.749-1.465-1.115-2.157c-0.152-0.258-0.289-0.466-0.411-0.624c-0.122-0.157-0.265-0.288-0.429-0.394
		c-0.164-0.105-0.368-0.188-0.613-0.249s-0.573-0.118-0.985-0.17l0.015-0.48l0.017-0.54l6.282,0.193l-0.031,1.02
		c-0.241,0.033-0.486,0.069-0.734,0.108s-0.454,0.103-0.617,0.191c-0.162,0.089-0.271,0.219-0.322,0.391
		c-0.052,0.172-0.009,0.4,0.13,0.685c0.252,0.475,0.517,0.971,0.795,1.486c0.239,0.448,0.508,0.951,0.805,1.507
		c0.297,0.557,0.597,1.127,0.898,1.71c0.352-0.563,0.698-1.113,1.042-1.65c0.344-0.537,0.649-1.014,0.916-1.434
		c0.309-0.498,0.604-0.963,0.884-1.395c0.169-0.289,0.267-0.52,0.292-0.692c0.025-0.172-0.008-0.311-0.098-0.414
		c-0.091-0.103-0.229-0.184-0.413-0.243c-0.186-0.059-0.397-0.112-0.636-0.16l0.031-1.021L497.758,18.835z"/>
	<path d="M510.262,31.412c0.639,0.047,1.063,0.32,1.274,0.817c0.21,0.498,0.255,1.123,0.132,1.876
		c-0.067,0.37-0.195,0.698-0.384,0.985c-0.189,0.287-0.42,0.554-0.692,0.802s-0.577,0.482-0.915,0.705s-0.683,0.455-1.035,0.696
		l-0.41-0.693c0.354-0.255,0.674-0.476,0.962-0.661c0.288-0.187,0.533-0.372,0.734-0.558s0.359-0.382,0.475-0.587
		c0.116-0.206,0.185-0.461,0.208-0.768l-0.539-0.04c-0.359-0.026-0.656-0.176-0.891-0.447s-0.339-0.58-0.313-0.926
		c0.026-0.359,0.176-0.656,0.447-0.89S509.902,31.385,510.262,31.412z"/>
	<path d="M552.914,25.686c-0.244,0.012-0.461,0.047-0.652,0.107c-0.191,0.06-0.354,0.161-0.49,0.303
		c-0.135,0.142-0.221,0.345-0.26,0.609l-1.684,11.528l-1.109-0.162l-6.547-11.557l-1.179,8.082c-0.038,0.264-0.009,0.478,0.089,0.64
		s0.229,0.303,0.393,0.421c0.166,0.119,0.359,0.218,0.584,0.298s0.453,0.157,0.684,0.231l-0.145,0.99l-4.99-0.729l0.145-0.99
		c0.243-0.005,0.487-0.013,0.731-0.024c0.245-0.012,0.463-0.051,0.654-0.117c0.192-0.066,0.355-0.167,0.489-0.303
		c0.135-0.135,0.222-0.335,0.26-0.599l1.344-9.21c0.039-0.264,0.014-0.484-0.074-0.659c-0.09-0.175-0.217-0.318-0.383-0.43
		c-0.165-0.111-0.363-0.208-0.595-0.289c-0.23-0.081-0.462-0.159-0.694-0.233l0.147-1.01l3.288,0.48l6.328,11.383l1.154-7.903
		c0.039-0.264,0.014-0.483-0.076-0.658s-0.217-0.318-0.383-0.43c-0.164-0.112-0.363-0.208-0.594-0.289s-0.463-0.159-0.695-0.233
		l0.148-1.01l4.99,0.729l-0.146,1.01C553.402,25.667,553.158,25.675,552.914,25.686z"/>
	<path d="M574.801,38.291l-1.68,4.14l-10.258-1.99l0.191-0.982c0.244,0.006,0.488,0.01,0.732,0.009c0.244,0,0.465-0.029,0.658-0.086
		c0.195-0.058,0.363-0.151,0.504-0.28s0.236-0.325,0.287-0.587l1.771-9.138c0.051-0.262,0.035-0.482-0.045-0.661
		s-0.201-0.328-0.361-0.447s-0.354-0.225-0.582-0.317c-0.227-0.091-0.453-0.18-0.682-0.265l0.193-1.002l10.121,1.963l-0.598,3.921
		l-0.982-0.19c-0.113-0.606-0.203-1.106-0.27-1.5s-0.17-0.719-0.311-0.978c-0.141-0.258-0.361-0.464-0.664-0.618
		c-0.305-0.154-0.75-0.288-1.34-0.402l-2.357-0.458l-0.988,5.09l1.867,0.362c0.275,0.054,0.502,0.046,0.678-0.021
		s0.326-0.181,0.453-0.34c0.125-0.159,0.23-0.353,0.316-0.581c0.086-0.228,0.174-0.476,0.268-0.743l0.824,0.16l-0.973,5.011
		l-0.824-0.16c0.014-0.283,0.025-0.552,0.035-0.809c0.008-0.256-0.016-0.489-0.07-0.697c-0.055-0.208-0.15-0.382-0.285-0.524
		c-0.135-0.142-0.342-0.24-0.615-0.293l-1.867-0.362l-0.846,4.363c-0.014,0.065-0.021,0.173-0.023,0.322
		c0,0.149,0.07,0.313,0.211,0.49c0.143,0.177,0.387,0.36,0.73,0.549s0.85,0.348,1.518,0.478c0.484,0.094,0.914,0.106,1.289,0.036
		c0.373-0.07,0.725-0.216,1.053-0.438s0.648-0.52,0.959-0.895c0.311-0.375,0.637-0.814,0.979-1.319L574.801,38.291z"/>
	<path d="M609.244,36.467L609,37.458c-0.281-0.029-0.533-0.046-0.75-0.052c-0.219-0.006-0.424,0.016-0.615,0.064
		c-0.189,0.049-0.367,0.136-0.527,0.261c-0.162,0.125-0.326,0.298-0.49,0.518l-6.314,10.438l-1.498-0.37l-0.656-11.092l-6.066,9.428
		l-1.496-0.37l-0.814-12.204c-0.064-0.524-0.24-0.905-0.533-1.142c-0.291-0.237-0.693-0.46-1.205-0.669l0.246-0.991l5.867,1.453
		l-0.244,0.991c-0.27-0.025-0.529-0.048-0.777-0.068c-0.25-0.021-0.471-0.014-0.666,0.021c-0.193,0.034-0.35,0.106-0.465,0.215
		c-0.117,0.108-0.172,0.288-0.164,0.537l0.65,9.874l6.311-10.419l1.34,0.332l0.568,12.122l4.656-8.396
		c0.164-0.22,0.246-0.414,0.246-0.579c-0.002-0.165-0.064-0.311-0.191-0.439c-0.127-0.127-0.297-0.242-0.514-0.343
		c-0.215-0.102-0.453-0.205-0.717-0.312l0.246-0.991L609.244,36.467z"/>
	<path d="M648.785,48.621l-0.322,0.969c-0.367-0.122-0.688-0.207-0.959-0.254s-0.525-0.058-0.76-0.03
		c-0.234,0.028-0.461,0.097-0.68,0.207c-0.219,0.11-0.455,0.271-0.709,0.482c-0.146,0.106-0.393,0.309-0.738,0.609
		s-0.752,0.655-1.217,1.063s-0.965,0.847-1.5,1.316c-0.535,0.47-1.063,0.935-1.58,1.396c-0.102,0.093-0.182,0.179-0.242,0.257
		c-0.063,0.078-0.121,0.174-0.18,0.288c-0.061,0.114-0.117,0.254-0.17,0.418c-0.055,0.165-0.125,0.374-0.209,0.627l-0.559,1.691
		c-0.084,0.253-0.098,0.471-0.037,0.652c0.059,0.182,0.16,0.345,0.301,0.49c0.143,0.145,0.32,0.278,0.533,0.397
		c0.213,0.12,0.428,0.236,0.643,0.35l0.381,0.125l-0.314,0.95l-6.291-2.082l0.314-0.95l0.381,0.125
		c0.24,0.038,0.482,0.072,0.725,0.103c0.244,0.031,0.465,0.031,0.666-0.001c0.199-0.032,0.377-0.103,0.533-0.213
		c0.156-0.11,0.275-0.292,0.359-0.545l0.938-2.832c-0.154-0.768-0.311-1.568-0.471-2.401s-0.307-1.602-0.438-2.306
		c-0.15-0.823-0.301-1.618-0.455-2.386c-0.072-0.291-0.145-0.529-0.217-0.715c-0.072-0.185-0.172-0.352-0.299-0.5
		s-0.299-0.285-0.516-0.413c-0.219-0.128-0.518-0.277-0.896-0.445l0.15-0.456l0.17-0.513l5.967,1.975l-0.32,0.969
		c-0.24-0.038-0.486-0.073-0.734-0.106c-0.25-0.033-0.465-0.03-0.646,0.008c-0.182,0.039-0.322,0.133-0.42,0.283
		c-0.1,0.15-0.123,0.381-0.072,0.693c0.107,0.528,0.221,1.078,0.34,1.652c0.102,0.498,0.217,1.056,0.342,1.673
		c0.125,0.618,0.25,1.25,0.375,1.895c0.496-0.44,0.986-0.868,1.469-1.285c0.482-0.417,0.91-0.788,1.285-1.114
		c0.438-0.389,0.854-0.751,1.246-1.085c0.244-0.228,0.402-0.421,0.477-0.58c0.072-0.158,0.08-0.3,0.023-0.424
		c-0.057-0.124-0.166-0.241-0.326-0.351c-0.16-0.109-0.35-0.221-0.564-0.334l0.32-0.969L648.785,48.621z"/>
	<path d="M666.209,54.607c0.859,0.326,1.6,0.806,2.215,1.439c0.617,0.633,1.086,1.364,1.406,2.192s0.484,1.722,0.492,2.681
		s-0.172,1.925-0.541,2.898c-0.369,0.973-0.875,1.816-1.516,2.529c-0.641,0.713-1.357,1.273-2.146,1.681s-1.625,0.647-2.51,0.719
		c-0.883,0.072-1.756-0.056-2.615-0.382c-0.861-0.327-1.604-0.811-2.223-1.452c-0.621-0.642-1.098-1.379-1.432-2.212
		c-0.332-0.833-0.504-1.729-0.512-2.688c-0.008-0.959,0.174-1.925,0.543-2.898s0.873-1.816,1.516-2.53
		c0.641-0.713,1.363-1.271,2.164-1.673c0.803-0.402,1.646-0.635,2.535-0.698C664.473,54.149,665.348,54.281,666.209,54.607z
		 M661.404,67.279c0.574,0.218,1.17,0.276,1.787,0.174c0.615-0.101,1.209-0.34,1.779-0.716c0.57-0.375,1.1-0.875,1.586-1.497
		c0.484-0.623,0.887-1.352,1.203-2.188c0.313-0.824,0.494-1.633,0.545-2.427s-0.012-1.521-0.189-2.181
		c-0.18-0.66-0.465-1.232-0.859-1.717s-0.879-0.836-1.453-1.054c-0.586-0.222-1.188-0.282-1.803-0.181
		c-0.617,0.102-1.217,0.338-1.801,0.709c-0.582,0.372-1.119,0.871-1.605,1.5c-0.488,0.628-0.889,1.354-1.201,2.178
		c-0.316,0.836-0.5,1.648-0.549,2.436s0.021,1.514,0.213,2.178c0.189,0.665,0.482,1.24,0.877,1.724
		C660.328,66.703,660.818,67.057,661.404,67.279z"/>
	<path d="M688.59,76.635c0.096,0.317,0.223,0.618,0.377,0.902c0.139,0.248,0.322,0.498,0.551,0.747
		c0.227,0.249,0.518,0.45,0.873,0.603l-0.402,0.939l-5.373-2.302l0.402-0.938c0.25,0.063,0.479,0.121,0.688,0.175
		s0.377,0.063,0.5,0.028c0.123-0.033,0.195-0.137,0.219-0.309s-0.016-0.445-0.115-0.822l-1.273-4.4l-1.398-0.599l-1.41,3.294
		c-0.105,0.246-0.158,0.452-0.156,0.619c0,0.167,0.041,0.316,0.125,0.445c0.082,0.13,0.205,0.255,0.371,0.377
		c0.166,0.122,0.367,0.263,0.604,0.422l-0.395,0.92l-5.023-2.151l0.395-0.92l-0.037-0.016c0.273,0.073,0.529,0.136,0.77,0.188
		c0.238,0.052,0.459,0.07,0.662,0.055c0.203-0.015,0.389-0.084,0.557-0.208c0.17-0.124,0.314-0.326,0.436-0.608l3.656-8.538
		c0.096-0.221,0.125-0.418,0.092-0.593c-0.035-0.174-0.119-0.333-0.254-0.478c-0.133-0.145-0.301-0.281-0.498-0.41
		c-0.199-0.129-0.42-0.267-0.662-0.414l0.402-0.938l5.998,2.569c1.521,0.651,2.496,1.461,2.924,2.428
		c0.428,0.967,0.402,2.009-0.076,3.125c-0.277,0.65-0.633,1.148-1.064,1.493c-0.43,0.346-0.873,0.581-1.324,0.706
		c-0.453,0.125-0.898,0.164-1.334,0.115c-0.438-0.049-0.803-0.137-1.098-0.263L688.59,76.635z M684.039,69.721l2.115,0.907
		c0.393,0.168,0.789,0.25,1.189,0.248c0.4-0.003,0.779-0.081,1.135-0.233c0.355-0.153,0.674-0.372,0.957-0.658
		c0.281-0.285,0.506-0.625,0.674-1.017s0.256-0.784,0.264-1.172c0.006-0.389-0.057-0.757-0.191-1.105
		c-0.135-0.348-0.33-0.66-0.588-0.938c-0.26-0.277-0.572-0.495-0.941-0.653c-0.404-0.173-0.754-0.305-1.049-0.396
		c-0.297-0.09-0.553-0.127-0.77-0.111c-0.217,0.016-0.4,0.089-0.553,0.221c-0.15,0.131-0.281,0.326-0.391,0.583L684.039,69.721z"/>
	<path d="M711.553,87.326c0.057,0.28,0.119,0.529,0.186,0.746c0.064,0.217,0.154,0.416,0.266,0.596
		c0.113,0.181,0.268,0.352,0.465,0.514c0.195,0.161,0.455,0.32,0.779,0.478l-0.436,0.901l-5.586-2.703l0.436-0.9
		c0.246,0.074,0.484,0.156,0.715,0.246c0.232,0.089,0.426,0.131,0.584,0.126s0.273-0.083,0.346-0.233
		c0.074-0.149,0.076-0.434,0.012-0.85c-0.025-0.161-0.076-0.434-0.148-0.818c-0.074-0.383-0.154-0.838-0.242-1.361
		s-0.189-1.096-0.305-1.715s-0.229-1.244-0.338-1.876c-0.363,0.106-0.725,0.212-1.088,0.319c-0.363,0.105-0.717,0.209-1.063,0.309
		l-1.42,2.938c-0.117,0.24-0.156,0.454-0.121,0.642s0.113,0.362,0.234,0.524c0.121,0.163,0.281,0.318,0.477,0.465
		s0.393,0.29,0.592,0.431l-0.436,0.901l-5.244-2.537l0.436-0.9c0.234,0.068,0.469,0.134,0.705,0.195
		c0.238,0.063,0.457,0.092,0.66,0.086s0.389-0.053,0.559-0.142c0.168-0.089,0.311-0.253,0.428-0.493l4.053-8.379
		c0.115-0.24,0.158-0.458,0.125-0.651c-0.031-0.193-0.109-0.368-0.234-0.525s-0.285-0.308-0.48-0.455
		c-0.195-0.146-0.393-0.29-0.592-0.431l0.443-0.919l5.244,2.537l-0.443,0.919c-0.234-0.069-0.471-0.134-0.707-0.197
		s-0.455-0.094-0.654-0.094s-0.387,0.047-0.557,0.142c-0.172,0.095-0.316,0.262-0.434,0.502l-2.057,4.252
		c0.053-0.019,0.195-0.058,0.424-0.117s0.508-0.137,0.834-0.23s0.689-0.2,1.088-0.318c0.398-0.119,0.803-0.234,1.213-0.348
		c0.951-0.281,2.021-0.593,3.211-0.938c0.445-0.154,0.74-0.294,0.881-0.418c0.141-0.125,0.182-0.246,0.121-0.364
		c-0.063-0.118-0.195-0.239-0.404-0.362c-0.207-0.123-0.438-0.26-0.689-0.412l0.445-0.918l4.521,2.188l-0.443,0.919
		c-0.307-0.104-0.566-0.181-0.777-0.231c-0.213-0.051-0.432-0.074-0.654-0.072c-0.225,0.004-0.465,0.031-0.721,0.086
		c-0.256,0.054-0.57,0.131-0.945,0.231c-0.137,0.038-0.352,0.097-0.643,0.179c-0.291,0.081-0.639,0.18-1.043,0.295
		c-0.404,0.116-0.855,0.243-1.352,0.381c-0.498,0.138-1.014,0.285-1.549,0.441c0.137,0.732,0.27,1.49,0.402,2.273
		s0.262,1.52,0.387,2.211c0.125,0.69,0.234,1.299,0.328,1.826S711.508,87.112,711.553,87.326z"/>
</g>
</svg>
