<?xml version="1.0" encoding="utf-8"?>
<!-- Generator: Adobe Illustrator 16.0.3, SVG Export Plug-In . SVG Version: 6.00 Build 0)  -->
<!DOCTYPE svg PUBLIC "-//W3C//DTD SVG 1.1//EN" "http://www.w3.org/Graphics/SVG/1.1/DTD/svg11.dtd">
<svg version="1.1" id="Layer_1" xmlns="http://www.w3.org/2000/svg" xmlns:xlink="http://www.w3.org/1999/xlink" x="0px" y="0px"
	 width="950px" height="217px" viewBox="0 0 950 217" enable-background="new 0 0 950 217" xml:space="preserve">
<g>
	<path d="M475.297,169.567c-120.816,0-184.894-50.559-236.382-91.184c-34.19-26.977-63.718-50.275-100.603-50.275
		c-43.948,0-45.217,20.566-45.217,22.911c0,8.39,6.336,17.954,11.895,17.954c3.141,0,6.231-2.01,7.187-4.676
		c0.664-1.851,0.151-3.593-1.445-4.907l0.633-0.768c1.916,1.578,2.553,3.769,1.749,6.011c-1.109,3.092-4.525,5.335-8.124,5.335
		c-6.639,0-12.89-10.675-12.89-18.949c0-2.635,0.879-9.391,9.021-15.207c8.081-5.772,20.594-8.699,37.192-8.699
		c37.23,0,66.884,23.397,101.219,50.489c51.367,40.53,115.295,90.969,235.766,90.969V169.567z"/>
	<path d="M146.394,3.323c-0.015,0.008-0.13-0.038-0.402-0.034c-0.266,0.005-0.661,0.047-1.132,0.194
		c-0.47,0.149-1.008,0.421-1.556,0.815c-0.541,0.396-1.107,0.912-1.507,1.597c-0.096,0.171-0.169,0.357-0.261,0.541
		c-0.053,0.195-0.116,0.393-0.162,0.598c-0.016,0.214-0.048,0.414-0.058,0.651c-0.003,0.246-0.006,0.496-0.009,0.749
		c-0.011,1.012-0.022,2.08-0.033,3.184c-0.009,2.208-0.019,4.563-0.029,6.918c0.011,2.356,0.022,4.711,0.033,6.919
		c0.013,1.104,0.026,2.171,0.038,3.183c0.028,0.995-0.013,2.008,0.07,2.814c0.087,0.725,0.503,1.359,0.954,1.795
		c0.466,0.438,0.99,0.708,1.443,0.849c0.912,0.298,1.495,0.164,1.444,0.163c0.536,0.119,0.875,0.651,0.755,1.188
		c-0.119,0.537-0.651,0.875-1.187,0.755c-0.042-0.013-0.642-0.355-1.582-0.971c-0.461-0.324-1.029-0.706-1.58-1.283
		c-0.549-0.569-1.081-1.371-1.182-2.421c-0.067-0.955,0-1.86-0.005-2.888c0.012-1.012,0.025-2.079,0.038-3.183
		c0.011-2.208,0.021-4.563,0.032-6.919c-0.01-2.355-0.019-4.71-0.028-6.918c-0.011-1.104-0.022-2.171-0.033-3.184
		c-0.003-0.253-0.006-0.502-0.009-0.749c0.003-0.253,0.034-0.536,0.053-0.795c0.049-0.26,0.121-0.513,0.187-0.76
		c0.103-0.232,0.193-0.469,0.308-0.684c0.476-0.858,1.127-1.469,1.727-1.932c0.612-0.455,1.18-0.777,1.637-1.078
		c0.456-0.303,0.822-0.542,1.075-0.726c0.262-0.194,0.402-0.298,0.402-0.298c0.434-0.321,1.047-0.23,1.369,0.205
		s0.23,1.047-0.204,1.369c-0.037,0.027-0.075,0.051-0.114,0.073L146.394,3.323z"/>
	<path d="M130.33,1.412c0,0,0.14,0.103,0.402,0.297c0.252,0.185,0.619,0.423,1.074,0.726c0.456,0.301,1.025,0.624,1.637,1.079
		c0.6,0.463,1.251,1.074,1.727,1.932c0.114,0.215,0.205,0.452,0.308,0.684c0.066,0.248,0.138,0.5,0.187,0.76
		c0.019,0.26,0.049,0.542,0.052,0.796c-0.003,0.246-0.006,0.495-0.009,0.749c-0.011,1.012-0.022,2.079-0.033,3.183
		c-0.009,2.208-0.019,4.563-0.028,6.918c0.011,2.356,0.022,4.711,0.032,6.919c0.013,1.104,0.026,2.171,0.038,3.184
		c-0.005,1.028,0.063,1.933-0.005,2.888c-0.101,1.051-0.632,1.853-1.182,2.421c-0.551,0.578-1.118,0.959-1.58,1.283
		c-0.94,0.616-1.54,0.958-1.582,0.971c-0.536,0.12-1.068-0.218-1.187-0.755c-0.12-0.537,0.219-1.068,0.756-1.188
		c-0.051,0,0.532,0.135,1.444-0.163c0.453-0.141,0.977-0.41,1.443-0.849c0.451-0.436,0.866-1.07,0.954-1.795
		c0.083-0.806,0.042-1.819,0.071-2.813c0.012-1.012,0.024-2.08,0.038-3.184c0.011-2.208,0.021-4.563,0.033-6.919
		c-0.01-2.355-0.02-4.71-0.029-6.918c-0.011-1.104-0.022-2.171-0.033-3.183c-0.003-0.253-0.005-0.502-0.009-0.749
		c-0.009-0.238-0.042-0.437-0.058-0.651c-0.045-0.205-0.109-0.403-0.162-0.598c-0.092-0.183-0.165-0.369-0.261-0.541
		c-0.401-0.685-0.966-1.201-1.507-1.597c-0.548-0.395-1.086-0.666-1.556-0.815c-0.471-0.148-0.866-0.19-1.132-0.195
		c-0.271-0.004-0.387,0.042-0.402,0.033l-0.487-0.262c-0.477-0.255-0.655-0.849-0.399-1.325s0.849-0.655,1.326-0.399
		C130.25,1.358,130.293,1.385,130.33,1.412z"/>
	<path d="M135.065,17.765c0,0,0.095,0.284,0.26,0.43c0.166,0.136,0.403,0.084,0.687,0.126c0.569,0.055,1.326,0.092,2.084,0.1
		c0.757-0.011,1.515-0.054,2.083-0.109c0.285-0.028,0.521,0.001,0.687-0.173c0.166-0.145,0.26-0.375,0.26-0.375
		c0.33-0.8,0.971-0.985,1.432-0.415c0.46,0.571,0.567,1.683,0.238,2.482s-0.97,0.984-1.431,0.414
		c-0.093-0.116-0.175-0.26-0.239-0.414c0,0-0.094-0.23-0.26-0.375c-0.166-0.173-0.402-0.145-0.687-0.172
		c-0.568-0.056-1.326-0.099-2.083-0.11c-0.758,0.008-1.515,0.045-2.084,0.101c-0.284,0.042-0.521-0.01-0.687,0.126
		c-0.165,0.146-0.26,0.43-0.26,0.43c-0.329,0.985-1.057,1.321-1.625,0.75c-0.566-0.571-0.761-1.833-0.431-2.818
		c0.328-0.986,1.056-1.321,1.624-0.75C134.817,17.2,134.965,17.467,135.065,17.765z"/>
	<path d="M259.358,64.338c0,0,0.032,0.007,0.094,0.022c0.042,0.021,0.076,0.049,0.144,0.088c0.167,0.057,0.451,0.102,0.817,0.088
		c0.722-0.021,1.848-0.341,2.704-1.462c0.852-1.135,0.907-3.054,0.286-5.026c-0.61-1.997-1.895-4.077-3.415-6.244
		c-3.055-4.314-7.256-8.948-12.085-13.521c-2.428-2.26-4.994-4.61-7.861-6.521c-0.344-0.239-0.764-0.436-1.047-0.544
		c-0.116-0.042-0.484,0.32-0.671,0.654c-0.431,0.71-0.727,1.542-0.977,2.374c-0.499,1.675-0.771,3.43-0.942,5.187
		c-0.653,7.059,0.419,14.197,2.27,20.564c1.847,6.395,4.566,12.031,7.269,16.604c2.719,4.573,5.376,8.136,7.339,10.536
		c0.976,1.205,1.771,2.128,2.32,2.752s0.842,0.956,0.842,0.956l0.006,0.006c0.182,0.207,0.161,0.521-0.045,0.703
		c-0.207,0.182-0.521,0.161-0.703-0.045c-0.001-0.002-0.005-0.006-0.006-0.008c0,0-0.289-0.342-0.83-0.982
		c-0.542-0.641-1.326-1.589-2.286-2.825c-1.924-2.466-4.585-6.077-7.27-10.726c-2.664-4.651-5.346-10.355-7.223-16.801
		c-1.858-6.43-2.933-13.632-2.263-20.791c0.174-1.786,0.466-3.563,0.955-5.297c0.254-0.864,0.543-1.722,1.02-2.529
		c0.129-0.2,0.258-0.399,0.443-0.583c0.086-0.093,0.196-0.181,0.325-0.257c0.082-0.034,0.117-0.074,0.239-0.096
		c0.112-0.024,0.233-0.027,0.265-0.016c0.546,0.163,0.916,0.376,1.3,0.62c2.989,1.954,5.554,4.272,8.029,6.531
		c4.904,4.563,9.161,9.165,12.324,13.545c1.557,2.18,2.908,4.302,3.597,6.466c0.72,2.153,0.576,4.277-0.035,5.917
		c-0.636,1.644-1.608,2.813-2.306,3.618c-0.366,0.387-0.663,0.7-0.897,0.917c-0.138,0.115-0.243,0.202-0.313,0.26
		c-0.042,0.049-0.063,0.074-0.063,0.074c-0.93,1.092-2.569,1.223-3.661,0.292c-1.092-0.931-1.223-2.57-0.292-3.662
		c0.653-0.767,1.658-1.06,2.575-0.843L259.358,64.338z"/>
	<circle cx="256.005" cy="91.746" r="3.566"/>
	<circle cx="230.21" cy="61.589" r="3.29"/>
	<circle cx="223.395" cy="51.125" r="2.832"/>
	<circle cx="216.143" cy="38.458" r="2.556"/>
	<circle cx="210.635" cy="27.611" r="2.189"/>
	<circle cx="86.55" cy="56.146" r="1.728"/>
	<circle cx="125.126" cy="65.615" r="2.189"/>
	<path d="M72.172,50.56c-1.05,0.599,0.382,3.488-0.826,3.488c-1.208,0-2.969-2.279-2.969-3.488c0-2.111,2.908-3.075,4.116-3.075
		C73.702,47.485,73.38,49.872,72.172,50.56z"/>
	<path d="M70.565,59.831c0,0,0.466-0.291,1.294-0.768c0.417-0.236,0.875-0.586,1.416-0.947c0.27-0.177,0.549-0.385,0.84-0.616
		c0.293-0.224,0.647-0.382,0.984-0.603c1.363-0.858,2.913-1.935,4.535-3.146c1.619-1.216,3.32-2.552,4.99-3.93
		c3.349-2.743,6.602-5.611,9.063-7.745c0.317-0.255,0.577-0.551,0.89-0.758c0.308-0.212,0.6-0.413,0.874-0.602
		c0.553-0.373,1.034-0.698,1.431-0.966c0.806-0.521,1.277-0.797,1.277-0.797s-0.378,0.394-1.04,1.083
		c-0.328,0.346-0.726,0.766-1.183,1.247c-0.226,0.243-0.467,0.501-0.721,0.774c-0.25,0.277-0.579,0.492-0.875,0.771
		c-2.458,2.13-5.717,5.005-9.084,7.762c-1.677,1.385-3.391,2.73-5.025,3.958c-1.638,1.224-3.208,2.316-4.6,3.192
		c-0.688,0.457-1.344,0.817-1.996,1.045c-0.634,0.245-1.168,0.489-1.625,0.628C71.096,59.691,70.565,59.831,70.565,59.831z"/>
	<path d="M117.795,67.474c0,0,2.27-4.048,7.331-4.048v4.378C125.126,67.804,123.716,64.582,117.795,67.474z"/>
	<path d="M118.461,42.092c0,0-0.091,0.053-0.263,0.152c-0.171,0.103-0.429,0.265-0.749,0.482c-0.318,0.221-0.695,0.499-1.1,0.842
		c-0.389,0.349-0.843,0.749-1.203,1.23c-0.366,0.472-0.715,1.021-0.792,1.558c-0.096,0.533,0.014,1.061,0.385,1.632
		c0.261,0.262,0.434,0.542,0.779,0.824c0.349,0.305,0.703,0.621,1.052,0.89c0.688,0.564,1.467,1.138,2.232,1.692
		c3.09,2.221,6.333,4.342,8.562,6.271c0.56,0.479,1.052,0.952,1.474,1.39c0.405,0.462,0.771,0.85,1.008,1.248
		c0.124,0.192,0.241,0.354,0.329,0.511c0.075,0.168,0.139,0.312,0.191,0.427c0.101,0.232,0.155,0.356,0.155,0.356
		c0.108,0.25-0.006,0.54-0.256,0.648c-0.238,0.104-0.515,0.003-0.633-0.223l-0.052-0.101c0,0-0.049-0.093-0.14-0.268
		c-0.043-0.087-0.098-0.195-0.162-0.322c-0.078-0.124-0.19-0.259-0.302-0.415c-0.207-0.318-0.567-0.66-0.951-1.056
		c-0.411-0.384-0.892-0.801-1.452-1.23c-2.227-1.732-5.53-3.657-8.79-5.747c-0.818-0.53-1.617-1.053-2.423-1.646
		c-0.413-0.289-0.774-0.579-1.139-0.865c-0.391-0.283-0.787-0.735-1.154-1.112c-0.704-0.884-1.089-2.13-0.927-3.233
		c0.133-1.117,0.642-1.946,1.106-2.629c0.473-0.696,0.993-1.203,1.45-1.657c0.465-0.439,0.892-0.79,1.25-1.068
		c0.361-0.274,0.65-0.479,0.858-0.62c0.211-0.137,0.324-0.21,0.324-0.21c0.605-0.393,1.415-0.222,1.808,0.384
		s0.222,1.416-0.384,1.809c-0.018,0.012-0.036,0.023-0.055,0.034L118.461,42.092z"/>
	<path d="M61.573,51.968c0,0-0.04,0.015-0.115,0.042c-0.078,0.03-0.2,0.083-0.353,0.156c-0.294,0.143-0.728,0.408-0.992,0.705
		c-0.123,0.15-0.165,0.25-0.187,0.36c-0.043,0.103,0.054,0.325,0.21,0.583c0.113,0.125,0.198,0.27,0.332,0.398
		c0.162,0.156,0.343,0.35,0.491,0.473c0.294,0.273,0.669,0.569,1.044,0.857c0.745,0.576,1.668,1.246,2.225,2.184
		c0.291,0.448,0.469,0.927,0.603,1.371c0.122,0.445,0.212,0.868,0.247,1.25c0.095,0.769,0.093,1.396,0.082,1.831
		c-0.011,0.435-0.017,0.683-0.017,0.683c-0.007,0.274-0.235,0.492-0.51,0.485c-0.256-0.006-0.462-0.206-0.483-0.455l-0.002-0.03
		c0,0-0.019-0.235-0.052-0.646c-0.031-0.409-0.093-0.995-0.247-1.655c-0.064-0.335-0.18-0.676-0.312-1.019
		c-0.144-0.337-0.311-0.675-0.55-0.963c-0.443-0.601-1.168-1.038-2.005-1.551c-0.421-0.261-0.84-0.52-1.282-0.85
		c-0.233-0.164-0.389-0.303-0.58-0.451c-0.223-0.174-0.419-0.399-0.621-0.6c-0.373-0.46-0.758-1.029-0.804-1.775
		c-0.062-0.721,0.195-1.39,0.488-1.832c0.607-0.873,1.231-1.266,1.654-1.553c0.216-0.135,0.391-0.233,0.517-0.3
		c0.132-0.065,0.202-0.101,0.202-0.101c0.646-0.321,1.431-0.059,1.752,0.588c0.322,0.646,0.059,1.431-0.588,1.752
		c-0.044,0.021-0.089,0.041-0.134,0.058L61.573,51.968z"/>
	<path d="M49.463,34.6c0,0,0.063-0.023,0.182-0.066c0.144-0.053,0.35-0.122,0.581-0.183c0.237-0.074,0.53-0.127,0.862-0.2
		c0.343-0.042,0.715-0.122,1.146-0.125c0.421-0.035,0.893-0.001,1.387,0.046c0.495,0.096,1.024,0.167,1.538,0.409
		c0.533,0.176,1.006,0.528,1.486,0.854c0.396,0.414,0.867,0.792,1.131,1.287l0.447,0.707l0.303,0.74
		c0.092,0.246,0.208,0.485,0.273,0.727c0.056,0.244,0.111,0.484,0.166,0.721c0.111,0.472,0.218,0.924,0.236,1.356
		c0.04,0.429,0.076,0.834,0.111,1.209c0.036,0.373,0.002,0.712,0.007,1.013c-0.004,0.3-0.008,0.562-0.011,0.778
		c-0.006,0.43-0.01,0.675-0.01,0.675c-0.004,0.274-0.23,0.493-0.504,0.489c-0.254-0.003-0.46-0.197-0.486-0.443l-0.005-0.045
		c0,0-0.025-0.234-0.069-0.644c-0.021-0.205-0.048-0.453-0.079-0.737c-0.039-0.282-0.044-0.608-0.121-0.947
		c-0.073-0.338-0.152-0.704-0.236-1.091c-0.062-0.395-0.207-0.776-0.352-1.168c-0.07-0.196-0.141-0.396-0.213-0.598
		c-0.079-0.197-0.198-0.37-0.294-0.557l-0.302-0.553l-0.39-0.465c-0.226-0.346-0.581-0.516-0.85-0.767
		c-0.337-0.149-0.63-0.344-0.979-0.399c-0.318-0.117-0.675-0.104-0.99-0.135c-0.332,0.016-0.64,0.023-0.935,0.089
		c-0.29,0.033-0.559,0.133-0.793,0.186c-0.231,0.085-0.437,0.145-0.594,0.219c-0.17,0.067-0.271,0.119-0.335,0.152
		c-0.088,0.045-0.136,0.069-0.136,0.069L50.6,37.22c-0.704,0.357-1.565,0.076-1.923-0.629c-0.357-0.705-0.076-1.565,0.629-1.923
		C49.355,34.644,49.413,34.619,49.463,34.6z"/>
	<path d="M238.991,31.25c-0.079-0.046-0.457,0.306-0.639,0.637c-0.429,0.706-0.725,1.537-0.976,2.366
		c-0.104,0.348-0.192,0.702-0.277,1.057c0.632,0.573,1.462,0.93,2.382,0.93c1.547,0,2.851-0.991,3.344-2.368
		c-0.907-0.727-1.833-1.435-2.801-2.082C239.683,31.553,239.26,31.357,238.991,31.25z"/>
	<path d="M237.22,67.214c0,0,0.284,0.392,0.78,1.078c0.495,0.688,1.204,1.668,2.071,2.819c0.864,1.158,1.871,2.509,2.951,3.957
		c1.072,1.456,2.292,2.947,3.473,4.472c1.193,1.517,2.386,3.033,3.504,4.455c1.176,1.369,2.274,2.646,3.215,3.741
		c1.887,2.195,3.144,3.658,3.144,3.658l0.024,0.029c0.179,0.208,0.155,0.522-0.053,0.701c-0.198,0.17-0.493,0.156-0.676-0.026
		c0,0-1.372-1.373-3.429-3.434c-1.031-1.033-2.234-2.237-3.523-3.529c-1.229-1.342-2.539-2.773-3.849-4.205
		c-1.3-1.442-2.64-2.852-3.827-4.234c-1.196-1.375-2.312-2.66-3.268-3.76c-0.964-1.099-1.743-2.023-2.288-2.671
		c-0.546-0.647-0.858-1.017-0.858-1.017c-0.59-0.698-0.502-1.743,0.196-2.333c0.699-0.59,1.743-0.502,2.333,0.197
		c0.026,0.03,0.05,0.062,0.074,0.094L237.22,67.214z"/>
	<path d="M103.031,75.318c0,0,0.057-0.018,0.373,0.145c0.167,0.081,0.251,0.174,0.363,0.283c0.104,0.111,0.269,0.243,0.346,0.396
		c0.197,0.303,0.451,0.685,0.6,1.125c0.09,0.222,0.186,0.458,0.286,0.707c0.067,0.249,0.137,0.511,0.21,0.785
		c0.073,0.275,0.149,0.563,0.228,0.86c0.064,0.296,0.105,0.602,0.162,0.917c0.091,0.629,0.251,1.303,0.298,1.989
		c0.066,0.689,0.133,1.401,0.201,2.125c0.081,0.764,0.088,1.448,0.136,2.182c0.038,0.723,0.083,1.44,0.098,2.167
		c0.022,0.717,0.044,1.422,0.066,2.104c0.019,0.667,0.039,1.317,0.104,1.833c0.021,0.274,0.043,0.545,0.113,0.713
		c0.066,0.183,0.071,0.394,0.161,0.533c0.088,0.14,0.16,0.272,0.222,0.401c0.075,0.133,0.225,0.278,0.319,0.404
		c0.105,0.13,0.203,0.252,0.294,0.365c0.123,0.125,0.234,0.24,0.336,0.344c0.404,0.415,0.634,0.652,0.634,0.652l0.057,0.058
		c0.786,0.809,0.768,2.102-0.042,2.888c-0.809,0.786-2.102,0.768-2.888-0.041c-0.061-0.063-0.125-0.139-0.176-0.207
		c0,0-0.234-0.315-0.643-0.867c-0.102-0.138-0.214-0.29-0.336-0.456c-0.123-0.202-0.256-0.42-0.399-0.653
		c-0.136-0.247-0.296-0.464-0.429-0.776c-0.128-0.326-0.253-0.673-0.373-1.033c-0.121-0.359-0.122-0.73-0.179-1.115
		c-0.062-0.404-0.042-0.737-0.026-1.083c0.012-0.724,0.084-1.381,0.155-2.065c0.068-0.669,0.139-1.361,0.211-2.064
		c0.079-0.692,0.13-1.418,0.189-2.138c0.048-0.708,0.137-1.469,0.15-2.124c0.027-0.696,0.054-1.381,0.08-2.044
		c0.043-0.669-0.025-1.289-0.029-1.895c-0.013-0.3-0.012-0.598-0.035-0.877c-0.035-0.275-0.069-0.541-0.102-0.796
		c-0.033-0.257-0.063-0.503-0.093-0.738c-0.057-0.218-0.111-0.425-0.161-0.621c-0.081-0.416-0.231-0.691-0.339-0.94
		c-0.048-0.143-0.122-0.186-0.169-0.266c-0.051-0.075-0.102-0.142-0.094-0.131c0.035-0.034-0.092-0.083-0.092-0.076
		c-0.25-0.083-0.384-0.353-0.301-0.603c0.05-0.149,0.167-0.258,0.306-0.303L103.031,75.318z"/>
	<path d="M108.806,75.366c0.005,0.006,0.037,0.009,0.148,0.074c0.11,0.065,0.291,0.17,0.442,0.305
		c0.177,0.13,0.358,0.31,0.546,0.533c0.215,0.211,0.365,0.491,0.564,0.789c0.204,0.298,0.315,0.649,0.491,1.015
		c0.162,0.369,0.237,0.768,0.364,1.184c0.139,0.418,0.147,0.843,0.228,1.286c0.06,0.403,0.122,0.813,0.183,1.223
		c0.068,0.399,0.098,0.867,0.22,1.163c0.117,0.329,0.155,0.649,0.312,0.952c0.145,0.296,0.232,0.61,0.404,0.844
		c0.151,0.247,0.28,0.484,0.447,0.662c0.286,0.392,0.596,0.634,0.822,0.831c0.27,0.222,0.424,0.35,0.424,0.35
		c0.731,0.602,0.836,1.683,0.234,2.415c-0.602,0.731-1.683,0.835-2.414,0.233c-0.08-0.065-0.152-0.136-0.216-0.212l-0.016-0.02
		c0,0-0.141-0.167-0.385-0.458c-0.268-0.332-0.691-0.846-1.028-1.538c-0.196-0.333-0.333-0.719-0.481-1.121
		c-0.173-0.397-0.229-0.834-0.34-1.273c-0.12-0.43-0.12-0.928-0.176-1.397c-0.066-0.505-0.011-0.876-0.006-1.305
		c0.013-0.42,0.027-0.84,0.042-1.254c-0.001-0.371,0.066-0.763,0.011-1.104c-0.043-0.344-0.04-0.704-0.116-1.009
		c-0.086-0.297-0.12-0.618-0.233-0.859c-0.108-0.244-0.183-0.498-0.31-0.667c-0.107-0.191-0.212-0.346-0.314-0.453
		c-0.1-0.13-0.165-0.178-0.21-0.229c-0.047-0.049-0.114-0.083-0.107-0.082c-0.237-0.131-0.323-0.429-0.193-0.666
		c0.109-0.198,0.335-0.291,0.545-0.24L108.806,75.366z"/>
	<path d="M101.632,73.46c0,0,0.08,0.773,0.128,1.944c0.033,0.584,0.047,1.267,0.048,2.001c0.023,0.735-0.03,1.521-0.053,2.313
		c-0.03,0.791-0.146,1.588-0.212,2.34c-0.044,0.375-0.136,0.743-0.199,1.091c-0.07,0.35-0.137,0.681-0.198,0.986
		c-0.063,0.307-0.194,0.593-0.274,0.847c-0.091,0.254-0.171,0.476-0.237,0.658c-0.136,0.367-0.213,0.576-0.213,0.576
		c-0.301,0.812-1.203,1.227-2.015,0.926c-0.812-0.301-1.227-1.203-0.926-2.015c0.027-0.073,0.06-0.143,0.096-0.21l0.138-0.248
		c0,0,0.078-0.141,0.215-0.387c0.07-0.124,0.156-0.274,0.254-0.446c0.093-0.18,0.23-0.354,0.326-0.601
		c0.095-0.248,0.198-0.516,0.307-0.8c0.104-0.288,0.241-0.58,0.338-0.908c0.174-0.664,0.408-1.363,0.563-2.093
		c0.149-0.732,0.329-1.462,0.429-2.164c0.121-0.698,0.221-1.353,0.287-1.918c0.149-1.126,0.203-1.886,0.203-1.886
		c0.019-0.275,0.257-0.482,0.532-0.463c0.246,0.017,0.438,0.209,0.462,0.446L101.632,73.46z"/>
</g>
<g>
	<path d="M475.297,169.567v-0.996c120.471,0,184.397-50.439,235.765-90.969c34.337-27.092,63.991-50.489,101.222-50.489
		c16.598,0,29.11,2.926,37.191,8.699c8.142,5.816,9.021,12.572,9.021,15.207c0,8.274-6.251,18.949-12.891,18.949
		c-3.598,0-7.014-2.244-8.123-5.335c-0.805-2.243-0.167-4.434,1.748-6.012l0.633,0.768c-1.596,1.314-2.107,3.057-1.444,4.907
		c0.957,2.666,4.047,4.676,7.187,4.676c5.559,0,11.896-9.563,11.896-17.954c0-2.345-1.269-22.911-45.217-22.911
		c-36.886,0-66.414,23.298-100.604,50.275C660.19,119.009,596.112,169.567,475.297,169.567z"/>
	<path d="M804.76,1.412c0,0,0.14,0.103,0.401,0.297c0.252,0.185,0.619,0.423,1.075,0.726c0.456,0.301,1.024,0.624,1.636,1.079
		c0.601,0.463,1.251,1.074,1.728,1.933c0.113,0.215,0.204,0.452,0.307,0.684c0.065,0.248,0.139,0.5,0.187,0.76
		c0.019,0.26,0.05,0.542,0.053,0.795c-0.003,0.246-0.006,0.496-0.01,0.749c-0.01,1.012-0.021,2.08-0.033,3.184
		c-0.009,2.208-0.019,4.563-0.028,6.918c0.011,2.356,0.022,4.711,0.033,6.919c0.013,1.104,0.025,2.171,0.038,3.184
		c-0.006,1.028,0.063,1.933-0.006,2.888c-0.101,1.051-0.632,1.853-1.182,2.421c-0.552,0.578-1.118,0.959-1.581,1.283
		c-0.939,0.616-1.539,0.958-1.581,0.971c-0.536,0.12-1.068-0.218-1.188-0.755c-0.118-0.537,0.22-1.068,0.756-1.188
		c-0.05,0,0.532,0.135,1.444-0.163c0.454-0.141,0.977-0.41,1.443-0.849c0.451-0.436,0.867-1.07,0.955-1.794
		c0.082-0.806,0.041-1.819,0.069-2.813c0.013-1.012,0.025-2.08,0.038-3.184c0.011-2.208,0.022-4.563,0.033-6.919
		c-0.01-2.355-0.02-4.71-0.028-6.918c-0.012-1.104-0.023-2.171-0.033-3.184c-0.004-0.253-0.007-0.502-0.01-0.749
		c-0.01-0.238-0.042-0.437-0.058-0.651c-0.045-0.206-0.109-0.403-0.162-0.598c-0.091-0.183-0.164-0.369-0.26-0.541
		c-0.4-0.685-0.967-1.201-1.507-1.597c-0.547-0.395-1.086-0.667-1.556-0.815c-0.472-0.148-0.865-0.19-1.132-0.195
		c-0.271-0.004-0.387,0.042-0.402,0.033l-0.486-0.261c-0.476-0.256-0.655-0.85-0.399-1.326s0.85-0.655,1.326-0.399
		C804.682,1.358,804.724,1.385,804.76,1.412z"/>
	<path d="M820.824,3.323c-0.016,0.008-0.131-0.038-0.402-0.034c-0.267,0.004-0.661,0.047-1.133,0.194
		c-0.469,0.149-1.008,0.421-1.555,0.815c-0.541,0.396-1.107,0.912-1.508,1.596c-0.096,0.172-0.169,0.358-0.26,0.541
		c-0.054,0.195-0.117,0.393-0.164,0.598c-0.015,0.214-0.047,0.414-0.057,0.651c-0.003,0.246-0.006,0.495-0.01,0.749
		c-0.01,1.012-0.021,2.08-0.033,3.184c-0.009,2.208-0.019,4.563-0.028,6.918c0.011,2.356,0.022,4.711,0.033,6.919
		c0.013,1.104,0.025,2.171,0.038,3.184c0.028,0.995-0.013,2.008,0.069,2.813c0.088,0.725,0.504,1.359,0.955,1.795
		c0.466,0.438,0.989,0.708,1.443,0.849c0.912,0.298,1.494,0.164,1.444,0.163c0.536,0.119,0.874,0.651,0.756,1.188
		c-0.119,0.537-0.651,0.875-1.188,0.755c-0.042-0.013-0.642-0.355-1.582-0.971c-0.462-0.324-1.029-0.705-1.58-1.283
		c-0.55-0.568-1.082-1.37-1.182-2.421c-0.068-0.955,0-1.86-0.006-2.888c0.013-1.012,0.025-2.08,0.038-3.184
		c0.011-2.208,0.022-4.563,0.033-6.919c-0.01-2.355-0.02-4.711-0.028-6.918c-0.012-1.104-0.023-2.171-0.033-3.184
		c-0.004-0.253-0.007-0.502-0.01-0.749c0.003-0.253,0.034-0.536,0.053-0.796c0.049-0.26,0.121-0.513,0.188-0.76
		c0.103-0.232,0.193-0.469,0.307-0.684c0.477-0.858,1.128-1.469,1.728-1.932c0.612-0.455,1.181-0.777,1.637-1.078
		c0.456-0.303,0.823-0.542,1.075-0.726c0.262-0.194,0.401-0.298,0.401-0.298c0.435-0.321,1.048-0.23,1.369,0.205
		s0.23,1.047-0.204,1.369c-0.037,0.027-0.075,0.051-0.114,0.073L820.824,3.323z"/>
	<path d="M815.312,19.296c0,0-0.088-0.137-0.241-0.207c-0.152-0.065-0.371-0.041-0.634-0.061c-0.524-0.027-1.226-0.044-1.925-0.048
		c-0.7,0.005-1.401,0.026-1.926,0.053c-0.263,0.013-0.481,0-0.634,0.083c-0.153,0.069-0.241,0.18-0.241,0.18
		c-0.275,0.348-0.779,0.407-1.127,0.132c-0.348-0.275-0.406-0.78-0.132-1.127c0.275-0.348,0.779-0.407,1.127-0.132
		c0.05,0.039,0.095,0.085,0.132,0.132c0,0,0.088,0.111,0.241,0.18c0.152,0.083,0.371,0.07,0.634,0.083
		c0.524,0.027,1.226,0.047,1.926,0.053c0.699-0.004,1.4-0.021,1.925-0.048c0.263-0.02,0.481,0.005,0.634-0.061
		c0.153-0.071,0.241-0.207,0.241-0.207c0.274-0.428,0.845-0.553,1.273-0.278c0.428,0.275,0.552,0.845,0.277,1.273
		s-0.846,0.553-1.272,0.277C815.475,19.501,815.381,19.403,815.312,19.296z"/>
	<path d="M689.885,68.544c0,0-0.021-0.025-0.063-0.074c-0.07-0.058-0.175-0.145-0.313-0.259c-0.235-0.217-0.531-0.53-0.897-0.917
		c-0.697-0.806-1.669-1.974-2.306-3.618c-0.611-1.64-0.757-3.763-0.036-5.917c0.689-2.165,2.04-4.286,3.598-6.467
		c3.162-4.38,7.419-8.981,12.324-13.545c2.475-2.258,5.04-4.577,8.028-6.53c0.386-0.244,0.755-0.457,1.301-0.621
		c0.032-0.011,0.151-0.008,0.264,0.016c0.124,0.021,0.158,0.062,0.241,0.096c0.128,0.076,0.238,0.164,0.324,0.257
		c0.186,0.185,0.314,0.384,0.443,0.583c0.478,0.807,0.766,1.665,1.021,2.529c0.489,1.734,0.78,3.512,0.954,5.297
		c0.67,7.158-0.404,14.36-2.264,20.791c-1.877,6.446-4.559,12.15-7.223,16.801c-2.683,4.649-5.344,8.26-7.269,10.726
		c-0.96,1.236-1.745,2.185-2.286,2.825c-0.541,0.64-0.831,0.982-0.831,0.982c-0.177,0.21-0.491,0.236-0.701,0.059
		c-0.21-0.178-0.235-0.492-0.059-0.702c0.002-0.002,0.004-0.004,0.005-0.006l0.009-0.008c0,0,0.292-0.333,0.841-0.957
		c0.549-0.623,1.345-1.546,2.32-2.751c1.963-2.4,4.621-5.963,7.34-10.537c2.702-4.573,5.421-10.208,7.269-16.603
		c1.851-6.368,2.923-13.506,2.271-20.564c-0.172-1.757-0.443-3.513-0.941-5.188c-0.251-0.832-0.548-1.664-0.979-2.374
		c-0.188-0.334-0.555-0.696-0.671-0.653c-0.283,0.109-0.703,0.306-1.047,0.545c-2.867,1.91-5.434,4.26-7.861,6.521
		c-4.828,4.573-9.03,9.207-12.085,13.521c-1.521,2.167-2.805,4.248-3.415,6.245c-0.621,1.972-0.566,3.891,0.286,5.026
		c0.856,1.122,1.982,1.44,2.705,1.462c0.366,0.014,0.65-0.031,0.816-0.088c0.068-0.039,0.102-0.067,0.144-0.088
		c0.063-0.015,0.095-0.022,0.095-0.022l0.024-0.006c1.396-0.332,2.796,0.53,3.128,1.925s-0.53,2.796-1.925,3.128
		C691.483,69.619,690.498,69.26,689.885,68.544z"/>
	<circle cx="694.589" cy="91.746" r="3.566"/>
	<circle cx="720.384" cy="61.589" r="3.291"/>
	<circle cx="727.199" cy="51.125" r="2.832"/>
	<circle cx="734.451" cy="38.458" r="2.557"/>
	<circle cx="739.959" cy="27.611" r="2.19"/>
	<circle cx="864.043" cy="56.146" r="1.727"/>
	<circle cx="825.468" cy="65.615" r="2.189"/>
	<path d="M878.422,50.56c1.05,0.599-0.383,3.488,0.826,3.488s2.97-2.279,2.97-3.488c0-2.111-2.908-3.075-4.117-3.075
		S877.215,49.872,878.422,50.56z"/>
	<path d="M880.029,59.831c0,0-0.53-0.14-1.444-0.418c-0.456-0.139-0.989-0.383-1.623-0.628c-0.652-0.228-1.309-0.587-1.997-1.045
		c-1.392-0.876-2.962-1.968-4.6-3.192c-1.634-1.228-3.349-2.573-5.026-3.958c-3.366-2.757-6.625-5.632-9.083-7.762
		c-0.297-0.279-0.626-0.493-0.876-0.771c-0.254-0.272-0.495-0.531-0.722-0.774c-0.456-0.481-0.855-0.901-1.183-1.247
		c-0.662-0.689-1.04-1.083-1.04-1.083s0.472,0.276,1.277,0.797c0.396,0.268,0.879,0.593,1.431,0.966
		c0.275,0.188,0.566,0.389,0.875,0.601c0.313,0.207,0.573,0.502,0.889,0.758c2.462,2.133,5.715,5.002,9.063,7.745
		c1.67,1.378,3.371,2.713,4.99,3.93c1.621,1.212,3.17,2.289,4.534,3.147c0.337,0.221,0.69,0.379,0.984,0.603
		c0.291,0.232,0.57,0.439,0.84,0.616c0.541,0.361,0.999,0.71,1.416,0.947C879.563,59.54,880.029,59.831,880.029,59.831z"/>
	<path d="M832.799,67.474c0,0-2.269-4.048-7.331-4.048v4.378C825.468,67.804,826.878,64.582,832.799,67.474z"/>
	<path d="M833.465,39.844c0,0,0.112,0.073,0.323,0.21c0.208,0.14,0.497,0.345,0.859,0.62c0.357,0.278,0.784,0.628,1.25,1.068
		c0.456,0.454,0.977,0.961,1.45,1.657c0.463,0.684,0.972,1.513,1.105,2.629c0.162,1.103-0.223,2.349-0.926,3.233
		c-0.367,0.376-0.764,0.829-1.155,1.112c-0.363,0.285-0.725,0.576-1.138,0.864c-0.807,0.593-1.604,1.115-2.424,1.646
		c-3.26,2.09-6.563,4.015-8.791,5.747c-0.559,0.429-1.039,0.847-1.451,1.23c-0.384,0.396-0.744,0.738-0.95,1.056
		c-0.111,0.155-0.225,0.291-0.302,0.415c-0.064,0.127-0.118,0.235-0.163,0.322c-0.09,0.175-0.139,0.268-0.139,0.268l-0.052,0.099
		c-0.125,0.242-0.423,0.336-0.664,0.21c-0.23-0.12-0.326-0.398-0.225-0.633c0,0,0.053-0.124,0.154-0.356
		c0.052-0.116,0.115-0.259,0.191-0.427c0.088-0.157,0.204-0.319,0.328-0.511c0.237-0.398,0.603-0.785,1.008-1.248
		c0.422-0.439,0.914-0.912,1.474-1.39c2.229-1.928,5.473-4.05,8.563-6.271c0.765-0.554,1.543-1.127,2.231-1.692
		c0.349-0.27,0.703-0.585,1.053-0.89c0.345-0.282,0.518-0.562,0.778-0.824c0.371-0.571,0.48-1.099,0.385-1.632
		c-0.078-0.537-0.427-1.086-0.793-1.558c-0.359-0.482-0.813-0.882-1.202-1.23c-0.404-0.343-0.782-0.622-1.101-0.842
		c-0.318-0.217-0.577-0.38-0.748-0.482c-0.172-0.099-0.264-0.152-0.264-0.152l-0.034-0.02c-0.625-0.361-0.84-1.16-0.479-1.786
		c0.362-0.625,1.161-0.84,1.787-0.479C833.425,39.818,833.447,39.832,833.465,39.844z"/>
	<path d="M890.039,49.565c0,0,0.071,0.035,0.202,0.101c0.126,0.067,0.302,0.165,0.518,0.3c0.423,0.289,1.046,0.681,1.653,1.554
		c0.292,0.442,0.549,1.111,0.486,1.832c-0.047,0.746-0.432,1.315-0.804,1.775c-0.202,0.2-0.397,0.425-0.621,0.6
		c-0.19,0.149-0.347,0.288-0.579,0.451c-0.442,0.331-0.861,0.589-1.282,0.85c-0.836,0.513-1.562,0.95-2.004,1.55
		c-0.239,0.289-0.406,0.626-0.55,0.963c-0.133,0.343-0.248,0.684-0.313,1.019c-0.153,0.66-0.216,1.246-0.247,1.655
		c-0.032,0.411-0.051,0.646-0.051,0.646l-0.002,0.027c-0.022,0.273-0.262,0.478-0.536,0.456c-0.256-0.021-0.451-0.233-0.458-0.483
		c0,0-0.006-0.249-0.017-0.683c-0.011-0.435-0.014-1.062,0.082-1.831c0.034-0.383,0.123-0.806,0.246-1.25
		c0.134-0.443,0.312-0.922,0.603-1.371c0.557-0.937,1.479-1.607,2.225-2.183c0.374-0.289,0.749-0.584,1.044-0.857
		c0.147-0.123,0.328-0.316,0.492-0.473c0.132-0.127,0.218-0.273,0.33-0.398c0.156-0.258,0.254-0.48,0.21-0.583
		c-0.021-0.111-0.063-0.211-0.187-0.361c-0.264-0.297-0.697-0.562-0.991-0.705c-0.151-0.073-0.274-0.126-0.353-0.156
		c-0.074-0.027-0.114-0.042-0.114-0.042l-0.013-0.004c-0.679-0.247-1.028-0.997-0.781-1.675c0.247-0.678,0.997-1.028,1.676-0.781
		C889.949,49.524,889.996,49.544,890.039,49.565z"/>
	<path d="M899.959,37.202c0,0-0.048-0.024-0.136-0.069c-0.063-0.033-0.165-0.084-0.335-0.152c-0.157-0.074-0.363-0.134-0.595-0.218
		c-0.234-0.054-0.503-0.154-0.793-0.187c-0.295-0.066-0.604-0.073-0.936-0.089c-0.314,0.03-0.672,0.018-0.989,0.135
		c-0.349,0.056-0.643,0.25-0.979,0.399c-0.27,0.251-0.623,0.421-0.85,0.767l-0.39,0.465l-0.303,0.553
		c-0.096,0.187-0.215,0.36-0.294,0.556c-0.072,0.202-0.143,0.402-0.213,0.598c-0.145,0.392-0.29,0.773-0.352,1.167
		c-0.084,0.387-0.163,0.753-0.236,1.091c-0.076,0.339-0.082,0.665-0.121,0.947c-0.029,0.285-0.056,0.532-0.078,0.737
		c-0.044,0.41-0.069,0.644-0.069,0.644l-0.005,0.045c-0.029,0.273-0.274,0.47-0.547,0.441c-0.252-0.027-0.439-0.239-0.443-0.487
		c0,0-0.004-0.245-0.011-0.675c-0.003-0.216-0.007-0.478-0.011-0.778c0.005-0.301-0.029-0.64,0.007-1.013
		c0.034-0.375,0.072-0.78,0.111-1.209c0.018-0.432,0.124-0.884,0.235-1.356c0.055-0.236,0.109-0.477,0.166-0.721
		c0.064-0.242,0.182-0.481,0.272-0.727l0.304-0.74l0.447-0.707c0.264-0.495,0.734-0.873,1.131-1.286
		c0.48-0.326,0.952-0.678,1.486-0.854c0.513-0.242,1.043-0.313,1.537-0.409c0.494-0.047,0.967-0.081,1.388-0.045
		c0.432,0.003,0.805,0.083,1.146,0.125c0.332,0.073,0.625,0.125,0.862,0.2c0.23,0.061,0.437,0.13,0.58,0.183
		c0.119,0.043,0.183,0.066,0.183,0.066c0.742,0.271,1.125,1.092,0.854,1.834c-0.271,0.742-1.093,1.124-1.834,0.854
		c-0.052-0.019-0.102-0.041-0.149-0.064L899.959,37.202z"/>
	<path d="M711.604,31.25c0.077-0.046,0.457,0.306,0.64,0.637c0.427,0.706,0.725,1.537,0.974,2.366
		c0.103,0.348,0.192,0.702,0.279,1.057c-0.633,0.573-1.465,0.93-2.383,0.93c-1.547,0-2.852-0.991-3.346-2.368
		c0.908-0.727,1.833-1.435,2.802-2.082C710.911,31.553,711.335,31.357,711.604,31.25z"/>
	<path d="M715.98,69.248c0,0-0.312,0.369-0.858,1.017c-0.545,0.647-1.323,1.572-2.287,2.671c-0.957,1.101-2.072,2.385-3.267,3.76
		c-1.188,1.382-2.527,2.792-3.828,4.234c-1.31,1.432-2.62,2.863-3.849,4.205c-1.289,1.292-2.491,2.496-3.522,3.529
		c-2.058,2.061-3.429,3.434-3.429,3.434c-0.193,0.194-0.509,0.194-0.703,0c-0.185-0.185-0.193-0.479-0.027-0.674l0.026-0.03
		c0,0,1.258-1.463,3.144-3.658c0.94-1.095,2.039-2.372,3.214-3.741c1.119-1.421,2.313-2.938,3.505-4.455
		c1.181-1.525,2.4-3.017,3.473-4.472c1.079-1.448,2.087-2.799,2.95-3.957c0.867-1.152,1.575-2.132,2.071-2.82
		c0.495-0.686,0.779-1.078,0.779-1.078l0.003-0.004c0.536-0.741,1.57-0.907,2.312-0.371c0.74,0.536,0.905,1.571,0.37,2.311
		C716.033,69.183,716.006,69.217,715.98,69.248z"/>
	<path d="M847.777,76.29c0-0.006-0.128,0.042-0.092,0.076c0.008-0.011-0.043,0.056-0.094,0.131c-0.048,0.08-0.122,0.123-0.169,0.266
		c-0.108,0.249-0.259,0.524-0.339,0.94c-0.052,0.196-0.104,0.403-0.161,0.621c-0.03,0.234-0.062,0.481-0.094,0.738
		c-0.032,0.255-0.066,0.521-0.102,0.796c-0.022,0.28-0.022,0.578-0.035,0.877c-0.005,0.607-0.073,1.227-0.029,1.896
		c0.025,0.663,0.053,1.348,0.08,2.043c0.014,0.655,0.102,1.415,0.15,2.124c0.059,0.72,0.11,1.446,0.188,2.138
		c0.072,0.703,0.143,1.395,0.212,2.063c0.07,0.684,0.144,1.341,0.154,2.065c0.016,0.346,0.036,0.679-0.025,1.083
		c-0.058,0.384-0.059,0.754-0.18,1.114c-0.119,0.36-0.244,0.707-0.373,1.033c-0.133,0.312-0.292,0.529-0.429,0.776
		c-0.143,0.233-0.276,0.451-0.4,0.653c-0.121,0.166-0.234,0.318-0.335,0.456c-0.409,0.552-0.644,0.867-0.644,0.867
		c-0.672,0.906-1.951,1.096-2.856,0.424c-0.906-0.672-1.097-1.952-0.425-2.857c0.053-0.071,0.109-0.137,0.168-0.199l0.065-0.066
		c0,0,0.23-0.237,0.634-0.652c0.101-0.104,0.214-0.219,0.336-0.344c0.091-0.113,0.188-0.235,0.294-0.365
		c0.094-0.126,0.244-0.271,0.319-0.404c0.062-0.129,0.133-0.262,0.221-0.401c0.091-0.139,0.096-0.35,0.161-0.533
		c0.07-0.167,0.092-0.438,0.114-0.713c0.064-0.516,0.084-1.166,0.104-1.833c0.021-0.682,0.044-1.388,0.066-2.104
		c0.015-0.727,0.06-1.444,0.097-2.167c0.048-0.734,0.055-1.417,0.137-2.182c0.067-0.724,0.135-1.437,0.2-2.126
		c0.048-0.686,0.207-1.36,0.298-1.989c0.057-0.316,0.098-0.621,0.162-0.918c0.078-0.297,0.154-0.584,0.228-0.859
		c0.073-0.273,0.144-0.536,0.21-0.785c0.102-0.249,0.196-0.485,0.286-0.707c0.148-0.44,0.403-0.821,0.6-1.125
		c0.078-0.153,0.241-0.285,0.346-0.396c0.112-0.109,0.195-0.203,0.363-0.283c0.315-0.163,0.372-0.145,0.372-0.145l0.208,0.065
		c0.251,0.079,0.39,0.347,0.311,0.598C848.033,76.132,847.915,76.243,847.777,76.29z"/>
	<path d="M842.261,76.242c0.008-0.001-0.06,0.033-0.106,0.082c-0.047,0.051-0.11,0.098-0.21,0.229
		c-0.103,0.106-0.208,0.262-0.314,0.453c-0.128,0.169-0.201,0.423-0.311,0.667c-0.113,0.241-0.147,0.562-0.234,0.859
		c-0.075,0.305-0.071,0.666-0.115,1.009c-0.056,0.341,0.013,0.733,0.011,1.104c0.014,0.414,0.028,0.834,0.042,1.254
		c0.005,0.429,0.06,0.799-0.006,1.305c-0.057,0.469-0.057,0.968-0.176,1.398c-0.112,0.438-0.169,0.875-0.341,1.273
		c-0.148,0.402-0.285,0.787-0.481,1.121c-0.338,0.691-0.762,1.206-1.029,1.538c-0.245,0.291-0.386,0.458-0.386,0.458l-0.01,0.011
		c-0.611,0.725-1.692,0.817-2.417,0.207s-0.817-1.692-0.207-2.417c0.066-0.079,0.146-0.156,0.223-0.22c0,0,0.153-0.127,0.424-0.349
		c0.227-0.196,0.536-0.438,0.822-0.831c0.166-0.178,0.296-0.415,0.446-0.662c0.172-0.233,0.26-0.548,0.404-0.844
		c0.156-0.303,0.194-0.623,0.313-0.952c0.121-0.295,0.151-0.763,0.219-1.163c0.062-0.41,0.123-0.82,0.184-1.224
		c0.08-0.442,0.088-0.868,0.227-1.286c0.128-0.416,0.202-0.815,0.365-1.183c0.176-0.366,0.288-0.718,0.491-1.015
		c0.199-0.298,0.351-0.578,0.565-0.789c0.188-0.223,0.369-0.402,0.546-0.533c0.15-0.135,0.332-0.24,0.442-0.305
		c0.11-0.065,0.143-0.068,0.147-0.074l0.119-0.03c0.263-0.064,0.528,0.097,0.593,0.359C842.555,75.916,842.45,76.138,842.261,76.242
		z"/>
	<path d="M849.957,73.467c0,0,0.053,0.76,0.202,1.886c0.065,0.565,0.166,1.22,0.287,1.918c0.099,0.701,0.279,1.431,0.429,2.163
		c0.155,0.73,0.39,1.429,0.563,2.093c0.097,0.329,0.233,0.62,0.338,0.908c0.109,0.284,0.212,0.552,0.308,0.8
		c0.095,0.246,0.233,0.42,0.325,0.601c0.099,0.172,0.184,0.323,0.255,0.446c0.137,0.247,0.215,0.387,0.215,0.387l0.134,0.241
		c0.421,0.756,0.149,1.711-0.607,2.132c-0.757,0.42-1.711,0.148-2.132-0.608c-0.038-0.068-0.073-0.146-0.101-0.217
		c0,0-0.077-0.209-0.214-0.577c-0.064-0.182-0.145-0.404-0.237-0.658c-0.079-0.253-0.211-0.541-0.273-0.847
		c-0.062-0.305-0.128-0.637-0.198-0.987c-0.063-0.348-0.155-0.715-0.198-1.091c-0.067-0.751-0.183-1.549-0.213-2.34
		c-0.023-0.791-0.076-1.578-0.054-2.313c0.001-0.734,0.016-1.417,0.049-2.001c0.048-1.171,0.128-1.944,0.128-1.944l0.001-0.01
		c0.028-0.274,0.274-0.474,0.548-0.445C849.756,73.031,849.94,73.23,849.957,73.467z"/>
</g>
<g>
	<path d="M289.808,77.781l-2.549,4.222l-0.621-0.355c0.365-0.626,0.563-1.493,0.594-2.602c0.02-0.718-0.204-1.49-0.67-2.314
		c-0.466-0.825-1.189-1.588-2.17-2.29c-1.771-1.268-3.101-1.282-3.988-0.042c-0.507,0.709-0.662,1.387-0.465,2.034
		c0.181,0.588,0.479,1.286,0.894,2.095l2.832,5.027c1.099,2.216,1.11,4.081,0.032,5.595c-2.207,3.083-5.577,3.001-10.112-0.245
		c-0.685-0.49-1.277-1.057-1.775-1.7c-0.588-0.766-1.058-1.566-1.407-2.4c-0.15-0.364-0.324-0.616-0.521-0.757
		c-0.445-0.318-1.007-0.086-1.686,0.696l-0.525-0.465l3.521-3.91l0.537,0.474c-0.791,1.512-0.738,3.214,0.159,5.105
		c0.416,0.875,1.12,1.667,2.112,2.378c1.925,1.378,3.359,1.407,4.303,0.088c0.73-1.02,0.738-2.229,0.024-3.626l-2.7-4.674
		c-0.671-1.159-1.02-2.251-1.048-3.277c-0.028-0.984,0.256-1.897,0.853-2.739c1.051-1.468,2.443-2.187,4.176-2.154
		c1.727,0.033,3.46,0.672,5.2,1.918c0.925,0.662,1.619,1.344,2.082,2.044c0.458,0.691,0.904,1.191,1.337,1.501
		c0.417,0.299,0.757,0.319,1.02,0.06L289.808,77.781z"/>
	<path d="M293.412,82.823c1.047-0.414,2.238-0.411,3.572,0.008c1.009,0.307,1.955,0.746,2.837,1.317
		c5.705,3.694,6.881,8.129,3.53,13.305l-3.296,5.09c-0.885,1.367-0.547,2.557,1.016,3.568l-0.387,0.598l-5.859-3.794
		c-0.195-0.126-0.295-0.422-0.3-0.888c-0.005-0.465-0.062-0.698-0.171-0.7c-1.49,0.144-2.954-0.25-4.39-1.179
		c-5.225-3.383-6.878-6.556-4.96-9.518c2.224-3.434,6.68-2.985,13.37,1.346l1.318,0.854l0.87-1.343
		c1.829-2.824,1.453-5.071-1.127-6.742c-0.7-0.453-1.442-0.824-2.226-1.112c-0.506-0.189-0.835-0.168-0.985,0.064
		c-0.103,0.159-0.122,0.415-0.056,0.769c0.128,0.568,0.03,1.105-0.297,1.609c-0.322,0.497-0.771,0.806-1.347,0.93
		c-0.577,0.123-1.113,0.024-1.609-0.297c-0.497-0.321-0.806-0.77-0.93-1.347s-0.025-1.116,0.295-1.62
		C292.55,83.324,292.928,83.017,293.412,82.823z M297.497,92.259c-3.239-2.097-5.841-1.628-7.807,1.407
		c-1.66,2.563-1.44,4.525,0.66,5.885c1.388,0.898,2.846,1.259,4.375,1.083c0.745-1.239,1.547-2.524,2.409-3.854l2.169-3.351
		L297.497,92.259z"/>
	<path d="M312.545,96.303c0.786-1.425,0.365-2.587-1.264-3.485l0.344-0.624l6.077,3.352c0.182,0.101,0.31,0.353,0.382,0.758
		c0.072,0.405,0.13,0.62,0.172,0.643c1.48-0.157,2.783,0.074,3.907,0.694c5.294,2.92,6.879,6.306,4.754,10.158l-4.205,7.622
		c-0.786,1.426-0.365,2.588,1.264,3.486l-0.344,0.623l-9.519-5.25l0.344-0.624c1.459,0.806,2.582,0.495,3.368-0.931l4.036-7.317
		c2.007-3.64,1.993-6.021-0.043-7.144c-1.048-0.578-2.289-0.77-3.724-0.577c-0.111,0.271-0.332,0.708-0.665,1.31l-5.713,10.359
		c-0.786,1.425-0.45,2.541,1.01,3.345l-0.344,0.624l-9.519-5.251l0.344-0.624c1.629,0.898,2.836,0.635,3.623-0.79L312.545,96.303z"
		/>
	<path d="M347.98,124.873c-1.436,3.18-5.12,3.429-11.054,0.749l-10.86-4.905l0.293-0.648c1.633,0.737,2.773,0.474,3.419-0.792
		l5.141-11.384c0.574-1.271,0.014-2.29-1.682-3.056l0.293-0.649l8.317,3.756c5.934,2.68,8.424,5.074,7.471,7.185
		c-0.947,2.098-3.214,2.639-6.801,1.625l-0.042,0.093C347.256,119.739,349.091,122.414,347.98,124.873z M337.22,124.973
		c2.543,1.148,4.435,0.35,5.675-2.396c1.24-2.745,0.19-4.939-3.151-6.581l-1.96-0.885l-3.795,8.403L337.22,124.973z
		 M338.077,114.461l0.688,0.311c3.108,1.404,5.18,0.96,6.214-1.331c0.825-1.827-0.316-3.443-3.424-4.847l-0.689-0.311
		L338.077,114.461z"/>
	<path d="M351.378,129.512c-1.028-2.075-1.022-4.545,0.016-7.41c1.035-2.855,2.623-4.752,4.763-5.689
		c2.124-0.933,4.656-0.866,7.598,0.199c2.938,1.065,4.925,2.637,5.961,4.715c1.043,2.091,1.047,4.564,0.012,7.42
		c-1.038,2.865-2.617,4.765-4.735,5.699c-2.128,0.932-4.669,0.862-7.625-0.209C354.403,133.162,352.406,131.587,351.378,129.512z
		 M361.443,132.997c0.909-1.003,1.924-3.053,3.046-6.149c1.125-3.105,1.659-5.33,1.601-6.673c-0.059-1.328-0.918-2.293-2.578-2.895
		c-1.883-0.683-3.29-0.377-4.221,0.916c-0.746,1.036-1.632,2.971-2.659,5.804c-1.026,2.833-1.585,4.887-1.677,6.16
		c-0.113,1.59,0.771,2.726,2.654,3.408C359.27,134.17,360.547,133.979,361.443,132.997z"/>
	<path d="M384.154,123.462c2.811,0.784,4.849,1.948,6.114,3.494c1.52,1.858,2.088,3.476,1.704,4.854
		c-0.655,2.349-2.831,3.717-6.527,4.105c0.838,0.278,1.387,0.628,1.648,1.048l1.87,5.367c0.148,0.424,0.794,0.796,1.938,1.114
		l-0.189,0.68c-1.36-0.158-2.663-0.41-3.91-0.758c-2.237-0.624-3.648-2.14-4.235-4.548l-0.909-3.726l-2.71-0.756l-0.838,3.005
		c-0.438,1.568,0.24,2.603,2.033,3.103l-0.191,0.687l-10.758-3l0.191-0.687c1.793,0.5,2.908-0.034,3.346-1.603l3.264-11.704
		c0.316-1.386-0.39-2.32-2.117-2.802l0.191-0.687L384.154,123.462z M379.139,133.65l2.017,0.563c2.689,0.75,4.515-0.598,5.476-4.044
		c0.91-3.264,0.021-5.271-2.669-6.021l-2.017-0.563L379.139,133.65z"/>
	<path d="M398.473,130.466c0.308-1.597-0.451-2.57-2.275-2.922l0.134-0.698l6.805,1.312c0.205,0.039,0.403,0.24,0.597,0.603
		s0.314,0.549,0.362,0.558c1.358-0.605,2.667-0.787,3.926-0.544c5.929,1.143,8.478,3.87,7.646,8.184l-1.645,8.537
		c-0.308,1.596,0.451,2.57,2.275,2.922l-0.135,0.698l-10.66-2.055l0.135-0.698c1.634,0.314,2.605-0.326,2.913-1.922l1.579-8.195
		c0.786-4.075,0.038-6.333-2.242-6.772c-1.173-0.227-2.412-0.026-3.714,0.6c-0.022,0.291-0.098,0.774-0.228,1.449l-2.236,11.601
		c-0.308,1.596,0.355,2.552,1.99,2.866l-0.135,0.698l-10.66-2.054l0.135-0.698c1.824,0.352,2.89-0.271,3.198-1.867L398.473,130.466z
		"/>
	<path d="M432.537,136.346c0.113-1.624-0.759-2.5-2.614-2.629l0.049-0.71l6.958,0.483c0.208,0.015,0.433,0.186,0.675,0.513
		c0.242,0.328,0.387,0.493,0.435,0.496c1.251-0.748,2.512-1.078,3.783-0.989c3.604,0.25,6.063,1.198,7.376,2.843
		c1.407-1.456,3.123-2.113,5.148-1.973c6.03,0.419,8.893,2.822,8.588,7.209l-0.603,8.684c-0.113,1.623,0.758,2.5,2.614,2.629
		l-0.049,0.71l-10.843-0.754l0.049-0.71c1.662,0.115,2.55-0.639,2.663-2.262l0.579-8.335c0.288-4.146-0.728-6.3-3.047-6.461
		c-1.807-0.125-3.37,0.497-4.689,1.866c0.639,1.001,0.898,2.376,0.777,4.125l-0.578,8.321c-0.113,1.623,0.662,2.493,2.324,2.608
		l-0.049,0.71l-10.553-0.732l0.049-0.711c1.662,0.115,2.55-0.639,2.663-2.262l0.579-8.335c0.288-4.146-0.728-6.3-3.047-6.461
		c-1.194-0.083-2.4,0.266-3.62,1.045c0.014,0.292-0.003,0.781-0.051,1.468l-0.82,11.8c-0.113,1.623,0.662,2.493,2.324,2.608
		l-0.049,0.71l-10.843-0.753l0.049-0.71c1.855,0.129,2.84-0.619,2.953-2.242L432.537,136.346z"/>
	<path d="M470.24,137.315c0.646-0.921,1.641-1.573,2.983-1.958c1.01-0.299,2.04-0.452,3.091-0.461
		c6.788-0.058,10.209,2.994,10.26,9.152l0.052,6.058c0.014,1.627,0.95,2.433,2.81,2.417l0.006,0.712l-6.973,0.059
		c-0.232,0.002-0.479-0.189-0.738-0.574c-0.261-0.386-0.436-0.549-0.527-0.49c-1.164,0.939-2.601,1.417-4.311,1.431
		c-6.217,0.053-9.34-1.684-9.37-5.209c-0.034-4.087,3.929-6.163,11.89-6.23l1.568-0.013l-0.014-1.599
		c-0.027-3.36-1.577-5.027-4.646-5.002c-0.833,0.008-1.655,0.106-2.467,0.297c-0.527,0.121-0.789,0.319-0.787,0.596
		c0.001,0.188,0.127,0.412,0.376,0.672c0.42,0.403,0.632,0.905,0.637,1.506c0.005,0.591-0.199,1.096-0.612,1.516
		c-0.413,0.42-0.915,0.633-1.506,0.638c-0.59,0.005-1.096-0.199-1.516-0.612s-0.635-0.917-0.645-1.513
		C469.797,138.207,469.943,137.744,470.24,137.315z M478.837,142.938c-3.854,0.032-5.767,1.854-5.736,5.467
		c0.026,3.051,1.288,4.565,3.786,4.545c1.651-0.015,3.066-0.516,4.244-1.503c-0.061-1.443-0.098-2.956-0.11-4.539l-0.034-3.987
		L478.837,142.938z"/>
	<path d="M502.566,134.283c2.908-0.196,5.216,0.224,6.921,1.259c2.05,1.246,3.146,2.926,3.288,5.039
		c0.143,2.114-0.726,3.813-2.605,5.094c-1.499,1.019-3.737,1.628-6.713,1.829l-3.537,0.238l0.116,1.725
		c0.109,1.623,1.092,2.373,2.947,2.248l0.048,0.71l-11.133,0.75l-0.048-0.71c1.855-0.125,2.729-1,2.619-2.623l-0.816-12.111
		c-0.163-1.411-1.139-2.057-2.926-1.937l-0.048-0.71L502.566,134.283z M499.872,147.031l3.536-0.238
		c2.783-0.188,4.051-2.132,3.801-5.833c-0.28-4.165-1.813-6.154-4.596-5.967l-3.536,0.238L499.872,147.031z"/>
	<path d="M540.303,135.119c-0.346,0.497-0.805,0.792-1.379,0.882c-0.574,0.091-1.098-0.037-1.57-0.381
		c-0.473-0.345-0.755-0.804-0.846-1.378c-0.061-0.387-0.022-0.751,0.115-1.091c0.154-0.514,0.221-0.838,0.2-0.972
		c-0.053-0.335-0.313-0.571-0.78-0.708c-1.115-0.329-2.272-0.399-3.473-0.21c-1.979,0.312-3.065,1.259-3.257,2.843
		c-0.153,1.269,0.005,3.392,0.474,6.37c0.55,3.49,1.058,5.596,1.523,6.316c0.868,1.343,2.187,1.875,3.956,1.597
		c1.764-0.278,3.309-0.938,4.635-1.979c0.88-0.692,1.613-1.483,2.198-2.374l0.573,0.424c-0.62,0.945-1.396,1.783-2.33,2.513
		c-1.432,1.117-3.087,1.823-4.966,2.119c-3.122,0.492-5.632,0.076-7.531-1.246c-1.903-1.322-3.092-3.489-3.566-6.502
		c-0.473-3.002,0.003-5.432,1.425-7.287c1.41-1.844,3.662-3.009,6.755-3.496c1.97-0.31,3.68-0.251,5.129,0.178
		c1.86,0.55,2.893,1.475,3.098,2.775C540.775,134.085,540.648,134.621,540.303,135.119z"/>
	<path d="M547.658,144.528c-1.983-1.196-3.309-3.281-3.975-6.255c-0.664-2.964-0.347-5.417,0.953-7.359
		c1.287-1.93,3.458-3.236,6.512-3.921c3.05-0.684,5.57-0.428,7.563,0.767c2.004,1.201,3.339,3.284,4.003,6.248
		c0.666,2.974,0.358,5.425-0.925,7.354c-1.292,1.93-3.473,3.239-6.54,3.927C552.172,145.978,549.642,145.725,547.658,144.528z
		 M558.019,142.05c0.227-1.334-0.021-3.608-0.741-6.823c-0.723-3.224-1.47-5.386-2.242-6.487c-0.765-1.088-2.008-1.438-3.73-1.052
		c-1.954,0.438-2.977,1.452-3.065,3.044c-0.071,1.274,0.223,3.383,0.882,6.323s1.293,4.973,1.901,6.095
		c0.761,1.401,2.117,1.883,4.071,1.444C556.816,144.208,557.792,143.36,558.019,142.05z"/>
	<path d="M565.65,127.379c-0.51-1.545-1.646-2.026-3.412-1.444l-0.223-0.676l6.621-2.183c0.197-0.065,0.47,0.008,0.817,0.22
		c0.348,0.211,0.545,0.31,0.591,0.294c0.875-1.165,1.917-1.946,3.126-2.346c3.43-1.13,6.063-1.183,7.9-0.157
		c0.752-1.879,2.091-3.136,4.018-3.771c5.738-1.892,9.296-0.75,10.672,3.426l2.724,8.263c0.51,1.545,1.646,2.025,3.412,1.443
		l0.223,0.677l-10.317,3.401l-0.223-0.677c1.581-0.521,2.118-1.554,1.608-3.099l-2.614-7.932c-1.301-3.945-3.055-5.555-5.262-4.826
		c-1.72,0.566-2.931,1.732-3.633,3.499c0.97,0.685,1.729,1.858,2.277,3.523l2.61,7.917c0.51,1.545,1.555,2.058,3.137,1.536
		l0.223,0.676l-10.042,3.31l-0.223-0.676c1.581-0.521,2.118-1.555,1.608-3.1l-2.614-7.931c-1.301-3.945-3.055-5.554-5.262-4.827
		c-1.136,0.375-2.12,1.153-2.954,2.335c0.123,0.266,0.293,0.725,0.508,1.378l3.701,11.229c0.51,1.545,1.555,2.057,3.137,1.535
		l0.223,0.676l-10.318,3.401l-0.223-0.677c1.766-0.582,2.395-1.645,1.885-3.189L565.65,127.379z"/>
	<path d="M608.202,108.196c2.658-1.2,4.967-1.613,6.927-1.239c2.356,0.451,3.971,1.642,4.843,3.574
		c0.873,1.932,0.652,3.826-0.661,5.685c-1.05,1.479-2.934,2.831-5.653,4.06l-3.231,1.459l0.712,1.576
		c0.67,1.483,1.853,1.843,3.548,1.077l0.293,0.649l-10.172,4.594l-0.293-0.649c1.695-0.766,2.208-1.891,1.538-3.374l-4.998-11.065
		c-0.646-1.266-1.785-1.529-3.419-0.792l-0.293-0.648L608.202,108.196z M610.133,121.086l3.231-1.46
		c2.543-1.148,3.051-3.413,1.523-6.795c-1.719-3.806-3.85-5.134-6.393-3.986l-3.231,1.459L610.133,121.086z"/>
	<path d="M621.671,104.062c0.133-1.116,0.699-2.162,1.699-3.136c0.746-0.742,1.58-1.365,2.501-1.871
		c5.947-3.266,10.402-2.201,13.365,3.195l2.914,5.307c0.783,1.425,1.988,1.691,3.617,0.796l0.343,0.624l-6.108,3.354
		c-0.204,0.112-0.511,0.061-0.922-0.156c-0.411-0.216-0.644-0.276-0.696-0.181c-0.579,1.378-1.617,2.479-3.115,3.301
		c-5.446,2.991-9.018,2.942-10.714-0.146c-1.966-3.58,0.538-7.285,7.512-11.115l1.375-0.755l-0.77-1.4
		c-1.616-2.944-3.77-3.677-6.459-2.201c-0.729,0.401-1.406,0.877-2.03,1.43c-0.406,0.355-0.543,0.654-0.41,0.896
		c0.091,0.166,0.307,0.303,0.649,0.414c0.561,0.156,0.984,0.497,1.273,1.023c0.284,0.518,0.344,1.059,0.18,1.624
		c-0.164,0.565-0.506,0.99-1.022,1.274c-0.518,0.284-1.06,0.344-1.624,0.18c-0.565-0.165-0.993-0.506-1.284-1.026
		C621.704,105.057,621.613,104.58,621.671,104.062z M631.9,104.938c-3.377,1.854-4.196,4.364-2.459,7.528
		c1.468,2.673,3.296,3.407,5.485,2.205c1.446-0.794,2.454-1.905,3.022-3.333c-0.736-1.24-1.485-2.554-2.247-3.941l-1.919-3.493
		L631.9,104.938z"/>
	<path d="M642.604,93.563c-0.882-1.367-2.104-1.547-3.667-0.539l-0.386-0.598l5.829-3.76c0.175-0.113,0.458-0.105,0.849,0.023
		c0.391,0.128,0.606,0.179,0.647,0.153c0.563-1.377,1.384-2.414,2.463-3.109c5.078-3.275,8.809-3.066,11.191,0.629l4.716,7.312
		c0.882,1.367,2.104,1.547,3.667,0.539l0.386,0.599l-9.131,5.889l-0.386-0.598c1.399-0.903,1.658-2.038,0.776-3.405l-4.526-7.019
		c-2.252-3.491-4.354-4.607-6.308-3.348c-1.005,0.648-1.763,1.65-2.272,3.004c0.187,0.226,0.466,0.627,0.839,1.205l6.408,9.937
		c0.882,1.367,2.023,1.6,3.423,0.697l0.386,0.598l-9.131,5.89l-0.386-0.599c1.563-1.008,1.902-2.195,1.021-3.563L642.604,93.563z"/>
	<path d="M672.188,72.837c-0.032-0.311-0.122-0.57-0.271-0.779c-0.409-0.571-1.21-0.438-2.403,0.398l-0.414-0.579l4.7-3.364
		l0.414,0.579c-1.059,0.758-1.511,1.903-1.354,3.435l0.788,7.714l3.217,4.494c0.946,1.323,2.176,1.443,3.688,0.361l0.414,0.579
		l-9.07,6.492l-0.414-0.579c1.512-1.082,1.794-2.285,0.848-3.607l-2.021-2.823l-9.101-4.292c-1.384-0.653-2.65-0.567-3.8,0.255
		l-0.414-0.579l5.64-4.037c0.72-0.516,1.892-0.297,3.514,0.655l6.789,3.098L672.188,72.837z"/>
</g>
<path d="M475.794,192.57c0,0-0.118,1.122-0.132,2.808c-0.01,0.842-0.012,1.824,0.024,2.877c0.025,1.054,0.083,2.176,0.161,3.299
	c0.057,1.123,0.19,2.246,0.276,3.3c0.088,1.053,0.28,2.035,0.562,2.877c0.131,0.422,0.296,0.808,0.453,1.149
	c0.14,0.343,0.325,0.641,0.453,0.887c0.295,0.49,0.526,0.771,0.526,0.771c1.285,1.559,1.063,3.861-0.494,5.146
	c-1.559,1.285-3.862,1.063-5.146-0.495c-1.133-1.373-1.093-3.327,0-4.651c0,0,0.231-0.281,0.526-0.771
	c0.127-0.246,0.313-0.544,0.453-0.887c0.158-0.342,0.323-0.728,0.453-1.149c0.282-0.842,0.475-1.824,0.562-2.877
	c0.085-1.054,0.219-2.177,0.276-3.3c0.078-1.123,0.136-2.245,0.161-3.299c0.036-1.053,0.034-2.035,0.024-2.877
	c-0.015-1.686-0.132-2.808-0.132-2.808c-0.029-0.275,0.171-0.521,0.446-0.55c0.274-0.029,0.521,0.17,0.549,0.445
	C475.798,192.5,475.797,192.537,475.794,192.57z"/>
<path fill="none" stroke="#000000" stroke-linecap="round" stroke-miterlimit="10" d="M312.634,154.841"/>
<path d="M469.192,197.234c-93.056,0-158.593-36.515-159.244-36.885c-0.239-0.135-0.323-0.438-0.188-0.677
	c0.134-0.24,0.438-0.326,0.678-0.188c0.649,0.367,65.973,36.754,158.753,36.754c0.275,0,0.498,0.223,0.498,0.497
	C469.69,197.012,469.468,197.234,469.192,197.234z"/>
<path d="M85.134,181.227H0.297l2.038-0.949c0.36-0.168,36.286-16.9,54.795-25.885c7.543-3.66,16.628-8.66,27.008-14.864v-13.873
	l15.428-10.009v15.508l-0.228,0.146c-0.06,0.039-6.018,3.888-14.205,8.791V181.227z M4.79,180.231h79.349v-39.545
	c-10.192,6.079-19.129,10.99-26.574,14.603C41.598,163.037,12.684,176.549,4.79,180.231z M85.134,126.196v12.735
	c7.021-4.217,12.301-7.59,13.438-8.32v-13.134L85.134,126.196z"/>
<path d="M313.005,155.02c0,0-0.206,0.389-0.566,1.069c-0.345,0.688-0.837,1.672-1.428,2.852c-1.17,2.365-2.663,5.552-4.074,8.777
	c-0.72,1.605-1.403,3.229-2.047,4.749c-0.161,0.381-0.32,0.754-0.475,1.119c-0.068,0.168-0.177,0.396-0.208,0.51
	c-0.026,0.113-0.063,0.267-0.069,0.408c-0.034,0.578,0.164,1.104,0.479,1.483c0.314,0.386,0.74,0.646,1.129,0.821
	c0.21,0.075,0.407,0.146,0.588,0.21c0.201,0.037,0.386,0.07,0.553,0.101c0.32,0.055,0.629,0.044,0.813,0.041
	c0.19-0.005,0.293-0.019,0.293-0.019c1.646-0.219,3.156,0.938,3.374,2.582c0.219,1.646-0.938,3.156-2.583,3.375
	c-1.099,0.146-2.138-0.322-2.772-1.14l-0.307-0.399c0,0-0.089-0.114-0.256-0.331c-0.165-0.224-0.415-0.482-0.717-0.881
	c-0.303-0.375-0.663-0.848-1.041-1.399c-0.353-0.594-0.75-1.243-1.002-2.059c-0.244-0.81-0.329-1.755-0.094-2.668
	c0.052-0.233,0.129-0.449,0.24-0.698c0.097-0.183,0.195-0.367,0.295-0.554c0.188-0.35,0.381-0.707,0.578-1.07
	c0.784-1.453,1.625-3,2.429-4.566c1.637-3.116,3.193-6.272,4.309-8.663c0.552-1.199,1.012-2.198,1.334-2.896
	c0.306-0.707,0.481-1.111,0.481-1.111c0.091-0.209,0.334-0.305,0.543-0.214s0.305,0.334,0.214,0.542
	C313.015,155,313.01,155.01,313.005,155.02z"/>
<path d="M469.602,196.454c0,0,0.125,0.138,0.329,0.399c0.204,0.255,0.478,0.63,0.781,1.104c0.301,0.477,0.629,1.055,0.911,1.731
	c0.142,0.337,0.279,0.695,0.378,1.083c0.128,0.376,0.177,0.796,0.247,1.213c0.033,0.424,0.056,0.868,0.012,1.308
	c-0.069,0.442-0.109,0.895-0.286,1.307c-0.078,0.21-0.154,0.416-0.229,0.618c-0.096,0.19-0.209,0.365-0.314,0.543
	c-0.11,0.175-0.218,0.347-0.322,0.511c-0.116,0.15-0.242,0.278-0.359,0.41c-0.239,0.251-0.457,0.514-0.67,0.683
	c-0.217,0.166-0.406,0.311-0.563,0.43c-0.32,0.236-0.502,0.371-0.502,0.371c-0.851,0.628-2.049,0.445-2.676-0.404
	c-0.627-0.851-0.446-2.049,0.405-2.676c0.123-0.091,0.253-0.165,0.388-0.222l0.176-0.073c0,0,0.119-0.05,0.326-0.137
	c0.107-0.042,0.238-0.093,0.389-0.152c0.151-0.059,0.263-0.162,0.429-0.252c0.076-0.049,0.168-0.094,0.248-0.151
	c0.067-0.063,0.136-0.13,0.207-0.198c0.072-0.067,0.159-0.134,0.233-0.211c0.06-0.086,0.122-0.175,0.184-0.265
	c0.159-0.169,0.222-0.403,0.336-0.631c0.092-0.238,0.145-0.509,0.201-0.785c0.018-0.288,0.071-0.579,0.042-0.884
	c0.002-0.303-0.034-0.606-0.08-0.904c-0.086-0.597-0.24-1.161-0.398-1.641c-0.326-0.967-0.639-1.559-0.639-1.56
	c-0.129-0.244-0.036-0.547,0.208-0.678c0.207-0.108,0.456-0.06,0.606,0.106L469.602,196.454z"/>
<path d="M79.103,175.357c-8.847-0.007-17.696-0.042-26.542-0.125c-4.423-0.044-7.908,0.048-10.188-2.043
	c-2.281-2.092-0.278-2.642,1.719-3.605c3.991-1.928,7.95-3.914,11.878-5.958c7.545-3.905,15.015-7.942,22.449-12.052
	c-0.021,0.123-0.033,0.244-0.066,0.367c-0.086,0.455-0.218,0.906-0.367,1.355c-0.124,0.451-0.325,0.888-0.486,1.331
	c-0.174,0.44-0.385,0.872-0.574,1.308c-0.823,1.722-1.813,3.375-2.9,4.944c-0.547,0.78-1.111,1.551-1.719,2.267
	c-0.292,0.373-0.614,0.701-0.919,1.05c-0.315,0.313-0.657,0.666-0.916,0.866c-0.109,0.111-0.31,0.253-0.521,0.393l-0.114,0.078
	h-0.002l-0.008,0.004l-0.015,0.006l-0.058,0.026l-0.228,0.108c-0.302,0.112-0.575,0.165-0.818,0.144
	c-0.242-0.019-0.472-0.102-0.708-0.249c-0.22-0.13-0.501-0.396-0.603-0.556c-0.042-0.066-0.095-0.138-0.148-0.197
	c-0.579-0.656-1.58-0.719-2.236-0.14c-0.655,0.58-0.717,1.58-0.138,2.235l0.051,0.059c0.524,0.594,1.026,0.951,1.671,1.279
	c0.629,0.309,1.375,0.493,2.114,0.465c0.742-0.023,1.429-0.247,2.017-0.545l0.416-0.245l0.103-0.063l0.131-0.086l0.035-0.029
	l0.143-0.116c0.185-0.149,0.375-0.304,0.61-0.544c0.478-0.45,0.775-0.844,1.125-1.252c0.308-0.416,0.637-0.822,0.916-1.247
	c0.591-0.838,1.115-1.702,1.62-2.576c1-1.75,1.879-3.56,2.587-5.45c0.162-0.481,0.342-0.952,0.488-1.438
	c0.133-0.491,0.301-0.966,0.396-1.472c0.118-0.497,0.217-0.999,0.271-1.517c0.091-0.503,0.067-1.042,0.087-1.56l0-0.005l0.06-0.968
	l-0.878,0.485c-7.734,4.284-15.519,8.493-23.371,12.558c-3.922,2.039-7.873,4.022-11.849,5.943c-1.989,0.96-3.99,1.89-6.006,2.781
	c-2.018,0.884-4.053,1.72-6.114,2.413c-0.513,0.149-1.025,0.254-1.538,0.386c-0.254,0.074-0.511,0.111-0.831,0.167
	c-0.078,0.017-0.16,0.034-0.26,0.065c-0.07,0.03-0.09,0.021-0.234,0.109c-0.01,0.007-0.249,0.146-0.271,0.456
	c-0.018,0.208,0.112,0.4,0.134,0.41c0.043,0.053,0.114,0.112,0.154,0.136c0.365,0.173,0.429,0.134,0.606,0.177
	c1.166,0.154,2.252,0.188,3.37,0.247c2.218,0.097,4.432,0.151,6.646,0.2c4.428,0.095,8.854,0.149,13.279,0.194
	c8.852,0.083,17.701,0.118,26.553,0.126h0.001c0.304,0,0.551-0.247,0.551-0.552C79.653,175.604,79.407,175.357,79.103,175.357z
	 M69.777,165.574l-0.017,0.011C69.754,165.588,69.763,165.582,69.777,165.574z M69.836,165.532L69.836,165.532
	C69.854,165.52,69.863,165.514,69.836,165.532z"/>
<path d="M91.55,177.521c-0.361,0.325-0.712,0.702-0.974,1.093c-0.271,0.385-0.41,0.826-0.314,1.021
	c0.047,0.222,0.52,0.41,0.968,0.496c0.469,0.1,0.979,0.104,1.494,0.122l6.383,0.021l12.766,0.043l25.533,0.086l51.065,0.021
	l102.131-0.192h0.012l0.077,0.008c0.225,0.022,0.515,0.034,0.781,0.021c0.27,0.003,0.544-0.034,0.815-0.071
	c0.271-0.026,0.537-0.123,0.802-0.18c0.269-0.05,0.524-0.159,0.777-0.268c0.25-0.116,0.514-0.179,0.745-0.339l0.699-0.426
	c0.232-0.136,0.432-0.339,0.637-0.516c0.204-0.181,0.398-0.37,0.584-0.563l0.058-0.06c0.497-0.513,1.315-0.525,1.828-0.029
	c0.513,0.497,0.526,1.315,0.03,1.828c-0.158,0.163-0.354,0.277-0.556,0.339c-0.319,0.096-0.63,0.195-0.931,0.302
	c-0.309,0.095-0.584,0.24-0.903,0.3c-0.614,0.167-1.205,0.352-1.822,0.451c-0.305,0.059-0.605,0.121-0.915,0.151
	c-0.309,0.028-0.608,0.095-0.92,0.089c-0.31,0.004-0.613,0.047-0.926,0.025c-0.315-0.003-0.608-0.021-0.959-0.077l0.089,0.008
	l-102.131-0.192l-51.065,0.021l-25.533,0.085l-12.766,0.043l-6.383,0.021c-0.547-0.017-1.106-0.014-1.683-0.129
	c-0.283-0.035-0.588-0.155-0.881-0.275c-0.15-0.093-0.302-0.175-0.442-0.29c-0.124-0.155-0.281-0.29-0.348-0.486
	c-0.171-0.392-0.128-0.808-0.025-1.117c0.097-0.324,0.252-0.589,0.413-0.839c0.33-0.494,0.708-0.902,1.134-1.293
	c0.203-0.186,0.517-0.172,0.703,0.031c0.186,0.202,0.172,0.518-0.031,0.703l-0.003,0.003L91.55,177.521z"/>
<path d="M98.487,152.666c-0.206-0.28-0.393-0.468-0.597-0.657c-0.204-0.188-0.431-0.356-0.678-0.481
	c-0.479-0.32-1.001-0.45-1.53-0.55c-1.151-0.197-2.012,0.126-2.362,0.981c-0.284,0.854-0.15,2.146-0.225,3.295l-0.107,3.498
	c-0.067,2.328-0.117,4.656-0.084,6.975c0.052,2.305,0.107,4.665,0.614,6.83c0,0,2.09-0.02,2.132,0.021
	c0.051-0.007,0.069,1.471,0.069,1.471l3.156,0.001l6.999,0.003l13.998-0.051l55.993-0.206l27.997-0.098
	c4.665-0.006,9.332-0.057,13.998-0.024l13.998,0.049l55.649,0.225c0,0-0.034-1.273,0.517-1.824c0.55-0.551,1.847-0.242,1.936-0.451
	c0.1-0.207,0.122-0.442,0.139-0.678c0.019-0.209,0.063-0.524,0.067-0.646c-0.042-0.243-0.027-0.581-0.115-0.745
	c-0.217-0.791-0.79-1.716-1.429-2.464c-0.662-0.765-1.435-1.443-2.251-2.063c-1.659-1.206-3.54-2.144-5.525-2.605
	c-1.979-0.502-4.041-0.406-5.903,0.392c-1.885,0.764-3.581,2.014-5.246,3.33c-0.846,0.651-1.671,1.338-2.655,1.927
	c-0.513,0.27-1.03,0.577-1.735,0.652c-0.734,0.131-1.426-0.226-1.903-0.479c-1.986-1.165-3.52-2.665-5.105-4.143
	c-1.553-1.503-3.03-3.073-4.43-4.729c-0.697-0.83-1.376-1.68-2.013-2.592c-0.315-0.466-0.624-0.929-0.901-1.498
	c-0.126-0.298-0.295-0.581-0.319-1.188c0.003-0.258,0.014-0.537,0.04-0.845c0.086-1.094,0.163-2.068-0.003-2.938
	c-0.175-0.858-0.558-1.488-1.211-1.893c-1.375-0.824-3.544-0.74-5.545-0.522c-1.996,0.237-4.025,0.734-5.946,1.414
	c-1.926,0.678-3.835,1.422-5.592,2.454c-1.726,1.024-3.367,2.443-3.98,4.358c-0.584,1.789-0.261,4.33,0.98,5.287
	c0.279,0.263,0.65,0.263,0.946,0.29c0.331-0.04,0.648-0.143,0.93-0.356c0.274-0.188,0.513-0.476,0.574-0.727
	c0.082-0.235-0.106-0.488-0.34-0.04c0-1.268,1.027-2.295,2.294-2.295c1.269,0,2.296,1.027,2.296,2.295
	c-0.071,0.348-0.168,0.691-0.289,1.007c-0.131,0.287-0.302,0.509-0.458,0.746c-0.16,0.249-0.341,0.369-0.517,0.546
	c-0.175,0.173-0.358,0.3-0.539,0.407c-0.709,0.492-1.455,0.688-2.188,0.823c-0.736,0.129-1.51,0.032-2.23-0.16
	c-0.712-0.269-1.379-0.695-1.785-1.272c-0.858-1.121-1.01-2.387-1.08-3.521l-0.001-0.801v-0.2c0.001-0.136,0.015-0.161,0.022-0.248
	l0.056-0.429c0.042-0.285,0.066-0.573,0.122-0.854l0.257-0.819c0.713-2.188,2.252-3.956,3.958-5.393
	c1.72-1.445,3.702-2.547,5.792-3.291c2.102-0.731,4.25-1.223,6.493-1.464c0.57-0.057,1.149-0.117,1.667-0.118l0.841-0.022
	l0.873,0.047c1.158,0.102,2.401,0.282,3.561,1.032c1.176,0.745,1.904,2.139,2.067,3.376c0.186,1.243,0.023,2.417-0.087,3.44
	c-0.029,0.223-0.05,0.476-0.062,0.75c-0.003-0.07,0.027,0.152,0.122,0.338c0.174,0.398,0.438,0.84,0.707,1.265
	c0.554,0.855,1.176,1.7,1.821,2.526c1.294,1.651,2.687,3.245,4.146,4.764c1.453,1.498,3.016,2.998,4.704,4.023
	c0.44,0.237,0.775,0.418,1.115,0.348c0.367-0.015,0.813-0.243,1.237-0.462c0.858-0.491,1.695-1.154,2.547-1.79
	c1.704-1.276,3.455-2.632,5.541-3.474c2.063-0.9,4.485-1.01,6.632-0.459c2.177,0.505,4.187,1.507,5.976,2.803
	c1.737,1.361,3.435,2.859,4.169,5.297c0.112,0.339,0.081,0.551,0.128,0.832c0.011,0.406-0.046,0.622-0.07,0.943
	c-0.025,0.297-0.059,0.592-0.182,0.878c-0.112,0.283,0,0,0,0s-0.09,3.01-3.138,3.151l-0.057,0.02h-0.096l-55.993,0.224l-13.998,0.05
	c-4.666,0.032-9.333-0.019-13.998-0.024l-27.997-0.099l-55.993-0.206l-13.998-0.049l-6.999,0.002l-3.5,0.002h-0.875
	c-0.1,0.01-0.394-0.016-0.625-0.09c-0.211-0.105-0.417-0.232-0.538-0.385c-0.532-0.602-0.677-1.215-0.848-1.81
	c-0.556-2.387-0.594-4.733-0.654-7.082c-0.034-2.347,0.014-4.687,0.08-7.021l0.105-3.499l0.036-1.736
	c0.002-0.554,0.022-1.271,0.259-1.918c0.253-0.663,0.825-1.264,1.507-1.507c0.331-0.128,0.682-0.185,1.038-0.215l0.443-0.003h0.11
	c-0.01-0.001,0.076,0.001,0.088,0.005l0.058,0.007l0.232,0.031c1.264,0.084,2.466,0.351,3.859,0.337h0.063
	c0.848-0.008,1.543,0.672,1.551,1.521c0.008,0.849-0.674,1.544-1.522,1.552C99.23,153.302,98.769,153.049,98.487,152.666z"/>
<path d="M255.73,149.38c0,1.381-1.008,2.502-2.254,2.502s-1.599-1.286-2.254-2.502c-0.643-1.193-1.354-3.15-0.321-2.616
	C252.006,147.336,255.73,147.998,255.73,149.38z"/>
<path d="M263.561,158.808c0.651,1.967-0.518,4.255-2.461,4.963c-1.103,0.403-3.073-0.974-4.07-1.509
	c-0.755-0.406-1.842-3.285-1.131-3.048c0.824,0.274,5.256,3.348,5.949,2.719c0.381-0.347,0.168-1.363-0.239-1.921
	C260.446,158.549,263.037,157.025,263.561,158.808z"/>
<path d="M475.297,193.067c-93.052,0-162.215-37.412-162.903-37.79c-0.241-0.132-0.329-0.436-0.196-0.677
	c0.132-0.239,0.436-0.328,0.675-0.196c0.686,0.378,69.638,37.668,162.424,37.668c92.799,0,161.737-37.29,162.422-37.668
	c0.241-0.132,0.545-0.044,0.677,0.196c0.132,0.241,0.044,0.545-0.196,0.677C637.511,155.655,568.349,193.067,475.297,193.067z"/>
<path d="M481.402,197.234c-0.274,0-0.497-0.223-0.497-0.498c0-0.274,0.223-0.497,0.497-0.497
	c92.797,0,158.104-36.387,158.754-36.754c0.234-0.139,0.541-0.054,0.677,0.188c0.137,0.239,0.052,0.542-0.188,0.677
	C639.994,160.72,574.457,197.234,481.402,197.234z"/>
<path d="M950.297,181.227h-84.835v-41.134c-8.189-4.905-14.146-8.753-14.206-8.792l-0.228-0.146v-15.508l15.429,10.009v13.873
	c10.38,6.205,19.465,11.205,27.008,14.864c18.51,8.984,54.434,25.717,54.795,25.885L950.297,181.227z M866.457,180.231h79.348
	c-7.895-3.683-36.809-17.194-52.774-24.942c-7.443-3.612-16.382-8.523-26.573-14.602V180.231z M852.023,130.611
	c1.137,0.73,6.416,4.104,13.438,8.321v-12.736l-13.438-8.719V130.611z"/>
<path d="M638.33,154.662c0,0,0.176,0.404,0.482,1.111c0.321,0.698,0.781,1.697,1.334,2.896c1.116,2.391,2.673,5.547,4.311,8.663
	c0.804,1.566,1.645,3.113,2.429,4.566c0.196,0.362,0.389,0.721,0.577,1.07c0.1,0.187,0.198,0.371,0.295,0.554
	c0.111,0.249,0.188,0.465,0.239,0.698c0.235,0.913,0.15,1.858-0.094,2.668c-0.252,0.815-0.649,1.465-1.001,2.059
	c-0.379,0.552-0.738,1.024-1.041,1.399c-0.303,0.398-0.553,0.657-0.718,0.881c-0.166,0.217-0.256,0.331-0.256,0.331l-0.304,0.396
	c-1.014,1.314-2.901,1.558-4.215,0.544s-1.558-2.9-0.544-4.215c0.678-0.878,1.75-1.277,2.775-1.143c0,0,0.103,0.014,0.293,0.019
	c0.183,0.003,0.491,0.014,0.813-0.041c0.166-0.03,0.351-0.063,0.554-0.101c0.182-0.064,0.378-0.135,0.588-0.21
	c0.39-0.176,0.815-0.436,1.129-0.821c0.316-0.38,0.514-0.905,0.479-1.484c-0.005-0.141-0.042-0.294-0.068-0.407
	c-0.031-0.113-0.14-0.342-0.208-0.51c-0.154-0.365-0.313-0.739-0.475-1.119c-0.644-1.521-1.327-3.144-2.049-4.749
	c-1.411-3.226-2.902-6.412-4.074-8.777c-0.591-1.18-1.083-2.163-1.428-2.852c-0.36-0.681-0.566-1.069-0.566-1.069
	c-0.107-0.201-0.03-0.45,0.171-0.558c0.201-0.106,0.451-0.03,0.558,0.171C638.321,154.643,638.326,154.653,638.33,154.662z"/>
<path d="M481.812,197.02c0,0.001-0.313,0.593-0.64,1.56c-0.157,0.479-0.312,1.044-0.398,1.641c-0.045,0.298-0.081,0.602-0.079,0.904
	c-0.029,0.305,0.024,0.596,0.043,0.884c0.054,0.276,0.107,0.547,0.2,0.785c0.113,0.228,0.178,0.462,0.336,0.631
	c0.063,0.09,0.123,0.179,0.184,0.265c0.075,0.077,0.161,0.144,0.233,0.211c0.071,0.068,0.14,0.135,0.207,0.198
	c0.079,0.058,0.171,0.103,0.248,0.151c0.165,0.09,0.276,0.193,0.429,0.252c0.15,0.059,0.28,0.11,0.389,0.152
	c0.207,0.087,0.325,0.137,0.325,0.137l0.167,0.069c0.976,0.408,1.435,1.528,1.026,2.505c-0.407,0.975-1.528,1.435-2.503,1.026
	c-0.142-0.06-0.279-0.14-0.397-0.226c0,0-0.183-0.135-0.503-0.371c-0.155-0.119-0.345-0.264-0.562-0.43
	c-0.213-0.169-0.432-0.432-0.67-0.683c-0.118-0.132-0.243-0.26-0.359-0.409c-0.104-0.165-0.211-0.337-0.321-0.512
	c-0.105-0.178-0.22-0.353-0.314-0.543c-0.075-0.202-0.152-0.408-0.23-0.618c-0.176-0.412-0.216-0.864-0.285-1.307
	c-0.045-0.439-0.021-0.884,0.012-1.308c0.07-0.417,0.118-0.837,0.246-1.213c0.1-0.388,0.237-0.746,0.379-1.083
	c0.282-0.677,0.609-1.255,0.911-1.731c0.303-0.475,0.577-0.85,0.781-1.104c0.203-0.262,0.328-0.399,0.328-0.399l0.005-0.005
	c0.186-0.205,0.503-0.221,0.708-0.035C481.879,196.571,481.917,196.822,481.812,197.02z"/>
<path d="M870.941,175.908c0,0.305,0.245,0.552,0.55,0.552l0,0c8.853-0.008,17.703-0.043,26.554-0.126
	c4.427-0.045,8.851-0.1,13.279-0.194c2.214-0.049,4.428-0.104,6.646-0.2c1.118-0.059,2.204-0.093,3.369-0.247
	c0.179-0.043,0.241-0.004,0.606-0.177c0.041-0.023,0.11-0.083,0.155-0.136c0.021-0.01,0.151-0.202,0.134-0.41
	c-0.023-0.31-0.262-0.449-0.271-0.456c-0.145-0.089-0.166-0.079-0.233-0.109c-0.102-0.031-0.183-0.049-0.261-0.065
	c-0.32-0.056-0.577-0.093-0.83-0.167c-0.513-0.132-1.024-0.236-1.537-0.386c-2.063-0.693-4.1-1.529-6.114-2.413
	c-2.016-0.892-4.018-1.821-6.006-2.781c-3.978-1.921-7.928-3.904-11.851-5.943c-7.852-4.064-15.637-8.273-23.371-12.558
	l-0.879-0.485l0.061,0.968v0.005c0.021,0.518-0.002,1.057,0.088,1.56c0.054,0.518,0.153,1.02,0.27,1.517
	c0.096,0.506,0.263,0.98,0.396,1.472c0.145,0.485,0.325,0.956,0.488,1.438c0.708,1.891,1.588,3.7,2.587,5.45
	c0.506,0.874,1.028,1.738,1.62,2.576c0.279,0.425,0.608,0.831,0.917,1.247c0.348,0.408,0.646,0.802,1.124,1.252
	c0.234,0.24,0.426,0.395,0.61,0.544l0.142,0.116l0.037,0.029l0.13,0.086l0.104,0.063l0.416,0.245
	c0.587,0.298,1.272,0.521,2.014,0.545c0.74,0.028,1.487-0.156,2.116-0.465c0.646-0.328,1.147-0.686,1.67-1.279l0.053-0.059
	c0.579-0.655,0.518-1.655-0.14-2.235c-0.655-0.579-1.656-0.517-2.233,0.14c-0.055,0.06-0.107,0.131-0.15,0.197
	c-0.103,0.159-0.383,0.426-0.603,0.556c-0.237,0.147-0.466,0.23-0.709,0.249c-0.241,0.021-0.516-0.031-0.816-0.144l-0.229-0.108
	l-0.059-0.026l-0.016-0.006l-0.006-0.004h-0.004l-0.112-0.078c-0.212-0.14-0.412-0.281-0.521-0.393
	c-0.258-0.2-0.599-0.554-0.915-0.866c-0.306-0.349-0.628-0.677-0.922-1.05c-0.606-0.716-1.17-1.486-1.716-2.267
	c-1.089-1.569-2.078-3.223-2.9-4.944c-0.188-0.436-0.4-0.867-0.575-1.308c-0.162-0.443-0.364-0.88-0.486-1.331
	c-0.147-0.449-0.28-0.9-0.365-1.355c-0.035-0.123-0.047-0.244-0.066-0.367c7.434,4.109,14.902,8.146,22.446,12.052
	c3.929,2.044,7.888,4.03,11.879,5.958c1.996,0.964,4.001,1.514,1.719,3.605c-2.28,2.091-5.764,1.999-10.187,2.043
	c-8.849,0.083-17.697,0.118-26.544,0.125C871.188,175.357,870.941,175.604,870.941,175.908z M880.836,165.585l-0.018-0.011
	C880.832,165.582,880.84,165.588,880.836,165.585z M880.758,165.532L880.758,165.532C880.73,165.514,880.74,165.52,880.758,165.532z
	"/>
<path d="M859.704,176.775c0.425,0.391,0.803,0.799,1.133,1.292c0.16,0.251,0.315,0.515,0.413,0.84
	c0.104,0.31,0.146,0.726-0.025,1.117c-0.066,0.195-0.225,0.331-0.348,0.486c-0.141,0.115-0.293,0.197-0.442,0.29
	c-0.293,0.12-0.599,0.24-0.882,0.275c-0.577,0.115-1.136,0.112-1.683,0.129l-6.383-0.021l-12.767-0.043l-25.533-0.085l-51.065-0.021
	l-102.131,0.192l0.089-0.008c-0.352,0.057-0.644,0.074-0.96,0.077c-0.313,0.021-0.616-0.021-0.926-0.025
	c-0.312,0.006-0.611-0.061-0.921-0.089c-0.309-0.03-0.609-0.093-0.914-0.151c-0.617-0.1-1.209-0.284-1.822-0.451
	c-0.319-0.06-0.596-0.205-0.903-0.3c-0.302-0.106-0.612-0.206-0.932-0.302c-0.683-0.206-1.07-0.927-0.864-1.61
	s0.926-1.071,1.61-0.865c0.217,0.065,0.404,0.183,0.552,0.334l0.062,0.063c0.187,0.192,0.381,0.381,0.584,0.563
	c0.206,0.176,0.405,0.38,0.638,0.516l0.698,0.426c0.231,0.16,0.496,0.223,0.746,0.339c0.253,0.107,0.507,0.218,0.776,0.268
	c0.267,0.057,0.53,0.153,0.803,0.18c0.271,0.037,0.545,0.074,0.814,0.071c0.266,0.013,0.556,0.001,0.78-0.021l0.077-0.008h0.013
	l102.131,0.192l51.065-0.021l25.533-0.086l12.767-0.043l6.383-0.021c0.516-0.019,1.025-0.022,1.493-0.122
	c0.449-0.086,0.922-0.274,0.969-0.496c0.096-0.195-0.044-0.637-0.314-1.021c-0.262-0.391-0.613-0.768-0.975-1.093l-0.008-0.008
	c-0.205-0.184-0.222-0.499-0.038-0.703s0.499-0.221,0.703-0.037L859.704,176.775z"/>
<path d="M852.109,152.666c0.204-0.28,0.391-0.468,0.597-0.657c0.204-0.188,0.43-0.356,0.677-0.481c0.479-0.32,1.001-0.45,1.531-0.55
	c1.15-0.197,2.012,0.126,2.36,0.981c0.285,0.854,0.151,2.146,0.228,3.295l0.106,3.498c0.066,2.328,0.116,4.656,0.084,6.975
	c-0.051,2.305-0.107,4.665-0.614,6.83c0,0-2.09-0.02-2.133,0.021c-0.051-0.007-0.068,1.471-0.068,1.471l-3.154,0.001l-7,0.003
	l-13.998-0.051l-55.994-0.206l-27.993-0.098c-4.668-0.006-9.335-0.057-14-0.024l-13.998,0.049l-55.649,0.225
	c0,0,0.035-1.273-0.518-1.824c-0.55-0.551-1.847-0.242-1.936-0.451c-0.1-0.207-0.121-0.442-0.139-0.678
	c-0.019-0.209-0.063-0.524-0.067-0.646c0.043-0.243,0.029-0.581,0.114-0.745c0.22-0.791,0.791-1.716,1.431-2.464
	c0.661-0.765,1.437-1.443,2.253-2.063c1.658-1.206,3.538-2.144,5.524-2.605c1.979-0.502,4.04-0.406,5.904,0.392
	c1.884,0.764,3.58,2.014,5.244,3.33c0.846,0.651,1.672,1.338,2.655,1.927c0.516,0.27,1.03,0.577,1.736,0.652
	c0.732,0.131,1.425-0.226,1.902-0.479c1.985-1.165,3.521-2.665,5.105-4.143c1.553-1.503,3.028-3.073,4.43-4.729
	c0.696-0.83,1.376-1.68,2.014-2.592c0.315-0.466,0.622-0.929,0.898-1.498c0.126-0.298,0.297-0.581,0.32-1.188
	c-0.002-0.258-0.014-0.537-0.04-0.845c-0.086-1.094-0.164-2.068,0.002-2.938c0.177-0.858,0.558-1.488,1.213-1.893
	c1.374-0.824,3.541-0.74,5.546-0.522c1.994,0.237,4.023,0.734,5.944,1.414c1.924,0.678,3.835,1.422,5.591,2.454
	c1.726,1.024,3.368,2.443,3.982,4.358c0.583,1.789,0.259,4.33-0.981,5.287c-0.28,0.263-0.651,0.263-0.946,0.29
	c-0.331-0.04-0.647-0.143-0.932-0.356c-0.274-0.188-0.512-0.476-0.573-0.727c-0.082-0.235,0.106-0.488,0.342-0.04
	c0-1.268-1.028-2.295-2.296-2.295s-2.295,1.027-2.295,2.295c0.069,0.348,0.169,0.691,0.289,1.007
	c0.13,0.287,0.302,0.509,0.457,0.746c0.161,0.249,0.342,0.369,0.517,0.546c0.175,0.173,0.358,0.3,0.539,0.407
	c0.709,0.492,1.456,0.688,2.188,0.823c0.734,0.129,1.511,0.032,2.231-0.16c0.712-0.269,1.38-0.695,1.784-1.272
	c0.859-1.121,1.012-2.387,1.079-3.521l0.002-0.801v-0.2c-0.002-0.136-0.014-0.161-0.023-0.248l-0.052-0.429
	c-0.045-0.285-0.068-0.573-0.123-0.854l-0.258-0.819c-0.714-2.188-2.254-3.956-3.958-5.393c-1.723-1.445-3.703-2.547-5.793-3.291
	c-2.104-0.731-4.251-1.223-6.492-1.464c-0.572-0.057-1.151-0.117-1.668-0.118l-0.842-0.022l-0.873,0.047
	c-1.156,0.102-2.4,0.282-3.56,1.032c-1.176,0.745-1.904,2.139-2.068,3.376c-0.185,1.243-0.021,2.417,0.088,3.44
	c0.029,0.223,0.051,0.476,0.063,0.75c0.004-0.07-0.027,0.152-0.123,0.338c-0.173,0.398-0.438,0.84-0.705,1.265
	c-0.555,0.855-1.177,1.7-1.821,2.526c-1.295,1.651-2.687,3.245-4.143,4.764c-1.456,1.498-3.02,2.998-4.706,4.023
	c-0.439,0.237-0.776,0.418-1.114,0.348c-0.367-0.015-0.814-0.243-1.238-0.462c-0.857-0.491-1.695-1.154-2.546-1.79
	c-1.705-1.276-3.455-2.632-5.543-3.474c-2.063-0.9-4.484-1.01-6.632-0.459c-2.176,0.505-4.186,1.507-5.974,2.803
	c-1.74,1.361-3.437,2.859-4.17,5.297c-0.114,0.339-0.081,0.551-0.13,0.832c-0.012,0.406,0.049,0.622,0.071,0.943
	c0.023,0.297,0.059,0.592,0.182,0.878c0.112,0.283,0,0,0,0s0.089,3.01,3.137,3.151l0.059,0.02h0.096l55.993,0.224l13.998,0.05
	c4.665,0.032,9.332-0.019,14-0.024l27.993-0.099l55.994-0.206l13.998-0.049l7,0.002l3.501,0.002h0.872
	c0.102,0.01,0.395-0.016,0.626-0.09c0.212-0.105,0.416-0.232,0.537-0.385c0.532-0.602,0.678-1.215,0.849-1.81
	c0.555-2.387,0.594-4.733,0.653-7.082c0.035-2.347-0.016-4.687-0.079-7.021l-0.107-3.499l-0.035-1.736
	c-0.004-0.554-0.022-1.271-0.258-1.918c-0.253-0.663-0.824-1.264-1.509-1.507c-0.328-0.128-0.683-0.185-1.036-0.215l-0.443-0.003
	h-0.108c0.01-0.001-0.076,0.001-0.09,0.005l-0.058,0.007l-0.233,0.031c-1.264,0.084-2.467,0.351-3.861,0.337h-0.06
	c-0.85-0.008-1.544,0.672-1.552,1.521c-0.01,0.849,0.673,1.544,1.522,1.552C851.364,153.302,851.825,153.049,852.109,152.666z"/>
<path d="M694.864,149.38c0,1.381,1.009,2.502,2.255,2.502c1.244,0,1.6-1.286,2.253-2.502c0.644-1.193,1.355-3.15,0.321-2.616
	C698.587,147.336,694.864,147.998,694.864,149.38z"/>
<path d="M687.034,158.808c-0.649,1.967,0.518,4.255,2.461,4.963c1.104,0.403,3.073-0.974,4.069-1.509
	c0.756-0.406,1.843-3.285,1.131-3.048c-0.822,0.274-5.254,3.348-5.948,2.719c-0.381-0.347-0.169-1.363,0.239-1.921
	C690.15,158.549,687.558,157.025,687.034,158.808z"/>
<g>
	<path d="M315.64,149.465c-0.076,0-0.152-0.018-0.224-0.053c-0.246-0.125-0.343-0.424-0.219-0.67l5-9.854
		c0.125-0.245,0.443-0.379,0.688-0.256c0.245,0.125,0.362,0.388,0.237,0.633l-5.037,9.928
		C315.997,149.366,315.822,149.465,315.64,149.465z"/>
	<path d="M326.459,154.726c-0.07,0-0.142-0.015-0.209-0.047c-0.249-0.115-0.357-0.411-0.242-0.661l4.696-10.095
		c0.115-0.247,0.41-0.359,0.661-0.24c0.25,0.115,0.357,0.412,0.242,0.66l-4.695,10.095
		C326.827,154.618,326.647,154.726,326.459,154.726z"/>
	<path d="M337.409,159.597c-0.065,0-0.13-0.013-0.194-0.04c-0.253-0.106-0.371-0.399-0.264-0.652l4.35-10.248
		c0.108-0.253,0.401-0.372,0.652-0.263c0.253,0.106,0.372,0.399,0.264,0.651l-4.35,10.249
		C337.787,159.483,337.603,159.597,337.409,159.597z"/>
	<path d="M348.479,164.077c-0.06,0-0.12-0.011-0.179-0.033c-0.256-0.099-0.384-0.387-0.286-0.643l4-10.39
		c0.099-0.256,0.389-0.383,0.644-0.285c0.257,0.099,0.384,0.387,0.286,0.643l-4,10.39
		C348.867,163.956,348.679,164.077,348.479,164.077z"/>
	<path d="M359.658,168.169c-0.054,0-0.109-0.009-0.164-0.027c-0.259-0.09-0.397-0.374-0.307-0.633l3.648-10.519
		c0.09-0.259,0.371-0.396,0.633-0.308c0.259,0.091,0.397,0.374,0.307,0.634l-3.648,10.519
		C360.057,168.04,359.864,168.169,359.658,168.169z"/>
	<path d="M370.938,171.87c-0.049,0-0.098-0.007-0.147-0.022c-0.262-0.08-0.409-0.359-0.328-0.622l3.292-10.635
		c0.081-0.263,0.358-0.413,0.623-0.328c0.262,0.081,0.409,0.359,0.328,0.622l-3.292,10.635
		C371.347,171.733,371.15,171.87,370.938,171.87z"/>
	<path d="M382.307,175.183c-0.043,0-0.087-0.006-0.131-0.018c-0.265-0.072-0.421-0.346-0.349-0.611l2.934-10.739
		c0.073-0.267,0.35-0.42,0.612-0.35c0.265,0.073,0.421,0.347,0.349,0.611l-2.934,10.74
		C382.726,175.037,382.525,175.183,382.307,175.183z"/>
	<path d="M393.756,178.104c-0.038,0-0.077-0.004-0.115-0.014c-0.268-0.063-0.433-0.331-0.369-0.599l2.572-10.831
		c0.064-0.269,0.335-0.435,0.599-0.37c0.267,0.063,0.433,0.332,0.369,0.6l-2.572,10.831
		C394.186,177.951,393.981,178.104,393.756,178.104z"/>
	<path d="M405.275,180.638c-0.033,0-0.066-0.003-0.099-0.01c-0.27-0.055-0.444-0.317-0.389-0.587l2.208-10.911
		c0.055-0.269,0.316-0.444,0.586-0.389c0.27,0.054,0.444,0.316,0.39,0.587l-2.209,10.911
		C405.714,180.474,405.507,180.638,405.275,180.638z"/>
	<path d="M416.854,182.78c-0.027,0-0.055-0.002-0.083-0.007c-0.271-0.046-0.454-0.302-0.408-0.573l1.844-10.979
		c0.045-0.271,0.294-0.456,0.573-0.408c0.271,0.046,0.454,0.303,0.408,0.574l-1.844,10.979
		C417.304,182.608,417.093,182.78,416.854,182.78z"/>
	<path d="M428.482,184.534c-0.022,0-0.044-0.001-0.067-0.005c-0.272-0.036-0.463-0.287-0.427-0.56l1.477-11.034
		c0.037-0.272,0.284-0.477,0.56-0.427c0.272,0.036,0.463,0.287,0.427,0.56l-1.477,11.034
		C428.941,184.353,428.728,184.534,428.482,184.534z"/>
	<path d="M440.151,185.898c-0.017,0-0.033-0.001-0.05-0.003c-0.274-0.027-0.473-0.271-0.446-0.544l1.109-11.077
		c0.028-0.273,0.266-0.476,0.545-0.445c0.273,0.027,0.473,0.271,0.446,0.544l-1.11,11.077
		C440.62,185.707,440.404,185.898,440.151,185.898z"/>
	<path d="M451.85,186.872c-0.011,0-0.022,0-0.033-0.001c-0.274-0.019-0.482-0.255-0.464-0.529l0.74-11.108
		c0.018-0.275,0.252-0.49,0.53-0.464c0.274,0.019,0.481,0.256,0.463,0.53l-0.74,11.108
		C452.329,186.671,452.109,186.872,451.85,186.872z"/>
	<path d="M463.568,187.456c-0.006,0-0.011,0-0.017,0c-0.274-0.009-0.49-0.238-0.48-0.514l0.37-11.127
		c0.009-0.275,0.249-0.482,0.514-0.481c0.275,0.01,0.49,0.239,0.481,0.515l-0.371,11.127
		C464.056,187.244,463.835,187.456,463.568,187.456z"/>
	<path d="M475.297,187.65c-0.275,0-0.498-0.222-0.498-0.497v-11.133c0-0.275,0.223-0.497,0.498-0.497s0.498,0.222,0.498,0.497
		v11.133C475.794,187.429,475.572,187.65,475.297,187.65z"/>
	<path d="M487.026,187.456c-0.268,0-0.488-0.212-0.498-0.48l-0.37-11.127c-0.009-0.275,0.206-0.505,0.481-0.515
		c0.321,0.003,0.504,0.207,0.514,0.481l0.37,11.127c0.009,0.274-0.205,0.505-0.48,0.514
		C487.037,187.456,487.031,187.456,487.026,187.456z"/>
	<path d="M498.744,186.872c-0.261,0-0.479-0.201-0.497-0.464l-0.738-11.108c-0.019-0.274,0.189-0.512,0.464-0.53
		c0.274-0.016,0.512,0.188,0.529,0.464l0.738,11.108c0.019,0.274-0.189,0.511-0.463,0.529
		C498.766,186.872,498.755,186.872,498.744,186.872z"/>
	<path d="M510.443,185.898c-0.252,0-0.469-0.191-0.494-0.448l-1.108-11.077c-0.028-0.274,0.172-0.517,0.445-0.544
		c0.271-0.029,0.518,0.172,0.544,0.445l1.109,11.077c0.027,0.272-0.173,0.517-0.445,0.544
		C510.478,185.897,510.46,185.898,510.443,185.898z"/>
	<path d="M522.112,184.534c-0.245,0-0.459-0.182-0.491-0.432l-1.478-11.034c-0.037-0.272,0.154-0.523,0.427-0.56
		c0.264-0.051,0.522,0.153,0.559,0.427l1.478,11.034c0.037,0.272-0.155,0.523-0.427,0.56
		C522.157,184.533,522.135,184.534,522.112,184.534z"/>
	<path d="M533.74,182.78c-0.237,0-0.448-0.172-0.489-0.415l-1.845-10.979c-0.046-0.271,0.137-0.528,0.408-0.574
		c0.271-0.044,0.527,0.137,0.573,0.408l1.845,10.979c0.046,0.271-0.137,0.527-0.408,0.573
		C533.796,182.778,533.769,182.78,533.74,182.78z"/>
	<path d="M545.318,180.638c-0.231,0-0.439-0.164-0.486-0.399c-0.735-3.637-1.472-7.273-2.211-10.91
		c-0.054-0.27,0.12-0.532,0.389-0.587c0.265-0.057,0.532,0.119,0.588,0.389c0.738,3.637,1.475,7.273,2.21,10.912
		c0.054,0.269-0.12,0.531-0.39,0.586C545.385,180.635,545.352,180.638,545.318,180.638z"/>
	<path d="M556.839,178.104c-0.226,0-0.43-0.153-0.484-0.383l-2.573-10.83c-0.064-0.269,0.101-0.537,0.368-0.601
		c0.271-0.067,0.537,0.102,0.6,0.369l2.574,10.832c0.063,0.268-0.103,0.535-0.37,0.599
		C556.916,178.101,556.877,178.104,556.839,178.104z"/>
	<path d="M568.288,175.183c-0.219,0-0.42-0.145-0.479-0.366l-2.934-10.74c-0.072-0.265,0.084-0.538,0.349-0.611
		c0.268-0.07,0.54,0.085,0.611,0.35l2.934,10.739c0.072,0.266-0.084,0.539-0.349,0.611
		C568.376,175.177,568.331,175.183,568.288,175.183z"/>
	<path d="M579.658,171.87c-0.213,0-0.409-0.137-0.476-0.351l-3.293-10.635c-0.081-0.263,0.066-0.542,0.329-0.622
		c0.262-0.084,0.541,0.065,0.622,0.328l3.293,10.635c0.081,0.263-0.065,0.541-0.329,0.622
		C579.756,171.863,579.707,171.87,579.658,171.87z"/>
	<path d="M590.937,168.169c-0.206,0-0.398-0.129-0.471-0.334l-3.648-10.519c-0.089-0.26,0.048-0.543,0.308-0.634
		c0.259-0.088,0.542,0.048,0.634,0.308l3.648,10.519c0.089,0.259-0.048,0.543-0.308,0.633
		C591.046,168.16,590.991,168.169,590.937,168.169z"/>
	<path d="M602.116,164.077c-0.2,0-0.389-0.121-0.465-0.318l-4.003-10.39c-0.098-0.256,0.029-0.544,0.286-0.643
		c0.256-0.097,0.544,0.029,0.644,0.285l4.002,10.39c0.099,0.256-0.028,0.544-0.285,0.643
		C602.235,164.066,602.175,164.077,602.116,164.077z"/>
	<path d="M613.187,159.597c-0.193,0-0.378-0.113-0.458-0.303l-4.351-10.249c-0.107-0.252,0.011-0.545,0.264-0.651
		c0.251-0.109,0.545,0.01,0.652,0.263l4.351,10.248c0.107,0.253-0.011,0.546-0.264,0.652
		C613.317,159.584,613.251,159.597,613.187,159.597z"/>
	<path d="M624.137,154.726c-0.188,0-0.368-0.107-0.451-0.288l-4.698-10.095c-0.116-0.249-0.008-0.545,0.24-0.66
		c0.249-0.116,0.547-0.008,0.661,0.24l4.698,10.095c0.116,0.25,0.008,0.546-0.241,0.661
		C624.278,154.711,624.207,154.726,624.137,154.726z"/>
	<path d="M634.956,149.465c-0.181,0-0.355-0.099-0.444-0.271l-5.039-9.928c-0.124-0.245-0.025-0.545,0.219-0.67
		c0.248-0.12,0.545-0.026,0.67,0.219l5.039,9.928c0.124,0.245,0.025,0.545-0.219,0.67
		C635.108,149.447,635.031,149.465,634.956,149.465z"/>
</g>
<path d="M113.561,61.294c0.14,1.2-0.536,1.665-2.559,1.08c-2.021-0.587-3.388-2.003-3.052-3.164
	c0.336-1.161,1.523-1.628,3.545-1.042C113.519,58.754,113.44,60.267,113.561,61.294z"/>
</svg>
