<?xml version="1.0" encoding="utf-8"?>
<!-- Generator: Adobe Illustrator 16.0.3, SVG Export Plug-In . SVG Version: 6.00 Build 0)  -->
<!DOCTYPE svg PUBLIC "-//W3C//DTD SVG 1.1//EN" "http://www.w3.org/Graphics/SVG/1.1/DTD/svg11.dtd">
<svg version="1.1" id="Layer_1" xmlns="http://www.w3.org/2000/svg" xmlns:xlink="http://www.w3.org/1999/xlink" x="0px" y="0px"
	 width="475px" height="163px" viewBox="0 -1 475 163" class="svg_next_on" enable-background="new 0 -1 475 163" xml:space="preserve">
<g id="off" display="none">
	<g display="inline">
		<g>
			<line fill="none" x1="-70.555" y1="133.965" x2="-70.555" y2="147.635"/>
			<path d="M-70.555,148.137c-0.277,0-0.5-0.225-0.5-0.502v-13.67c0-0.277,0.224-0.502,0.5-0.502c0.276,0,0.501,0.225,0.501,0.502
				v13.67C-70.054,147.912-70.278,148.137-70.555,148.137z"/>
		</g>
		<g>
			<line fill="none" x1="-57.726" y1="133.965" x2="-57.726" y2="147.635"/>
			<path d="M-57.726,148.137c-0.277,0-0.501-0.225-0.501-0.502v-13.67c0-0.277,0.224-0.502,0.501-0.502s0.501,0.225,0.501,0.502
				v13.67C-57.225,147.912-57.449,148.137-57.726,148.137z"/>
		</g>
		<g>
			<line fill="none" x1="-44.896" y1="133.965" x2="-44.896" y2="147.635"/>
			<path d="M-44.896,148.137c-0.277,0-0.501-0.225-0.501-0.502v-13.67c0-0.277,0.224-0.502,0.501-0.502s0.5,0.225,0.5,0.502v13.67
				C-44.396,147.912-44.619,148.137-44.896,148.137z"/>
		</g>
		<g>
			<line fill="none" x1="-32.067" y1="133.965" x2="-32.067" y2="147.635"/>
			<path d="M-32.067,148.137c-0.277,0-0.5-0.225-0.5-0.502v-13.67c0-0.277,0.224-0.502,0.5-0.502s0.501,0.225,0.501,0.502v13.67
				C-31.566,147.912-31.79,148.137-32.067,148.137z"/>
		</g>
		<g>
			<line fill="none" x1="-19.237" y1="133.965" x2="-19.237" y2="147.635"/>
			<path d="M-19.237,148.137c-0.277,0-0.501-0.225-0.501-0.502v-13.67c0-0.277,0.224-0.502,0.501-0.502
				c0.277,0,0.501,0.225,0.501,0.502v13.67C-18.736,147.912-18.96,148.137-19.237,148.137z"/>
		</g>
		<g>
			<line fill="none" x1="-6.409" y1="133.965" x2="-6.409" y2="147.635"/>
			<path d="M-6.409,148.137c-0.277,0-0.501-0.225-0.501-0.502v-13.67c0-0.277,0.224-0.502,0.501-0.502c0.277,0,0.5,0.225,0.5,0.502
				v13.67C-5.908,147.912-6.132,148.137-6.409,148.137z"/>
		</g>
		<g>
			<line fill="none" x1="6.421" y1="133.965" x2="6.421" y2="147.635"/>
			<path d="M6.421,148.137c-0.275,0-0.5-0.225-0.5-0.502v-13.67c0-0.277,0.225-0.502,0.5-0.502c0.277,0,0.502,0.225,0.502,0.502
				v13.67C6.923,147.912,6.698,148.137,6.421,148.137z"/>
		</g>
		<g>
			<line fill="none" x1="19.251" y1="133.965" x2="19.251" y2="147.635"/>
			<path d="M19.251,148.137c-0.277,0-0.5-0.225-0.5-0.502v-13.67c0-0.277,0.223-0.502,0.5-0.502s0.501,0.225,0.501,0.502v13.67
				C19.752,147.912,19.528,148.137,19.251,148.137z"/>
		</g>
		<g>
			<line fill="none" x1="32.079" y1="133.965" x2="32.079" y2="147.635"/>
			<path d="M32.079,148.137c-0.277,0-0.502-0.225-0.502-0.502v-13.67c0-0.277,0.225-0.502,0.502-0.502c0.276,0,0.5,0.225,0.5,0.502
				v13.67C32.579,147.912,32.355,148.137,32.079,148.137z"/>
		</g>
		<g>
			<line fill="none" x1="44.906" y1="133.965" x2="44.906" y2="147.635"/>
			<path d="M44.906,148.137c-0.275,0-0.5-0.225-0.5-0.502v-13.67c0-0.277,0.225-0.502,0.5-0.502c0.277,0,0.502,0.225,0.502,0.502
				v13.67C45.408,147.912,45.184,148.137,44.906,148.137z"/>
		</g>
		<g>
			<line fill="none" x1="57.736" y1="133.965" x2="57.736" y2="147.635"/>
			<path d="M57.736,148.137c-0.277,0-0.5-0.225-0.5-0.502v-13.67c0-0.277,0.223-0.502,0.5-0.502c0.277,0,0.502,0.225,0.502,0.502
				v13.67C58.238,147.912,58.014,148.137,57.736,148.137z"/>
		</g>
		<g>
			<line fill="none" x1="70.566" y1="133.965" x2="70.566" y2="147.635"/>
			<path d="M70.566,148.137c-0.277,0-0.502-0.225-0.502-0.502v-13.67c0-0.277,0.225-0.502,0.502-0.502c0.275,0,0.5,0.225,0.5,0.502
				v13.67C71.066,147.912,70.842,148.137,70.566,148.137z"/>
		</g>
		<path d="M107.311,153.27h-212.046c-0.277,0-0.501-0.225-0.501-0.502c0-0.274,0.224-0.5,0.501-0.5h212.046
			c0.277,0,0.5,0.226,0.5,0.5C107.811,153.045,107.588,153.27,107.311,153.27z"/>
		<path d="M104.746,155.832h-214.079c-0.277,0-0.5-0.225-0.5-0.502c0-0.275,0.224-0.5,0.5-0.5h214.079
			c0.277,0,0.502,0.225,0.502,0.5C105.248,155.607,105.023,155.832,104.746,155.832z"/>
		<g>
			<path d="M72.4,72.296c-0.211-0.91-0.633-1.7-1.158-2.322c-1.053-1.25-2.371-1.989-3.695-2.514
				c-1.334-0.519-2.709-0.796-4.086-0.931c-2.773-0.206-5.42,0.092-8.076,0.508c-2.643,0.448-5.236,1.094-7.789,1.853
				c-5.107,1.526-10.053,3.498-14.894,5.669c-4.844,2.176-9.573,4.58-14.236,7.103C9.122,86.668,0.048,92.16-8.834,97.934
				c-0.348,0.229-0.695,0.457-1.043,0.687V28.633c0-0.356-0.286-0.641-0.641-0.641h-9.4V0.858c0-0.354-0.287-0.645-0.641-0.645
				h-453.799c-0.279,0-0.537,0.187-0.617,0.47c-0.096,0.341,0.103,0.694,0.444,0.79l0.007,0.004l7.215,2.029
				c2.4,0.692,4.821,1.316,7.204,2.067l7.155,2.224l3.578,1.115l3.546,1.209l7.091,2.422c2.354,0.831,4.684,1.733,7.028,2.594
				c2.343,0.867,4.686,1.731,6.991,2.691l6.946,2.812l6.868,2.987c2.303,0.968,4.533,2.091,6.804,3.128
				c2.274,1.034,4.505,2.153,6.734,3.276l3.346,1.678l3.302,1.767c2.213,1.15,4.385,2.379,6.549,3.623
				c2.185,1.203,4.29,2.543,6.434,3.814c2.101,1.342,4.213,2.666,6.261,4.085c2.048,1.398,4.097,2.861,5.971,4.412l0.007,0.008
				c0.172,0.142,0.411,0.192,0.634,0.114c4.538-1.595,9.141-3.118,13.724-4.645l13.787-4.489c9.205-2.955,18.43-5.845,27.687-8.629
				l13.902-4.117c4.641-1.352,9.292-2.664,13.95-3.949c2.324-0.659,4.664-1.264,6.996-1.89c2.333-0.63,4.667-1.25,7.011-1.833
				c2.343-0.587,4.678-1.209,7.028-1.765l7.048-1.673c0.281-0.066,0.498-0.322,0.498-0.626c0-0.352-0.287-0.64-0.641-0.64l0,0
				l-15.172,0.155l-15.173,0.092l-30.344,0.016l-30.346-0.183l-7.586-0.049c-2.544,0.006-5.02-0.074-7.635,0.002
				c-1.301,0.059-2.614,0.188-3.951,0.528c-0.67,0.175-1.338,0.427-2.011,0.8c-0.662,0.374-1.337,0.936-1.779,1.761
				c-0.422,0.824-0.569,1.837-0.417,2.712c0.136,0.886,0.476,1.658,0.849,2.37c0.383,0.71,0.854,1.333,1.339,1.935
				c0.25,0.312,0.494,0.571,0.785,0.877c0.316,0.326,0.54,0.548,0.751,0.79c0.313,0.354,0.73,0.642,1.214,0.794
				c1.407,0.44,2.907-0.344,3.35-1.75c0.442-1.407-0.34-2.907-1.749-3.35l-0.059-0.02l-0.829-0.26
				c-0.223-0.063-0.482-0.184-0.707-0.292c-0.474-0.219-0.892-0.509-1.26-0.813c-0.732-0.636-1.153-1.359-1.015-2.007
				c0.133-0.69,1.033-1.455,2.092-1.882c1.074-0.44,2.278-0.687,3.497-0.823c1.22-0.126,2.467-0.124,3.739-0.132l3.794-0.023
				l7.586-0.043l30.346-0.184l30.344,0.018c0,0,13.04,0.403,13.04,1.687c0,1.281-8.648,3.805-10.976,4.466
				c-4.665,1.283-9.32,2.598-13.966,3.951l-13.916,4.12c-9.264,2.789-18.496,5.683-27.708,8.638l-13.798,4.493
				c-4.479,1.491-8.945,2.972-13.416,4.537c-1.885-1.54-3.818-2.919-5.793-4.269c-2.067-1.432-4.193-2.766-6.31-4.116
				c-2.157-1.279-4.276-2.627-6.472-3.838c-2.176-1.248-4.358-2.484-6.582-3.642l-3.318-1.771l-3.361-1.688
				c-2.239-1.129-4.48-2.252-6.76-3.288c-2.28-1.043-4.521-2.172-6.831-3.14l-6.893-3.001l-6.969-2.819
				c-2.314-0.964-4.664-1.828-7.013-2.699c-2.351-0.866-4.689-1.77-7.052-2.604l-7.111-2.43c0,0-3.996-1.529-3.996-4.362
				c0-2.83,3.845-3.046,3.845-3.046H-21.2V27.99h-32.69c-0.228,0.002-0.453,0.124-0.566,0.341c-0.166,0.313-0.045,0.698,0.268,0.864
				c1.787,0.965,3.522,2.027,5.2,3.182c1.666,1.171,3.284,2.411,4.842,3.729c3.111,2.644,6.009,5.54,8.73,8.592
				c2.714,3.063,5.265,6.275,7.649,9.604c2.38,3.328,4.643,6.774,6.644,10.315l0.006,0.01c0.109,0.191,0.318,0.32,0.558,0.32
				c0.354,0,0.641-0.283,0.641-0.64V29.275h8.759v70.186c-3.657,2.393-7.306,4.799-10.906,7.281
				c-4.364,3.006-8.693,6.055-12.981,9.188l-0.002,0.004c-0.154,0.117-0.255,0.305-0.253,0.512c0,0.353,0.287,0.642,0.641,0.642
				h24.143c0.354,0,0.641-0.289,0.641-0.642V99.586c0.494-0.326,0.98-0.662,1.476-0.986c8.86-5.773,17.899-11.285,27.221-16.275
				c4.676-2.465,9.418-4.805,14.259-6.914c4.836-2.104,9.77-4.005,14.826-5.454c2.529-0.718,5.088-1.324,7.672-1.731
				c2.566-0.365,5.23-0.653,7.738-0.385c1.25,0.16,2.475,0.528,3.551,1.107c1.076,0.564,2.006,1.404,2.475,2.331
				c0.934,1.966-0.58,3.196-2.736,3.637c-0.49,0.096-0.957,0.333-1.344,0.704c-1.07,1.037-1.098,2.746-0.063,3.818
				c1.039,1.074,2.748,1.102,3.82,0.064l0.16-0.152c1.188-1.15,2.432-2.412,3.047-4.237C72.521,74.215,72.613,73.208,72.4,72.296z
				 M-21.881,58.652c-0.962,0.372-2.894-2.365-4.844-5.092c-2.408-3.364-4.985-6.609-7.732-9.708
				c-2.756-3.093-5.694-6.033-8.861-8.723c-1.586-1.34-3.574-2.758-3.2-4.039c0.588-1.979,3.098-1.815,3.098-1.815h22.22v24.42
				C-21.2,53.695-20.92,58.277-21.881,58.652z M-11.159,115.803H-23.87c0,0-2.458-0.135-3.446-1.629
				c-0.989-1.496,2.12-3.988,2.12-3.988s2.457-1.77,3.691-2.641c3.419-2.41,6.867-4.781,10.347-7.1L-11.159,115.803L-11.159,115.803
				z"/>
			<path d="M-0.048,126.484h-61.291c0,0,1.12-2.564,0.078-3.605c-1.041-1.041-3.152-0.988-3.152-0.988l29.564-29.565
				c0.114-0.115,0.19-0.277,0.191-0.453c0.001-0.353-0.285-0.638-0.636-0.64l-10.977-0.045l-10.977,0.136
				c-7.317,0.163-14.631,0.389-21.938,0.75c-3.657,0.141-7.307,0.391-10.959,0.6c-3.654,0.195-7.302,0.451-10.95,0.729
				c-7.3,0.505-14.587,1.156-21.872,1.845l-10.917,1.103l-10.906,1.223c-7.262,0.883-14.521,1.785-21.766,2.809
				c-3.627,0.473-7.241,1.039-10.86,1.566c-3.622,0.521-7.234,1.088-10.845,1.676c-7.227,1.135-14.435,2.391-21.635,3.686
				c-7.201,1.295-14.381,2.697-21.554,4.137l-10.742,2.248l-10.714,2.38c-7.13,1.641-14.247,3.342-21.336,5.151
				c-7.089,1.814-14.154,3.724-21.188,5.742c-7.034,2.02-14.03,4.176-20.993,6.438l-10.396,3.541
				c-3.431,1.275-6.897,2.457-10.301,3.812c-3.411,1.332-6.828,2.65-10.188,4.113c-3.393,1.381-6.712,2.938-10.044,4.467
				c-6.606,3.175-13.12,6.578-19.293,10.584c-0.173,0.115-0.292,0.317-0.292,0.543c0.002,0.354,0.29,0.638,0.644,0.636h153.83
				c0.355,0,0.641-0.285,0.641-0.642v-34.291c0-0.103-0.025-0.211-0.076-0.306c-0.169-0.311-0.557-0.426-0.867-0.26l-0.005,0.002
				c-2.513,1.59-4.994,3.158-7.45,4.795c-2.453,1.631-4.883,3.31-7.192,5.166c-1.155,0.931-2.292,1.896-3.338,2.98
				c-0.533,0.531-1.021,1.117-1.497,1.723c-0.466,0.615-0.93,1.258-1.274,2.017c-0.399,0.721-0.601,1.623-0.613,2.598
				c0.087,0.47,0.096,1.021,0.34,1.455l0.319,0.695c0.129,0.209,0.283,0.389,0.423,0.594c0.284,0.433,0.616,0.735,0.958,1.051
				c0.347,0.341,0.69,0.613,1.049,0.875c0.728,0.574,1.438,0.979,2.187,1.517c0.501,0.361,1.129,0.561,1.792,0.512
				c1.505-0.107,2.639-1.412,2.531-2.916c-0.105-1.504-1.412-2.639-2.917-2.531h-0.022c-0.631,0.045-1.365,0.104-1.936-0.02
				c-0.312-0.039-0.636-0.074-0.877-0.182c-0.272-0.089-0.562-0.175-0.76-0.312c-0.517-0.231-0.744-0.603-0.987-1.047
				c-0.111-0.484-0.18-1.087,0.036-1.707c0.161-0.623,0.471-1.248,0.841-1.839c0.364-0.596,0.802-1.159,1.268-1.698
				c0.93-1.091,2.145-2.129,3.245-3.084c2.185-1.922,4.365-3.521,6.825-5.109c0.839-0.536,2.549-1.604,2.549-1.604
				s-0.48,2.244,1.015,3.207c1.496,0.961,3.151,0.428,3.151,0.428v26.652h-150.932c5.54-3.451,11.339-6.49,17.231-9.322
				c3.315-1.521,6.617-3.068,9.995-4.447c3.347-1.453,6.75-2.768,10.151-4.094c3.391-1.348,6.847-2.527,10.269-3.799l10.367-3.533
				c6.945-2.254,13.925-4.406,20.946-6.424c7.02-2.016,14.074-3.92,21.15-5.73c7.08-1.807,14.185-3.506,21.305-5.145l10.7-2.377
				l10.726-2.246c7.165-1.434,14.336-2.836,21.527-4.131c7.193-1.291,14.391-2.547,21.61-3.678
				c3.605-0.588,7.215-1.152,10.831-1.675c3.615-0.53,7.225-1.096,10.847-1.565c7.235-1.021,14.486-1.922,21.74-2.81l10.893-1.217
				l10.903-1.103c7.275-0.686,14.554-1.336,21.842-1.844c3.643-0.272,7.287-0.533,10.935-0.727
				c3.647-0.211,7.291-0.459,10.941-0.598c7.298-0.359,14.6-0.584,21.903-0.75l10.956-0.136c0,0-1.667,2.664-0.573,4.214
				c1.095,1.547,3.926,1.895,3.926,1.895l-28.095,28.096c-0.114,0.115-0.188,0.277-0.188,0.453c0,0.355,0.288,0.643,0.64,0.643
				h70.507c0.354,0,0.641-0.287,0.641-0.643C0.592,126.773,0.305,126.484-0.048,126.484z"/>
			<path d="M-360.421,46.655c-0.233-2.26-2.12-4.027-4.44-4.027c-1.797,0-3.336,1.064-4.052,2.588
				c1.341,0.948,2.663,1.933,3.96,2.993C-363.442,47.678-361.932,47.169-360.421,46.655z"/>
			<path d="M-223.103,155.555c-2.319,0.057-4.185,1.932-4.213,4.26h4.213V155.555z"/>
		</g>
		<g>
			<path d="M-72.227,75.113c0.616,1.825,1.86,3.087,3.047,4.237l0.16,0.152c1.072,1.037,2.782,1.01,3.818-0.064
				c1.039-1.072,1.009-2.781-0.063-3.818c-0.386-0.371-0.852-0.608-1.342-0.704c-2.156-0.44-3.67-1.671-2.736-3.637
				c0.471-0.927,1.399-1.767,2.477-2.331c1.074-0.579,2.301-0.947,3.552-1.107c2.504-0.269,5.171,0.02,7.737,0.385
				c2.584,0.407,5.143,1.014,7.668,1.731c5.058,1.449,9.99,3.351,14.831,5.454c4.84,2.108,9.582,4.448,14.258,6.914
				C-9.499,87.314-0.46,92.827,8.401,98.6c0.494,0.324,0.98,0.66,1.478,0.986v16.859c0,0.352,0.284,0.641,0.64,0.641h24.143
				c0.355,0,0.641-0.289,0.641-0.641c0.004-0.207-0.102-0.396-0.254-0.512l-0.002-0.004c-4.287-3.134-8.617-6.183-12.98-9.188
				c-3.6-2.482-7.25-4.89-10.904-7.281V29.275h8.758v35.036c0,0.356,0.289,0.64,0.64,0.64c0.241,0,0.449-0.129,0.559-0.32
				l0.006-0.01c2-3.541,4.265-6.987,6.644-10.315c2.385-3.329,4.936-6.541,7.65-9.604c2.722-3.052,5.618-5.948,8.729-8.592
				c1.559-1.318,3.178-2.559,4.844-3.729c1.676-1.154,3.412-2.217,5.197-3.182c0.316-0.166,0.436-0.551,0.27-0.864
				c-0.115-0.217-0.342-0.339-0.568-0.341H21.201V1.497H445.57c0,0,3.844,0.216,3.844,3.046c0,2.833-3.996,4.362-3.996,4.362
				l-7.111,2.43c-2.362,0.834-4.698,1.737-7.051,2.604c-2.35,0.871-4.699,1.735-7.014,2.699l-6.969,2.819l-6.894,3.001
				c-2.313,0.968-4.553,2.097-6.832,3.14c-2.281,1.036-4.521,2.159-6.76,3.288l-3.361,1.688l-3.317,1.771
				c-2.223,1.157-4.406,2.394-6.582,3.642c-2.195,1.211-4.314,2.559-6.473,3.838c-2.115,1.351-4.242,2.685-6.31,4.116
				c-1.978,1.35-3.91,2.729-5.793,4.269c-4.472-1.565-8.937-3.046-13.418-4.537l-13.795-4.493
				c-9.214-2.955-18.445-5.849-27.709-8.638l-13.916-4.12c-4.646-1.354-9.302-2.668-13.968-3.951
				c-2.326-0.661-10.975-3.185-10.975-4.466c0-1.283,13.039-1.687,13.039-1.687l30.346-0.018l30.346,0.184l7.587,0.043l3.793,0.023
				c1.271,0.008,2.52,0.006,3.739,0.132c1.22,0.137,2.424,0.383,3.494,0.823c1.063,0.427,1.963,1.191,2.094,1.882
				c0.14,0.647-0.282,1.371-1.016,2.007c-0.367,0.305-0.785,0.595-1.26,0.813c-0.225,0.108-0.484,0.229-0.705,0.292l-0.83,0.26
				l-0.057,0.02c-1.41,0.442-2.193,1.942-1.75,3.35c0.443,1.406,1.943,2.19,3.35,1.75c0.486-0.152,0.902-0.439,1.215-0.794
				c0.211-0.242,0.435-0.464,0.75-0.79c0.293-0.306,0.535-0.565,0.785-0.877c0.486-0.602,0.957-1.225,1.338-1.935
				c0.373-0.712,0.715-1.484,0.851-2.37c0.151-0.875,0.004-1.888-0.416-2.712c-0.441-0.825-1.115-1.387-1.777-1.761
				c-0.674-0.373-1.342-0.625-2.014-0.8c-1.337-0.34-2.648-0.47-3.949-0.528c-2.615-0.076-5.092,0.004-7.635-0.002l-7.587,0.049
				l-30.346,0.183l-30.346-0.016l-15.17-0.092l-15.174-0.155h-0.002c-0.352,0-0.641,0.288-0.641,0.64
				c0,0.304,0.219,0.56,0.498,0.626l7.049,1.673c2.35,0.556,4.686,1.178,7.028,1.765c2.345,0.583,4.679,1.203,7.011,1.833
				c2.334,0.626,4.67,1.23,6.996,1.89c4.657,1.285,9.309,2.598,13.948,3.949l13.904,4.117c9.256,2.784,18.479,5.674,27.687,8.629
				l13.786,4.489c4.582,1.526,9.187,3.05,13.724,4.645c0.225,0.078,0.463,0.027,0.637-0.114l0.006-0.008
				c1.875-1.551,3.922-3.014,5.971-4.412c2.047-1.419,4.16-2.743,6.262-4.085c2.144-1.271,4.25-2.611,6.435-3.814
				c2.166-1.244,4.336-2.473,6.549-3.623l3.304-1.767l3.348-1.678c2.229-1.123,4.459-2.242,6.731-3.276
				c2.271-1.037,4.502-2.16,6.806-3.128l6.866-2.987l6.947-2.812c2.305-0.96,4.648-1.824,6.99-2.691
				c2.342-0.86,4.674-1.763,7.027-2.594l7.092-2.422l3.547-1.209l3.576-1.115l7.157-2.224c2.38-0.751,4.802-1.375,7.201-2.067
				l7.215-2.029l0.009-0.004c0.342-0.096,0.541-0.449,0.442-0.79c-0.08-0.283-0.336-0.47-0.617-0.47H20.559
				c-0.351,0-0.64,0.29-0.64,0.645v27.135h-9.4c-0.355,0-0.64,0.284-0.64,0.641v69.986c-0.349-0.229-0.696-0.457-1.044-0.686
				C-0.048,92.16-9.12,86.668-18.467,81.662c-4.661-2.523-9.391-4.927-14.234-7.103c-4.842-2.171-9.79-4.143-14.895-5.669
				c-2.554-0.759-5.147-1.404-7.79-1.853c-2.656-0.416-5.303-0.714-8.076-0.508c-1.378,0.135-2.752,0.412-4.086,0.931
				c-1.325,0.524-2.643,1.264-3.697,2.514c-0.526,0.622-0.949,1.412-1.159,2.322C-72.613,73.208-72.522,74.215-72.227,75.113z
				 M21.201,53.695v-24.42H43.42c0,0,2.512-0.163,3.098,1.815c0.375,1.281-1.613,2.699-3.199,4.039
				c-3.166,2.689-6.105,5.63-8.86,8.723c-2.745,3.099-5.322,6.344-7.73,9.708c-1.952,2.727-3.885,5.464-4.846,5.092
				C20.921,58.277,21.201,53.695,21.201,53.695z M11.161,100.445c3.479,2.318,6.927,4.688,10.346,7.1
				c1.232,0.871,3.689,2.641,3.689,2.641s3.111,2.492,2.121,3.988c-0.988,1.494-3.443,1.629-3.443,1.629H11.161V100.445z"/>
			<path d="M0.048,126.484H61.34c0,0-1.121-2.564-0.082-3.605c1.043-1.041,3.154-0.988,3.154-0.988L34.85,92.324
				c-0.114-0.115-0.192-0.277-0.192-0.453c-0.002-0.352,0.283-0.637,0.637-0.639l10.978-0.045l10.975,0.135
				c7.316,0.164,14.631,0.389,21.939,0.75c3.656,0.141,7.307,0.391,10.959,0.6c3.654,0.195,7.303,0.451,10.949,0.73
				c7.299,0.504,14.588,1.156,21.871,1.844l10.918,1.102l10.908,1.223c7.26,0.884,14.52,1.785,21.764,2.81
				c3.629,0.474,7.242,1.039,10.861,1.565c3.621,0.521,7.234,1.089,10.844,1.677c7.229,1.135,14.436,2.392,21.637,3.687
				c7.197,1.295,14.381,2.696,21.553,4.137l10.742,2.248l10.713,2.379c7.131,1.641,14.248,3.342,21.338,5.152
				c7.088,1.813,14.152,3.723,21.188,5.741c7.036,2.019,14.029,4.177,20.992,6.438l10.395,3.541
				c3.433,1.274,6.898,2.457,10.302,3.811c3.411,1.332,6.827,2.65,10.188,4.113c3.396,1.381,6.711,2.938,10.045,4.467
				c6.605,3.174,13.119,6.578,19.293,10.584c0.172,0.115,0.291,0.318,0.289,0.543c-0.002,0.354-0.289,0.637-0.643,0.635h-153.83
				c-0.354,0-0.641-0.285-0.641-0.641v-34.291c0-0.102,0.025-0.211,0.076-0.305c0.168-0.312,0.557-0.426,0.867-0.26l0.006,0.002
				c2.514,1.59,4.994,3.157,7.449,4.795c2.453,1.631,4.883,3.309,7.191,5.166c1.155,0.93,2.293,1.895,3.342,2.979
				c0.531,0.531,1.019,1.117,1.494,1.724c0.467,0.614,0.932,1.258,1.272,2.016c0.4,0.721,0.604,1.623,0.613,2.598
				c-0.086,0.469-0.094,1.021-0.34,1.455l-0.318,0.695c-0.127,0.209-0.281,0.389-0.424,0.594c-0.283,0.432-0.617,0.736-0.959,1.051
				c-0.346,0.34-0.689,0.613-1.049,0.875c-0.727,0.574-1.436,0.979-2.184,1.516c-0.504,0.361-1.131,0.562-1.795,0.513
				c-1.504-0.106-2.637-1.412-2.529-2.916c0.104-1.504,1.412-2.64,2.916-2.531h0.021c0.631,0.045,1.365,0.104,1.938-0.021
				c0.311-0.039,0.635-0.073,0.875-0.182c0.273-0.088,0.563-0.174,0.762-0.311c0.516-0.232,0.742-0.602,0.986-1.047
				c0.111-0.484,0.18-1.086-0.035-1.707c-0.162-0.623-0.473-1.248-0.846-1.838c-0.361-0.596-0.797-1.16-1.267-1.699
				c-0.93-1.09-2.146-2.129-3.244-3.084c-2.186-1.922-4.365-3.521-6.828-5.109c-0.836-0.537-2.547-1.605-2.547-1.605
				s0.48,2.244-1.014,3.207c-1.496,0.962-3.15,0.429-3.15,0.429v26.651h150.932c-5.541-3.45-11.34-6.489-17.232-9.321
				c-3.314-1.521-6.615-3.068-9.996-4.447c-3.344-1.453-6.75-2.769-10.147-4.094c-3.394-1.349-6.851-2.527-10.271-3.8l-10.367-3.532
				c-6.946-2.254-13.926-4.406-20.944-6.424c-7.023-2.017-14.074-3.921-21.152-5.73c-7.077-1.807-14.182-3.506-21.303-5.145
				l-10.699-2.378l-10.727-2.245c-7.164-1.435-14.338-2.837-21.529-4.132c-7.191-1.291-14.389-2.547-21.607-3.678
				c-3.609-0.588-7.215-1.152-10.832-1.674c-3.615-0.531-7.225-1.096-10.848-1.566c-7.236-1.021-14.486-1.922-21.74-2.809
				l-10.893-1.217l-10.904-1.102c-7.273-0.687-14.553-1.336-21.842-1.844c-3.643-0.273-7.285-0.533-10.934-0.728
				c-3.646-0.211-7.293-0.459-10.943-0.599c-7.295-0.358-14.598-0.584-21.9-0.75l-10.957-0.135c0,0,1.666,2.664,0.574,4.213
				c-1.096,1.547-3.928,1.896-3.928,1.896l28.096,28.096c0.115,0.115,0.188,0.277,0.188,0.453c0,0.354-0.287,0.644-0.643,0.644
				H0.048c-0.353,0-0.641-0.287-0.641-0.644C-0.593,126.773-0.304,126.484,0.048,126.484z"/>
			<path d="M360.422,46.655c0.23-2.26,2.119-4.027,4.441-4.027c1.795,0,3.334,1.064,4.049,2.588
				c-1.342,0.948-2.662,1.933-3.959,2.993C363.441,47.678,361.932,47.169,360.422,46.655z"/>
			<path d="M223.104,155.555c2.318,0.057,4.184,1.932,4.213,4.26h-4.213V155.555z"/>
		</g>
		<path d="M120.727,32.672c0.535-4.175-1.58-6.564-6.348-7.179l0.238-1.827l17.781,2.292c0.535,0.066,1.08,0.556,1.637,1.46
			c0.563,0.903,0.902,1.365,1.025,1.383c3.412-1.782,6.76-2.463,10.049-2.038c15.496,1.995,22.516,8.63,21.064,19.901L163.3,68.975
			c-0.541,4.168,1.576,6.561,6.344,7.175l-0.232,1.827l-27.863-3.588l0.238-1.825c4.271,0.548,6.672-1.262,7.211-5.432l2.76-21.416
			c1.369-10.651-0.922-16.359-6.881-17.128c-3.066-0.397-6.232,0.322-9.494,2.146c-0.012,0.757-0.131,2.017-0.355,3.781
			l-3.906,30.313c-0.537,4.173,1.328,6.531,5.602,7.083l-0.234,1.825l-27.859-3.59l0.236-1.825c4.766,0.615,7.418-1.163,7.955-5.334
			L120.727,32.672z"/>
		<path d="M209.557,80.909c4.109-1.471,7.559-3.768,10.352-6.881l1.373,1.24c-2.947,3.28-6.648,5.742-11.104,7.386
			c-3.828,1.418-8.701,1.631-14.605,0.643c-8.053-1.346-13.879-4.42-17.473-9.224c-3.59-4.803-4.736-11.098-3.438-18.881
			c1.299-7.761,4.451-13.336,9.465-16.729c4.971-3.37,11.453-4.394,19.447-3.056c7.982,1.332,13.779,4.403,17.396,9.214
			c3.637,4.836,4.809,11.133,3.512,18.895l-35.586-5.944c-1.508,9.018-1.98,14.603-1.426,16.754c1.033,4.008,3.834,6.395,8.406,7.16
			C201.375,82.402,205.936,82.209,209.557,80.909z M210.553,59.321c1.338-7.992,1.719-13.031,1.152-15.105
			c-1.064-3.9-3.875-6.229-8.434-6.991c-4.521-0.757-7.68,0.272-9.471,3.085c-1.828,2.882-3.361,8.03-4.6,15.444L210.553,59.321z"/>
		<path d="M269.762,94.635l-0.363,1.803l-27.53-5.545l0.362-1.805c2.896,0.469,4.502-0.102,4.826-1.707
			c0.123-0.615,0.06-1.375-0.192-2.279l-3.279-11.862l-10.063,9.173c-1.063,0.959-1.666,1.805-1.813,2.527
			c-0.26,1.301,0.939,2.217,3.604,2.758l0.293,0.059l-0.363,1.801L220.96,86.68l0.365-1.801c1.842,0.369,3.152,0.57,3.939,0.602
			c1.498-0.018,3.621-1.287,6.377-3.809l11.41-10.438l-6.07-21.96c-0.549-1.964-1.387-3.573-2.514-4.835
			c-0.699-0.779-1.99-1.36-3.881-1.739l0.363-1.804l16.781,3.38c2.02,0.509,3.672,3.106,4.961,7.796l2.928,10.665l8.85-8.293
			c1.213-1.132,1.83-1.762,1.857-1.885c0.342-1.704-1.07-2.876-4.234-3.516l0.363-1.802l14.279,2.876l-0.361,1.803
			c-1.875-0.377-3.531-0.373-4.965,0.018c-1.613,0.54-3.295,1.626-5.037,3.254l-10.193,9.532l6.398,23.178
			C263.613,91.633,266.006,93.877,269.762,94.635z"/>
		<path d="M331.963,63.11l-1.664,13.325l-1.834-0.248c0.717-7.847-2.816-12.705-10.602-14.581l-2.775-0.669l-8.648,35.885
			c-0.989,4.096,0.855,6.703,5.533,7.832l-0.43,1.791l-28.066-6.769l0.431-1.788c4.678,1.129,7.51-0.353,8.5-4.449l8.646-35.888
			l-2.775-0.669c-7.784-1.876-13.145,0.842-16.079,8.149l-1.746-0.614l4.588-12.621L331.963,63.11z"/>
		<path fill="none" stroke="#000000" stroke-width="0.5" d="M217.596,88.92"/>
		<g>
			<path d="M-301.75,56.331c7.333-1.769,13.4-1.706,18.201,0.191c5.771,2.284,9.299,6.094,10.583,11.42
				c1.285,5.33-0.189,10.039-4.424,14.126c-3.379,3.25-8.822,5.781-16.326,7.588l-8.918,2.152l1.049,4.348
				c0.987,4.094,3.819,5.576,8.496,4.449l0.432,1.789l-28.066,6.768l-0.432-1.791c4.678-1.127,6.523-3.738,5.537-7.834l-7.36-30.533
				c-1.03-3.529-3.799-4.748-8.306-3.662l-0.433-1.788L-301.75,56.331z M-303.064,90.02l8.917-2.151
				c7.017-1.691,9.4-7.201,7.151-16.532c-2.531-10.504-7.305-14.905-14.322-13.218l-8.917,2.152L-303.064,90.02z"/>
			<path d="M-245.202,44.204c7.403-1.436,13.459-1.098,18.169,1.014c5.659,2.539,8.84,5.622,9.543,9.25
				c1.2,6.186-2.25,11.864-10.345,17.033c2.26-0.323,3.934-0.153,5.02,0.518l10.524,10.25c0.833,0.807,2.755,0.918,5.768,0.334
				l0.346,1.789c-3.325,1.207-6.629,2.129-9.914,2.766c-5.891,1.143-10.906-0.729-15.043-5.619l-6.403-7.564l-7.14,1.383
				l1.535,7.914c0.801,4.133,3.562,5.74,8.284,4.824l0.351,1.812l-28.335,5.491l-0.351-1.809c4.723-0.916,6.684-3.439,5.883-7.572
				l-5.976-30.824c-0.871-3.57-3.581-4.912-8.131-4.03l-0.351-1.81L-245.202,44.204z M-245.027,73.548l5.313-1.029
				c7.083-1.373,9.746-6.598,7.987-15.673c-1.667-8.597-6.042-12.206-13.125-10.833l-5.312,1.029L-245.027,73.548z"/>
			<path d="M-167.22,74.374c3.426-2.691,5.968-5.954,7.631-9.786l1.693,0.739c-1.756,4.037-4.485,7.539-8.183,10.502
				c-3.182,2.553-7.726,4.294-13.631,5.229c-8.057,1.269-14.544,0.193-19.465-3.224c-4.919-3.416-7.993-9.013-9.219-16.798
				c-1.225-7.76,0.002-14.039,3.679-18.834c3.641-4.767,9.461-7.777,17.456-9.039c7.981-1.26,14.445-0.183,19.39,3.229
				c4.973,3.435,8.071,9.029,9.295,16.789l-35.585,5.61c1.422,9.021,2.735,14.46,3.941,16.322c2.244,3.469,5.651,4.846,10.222,4.124
				C-174.498,78.37-170.239,76.75-167.22,74.374z M-173.095,53.609c-1.262-7.995-2.488-12.885-3.682-14.671
				c-2.238-3.358-5.637-4.68-10.197-3.959c-4.522,0.712-7.188,2.686-7.994,5.913c-0.822,3.31-0.647,8.672,0.521,16.083
				L-173.095,53.609z"/>
			<path d="M-153.072,35.972c-1.12-2.017-2.375-3.329-3.76-3.936c-0.96-0.425-2.422-0.515-4.382-0.272l-0.228-1.824l16.983-2.109
				c2.023-0.248,4.116,1.729,6.277,5.936l12.929,23.125l6.809-25.576c0.284-1.068,0.409-1.733,0.377-1.991
				c-0.237-1.913-1.87-2.685-4.899-2.309l-0.227-1.823l11.62-1.439l0.227,1.821c-2.663,0.393-4.412,2.351-5.247,5.872l-7.366,27.781
				l-3.773,14.556l-2.252,0.278c-1.329,0.166-2.287-0.302-2.877-1.399l-2.886-5.43L-153.072,35.972z"/>
		</g>
	</g>
</g>
<g>
	<path fill="none" d="M11.161,114.803h12.713c0,0,2.455-0.135,3.443-1.629c0.99-1.496-2.121-3.988-2.121-3.988
		s-2.457-1.77-3.689-2.641c-3.419-2.411-6.867-4.781-10.346-7.1V114.803z"/>
	<path fill="none" d="M21.883,57.652c0.961,0.372,2.894-2.365,4.846-5.092c2.408-3.364,4.985-6.609,7.73-9.708
		c2.755-3.093,5.694-6.034,8.86-8.723c1.586-1.34,3.574-2.758,3.199-4.039c-0.586-1.978-3.098-1.815-3.098-1.815H21.201v24.42
		C21.201,52.695,20.921,57.277,21.883,57.652z"/>
	<path fill="none" d="M8.835,96.938c0.348,0.229,0.695,0.457,1.044,0.686v-11.29c-3.072,1.779-6.116,3.606-9.136,5.476
		C3.457,93.492,6.158,95.196,8.835,96.938z"/>
	<path fill="none" d="M367.216,45.452c-0.16,0.12-0.321,0.239-0.48,0.36C366.895,45.691,367.056,45.571,367.216,45.452z"/>
	<path fill="none" d="M211.705,43.216c-1.064-3.9-3.875-6.229-8.434-6.991c-4.521-0.757-7.68,0.272-9.471,3.085
		c-1.828,2.882-3.361,8.03-4.6,15.444l21.353,3.567C211.891,50.329,212.272,45.29,211.705,43.216z M196.174,41.417
		c-0.082,0.146-0.18,0.322-0.293,0.524c-0.105,0.207-0.264,0.425-0.359,0.688c-0.217,0.521-0.471,1.128-0.74,1.778
		c-0.15,0.321-0.242,0.68-0.359,1.034c-0.113,0.355-0.229,0.718-0.344,1.079c-0.225,0.728-0.484,1.444-0.633,2.144
		c-0.17,0.693-0.328,1.34-0.463,1.896c-0.273,1.11-0.455,1.851-0.455,1.851s0.152-0.747,0.377-1.868
		c0.113-0.561,0.246-1.215,0.389-1.916c0.119-0.707,0.35-1.437,0.545-2.176c0.102-0.368,0.201-0.738,0.301-1.101
		c0.104-0.362,0.182-0.726,0.32-1.061c0.252-0.679,0.486-1.313,0.688-1.856c0.092-0.278,0.238-0.496,0.334-0.708
		c0.105-0.207,0.195-0.389,0.271-0.537c0.15-0.297,0.236-0.468,0.236-0.468l0.438,0.24C196.428,40.96,196.336,41.126,196.174,41.417
		z"/>
	<path fill="none" d="M0-1v92.353c3.264-2.015,6.555-3.984,9.879-5.897V27.637c0-0.357,0.285-0.641,0.64-0.641h9.4V-0.139
		c0-0.355,0.289-0.645,0.64-0.645h453.796c0.281,0,0.537,0.187,0.617,0.47c0.099,0.341-0.101,0.694-0.442,0.79l-0.009,0.004
		l-7.215,2.029c-2.399,0.692-4.821,1.316-7.201,2.067L452.948,6.8l-3.576,1.115l-3.547,1.209l-7.092,2.422
		c-2.354,0.831-4.686,1.734-7.027,2.594c-2.342,0.867-4.686,1.731-6.99,2.691l-6.947,2.812l-6.866,2.987
		c-2.304,0.968-4.535,2.091-6.806,3.128c-2.272,1.034-4.503,2.153-6.731,3.276l-3.348,1.678l-3.304,1.767
		c-2.213,1.15-4.383,2.379-6.549,3.623c-2.185,1.203-4.291,2.543-6.435,3.814c-2.102,1.342-4.215,2.666-6.262,4.085
		c-2.049,1.398-4.096,2.861-5.971,4.412l-0.006,0.008c-0.174,0.141-0.412,0.192-0.637,0.114c-4.537-1.595-9.142-3.119-13.724-4.645
		l-13.786-4.489c-9.207-2.955-18.431-5.845-27.687-8.629l-13.904-4.117c-4.64-1.351-9.291-2.664-13.948-3.949
		c-2.326-0.66-4.662-1.264-6.996-1.89c-2.332-0.63-4.666-1.25-7.011-1.833c-2.343-0.587-4.679-1.209-7.028-1.765l-7.049-1.673
		c-0.279-0.066-0.498-0.322-0.498-0.626c0-0.352,0.289-0.64,0.641-0.64h0.002l15.174,0.155l15.17,0.092l30.346,0.016l30.346-0.183
		l7.587-0.049c2.543,0.006,5.02-0.074,7.635,0.002c1.301,0.058,2.612,0.188,3.949,0.528c0.672,0.175,1.34,0.427,2.014,0.8
		c0.662,0.374,1.336,0.936,1.777,1.761c0.42,0.824,0.567,1.837,0.416,2.712c-0.136,0.886-0.478,1.658-0.851,2.37
		c-0.381,0.71-0.852,1.333-1.338,1.935c-0.25,0.312-0.492,0.571-0.785,0.877c-0.315,0.326-0.539,0.548-0.75,0.79
		c-0.313,0.355-0.729,0.642-1.215,0.794c-1.406,0.44-2.906-0.344-3.35-1.75c-0.443-1.408,0.34-2.908,1.75-3.35l0.057-0.02l0.83-0.26
		c0.221-0.063,0.48-0.184,0.705-0.292c0.475-0.218,0.893-0.508,1.26-0.813c0.733-0.636,1.155-1.36,1.016-2.007
		c-0.131-0.691-1.03-1.455-2.094-1.882c-1.07-0.44-2.274-0.686-3.494-0.823c-1.22-0.126-2.469-0.124-3.739-0.132l-3.793-0.023
		l-7.587-0.043L314.557,15.3l-30.346,0.018c0,0-13.039,0.404-13.039,1.687c0,1.281,8.648,3.805,10.975,4.466
		c4.666,1.283,9.321,2.597,13.968,3.951l13.916,4.12c9.264,2.789,18.495,5.683,27.709,8.638l13.795,4.493
		c4.481,1.491,8.946,2.972,13.418,4.537c0.008-0.006,0.016-0.012,0.023-0.019c-0.007,0.006-0.015,0.012-0.022,0.018
		c-1.512-0.531-3.021-1.04-4.531-1.554c0.23-2.26,2.119-4.027,4.441-4.027c1.795,0,3.334,1.064,4.049,2.588
		c-0.043,0.03-0.085,0.063-0.129,0.094c0.649-0.462,1.303-0.918,1.962-1.369c2.067-1.431,4.194-2.765,6.31-4.116
		c2.158-1.279,4.277-2.627,6.473-3.838c2.176-1.248,4.359-2.485,6.582-3.642l3.317-1.771l3.361-1.688
		c2.239-1.129,4.479-2.252,6.76-3.288c2.279-1.043,4.52-2.172,6.832-3.14l6.894-3.001l6.969-2.819
		c2.314-0.964,4.664-1.828,7.014-2.699c2.353-0.867,4.688-1.77,7.051-2.604l7.111-2.43c0,0,3.996-1.529,3.996-4.362
		c0-2.83-3.844-3.046-3.844-3.046H21.201v26.497h32.691c0.226,0.002,0.453,0.124,0.568,0.341c0.166,0.313,0.046,0.698-0.27,0.864
		c-1.785,0.965-3.521,2.028-5.197,3.182c-1.666,1.17-3.285,2.411-4.844,3.729c-3.111,2.644-6.007,5.54-8.729,8.592
		c-2.714,3.063-5.265,6.275-7.65,9.604c-2.379,3.328-4.644,6.774-6.644,10.315l-0.006,0.01c-0.11,0.191-0.318,0.32-0.559,0.32
		c-0.351,0-0.64-0.284-0.64-0.64V28.275h-8.758v56.43c2.417-1.377,4.85-2.729,7.303-4.043c4.663-2.523,9.392-4.927,14.236-7.103
		c4.841-2.171,9.787-4.143,14.894-5.669c2.553-0.759,5.146-1.405,7.789-1.853c2.656-0.416,5.303-0.714,8.076-0.508
		c1.377,0.135,2.752,0.412,4.086,0.931c1.324,0.525,2.642,1.264,3.695,2.514c0.525,0.622,0.947,1.412,1.158,2.322
		c0.213,0.912,0.121,1.919-0.174,2.816c-0.615,1.825-1.859,3.087-3.047,4.237l-0.16,0.152c-1.072,1.038-2.781,1.01-3.82-0.064
		c-1.035-1.072-1.007-2.781,0.063-3.818c0.387-0.371,0.854-0.608,1.344-0.704c2.156-0.441,3.67-1.671,2.736-3.637
		c-0.469-0.927-1.399-1.767-2.475-2.331c-1.076-0.579-2.301-0.947-3.551-1.107c-2.508-0.268-5.172,0.02-7.738,0.385
		c-2.584,0.407-5.143,1.013-7.672,1.731c-5.056,1.449-9.99,3.35-14.826,5.454c-4.841,2.109-9.583,4.449-14.259,6.914
		c-2.575,1.379-5.124,2.805-7.658,4.257V98.46c3.654,2.392,7.304,4.799,10.904,7.281c4.363,3.006,8.693,6.055,12.98,9.188
		l0.002,0.004c0.152,0.116,0.258,0.305,0.254,0.512c0,0.352-0.286,0.641-0.641,0.641H10.519c-0.356,0-0.64-0.289-0.64-0.641V98.586
		C9.381,98.26,8.895,97.924,8.401,97.6C5.622,95.789,2.817,94.017,0,92.266v33.229l0,0c0.017-0.001,0.031-0.01,0.048-0.01H61.34
		c0,0-1.121-2.564-0.082-3.605c1.043-1.041,3.154-0.988,3.154-0.988L34.85,91.324c-0.114-0.115-0.192-0.277-0.192-0.453
		c-0.002-0.352,0.283-0.637,0.637-0.639l10.978-0.045l10.975,0.135c7.316,0.164,14.631,0.389,21.939,0.75
		c3.656,0.141,7.307,0.391,10.959,0.6c3.654,0.195,7.303,0.451,10.949,0.73c7.299,0.504,14.588,1.156,21.871,1.844l10.918,1.102
		l10.908,1.223c7.26,0.884,14.52,1.785,21.764,2.81c3.629,0.474,7.242,1.039,10.861,1.565c3.621,0.521,7.234,1.089,10.844,1.677
		c7.229,1.135,14.436,2.392,21.637,3.687c7.197,1.295,14.381,2.696,21.553,4.137l10.742,2.248l10.713,2.379
		c7.131,1.641,14.248,3.342,21.338,5.152c7.088,1.813,14.152,3.723,21.188,5.741c7.036,2.019,14.029,4.177,20.992,6.438
		l10.395,3.541c3.433,1.274,6.898,2.457,10.302,3.811c3.411,1.332,6.827,2.65,10.188,4.113c3.396,1.381,6.711,2.938,10.045,4.467
		c6.605,3.174,13.119,6.578,19.293,10.584c0.172,0.115,0.291,0.318,0.289,0.543c-0.001,0.233-0.133,0.427-0.319,0.537H475V-1H0z
		 M228.76,36.286c0,0,9.559,1.987,19.117,3.976c1.213,0.233,2.367,0.809,3.279,1.613c0.912,0.81,1.617,1.791,2.182,2.792
		c1.121,2.014,1.729,4.087,2.203,5.852c0.947,3.535,1.578,5.894,1.578,5.894s-0.66-2.349-1.652-5.873
		c-0.498-1.756-1.131-3.815-2.268-5.794c-0.57-0.982-1.277-1.938-2.176-2.716c-0.902-0.772-2.01-1.308-3.195-1.522
		c-9.584-1.864-19.166-3.729-19.166-3.729L228.76,36.286z M183.034,34.489c0.412-0.26,1.02-0.642,1.861-1.042
		c0.412-0.218,0.873-0.442,1.393-0.638c0.516-0.208,1.064-0.456,1.682-0.632c0.611-0.195,1.258-0.418,1.963-0.563
		c0.352-0.083,0.709-0.168,1.078-0.255c0.371-0.063,0.752-0.125,1.141-0.189c1.559-0.27,3.258-0.359,5.074-0.379
		c0.896,0.044,1.816,0.089,2.756,0.136c0.941,0.036,1.9,0.225,2.877,0.334c0.98,0.101,1.965,0.308,2.943,0.518
		c0.494,0.103,0.99,0.206,1.488,0.312c0.49,0.14,0.986,0.28,1.482,0.422c0.496,0.145,0.994,0.288,1.492,0.433l1.463,0.55
		c0.484,0.193,0.988,0.343,1.457,0.575l1.416,0.682c0.967,0.413,1.826,1.026,2.729,1.55c0.887,0.547,1.674,1.237,2.508,1.844
		c1.521,1.39,2.947,2.854,4.016,4.509c0.268,0.408,0.535,0.814,0.799,1.215c0.246,0.414,0.439,0.854,0.658,1.272
		c0.207,0.426,0.438,0.835,0.617,1.259c0.158,0.434,0.314,0.862,0.469,1.284c0.143,0.426,0.33,0.831,0.432,1.256
		c0.102,0.425,0.203,0.843,0.305,1.253c0.094,0.411,0.211,0.813,0.283,1.212c0.055,0.404,0.107,0.801,0.16,1.189
		c0.273,1.548,0.223,2.992,0.297,4.262c-0.074,1.27-0.1,2.381-0.193,3.288c-0.24,1.81-0.379,2.845-0.379,2.845
		s0.131-1.035,0.357-2.847c0.086-0.908,0.104-2.019,0.168-3.287c-0.082-1.267-0.043-2.708-0.328-4.25
		c-0.055-0.386-0.111-0.781-0.17-1.184c-0.074-0.398-0.193-0.797-0.289-1.206c-0.104-0.408-0.207-0.823-0.314-1.245
		c-0.102-0.422-0.293-0.824-0.438-1.247c-0.156-0.418-0.316-0.843-0.477-1.273c-0.182-0.419-0.412-0.823-0.619-1.243
		c-0.221-0.413-0.416-0.847-0.662-1.257c-0.266-0.398-0.537-0.802-0.809-1.207c-0.504-0.848-1.195-1.55-1.836-2.325
		c-0.65-0.764-1.451-1.399-2.18-2.116c-0.83-0.596-1.615-1.273-2.5-1.809c-0.898-0.513-1.752-1.115-2.715-1.518l-1.408-0.665
		c-0.467-0.226-0.969-0.37-1.449-0.56l-1.455-0.534c-0.494-0.14-0.988-0.278-1.479-0.416c-0.492-0.138-0.982-0.273-1.469-0.408
		c-0.5-0.101-0.996-0.2-1.488-0.3c-0.992-0.205-1.955-0.399-2.924-0.491c-0.969-0.101-1.906-0.281-2.85-0.311
		c-0.939-0.039-1.861-0.078-2.756-0.115c-1.766,0.033-3.465,0.134-4.99,0.413c-0.383,0.065-0.758,0.13-1.123,0.193
		c-0.361,0.088-0.713,0.175-1.057,0.26c-0.693,0.147-1.326,0.371-1.924,0.568c-0.607,0.176-1.143,0.424-1.646,0.631
		c-0.51,0.196-0.955,0.418-1.35,0.631c-0.807,0.388-1.414,0.775-1.826,1.04c-0.414,0.259-0.635,0.397-0.635,0.397l-0.266-0.428
		C182.393,34.882,182.616,34.746,183.034,34.489z M112.184,19.221l20.58,2.902l-20.645-2.405L112.184,19.221z M117.185,28.459
		c-0.529-0.467-1.133-0.668-1.613-0.809c-0.486-0.142-0.879-0.214-1.146-0.255c-0.268-0.043-0.41-0.066-0.41-0.066
		s0.143,0.021,0.41,0.061c0.27,0.037,0.664,0.104,1.152,0.239c0.484,0.136,1.094,0.328,1.637,0.796
		c0.576,0.446,0.854,1.301,0.783,2.17c-0.061,0.873-0.207,1.801-0.316,2.791c-0.121,0.988-0.248,2.031-0.381,3.109
		c-0.262,2.156-0.543,4.456-0.822,6.756c-1.123,9.201-2.246,18.401-2.246,18.401l-0.497-0.064c0,0,1.246-9.184,2.492-18.369
		c0.313-2.295,0.623-4.592,0.916-6.744c0.146-1.076,0.287-2.117,0.42-3.104c0.125-0.987,0.283-1.919,0.355-2.78
		C117.997,29.734,117.741,28.907,117.185,28.459z M136.377,75.854l-28.406-3.91l28.47,3.413L136.377,75.854z M138.593,31.36
		c-0.303,0.118-0.465,0.182-0.465,0.182s0.16-0.065,0.463-0.188c0.305-0.11,0.73-0.334,1.32-0.485
		c0.576-0.198,1.299-0.351,2.137-0.479c0.424-0.019,0.867-0.078,1.346-0.068c0.475,0.041,0.971,0.028,1.492,0.118
		c1.033,0.136,2.127,0.715,2.824,1.707c0.721,0.972,1.121,2.206,1.367,3.484c0.256,1.284,0.295,2.64,0.301,4.008
		c-0.018,1.37-0.115,2.762-0.271,4.137c-0.145,1.385-0.332,2.755-0.492,4.112c-0.168,1.354-0.33,2.688-0.49,3.978
		c-0.316,2.581-0.613,4.989-0.867,7.054c-0.508,4.129-0.846,6.882-0.846,6.882l-0.498-0.066c0,0,0.371-2.748,0.926-6.871
		c0.275-2.062,0.6-4.467,0.945-7.043c0.174-1.289,0.354-2.62,0.535-3.973c0.176-1.353,0.381-2.729,0.537-4.101
		c0.172-1.378,0.285-2.755,0.318-4.113c0.01-1.357-0.014-2.704-0.254-3.977c-0.229-1.266-0.609-2.486-1.305-3.443
		c-0.672-0.978-1.725-1.553-2.744-1.699c-0.506-0.094-1.012-0.088-1.482-0.135c-0.465-0.015-0.92,0.04-1.34,0.055
		c-0.834,0.118-1.555,0.262-2.133,0.454C139.327,31.034,138.899,31.251,138.593,31.36z M168.15,79.944l-25.697-3.56l25.762,3.064
		L168.15,79.944z M169.412,76.977l-27.863-3.588l0.238-1.825c4.271,0.548,6.672-1.262,7.211-5.432l2.76-21.416
		c1.369-10.651-0.922-16.359-6.881-17.128c-3.066-0.397-6.232,0.322-9.494,2.146c-0.012,0.757-0.131,2.017-0.355,3.781
		l-3.906,30.313c-0.537,4.173,1.328,6.531,5.602,7.083l-0.234,1.825l-27.859-3.59l0.236-1.825c4.766,0.615,7.418-1.163,7.955-5.334
		l3.905-30.315c0.535-4.175-1.58-6.564-6.348-7.179l0.238-1.827l17.781,2.292c0.535,0.066,1.08,0.556,1.637,1.46
		c0.563,0.903,0.902,1.365,1.025,1.383c3.412-1.782,6.76-2.463,10.049-2.038c15.496,1.995,22.516,8.63,21.064,19.901L163.3,67.975
		c-0.541,4.168,1.576,6.561,6.344,7.175L169.412,76.977z M169.274,72.186c-0.242-0.031-0.533-0.096-0.869-0.209
		c-0.168-0.054-0.355-0.096-0.543-0.171c-0.182-0.089-0.375-0.186-0.58-0.285c-0.363-0.244-0.834-0.541-1.008-1.081
		c-0.127-0.248-0.121-0.548-0.189-0.836c-0.033-0.294,0.01-0.602,0.014-0.917c0.098-1.265,0.318-2.676,0.498-4.223
		c0.387-3.092,0.838-6.698,1.32-10.562c0.24-1.932,0.49-3.929,0.744-5.957c0.27-2.027,0.516-4.089,0.385-6.152
		c-0.125-2.054-0.506-4.113-1.328-5.973c-0.816-1.851-1.93-3.532-3.277-4.915c-0.311-0.369-0.705-0.648-1.051-0.973
		c-0.365-0.299-0.682-0.654-1.08-0.899c-0.381-0.265-0.76-0.525-1.133-0.783l-0.555-0.385l-0.59-0.319
		c-1.529-0.898-3.092-1.518-4.529-2.086c-1.48-0.453-2.816-0.944-4.055-1.179c-1.225-0.279-2.283-0.554-3.189-0.664
		c-1.795-0.282-2.82-0.443-2.82-0.443l0.079-0.495c0,0,1.023,0.169,2.816,0.466c0.9,0.116,1.979,0.401,3.219,0.693
		c1.252,0.248,2.6,0.756,4.094,1.225c1.453,0.586,3.031,1.227,4.578,2.151l0.596,0.328l0.563,0.396
		c0.379,0.266,0.76,0.534,1.146,0.806c0.402,0.253,0.725,0.616,1.094,0.925c0.35,0.333,0.748,0.621,1.064,0.999
		c1.363,1.422,2.486,3.146,3.303,5.039c0.822,1.898,1.193,3.995,1.305,6.073c0.117,2.088-0.148,4.175-0.434,6.192
		c-0.27,2.026-0.533,4.021-0.789,5.95c-0.512,3.86-0.99,7.464-1.4,10.552c-0.191,1.544-0.42,2.959-0.529,4.215
		c-0.004,0.314-0.051,0.624-0.02,0.914c0.066,0.284,0.059,0.58,0.182,0.823c0.164,0.533,0.627,0.83,0.988,1.077
		c0.203,0.102,0.395,0.196,0.574,0.287c0.188,0.076,0.373,0.119,0.541,0.175c0.334,0.116,0.625,0.183,0.867,0.215
		c0.479,0.087,0.734,0.133,0.734,0.133S169.754,72.269,169.274,72.186z M174.662,54.192c1.299-7.761,4.451-13.336,9.465-16.729
		c4.971-3.37,11.453-4.394,19.447-3.056c7.982,1.332,13.779,4.403,17.396,9.214c3.637,4.836,4.809,11.133,3.512,18.895
		l-35.586-5.944c-1.508,9.018-1.98,14.603-1.426,16.754c1.033,4.008,3.834,6.395,8.406,7.16c5.499,0.916,10.06,0.723,13.681-0.577
		c4.109-1.471,7.559-3.768,10.352-6.881l1.373,1.24c-2.947,3.28-6.648,5.742-11.104,7.386c-3.828,1.418-8.701,1.631-14.605,0.643
		c-8.053-1.346-13.879-4.42-17.473-9.224C174.51,68.27,173.364,61.975,174.662,54.192z M189.935,70.182
		c-0.012-1.217,0.16-2.347,0.223-3.4c0.064-1.057,0.209-2.008,0.316-2.854c0.111-0.846,0.207-1.583,0.289-2.19
		c0.158-1.215,0.248-1.909,0.248-1.909l0.499,0.067c0,0-0.1,0.693-0.273,1.906c-0.086,0.606-0.189,1.343-0.311,2.188
		c-0.117,0.845-0.273,1.798-0.35,2.84c-0.07,1.04-0.254,2.169-0.256,3.361c0.016,0.589-0.072,1.224,0.027,1.82
		c0.035,0.313,0.053,0.596,0.176,0.903c0.109,0.301,0.172,0.637,0.33,0.907c0.494,1.164,1.439,2.188,2.645,2.793
		c1.211,0.615,2.568,0.924,3.965,1.069c0.693,0.089,1.387,0.198,2.078,0.271c0.695,0.037,1.385,0.073,2.07,0.11
		c1.365,0.072,2.73-0.039,4.02-0.195c1.283-0.234,2.531-0.498,3.623-0.997c0.555-0.233,1.096-0.459,1.617-0.677
		c0.529-0.205,0.975-0.529,1.439-0.771c0.453-0.26,0.891-0.508,1.305-0.745c0.383-0.286,0.746-0.559,1.086-0.814
		c0.342-0.257,0.662-0.495,0.957-0.717c0.295-0.221,0.516-0.482,0.742-0.688c0.879-0.854,1.381-1.343,1.381-1.343
		s-0.496,0.494-1.367,1.358c-0.223,0.207-0.443,0.473-0.736,0.697c-0.291,0.225-0.609,0.468-0.947,0.729
		c-0.34,0.26-0.701,0.537-1.08,0.828c-0.414,0.243-0.85,0.498-1.305,0.763c-0.463,0.249-0.91,0.582-1.438,0.792
		c-0.52,0.224-1.057,0.455-1.609,0.694c-1.098,0.518-2.352,0.797-3.645,1.047c-1.313,0.173-2.66,0.299-4.049,0.242
		c-0.693-0.028-1.391-0.058-2.092-0.088c-0.695-0.065-1.387-0.166-2.082-0.248c-1.383-0.128-2.814-0.429-4.068-1.053
		c-1.268-0.62-2.283-1.683-2.828-2.933c-0.174-0.302-0.232-0.617-0.346-0.921c-0.125-0.294-0.166-0.648-0.203-0.965
		C189.875,71.405,189.959,70.793,189.935,70.182z M217.084,81.654c-1.104,0.613-2.244,1.384-3.605,1.888
		c-0.666,0.287-1.348,0.578-2.045,0.879c-0.725,0.271-1.459,0.461-2.209,0.703c-0.779,0.149-1.566,0.336-2.369,0.463
		c-0.807,0.08-1.621,0.211-2.447,0.25c-0.828,0.013-1.656,0.088-2.5,0.045c-0.832-0.041-1.668-0.084-2.504-0.127
		c-0.836-0.021-1.666-0.198-2.496-0.289c-0.822-0.127-1.666-0.184-2.467-0.377c-0.807-0.168-1.605-0.334-2.395-0.498
		c-0.785-0.198-1.551-0.437-2.309-0.646c-0.764-0.189-1.479-0.486-2.189-0.748c-0.705-0.271-1.41-0.504-2.047-0.842
		c-0.648-0.314-1.279-0.619-1.889-0.914c-0.58-0.354-1.139-0.691-1.676-1.021c-0.551-0.303-1.018-0.687-1.475-1.032
		c-0.451-0.353-0.896-0.664-1.283-0.997c-0.73-0.712-1.402-1.3-1.895-1.84c-0.938-1.125-1.473-1.768-1.473-1.768
		s0.541,0.638,1.488,1.753c0.498,0.535,1.174,1.116,1.908,1.82c0.389,0.327,0.838,0.635,1.291,0.981
		c0.459,0.341,0.926,0.719,1.48,1.018c0.537,0.319,1.098,0.651,1.678,0.998c0.611,0.289,1.242,0.588,1.891,0.895
		c0.639,0.332,1.342,0.557,2.049,0.818c0.709,0.256,1.424,0.543,2.186,0.727c0.756,0.201,1.518,0.428,2.299,0.621
		c0.791,0.156,1.592,0.314,2.4,0.473c0.807,0.189,1.625,0.232,2.449,0.354c0.828,0.082,1.645,0.252,2.484,0.262
		c0.836,0.035,1.672,0.07,2.504,0.104c0.82,0.033,1.652-0.051,2.469-0.067c0.818-0.047,1.621-0.185,2.418-0.271
		c0.789-0.133,1.555-0.319,2.314-0.475c0.74-0.244,1.5-0.451,2.184-0.717c0.688-0.303,1.359-0.598,2.014-0.887
		c1.342-0.51,2.461-1.283,3.545-1.896c1.113-0.576,1.943-1.371,2.762-1.957c0.396-0.312,0.783-0.579,1.111-0.869
		c0.314-0.311,0.602-0.596,0.861-0.853c1.041-1.03,1.635-1.619,1.635-1.619l0.353,0.359c0,0-0.6,0.583-1.65,1.603
		c-0.262,0.255-0.553,0.537-0.869,0.845c-0.334,0.29-0.736,0.566-1.143,0.881C219.078,80.277,218.215,81.083,217.084,81.654z
		 M271.586,99.049l-33.084-6.92l33.184,6.43L271.586,99.049z M270.001,90.754c-0.205-0.066-0.528-0.098-0.901-0.26
		c-0.189-0.074-0.398-0.156-0.625-0.244c-0.216-0.119-0.445-0.248-0.691-0.387c-0.23-0.162-0.463-0.355-0.713-0.551
		c-0.207-0.24-0.463-0.465-0.66-0.752c-0.189-0.293-0.418-0.58-0.561-0.933c-0.084-0.17-0.166-0.344-0.25-0.521
		c-0.063-0.182-0.127-0.366-0.191-0.555c-0.262-0.758-0.461-1.57-0.707-2.402c-0.477-1.668-0.984-3.444-1.49-5.224
		c-2.029-7.115-4.059-14.23-4.059-14.23l0.482-0.134c0,0,1.908,7.148,3.816,14.297c0.479,1.787,0.955,3.574,1.402,5.25
		c0.231,0.832,0.42,1.656,0.664,2.406c0.063,0.188,0.123,0.375,0.182,0.56c0.08,0.174,0.16,0.344,0.236,0.512
		c0.137,0.349,0.356,0.636,0.539,0.929c0.188,0.284,0.436,0.512,0.637,0.752c0.244,0.196,0.471,0.393,0.697,0.559
		c0.241,0.141,0.471,0.273,0.68,0.395c0.225,0.092,0.432,0.176,0.619,0.254c0.369,0.168,0.69,0.203,0.896,0.273
		c0.209,0.057,0.32,0.086,0.32,0.086S270.21,90.807,270.001,90.754z M276.373,50.92c-1.875-0.377-3.531-0.373-4.965,0.018
		c-1.613,0.54-3.295,1.626-5.037,3.254l-10.193,9.532l6.398,23.178c1.037,3.73,3.43,5.975,7.186,6.732l-0.363,1.803l-27.53-5.545
		l0.362-1.805c2.896,0.469,4.502-0.102,4.826-1.707c0.123-0.615,0.06-1.375-0.192-2.279l-3.279-11.862l-10.063,9.173
		c-1.063,0.959-1.666,1.805-1.813,2.527c-0.26,1.301,0.939,2.217,3.604,2.758l0.293,0.059l-0.363,1.801L220.96,85.68l0.365-1.801
		c1.842,0.369,3.152,0.57,3.939,0.602c1.498-0.018,3.621-1.287,6.377-3.809l11.41-10.438l-6.07-21.96
		c-0.549-1.964-1.387-3.573-2.514-4.835c-0.699-0.779-1.99-1.36-3.881-1.739l0.363-1.804l16.781,3.38
		c2.02,0.509,3.672,3.106,4.961,7.796l2.928,10.665l8.85-8.293c1.213-1.132,1.83-1.762,1.857-1.885
		c0.342-1.704-1.07-2.876-4.234-3.516l0.363-1.802l14.279,2.876L276.373,50.92z M235.215,83.74l6.684-6.439l0.34,0.368
		L235.215,83.74z M230.024,44.5c0,0,0.42,0.104,1.156,0.282c0.344,0.146,0.824,0.236,1.221,0.604
		c0.164,0.207,0.338,0.429,0.521,0.662c0.154,0.254,0.316,0.521,0.484,0.8c0.301,0.579,0.58,1.232,0.799,1.942
		c0.23,0.714,0.428,1.47,0.656,2.249c0.447,1.56,0.924,3.225,1.4,4.888c1.904,6.658,3.812,13.315,3.812,13.315l-0.484,0.133
		c0,0-1.783-6.69-3.568-13.381c-0.445-1.673-0.893-3.346-1.311-4.913c-0.213-0.782-0.4-1.549-0.613-2.255
		c-0.207-0.718-0.473-1.363-0.758-1.942c-0.162-0.278-0.318-0.547-0.467-0.801c-0.178-0.235-0.346-0.458-0.506-0.667
		c-0.373-0.359-0.852-0.462-1.191-0.613C230.442,44.61,230.024,44.5,230.024,44.5z M263.344,43.758l0.1-0.491l13.854,3.049
		L263.344,43.758z M277.533,62.346l4.762-12.372l-4.289,12.542L277.533,62.346z M310.803,108.465l-28.301-7.084l28.418,6.596
		L310.803,108.465z M312.078,100.754c-0.17-0.039-0.371-0.084-0.584-0.131c-0.207-0.074-0.43-0.15-0.65-0.229
		c-0.227-0.064-0.443-0.174-0.645-0.297c-0.193-0.119-0.422-0.207-0.535-0.332c-0.26-0.232-0.432-0.39-0.432-0.39l0.361-0.343
		c0,0,0.15,0.176,0.375,0.441c0.105,0.149,0.271,0.215,0.428,0.348c0.158,0.123,0.338,0.252,0.552,0.346
		c0.202,0.104,0.405,0.207,0.598,0.305c0.203,0.076,0.394,0.146,0.554,0.205c0.325,0.121,0.545,0.201,0.545,0.201
		S312.417,100.83,312.078,100.754z M325.9,74.253c-0.021,0.436-0.031,0.687-0.031,0.687l-0.502-0.031c0,0,0.02-0.248,0.055-0.684
		c0.016-0.219,0.045-0.485,0.041-0.782c-0.004-0.298,0.023-0.635-0.002-1.002c-0.029-0.368-0.027-0.771-0.102-1.187
		c-0.047-0.421-0.14-0.856-0.256-1.301c-0.129-0.44-0.267-0.9-0.48-1.332c-0.191-0.445-0.457-0.859-0.727-1.27
		c-0.299-0.392-0.611-0.771-0.972-1.102c-0.354-0.331-0.725-0.642-1.112-0.896c-0.381-0.268-0.771-0.491-1.152-0.685
		c-0.369-0.217-0.756-0.347-1.094-0.506c-0.695-0.272-1.287-0.478-1.709-0.59c-0.42-0.12-0.66-0.189-0.66-0.189
		s0.242,0.062,0.666,0.17c0.426,0.098,1.022,0.284,1.731,0.535c0.345,0.15,0.736,0.27,1.117,0.476
		c0.392,0.183,0.793,0.398,1.188,0.658c0.401,0.245,0.791,0.55,1.164,0.876c0.377,0.328,0.713,0.707,1.032,1.103
		c0.291,0.414,0.582,0.836,0.793,1.291c0.238,0.441,0.396,0.913,0.541,1.364c0.138,0.458,0.246,0.906,0.308,1.34
		c0.092,0.428,0.104,0.841,0.145,1.22c0.039,0.379,0.021,0.731,0.035,1.041C325.93,73.771,325.908,74.033,325.9,74.253z
		 M330.299,75.435l-1.834-0.248c0.717-7.847-2.816-12.705-10.602-14.581l-2.775-0.669l-8.648,35.885
		c-0.989,4.096,0.855,6.703,5.533,7.832l-0.43,1.791l-28.066-6.769l0.431-1.788c4.678,1.129,7.51-0.353,8.5-4.449l8.646-35.888
		l-2.775-0.669c-7.784-1.876-13.145,0.842-16.079,8.149l-1.746-0.614l4.588-12.621l46.923,11.313L330.299,75.435z M284.529,94.359
		l0.092-0.492c0,0,0.156,0.029,0.447,0.088c0.293,0.059,0.723,0.154,1.246,0.174c0.26,0.033,0.543,0.031,0.887,0.01
		c0.299-0.041,0.633-0.094,0.932-0.27c0.609-0.324,1.018-1.096,1.244-1.992c0.914-3.689,2.137-8.609,3.357-13.529
		c2.436-9.845,4.873-19.688,4.873-19.688s-2.314,9.873-4.629,19.747c-1.162,4.937-2.322,9.876-3.193,13.579
		c-0.225,0.929-0.656,1.847-1.432,2.279c-0.369,0.221-0.769,0.291-1.127,0.34c-0.322,0.025-0.654,0.035-0.945,0.002
		c-0.59-0.02-1.012-0.11-1.303-0.166C284.686,94.387,284.529,94.359,284.529,94.359z M286.029,48.353l0.117-0.486l46.16,11.385
		L286.029,48.353z"/>
	<path d="M18.821,81.324c4.676-2.465,9.418-4.805,14.259-6.914c4.836-2.104,9.77-4.005,14.826-5.454
		c2.529-0.718,5.088-1.324,7.672-1.731c2.566-0.365,5.23-0.653,7.738-0.385c1.25,0.16,2.475,0.528,3.551,1.107
		c1.076,0.564,2.006,1.404,2.475,2.331c0.934,1.966-0.58,3.196-2.736,3.637c-0.49,0.096-0.957,0.333-1.344,0.704
		c-1.07,1.037-1.098,2.746-0.063,3.818c1.039,1.074,2.748,1.102,3.82,0.064l0.16-0.152c1.188-1.15,2.432-2.412,3.047-4.237
		c0.295-0.897,0.387-1.904,0.174-2.816c-0.211-0.91-0.633-1.7-1.158-2.322c-1.053-1.25-2.371-1.989-3.695-2.514
		c-1.334-0.519-2.709-0.796-4.086-0.931c-2.773-0.206-5.42,0.092-8.076,0.508c-2.643,0.448-5.236,1.094-7.789,1.853
		c-5.107,1.526-10.053,3.498-14.894,5.669c-4.844,2.176-9.573,4.58-14.236,7.103c-2.453,1.314-4.885,2.666-7.303,4.043v0.876
		C13.697,84.129,16.246,82.703,18.821,81.324z"/>
	<path d="M9.879,86.333v-0.878C6.555,87.368,3.264,89.338,0,91.353v0.001c0.247,0.152,0.497,0.302,0.743,0.455
		C3.763,89.939,6.807,88.112,9.879,86.333z"/>
	<polygon points="0,125.494 0,125.494 0,125.494 	"/>
	<path d="M9.879,98.586v16.859c0,0.352,0.284,0.641,0.64,0.641h24.143c0.355,0,0.641-0.289,0.641-0.641
		c0.004-0.207-0.102-0.396-0.254-0.512l-0.002-0.004c-4.287-3.134-8.617-6.183-12.98-9.188c-3.6-2.482-7.25-4.89-10.904-7.281
		V85.581v-0.876v-56.43h8.758v35.036c0,0.356,0.289,0.64,0.64,0.64c0.241,0,0.449-0.129,0.559-0.32l0.006-0.01
		c2-3.541,4.265-6.987,6.644-10.315c2.385-3.329,4.936-6.541,7.65-9.604c2.722-3.052,5.618-5.948,8.729-8.592
		c1.559-1.318,3.178-2.559,4.844-3.729c1.676-1.154,3.412-2.217,5.197-3.182c0.316-0.166,0.436-0.551,0.27-0.864
		c-0.115-0.217-0.342-0.339-0.568-0.341H21.201V0.497H445.57c0,0,3.844,0.216,3.844,3.046c0,2.833-3.996,4.362-3.996,4.362
		l-7.111,2.43c-2.362,0.834-4.698,1.737-7.051,2.604c-2.35,0.871-4.699,1.735-7.014,2.699l-6.969,2.819l-6.894,3.001
		c-2.313,0.968-4.553,2.097-6.832,3.14c-2.281,1.036-4.521,2.159-6.76,3.288l-3.361,1.688l-3.317,1.771
		c-2.223,1.157-4.406,2.394-6.582,3.642c-2.195,1.211-4.314,2.559-6.473,3.838c-2.115,1.351-4.242,2.685-6.31,4.116
		c-0.659,0.45-1.313,0.907-1.962,1.369c-0.526,0.373-1.048,0.755-1.567,1.142c-0.16,0.12-0.321,0.239-0.48,0.36
		c-0.591,0.448-1.179,0.904-1.76,1.379c-0.008,0.006-0.016,0.012-0.023,0.019c-4.472-1.565-8.937-3.046-13.418-4.537l-13.795-4.493
		c-9.214-2.955-18.445-5.849-27.709-8.638l-13.916-4.12c-4.646-1.354-9.302-2.668-13.968-3.951
		c-2.326-0.661-10.975-3.185-10.975-4.466c0-1.283,13.039-1.687,13.039-1.687l30.346-0.018l30.346,0.184l7.587,0.043l3.793,0.023
		c1.271,0.008,2.52,0.006,3.739,0.132c1.22,0.137,2.424,0.383,3.494,0.823c1.063,0.427,1.963,1.191,2.094,1.882
		c0.14,0.647-0.282,1.371-1.016,2.007c-0.367,0.305-0.785,0.595-1.26,0.813c-0.225,0.108-0.484,0.229-0.705,0.292l-0.83,0.26
		l-0.057,0.02c-1.41,0.442-2.193,1.942-1.75,3.35c0.443,1.406,1.943,2.19,3.35,1.75c0.486-0.152,0.902-0.439,1.215-0.794
		c0.211-0.242,0.435-0.464,0.75-0.79c0.293-0.306,0.535-0.565,0.785-0.877c0.486-0.602,0.957-1.225,1.338-1.935
		c0.373-0.712,0.715-1.484,0.851-2.37c0.151-0.875,0.004-1.888-0.416-2.712c-0.441-0.825-1.115-1.387-1.777-1.761
		c-0.674-0.373-1.342-0.625-2.014-0.8c-1.337-0.34-2.648-0.47-3.949-0.528c-2.615-0.076-5.092,0.004-7.635-0.002l-7.587,0.049
		l-30.346,0.183l-30.346-0.016l-15.17-0.092l-15.174-0.155h-0.002c-0.352,0-0.641,0.288-0.641,0.64c0,0.304,0.219,0.56,0.498,0.626
		l7.049,1.673c2.35,0.556,4.686,1.178,7.028,1.765c2.345,0.583,4.679,1.203,7.011,1.833c2.334,0.626,4.67,1.23,6.996,1.89
		c4.657,1.285,9.309,2.598,13.948,3.949l13.904,4.117c9.256,2.784,18.479,5.674,27.687,8.629l13.786,4.489
		c4.582,1.526,9.187,3.05,13.724,4.645c0.225,0.078,0.463,0.027,0.637-0.114l0.006-0.008c1.875-1.551,3.922-3.014,5.971-4.412
		c2.047-1.419,4.16-2.743,6.262-4.085c2.144-1.271,4.25-2.611,6.435-3.814c2.166-1.244,4.336-2.473,6.549-3.623l3.304-1.767
		l3.348-1.678c2.229-1.123,4.459-2.242,6.731-3.276c2.271-1.037,4.502-2.16,6.806-3.128l6.866-2.987l6.947-2.812
		c2.305-0.96,4.648-1.824,6.99-2.691c2.342-0.86,4.674-1.763,7.027-2.594l7.092-2.422l3.547-1.209l3.576-1.115l7.157-2.224
		c2.38-0.751,4.802-1.375,7.201-2.067l7.215-2.029l0.009-0.004c0.342-0.096,0.541-0.449,0.442-0.79
		c-0.08-0.283-0.336-0.47-0.617-0.47H20.559c-0.351,0-0.64,0.29-0.64,0.645v27.135h-9.4c-0.355,0-0.64,0.284-0.64,0.641v57.818
		v0.878v11.29c-0.349-0.229-0.696-0.457-1.044-0.686c-2.677-1.741-5.378-3.445-8.092-5.129C0.497,91.655,0.247,91.506,0,91.354
		v0.912c2.817,1.751,5.622,3.523,8.401,5.334C8.895,97.924,9.381,98.26,9.879,98.586z M21.201,52.695v-24.42H43.42
		c0,0,2.512-0.163,3.098,1.815c0.375,1.281-1.613,2.699-3.199,4.039c-3.166,2.689-6.105,5.63-8.86,8.723
		c-2.745,3.099-5.322,6.344-7.73,9.708c-1.952,2.727-3.885,5.464-4.846,5.092C20.921,57.277,21.201,52.695,21.201,52.695z
		 M21.507,106.545c1.232,0.871,3.689,2.641,3.689,2.641s3.111,2.492,2.121,3.988c-0.988,1.494-3.443,1.629-3.443,1.629H11.161
		V99.445C14.64,101.764,18.088,104.134,21.507,106.545z"/>
	<path d="M376.936,159.463c0.002-0.225-0.117-0.428-0.289-0.543c-6.174-4.006-12.688-7.41-19.293-10.584
		c-3.334-1.529-6.649-3.086-10.045-4.467c-3.361-1.463-6.777-2.781-10.188-4.113c-3.403-1.354-6.869-2.536-10.302-3.811
		l-10.395-3.541c-6.963-2.262-13.956-4.42-20.992-6.438c-7.035-2.019-14.1-3.928-21.188-5.741
		c-7.09-1.811-14.207-3.512-21.338-5.152l-10.713-2.379l-10.742-2.248c-7.172-1.44-14.356-2.842-21.553-4.137
		c-7.201-1.295-14.408-2.552-21.637-3.687c-3.61-0.588-7.223-1.155-10.844-1.677c-3.619-0.526-7.232-1.092-10.861-1.565
		c-7.244-1.024-14.504-1.926-21.764-2.81l-10.908-1.223l-10.918-1.102c-7.283-0.688-14.572-1.34-21.871-1.844
		c-3.646-0.279-7.295-0.535-10.949-0.73c-3.652-0.209-7.303-0.459-10.959-0.6c-7.308-0.361-14.623-0.586-21.939-0.75l-10.975-0.135
		l-10.978,0.045c-0.354,0.002-0.639,0.287-0.637,0.639c0,0.176,0.078,0.338,0.192,0.453l29.562,29.566c0,0-2.111-0.053-3.154,0.988
		c-1.039,1.041,0.082,3.605,0.082,3.605H0.048c-0.017,0-0.031,0.009-0.048,0.01l0,0v1.266c0.017,0.001,0.031,0.01,0.048,0.01h70.506
		c0.356,0,0.643-0.289,0.643-0.644c0-0.176-0.073-0.338-0.188-0.453L42.913,97.577c0,0,2.832-0.349,3.928-1.896
		c1.092-1.549-0.574-4.213-0.574-4.213l10.957,0.135c7.302,0.166,14.605,0.392,21.9,0.75c3.65,0.14,7.297,0.388,10.943,0.599
		c3.649,0.194,7.291,0.454,10.934,0.728c7.289,0.508,14.569,1.157,21.842,1.844l10.904,1.102l10.893,1.217
		c7.254,0.887,14.504,1.788,21.74,2.809c3.623,0.471,7.233,1.035,10.848,1.566c3.617,0.521,7.223,1.086,10.832,1.674
		c7.218,1.131,14.416,2.387,21.607,3.678c7.191,1.295,14.365,2.697,21.529,4.132l10.727,2.245l10.699,2.378
		c7.121,1.639,14.226,3.338,21.303,5.145c7.078,1.81,14.129,3.714,21.152,5.73c7.019,2.018,13.998,4.17,20.944,6.424l10.367,3.532
		c3.42,1.272,6.877,2.451,10.271,3.8c3.397,1.325,6.804,2.641,10.147,4.094c3.381,1.379,6.682,2.927,9.996,4.447
		c5.893,2.832,11.691,5.871,17.232,9.321H223.103v-26.651c0,0,1.654,0.533,3.15-0.429c1.494-0.963,1.014-3.207,1.014-3.207
		s1.711,1.068,2.547,1.605c2.463,1.588,4.642,3.188,6.828,5.109c1.098,0.955,2.314,1.994,3.244,3.084
		c0.47,0.539,0.905,1.104,1.267,1.699c0.373,0.59,0.684,1.215,0.846,1.838c0.215,0.621,0.146,1.223,0.035,1.707
		c-0.244,0.445-0.471,0.814-0.986,1.047c-0.199,0.137-0.488,0.223-0.762,0.311c-0.24,0.108-0.564,0.143-0.875,0.182
		c-0.573,0.125-1.307,0.065-1.938,0.021h-0.021c-1.504-0.108-2.812,1.027-2.916,2.531c-0.108,1.504,1.025,2.81,2.529,2.916
		c0.664,0.049,1.292-0.151,1.795-0.513c0.748-0.537,1.457-0.941,2.184-1.516c0.359-0.262,0.703-0.535,1.049-0.875
		c0.342-0.314,0.676-0.619,0.959-1.051c0.143-0.205,0.297-0.385,0.424-0.594l0.318-0.695c0.246-0.434,0.254-0.986,0.34-1.455
		c-0.009-0.975-0.213-1.877-0.613-2.598c-0.341-0.758-0.806-1.401-1.272-2.016c-0.476-0.606-0.963-1.192-1.494-1.724
		c-1.049-1.085-2.187-2.05-3.342-2.979c-2.308-1.857-4.738-3.535-7.191-5.166c-2.455-1.638-4.935-3.205-7.449-4.795l-0.006-0.002
		c-0.31-0.166-0.699-0.052-0.867,0.26c-0.051,0.094-0.076,0.203-0.076,0.305v34.291c0,0.235,0.132,0.432,0.321,0.543h154.474
		C376.803,159.89,376.935,159.696,376.936,159.463z"/>
	<path d="M367.216,45.452c0.52-0.387,1.041-0.769,1.567-1.142c0.044-0.031,0.086-0.063,0.129-0.094
		c-0.715-1.524-2.254-2.588-4.049-2.588c-2.322,0-4.211,1.767-4.441,4.027c1.51,0.514,3.02,1.023,4.531,1.554
		c0.008-0.006,0.016-0.012,0.022-0.018c0.581-0.475,1.169-0.931,1.76-1.379C366.895,45.691,367.056,45.571,367.216,45.452z"/>
	<path d="M223.104,154.555v4.26h4.213C227.288,156.486,225.422,154.611,223.104,154.555z"/>
	<path d="M163.3,67.975l2.873-22.311c1.452-11.271-5.568-17.906-21.064-19.901c-3.289-0.425-6.637,0.256-10.049,2.038
		c-0.123-0.018-0.462-0.48-1.025-1.383c-0.557-0.904-1.102-1.394-1.637-1.46l-17.781-2.292l-0.238,1.827
		c4.768,0.615,6.883,3.004,6.348,7.179l-3.905,30.315c-0.537,4.171-3.189,5.949-7.955,5.334l-0.236,1.825l27.859,3.59l0.234-1.825
		c-4.274-0.552-6.139-2.91-5.602-7.083l3.906-30.313c0.224-1.764,0.343-3.024,0.355-3.781c3.262-1.824,6.428-2.543,9.494-2.146
		c5.959,0.769,8.25,6.477,6.881,17.128l-2.76,21.416c-0.539,4.17-2.94,5.98-7.211,5.432l-0.238,1.825l27.863,3.588l0.232-1.827
		C164.876,74.536,162.759,72.143,163.3,67.975z"/>
	<path d="M195.573,82.297c5.904,0.988,10.777,0.775,14.605-0.643c4.456-1.645,8.157-4.106,11.104-7.386l-1.373-1.24
		c-2.793,3.113-6.243,5.41-10.352,6.881c-3.621,1.3-8.182,1.493-13.681,0.577c-4.572-0.765-7.373-3.152-8.406-7.16
		c-0.554-2.151-0.082-7.736,1.426-16.754l35.586,5.944c1.297-7.762,0.125-14.059-3.512-18.895
		c-3.617-4.811-9.414-7.882-17.396-9.214c-7.994-1.338-14.476-0.314-19.447,3.056c-5.014,3.393-8.166,8.968-9.465,16.729
		c-1.298,7.783-0.152,14.078,3.438,18.881C181.694,77.877,187.52,80.951,195.573,82.297z M193.8,39.31
		c1.791-2.813,4.95-3.842,9.471-3.085c4.559,0.762,7.37,3.091,8.434,6.991c0.567,2.074,0.186,7.113-1.152,15.105L189.2,54.754
		C190.439,47.34,191.972,42.192,193.8,39.31z"/>
	<path d="M262.092,48.043c3.164,0.64,4.576,1.812,4.234,3.516c-0.027,0.123-0.645,0.753-1.857,1.885l-8.85,8.293l-2.928-10.665
		c-1.289-4.69-2.941-7.287-4.961-7.796l-16.781-3.38l-0.363,1.804c1.891,0.379,3.182,0.96,3.881,1.739
		c1.127,1.262,1.965,2.871,2.514,4.835l6.07,21.96l-11.41,10.438c-2.756,2.521-4.879,3.791-6.377,3.809
		c-0.787-0.031-2.097-0.232-3.939-0.602l-0.365,1.801l14.283,2.877l0.363-1.801l-0.293-0.059c-2.665-0.541-3.864-1.457-3.604-2.758
		c0.147-0.723,0.75-1.568,1.813-2.527l10.063-9.173l3.279,11.862c0.252,0.904,0.315,1.664,0.192,2.279
		c-0.324,1.605-1.931,2.176-4.826,1.707l-0.362,1.805l27.53,5.545l0.363-1.803c-3.756-0.758-6.148-3.002-7.186-6.732l-6.398-23.178
		l10.193-9.532c1.742-1.628,3.424-2.714,5.037-3.254c1.434-0.391,3.09-0.395,4.965-0.018l0.361-1.803l-14.279-2.876L262.092,48.043z
		"/>
	<path d="M280.452,63.418l1.746,0.614c2.935-7.307,8.295-10.025,16.079-8.149l2.775,0.669l-8.646,35.888
		c-0.99,4.097-3.822,5.578-8.5,4.449l-0.431,1.788l28.066,6.769l0.43-1.791c-4.678-1.129-6.522-3.736-5.533-7.832l8.648-35.885
		l2.775,0.669c7.785,1.876,11.318,6.734,10.602,14.581l1.834,0.248l1.664-13.325L285.04,50.797L280.452,63.418z"/>
	<path d="M117.144,36.475c-0.293,2.152-0.603,4.449-0.916,6.744c-1.246,9.185-2.492,18.369-2.492,18.369l0.497,0.064
		c0,0,1.123-9.2,2.246-18.401c0.279-2.3,0.56-4.6,0.822-6.756c0.133-1.078,0.26-2.121,0.381-3.109
		c0.109-0.99,0.255-1.918,0.316-2.791c0.071-0.869-0.207-1.724-0.783-2.17c-0.543-0.468-1.153-0.66-1.637-0.796
		c-0.488-0.135-0.882-0.202-1.152-0.239c-0.267-0.04-0.41-0.061-0.41-0.061s0.142,0.023,0.41,0.066
		c0.267,0.041,0.66,0.113,1.146,0.255c0.48,0.141,1.084,0.342,1.613,0.809c0.556,0.448,0.812,1.275,0.734,2.132
		c-0.072,0.861-0.23,1.793-0.355,2.78C117.431,34.358,117.29,35.399,117.144,36.475z"/>
	<polygon points="136.377,75.854 136.441,75.357 107.971,71.944 	"/>
	<polygon points="168.15,79.944 168.215,79.448 142.453,76.384 	"/>
	<path d="M168.409,71.965c-0.168-0.056-0.353-0.099-0.541-0.175c-0.179-0.091-0.371-0.185-0.574-0.287
		c-0.361-0.247-0.824-0.544-0.988-1.077c-0.123-0.243-0.116-0.539-0.182-0.823c-0.031-0.29,0.016-0.6,0.02-0.914
		c0.109-1.256,0.338-2.671,0.529-4.215c0.41-3.088,0.888-6.692,1.4-10.552c0.256-1.929,0.519-3.924,0.789-5.95
		c0.286-2.017,0.551-4.104,0.434-6.192c-0.112-2.078-0.483-4.175-1.305-6.073c-0.817-1.893-1.94-3.617-3.303-5.039
		c-0.316-0.378-0.714-0.666-1.064-0.999c-0.369-0.309-0.692-0.672-1.094-0.925c-0.386-0.272-0.767-0.54-1.146-0.806l-0.563-0.396
		l-0.596-0.328c-1.547-0.924-3.125-1.565-4.578-2.151c-1.494-0.469-2.842-0.977-4.094-1.225c-1.24-0.292-2.319-0.577-3.219-0.693
		c-1.793-0.297-2.816-0.466-2.816-0.466l-0.079,0.495c0,0,1.025,0.161,2.82,0.443c0.906,0.11,1.964,0.385,3.189,0.664
		c1.239,0.235,2.575,0.726,4.055,1.179c1.437,0.568,3,1.188,4.529,2.086l0.59,0.319l0.555,0.385
		c0.373,0.258,0.752,0.518,1.133,0.783c0.398,0.245,0.715,0.6,1.08,0.899c0.346,0.325,0.74,0.604,1.051,0.973
		c1.347,1.383,2.461,3.064,3.277,4.915c0.822,1.86,1.203,3.919,1.328,5.973c0.131,2.063-0.115,4.125-0.385,6.152
		c-0.254,2.028-0.504,4.025-0.744,5.957c-0.482,3.864-0.933,7.47-1.32,10.562c-0.18,1.547-0.4,2.958-0.498,4.223
		c-0.004,0.315-0.047,0.623-0.014,0.917c0.068,0.288,0.062,0.588,0.189,0.836c0.174,0.54,0.645,0.837,1.008,1.081
		c0.205,0.099,0.398,0.196,0.58,0.285c0.188,0.075,0.375,0.117,0.543,0.171c0.336,0.113,0.627,0.178,0.869,0.209
		c0.48,0.083,0.736,0.127,0.736,0.127s-0.255-0.046-0.734-0.133C169.034,72.148,168.743,72.081,168.409,71.965z"/>
	<polygon points="112.184,19.221 112.119,19.718 132.764,22.123 	"/>
	<path d="M143.39,30.381c0.47,0.047,0.976,0.041,1.482,0.135c1.019,0.146,2.072,0.721,2.744,1.699
		c0.696,0.957,1.076,2.177,1.305,3.443c0.24,1.273,0.264,2.62,0.254,3.977c-0.033,1.358-0.146,2.735-0.318,4.113
		c-0.156,1.372-0.361,2.748-0.537,4.101c-0.181,1.353-0.361,2.684-0.535,3.973c-0.345,2.576-0.67,4.981-0.945,7.043
		c-0.555,4.123-0.926,6.871-0.926,6.871l0.498,0.066c0,0,0.338-2.753,0.846-6.882c0.254-2.065,0.551-4.473,0.867-7.054
		c0.16-1.29,0.322-2.624,0.49-3.978c0.16-1.357,0.347-2.727,0.492-4.112c0.156-1.375,0.253-2.767,0.271-4.137
		c-0.006-1.368-0.045-2.724-0.301-4.008c-0.246-1.278-0.646-2.512-1.367-3.484c-0.697-0.992-1.791-1.571-2.824-1.707
		c-0.521-0.09-1.017-0.077-1.492-0.118c-0.479-0.01-0.922,0.049-1.346,0.068c-0.838,0.128-1.561,0.281-2.137,0.479
		c-0.59,0.151-1.015,0.375-1.32,0.485c-0.303,0.123-0.463,0.188-0.463,0.188s0.162-0.064,0.465-0.182
		c0.306-0.109,0.734-0.326,1.324-0.47c0.578-0.192,1.299-0.336,2.133-0.454C142.47,30.421,142.925,30.366,143.39,30.381z"/>
	<path d="M183.294,34.913c0.412-0.265,1.019-0.652,1.826-1.04c0.395-0.213,0.84-0.435,1.35-0.631
		c0.503-0.207,1.039-0.455,1.646-0.631c0.598-0.197,1.231-0.421,1.924-0.568c0.344-0.085,0.696-0.172,1.057-0.26
		c0.365-0.063,0.74-0.128,1.123-0.193c1.525-0.279,3.224-0.38,4.99-0.413c0.895,0.037,1.817,0.076,2.756,0.115
		c0.944,0.03,1.881,0.21,2.85,0.311c0.969,0.092,1.932,0.286,2.924,0.491c0.492,0.1,0.988,0.199,1.488,0.3
		c0.487,0.135,0.977,0.27,1.469,0.408c0.492,0.138,0.986,0.276,1.479,0.416l1.455,0.534c0.48,0.19,0.982,0.334,1.449,0.56
		l1.408,0.665c0.963,0.403,1.817,1.005,2.715,1.518c0.885,0.536,1.67,1.213,2.5,1.809c0.729,0.717,1.53,1.352,2.18,2.116
		c0.641,0.775,1.332,1.477,1.836,2.325c0.272,0.405,0.543,0.809,0.809,1.207c0.246,0.41,0.441,0.844,0.662,1.257
		c0.207,0.42,0.437,0.824,0.619,1.243c0.161,0.43,0.321,0.855,0.477,1.273c0.145,0.423,0.336,0.825,0.438,1.247
		c0.107,0.422,0.21,0.837,0.314,1.245c0.096,0.409,0.215,0.808,0.289,1.206c0.059,0.403,0.115,0.798,0.17,1.184
		c0.285,1.542,0.246,2.983,0.328,4.25c-0.064,1.268-0.082,2.379-0.168,3.287c-0.226,1.812-0.357,2.847-0.357,2.847
		s0.139-1.035,0.379-2.845c0.093-0.907,0.119-2.018,0.193-3.288c-0.074-1.27-0.024-2.714-0.297-4.262
		c-0.053-0.388-0.105-0.785-0.16-1.189c-0.072-0.399-0.189-0.801-0.283-1.212c-0.102-0.41-0.203-0.828-0.305-1.253
		c-0.102-0.425-0.289-0.83-0.432-1.256c-0.155-0.422-0.311-0.85-0.469-1.284c-0.179-0.424-0.41-0.833-0.617-1.259
		c-0.219-0.418-0.412-0.858-0.658-1.272c-0.264-0.401-0.531-0.807-0.799-1.215c-1.069-1.655-2.495-3.119-4.016-4.509
		c-0.834-0.607-1.621-1.297-2.508-1.844c-0.903-0.524-1.762-1.137-2.729-1.55l-1.416-0.682c-0.469-0.232-0.973-0.382-1.457-0.575
		l-1.463-0.55c-0.498-0.145-0.996-0.288-1.492-0.433c-0.496-0.142-0.992-0.282-1.482-0.422c-0.498-0.106-0.994-0.209-1.488-0.312
		c-0.978-0.21-1.963-0.417-2.943-0.518c-0.977-0.109-1.936-0.298-2.877-0.334c-0.94-0.047-1.86-0.092-2.756-0.136
		c-1.816,0.02-3.515,0.109-5.074,0.379c-0.389,0.064-0.77,0.126-1.141,0.189c-0.369,0.087-0.726,0.172-1.078,0.255
		c-0.705,0.145-1.352,0.368-1.963,0.563c-0.618,0.176-1.166,0.424-1.682,0.632c-0.52,0.196-0.981,0.42-1.393,0.638
		c-0.841,0.4-1.449,0.782-1.861,1.042c-0.418,0.257-0.641,0.393-0.641,0.393l0.266,0.428
		C182.659,35.31,182.88,35.172,183.294,34.913z"/>
	<path d="M221.934,77.959c1.05-1.02,1.65-1.603,1.65-1.603l-0.353-0.359c0,0-0.594,0.589-1.635,1.619
		c-0.259,0.257-0.547,0.542-0.861,0.853c-0.328,0.29-0.715,0.557-1.111,0.869c-0.819,0.586-1.649,1.381-2.762,1.957
		c-1.084,0.613-2.203,1.387-3.545,1.896c-0.655,0.289-1.326,0.584-2.014,0.887c-0.684,0.266-1.444,0.473-2.184,0.717
		c-0.759,0.155-1.525,0.342-2.314,0.475c-0.797,0.086-1.6,0.224-2.418,0.271c-0.817,0.017-1.649,0.101-2.469,0.067
		c-0.832-0.034-1.668-0.069-2.504-0.104c-0.839-0.01-1.656-0.18-2.484-0.262c-0.824-0.122-1.642-0.165-2.449-0.354
		c-0.808-0.158-1.609-0.316-2.4-0.473c-0.781-0.193-1.543-0.42-2.299-0.621c-0.762-0.184-1.477-0.471-2.186-0.727
		c-0.707-0.262-1.41-0.486-2.049-0.818c-0.649-0.307-1.28-0.605-1.891-0.895c-0.58-0.347-1.141-0.679-1.678-0.998
		c-0.554-0.299-1.021-0.676-1.48-1.018c-0.453-0.346-0.902-0.654-1.291-0.981c-0.734-0.704-1.41-1.285-1.908-1.82
		c-0.947-1.115-1.488-1.753-1.488-1.753s0.535,0.643,1.473,1.768c0.493,0.54,1.165,1.128,1.895,1.84
		c0.387,0.333,0.832,0.644,1.283,0.997c0.457,0.345,0.924,0.729,1.475,1.032c0.537,0.329,1.096,0.666,1.676,1.021
		c0.61,0.295,1.241,0.6,1.889,0.914c0.637,0.338,1.342,0.57,2.047,0.842c0.71,0.262,1.425,0.559,2.189,0.748
		c0.758,0.209,1.524,0.447,2.309,0.646c0.79,0.164,1.588,0.33,2.395,0.498c0.801,0.193,1.645,0.25,2.467,0.377
		c0.83,0.091,1.66,0.269,2.496,0.289c0.836,0.043,1.672,0.086,2.504,0.127c0.844,0.043,1.672-0.032,2.5-0.045
		c0.826-0.039,1.64-0.17,2.447-0.25c0.803-0.127,1.59-0.313,2.369-0.463c0.75-0.242,1.484-0.433,2.209-0.703
		c0.697-0.301,1.379-0.592,2.045-0.879c1.361-0.504,2.501-1.274,3.605-1.888c1.131-0.571,1.994-1.377,2.838-1.969
		c0.407-0.315,0.809-0.591,1.143-0.881C221.381,78.496,221.672,78.214,221.934,77.959z"/>
	<path d="M189.986,72.059c0.037,0.317,0.078,0.671,0.203,0.965c0.114,0.304,0.172,0.619,0.346,0.921
		c0.545,1.25,1.56,2.313,2.828,2.933c1.254,0.624,2.685,0.925,4.068,1.053c0.695,0.082,1.387,0.183,2.082,0.248
		c0.701,0.03,1.399,0.06,2.092,0.088c1.389,0.057,2.736-0.069,4.049-0.242c1.293-0.25,2.547-0.529,3.645-1.047
		c0.552-0.239,1.089-0.47,1.609-0.694c0.528-0.21,0.975-0.543,1.438-0.792c0.455-0.265,0.891-0.52,1.305-0.763
		c0.379-0.291,0.74-0.568,1.08-0.828c0.338-0.261,0.656-0.504,0.947-0.729c0.293-0.224,0.513-0.49,0.736-0.697
		c0.871-0.864,1.367-1.358,1.367-1.358s-0.502,0.489-1.381,1.343c-0.226,0.206-0.447,0.467-0.742,0.688
		c-0.295,0.222-0.615,0.46-0.957,0.717c-0.34,0.255-0.703,0.528-1.086,0.814c-0.414,0.237-0.852,0.485-1.305,0.745
		c-0.464,0.242-0.91,0.566-1.439,0.771c-0.521,0.218-1.062,0.444-1.617,0.677c-1.092,0.499-2.34,0.763-3.623,0.997
		c-1.29,0.156-2.655,0.267-4.02,0.195c-0.685-0.037-1.375-0.073-2.07-0.11c-0.691-0.073-1.385-0.182-2.078-0.271
		c-1.397-0.145-2.754-0.454-3.965-1.069c-1.206-0.605-2.151-1.629-2.645-2.793c-0.158-0.27-0.221-0.606-0.33-0.907
		c-0.123-0.307-0.141-0.591-0.176-0.903c-0.099-0.596-0.011-1.231-0.027-1.82c0.002-1.192,0.186-2.321,0.256-3.361
		c0.077-1.042,0.233-1.995,0.35-2.84c0.122-0.845,0.225-1.582,0.311-2.188c0.173-1.213,0.273-1.906,0.273-1.906l-0.499-0.067
		c0,0-0.09,0.694-0.248,1.909c-0.082,0.607-0.178,1.344-0.289,2.19c-0.107,0.846-0.252,1.797-0.316,2.854
		c-0.063,1.053-0.235,2.183-0.223,3.4C189.959,70.793,189.875,71.405,189.986,72.059z"/>
	<path d="M195.753,41.188c-0.076,0.148-0.166,0.33-0.271,0.537c-0.096,0.212-0.242,0.43-0.334,0.708
		c-0.202,0.543-0.436,1.177-0.688,1.856c-0.138,0.335-0.216,0.699-0.32,1.061c-0.1,0.363-0.199,0.733-0.301,1.101
		c-0.195,0.739-0.426,1.469-0.545,2.176c-0.143,0.701-0.276,1.355-0.389,1.916c-0.225,1.121-0.377,1.868-0.377,1.868
		s0.182-0.741,0.455-1.851c0.135-0.556,0.293-1.203,0.463-1.896c0.149-0.7,0.408-1.416,0.633-2.144
		c0.115-0.361,0.231-0.724,0.344-1.079c0.117-0.354,0.209-0.713,0.359-1.034c0.269-0.65,0.523-1.257,0.74-1.778
		c0.095-0.263,0.254-0.481,0.359-0.688c0.113-0.202,0.211-0.378,0.293-0.524c0.162-0.291,0.254-0.457,0.254-0.457l-0.438-0.24
		C195.989,40.72,195.903,40.891,195.753,41.188z"/>
	<path d="M251.023,42.03c0.898,0.778,1.605,1.734,2.176,2.716c1.137,1.979,1.77,4.038,2.268,5.794
		c0.992,3.524,1.652,5.873,1.652,5.873s-0.631-2.359-1.578-5.894c-0.475-1.765-1.082-3.838-2.203-5.852
		c-0.564-1.001-1.27-1.982-2.182-2.792c-0.912-0.804-2.066-1.38-3.279-1.613c-9.559-1.989-19.117-3.976-19.117-3.976l-0.098,0.493
		c0,0,9.582,1.865,19.166,3.729C249.014,40.722,250.121,41.258,251.023,42.03z"/>
	<path d="M232.871,46.083c0.149,0.254,0.305,0.523,0.467,0.801c0.285,0.579,0.551,1.224,0.758,1.942
		c0.213,0.706,0.4,1.473,0.613,2.255c0.418,1.567,0.866,3.24,1.311,4.913c1.785,6.691,3.568,13.381,3.568,13.381l0.484-0.133
		c0,0-1.907-6.657-3.812-13.315c-0.476-1.663-0.953-3.328-1.4-4.888c-0.228-0.779-0.426-1.535-0.656-2.249
		c-0.219-0.71-0.498-1.363-0.799-1.942c-0.168-0.279-0.33-0.546-0.484-0.8c-0.183-0.233-0.357-0.455-0.521-0.662
		c-0.397-0.368-0.877-0.458-1.221-0.604c-0.736-0.178-1.156-0.282-1.156-0.282s0.418,0.11,1.15,0.303
		c0.339,0.151,0.818,0.254,1.191,0.613C232.525,45.625,232.693,45.848,232.871,46.083z"/>
	<polygon points="241.898,77.301 235.215,83.74 242.238,77.669 	"/>
	<polygon points="271.586,99.049 271.686,98.559 238.502,92.129 	"/>
	<path d="M269.107,90.475c-0.188-0.078-0.395-0.162-0.619-0.254c-0.209-0.121-0.438-0.254-0.68-0.395
		c-0.227-0.166-0.453-0.362-0.697-0.559c-0.201-0.24-0.448-0.468-0.637-0.752c-0.183-0.293-0.402-0.58-0.539-0.929
		c-0.076-0.168-0.156-0.338-0.236-0.512c-0.059-0.185-0.119-0.371-0.182-0.56c-0.244-0.75-0.433-1.574-0.664-2.406
		c-0.447-1.676-0.924-3.463-1.402-5.25c-1.908-7.149-3.816-14.297-3.816-14.297l-0.482,0.134c0,0,2.029,7.115,4.059,14.23
		c0.506,1.779,1.014,3.556,1.49,5.224c0.246,0.832,0.445,1.645,0.707,2.402c0.064,0.188,0.128,0.373,0.191,0.555
		c0.084,0.177,0.166,0.351,0.25,0.521c0.143,0.353,0.371,0.64,0.561,0.933c0.197,0.287,0.453,0.512,0.66,0.752
		c0.25,0.195,0.482,0.389,0.713,0.551c0.246,0.139,0.476,0.268,0.691,0.387c0.227,0.088,0.436,0.17,0.625,0.244
		c0.373,0.162,0.696,0.193,0.901,0.26c0.209,0.053,0.322,0.08,0.322,0.08s-0.111-0.029-0.32-0.086
		C269.798,90.678,269.477,90.643,269.107,90.475z"/>
	<polygon points="263.344,43.758 277.297,46.316 263.443,43.267 	"/>
	<path d="M287.227,94.605c0.358-0.049,0.758-0.119,1.127-0.34c0.775-0.433,1.207-1.351,1.432-2.279
		c0.871-3.703,2.031-8.643,3.193-13.579c2.314-9.874,4.629-19.747,4.629-19.747s-2.438,9.843-4.873,19.688
		c-1.221,4.919-2.443,9.839-3.357,13.529c-0.227,0.896-0.635,1.668-1.244,1.992c-0.299,0.176-0.633,0.229-0.932,0.27
		c-0.344,0.021-0.627,0.023-0.887-0.01c-0.523-0.02-0.953-0.115-1.246-0.174c-0.291-0.059-0.447-0.088-0.447-0.088l-0.092,0.492
		c0,0,0.156,0.027,0.449,0.082c0.291,0.056,0.713,0.146,1.303,0.166C286.572,94.641,286.904,94.631,287.227,94.605z"/>
	<polygon points="310.803,108.465 310.92,107.977 282.502,101.381 	"/>
	<path d="M311.546,100.473c-0.192-0.098-0.396-0.201-0.598-0.305c-0.214-0.094-0.394-0.223-0.552-0.346
		c-0.156-0.133-0.322-0.198-0.428-0.348c-0.225-0.266-0.375-0.441-0.375-0.441l-0.361,0.343c0,0,0.172,0.157,0.432,0.39
		c0.113,0.125,0.342,0.213,0.535,0.332c0.201,0.123,0.418,0.232,0.645,0.297c0.221,0.078,0.443,0.154,0.65,0.229
		c0.213,0.047,0.414,0.092,0.584,0.131c0.339,0.076,0.566,0.125,0.566,0.125s-0.22-0.08-0.545-0.201
		C311.939,100.619,311.749,100.549,311.546,100.473z"/>
	<path d="M325.738,71.196c-0.062-0.434-0.17-0.882-0.308-1.34c-0.146-0.451-0.303-0.923-0.541-1.364
		c-0.211-0.455-0.502-0.877-0.793-1.291c-0.319-0.396-0.655-0.775-1.032-1.103c-0.373-0.326-0.763-0.631-1.164-0.876
		c-0.396-0.26-0.797-0.475-1.188-0.658c-0.381-0.206-0.772-0.326-1.117-0.476c-0.709-0.251-1.306-0.437-1.731-0.535
		c-0.424-0.108-0.666-0.17-0.666-0.17s0.24,0.069,0.66,0.189c0.422,0.112,1.014,0.318,1.709,0.59
		c0.338,0.159,0.725,0.289,1.094,0.506c0.382,0.194,0.771,0.417,1.152,0.685c0.388,0.254,0.758,0.565,1.112,0.896
		c0.36,0.331,0.673,0.71,0.972,1.102c0.27,0.411,0.535,0.825,0.727,1.27c0.214,0.432,0.352,0.892,0.48,1.332
		c0.116,0.445,0.209,0.88,0.256,1.301c0.074,0.416,0.072,0.819,0.102,1.187c0.025,0.367-0.002,0.704,0.002,1.002
		c0.004,0.297-0.025,0.563-0.041,0.782c-0.035,0.436-0.055,0.684-0.055,0.684l0.502,0.031c0,0,0.01-0.251,0.031-0.687
		c0.008-0.22,0.029-0.482,0.018-0.796c-0.014-0.31,0.004-0.662-0.035-1.041C325.842,72.037,325.83,71.624,325.738,71.196z"/>
	<polygon points="286.029,48.353 332.307,59.252 286.146,47.867 	"/>
	<polygon points="277.533,62.346 278.006,62.516 282.295,49.974 	"/>
</g>
</svg>
