<svg xmlns="http://www.w3.org/2000/svg" xmlns:xlink="http://www.w3.org/1999/xlink" version="1.1" id="Layer_1" x="0px" y="0px" width="475px" height="163px" viewBox="0 -1 475 163" enable-background="new 0 -1 475 163" xml:space="preserve">
<g id="on" display="none">
	<g display="inline">
		<g>
			<line fill="none" x1="-70.6" y1="134" x2="-70.6" y2="147.6"/>
			<path d="M-70.555 148.137c-0.277 0-0.5-0.225-0.5-0.502v-13.67c0-0.277 0.224-0.502 0.5-0.502c0.276 0 0.5 0.2 0.5 0.5 v13.67C-70.054 147.912-70.278 148.137-70.555 148.137z"/>
		</g>
		<g>
			<line fill="none" x1="-57.7" y1="134" x2="-57.7" y2="147.6"/>
			<path d="M-57.726 148.137c-0.277 0-0.501-0.225-0.501-0.502v-13.67c0-0.277 0.224-0.502 0.501-0.502s0.501 0.2 0.5 0.5 v13.67C-57.225 147.912-57.449 148.137-57.726 148.137z"/>
		</g>
		<g>
			<line fill="none" x1="-44.9" y1="134" x2="-44.9" y2="147.6"/>
			<path d="M-44.896 148.137c-0.277 0-0.501-0.225-0.501-0.502v-13.67c0-0.277 0.224-0.502 0.501-0.502s0.5 0.2 0.5 0.502v13.67 C-44.396 147.912-44.619 148.137-44.896 148.137z"/>
		</g>
		<g>
			<line fill="none" x1="-32.1" y1="134" x2="-32.1" y2="147.6"/>
			<path d="M-32.067 148.137c-0.277 0-0.5-0.225-0.5-0.502v-13.67c0-0.277 0.224-0.502 0.5-0.502s0.501 0.2 0.5 0.502v13.67 C-31.566 147.912-31.79 148.137-32.067 148.137z"/>
		</g>
		<g>
			<line fill="none" x1="-19.2" y1="134" x2="-19.2" y2="147.6"/>
			<path d="M-19.237 148.137c-0.277 0-0.501-0.225-0.501-0.502v-13.67c0-0.277 0.224-0.502 0.501-0.502 c0.277 0 0.5 0.2 0.5 0.502v13.67C-18.736 147.912-18.96 148.137-19.237 148.137z"/>
		</g>
		<g>
			<line fill="none" x1="-6.4" y1="134" x2="-6.4" y2="147.6"/>
			<path d="M-6.409 148.137c-0.277 0-0.501-0.225-0.501-0.502v-13.67c0-0.277 0.224-0.502 0.501-0.502c0.277 0 0.5 0.2 0.5 0.5 v13.67C-5.908 147.912-6.132 148.137-6.409 148.137z"/>
		</g>
		<g>
			<line fill="none" x1="6.4" y1="134" x2="6.4" y2="147.6"/>
			<path d="M6.421 148.137c-0.275 0-0.5-0.225-0.5-0.502v-13.67c0-0.277 0.225-0.502 0.5-0.502c0.277 0 0.5 0.2 0.5 0.5 v13.67C6.923 147.9 6.7 148.1 6.4 148.137z"/>
		</g>
		<g>
			<line fill="none" x1="19.3" y1="134" x2="19.3" y2="147.6"/>
			<path d="M19.251 148.137c-0.277 0-0.5-0.225-0.5-0.502v-13.67c0-0.277 0.223-0.502 0.5-0.502s0.501 0.2 0.5 0.502v13.67 C19.752 147.9 19.5 148.1 19.3 148.137z"/>
		</g>
		<g>
			<line fill="none" x1="32.1" y1="134" x2="32.1" y2="147.6"/>
			<path d="M32.079 148.137c-0.277 0-0.502-0.225-0.502-0.502v-13.67c0-0.277 0.225-0.502 0.502-0.502c0.276 0 0.5 0.2 0.5 0.5 v13.67C32.579 147.9 32.4 148.1 32.1 148.137z"/>
		</g>
		<g>
			<line fill="none" x1="44.9" y1="134" x2="44.9" y2="147.6"/>
			<path d="M44.906 148.137c-0.275 0-0.5-0.225-0.5-0.502v-13.67c0-0.277 0.225-0.502 0.5-0.502c0.277 0 0.5 0.2 0.5 0.5 v13.67C45.408 147.9 45.2 148.1 44.9 148.137z"/>
		</g>
		<g>
			<line fill="none" x1="57.7" y1="134" x2="57.7" y2="147.6"/>
			<path d="M57.736 148.137c-0.277 0-0.5-0.225-0.5-0.502v-13.67c0-0.277 0.223-0.502 0.5-0.502c0.277 0 0.5 0.2 0.5 0.5 v13.67C58.238 147.9 58 148.1 57.7 148.137z"/>
		</g>
		<g>
			<line fill="none" x1="70.6" y1="134" x2="70.6" y2="147.6"/>
			<path d="M70.566 148.137c-0.277 0-0.502-0.225-0.502-0.502v-13.67c0-0.277 0.225-0.502 0.502-0.502c0.275 0 0.5 0.2 0.5 0.5 v13.67C71.066 147.9 70.8 148.1 70.6 148.137z"/>
		</g>
		<path d="M107.311 153.27h-212.046c-0.277 0-0.501-0.225-0.501-0.502c0-0.274 0.224-0.5 0.501-0.5h212.046 c0.277 0 0.5 0.2 0.5 0.5C107.811 153 107.6 153.3 107.3 153.27z"/>
		<path d="M104.746 155.832h-214.079c-0.277 0-0.5-0.225-0.5-0.502c0-0.275 0.224-0.5 0.5-0.5h214.079 c0.277 0 0.5 0.2 0.5 0.5C105.248 155.6 105 155.8 104.7 155.832z"/>
		<g>
			<path d="M72.4 72.296c-0.211-0.91-0.633-1.7-1.158-2.322c-1.053-1.25-2.371-1.989-3.695-2.514 c-1.334-0.519-2.709-0.796-4.086-0.931c-2.773-0.206-5.42 0.092-8.076 0.508c-2.643 0.448-5.236 1.094-7.789 1.9 c-5.107 1.526-10.053 3.498-14.894 5.669c-4.844 2.176-9.573 4.58-14.236 7.103C9.122 86.7 0 92.16-8.834 97.9 c-0.348 0.229-0.695 0.457-1.043 0.687V28.633c0-0.356-0.286-0.641-0.641-0.641h-9.4V0.858c0-0.354-0.287-0.645-0.641-0.645 h-453.799c-0.279 0-0.537 0.187-0.617 0.47c-0.096 0.3 0.1 0.7 0.4 0.79l0.007 0.004l7.215 2 c2.4 0.7 4.8 1.3 7.2 2.067l7.155 2.224l3.578 1.115l3.546 1.209l7.091 2.422c2.354 0.8 4.7 1.7 7 2.6 c2.343 0.9 4.7 1.7 7 2.691l6.946 2.812l6.868 2.987c2.303 1 4.5 2.1 6.8 3.1 c2.274 1 4.5 2.2 6.7 3.276l3.346 1.678l3.302 1.767c2.213 1.1 4.4 2.4 6.5 3.6 c2.185 1.2 4.3 2.5 6.4 3.814c2.101 1.3 4.2 2.7 6.3 4.085c2.048 1.4 4.1 2.9 6 4.412l0.007 0 c0.172 0.1 0.4 0.2 0.6 0.114c4.538-1.595 9.141-3.118 13.724-4.645l13.787-4.489c9.205-2.955 18.43-5.845 27.687-8.629 l13.902-4.117c4.641-1.352 9.292-2.664 13.95-3.949c2.324-0.659 4.664-1.264 6.996-1.89c2.333-0.63 4.667-1.25 7.011-1.833 c2.343-0.587 4.678-1.209 7.028-1.765l7.048-1.673c0.281-0.066 0.498-0.322 0.498-0.626c0-0.352-0.287-0.64-0.641-0.64l0 0 l-15.172 0.155l-15.173 0.092l-30.344 0.016l-30.346-0.183l-7.586-0.049c-2.544 0.006-5.02-0.074-7.635 0 c-1.301 0.059-2.614 0.188-3.951 0.528c-0.67 0.175-1.338 0.427-2.011 0.8c-0.662 0.374-1.337 0.936-1.779 1.8 c-0.422 0.824-0.569 1.837-0.417 2.712c0.136 0.9 0.5 1.7 0.8 2.37c0.383 0.7 0.9 1.3 1.3 1.9 c0.25 0.3 0.5 0.6 0.8 0.877c0.316 0.3 0.5 0.5 0.8 0.79c0.313 0.4 0.7 0.6 1.2 0.8 c1.407 0.4 2.907-0.344 3.35-1.75c0.442-1.407-0.34-2.907-1.749-3.35l-0.059-0.02l-0.829-0.26 c-0.223-0.063-0.482-0.184-0.707-0.292c-0.474-0.219-0.892-0.509-1.26-0.813c-0.732-0.636-1.153-1.359-1.015-2.007 c0.133-0.69 1.033-1.455 2.092-1.882c1.074-0.44 2.278-0.687 3.497-0.823c1.22-0.126 2.467-0.124 3.739-0.132l3.794-0.023 l7.586-0.043l30.346-0.184l30.344 0.018c0 0 13 0.4 13 1.687c0 1.281-8.648 3.805-10.976 4.5 c-4.665 1.283-9.32 2.598-13.966 3.951l-13.916 4.12c-9.264 2.789-18.496 5.683-27.708 8.638l-13.798 4.5 c-4.479 1.491-8.945 2.972-13.416 4.537c-1.885-1.54-3.818-2.919-5.793-4.269c-2.067-1.432-4.193-2.766-6.31-4.116 c-2.157-1.279-4.276-2.627-6.472-3.838c-2.176-1.248-4.358-2.484-6.582-3.642l-3.318-1.771l-3.361-1.688 c-2.239-1.129-4.48-2.252-6.76-3.288c-2.28-1.043-4.521-2.172-6.831-3.14l-6.893-3.001l-6.969-2.819 c-2.314-0.964-4.664-1.828-7.013-2.699c-2.351-0.866-4.689-1.77-7.052-2.604l-7.111-2.43c0 0-3.996-1.529-3.996-4.362 c0-2.83 3.845-3.046 3.845-3.046H-21.2V27.99h-32.69c-0.228 0.002-0.453 0.124-0.566 0.341c-0.166 0.313-0.045 0.7 0.3 0.9 c1.787 1 3.5 2 5.2 3.182c1.666 1.2 3.3 2.4 4.8 3.729c3.111 2.6 6 5.5 8.7 8.6 c2.714 3.1 5.3 6.3 7.6 9.604c2.38 3.3 4.6 6.8 6.6 10.315l0.006 0.01c0.109 0.2 0.3 0.3 0.6 0.3 c0.354 0 0.641-0.283 0.641-0.64V29.275h8.759v70.186c-3.657 2.393-7.306 4.799-10.906 7.3 c-4.364 3.006-8.693 6.055-12.981 9.188l-0.002 0.004c-0.154 0.117-0.255 0.305-0.253 0.512c0 0.4 0.3 0.6 0.6 0.6 h24.143c0.354 0 0.641-0.289 0.641-0.642V99.586c0.494-0.326 0.98-0.662 1.476-0.986c8.86-5.773 17.899-11.285 27.221-16.275 c4.676-2.465 9.418-4.805 14.259-6.914c4.836-2.104 9.77-4.005 14.826-5.454c2.529-0.718 5.088-1.324 7.672-1.731 c2.566-0.365 5.23-0.653 7.738-0.385c1.25 0.2 2.5 0.5 3.6 1.107c1.076 0.6 2 1.4 2.5 2.3 c0.934 1.966-0.58 3.196-2.736 3.637c-0.49 0.096-0.957 0.333-1.344 0.704c-1.07 1.037-1.098 2.746-0.063 3.8 c1.039 1.1 2.7 1.1 3.8 0.064l0.16-0.152c1.188-1.15 2.432-2.412 3.047-4.237C72.521 74.2 72.6 73.2 72.4 72.296z M-21.881 58.652c-0.962 0.372-2.894-2.365-4.844-5.092c-2.408-3.364-4.985-6.609-7.732-9.708 c-2.756-3.093-5.694-6.033-8.861-8.723c-1.586-1.34-3.574-2.758-3.2-4.039c0.588-1.979 3.098-1.815 3.098-1.815h22.22v24.42 C-21.2 53.695-20.92 58.277-21.881 58.652z M-11.159 115.803H-23.87c0 0-2.458-0.135-3.446-1.629 c-0.989-1.496 2.12-3.988 2.12-3.988s2.457-1.77 3.691-2.641c3.419-2.41 6.867-4.781 10.347-7.1L-11.159 115.803L-11.159 115.8 z"/>
			<path d="M-0.048 126.484h-61.291c0 0 1.12-2.564 0.078-3.605c-1.041-1.041-3.152-0.988-3.152-0.988l29.564-29.565 c0.114-0.115 0.19-0.277 0.191-0.453c0.001-0.353-0.285-0.638-0.636-0.64l-10.977-0.045l-10.977 0.1 c-7.317 0.163-14.631 0.389-21.938 0.75c-3.657 0.141-7.307 0.391-10.959 0.6c-3.654 0.195-7.302 0.451-10.95 0.7 c-7.3 0.505-14.587 1.156-21.872 1.845l-10.917 1.103l-10.906 1.223c-7.262 0.883-14.521 1.785-21.766 2.8 c-3.627 0.473-7.241 1.039-10.86 1.566c-3.622 0.521-7.234 1.088-10.845 1.676c-7.227 1.135-14.435 2.391-21.635 3.7 c-7.201 1.295-14.381 2.697-21.554 4.137l-10.742 2.248l-10.714 2.38c-7.13 1.641-14.247 3.342-21.336 5.2 c-7.089 1.814-14.154 3.724-21.188 5.742c-7.034 2.02-14.03 4.176-20.993 6.438l-10.396 3.5 c-3.431 1.275-6.897 2.457-10.301 3.812c-3.411 1.332-6.828 2.65-10.188 4.113c-3.393 1.381-6.712 2.938-10.044 4.5 c-6.606 3.175-13.12 6.578-19.293 10.584c-0.173 0.115-0.292 0.317-0.292 0.543c0.002 0.4 0.3 0.6 0.6 0.636h153.83 c0.355 0 0.641-0.285 0.641-0.642v-34.291c0-0.103-0.025-0.211-0.076-0.306c-0.169-0.311-0.557-0.426-0.867-0.26l-0.005 0 c-2.513 1.59-4.994 3.158-7.45 4.795c-2.453 1.631-4.883 3.31-7.192 5.166c-1.155 0.931-2.292 1.896-3.338 3 c-0.533 0.531-1.021 1.117-1.497 1.723c-0.466 0.615-0.93 1.258-1.274 2.017c-0.399 0.721-0.601 1.623-0.613 2.6 c0.087 0.5 0.1 1 0.3 1.455l0.319 0.695c0.129 0.2 0.3 0.4 0.4 0.594c0.284 0.4 0.6 0.7 1 1.1 c0.347 0.3 0.7 0.6 1 0.875c0.728 0.6 1.4 1 2.2 1.517c0.501 0.4 1.1 0.6 1.8 0.5 c1.505-0.107 2.639-1.412 2.531-2.916c-0.105-1.504-1.412-2.639-2.917-2.531h-0.022c-0.631 0.045-1.365 0.104-1.936-0.02 c-0.312-0.039-0.636-0.074-0.877-0.182c-0.272-0.089-0.562-0.175-0.76-0.312c-0.517-0.231-0.744-0.603-0.987-1.047 c-0.111-0.484-0.18-1.087 0.036-1.707c0.161-0.623 0.471-1.248 0.841-1.839c0.364-0.596 0.802-1.159 1.268-1.698 c0.93-1.091 2.145-2.129 3.245-3.084c2.185-1.922 4.365-3.521 6.825-5.109c0.839-0.536 2.549-1.604 2.549-1.604 s-0.48 2.2 1 3.207c1.496 1 3.2 0.4 3.2 0.428v26.652h-150.932c5.54-3.451 11.339-6.49 17.231-9.322 c3.315-1.521 6.617-3.068 9.995-4.447c3.347-1.453 6.75-2.768 10.151-4.094c3.391-1.348 6.847-2.527 10.269-3.799l10.367-3.533 c6.945-2.254 13.925-4.406 20.946-6.424c7.02-2.016 14.074-3.92 21.15-5.73c7.08-1.807 14.185-3.506 21.305-5.145l10.7-2.377 l10.726-2.246c7.165-1.434 14.336-2.836 21.527-4.131c7.193-1.291 14.391-2.547 21.61-3.678 c3.605-0.588 7.215-1.152 10.831-1.675c3.615-0.53 7.225-1.096 10.847-1.565c7.235-1.021 14.486-1.922 21.74-2.81l10.893-1.217 l10.903-1.103c7.275-0.686 14.554-1.336 21.842-1.844c3.643-0.272 7.287-0.533 10.935-0.727 c3.647-0.211 7.291-0.459 10.941-0.598c7.298-0.359 14.6-0.584 21.903-0.75l10.956-0.136c0 0-1.667 2.664-0.573 4.2 c1.095 1.5 3.9 1.9 3.9 1.895l-28.095 28.096c-0.114 0.115-0.188 0.277-0.188 0.453c0 0.4 0.3 0.6 0.6 0.6 h70.507c0.354 0 0.641-0.287 0.641-0.643C0.592 126.8 0.3 126.484-0.048 126.484z"/>
			<path d="M-360.421 46.655c-0.233-2.26-2.12-4.027-4.44-4.027c-1.797 0-3.336 1.064-4.052 2.6 c1.341 0.9 2.7 1.9 4 2.993C-363.442 47.678-361.932 47.169-360.421 46.655z"/>
			<path d="M-223.103 155.555c-2.319 0.057-4.185 1.932-4.213 4.26h4.213V155.555z"/>
		</g>
		<g>
			<path d="M-72.227 75.113c0.616 1.8 1.9 3.1 3 4.237l0.16 0.152c1.072 1 2.8 1 3.818-0.064 c1.039-1.072 1.009-2.781-0.063-3.818c-0.386-0.371-0.852-0.608-1.342-0.704c-2.156-0.44-3.67-1.671-2.736-3.637 c0.471-0.927 1.399-1.767 2.477-2.331c1.074-0.579 2.301-0.947 3.552-1.107c2.504-0.269 5.2 0 7.7 0.4 c2.584 0.4 5.1 1 7.7 1.731c5.058 1.4 10 3.4 14.8 5.454c4.84 2.1 9.6 4.4 14.3 6.9 C-9.499 87.314-0.46 92.8 8.4 98.6c0.494 0.3 1 0.7 1.5 0.986v16.859c0 0.4 0.3 0.6 0.6 0.641h24.143 c0.355 0 0.641-0.289 0.641-0.641c0.004-0.207-0.102-0.396-0.254-0.512l-0.002-0.004c-4.287-3.134-8.617-6.183-12.98-9.188 c-3.6-2.482-7.25-4.89-10.904-7.281V29.275h8.758v35.036c0 0.4 0.3 0.6 0.6 0.64c0.241 0 0.449-0.129 0.559-0.32 l0.006-0.01c2-3.541 4.265-6.987 6.644-10.315c2.385-3.329 4.936-6.541 7.65-9.604c2.722-3.052 5.618-5.948 8.729-8.592 c1.559-1.318 3.178-2.559 4.844-3.729c1.676-1.154 3.412-2.217 5.197-3.182c0.316-0.166 0.436-0.551 0.27-0.864 c-0.115-0.217-0.342-0.339-0.568-0.341H21.201V1.497H445.57c0 0 3.8 0.2 3.8 3.046c0 2.833-3.996 4.362-3.996 4.4 l-7.111 2.43c-2.362 0.834-4.698 1.737-7.051 2.604c-2.35 0.871-4.699 1.735-7.014 2.699l-6.969 2.819l-6.894 3 c-2.313 0.968-4.553 2.097-6.832 3.14c-2.281 1.036-4.521 2.159-6.76 3.288l-3.361 1.688l-3.317 1.8 c-2.223 1.157-4.406 2.394-6.582 3.642c-2.195 1.211-4.314 2.559-6.473 3.838c-2.115 1.351-4.242 2.685-6.31 4.1 c-1.978 1.35-3.91 2.729-5.793 4.269c-4.472-1.565-8.937-3.046-13.418-4.537l-13.795-4.493 c-9.214-2.955-18.445-5.849-27.709-8.638l-13.916-4.12c-4.646-1.354-9.302-2.668-13.968-3.951 c-2.326-0.661-10.975-3.185-10.975-4.466c0-1.283 13.039-1.687 13.039-1.687l30.346-0.018l30.346 0.184l7.587 0.043l3.793 0 c1.271 0 2.5 0 3.7 0.132c1.22 0.1 2.4 0.4 3.5 0.823c1.063 0.4 2 1.2 2.1 1.9 c0.14 0.647-0.282 1.371-1.016 2.007c-0.367 0.305-0.785 0.595-1.26 0.813c-0.225 0.108-0.484 0.229-0.705 0.292l-0.83 0.3 l-0.057 0.02c-1.41 0.442-2.193 1.942-1.75 3.35c0.443 1.4 1.9 2.2 3.4 1.75c0.486-0.152 0.902-0.439 1.215-0.794 c0.211-0.242 0.435-0.464 0.75-0.79c0.293-0.306 0.535-0.565 0.785-0.877c0.486-0.602 0.957-1.225 1.338-1.935 c0.373-0.712 0.715-1.484 0.851-2.37c0.151-0.875 0.004-1.888-0.416-2.712c-0.441-0.825-1.115-1.387-1.777-1.761 c-0.674-0.373-1.342-0.625-2.014-0.8c-1.337-0.34-2.648-0.47-3.949-0.528c-2.615-0.076-5.092 0.004-7.635-0.002l-7.587 0 l-30.346 0.183l-30.346-0.016l-15.17-0.092l-15.174-0.155h-0.002c-0.352 0-0.641 0.288-0.641 0.6 c0 0.3 0.2 0.6 0.5 0.626l7.049 1.673c2.35 0.6 4.7 1.2 7 1.765c2.345 0.6 4.7 1.2 7 1.8 c2.334 0.6 4.7 1.2 7 1.89c4.657 1.3 9.3 2.6 13.9 3.949l13.904 4.117c9.256 2.8 18.5 5.7 27.7 8.6 l13.786 4.489c4.582 1.5 9.2 3 13.7 4.645c0.225 0.1 0.5 0 0.637-0.114l0.006-0.008 c1.875-1.551 3.922-3.014 5.971-4.412c2.047-1.419 4.16-2.743 6.262-4.085c2.144-1.271 4.25-2.611 6.435-3.814 c2.166-1.244 4.336-2.473 6.549-3.623l3.304-1.767l3.348-1.678c2.229-1.123 4.459-2.242 6.731-3.276 c2.271-1.037 4.502-2.16 6.806-3.128l6.866-2.987l6.947-2.812c2.305-0.96 4.648-1.824 6.99-2.691 c2.342-0.86 4.674-1.763 7.027-2.594l7.092-2.422l3.547-1.209l3.576-1.115l7.157-2.224c2.38-0.751 4.802-1.375 7.201-2.067 l7.215-2.029l0.009-0.004c0.342-0.096 0.541-0.449 0.442-0.79c-0.08-0.283-0.336-0.47-0.617-0.47H20.559 c-0.351 0-0.64 0.29-0.64 0.645v27.135h-9.4c-0.355 0-0.64 0.284-0.64 0.641v69.986c-0.349-0.229-0.696-0.457-1.044-0.686 C-0.048 92.16-9.12 86.668-18.467 81.662c-4.661-2.523-9.391-4.927-14.234-7.103c-4.842-2.171-9.79-4.143-14.895-5.669 c-2.554-0.759-5.147-1.404-7.79-1.853c-2.656-0.416-5.303-0.714-8.076-0.508c-1.378 0.135-2.752 0.412-4.086 0.9 c-1.325 0.524-2.643 1.264-3.697 2.514c-0.526 0.622-0.949 1.412-1.159 2.322C-72.613 73.208-72.522 74.215-72.227 75.113z M21.201 53.695v-24.42H43.42c0 0 2.512-0.163 3.1 1.815c0.375 1.281-1.613 2.699-3.199 4 c-3.166 2.689-6.105 5.63-8.86 8.723c-2.745 3.099-5.322 6.344-7.73 9.708c-1.952 2.727-3.885 5.464-4.846 5.1 C20.921 58.3 21.2 53.7 21.2 53.695z M11.161 100.445c3.479 2.3 6.9 4.7 10.3 7.1 c1.232 0.9 3.7 2.6 3.7 2.641s3.111 2.5 2.1 3.988c-0.988 1.494-3.443 1.629-3.443 1.629H11.161V100.445z"/>
			<path d="M0.048 126.484H61.34c0 0-1.121-2.564-0.082-3.605c1.043-1.041 3.154-0.988 3.154-0.988L34.85 92.3 c-0.114-0.115-0.192-0.277-0.192-0.453c-0.002-0.352 0.283-0.637 0.637-0.639l10.978-0.045l10.975 0.1 c7.316 0.2 14.6 0.4 21.9 0.75c3.656 0.1 7.3 0.4 11 0.6c3.654 0.2 7.3 0.5 10.9 0.7 c7.299 0.5 14.6 1.2 21.9 1.844l10.918 1.102l10.908 1.223c7.26 0.9 14.5 1.8 21.8 2.8 c3.629 0.5 7.2 1 10.9 1.565c3.621 0.5 7.2 1.1 10.8 1.677c7.229 1.1 14.4 2.4 21.6 3.7 c7.197 1.3 14.4 2.7 21.6 4.137l10.742 2.248l10.713 2.379c7.131 1.6 14.2 3.3 21.3 5.2 c7.088 1.8 14.2 3.7 21.2 5.741c7.036 2 14 4.2 21 6.438l10.395 3.5 c3.433 1.3 6.9 2.5 10.3 3.811c3.411 1.3 6.8 2.6 10.2 4.113c3.396 1.4 6.7 2.9 10 4.5 c6.605 3.2 13.1 6.6 19.3 10.584c0.172 0.1 0.3 0.3 0.3 0.543c-0.002 0.354-0.289 0.637-0.643 0.635h-153.83 c-0.354 0-0.641-0.285-0.641-0.641v-34.291c0-0.102 0.025-0.211 0.076-0.305c0.168-0.312 0.557-0.426 0.867-0.26l0.006 0 c2.514 1.6 5 3.2 7.4 4.795c2.453 1.6 4.9 3.3 7.2 5.166c1.155 0.9 2.3 1.9 3.3 3 c0.531 0.5 1 1.1 1.5 1.724c0.467 0.6 0.9 1.3 1.3 2.016c0.4 0.7 0.6 1.6 0.6 2.6 c-0.086 0.469-0.094 1.021-0.34 1.455l-0.318 0.695c-0.127 0.209-0.281 0.389-0.424 0.594c-0.283 0.432-0.617 0.736-0.959 1.1 c-0.346 0.34-0.689 0.613-1.049 0.875c-0.727 0.574-1.436 0.979-2.184 1.516c-0.504 0.361-1.131 0.562-1.795 0.5 c-1.504-0.106-2.637-1.412-2.529-2.916c0.104-1.504 1.412-2.64 2.916-2.531h0.021c0.631 0 1.4 0.1 1.938-0.021 c0.311-0.039 0.635-0.073 0.875-0.182c0.273-0.088 0.563-0.174 0.762-0.311c0.516-0.232 0.742-0.602 0.986-1.047 c0.111-0.484 0.18-1.086-0.035-1.707c-0.162-0.623-0.473-1.248-0.846-1.838c-0.361-0.596-0.797-1.16-1.267-1.699 c-0.93-1.09-2.146-2.129-3.244-3.084c-2.186-1.922-4.365-3.521-6.828-5.109c-0.836-0.537-2.547-1.605-2.547-1.605 s0.48 2.244-1.014 3.207c-1.496 0.962-3.15 0.429-3.15 0.429v26.651h150.932c-5.541-3.45-11.34-6.489-17.232-9.321 c-3.314-1.521-6.615-3.068-9.996-4.447c-3.344-1.453-6.75-2.769-10.147-4.094c-3.394-1.349-6.851-2.527-10.271-3.8l-10.367-3.532 c-6.946-2.254-13.926-4.406-20.944-6.424c-7.023-2.017-14.074-3.921-21.152-5.73c-7.077-1.807-14.182-3.506-21.303-5.145 l-10.699-2.378l-10.727-2.245c-7.164-1.435-14.338-2.837-21.529-4.132c-7.191-1.291-14.389-2.547-21.607-3.678 c-3.609-0.588-7.215-1.152-10.832-1.674c-3.615-0.531-7.225-1.096-10.848-1.566c-7.236-1.021-14.486-1.922-21.74-2.809 l-10.893-1.217l-10.904-1.102c-7.273-0.687-14.553-1.336-21.842-1.844c-3.643-0.273-7.285-0.533-10.934-0.728 c-3.646-0.211-7.293-0.459-10.943-0.599c-7.295-0.358-14.598-0.584-21.9-0.75l-10.957-0.135c0 0 1.7 2.7 0.6 4.2 c-1.096 1.547-3.928 1.896-3.928 1.896l28.096 28.096c0.115 0.1 0.2 0.3 0.2 0.453c0 0.354-0.287 0.644-0.643 0.6 H0.048c-0.353 0-0.641-0.287-0.641-0.644C-0.593 126.773-0.304 126.5 0 126.484z"/>
			<path d="M360.422 46.655c0.23-2.26 2.119-4.027 4.441-4.027c1.795 0 3.3 1.1 4 2.6 c-1.342 0.948-2.662 1.933-3.959 2.993C363.441 47.7 361.9 47.2 360.4 46.655z"/>
			<path d="M223.104 155.555c2.318 0.1 4.2 1.9 4.2 4.26h-4.213V155.555z"/>
		</g>
		<path d="M120.727 32.672c0.535-4.175-1.58-6.564-6.348-7.179l0.238-1.827l17.781 2.292c0.535 0.1 1.1 0.6 1.6 1.5 c0.563 0.9 0.9 1.4 1 1.383c3.412-1.782 6.76-2.463 10.049-2.038c15.496 2 22.5 8.6 21.1 19.901L163.3 69 c-0.541 4.2 1.6 6.6 6.3 7.175l-0.232 1.827l-27.863-3.588l0.238-1.825c4.271 0.5 6.672-1.262 7.211-5.432l2.76-21.416 c1.369-10.651-0.922-16.359-6.881-17.128c-3.066-0.397-6.232 0.322-9.494 2.146c-0.012 0.757-0.131 2.017-0.355 3.8 l-3.906 30.313c-0.537 4.2 1.3 6.5 5.6 7.083l-0.234 1.825l-27.859-3.59l0.236-1.825c4.766 0.6 7.418-1.163 7.955-5.334 L120.727 32.672z"/>
		<path d="M209.557 80.909c4.109-1.471 7.559-3.768 10.352-6.881l1.373 1.24c-2.947 3.28-6.648 5.742-11.104 7.4 c-3.828 1.418-8.701 1.631-14.605 0.643c-8.053-1.346-13.879-4.42-17.473-9.224c-3.59-4.803-4.736-11.098-3.438-18.881 c1.299-7.761 4.451-13.336 9.465-16.729c4.971-3.37 11.453-4.394 19.447-3.056c7.982 1.3 13.8 4.4 17.4 9.2 c3.637 4.8 4.8 11.1 3.5 18.895l-35.586-5.944c-1.508 9.018-1.98 14.603-1.426 16.754c1.033 4 3.8 6.4 8.4 7.2 C201.375 82.4 205.9 82.2 209.6 80.909z M210.553 59.321c1.338-7.992 1.719-13.031 1.152-15.105 c-1.064-3.9-3.875-6.229-8.434-6.991c-4.521-0.757-7.68 0.272-9.471 3.085c-1.828 2.882-3.361 8.03-4.6 15.444L210.553 59.321z"/>
		<path d="M269.762 94.635l-0.363 1.803l-27.53-5.545l0.362-1.805c2.896 0.5 4.502-0.102 4.826-1.707 c0.123-0.615 0.06-1.375-0.192-2.279l-3.279-11.862l-10.063 9.173c-1.063 0.959-1.666 1.805-1.813 2.5 c-0.26 1.3 0.9 2.2 3.6 2.758l0.293 0.059l-0.363 1.801L220.96 86.68l0.365-1.801c1.842 0.4 3.2 0.6 3.9 0.6 c1.498-0.018 3.621-1.287 6.377-3.809l11.41-10.438l-6.07-21.96c-0.549-1.964-1.387-3.573-2.514-4.835 c-0.699-0.779-1.99-1.36-3.881-1.739l0.363-1.804l16.781 3.38c2.02 0.5 3.7 3.1 5 7.796l2.928 10.665l8.85-8.293 c1.213-1.132 1.83-1.762 1.857-1.885c0.342-1.704-1.07-2.876-4.234-3.516l0.363-1.802l14.279 2.876l-0.361 1.8 c-1.875-0.377-3.531-0.373-4.965 0.018c-1.613 0.54-3.295 1.626-5.037 3.254l-10.193 9.532l6.398 23.2 C263.613 91.6 266 93.9 269.8 94.635z"/>
		<path d="M331.963 63.11l-1.664 13.325l-1.834-0.248c0.717-7.847-2.816-12.705-10.602-14.581l-2.775-0.669l-8.648 35.9 c-0.989 4.1 0.9 6.7 5.5 7.832l-0.43 1.791l-28.066-6.769l0.431-1.788c4.678 1.1 7.51-0.353 8.5-4.449l8.646-35.888 l-2.775-0.669c-7.784-1.876-13.145 0.842-16.079 8.149l-1.746-0.614l4.588-12.621L331.963 63.11z"/>
		<g>
			<path d="M113.736 62.588c0 0 1.246-9.184 2.492-18.369c0.313-2.295 0.623-4.592 0.916-6.744c0.146-1.076 0.287-2.117 0.42-3.104 c0.125-0.987 0.283-1.919 0.355-2.78c0.078-0.857-0.178-1.684-0.734-2.132c-0.529-0.467-1.133-0.668-1.613-0.809 c-0.486-0.142-0.879-0.214-1.146-0.255c-0.268-0.043-0.41-0.066-0.41-0.066s0.143 0 0.4 0.1 c0.27 0 0.7 0.1 1.2 0.239c0.484 0.1 1.1 0.3 1.6 0.796c0.576 0.4 0.9 1.3 0.8 2.2 c-0.061 0.873-0.207 1.801-0.316 2.791c-0.121 0.988-0.248 2.031-0.381 3.109c-0.262 2.156-0.543 4.456-0.822 6.8 c-1.123 9.201-2.246 18.401-2.246 18.401L113.736 62.588z"/>
			<polygon points="136.4,76.9 108,72.9 136.4,76.4"/>
			<polygon points="168.2,80.9 142.5,77.4 168.2,80.4"/>
			<path d="M145.518 23.679c0 0 1 0.2 2.8 0.466c0.9 0.1 2 0.4 3.2 0.693c1.252 0.2 2.6 0.8 4.1 1.2 c1.453 0.6 3 1.2 4.6 2.151l0.596 0.328l0.563 0.396c0.379 0.3 0.8 0.5 1.1 0.8 c0.402 0.3 0.7 0.6 1.1 0.925c0.35 0.3 0.7 0.6 1.1 0.999c1.363 1.4 2.5 3.1 3.3 5 c0.822 1.9 1.2 4 1.3 6.073c0.117 2.088-0.148 4.175-0.434 6.192c-0.27 2.026-0.533 4.021-0.789 6 c-0.512 3.86-0.99 7.464-1.4 10.552c-0.191 1.544-0.42 2.959-0.529 4.215c-0.004 0.314-0.051 0.624-0.02 0.9 c0.066 0.3 0.1 0.6 0.2 0.823c0.164 0.5 0.6 0.8 1 1.077c0.203 0.1 0.4 0.2 0.6 0.3 c0.188 0.1 0.4 0.1 0.5 0.175c0.334 0.1 0.6 0.2 0.9 0.215c0.479 0.1 0.7 0.1 0.7 0.1 s-0.256-0.044-0.736-0.127c-0.242-0.031-0.533-0.096-0.869-0.209c-0.168-0.054-0.355-0.096-0.543-0.171 c-0.182-0.089-0.375-0.186-0.58-0.285c-0.363-0.244-0.834-0.541-1.008-1.081c-0.127-0.248-0.121-0.548-0.189-0.836 c-0.033-0.294 0.01-0.602 0.014-0.917c0.098-1.265 0.318-2.676 0.498-4.223c0.387-3.092 0.838-6.698 1.32-10.562 c0.24-1.932 0.49-3.929 0.744-5.957c0.27-2.027 0.516-4.089 0.385-6.152c-0.125-2.054-0.506-4.113-1.328-5.973 c-0.816-1.851-1.93-3.532-3.277-4.915c-0.311-0.369-0.705-0.648-1.051-0.973c-0.365-0.299-0.682-0.654-1.08-0.899 c-0.381-0.265-0.76-0.525-1.133-0.783l-0.555-0.385l-0.59-0.319c-1.529-0.898-3.092-1.518-4.529-2.086 c-1.48-0.453-2.816-0.944-4.055-1.179c-1.225-0.279-2.283-0.554-3.189-0.664c-1.795-0.282-2.82-0.443-2.82-0.443L145.518 23.679z "/>
			<polygon points="112.2,20.2 132.8,23.1 112.1,20.7"/>
			<path d="M145.914 66.736c0 0 0.371-2.748 0.926-6.871c0.275-2.062 0.6-4.467 0.945-7.043c0.174-1.289 0.354-2.62 0.535-3.973 c0.176-1.353 0.381-2.729 0.537-4.101c0.172-1.378 0.285-2.755 0.318-4.113c0.01-1.357-0.014-2.704-0.254-3.977 c-0.229-1.266-0.609-2.486-1.305-3.443c-0.672-0.978-1.725-1.553-2.744-1.699c-0.506-0.094-1.012-0.088-1.482-0.135 c-0.465-0.015-0.92 0.04-1.34 0.055c-0.834 0.118-1.555 0.262-2.133 0.454c-0.59 0.144-1.018 0.361-1.324 0.5 c-0.303 0.118-0.465 0.182-0.465 0.182s0.16-0.065 0.463-0.188c0.305-0.11 0.73-0.334 1.32-0.485 c0.576-0.198 1.299-0.351 2.137-0.479c0.424-0.019 0.867-0.078 1.346-0.068c0.475 0 1 0 1.5 0.1 c1.033 0.1 2.1 0.7 2.8 1.707c0.721 1 1.1 2.2 1.4 3.484c0.256 1.3 0.3 2.6 0.3 4 c-0.018 1.37-0.115 2.762-0.271 4.137c-0.145 1.385-0.332 2.755-0.492 4.112c-0.168 1.354-0.33 2.688-0.49 4 c-0.316 2.581-0.613 4.989-0.867 7.054c-0.508 4.129-0.846 6.882-0.846 6.882L145.914 66.736z"/>
		</g>
		<g>
			<path d="M182.393 35.882c0 0 0.223-0.136 0.641-0.393c0.412-0.26 1.02-0.642 1.861-1.042c0.412-0.218 0.873-0.442 1.393-0.638 c0.516-0.208 1.064-0.456 1.682-0.632c0.611-0.195 1.258-0.418 1.963-0.563c0.352-0.083 0.709-0.168 1.078-0.255 c0.371-0.063 0.752-0.125 1.141-0.189c1.559-0.27 3.258-0.359 5.074-0.379c0.896 0 1.8 0.1 2.8 0.1 c0.941 0 1.9 0.2 2.9 0.334c0.98 0.1 2 0.3 2.9 0.518c0.494 0.1 1 0.2 1.5 0.3 c0.49 0.1 1 0.3 1.5 0.422c0.496 0.1 1 0.3 1.5 0.433l1.463 0.55c0.484 0.2 1 0.3 1.5 0.6 l1.416 0.682c0.967 0.4 1.8 1 2.7 1.55c0.887 0.5 1.7 1.2 2.5 1.844c1.521 1.4 2.9 2.9 4 4.5 c0.268 0.4 0.5 0.8 0.8 1.215c0.246 0.4 0.4 0.9 0.7 1.272c0.207 0.4 0.4 0.8 0.6 1.3 c0.158 0.4 0.3 0.9 0.5 1.284c0.143 0.4 0.3 0.8 0.4 1.256c0.102 0.4 0.2 0.8 0.3 1.3 c0.094 0.4 0.2 0.8 0.3 1.212c0.055 0.4 0.1 0.8 0.2 1.189c0.273 1.5 0.2 3 0.3 4.3 c-0.074 1.27-0.1 2.381-0.193 3.288c-0.24 1.81-0.379 2.845-0.379 2.845s0.131-1.035 0.357-2.847 c0.086-0.908 0.104-2.019 0.168-3.287c-0.082-1.267-0.043-2.708-0.328-4.25c-0.055-0.386-0.111-0.781-0.17-1.184 c-0.074-0.398-0.193-0.797-0.289-1.206c-0.104-0.408-0.207-0.823-0.314-1.245c-0.102-0.422-0.293-0.824-0.438-1.247 c-0.156-0.418-0.316-0.843-0.477-1.273c-0.182-0.419-0.412-0.823-0.619-1.243c-0.221-0.413-0.416-0.847-0.662-1.257 c-0.266-0.398-0.537-0.802-0.809-1.207c-0.504-0.848-1.195-1.55-1.836-2.325c-0.65-0.764-1.451-1.399-2.18-2.116 c-0.83-0.596-1.615-1.273-2.5-1.809c-0.898-0.513-1.752-1.115-2.715-1.518l-1.408-0.665c-0.467-0.226-0.969-0.37-1.449-0.56 l-1.455-0.534c-0.494-0.14-0.988-0.278-1.479-0.416c-0.492-0.138-0.982-0.273-1.469-0.408c-0.5-0.101-0.996-0.2-1.488-0.3 c-0.992-0.205-1.955-0.399-2.924-0.491c-0.969-0.101-1.906-0.281-2.85-0.311c-0.939-0.039-1.861-0.078-2.756-0.115 c-1.766 0.033-3.465 0.134-4.99 0.413c-0.383 0.065-0.758 0.13-1.123 0.193c-0.361 0.088-0.713 0.175-1.057 0.3 c-0.693 0.147-1.326 0.371-1.924 0.568c-0.607 0.176-1.143 0.424-1.646 0.631c-0.51 0.196-0.955 0.418-1.35 0.6 c-0.807 0.388-1.414 0.775-1.826 1.04c-0.414 0.259-0.635 0.397-0.635 0.397L182.393 35.882z"/>
			<path d="M223.584 77.356c0 0-0.6 0.583-1.65 1.603c-0.262 0.255-0.553 0.537-0.869 0.845c-0.334 0.29-0.736 0.566-1.143 0.9 c-0.844 0.592-1.707 1.398-2.838 1.969c-1.104 0.613-2.244 1.384-3.605 1.888c-0.666 0.287-1.348 0.578-2.045 0.9 c-0.725 0.271-1.459 0.461-2.209 0.703c-0.779 0.149-1.566 0.336-2.369 0.463c-0.807 0.08-1.621 0.211-2.447 0.2 c-0.828 0.013-1.656 0.088-2.5 0.045c-0.832-0.041-1.668-0.084-2.504-0.127c-0.836-0.021-1.666-0.198-2.496-0.289 c-0.822-0.127-1.666-0.184-2.467-0.377c-0.807-0.168-1.605-0.334-2.395-0.498c-0.785-0.198-1.551-0.437-2.309-0.646 c-0.764-0.189-1.479-0.486-2.189-0.748c-0.705-0.271-1.41-0.504-2.047-0.842c-0.648-0.314-1.279-0.619-1.889-0.914 c-0.58-0.354-1.139-0.691-1.676-1.021c-0.551-0.303-1.018-0.687-1.475-1.032c-0.451-0.353-0.896-0.664-1.283-0.997 c-0.73-0.712-1.402-1.3-1.895-1.84c-0.938-1.125-1.473-1.768-1.473-1.768s0.541 0.6 1.5 1.8 c0.498 0.5 1.2 1.1 1.9 1.82c0.389 0.3 0.8 0.6 1.3 0.981c0.459 0.3 0.9 0.7 1.5 1 c0.537 0.3 1.1 0.7 1.7 0.998c0.611 0.3 1.2 0.6 1.9 0.895c0.639 0.3 1.3 0.6 2 0.8 c0.709 0.3 1.4 0.5 2.2 0.727c0.756 0.2 1.5 0.4 2.3 0.621c0.791 0.2 1.6 0.3 2.4 0.5 c0.807 0.2 1.6 0.2 2.4 0.354c0.828 0.1 1.6 0.3 2.5 0.262c0.836 0 1.7 0.1 2.5 0.1 c0.82 0 1.652-0.051 2.469-0.067c0.818-0.047 1.621-0.185 2.418-0.271c0.789-0.133 1.555-0.319 2.314-0.475 c0.74-0.244 1.5-0.451 2.184-0.717c0.688-0.303 1.359-0.598 2.014-0.887c1.342-0.51 2.461-1.283 3.545-1.896 c1.113-0.576 1.943-1.371 2.762-1.957c0.396-0.312 0.783-0.579 1.111-0.869c0.314-0.311 0.602-0.596 0.861-0.853 c1.041-1.03 1.635-1.619 1.635-1.619L223.584 77.356z"/>
			<path d="M191.51 60.896c0 0-0.1 0.693-0.273 1.906c-0.086 0.606-0.189 1.343-0.311 2.188c-0.117 0.845-0.273 1.798-0.35 2.8 c-0.07 1.04-0.254 2.169-0.256 3.361c0.016 0.589-0.072 1.2 0 1.82c0.035 0.3 0.1 0.6 0.2 0.9 c0.109 0.3 0.2 0.6 0.3 0.907c0.494 1.2 1.4 2.2 2.6 2.793c1.211 0.6 2.6 0.9 4 1.1 c0.693 0.1 1.4 0.2 2.1 0.271c0.695 0 1.4 0.1 2.1 0.11c1.365 0.1 2.73-0.039 4.02-0.195 c1.283-0.234 2.531-0.498 3.623-0.997c0.555-0.233 1.096-0.459 1.617-0.677c0.529-0.205 0.975-0.529 1.439-0.771 c0.453-0.26 0.891-0.508 1.305-0.745c0.383-0.286 0.746-0.559 1.086-0.814c0.342-0.257 0.662-0.495 0.957-0.717 c0.295-0.221 0.516-0.482 0.742-0.688c0.879-0.854 1.381-1.343 1.381-1.343s-0.496 0.494-1.367 1.4 c-0.223 0.207-0.443 0.473-0.736 0.697c-0.291 0.225-0.609 0.468-0.947 0.729c-0.34 0.26-0.701 0.537-1.08 0.8 c-0.414 0.243-0.85 0.498-1.305 0.763c-0.463 0.249-0.91 0.582-1.438 0.792c-0.52 0.224-1.057 0.455-1.609 0.7 c-1.098 0.518-2.352 0.797-3.645 1.047c-1.313 0.173-2.66 0.299-4.049 0.242c-0.693-0.028-1.391-0.058-2.092-0.088 c-0.695-0.065-1.387-0.166-2.082-0.248c-1.383-0.128-2.814-0.429-4.068-1.053c-1.268-0.62-2.283-1.683-2.828-2.933 c-0.174-0.302-0.232-0.617-0.346-0.921c-0.125-0.294-0.166-0.648-0.203-0.965c-0.111-0.654-0.027-1.266-0.051-1.877 c-0.012-1.217 0.16-2.347 0.223-3.4c0.064-1.057 0.209-2.008 0.316-2.854c0.111-0.846 0.207-1.583 0.289-2.19 c0.158-1.215 0.248-1.909 0.248-1.909L191.51 60.896z"/>
			<path d="M196.428 41.96c0 0-0.092 0.166-0.254 0.457c-0.082 0.146-0.18 0.322-0.293 0.524c-0.105 0.207-0.264 0.425-0.359 0.7 c-0.217 0.521-0.471 1.128-0.74 1.778c-0.15 0.321-0.242 0.68-0.359 1.034c-0.113 0.355-0.229 0.718-0.344 1.1 c-0.225 0.728-0.484 1.444-0.633 2.144c-0.17 0.693-0.328 1.34-0.463 1.896c-0.273 1.11-0.455 1.851-0.455 1.9 s0.152-0.747 0.377-1.868c0.113-0.561 0.246-1.215 0.389-1.916c0.119-0.707 0.35-1.437 0.545-2.176 c0.102-0.368 0.201-0.738 0.301-1.101c0.104-0.362 0.182-0.726 0.32-1.061c0.252-0.679 0.486-1.313 0.688-1.856 c0.092-0.278 0.238-0.496 0.334-0.708c0.105-0.207 0.195-0.389 0.271-0.537c0.15-0.297 0.236-0.468 0.236-0.468L196.428 41.96z"/>
		</g>
		<path d="M228.76 37.286c0 0 9.6 2 19.1 3.976c1.213 0.2 2.4 0.8 3.3 1.613c0.912 0.8 1.6 1.8 2.2 2.8 c1.121 2 1.7 4.1 2.2 5.852c0.947 3.5 1.6 5.9 1.6 5.894s-0.66-2.349-1.652-5.873 c-0.498-1.756-1.131-3.815-2.268-5.794c-0.57-0.982-1.277-1.938-2.176-2.716c-0.902-0.772-2.01-1.308-3.195-1.522 c-9.584-1.864-19.166-3.729-19.166-3.729L228.76 37.286z"/>
		<path d="M239.588 70.375c0 0-1.783-6.69-3.568-13.381c-0.445-1.673-0.893-3.346-1.311-4.913c-0.213-0.782-0.4-1.549-0.613-2.255 c-0.207-0.718-0.473-1.363-0.758-1.942c-0.162-0.278-0.318-0.547-0.467-0.801c-0.178-0.235-0.346-0.458-0.506-0.667 c-0.373-0.359-0.852-0.462-1.191-0.613c-0.732-0.193-1.15-0.303-1.15-0.303s0.42 0.1 1.2 0.3 c0.344 0.1 0.8 0.2 1.2 0.604c0.164 0.2 0.3 0.4 0.5 0.662c0.154 0.3 0.3 0.5 0.5 0.8 c0.301 0.6 0.6 1.2 0.8 1.942c0.23 0.7 0.4 1.5 0.7 2.249c0.447 1.6 0.9 3.2 1.4 4.9 c1.904 6.7 3.8 13.3 3.8 13.315L239.588 70.375z"/>
		<path fill="none" stroke="#000000" stroke-width="0.5" d="M217.596 88.9"/>
		<polygon points="242.2,78.7 235.2,84.7 241.9,78.3"/>
		<polygon points="271.6,100 238.5,93.1 271.7,99.6"/>
		<path d="M259.635 65.563c0 0 1.9 7.1 3.8 14.297c0.479 1.8 1 3.6 1.4 5.25c0.231 0.8 0.4 1.7 0.7 2.4 c0.063 0.2 0.1 0.4 0.2 0.56c0.08 0.2 0.2 0.3 0.2 0.512c0.137 0.3 0.4 0.6 0.5 0.9 c0.188 0.3 0.4 0.5 0.6 0.752c0.244 0.2 0.5 0.4 0.7 0.559c0.241 0.1 0.5 0.3 0.7 0.4 c0.225 0.1 0.4 0.2 0.6 0.254c0.369 0.2 0.7 0.2 0.9 0.273c0.209 0.1 0.3 0.1 0.3 0.1 s-0.113-0.027-0.322-0.08c-0.205-0.066-0.528-0.098-0.901-0.26c-0.189-0.074-0.398-0.156-0.625-0.244 c-0.216-0.119-0.445-0.248-0.691-0.387c-0.23-0.162-0.463-0.355-0.713-0.551c-0.207-0.24-0.463-0.465-0.66-0.752 c-0.189-0.293-0.418-0.58-0.561-0.933c-0.084-0.17-0.166-0.344-0.25-0.521c-0.063-0.182-0.127-0.366-0.191-0.555 c-0.262-0.758-0.461-1.57-0.707-2.402c-0.477-1.668-0.984-3.444-1.49-5.224c-2.029-7.115-4.059-14.23-4.059-14.23L259.635 65.563z "/>
		<polygon points="263.4,44.3 277.3,47.3 263.3,44.8"/>
		<path d="M284.621 94.867c0 0 0.2 0 0.4 0.088c0.293 0.1 0.7 0.2 1.2 0.174c0.26 0 0.5 0 0.9 0 c0.299-0.041 0.633-0.094 0.932-0.27c0.609-0.324 1.018-1.096 1.244-1.992c0.914-3.689 2.137-8.609 3.357-13.529 c2.436-9.845 4.873-19.688 4.873-19.688s-2.314 9.873-4.629 19.747c-1.162 4.937-2.322 9.876-3.193 13.6 c-0.225 0.929-0.656 1.847-1.432 2.279c-0.369 0.221-0.769 0.291-1.127 0.34c-0.322 0.025-0.654 0.035-0.945 0 c-0.59-0.02-1.012-0.11-1.303-0.166c-0.293-0.055-0.449-0.082-0.449-0.082L284.621 94.867z"/>
		<polygon points="310.8,109.5 282.5,102.4 310.9,109"/>
		<path d="M309.594 100.033c0 0 0.1 0.2 0.4 0.441c0.105 0.1 0.3 0.2 0.4 0.348c0.158 0.1 0.3 0.3 0.6 0.3 c0.202 0.1 0.4 0.2 0.6 0.305c0.203 0.1 0.4 0.1 0.6 0.205c0.325 0.1 0.5 0.2 0.5 0.2 s-0.228-0.049-0.566-0.125c-0.17-0.039-0.371-0.084-0.584-0.131c-0.207-0.074-0.43-0.15-0.65-0.229 c-0.227-0.064-0.443-0.174-0.645-0.297c-0.193-0.119-0.422-0.207-0.535-0.332c-0.26-0.232-0.432-0.39-0.432-0.39L309.594 100.033z "/>
		<path d="M325.367 75.909c0 0 0.02-0.248 0.055-0.684c0.016-0.219 0.045-0.485 0.041-0.782c-0.004-0.298 0.023-0.635-0.002-1.002 c-0.029-0.368-0.027-0.771-0.102-1.187c-0.047-0.421-0.14-0.856-0.256-1.301c-0.129-0.44-0.267-0.9-0.48-1.332 c-0.191-0.445-0.457-0.859-0.727-1.27c-0.299-0.392-0.611-0.771-0.972-1.102c-0.354-0.331-0.725-0.642-1.112-0.896 c-0.381-0.268-0.771-0.491-1.152-0.685c-0.369-0.217-0.756-0.347-1.094-0.506c-0.695-0.272-1.287-0.478-1.709-0.59 c-0.42-0.12-0.66-0.189-0.66-0.189s0.242 0.1 0.7 0.17c0.426 0.1 1 0.3 1.7 0.5 c0.345 0.1 0.7 0.3 1.1 0.476c0.392 0.2 0.8 0.4 1.2 0.658c0.401 0.2 0.8 0.6 1.2 0.9 c0.377 0.3 0.7 0.7 1 1.103c0.291 0.4 0.6 0.8 0.8 1.291c0.238 0.4 0.4 0.9 0.5 1.4 c0.138 0.5 0.2 0.9 0.3 1.34c0.092 0.4 0.1 0.8 0.1 1.22c0.039 0.4 0 0.7 0 1 c0.012 0.314-0.01 0.576-0.018 0.796c-0.021 0.436-0.031 0.687-0.031 0.687L325.367 75.909z"/>
		<polygon points="286.1,48.9 332.3,60.3 286,49.4"/>
		<polygon points="277.5,63.3 282.3,51 278,63.5"/>
		<g>
			<path d="M-301.75 56.331c7.333-1.769 13.4-1.706 18.2 0.191c5.771 2.3 9.3 6.1 10.6 11.4 c1.285 5.33-0.189 10.039-4.424 14.126c-3.379 3.25-8.822 5.781-16.326 7.588l-8.918 2.152l1.049 4.3 c0.987 4.1 3.8 5.6 8.5 4.449l0.432 1.789l-28.066 6.768l-0.432-1.791c4.678-1.127 6.523-3.738 5.537-7.834l-7.36-30.533 c-1.03-3.529-3.799-4.748-8.306-3.662l-0.433-1.788L-301.75 56.331z M-303.064 90.02l8.917-2.151 c7.017-1.691 9.4-7.201 7.151-16.532c-2.531-10.504-7.305-14.905-14.322-13.218l-8.917 2.152L-303.064 90.02z"/>
			<path d="M-245.202 44.204c7.403-1.436 13.459-1.098 18.2 1.014c5.659 2.5 8.8 5.6 9.5 9.2 c1.2 6.186-2.25 11.864-10.345 17.033c2.26-0.323 3.934-0.153 5 0.518l10.524 10.25c0.833 0.8 2.8 0.9 5.8 0.3 l0.346 1.789c-3.325 1.207-6.629 2.129-9.914 2.766c-5.891 1.143-10.906-0.729-15.043-5.619l-6.403-7.564l-7.14 1.4 l1.535 7.914c0.801 4.1 3.6 5.7 8.3 4.824l0.351 1.812l-28.335 5.491l-0.351-1.809c4.723-0.916 6.684-3.439 5.883-7.572 l-5.976-30.824c-0.871-3.57-3.581-4.912-8.131-4.03l-0.351-1.81L-245.202 44.204z M-245.027 73.548l5.313-1.029 c7.083-1.373 9.746-6.598 7.987-15.673c-1.667-8.597-6.042-12.206-13.125-10.833l-5.312 1.029L-245.027 73.548z"/>
			<path d="M-167.22 74.374c3.426-2.691 5.968-5.954 7.631-9.786l1.693 0.739c-1.756 4.037-4.485 7.539-8.183 10.5 c-3.182 2.553-7.726 4.294-13.631 5.229c-8.057 1.269-14.544 0.193-19.465-3.224c-4.919-3.416-7.993-9.013-9.219-16.798 c-1.225-7.76 0.002-14.039 3.679-18.834c3.641-4.767 9.461-7.777 17.456-9.039c7.981-1.26 14.445-0.183 19.4 3.2 c4.973 3.4 8.1 9 9.3 16.789l-35.585 5.61c1.422 9 2.7 14.5 3.9 16.322c2.244 3.5 5.7 4.8 10.2 4.1 C-174.498 78.37-170.239 76.75-167.22 74.374z M-173.095 53.609c-1.262-7.995-2.488-12.885-3.682-14.671 c-2.238-3.358-5.637-4.68-10.197-3.959c-4.522 0.712-7.188 2.686-7.994 5.913c-0.822 3.31-0.647 8.7 0.5 16.1 L-173.095 53.609z"/>
			<g>
				<path d="M-335.226 61.202c0 0 7.141-1.705 17.852-4.262c2.678-0.641 5.579-1.333 8.647-2.065 c3.071-0.709 6.292-1.574 9.684-2.188c3.398-0.591 7.008-0.85 10.607-0.409c3.623 0.4 7.2 1.7 10.3 3.7 c3.139 2 5.6 4.9 7 8.261c1.388 3.3 1.9 7 1.2 10.429c-0.67 3.41-2.489 6.364-4.653 8.6 c-2.144 2.334-4.708 3.971-7.159 5.209c-2.464 1.23-4.842 2.115-6.984 2.756c-1.065 0.346-2.075 0.619-3.015 0.9 c-0.936 0.25-1.798 0.465-2.581 0.646c-3.124 0.748-4.909 1.176-4.909 1.176s1.783-0.437 4.904-1.194 c0.781-0.187 1.643-0.404 2.577-0.656c0.938-0.236 1.947-0.516 3.009-0.865c2.138-0.648 4.509-1.541 6.962-2.781 c2.441-1.244 4.985-2.887 7.11-5.219c2.145-2.281 3.935-5.218 4.583-8.595c0.694-3.362 0.121-7.021-1.268-10.32 c-1.407-3.301-3.868-6.209-6.976-8.129c-3.081-1.947-6.62-3.193-10.18-3.584c-3.583-0.422-7.144-0.149-10.514 0.4 c-3.378 0.626-6.587 1.504-9.659 2.227c-3.065 0.746-5.963 1.451-8.638 2.102c-10.7 2.603-17.833 4.339-17.833 4.3 L-335.226 61.202z"/>
				<path d="M-289.151 104.75l-33.646 8.01l-0.149 0.035l-0.035-0.148l-1.747-7.354l-0.031-0.129l0.127-0.031l2.828-0.674 c0.938-0.236 1.865-0.527 2.621-1.1c0.37-0.285 0.66-0.666 0.786-1.111c0.131-0.441 0.108-0.924 0.027-1.393 c-0.184-0.938-0.438-1.885-0.653-2.828l-2.696-11.326l-2.696-11.327l-1.348-5.663c-0.141-0.459-0.328-0.92-0.669-1.264 c-0.34-0.345-0.819-0.527-1.298-0.576c-0.965-0.13-1.937 0.067-2.883 0.25c0.947-0.188 1.914-0.391 2.885-0.267 c0.481 0 1 0.2 1.3 0.575c0.349 0.3 0.5 0.8 0.7 1.273l1.379 5.656l2.76 11.31l2.76 11.3 c0.222 0.9 0.5 1.9 0.7 2.84c0.086 0.5 0.1 0.998-0.024 1.49c-0.136 0.494-0.461 0.924-0.856 1.2 c-0.795 0.61-1.769 0.918-2.699 1.157l-2.831 0.691l0.097-0.158l1.789 7.345l-0.185-0.113l33.601-8.199L-289.151 104.75z"/>
				<polygon points="-301.2,86.6 -306.8,62.4 -300.7,86.5"/>
			</g>
			<g>
				<path d="M-205.125 87.318l-4.644 1.457c-0.765 0.27-1.581 0.391-2.369 0.592l-2.382 0.551c-0.788 0.209-1.609 0.322-2.406 0.4 c-0.802 0.135-1.628 0.105-2.461 0.154c-0.809-0.074-1.619-0.043-2.429-0.205c-0.812-0.137-1.623-0.268-2.396-0.541 c-0.796-0.199-1.541-0.541-2.288-0.871c-0.755-0.314-1.427-0.791-2.144-1.18c-0.647-0.496-1.34-0.934-1.945-1.479 c-0.592-0.56-1.239-1.063-1.763-1.689c-0.55-0.6-1.104-1.195-1.613-1.826l-1.562-1.867l-3.124-3.733l0.016 0.005l-2.692 0.5 l2.686-0.538l0.01-0.002l0.006 0.007l3.167 3.696l1.584 1.847c0.518 0.6 1.1 1.2 1.6 1.8 c0.528 0.6 1.2 1.1 1.8 1.656c0.607 0.5 1.3 1 1.9 1.441c0.714 0.4 1.4 0.8 2.1 1.1 c0.741 0.3 1.5 0.6 2.3 0.83c0.766 0.3 1.6 0.4 2.4 0.504c0.785 0.1 1.6 0.1 2.4 0.2 c0.784-0.061 1.592-0.037 2.391-0.18c0.811-0.117 1.596-0.234 2.376-0.453l2.354-0.572c0.78-0.209 1.578-0.334 2.343-0.615 l4.626-1.514L-205.125 87.318z"/>
				<path d="M-275.163 46.848c0 0 5.194-0.992 12.985-2.479c3.896-0.744 8.441-1.611 13.311-2.541 c1.223-0.221 2.444-0.492 3.72-0.683c1.262-0.186 2.539-0.373 3.826-0.563c1.302-0.097 2.622-0.144 3.942-0.217 c0.661-0.066 1.3 0 2 0.044c0.659 0.1 1.3 0 2 0.136c2.653 0.3 5.2 1 7.6 2 c2.352 1.1 4.6 2.4 6.5 4.005c1.9 1.6 3.4 3.6 4.2 5.735c0.151 0.6 0.3 1.1 0.4 1.6 c0.068 0.5 0.1 1.1 0.2 1.62c0.097 0.5 0 1.1 0 1.577c-0.022 0.5 0 1.029-0.096 1.5 c-0.081 0.491-0.161 0.972-0.238 1.439c-0.098 0.465-0.272 0.9-0.398 1.333c-0.225 0.884-0.659 1.633-0.993 2.4 c-0.761 1.419-1.571 2.579-2.332 3.451c-0.7 0.925-1.397 1.519-1.824 1.968c-0.438 0.438-0.672 0.671-0.672 0.7 s0.233-0.235 0.668-0.675c0.424-0.452 1.117-1.05 1.811-1.978c0.755-0.876 1.557-2.038 2.307-3.459 c0.329-0.733 0.757-1.482 0.976-2.362c0.124-0.434 0.294-0.867 0.389-1.33c0.074-0.467 0.15-0.945 0.228-1.434 c0.111-0.486 0.067-0.994 0.086-1.506c-0.002-0.514 0.047-1.037-0.054-1.566c-0.068-0.529-0.137-1.066-0.208-1.613 c-0.148-0.528-0.3-1.065-0.453-1.609c-0.769-2.137-2.285-4.081-4.179-5.653c-1.899-1.584-4.124-2.854-6.491-3.943 c-2.386-0.991-4.958-1.672-7.573-1.93c-0.647-0.108-1.317-0.077-1.975-0.122c-0.664-0.007-1.314-0.104-1.968-0.032 c-1.308 0.081-2.612 0.134-3.903 0.236c-1.287 0.197-2.563 0.394-3.823 0.587c-1.247 0.191-2.486 0.475-3.702 0.7 c-4.864 0.958-9.404 1.853-13.295 2.618c-7.783 1.533-12.971 2.555-12.971 2.555L-275.163 46.848z"/>
				<path d="M-263.789 90.539c0 0 0.167-0.035 0.48-0.102c0.317-0.068 0.746-0.181 1.291-0.383c0.524-0.212 1.185-0.533 1.563-1.181 c0.389-0.649 0.279-1.586 0.073-2.58c-0.757-4.026-1.766-9.397-2.775-14.766c-1.009-5.37-2.018-10.739-2.774-14.767 c-0.104-0.505-0.162-0.987-0.31-1.432c-0.147-0.438-0.389-0.819-0.718-1.068c-0.689-0.471-1.466-0.469-2.048-0.489 c-0.598 0.019-1.065 0.062-1.38 0.122c-0.316 0.046-0.485 0.07-0.485 0.07s0.169-0.026 0.485-0.076 c0.314-0.064 0.782-0.112 1.379-0.138c0.585 0 1.363-0.001 2.1 0.474c0.34 0.3 0.6 0.6 0.7 1.1 c0.153 0.4 0.2 0.9 0.3 1.435c0.802 4 1.9 9.4 2.9 14.733c1.071 5.4 2.1 10.7 2.9 14.7 c0.209 1 0.4 2.043-0.091 2.882c-0.473 0.817-1.226 1.168-1.78 1.403c-0.572 0.224-1.055 0.351-1.363 0.4 c-0.312 0.07-0.479 0.106-0.479 0.106L-263.789 90.539z"/>
				<polygon points="-231.1,92.4 -265.1,98.7 -231.2,91.9"/>
				<path d="M-240.315 69.47c0 0 0.116-0.026 0.335-0.075c0.214-0.057 0.553-0.104 0.929-0.237c0.389-0.107 0.851-0.285 1.363-0.526 c0.492-0.27 1.056-0.585 1.537-1.083c0.491-0.481 0.947-1.089 1.235-1.845c0.191-0.374 0.256-0.767 0.392-1.164 c0.066-0.418 0.189-0.837 0.213-1.279c0.107-0.878 0.106-1.799 0.049-2.729c-0.054-0.933-0.182-1.877-0.344-2.814 c-0.337-1.875-0.836-3.726-1.644-5.318c-0.433-0.773-0.886-1.517-1.476-2.084c-0.574-0.577-1.223-1.016-1.882-1.283 c-1.334-0.546-2.575-0.419-3.398-0.384c-0.416 0.031-0.739 0.097-0.961 0.122c-0.222 0.031-0.34 0.049-0.34 0 s0.118-0.02 0.339-0.055c0.222-0.028 0.545-0.1 0.961-0.138c0.82-0.047 2.065-0.198 3.4 0.3 c0.674 0.3 1.3 0.7 1.9 1.274c0.61 0.6 1.1 1.3 1.5 2.092c0.845 1.6 1.4 3.5 1.8 5.3 c0.178 0.9 0.3 1.9 0.4 2.839c0.074 0.9 0.1 1.884-0.004 2.787c-0.019 0.455-0.137 0.893-0.2 1.3 c-0.132 0.42-0.214 0.87-0.394 1.234c-0.287 0.789-0.771 1.467-1.291 1.991c-0.512 0.546-1.108 0.894-1.628 1.2 c-0.537 0.264-1.021 0.459-1.438 0.583c-0.413 0.149-0.729 0.196-0.947 0.258c-0.217 0.052-0.334 0.08-0.334 0.1 L-240.315 69.47z"/>
			</g>
			<g>
				<path d="M-181.131 29.544c0.847 0 1.7 0 2.5 0.114c0.851 0.1 1.7 0.1 2.5 0.3 c0.42 0.1 0.8 0.1 1.3 0.225l1.243 0.308c0.834 0.2 1.6 0.5 2.4 0.769c0.78 0.3 1.6 0.6 2.3 1.1 c0.376 0.2 0.8 0.4 1.1 0.602l1.083 0.686c0.748 0.5 1.4 1 2 1.539c0.675 0.5 1.2 1.2 1.9 1.8 c0.622 0.6 1.1 1.3 1.6 1.965c0.553 0.7 0.9 1.4 1.4 2.13l0.34 0.541l0.283 0.573l0.563 1.1 c0.409 0.7 0.7 1.6 1 2.357c0.145 0.4 0.3 0.8 0.4 1.196l0.341 1.229c0.227 0.8 0.5 1.6 0.6 2.5 c0.156 0.8 0.3 1.7 0.5 2.503l0.387 2.51l0.018 0.116l-0.116 0.02l-35.587 5.489l35.55-5.723l-0.098 0.135l-0.403-2.508 c-0.142-0.834-0.324-1.656-0.484-2.486c-0.137-0.834-0.391-1.639-0.621-2.45l-0.346-1.217c-0.132-0.399-0.297-0.788-0.443-1.183 c-0.31-0.782-0.569-1.589-0.979-2.326l-0.564-1.13l-0.283-0.563l-0.339-0.532c-0.475-0.692-0.856-1.452-1.406-2.09 c-0.546-0.636-1.014-1.348-1.624-1.921c-0.616-0.567-1.149-1.21-1.83-1.718c-0.676-0.496-1.324-1.086-2.023-1.506l-1.067-0.667 c-0.364-0.206-0.744-0.388-1.115-0.583c-0.731-0.414-1.534-0.678-2.3-1.017c-0.801-0.247-1.583-0.56-2.405-0.738l-1.224-0.294 c-0.41-0.086-0.827-0.143-1.241-0.214c-0.826-0.162-1.662-0.211-2.494-0.295c-0.833-0.075-1.689-0.062-2.532-0.097 L-181.131 29.544z"/>
				<path d="M-155.052 66.582c0 0-0.175 0.338-0.502 0.973c-0.164 0.317-0.366 0.709-0.603 1.2 c-0.255 0.453-0.466 1.011-0.88 1.553c-0.789 1.092-1.606 2.535-2.917 3.877c-1.18 1.462-2.782 2.834-4.548 4.3 c-1.813 1.393-4.069 2.591-6.528 3.5c-2.47 0.918-5.175 1.596-8.006 2.035c-2.832 0.387-5.8 0.695-8.81 0.5 c-3.015-0.158-6.053-0.797-8.88-1.985c-1.427-0.563-2.752-1.349-4.028-2.181c-0.624-0.456-1.198-0.936-1.797-1.401 c-0.595-0.464-1.091-1.054-1.637-1.572c-2.07-2.199-3.614-4.771-4.754-7.396c-0.501-1.342-1.029-2.649-1.348-3.993 c-0.413-1.317-0.622-2.65-0.876-3.938c-0.233-1.293-0.332-2.563-0.479-3.787c-0.018-1.233-0.147-2.426-0.069-3.568 c0.068-1.143 0.078-2.242 0.279-3.269c0.078-0.516 0.154-1.019 0.228-1.507c0.1-0.482 0.239-0.943 0.35-1.395 c0.118-0.449 0.232-0.884 0.342-1.304c0.155-0.406 0.305-0.796 0.449-1.172c0.144-0.375 0.282-0.735 0.414-1.079 c0.14-0.342 0.325-0.643 0.472-0.941c0.315-0.588 0.57-1.128 0.838-1.57c0.292-0.428 0.54-0.792 0.742-1.087 c0.402-0.59 0.617-0.905 0.617-0.905s-0.213 0.316-0.612 0.908c-0.2 0.296-0.446 0.661-0.736 1.1 c-0.265 0.444-0.518 0.985-0.829 1.574c-0.146 0.299-0.329 0.601-0.467 0.941c-0.13 0.345-0.266 0.706-0.408 1.1 c-0.142 0.376-0.289 0.766-0.442 1.172c-0.107 0.42-0.219 0.854-0.335 1.304c-0.109 0.451-0.245 0.911-0.342 1.4 c-0.071 0.487-0.144 0.989-0.219 1.505c-0.196 1.024-0.2 2.122-0.262 3.262c-0.071 1.1 0.1 2.3 0.1 3.6 c0.153 1.2 0.3 2.5 0.5 3.777c0.261 1.3 0.5 2.6 0.9 3.921c0.324 1.3 0.9 2.6 1.4 4 c1.146 2.6 2.7 5.2 4.8 7.317c0.544 0.5 1 1.1 1.6 1.545c0.596 0.5 1.2 0.9 1.8 1.4 c1.267 0.8 2.6 1.6 4 2.138c2.799 1.2 5.8 1.8 8.8 1.922c2.992 0.2 5.925-0.151 8.746-0.549 c2.812-0.453 5.489-1.141 7.926-2.059c2.444-0.924 4.605-2.082 6.413-3.482c1.717-1.463 3.306-2.836 4.456-4.28 c1.29-1.332 2.072-2.739 2.84-3.809c0.4-0.522 0.615-1.093 0.865-1.543c0.235-0.462 0.435-0.855 0.597-1.173 c0.324-0.637 0.497-0.977 0.497-0.977L-155.052 66.582z"/>
				<path d="M-182.268 76.317c0 0 0.394-0.029 1.083-0.079c0.172-0.014 0.364-0.027 0.571-0.042 c0.164-0.001 0.416-0.063 0.644-0.095c0.473-0.086 1.016-0.158 1.59-0.282c0.572-0.135 1.202-0.236 1.852-0.422 c0.653-0.17 1.341-0.356 2.036-0.601c0.706-0.214 1.403-0.519 2.116-0.813c0.348-0.169 0.699-0.337 1.051-0.507 c0.344-0.185 0.678-0.39 1.019-0.584c0.667-0.422 1.3-0.861 1.875-1.394c0.577-0.519 1.19-0.988 1.701-1.519 c0.495-0.547 0.973-1.076 1.426-1.577c0.46-0.497 0.774-1.064 1.129-1.536c0.325-0.494 0.686-0.909 0.881-1.352 c0.224-0.427 0.418-0.798 0.578-1.104c0.321-0.612 0.505-0.962 0.505-0.962s-0.177 0.354-0.485 1 c-0.154 0.311-0.342 0.686-0.558 1.117c-0.188 0.448-0.539 0.871-0.855 1.372c-0.347 0.481-0.651 1.058-1.105 1.6 c-0.448 0.514-0.92 1.058-1.408 1.619c-0.506 0.545-1.106 1.023-1.674 1.556c-0.557 0.538-1.217 1.018-1.876 1.5 c-0.342 0.203-0.677 0.42-1.023 0.613c-0.354 0.179-0.706 0.358-1.055 0.535c-0.716 0.313-1.42 0.637-2.129 0.9 c-0.699 0.263-1.391 0.464-2.048 0.649c-0.653 0.202-1.292 0.318-1.871 0.466c-0.582 0.137-1.117 0.218-1.59 0.3 c-0.248 0.041-0.433 0.099-0.688 0.115c-0.207 0.019-0.398 0.037-0.57 0.053c-0.688 0.064-1.082 0.101-1.082 0.1 L-182.268 76.317z"/>
				<path d="M-179.354 40.674c0 0-0.143-0.199-0.393-0.545c-0.118-0.188-0.297-0.345-0.484-0.561 c-0.175-0.223-0.453-0.403-0.713-0.642c-0.3-0.183-0.607-0.418-0.987-0.564c-0.361-0.186-0.783-0.294-1.214-0.399 c-0.221-0.038-0.445-0.076-0.672-0.115c-0.231-0.015-0.465-0.03-0.701-0.045c-0.453-0.01-0.96 0.052-1.441 0.1 c-0.494 0.007-0.938 0.111-1.424 0.208c-0.236 0.047-0.47 0.093-0.702 0.139c-0.227 0.057-0.439 0.142-0.656 0.2 c-0.215 0.071-0.426 0.142-0.633 0.212c-0.201 0.082-0.385 0.192-0.572 0.283c-0.386 0.168-0.696 0.408-0.981 0.6 c-0.297 0.211-0.485 0.498-0.684 0.714c-0.146 0.255-0.305 0.466-0.369 0.671c-0.086 0.194-0.14 0.354-0.167 0.5 c-0.032 0.109-0.05 0.168-0.05 0.168s0.016-0.059 0.044-0.17c0.023-0.112 0.072-0.273 0.152-0.473 c0.058-0.208 0.21-0.425 0.351-0.688c0.193-0.224 0.376-0.522 0.67-0.746c0.282-0.241 0.592-0.496 0.977-0.679 c0.187-0.099 0.372-0.218 0.574-0.309c0.209-0.077 0.423-0.156 0.639-0.236c0.218-0.076 0.438-0.171 0.665-0.236 c0.23-0.053 0.462-0.106 0.697-0.16c0.454-0.107 0.961-0.236 1.448-0.259c0.493-0.038 0.958-0.114 1.466-0.122 c0.245 0 0.5 0 0.7 0.023c0.239 0 0.5 0.1 0.7 0.098c0.457 0.1 0.9 0.2 1.3 0.4 c0.412 0.1 0.8 0.4 1.1 0.574c0.29 0.2 0.6 0.4 0.8 0.669c0.21 0.2 0.4 0.4 0.5 0.6 c0.261 0.3 0.4 0.5 0.4 0.533L-179.354 40.674z"/>
			</g>
			<path d="M-153.072 35.972c-1.12-2.017-2.375-3.329-3.76-3.936c-0.96-0.425-2.422-0.515-4.382-0.272l-0.228-1.824l16.983-2.109 c2.023-0.248 4.1 1.7 6.3 5.936l12.929 23.125l6.809-25.576c0.284-1.068 0.409-1.733 0.377-1.991 c-0.237-1.913-1.87-2.685-4.899-2.309l-0.227-1.823l11.62-1.439l0.227 1.821c-2.663 0.393-4.412 2.351-5.247 5.872l-7.366 27.8 l-3.773 14.556l-2.252 0.278c-1.329 0.166-2.287-0.302-2.877-1.399l-2.886-5.43L-153.072 35.972z"/>
			<path d="M-125.424 76.629c0 0-0.923 0.11-2.539 0.303c-0.808 0.073-1.775 0.284-2.963 0.2 c-0.559-0.018-1.217-0.184-1.823-0.413c-0.595-0.281-1.22-0.623-1.717-1.157c-0.519-0.501-0.94-1.153-1.279-1.823 c-0.351-0.665-0.712-1.354-1.084-2.06c-0.75-1.414-1.513-2.91-2.364-4.433c-1.677-3.057-3.466-6.317-5.255-9.577 c-3.578-6.521-7.156-13.042-9.839-17.933c-0.682-1.219-1.255-2.358-1.882-3.306c-0.636-0.912-1.341-1.694-2.148-1.88 c-0.403-0.027-0.765-0.08-1.08-0.069c-0.315 0.021-0.583 0.039-0.801 0.053c-0.435 0.028-0.667 0.044-0.667 0 s0.232-0.018 0.667-0.049c0.217-0.017 0.485-0.036 0.801-0.06c0.315-0.014 0.7 0 1.1 0.1 c0.817 0.2 1.5 1 2.2 1.876c0.634 0.9 1.2 2.1 1.9 3.292c2.725 4.9 6.4 11.4 10 17.9 c1.816 3.2 3.6 6.5 5.3 9.531c0.863 1.5 1.6 3 2.4 4.419c0.378 0.7 0.7 1.4 1.1 2.1 c0.346 0.7 0.7 1.2 1.2 1.712c0.962 1 2.2 1.4 3.3 1.417c1.079 0.1 2.069-0.159 2.875-0.242 c1.614-0.207 2.536-0.324 2.536-0.324L-125.424 76.629z"/>
			<polygon points="-114.2,34.5 -121.2,60 -114.7,34.4"/>
			<polygon points="-126.4,22.5 -109.1,20.6 -126.3,23"/>
			<path d="M-144.825 24.744l0.498-0.028c0.097-0.001 0.137-0.016 0.279-0.007l0.249 0.017c0.327 0 0.7 0.1 1 0.1 c0.681 0.2 1.3 0.4 1.9 0.777c1.189 0.7 2.1 1.7 3 2.758c0.826 1.1 1.5 2.2 2.1 3.4 c0.301 0.6 0.6 1.2 0.9 1.752l0.966 1.748l7.729 13.981l-0.178 0.021l5.282-19.498l-5.094 19.549l-0.061 0.2 l-0.118-0.21l-7.863-13.906l-0.983-1.737c-0.322-0.575-0.668-1.163-0.97-1.75c-0.633-1.162-1.316-2.3-2.13-3.331 c-0.814-1.025-1.746-1.977-2.869-2.619c-0.55-0.334-1.162-0.568-1.775-0.706c-0.301-0.067-0.613-0.119-0.955-0.124l-0.249-0.015 c-0.024-0.007-0.149 0.008-0.22 0.011l-0.498 0.033L-144.825 24.744z"/>
		</g>
	</g>
</g>
<g>
	<path fill="none" d="M8.835 97.938c0.348 0.2 0.7 0.5 1 0.686v-11.29c-3.072 1.779-6.116 3.606-9.136 5.5 C3.457 94.5 6.2 96.2 8.8 97.938z"/>
	<path fill="none" d="M21.883 58.652c0.961 0.4 2.894-2.365 4.846-5.092c2.408-3.364 4.985-6.609 7.73-9.708 c2.755-3.093 5.694-6.034 8.86-8.723c1.586-1.34 3.574-2.758 3.199-4.039c-0.586-1.978-3.098-1.815-3.098-1.815H21.201v24.42 C21.201 53.7 20.9 58.3 21.9 58.652z"/>
	<path fill="none" d="M367.216 46.452c-0.16 0.12-0.321 0.239-0.48 0.36C366.895 46.7 367.1 46.6 367.2 46.452z"/>
	<path fill="none" d="M11.161 115.803h12.713c0 0 2.455-0.135 3.443-1.629c0.99-1.496-2.121-3.988-2.121-3.988 s-2.457-1.77-3.689-2.641c-3.419-2.411-6.867-4.781-10.346-7.1V115.803z"/>
	<path fill="none" d="M0 0v92.353c3.264-2.015 6.555-3.984 9.879-5.897V28.637c0-0.357 0.285-0.641 0.64-0.641h9.4V0.861 c0-0.355 0.289-0.645 0.64-0.645h453.796c0.281 0 0.5 0.2 0.6 0.47c0.099 0.341-0.101 0.694-0.442 0.79l-0.009 0 l-7.215 2.029c-2.399 0.692-4.821 1.316-7.201 2.067L452.948 7.8l-3.576 1.115l-3.547 1.209l-7.092 2.4 c-2.354 0.831-4.686 1.734-7.027 2.594c-2.342 0.867-4.686 1.731-6.99 2.691l-6.947 2.812l-6.866 3 c-2.304 0.968-4.535 2.091-6.806 3.128c-2.272 1.034-4.503 2.153-6.731 3.276l-3.348 1.678l-3.304 1.8 c-2.213 1.15-4.383 2.379-6.549 3.623c-2.185 1.203-4.291 2.543-6.435 3.814c-2.102 1.342-4.215 2.666-6.262 4.1 c-2.049 1.398-4.096 2.861-5.971 4.412l-0.006 0.008c-0.174 0.141-0.412 0.192-0.637 0.114c-4.537-1.595-9.142-3.119-13.724-4.645 l-13.786-4.489c-9.207-2.955-18.431-5.845-27.687-8.629l-13.904-4.117c-4.64-1.351-9.291-2.664-13.948-3.949 c-2.326-0.66-4.662-1.264-6.996-1.89c-2.332-0.63-4.666-1.25-7.011-1.833c-2.343-0.587-4.679-1.209-7.028-1.765l-7.049-1.673 c-0.279-0.066-0.498-0.322-0.498-0.626c0-0.352 0.289-0.64 0.641-0.64h0.002l15.174 0.155l15.17 0.092l30.346 0.016l30.346-0.183 l7.587-0.049c2.543 0 5.02-0.074 7.6 0.002c1.301 0.1 2.6 0.2 3.9 0.528c0.672 0.2 1.3 0.4 2 0.8 c0.662 0.4 1.3 0.9 1.8 1.761c0.42 0.8 0.6 1.8 0.4 2.712c-0.136 0.886-0.478 1.658-0.851 2.4 c-0.381 0.71-0.852 1.333-1.338 1.935c-0.25 0.312-0.492 0.571-0.785 0.877c-0.315 0.326-0.539 0.548-0.75 0.8 c-0.313 0.355-0.729 0.642-1.215 0.794c-1.406 0.44-2.906-0.344-3.35-1.75c-0.443-1.408 0.34-2.908 1.75-3.35l0.057-0.02l0.83-0.26 c0.221-0.063 0.48-0.184 0.705-0.292c0.475-0.218 0.893-0.508 1.26-0.813c0.733-0.636 1.155-1.36 1.016-2.007 c-0.131-0.691-1.03-1.455-2.094-1.882c-1.07-0.44-2.274-0.686-3.494-0.823c-1.22-0.126-2.469-0.124-3.739-0.132l-3.793-0.023 l-7.587-0.043L314.557 16.3l-30.346 0.018c0 0-13.039 0.404-13.039 1.687c0 1.3 8.6 3.8 11 4.5 c4.666 1.3 9.3 2.6 14 3.951l13.916 4.12c9.264 2.8 18.5 5.7 27.7 8.638l13.795 4.5 c4.481 1.5 8.9 3 13.4 4.537c0.008-0.006 0.016-0.012 0.023-0.019c-0.007 0.006-0.015 0.012-0.022 0 c-1.512-0.531-3.021-1.04-4.531-1.554c0.23-2.26 2.119-4.027 4.441-4.027c1.795 0 3.3 1.1 4 2.6 c-0.043 0.03-0.085 0.063-0.129 0.094c0.649-0.462 1.303-0.918 1.962-1.369c2.067-1.431 4.194-2.765 6.31-4.116 c2.158-1.279 4.277-2.627 6.473-3.838c2.176-1.248 4.359-2.485 6.582-3.642l3.317-1.771l3.361-1.688 c2.239-1.129 4.479-2.252 6.76-3.288c2.279-1.043 4.52-2.172 6.832-3.14l6.894-3.001l6.969-2.819 c2.314-0.964 4.664-1.828 7.014-2.699c2.353-0.867 4.688-1.77 7.051-2.604l7.111-2.43c0 0 3.996-1.529 3.996-4.362 c0-2.83-3.844-3.046-3.844-3.046H21.201v26.497h32.691c0.226 0 0.5 0.1 0.6 0.341c0.166 0.3 0 0.698-0.27 0.9 c-1.785 0.965-3.521 2.028-5.197 3.182c-1.666 1.17-3.285 2.411-4.844 3.729c-3.111 2.644-6.007 5.54-8.729 8.6 c-2.714 3.063-5.265 6.275-7.65 9.604c-2.379 3.328-4.644 6.774-6.644 10.315l-0.006 0.01c-0.11 0.191-0.318 0.32-0.559 0.3 c-0.351 0-0.64-0.284-0.64-0.64V29.275h-8.758v56.43c2.417-1.377 4.85-2.729 7.303-4.043c4.663-2.523 9.392-4.927 14.236-7.103 c4.841-2.171 9.787-4.143 14.894-5.669c2.553-0.759 5.146-1.405 7.789-1.853c2.656-0.416 5.303-0.714 8.076-0.508 c1.377 0.1 2.8 0.4 4.1 0.931c1.324 0.5 2.6 1.3 3.7 2.514c0.525 0.6 0.9 1.4 1.2 2.3 c0.213 0.9 0.1 1.919-0.174 2.816c-0.615 1.825-1.859 3.087-3.047 4.237l-0.16 0.152c-1.072 1.038-2.781 1.01-3.82-0.064 c-1.035-1.072-1.007-2.781 0.063-3.818c0.387-0.371 0.854-0.608 1.344-0.704c2.156-0.441 3.67-1.671 2.736-3.637 c-0.469-0.927-1.399-1.767-2.475-2.331c-1.076-0.579-2.301-0.947-3.551-1.107c-2.508-0.268-5.172 0.02-7.738 0.4 c-2.584 0.407-5.143 1.013-7.672 1.731c-5.056 1.449-9.99 3.35-14.826 5.454c-4.841 2.109-9.583 4.449-14.259 6.9 c-2.575 1.379-5.124 2.805-7.658 4.257V99.46c3.654 2.4 7.3 4.8 10.9 7.281c4.363 3 8.7 6.1 13 9.2 l0.002 0.004c0.152 0.1 0.3 0.3 0.3 0.512c0 0.352-0.286 0.641-0.641 0.641H10.519c-0.356 0-0.64-0.289-0.64-0.641V99.586 C9.381 99.3 8.9 98.9 8.4 98.6C5.622 96.8 2.8 95 0 93.266v33.229l0 0c0.017-0.001 0.031-0.01 0.048-0.01H61.34 c0 0-1.121-2.564-0.082-3.605c1.043-1.041 3.154-0.988 3.154-0.988L34.85 92.324c-0.114-0.115-0.192-0.277-0.192-0.453 c-0.002-0.352 0.283-0.637 0.637-0.639l10.978-0.045l10.975 0.135c7.316 0.2 14.6 0.4 21.9 0.8 c3.656 0.1 7.3 0.4 11 0.6c3.654 0.2 7.3 0.5 10.9 0.73c7.299 0.5 14.6 1.2 21.9 1.844l10.918 1.1 l10.908 1.223c7.26 0.9 14.5 1.8 21.8 2.81c3.629 0.5 7.2 1 10.9 1.565c3.621 0.5 7.2 1.1 10.8 1.7 c7.229 1.1 14.4 2.4 21.6 3.687c7.197 1.3 14.4 2.7 21.6 4.137l10.742 2.248l10.713 2.4 c7.131 1.6 14.2 3.3 21.3 5.152c7.088 1.8 14.2 3.7 21.2 5.741c7.036 2 14 4.2 21 6.4 l10.395 3.541c3.433 1.3 6.9 2.5 10.3 3.811c3.411 1.3 6.8 2.6 10.2 4.113c3.396 1.4 6.7 2.9 10 4.5 c6.605 3.2 13.1 6.6 19.3 10.584c0.172 0.1 0.3 0.3 0.3 0.543c-0.001 0.233-0.133 0.427-0.319 0.537H475V0H0z M169.412 77.977l-27.863-3.588l0.238-1.825c4.271 0.5 6.672-1.262 7.211-5.432l2.76-21.416 c1.369-10.651-0.922-16.359-6.881-17.128c-3.066-0.397-6.232 0.322-9.494 2.146c-0.012 0.757-0.131 2.017-0.355 3.8 l-3.906 30.313c-0.537 4.2 1.3 6.5 5.6 7.083l-0.234 1.825l-27.859-3.59l0.236-1.825c4.766 0.6 7.418-1.163 7.955-5.334 l3.905-30.315c0.535-4.175-1.58-6.564-6.348-7.179l0.238-1.827l17.781 2.292c0.535 0.1 1.1 0.6 1.6 1.5 c0.563 0.9 0.9 1.4 1 1.383c3.412-1.782 6.76-2.463 10.049-2.038c15.496 2 22.5 8.6 21.1 19.901L163.3 69 c-0.541 4.2 1.6 6.6 6.3 7.175L169.412 77.977z M210.178 82.654c-3.828 1.418-8.701 1.631-14.605 0.6 c-8.053-1.346-13.879-4.42-17.473-9.224c-3.59-4.803-4.736-11.098-3.438-18.881c1.299-7.761 4.451-13.336 9.465-16.729 c4.971-3.37 11.453-4.394 19.447-3.056c7.982 1.3 13.8 4.4 17.4 9.214c3.637 4.8 4.8 11.1 3.5 18.9 l-35.586-5.944c-1.508 9.018-1.98 14.603-1.426 16.754c1.033 4 3.8 6.4 8.4 7.16c5.499 0.9 10.1 0.7 13.681-0.577 c4.109-1.471 7.559-3.768 10.352-6.881l1.373 1.24C218.335 78.5 214.6 81 210.2 82.654z M276.373 51.9 c-1.875-0.377-3.531-0.373-4.965 0.018c-1.613 0.54-3.295 1.626-5.037 3.254l-10.193 9.532l6.398 23.2 c1.037 3.7 3.4 6 7.2 6.732l-0.363 1.803l-27.53-5.545l0.362-1.805c2.896 0.5 4.502-0.102 4.826-1.707 c0.123-0.615 0.06-1.375-0.192-2.279l-3.279-11.862l-10.063 9.173c-1.063 0.959-1.666 1.805-1.813 2.5 c-0.26 1.3 0.9 2.2 3.6 2.758l0.293 0.059l-0.363 1.801L220.96 86.68l0.365-1.801c1.842 0.4 3.2 0.6 3.9 0.6 c1.498-0.018 3.621-1.287 6.377-3.809l11.41-10.438l-6.07-21.96c-0.549-1.964-1.387-3.573-2.514-4.835 c-0.699-0.779-1.99-1.36-3.881-1.739l0.363-1.804l16.781 3.38c2.02 0.5 3.7 3.1 5 7.796l2.928 10.665l8.85-8.293 c1.213-1.132 1.83-1.762 1.857-1.885c0.342-1.704-1.07-2.876-4.234-3.516l0.363-1.802l14.279 2.876L276.373 51.92z M330.299 76.4 l-1.834-0.248c0.717-7.847-2.816-12.705-10.602-14.581l-2.775-0.669l-8.648 35.885c-0.989 4.1 0.9 6.7 5.5 7.8 l-0.43 1.791l-28.066-6.769l0.431-1.788c4.678 1.1 7.51-0.353 8.5-4.449l8.646-35.888l-2.775-0.669 c-7.784-1.876-13.145 0.842-16.079 8.149l-1.746-0.614l4.588-12.621l46.923 11.313L330.299 76.435z"/>
	<path fill="none" d="M211.705 44.216c-1.064-3.9-3.875-6.229-8.434-6.991c-4.521-0.757-7.68 0.272-9.471 3.1 c-1.828 2.882-3.361 8.03-4.6 15.444l21.353 3.567C211.891 51.3 212.3 46.3 211.7 44.216z"/>
	<path fill="none" d="M221.822 160.457v-34.291c0-0.102 0.025-0.211 0.076-0.305c0.168-0.312 0.557-0.426 0.867-0.26l0.006 0 c2.514 1.6 5 3.2 7.4 4.795c2.453 1.6 4.9 3.3 7.2 5.166c1.155 0.9 2.3 1.9 3.3 3 c0.531 0.5 1 1.1 1.5 1.724c0.467 0.6 0.9 1.3 1.3 2.016c0.4 0.7 0.6 1.6 0.6 2.6 c-0.086 0.469-0.094 1.021-0.34 1.455l-0.318 0.695c-0.127 0.209-0.281 0.389-0.424 0.594c-0.283 0.432-0.617 0.736-0.959 1.1 c-0.346 0.34-0.689 0.613-1.049 0.875c-0.727 0.574-1.436 0.979-2.184 1.516c-0.504 0.361-1.131 0.562-1.795 0.5 c-1.504-0.106-2.637-1.412-2.529-2.916c0.104-1.504 1.412-2.64 2.916-2.531h0.021c0.631 0 1.4 0.1 1.938-0.021 c0.311-0.039 0.635-0.073 0.875-0.182c0.273-0.088 0.563-0.174 0.762-0.311c0.516-0.232 0.742-0.602 0.986-1.047 c0.111-0.484 0.18-1.086-0.035-1.707c-0.162-0.623-0.473-1.248-0.846-1.838c-0.361-0.596-0.797-1.16-1.267-1.699 c-0.93-1.09-2.146-2.129-3.244-3.084c-2.186-1.922-4.365-3.521-6.828-5.109c-0.836-0.537-2.547-1.605-2.547-1.605 s0.48 2.244-1.014 3.207c-1.496 0.962-3.15 0.429-3.15 0.429v26.651h150.932c-5.541-3.45-11.34-6.489-17.232-9.321 c-3.314-1.521-6.615-3.068-9.996-4.447c-3.344-1.453-6.75-2.769-10.147-4.094c-3.394-1.349-6.851-2.527-10.271-3.8l-10.367-3.532 c-6.946-2.254-13.926-4.406-20.944-6.424c-7.023-2.017-14.074-3.921-21.152-5.73c-7.077-1.807-14.182-3.506-21.303-5.145 l-10.699-2.378l-10.727-2.245c-7.164-1.435-14.338-2.837-21.529-4.132c-7.191-1.291-14.389-2.547-21.607-3.678 c-3.609-0.588-7.215-1.152-10.832-1.674c-3.615-0.531-7.225-1.096-10.848-1.566c-7.236-1.021-14.486-1.922-21.74-2.809 l-10.893-1.217l-10.904-1.102c-7.273-0.687-14.553-1.336-21.842-1.844c-3.643-0.273-7.285-0.533-10.934-0.728 c-3.646-0.211-7.293-0.459-10.943-0.599c-7.295-0.358-14.598-0.584-21.9-0.75l-10.957-0.135c0 0 1.7 2.7 0.6 4.2 c-1.096 1.547-3.928 1.896-3.928 1.896l28.096 28.096c0.115 0.1 0.2 0.3 0.2 0.453c0 0.354-0.287 0.644-0.643 0.644H0.048 c-0.017 0-0.031-0.009-0.048-0.01v24.508h107.311c0.277 0 0.5 0.2 0.5 0.5c0 0.277-0.223 0.502-0.5 0.502H0v1.561h104.746 c0.277 0 0.5 0.2 0.5 0.5c0 0.277-0.225 0.502-0.502 0.502H0V161h222.143C221.954 160.9 221.8 160.7 221.8 160.457z M223.104 159.814v-4.26c2.318 0.1 4.2 1.9 4.2 4.26H223.104z M6.923 147.635c0 0.277-0.225 0.502-0.502 0.5 c-0.275 0-0.5-0.225-0.5-0.502v-13.67c0-0.277 0.225-0.502 0.5-0.502c0.277 0 0.5 0.2 0.5 0.502V147.635z M19.752 147.6 c0 0.277-0.224 0.502-0.501 0.502s-0.5-0.225-0.5-0.502v-13.67c0-0.277 0.223-0.502 0.5-0.502s0.501 0.2 0.5 0.502V147.635z M32.579 147.635c0 0.277-0.224 0.502-0.5 0.502c-0.277 0-0.502-0.225-0.502-0.502v-13.67c0-0.277 0.225-0.502 0.502-0.502 c0.276 0 0.5 0.2 0.5 0.502V147.635z M45.408 147.635c0 0.277-0.224 0.502-0.502 0.502c-0.275 0-0.5-0.225-0.5-0.502v-13.67 c0-0.277 0.225-0.502 0.5-0.502c0.277 0 0.5 0.2 0.5 0.502V147.635z M58.238 147.635c0 0.277-0.224 0.502-0.502 0.5 c-0.277 0-0.5-0.225-0.5-0.502v-13.67c0-0.277 0.223-0.502 0.5-0.502c0.277 0 0.5 0.2 0.5 0.502V147.635z M71.066 147.6 c0 0.277-0.224 0.502-0.5 0.502c-0.277 0-0.502-0.225-0.502-0.502v-13.67c0-0.277 0.225-0.502 0.502-0.502 c0.275 0 0.5 0.2 0.5 0.502V147.635z"/>
	<path d="M6.421 133.463c-0.275 0-0.5 0.225-0.5 0.502v13.67c0 0.3 0.2 0.5 0.5 0.502c0.277 0 0.502-0.225 0.502-0.502v-13.67 C6.923 133.7 6.7 133.5 6.4 133.463z"/>
	<path d="M19.251 133.463c-0.277 0-0.5 0.225-0.5 0.502v13.67c0 0.3 0.2 0.5 0.5 0.502s0.501-0.225 0.501-0.502v-13.67 C19.752 133.7 19.5 133.5 19.3 133.463z"/>
	<path d="M32.079 133.463c-0.277 0-0.502 0.225-0.502 0.502v13.67c0 0.3 0.2 0.5 0.5 0.502c0.276 0 0.5-0.225 0.5-0.502 v-13.67C32.579 133.7 32.4 133.5 32.1 133.463z"/>
	<path d="M44.906 133.463c-0.275 0-0.5 0.225-0.5 0.502v13.67c0 0.3 0.2 0.5 0.5 0.502c0.278 0 0.502-0.225 0.502-0.502 v-13.67C45.408 133.7 45.2 133.5 44.9 133.463z"/>
	<path d="M57.736 133.463c-0.277 0-0.5 0.225-0.5 0.502v13.67c0 0.3 0.2 0.5 0.5 0.502c0.278 0 0.502-0.225 0.502-0.502 v-13.67C58.238 133.7 58 133.5 57.7 133.463z"/>
	<path d="M70.566 133.463c-0.277 0-0.502 0.225-0.502 0.502v13.67c0 0.3 0.2 0.5 0.5 0.502c0.276 0 0.5-0.225 0.5-0.502 v-13.67C71.066 133.7 70.8 133.5 70.6 133.463z"/>
	<path d="M107.811 152.768c0-0.274-0.223-0.5-0.5-0.5H0v1.002h107.311C107.588 153.3 107.8 153 107.8 152.768z"/>
	<path d="M105.248 155.33c0-0.275-0.225-0.5-0.502-0.5H0v1.002h104.746C105.023 155.8 105.2 155.6 105.2 155.33z"/>
	<path d="M9.879 87.333v-0.878C6.555 88.4 3.3 90.3 0 92.353v0.001c0.247 0.2 0.5 0.3 0.7 0.5 C3.763 90.9 6.8 89.1 9.9 87.333z"/>
	<path d="M18.821 82.324c4.676-2.465 9.418-4.805 14.259-6.914c4.836-2.104 9.77-4.005 14.826-5.454 c2.529-0.718 5.088-1.324 7.672-1.731c2.566-0.365 5.23-0.653 7.738-0.385c1.25 0.2 2.5 0.5 3.6 1.1 c1.076 0.6 2 1.4 2.5 2.331c0.934 1.966-0.58 3.196-2.736 3.637c-0.49 0.096-0.957 0.333-1.344 0.7 c-1.07 1.037-1.098 2.746-0.063 3.818c1.039 1.1 2.7 1.1 3.8 0.064l0.16-0.152c1.188-1.15 2.432-2.412 3.047-4.237 c0.295-0.897 0.387-1.904 0.174-2.816c-0.211-0.91-0.633-1.7-1.158-2.322c-1.053-1.25-2.371-1.989-3.695-2.514 c-1.334-0.519-2.709-0.796-4.086-0.931c-2.773-0.206-5.42 0.092-8.076 0.508c-2.643 0.448-5.236 1.094-7.789 1.9 c-5.107 1.526-10.053 3.498-14.894 5.669c-4.844 2.176-9.573 4.58-14.236 7.103c-2.453 1.314-4.885 2.666-7.303 4.043v0.876 C13.697 85.1 16.2 83.7 18.8 82.324z"/>
	<polygon points="0,126.5 0,126.5 0,126.5"/>
	<path d="M9.879 99.586v16.859c0 0.4 0.3 0.6 0.6 0.641h24.143c0.355 0 0.641-0.289 0.641-0.641 c0.004-0.207-0.102-0.396-0.254-0.512l-0.002-0.004c-4.287-3.134-8.617-6.183-12.98-9.188c-3.6-2.482-7.25-4.89-10.904-7.281 V86.581v-0.876v-56.43h8.758v35.036c0 0.4 0.3 0.6 0.6 0.64c0.241 0 0.449-0.129 0.559-0.32l0.006-0.01 c2-3.541 4.265-6.987 6.644-10.315c2.385-3.329 4.936-6.541 7.65-9.604c2.722-3.052 5.618-5.948 8.729-8.592 c1.559-1.318 3.178-2.559 4.844-3.729c1.676-1.154 3.412-2.217 5.197-3.182c0.316-0.166 0.436-0.551 0.27-0.864 c-0.115-0.217-0.342-0.339-0.568-0.341H21.201V1.497H445.57c0 0 3.8 0.2 3.8 3.046c0 2.833-3.996 4.362-3.996 4.4 l-7.111 2.43c-2.362 0.834-4.698 1.737-7.051 2.604c-2.35 0.871-4.699 1.735-7.014 2.699l-6.969 2.819l-6.894 3 c-2.313 0.968-4.553 2.097-6.832 3.14c-2.281 1.036-4.521 2.159-6.76 3.288l-3.361 1.688l-3.317 1.8 c-2.223 1.157-4.406 2.394-6.582 3.642c-2.195 1.211-4.314 2.559-6.473 3.838c-2.115 1.351-4.242 2.685-6.31 4.1 c-0.659 0.45-1.313 0.907-1.962 1.369c-0.526 0.373-1.048 0.755-1.567 1.142c-0.16 0.12-0.321 0.239-0.48 0.4 c-0.591 0.448-1.179 0.904-1.76 1.379c-0.008 0.006-0.016 0.012-0.023 0.019c-4.472-1.565-8.937-3.046-13.418-4.537l-13.795-4.493 c-9.214-2.955-18.445-5.849-27.709-8.638l-13.916-4.12c-4.646-1.354-9.302-2.668-13.968-3.951 c-2.326-0.661-10.975-3.185-10.975-4.466c0-1.283 13.039-1.687 13.039-1.687l30.346-0.018l30.346 0.184l7.587 0.043l3.793 0 c1.271 0 2.5 0 3.7 0.132c1.22 0.1 2.4 0.4 3.5 0.823c1.063 0.4 2 1.2 2.1 1.9 c0.14 0.647-0.282 1.371-1.016 2.007c-0.367 0.305-0.785 0.595-1.26 0.813c-0.225 0.108-0.484 0.229-0.705 0.292l-0.83 0.3 l-0.057 0.02c-1.41 0.442-2.193 1.942-1.75 3.35c0.443 1.4 1.9 2.2 3.4 1.75c0.486-0.152 0.902-0.439 1.215-0.794 c0.211-0.242 0.435-0.464 0.75-0.79c0.293-0.306 0.535-0.565 0.785-0.877c0.486-0.602 0.957-1.225 1.338-1.935 c0.373-0.712 0.715-1.484 0.851-2.37c0.151-0.875 0.004-1.888-0.416-2.712c-0.441-0.825-1.115-1.387-1.777-1.761 c-0.674-0.373-1.342-0.625-2.014-0.8c-1.337-0.34-2.648-0.47-3.949-0.528c-2.615-0.076-5.092 0.004-7.635-0.002l-7.587 0 l-30.346 0.183l-30.346-0.016l-15.17-0.092l-15.174-0.155h-0.002c-0.352 0-0.641 0.288-0.641 0.64c0 0.3 0.2 0.6 0.5 0.6 l7.049 1.673c2.35 0.6 4.7 1.2 7 1.765c2.345 0.6 4.7 1.2 7 1.833c2.334 0.6 4.7 1.2 7 1.9 c4.657 1.3 9.3 2.6 13.9 3.949l13.904 4.117c9.256 2.8 18.5 5.7 27.7 8.629l13.786 4.5 c4.582 1.5 9.2 3 13.7 4.645c0.225 0.1 0.5 0 0.637-0.114l0.006-0.008c1.875-1.551 3.922-3.014 5.971-4.412 c2.047-1.419 4.16-2.743 6.262-4.085c2.144-1.271 4.25-2.611 6.435-3.814c2.166-1.244 4.336-2.473 6.549-3.623l3.304-1.767 l3.348-1.678c2.229-1.123 4.459-2.242 6.731-3.276c2.271-1.037 4.502-2.16 6.806-3.128l6.866-2.987l6.947-2.812 c2.305-0.96 4.648-1.824 6.99-2.691c2.342-0.86 4.674-1.763 7.027-2.594l7.092-2.422l3.547-1.209l3.576-1.115l7.157-2.224 c2.38-0.751 4.802-1.375 7.201-2.067l7.215-2.029l0.009-0.004c0.342-0.096 0.541-0.449 0.442-0.79 c-0.08-0.283-0.336-0.47-0.617-0.47H20.559c-0.351 0-0.64 0.29-0.64 0.645v27.135h-9.4c-0.355 0-0.64 0.284-0.64 0.641v57.818 v0.878v11.29c-0.349-0.229-0.696-0.457-1.044-0.686c-2.677-1.741-5.378-3.445-8.092-5.129C0.497 92.7 0.2 92.5 0 92.4 v0.912c2.817 1.8 5.6 3.5 8.4 5.334C8.895 98.9 9.4 99.3 9.9 99.586z M21.201 53.695v-24.42H43.42 c0 0 2.512-0.163 3.1 1.815c0.375 1.281-1.613 2.699-3.199 4.039c-3.166 2.689-6.105 5.63-8.86 8.7 c-2.745 3.099-5.322 6.344-7.73 9.708c-1.952 2.727-3.885 5.464-4.846 5.092C20.921 58.3 21.2 53.7 21.2 53.695z M21.507 107.545c1.232 0.9 3.7 2.6 3.7 2.641s3.111 2.5 2.1 3.988c-0.988 1.494-3.443 1.629-3.443 1.629H11.161 v-15.357C14.64 102.8 18.1 105.1 21.5 107.545z"/>
	<path d="M376.936 160.463c0.002-0.225-0.117-0.428-0.289-0.543c-6.174-4.006-12.688-7.41-19.293-10.584 c-3.334-1.529-6.649-3.086-10.045-4.467c-3.361-1.463-6.777-2.781-10.188-4.113c-3.403-1.354-6.869-2.536-10.302-3.811 l-10.395-3.541c-6.963-2.262-13.956-4.42-20.992-6.438c-7.035-2.019-14.1-3.928-21.188-5.741 c-7.09-1.811-14.207-3.512-21.338-5.152l-10.713-2.379l-10.742-2.248c-7.172-1.44-14.356-2.842-21.553-4.137 c-7.201-1.295-14.408-2.552-21.637-3.687c-3.61-0.588-7.223-1.155-10.844-1.677c-3.619-0.526-7.232-1.092-10.861-1.565 c-7.244-1.024-14.504-1.926-21.764-2.81l-10.908-1.223l-10.918-1.102c-7.283-0.688-14.572-1.34-21.871-1.844 c-3.646-0.279-7.295-0.535-10.949-0.73c-3.652-0.209-7.303-0.459-10.959-0.6c-7.308-0.361-14.623-0.586-21.939-0.75l-10.975-0.135 l-10.978 0.045c-0.354 0.002-0.639 0.287-0.637 0.639c0 0.2 0.1 0.3 0.2 0.453l29.562 29.566c0 0-2.111-0.053-3.154 1 c-1.039 1 0.1 3.6 0.1 3.605H0.048c-0.017 0-0.031 0.009-0.048 0.01l0 0v1.266c0.017 0 0 0 0 0.01h70.506 c0.356 0 0.643-0.289 0.643-0.644c0-0.176-0.073-0.338-0.188-0.453L42.913 98.577c0 0 2.832-0.349 3.928-1.896 c1.092-1.549-0.574-4.213-0.574-4.213l10.957 0.135c7.302 0.2 14.6 0.4 21.9 0.75c3.65 0.1 7.3 0.4 10.9 0.6 c3.649 0.2 7.3 0.5 10.9 0.728c7.289 0.5 14.6 1.2 21.8 1.844l10.904 1.102l10.893 1.2 c7.254 0.9 14.5 1.8 21.7 2.809c3.623 0.5 7.2 1 10.8 1.566c3.617 0.5 7.2 1.1 10.8 1.7 c7.218 1.1 14.4 2.4 21.6 3.678c7.191 1.3 14.4 2.7 21.5 4.132l10.727 2.245l10.699 2.4 c7.121 1.6 14.2 3.3 21.3 5.145c7.078 1.8 14.1 3.7 21.2 5.73c7.019 2 14 4.2 20.9 6.424l10.367 3.5 c3.42 1.3 6.9 2.5 10.3 3.8c3.397 1.3 6.8 2.6 10.1 4.094c3.381 1.4 6.7 2.9 10 4.4 c5.893 2.8 11.7 5.9 17.2 9.321H223.103v-26.651c0 0 1.7 0.5 3.15-0.429c1.494-0.963 1.014-3.207 1.014-3.207 s1.711 1.1 2.5 1.605c2.463 1.6 4.6 3.2 6.8 5.109c1.098 1 2.3 2 3.2 3.1 c0.47 0.5 0.9 1.1 1.3 1.699c0.373 0.6 0.7 1.2 0.8 1.838c0.215 0.6 0.1 1.2 0 1.7 c-0.244 0.445-0.471 0.814-0.986 1.047c-0.199 0.137-0.488 0.223-0.762 0.311c-0.24 0.108-0.564 0.143-0.875 0.2 c-0.573 0.125-1.307 0.065-1.938 0.021h-0.021c-1.504-0.108-2.812 1.027-2.916 2.531c-0.108 1.5 1 2.8 2.5 2.9 c0.664 0 1.292-0.151 1.795-0.513c0.748-0.537 1.457-0.941 2.184-1.516c0.359-0.262 0.703-0.535 1.049-0.875 c0.342-0.314 0.676-0.619 0.959-1.051c0.143-0.205 0.297-0.385 0.424-0.594l0.318-0.695c0.246-0.434 0.254-0.986 0.34-1.455 c-0.009-0.975-0.213-1.877-0.613-2.598c-0.341-0.758-0.806-1.401-1.272-2.016c-0.476-0.606-0.963-1.192-1.494-1.724 c-1.049-1.085-2.187-2.05-3.342-2.979c-2.308-1.857-4.738-3.535-7.191-5.166c-2.455-1.638-4.935-3.205-7.449-4.795l-0.006-0.002 c-0.31-0.166-0.699-0.052-0.867 0.26c-0.051 0.094-0.076 0.203-0.076 0.305v34.291c0 0.2 0.1 0.4 0.3 0.543h154.474 C376.803 160.9 376.9 160.7 376.9 160.463z"/>
	<path d="M367.216 46.452c0.52-0.387 1.041-0.769 1.567-1.142c0.044-0.031 0.086-0.063 0.129-0.094 c-0.715-1.524-2.254-2.588-4.049-2.588c-2.322 0-4.211 1.767-4.441 4.027c1.51 0.5 3 1 4.5 1.6 c0.008-0.006 0.016-0.012 0.022-0.018c0.581-0.475 1.169-0.931 1.76-1.379C366.895 46.7 367.1 46.6 367.2 46.452z"/>
	<path d="M223.104 155.555v4.26h4.213C227.288 157.5 225.4 155.6 223.1 155.555z"/>
	<path d="M163.3 68.975l2.873-22.311c1.452-11.271-5.568-17.906-21.064-19.901c-3.289-0.425-6.637 0.256-10.049 2 c-0.123-0.018-0.462-0.48-1.025-1.383c-0.557-0.904-1.102-1.394-1.637-1.46l-17.781-2.292l-0.238 1.8 c4.768 0.6 6.9 3 6.3 7.179l-3.905 30.315c-0.537 4.171-3.189 5.949-7.955 5.334l-0.236 1.825l27.859 3.59l0.234-1.825 c-4.274-0.552-6.139-2.91-5.602-7.083l3.906-30.313c0.224-1.764 0.343-3.024 0.355-3.781c3.262-1.824 6.428-2.543 9.494-2.146 c5.959 0.8 8.2 6.5 6.9 17.128l-2.76 21.416c-0.539 4.17-2.94 5.98-7.211 5.432l-0.238 1.825l27.863 3.588l0.232-1.827 C164.876 75.5 162.8 73.1 163.3 68.975z"/>
	<path d="M219.909 74.028c-2.793 3.113-6.243 5.41-10.352 6.881c-3.621 1.3-8.182 1.493-13.681 0.6 c-4.572-0.765-7.373-3.152-8.406-7.16c-0.554-2.151-0.082-7.736 1.426-16.754l35.586 5.944c1.297-7.762 0.125-14.059-3.512-18.895 c-3.617-4.811-9.414-7.882-17.396-9.214c-7.994-1.338-14.476-0.314-19.447 3.056c-5.014 3.393-8.166 8.968-9.465 16.7 c-1.298 7.783-0.152 14.1 3.4 18.881c3.594 4.8 9.4 7.9 17.5 9.224c5.904 1 10.8 0.8 14.605-0.643 c4.456-1.645 8.157-4.106 11.104-7.386L219.909 74.028z M193.8 40.31c1.791-2.813 4.95-3.842 9.471-3.085 c4.559 0.8 7.4 3.1 8.4 6.991c0.567 2.1 0.2 7.113-1.152 15.105L189.2 55.754C190.439 48.3 192 43.2 193.8 40.3 z"/>
	<path d="M262.092 49.043c3.164 0.6 4.6 1.8 4.2 3.516c-0.027 0.123-0.645 0.753-1.857 1.885l-8.85 8.293l-2.928-10.665 c-1.289-4.69-2.941-7.287-4.961-7.796l-16.781-3.38l-0.363 1.804c1.891 0.4 3.2 1 3.9 1.7 c1.127 1.3 2 2.9 2.5 4.835l6.07 21.96l-11.41 10.438c-2.756 2.521-4.879 3.791-6.377 3.8 c-0.787-0.031-2.097-0.232-3.939-0.602l-0.365 1.801l14.283 2.877l0.363-1.801l-0.293-0.059c-2.665-0.541-3.864-1.457-3.604-2.758 c0.147-0.723 0.75-1.568 1.813-2.527l10.063-9.173l3.279 11.862c0.252 0.9 0.3 1.7 0.2 2.3 c-0.324 1.605-1.931 2.176-4.826 1.707l-0.362 1.805l27.53 5.545l0.363-1.803c-3.756-0.758-6.148-3.002-7.186-6.732l-6.398-23.178 l10.193-9.532c1.742-1.628 3.424-2.714 5.037-3.254c1.434-0.391 3.09-0.395 4.965-0.018l0.361-1.803l-14.279-2.876L262.092 49.043z "/>
	<path d="M280.452 64.418l1.746 0.614c2.935-7.307 8.295-10.025 16.079-8.149l2.775 0.669l-8.646 35.9 c-0.99 4.097-3.822 5.578-8.5 4.449l-0.431 1.788l28.066 6.769l0.43-1.791c-4.678-1.129-6.522-3.736-5.533-7.832l8.648-35.885 l2.775 0.669c7.785 1.9 11.3 6.7 10.6 14.581l1.834 0.248l1.664-13.325L285.04 51.797L280.452 64.418z"/>
</g>
</svg>
