<?xml version="1.0" encoding="utf-8"?>
<!-- Generator: Adobe Illustrator 16.0.3, SVG Export Plug-In . SVG Version: 6.00 Build 0)  -->
<!DOCTYPE svg PUBLIC "-//W3C//DTD SVG 1.1//EN" "http://www.w3.org/Graphics/SVG/1.1/DTD/svg11.dtd">
<svg version="1.1" id="Layer_1" xmlns="http://www.w3.org/2000/svg" xmlns:xlink="http://www.w3.org/1999/xlink" x="0px" y="0px"
	 width="475px" height="163px" viewBox="0 -1 475 163" enable-background="new 0 -1 475 163" xml:space="preserve">
<g id="off" display="none">
	<g display="inline">
		<g>
			<line fill="none" x1="404.445" y1="133.965" x2="404.445" y2="147.635"/>
			<path d="M404.445,148.137c-0.277,0-0.5-0.225-0.5-0.502v-13.67c0-0.277,0.224-0.502,0.5-0.502c0.275,0,0.501,0.225,0.501,0.502
				v13.67C404.946,147.912,404.722,148.137,404.445,148.137z"/>
		</g>
		<g>
			<line fill="none" x1="417.274" y1="133.965" x2="417.274" y2="147.635"/>
			<path d="M417.274,148.137c-0.277,0-0.501-0.225-0.501-0.502v-13.67c0-0.277,0.224-0.502,0.501-0.502
				c0.276,0,0.501,0.225,0.501,0.502v13.67C417.775,147.912,417.551,148.137,417.274,148.137z"/>
		</g>
		<g>
			<line fill="none" x1="430.104" y1="133.965" x2="430.104" y2="147.635"/>
			<path d="M430.104,148.137c-0.276,0-0.501-0.225-0.501-0.502v-13.67c0-0.277,0.225-0.502,0.501-0.502c0.277,0,0.5,0.225,0.5,0.502
				v13.67C430.604,147.912,430.381,148.137,430.104,148.137z"/>
		</g>
		<g>
			<line fill="none" x1="442.933" y1="133.965" x2="442.933" y2="147.635"/>
			<path d="M442.933,148.137c-0.276,0-0.5-0.225-0.5-0.502v-13.67c0-0.277,0.225-0.502,0.5-0.502c0.276,0,0.501,0.225,0.501,0.502
				v13.67C443.434,147.912,443.21,148.137,442.933,148.137z"/>
		</g>
		<g>
			<line fill="none" x1="455.763" y1="133.965" x2="455.763" y2="147.635"/>
			<path d="M455.763,148.137c-0.276,0-0.501-0.225-0.501-0.502v-13.67c0-0.277,0.225-0.502,0.501-0.502
				c0.277,0,0.501,0.225,0.501,0.502v13.67C456.264,147.912,456.04,148.137,455.763,148.137z"/>
		</g>
		<g>
			<line fill="none" x1="468.591" y1="133.965" x2="468.591" y2="147.635"/>
			<path d="M468.591,148.137c-0.276,0-0.501-0.225-0.501-0.502v-13.67c0-0.277,0.225-0.502,0.501-0.502c0.277,0,0.5,0.225,0.5,0.502
				v13.67C469.092,147.912,468.868,148.137,468.591,148.137z"/>
		</g>
		<g>
			<line fill="none" x1="481.421" y1="133.965" x2="481.421" y2="147.635"/>
			<path d="M481.421,148.137c-0.274,0-0.5-0.225-0.5-0.502v-13.67c0-0.277,0.226-0.502,0.5-0.502c0.277,0,0.502,0.225,0.502,0.502
				v13.67C481.923,147.912,481.698,148.137,481.421,148.137z"/>
		</g>
		<g>
			<line fill="none" x1="494.251" y1="133.965" x2="494.251" y2="147.635"/>
			<path d="M494.251,148.137c-0.277,0-0.5-0.225-0.5-0.502v-13.67c0-0.277,0.223-0.502,0.5-0.502s0.501,0.225,0.501,0.502v13.67
				C494.752,147.912,494.528,148.137,494.251,148.137z"/>
		</g>
		<g>
			<line fill="none" x1="507.079" y1="133.965" x2="507.079" y2="147.635"/>
			<path d="M507.079,148.137c-0.277,0-0.502-0.225-0.502-0.502v-13.67c0-0.277,0.225-0.502,0.502-0.502c0.276,0,0.5,0.225,0.5,0.502
				v13.67C507.579,147.912,507.355,148.137,507.079,148.137z"/>
		</g>
		<g>
			<line fill="none" x1="519.906" y1="133.965" x2="519.906" y2="147.635"/>
			<path d="M519.906,148.137c-0.275,0-0.5-0.225-0.5-0.502v-13.67c0-0.277,0.225-0.502,0.5-0.502c0.276,0,0.502,0.225,0.502,0.502
				v13.67C520.408,147.912,520.184,148.137,519.906,148.137z"/>
		</g>
		<g>
			<line fill="none" x1="532.736" y1="133.965" x2="532.736" y2="147.635"/>
			<path d="M532.736,148.137c-0.277,0-0.5-0.225-0.5-0.502v-13.67c0-0.277,0.223-0.502,0.5-0.502c0.276,0,0.502,0.225,0.502,0.502
				v13.67C533.238,147.912,533.014,148.137,532.736,148.137z"/>
		</g>
		<g>
			<line fill="none" x1="545.566" y1="133.965" x2="545.566" y2="147.635"/>
			<path d="M545.566,148.137c-0.277,0-0.502-0.225-0.502-0.502v-13.67c0-0.277,0.225-0.502,0.502-0.502c0.274,0,0.5,0.225,0.5,0.502
				v13.67C546.066,147.912,545.842,148.137,545.566,148.137z"/>
		</g>
		<path d="M582.311,153.27H370.266c-0.277,0-0.502-0.225-0.502-0.502c0-0.274,0.225-0.5,0.502-0.5h212.045
			c0.277,0,0.5,0.226,0.5,0.5C582.811,153.045,582.588,153.27,582.311,153.27z"/>
		<path d="M579.746,155.832H365.667c-0.276,0-0.5-0.225-0.5-0.502c0-0.275,0.224-0.5,0.5-0.5h214.079c0.277,0,0.502,0.225,0.502,0.5
			C580.248,155.607,580.023,155.832,579.746,155.832z"/>
		<g>
			<path d="M547.4,72.296c-0.211-0.91-0.634-1.7-1.158-2.322c-1.053-1.25-2.371-1.989-3.695-2.514
				c-1.334-0.519-2.709-0.796-4.086-0.931c-2.773-0.206-5.42,0.092-8.076,0.508c-2.643,0.448-5.235,1.094-7.789,1.853
				c-5.106,1.526-10.053,3.498-14.894,5.669c-4.844,2.176-9.573,4.58-14.236,7.103c-9.344,5.006-18.417,10.498-27.3,16.271
				c-0.348,0.229-0.695,0.457-1.043,0.686V28.633c0-0.356-0.286-0.641-0.641-0.641h-9.4V0.858c0-0.354-0.287-0.645-0.641-0.645
				H0.642c-0.279,0-0.537,0.187-0.617,0.47c-0.096,0.341,0.103,0.694,0.444,0.79l0.007,0.004L7.69,3.506
				c2.4,0.692,4.821,1.316,7.204,2.067l7.155,2.224l3.578,1.115l3.546,1.209l7.091,2.422c2.354,0.831,4.684,1.733,7.028,2.594
				c2.343,0.867,4.686,1.731,6.991,2.691l6.946,2.812l6.868,2.987c2.303,0.968,4.533,2.091,6.804,3.128
				c2.274,1.034,4.505,2.153,6.734,3.276l3.346,1.678l3.302,1.767c2.213,1.15,4.385,2.379,6.549,3.623
				c2.185,1.203,4.29,2.543,6.434,3.814c2.101,1.342,4.213,2.666,6.261,4.085c2.048,1.398,4.097,2.861,5.971,4.412l0.007,0.008
				c0.172,0.142,0.411,0.192,0.634,0.114c4.538-1.595,9.141-3.118,13.724-4.645l13.787-4.489c9.205-2.955,18.43-5.845,27.687-8.629
				l13.902-4.117c4.641-1.352,9.292-2.664,13.95-3.949c2.324-0.659,4.664-1.264,6.996-1.89c2.333-0.63,4.667-1.25,7.011-1.833
				c2.343-0.587,4.678-1.209,7.028-1.765l7.048-1.673c0.281-0.066,0.498-0.322,0.498-0.626c0-0.352-0.287-0.64-0.641-0.64l0,0
				l-15.172,0.155l-15.173,0.092l-30.344,0.016l-30.346-0.183l-7.586-0.049c-2.544,0.006-5.02-0.074-7.635,0.002
				c-1.301,0.059-2.614,0.188-3.951,0.528c-0.67,0.175-1.338,0.427-2.011,0.8c-0.662,0.374-1.337,0.936-1.779,1.761
				c-0.422,0.824-0.569,1.837-0.417,2.712c0.136,0.886,0.476,1.658,0.849,2.37c0.383,0.71,0.854,1.333,1.339,1.935
				c0.25,0.312,0.494,0.571,0.785,0.877c0.316,0.326,0.54,0.548,0.751,0.79c0.313,0.354,0.73,0.642,1.214,0.794
				c1.407,0.44,2.907-0.344,3.35-1.75c0.442-1.407-0.34-2.907-1.749-3.35l-0.059-0.02l-0.829-0.26
				c-0.223-0.063-0.482-0.184-0.707-0.292c-0.474-0.219-0.892-0.509-1.26-0.813c-0.732-0.636-1.153-1.359-1.015-2.007
				c0.133-0.69,1.033-1.455,2.092-1.882c1.074-0.44,2.278-0.687,3.497-0.823c1.22-0.126,2.467-0.124,3.739-0.132l3.794-0.023
				l7.586-0.043l30.346-0.184l30.344,0.018c0,0,13.04,0.403,13.04,1.687c0,1.281-8.648,3.805-10.976,4.466
				c-4.665,1.283-9.32,2.598-13.966,3.951l-13.916,4.12c-9.264,2.789-18.496,5.683-27.708,8.638l-13.798,4.493
				c-4.479,1.491-8.945,2.972-13.416,4.537c-1.885-1.54-3.818-2.919-5.793-4.269c-2.067-1.432-4.193-2.766-6.31-4.116
				c-2.157-1.279-4.276-2.627-6.472-3.838c-2.176-1.248-4.358-2.484-6.582-3.642l-3.318-1.771l-3.361-1.688
				c-2.239-1.129-4.48-2.252-6.76-3.288c-2.28-1.043-4.521-2.172-6.831-3.14l-6.893-3.001l-6.969-2.819
				c-2.314-0.964-4.664-1.828-7.013-2.699c-2.351-0.866-4.689-1.77-7.052-2.604l-7.111-2.43c0,0-3.996-1.529-3.996-4.362
				c0-2.83,3.845-3.046,3.845-3.046H453.8V27.99H421.11c-0.229,0.002-0.453,0.124-0.566,0.341c-0.166,0.313-0.045,0.698,0.268,0.864
				c1.787,0.965,3.522,2.027,5.2,3.182c1.666,1.171,3.284,2.411,4.842,3.729c3.111,2.644,6.01,5.54,8.73,8.592
				c2.714,3.063,5.265,6.275,7.649,9.604c2.38,3.328,4.643,6.774,6.644,10.315l0.006,0.01c0.109,0.191,0.318,0.32,0.559,0.32
				c0.354,0,0.641-0.283,0.641-0.64V29.275h8.759v70.186c-3.657,2.393-7.306,4.799-10.905,7.281
				c-4.364,3.006-8.693,6.055-12.981,9.188l-0.002,0.004c-0.154,0.117-0.255,0.305-0.253,0.512c0,0.353,0.287,0.642,0.641,0.642
				h24.144c0.354,0,0.641-0.289,0.641-0.642V99.586c0.494-0.326,0.979-0.662,1.476-0.986c8.862-5.772,17.901-11.285,27.224-16.274
				c4.676-2.465,9.418-4.805,14.259-6.914c4.836-2.104,9.77-4.005,14.826-5.454c2.529-0.718,5.088-1.324,7.672-1.731
				c2.566-0.365,5.229-0.653,7.738-0.385c1.25,0.16,2.475,0.528,3.551,1.107c1.076,0.564,2.006,1.404,2.475,2.331
				c0.935,1.966-0.58,3.196-2.735,3.637c-0.49,0.096-0.957,0.333-1.345,0.704c-1.069,1.037-1.098,2.746-0.063,3.818
				c1.039,1.074,2.748,1.102,3.82,0.064l0.159-0.152c1.188-1.15,2.433-2.412,3.047-4.237
				C547.521,74.215,547.613,73.208,547.4,72.296z M453.119,58.652c-0.962,0.372-2.895-2.365-4.844-5.092
				c-2.408-3.364-4.985-6.609-7.732-9.708c-2.756-3.093-5.694-6.033-8.861-8.723c-1.586-1.34-3.573-2.758-3.199-4.039
				c0.588-1.979,3.098-1.815,3.098-1.815h22.22v24.42C453.8,53.695,454.08,58.277,453.119,58.652z M463.841,115.803H451.13
				c0,0-2.458-0.135-3.446-1.629c-0.988-1.496,2.12-3.988,2.12-3.988s2.457-1.77,3.691-2.641c3.419-2.41,6.867-4.781,10.347-7.1
				L463.841,115.803L463.841,115.803z"/>
			<path d="M474.952,126.484h-61.291c0,0,1.12-2.564,0.078-3.605c-1.041-1.041-3.152-0.988-3.152-0.988l29.564-29.565
				c0.113-0.115,0.189-0.277,0.19-0.453c0.001-0.353-0.285-0.638-0.636-0.64l-10.977-0.045l-10.978,0.136
				c-7.316,0.163-14.631,0.389-21.938,0.75c-3.657,0.141-7.308,0.391-10.959,0.6c-3.654,0.195-7.303,0.451-10.95,0.729
				c-7.3,0.505-14.587,1.156-21.872,1.845l-10.917,1.103L330.21,97.57c-7.262,0.883-14.521,1.785-21.767,2.809
				c-3.627,0.473-7.24,1.039-10.859,1.566c-3.622,0.521-7.234,1.088-10.845,1.676c-7.228,1.135-14.435,2.391-21.636,3.686
				s-14.381,2.697-21.554,4.137l-10.742,2.248l-10.714,2.379c-7.13,1.642-14.247,3.343-21.336,5.152
				c-7.089,1.814-14.154,3.723-21.188,5.742c-7.034,2.02-14.03,4.176-20.993,6.438l-10.396,3.541
				c-3.431,1.275-6.897,2.457-10.301,3.812c-3.411,1.332-6.828,2.649-10.188,4.113c-3.393,1.381-6.712,2.938-10.044,4.467
				c-6.606,3.174-13.12,6.578-19.293,10.584c-0.173,0.115-0.292,0.317-0.292,0.543c0.002,0.354,0.29,0.638,0.644,0.636h153.83
				c0.355,0,0.641-0.285,0.641-0.642v-34.291c0-0.103-0.025-0.211-0.076-0.306c-0.168-0.311-0.557-0.426-0.867-0.26l-0.004,0.002
				c-2.514,1.59-4.994,3.158-7.451,4.795c-2.452,1.631-4.883,3.31-7.191,5.166c-1.155,0.931-2.292,1.896-3.338,2.98
				c-0.533,0.531-1.021,1.117-1.497,1.723c-0.466,0.615-0.93,1.258-1.274,2.017c-0.399,0.721-0.601,1.622-0.613,2.598
				c0.087,0.47,0.096,1.021,0.34,1.455l0.319,0.694c0.129,0.21,0.283,0.39,0.423,0.595c0.284,0.433,0.616,0.735,0.958,1.051
				c0.347,0.341,0.69,0.613,1.049,0.875c0.728,0.574,1.438,0.979,2.187,1.517c0.501,0.36,1.129,0.561,1.792,0.512
				c1.505-0.107,2.639-1.412,2.531-2.916c-0.105-1.504-1.412-2.639-2.917-2.531h-0.022c-0.631,0.045-1.365,0.104-1.936-0.02
				c-0.312-0.039-0.636-0.074-0.877-0.182c-0.272-0.089-0.562-0.175-0.76-0.312c-0.517-0.232-0.744-0.603-0.987-1.048
				c-0.111-0.483-0.18-1.086,0.036-1.707c0.161-0.622,0.471-1.247,0.841-1.838c0.364-0.596,0.802-1.159,1.268-1.698
				c0.93-1.091,2.145-2.129,3.245-3.084c2.186-1.923,4.365-3.521,6.826-5.109c0.838-0.536,2.549-1.604,2.549-1.604
				s-0.48,2.244,1.015,3.207c1.496,0.961,3.151,0.428,3.151,0.428v26.652H100.965c5.54-3.451,11.339-6.49,17.231-9.322
				c3.315-1.521,6.617-3.068,9.995-4.447c3.347-1.453,6.75-2.768,10.151-4.094c3.391-1.348,6.847-2.527,10.269-3.799l10.367-3.533
				c6.945-2.254,13.925-4.406,20.946-6.424c7.02-2.016,14.074-3.92,21.15-5.73c7.08-1.807,14.185-3.506,21.305-5.145l10.7-2.377
				l10.726-2.246c7.165-1.434,14.336-2.836,21.527-4.131c7.193-1.291,14.391-2.547,21.609-3.678
				c3.605-0.589,7.216-1.152,10.832-1.675c3.615-0.53,7.225-1.096,10.847-1.565c7.235-1.021,14.485-1.922,21.739-2.81l10.894-1.217
				l10.903-1.103c7.275-0.686,14.554-1.336,21.842-1.844c3.643-0.273,7.287-0.533,10.936-0.727c3.646-0.211,7.291-0.459,10.94-0.598
				c7.298-0.359,14.6-0.584,21.903-0.75l10.956-0.136c0,0-1.667,2.664-0.573,4.214c1.095,1.547,3.926,1.895,3.926,1.895
				l-28.095,28.096c-0.114,0.115-0.188,0.277-0.188,0.453c0,0.355,0.288,0.643,0.641,0.643h70.507c0.354,0,0.641-0.287,0.641-0.643
				C475.592,126.773,475.305,126.484,474.952,126.484z"/>
			<path d="M114.579,46.655c-0.233-2.26-2.12-4.027-4.44-4.027c-1.797,0-3.336,1.064-4.052,2.588
				c1.341,0.948,2.663,1.933,3.96,2.993C111.558,47.678,113.068,47.169,114.579,46.655z"/>
			<path d="M251.896,155.555c-2.318,0.057-4.185,1.932-4.213,4.26h4.213V155.555z"/>
		</g>
		<g>
			<path d="M402.773,75.113c0.615,1.825,1.859,3.087,3.047,4.237l0.16,0.152c1.071,1.037,2.781,1.01,3.817-0.064
				c1.039-1.072,1.009-2.781-0.063-3.818c-0.387-0.371-0.853-0.608-1.343-0.704c-2.155-0.44-3.67-1.671-2.735-3.637
				c0.471-0.927,1.398-1.767,2.477-2.331c1.074-0.579,2.301-0.947,3.552-1.107c2.505-0.269,5.172,0.02,7.737,0.385
				c2.584,0.407,5.144,1.014,7.668,1.731c5.059,1.449,9.99,3.351,14.831,5.454c4.84,2.108,9.582,4.448,14.258,6.914
				c9.321,4.989,18.36,10.502,27.222,16.274c0.493,0.324,0.979,0.66,1.478,0.986v16.859c0,0.352,0.284,0.641,0.641,0.641h24.143
				c0.354,0,0.641-0.289,0.641-0.641c0.004-0.207-0.102-0.396-0.254-0.512l-0.002-0.004c-4.287-3.134-8.617-6.183-12.979-9.188
				c-3.601-2.482-7.25-4.89-10.904-7.281V29.275h8.758v35.036c0,0.356,0.289,0.64,0.64,0.64c0.241,0,0.449-0.129,0.56-0.32
				l0.006-0.01c2-3.541,4.265-6.987,6.644-10.315c2.386-3.329,4.937-6.541,7.65-9.604c2.722-3.052,5.618-5.948,8.729-8.592
				c1.559-1.318,3.178-2.559,4.844-3.729c1.676-1.154,3.412-2.217,5.197-3.182c0.315-0.166,0.436-0.551,0.27-0.864
				c-0.115-0.217-0.342-0.339-0.568-0.341h-32.688V1.497H920.57c0,0,3.844,0.216,3.844,3.046c0,2.833-3.996,4.362-3.996,4.362
				l-7.111,2.43c-2.362,0.834-4.698,1.737-7.051,2.604c-2.35,0.871-4.699,1.735-7.014,2.699l-6.969,2.819l-6.894,3.001
				c-2.313,0.968-4.553,2.097-6.832,3.14c-2.281,1.036-4.521,2.159-6.76,3.288l-3.361,1.688l-3.317,1.771
				c-2.224,1.157-4.406,2.394-6.582,3.642c-2.195,1.211-4.314,2.559-6.474,3.838c-2.114,1.351-4.241,2.685-6.309,4.116
				c-1.978,1.35-3.91,2.729-5.793,4.269c-4.472-1.565-8.937-3.046-13.418-4.537l-13.795-4.493
				c-9.213-2.955-18.445-5.849-27.709-8.638l-13.916-4.12c-4.646-1.354-9.302-2.668-13.968-3.951
				c-2.325-0.661-10.975-3.185-10.975-4.466c0-1.283,13.039-1.687,13.039-1.687l30.346-0.018l30.347,0.184l7.586,0.043l3.793,0.023
				c1.271,0.008,2.52,0.006,3.74,0.132c1.219,0.137,2.424,0.383,3.493,0.823c1.063,0.427,1.964,1.191,2.095,1.882
				c0.139,0.647-0.283,1.371-1.017,2.007c-0.367,0.305-0.785,0.595-1.26,0.813c-0.225,0.108-0.484,0.229-0.705,0.292l-0.83,0.26
				l-0.057,0.02c-1.41,0.442-2.193,1.942-1.75,3.35c0.442,1.406,1.942,2.19,3.35,1.75c0.486-0.152,0.902-0.439,1.215-0.794
				c0.211-0.242,0.435-0.464,0.75-0.79c0.293-0.306,0.535-0.565,0.785-0.877c0.486-0.602,0.957-1.225,1.338-1.935
				c0.373-0.712,0.715-1.484,0.851-2.37c0.151-0.875,0.004-1.888-0.416-2.712c-0.441-0.825-1.115-1.387-1.777-1.761
				c-0.674-0.373-1.342-0.625-2.014-0.8c-1.336-0.34-2.648-0.47-3.949-0.528c-2.615-0.076-5.092,0.004-7.635-0.002l-7.586,0.049
				l-30.347,0.183l-30.346-0.016l-15.17-0.092l-15.174-0.155h-0.002c-0.353,0-0.642,0.288-0.642,0.64c0,0.304,0.22,0.56,0.498,0.626
				l7.05,1.673c2.35,0.556,4.686,1.178,7.028,1.765c2.344,0.583,4.678,1.203,7.01,1.833c2.334,0.626,4.671,1.23,6.996,1.89
				c4.658,1.285,9.31,2.598,13.949,3.949l13.904,4.117c9.256,2.784,18.479,5.674,27.686,8.629l13.787,4.489
				c4.582,1.526,9.187,3.05,13.723,4.645c0.226,0.078,0.464,0.027,0.638-0.114l0.006-0.008c1.875-1.551,3.922-3.014,5.971-4.412
				c2.047-1.419,4.16-2.743,6.262-4.085c2.144-1.271,4.25-2.611,6.435-3.814c2.166-1.244,4.336-2.473,6.549-3.623l3.303-1.767
				l3.349-1.678c2.229-1.123,4.459-2.242,6.731-3.276c2.271-1.037,4.502-2.16,6.806-3.128l6.866-2.987l6.947-2.812
				c2.306-0.96,4.648-1.824,6.99-2.691c2.342-0.86,4.674-1.763,7.027-2.594l7.092-2.422l3.547-1.209l3.576-1.115l7.157-2.224
				c2.38-0.751,4.802-1.375,7.201-2.067l7.215-2.029l0.009-0.004c0.342-0.096,0.541-0.449,0.442-0.79
				c-0.08-0.283-0.336-0.47-0.617-0.47H495.559c-0.351,0-0.64,0.29-0.64,0.645v27.135h-9.4c-0.354,0-0.64,0.284-0.64,0.641v69.986
				c-0.349-0.229-0.696-0.457-1.044-0.686c-8.883-5.773-17.955-11.267-27.302-16.271c-4.661-2.523-9.392-4.927-14.234-7.103
				c-4.842-2.171-9.79-4.143-14.895-5.669c-2.555-0.759-5.147-1.404-7.79-1.853c-2.656-0.416-5.304-0.714-8.076-0.508
				c-1.378,0.135-2.752,0.412-4.086,0.931c-1.325,0.524-2.644,1.264-3.697,2.514c-0.526,0.622-0.949,1.412-1.159,2.322
				C402.387,73.208,402.478,74.215,402.773,75.113z M496.201,53.695v-24.42h22.219c0,0,2.512-0.163,3.098,1.815
				c0.375,1.281-1.612,2.699-3.198,4.039c-3.166,2.689-6.105,5.63-8.86,8.723c-2.745,3.099-5.322,6.344-7.73,9.708
				c-1.951,2.727-3.885,5.464-4.846,5.092C495.921,58.277,496.201,53.695,496.201,53.695z M486.161,100.445
				c3.479,2.318,6.927,4.688,10.346,7.1c1.232,0.871,3.689,2.641,3.689,2.641s3.11,2.492,2.121,3.988
				c-0.988,1.494-3.443,1.629-3.443,1.629h-12.713V100.445z"/>
			<path d="M475.048,126.484h61.292c0,0-1.121-2.564-0.082-3.605c1.043-1.041,3.154-0.988,3.154-0.988L509.85,92.324
				c-0.113-0.115-0.191-0.277-0.191-0.453c-0.002-0.352,0.283-0.637,0.637-0.639l10.979-0.045l10.975,0.135
				c7.316,0.164,14.631,0.389,21.939,0.75c3.655,0.141,7.307,0.391,10.959,0.6c3.653,0.195,7.303,0.451,10.948,0.73
				c7.299,0.504,14.588,1.156,21.871,1.844l10.918,1.102l10.908,1.223c7.26,0.884,14.521,1.785,21.764,2.81
				c3.629,0.474,7.242,1.039,10.861,1.565c3.621,0.521,7.234,1.089,10.844,1.677c7.229,1.135,14.437,2.392,21.638,3.687
				c7.196,1.295,14.381,2.696,21.553,4.137l10.742,2.248l10.713,2.379c7.131,1.641,14.248,3.342,21.338,5.152
				c7.088,1.813,14.152,3.723,21.188,5.741c7.036,2.019,14.029,4.177,20.992,6.438l10.396,3.541
				c3.432,1.274,6.897,2.457,10.301,3.811c3.412,1.332,6.828,2.65,10.188,4.113c3.396,1.381,6.712,2.938,10.046,4.467
				c6.604,3.174,13.118,6.578,19.293,10.584c0.172,0.115,0.291,0.318,0.289,0.543c-0.003,0.354-0.289,0.637-0.644,0.635h-153.83
				c-0.354,0-0.641-0.285-0.641-0.641v-34.291c0-0.102,0.024-0.211,0.076-0.305c0.168-0.312,0.557-0.426,0.866-0.26l0.007,0.002
				c2.514,1.59,4.993,3.157,7.448,4.795c2.453,1.631,4.884,3.309,7.191,5.166c1.156,0.93,2.293,1.895,3.342,2.979
				c0.531,0.531,1.019,1.117,1.494,1.724c0.467,0.614,0.932,1.258,1.272,2.016c0.4,0.721,0.604,1.623,0.613,2.598
				c-0.086,0.469-0.094,1.021-0.34,1.455l-0.318,0.695c-0.127,0.209-0.28,0.389-0.424,0.594c-0.283,0.432-0.617,0.736-0.959,1.051
				c-0.346,0.34-0.688,0.613-1.049,0.875c-0.727,0.574-1.436,0.979-2.184,1.516c-0.505,0.361-1.132,0.562-1.795,0.513
				c-1.505-0.106-2.638-1.412-2.529-2.916c0.104-1.504,1.412-2.64,2.916-2.531h0.021c0.631,0.045,1.365,0.104,1.938-0.021
				c0.311-0.039,0.635-0.073,0.875-0.182c0.272-0.088,0.563-0.174,0.762-0.311c0.516-0.232,0.742-0.602,0.986-1.047
				c0.111-0.484,0.18-1.086-0.035-1.707c-0.162-0.623-0.473-1.248-0.846-1.838c-0.361-0.596-0.797-1.16-1.267-1.699
				c-0.93-1.09-2.146-2.129-3.244-3.084c-2.186-1.922-4.364-3.521-6.827-5.109c-0.836-0.537-2.548-1.605-2.548-1.605
				s0.48,2.244-1.014,3.207c-1.496,0.962-3.149,0.429-3.149,0.429v26.651h150.932c-5.541-3.45-11.34-6.489-17.232-9.321
				c-3.313-1.521-6.614-3.068-9.996-4.447c-3.344-1.453-6.75-2.769-10.147-4.094c-3.394-1.349-6.851-2.527-10.271-3.8l-10.366-3.532
				c-6.947-2.254-13.927-4.406-20.945-6.424c-7.023-2.017-14.074-3.921-21.152-5.73c-7.078-1.807-14.182-3.506-21.303-5.145
				l-10.699-2.378l-10.727-2.245c-7.164-1.435-14.338-2.837-21.529-4.132c-7.19-1.291-14.389-2.547-21.606-3.678
				c-3.609-0.588-7.216-1.152-10.832-1.674c-3.615-0.531-7.226-1.096-10.849-1.566c-7.235-1.021-14.485-1.922-21.739-2.809
				l-10.894-1.217l-10.904-1.102c-7.272-0.687-14.553-1.336-21.842-1.844c-3.643-0.273-7.285-0.533-10.934-0.728
				c-3.646-0.211-7.293-0.459-10.943-0.599c-7.295-0.358-14.598-0.584-21.899-0.75l-10.957-0.135c0,0,1.666,2.664,0.573,4.213
				c-1.096,1.547-3.928,1.896-3.928,1.896l28.096,28.096c0.115,0.115,0.188,0.277,0.188,0.453c0,0.354-0.287,0.644-0.644,0.644
				H475.05c-0.353,0-0.641-0.287-0.641-0.644C474.407,126.773,474.696,126.484,475.048,126.484z"/>
			<path d="M835.422,46.655c0.23-2.26,2.119-4.027,4.441-4.027c1.795,0,3.334,1.064,4.049,2.588
				c-1.342,0.948-2.662,1.933-3.959,2.993C838.441,47.678,836.932,47.169,835.422,46.655z"/>
			<path d="M698.104,155.555c2.318,0.057,4.185,1.932,4.214,4.26h-4.214V155.555z"/>
		</g>
		<path d="M595.727,32.672c0.535-4.175-1.58-6.564-6.348-7.179l0.238-1.827l17.781,2.292c0.534,0.066,1.079,0.556,1.637,1.46
			c0.563,0.903,0.901,1.365,1.024,1.383c3.412-1.782,6.761-2.463,10.05-2.038c15.496,1.995,22.516,8.63,21.063,19.901L638.3,68.975
			c-0.541,4.168,1.576,6.561,6.345,7.175l-0.232,1.827l-27.863-3.588l0.238-1.825c4.271,0.548,6.672-1.262,7.211-5.432l2.76-21.416
			c1.369-10.651-0.922-16.359-6.881-17.128c-3.065-0.397-6.231,0.322-9.494,2.146c-0.012,0.757-0.131,2.017-0.354,3.781
			l-3.906,30.313c-0.537,4.173,1.328,6.531,5.602,7.083l-0.233,1.825l-27.859-3.59l0.236-1.825c4.766,0.615,7.418-1.163,7.955-5.334
			L595.727,32.672z"/>
		<path d="M684.557,80.909c4.109-1.471,7.56-3.768,10.353-6.881l1.373,1.24c-2.947,3.28-6.648,5.742-11.104,7.386
			c-3.828,1.418-8.701,1.631-14.604,0.643c-8.054-1.346-13.879-4.42-17.474-9.224c-3.59-4.803-4.735-11.098-3.438-18.881
			c1.299-7.761,4.451-13.336,9.465-16.729c4.971-3.37,11.453-4.394,19.447-3.056c7.981,1.332,13.779,4.403,17.396,9.214
			c3.638,4.836,4.81,11.133,3.513,18.895l-35.586-5.944c-1.509,9.018-1.98,14.603-1.427,16.754c1.033,4.008,3.834,6.395,8.406,7.16
			C676.375,82.402,680.936,82.209,684.557,80.909z M685.553,59.321c1.338-7.992,1.719-13.031,1.152-15.105
			c-1.064-3.9-3.875-6.229-8.435-6.991c-4.521-0.757-7.68,0.272-9.471,3.085c-1.828,2.882-3.361,8.03-4.6,15.444L685.553,59.321z"/>
		<path d="M744.762,94.635l-0.362,1.803l-27.531-5.545l0.363-1.805c2.895,0.469,4.502-0.102,4.825-1.707
			c0.123-0.615,0.06-1.375-0.192-2.279l-3.279-11.862l-10.063,9.173c-1.063,0.959-1.666,1.805-1.813,2.527
			c-0.26,1.301,0.939,2.217,3.604,2.758l0.293,0.059l-0.363,1.801L695.96,86.68l0.365-1.801c1.842,0.369,3.151,0.57,3.938,0.602
			c1.498-0.018,3.621-1.287,6.377-3.809l11.41-10.438l-6.069-21.96c-0.55-1.964-1.388-3.573-2.515-4.835
			c-0.698-0.779-1.989-1.36-3.881-1.739l0.363-1.804l16.781,3.38c2.02,0.509,3.672,3.106,4.961,7.796l2.928,10.665l8.85-8.293
			c1.213-1.132,1.83-1.762,1.857-1.885c0.342-1.704-1.07-2.876-4.234-3.516l0.363-1.802l14.279,2.876l-0.361,1.803
			c-1.875-0.377-3.531-0.373-4.965,0.018c-1.613,0.54-3.295,1.626-5.037,3.254l-10.193,9.532l6.398,23.178
			C738.613,91.633,741.006,93.877,744.762,94.635z"/>
		<path d="M806.963,63.11l-1.664,13.325l-1.834-0.248c0.717-7.847-2.815-12.705-10.602-14.581l-2.775-0.669l-8.647,35.885
			c-0.99,4.096,0.854,6.703,5.532,7.832l-0.43,1.791l-28.066-6.769l0.431-1.788c4.678,1.129,7.51-0.353,8.5-4.449l8.646-35.888
			l-2.774-0.669c-7.785-1.876-13.146,0.842-16.08,8.149l-1.746-0.614l4.588-12.621L806.963,63.11z"/>
		<path fill="none" stroke="#000000" stroke-width="0.5" d="M692.596,88.92"/>
		<g>
			<path d="M173.25,56.331c7.333-1.769,13.4-1.706,18.201,0.191c5.771,2.284,9.299,6.094,10.583,11.42
				c1.285,5.33-0.189,10.039-4.424,14.126c-3.379,3.25-8.822,5.781-16.326,7.588l-8.918,2.152l1.049,4.348
				c0.987,4.094,3.819,5.576,8.496,4.449l0.432,1.789l-28.066,6.768l-0.432-1.791c4.678-1.127,6.523-3.738,5.537-7.834l-7.36-30.533
				c-1.03-3.529-3.799-4.748-8.306-3.662l-0.433-1.788L173.25,56.331z M171.936,90.02l8.917-2.151
				c7.017-1.691,9.4-7.201,7.151-16.532c-2.531-10.504-7.305-14.905-14.322-13.218l-8.917,2.152L171.936,90.02z"/>
			<path d="M229.798,44.204c7.403-1.436,13.459-1.098,18.169,1.014c5.659,2.539,8.84,5.622,9.543,9.25
				c1.2,6.186-2.25,11.864-10.345,17.033c2.26-0.323,3.935-0.153,5.021,0.518l10.523,10.25c0.833,0.807,2.755,0.918,5.768,0.334
				l0.347,1.789c-3.325,1.207-6.63,2.129-9.914,2.766c-5.892,1.143-10.906-0.729-15.043-5.619l-6.403-7.564l-7.14,1.383l1.535,7.914
				c0.801,4.133,3.562,5.74,8.285,4.824l0.351,1.812l-28.335,5.491l-0.351-1.809c4.723-0.916,6.684-3.439,5.883-7.572l-5.976-30.824
				c-0.871-3.57-3.581-4.912-8.131-4.03l-0.351-1.81L229.798,44.204z M229.973,73.548l5.313-1.029
				c7.083-1.373,9.746-6.598,7.987-15.673c-1.668-8.597-6.042-12.206-13.125-10.833l-5.312,1.029L229.973,73.548z"/>
			<path d="M307.779,74.374c3.427-2.691,5.969-5.954,7.632-9.786l1.692,0.739c-1.756,4.037-4.484,7.539-8.183,10.502
				c-3.183,2.553-7.726,4.294-13.631,5.229c-8.058,1.269-14.544,0.193-19.465-3.224c-4.919-3.416-7.993-9.013-9.22-16.798
				c-1.225-7.76,0.002-14.039,3.68-18.834c3.641-4.767,9.461-7.777,17.456-9.039c7.981-1.26,14.444-0.183,19.39,3.229
				c4.973,3.435,8.071,9.029,9.295,16.789l-35.585,5.61c1.423,9.021,2.735,14.46,3.941,16.322c2.243,3.469,5.651,4.846,10.222,4.124
				C300.502,78.37,304.761,76.75,307.779,74.374z M301.904,53.609c-1.262-7.995-2.487-12.885-3.682-14.671
				c-2.238-3.358-5.637-4.68-10.197-3.959c-4.521,0.712-7.188,2.686-7.993,5.913c-0.822,3.31-0.647,8.672,0.521,16.083
				L301.904,53.609z"/>
			<path d="M321.928,35.972c-1.119-2.017-2.375-3.329-3.76-3.936c-0.96-0.425-2.422-0.515-4.382-0.272l-0.228-1.824l16.982-2.109
				c2.023-0.248,4.116,1.729,6.277,5.936l12.929,23.125l6.81-25.576c0.283-1.068,0.408-1.733,0.377-1.991
				c-0.238-1.913-1.871-2.685-4.899-2.309l-0.228-1.823l11.621-1.439l0.227,1.821c-2.663,0.393-4.412,2.351-5.247,5.872
				l-7.366,27.781l-3.773,14.556l-2.252,0.278c-1.328,0.166-2.287-0.302-2.877-1.399l-2.886-5.43L321.928,35.972z"/>
		</g>
	</g>
</g>
<g>
	<path fill="none" d="M98.063,159.249c0-0.226,0.119-0.428,0.292-0.543c6.173-4.006,12.687-7.41,19.293-10.584
		c3.332-1.528,6.651-3.086,10.044-4.467c3.36-1.464,6.777-2.781,10.188-4.113c3.404-1.354,6.87-2.536,10.301-3.812l10.396-3.541
		c6.963-2.262,13.959-4.418,20.993-6.438c7.034-2.02,14.099-3.928,21.188-5.742c7.089-1.81,14.206-3.511,21.336-5.152l10.714-2.379
		l10.742-2.248c7.173-1.439,14.353-2.842,21.554-4.137s14.408-2.551,21.636-3.686c3.61-0.588,7.223-1.155,10.845-1.676
		c3.619-0.527,7.232-1.094,10.859-1.566c7.246-1.023,14.505-1.926,21.767-2.809l10.906-1.221l10.917-1.103
		c7.285-0.688,14.572-1.34,21.872-1.845c3.647-0.278,7.296-0.534,10.95-0.729c3.651-0.209,7.302-0.459,10.959-0.6
		c7.307-0.361,14.621-0.587,21.938-0.75l10.978-0.136l10.977,0.045c0.351,0.002,0.637,0.287,0.636,0.64
		c-0.001,0.176-0.077,0.338-0.19,0.453l-29.564,29.565c0,0,2.111-0.053,3.152,0.988c1.042,1.041-0.078,3.605-0.078,3.605h61.291
		c0.017,0,0.031,0.009,0.048,0.01V92.054c-2.817,1.751-5.621,3.522-8.4,5.333c-0.496,0.324-0.981,0.66-1.476,0.986v16.859
		c0,0.353-0.287,0.642-0.641,0.642H440.34c-0.354,0-0.641-0.289-0.641-0.642c-0.002-0.207,0.099-0.395,0.253-0.512l0.002-0.004
		c4.288-3.133,8.617-6.182,12.981-9.188c3.6-2.482,7.248-4.889,10.905-7.281V85.371c-2.535-1.453-5.085-2.88-7.661-4.259
		c-4.676-2.466-9.418-4.806-14.258-6.914c-4.841-2.103-9.772-4.005-14.831-5.454c-2.524-0.717-5.084-1.324-7.668-1.731
		c-2.565-0.365-5.232-0.654-7.737-0.385c-1.251,0.16-2.478,0.528-3.552,1.107c-1.078,0.564-2.006,1.404-2.477,2.331
		c-0.935,1.966,0.58,3.197,2.735,3.637c0.49,0.096,0.956,0.333,1.343,0.704c1.071,1.037,1.102,2.746,0.063,3.818
		c-1.036,1.074-2.746,1.101-3.817,0.064l-0.16-0.152c-1.188-1.15-2.432-2.412-3.047-4.237c-0.296-0.898-0.387-1.905-0.178-2.813
		c0.21-0.91,0.633-1.7,1.159-2.322c1.054-1.25,2.372-1.99,3.697-2.514c1.334-0.519,2.708-0.796,4.086-0.931
		c2.772-0.206,5.42,0.092,8.076,0.508c2.643,0.449,5.235,1.094,7.79,1.853c5.104,1.526,10.053,3.498,14.895,5.669
		c4.843,2.176,9.573,4.58,14.234,7.103c2.455,1.314,4.889,2.667,7.308,4.045V28.062h-8.759v35.032c0,0.357-0.287,0.64-0.641,0.64
		c-0.24,0-0.449-0.129-0.559-0.32l-0.006-0.01c-2.001-3.541-4.264-6.987-6.644-10.315c-2.385-3.329-4.936-6.541-7.649-9.604
		c-2.721-3.052-5.619-5.948-8.73-8.592c-1.558-1.318-3.176-2.558-4.842-3.729c-1.678-1.155-3.413-2.217-5.2-3.182
		c-0.313-0.166-0.434-0.551-0.268-0.864c0.113-0.217,0.338-0.339,0.566-0.341H453.8V0.281H29.426c0,0-3.845,0.216-3.845,3.046
		c0,2.833,3.996,4.362,3.996,4.362l7.111,2.43c2.363,0.834,4.701,1.738,7.052,2.604c2.349,0.871,4.699,1.735,7.013,2.699
		l6.969,2.819l6.893,3.001c2.31,0.968,4.551,2.097,6.831,3.14c2.28,1.036,4.521,2.159,6.76,3.288l3.361,1.688l3.318,1.771
		c2.224,1.158,4.406,2.394,6.582,3.642c2.196,1.211,4.315,2.559,6.472,3.838c2.117,1.35,4.243,2.684,6.31,4.116
		c0.705,0.481,1.402,0.971,2.095,1.465c-0.086-0.062-0.171-0.126-0.257-0.188c0.716-1.524,2.255-2.588,4.052-2.588
		c2.319,0,4.206,1.767,4.439,4.025c2.958-1.005,5.916-1.997,8.879-2.983l13.798-4.493c9.212-2.955,18.444-5.849,27.708-8.638
		l13.916-4.12c4.646-1.353,9.301-2.668,13.966-3.951c2.328-0.661,10.976-3.185,10.976-4.466c0-1.284-13.04-1.687-13.04-1.687
		l-30.344-0.018l-30.346,0.184l-7.586,0.043l-3.794,0.023c-1.272,0.008-2.519,0.006-3.739,0.132
		c-1.219,0.136-2.423,0.383-3.497,0.823c-1.059,0.427-1.959,1.192-2.092,1.882c-0.138,0.648,0.283,1.371,1.015,2.007
		c0.368,0.304,0.786,0.594,1.26,0.813c0.225,0.108,0.484,0.229,0.707,0.292l0.829,0.26l0.059,0.02
		c1.409,0.443,2.191,1.943,1.749,3.35c-0.443,1.406-1.943,2.19-3.35,1.75c-0.484-0.152-0.901-0.44-1.214-0.794
		c-0.211-0.242-0.435-0.464-0.751-0.79c-0.291-0.306-0.535-0.565-0.785-0.877c-0.485-0.602-0.956-1.225-1.339-1.935
		c-0.373-0.712-0.713-1.484-0.849-2.37c-0.152-0.875-0.005-1.888,0.417-2.712c0.442-0.825,1.117-1.387,1.779-1.761
		c0.673-0.373,1.341-0.625,2.011-0.8c1.337-0.34,2.65-0.469,3.951-0.528c2.615-0.076,5.091,0.004,7.635-0.002l7.586,0.049
		l30.346,0.183l30.344-0.016l15.173-0.092l15.172-0.155c0.354,0,0.641,0.288,0.641,0.64c0,0.304-0.217,0.56-0.498,0.626
		l-7.048,1.673c-2.35,0.556-4.685,1.178-7.028,1.765c-2.344,0.583-4.678,1.203-7.011,1.833c-2.332,0.626-4.672,1.231-6.996,1.89
		c-4.658,1.285-9.309,2.597-13.95,3.949l-13.902,4.117c-9.257,2.784-18.482,5.674-27.687,8.629l-13.787,4.489
		c-4.583,1.527-9.186,3.05-13.724,4.645c-0.223,0.078-0.462,0.028-0.634-0.114l-0.007-0.008c-1.874-1.551-3.923-3.014-5.971-4.412
		c-2.048-1.419-4.16-2.743-6.261-4.085c-2.144-1.271-4.249-2.611-6.434-3.814c-2.164-1.244-4.336-2.473-6.549-3.623l-3.302-1.767
		l-3.346-1.678c-2.229-1.123-4.46-2.242-6.734-3.276c-2.271-1.037-4.501-2.16-6.804-3.128l-6.868-2.987l-6.946-2.812
		c-2.305-0.96-4.648-1.824-6.991-2.691c-2.344-0.861-4.674-1.763-7.028-2.594l-7.091-2.422l-3.546-1.209l-3.578-1.115L14.894,4.36
		C12.511,3.609,10.09,2.985,7.69,2.293L0.642,0.311v159.476h97.741C98.196,159.677,98.064,159.482,98.063,159.249z M143.283,62.341
		l29.967-7.223c7.333-1.769,13.4-1.706,18.201,0.191c5.771,2.284,9.299,6.094,10.583,11.42c1.285,5.33-0.189,10.039-4.424,14.126
		c-3.379,3.25-8.822,5.781-16.326,7.588l-8.918,2.152l1.049,4.348c0.987,4.094,3.819,5.576,8.496,4.449l0.432,1.789l-28.066,6.768
		l-0.432-1.791c4.678-1.127,6.523-3.738,5.537-7.834l-7.36-30.533c-1.03-3.529-3.799-4.748-8.306-3.662L143.283,62.341z
		 M152.203,111.547l-0.149,0.035l-0.035-0.148l-1.747-7.354l-0.031-0.129l0.127-0.031l2.828-0.674
		c0.938-0.236,1.865-0.527,2.621-1.1c0.37-0.285,0.66-0.666,0.786-1.111c0.131-0.441,0.108-0.924,0.027-1.393
		c-0.184-0.938-0.438-1.885-0.653-2.828l-2.696-11.326l-2.696-11.327l-1.348-5.663c-0.141-0.459-0.328-0.92-0.669-1.264
		c-0.34-0.345-0.819-0.527-1.298-0.576c-0.965-0.13-1.937,0.067-2.883,0.25c0.947-0.188,1.914-0.391,2.885-0.267
		c0.481,0.046,0.966,0.228,1.313,0.575c0.349,0.347,0.54,0.812,0.685,1.273l1.379,5.656l2.76,11.31l2.76,11.311
		c0.222,0.949,0.477,1.873,0.672,2.84c0.086,0.482,0.117,0.998-0.024,1.49c-0.136,0.494-0.461,0.924-0.856,1.229
		c-0.795,0.61-1.769,0.918-2.699,1.157l-2.703,0.66l1.722,7.068l33.453-8.163l0.116,0.489L152.203,111.547z M208.759,54.116
		c-0.147-0.438-0.389-0.819-0.718-1.068c-0.689-0.471-1.466-0.469-2.048-0.489c-0.598,0.019-1.065,0.062-1.38,0.122
		c-0.316,0.046-0.485,0.07-0.485,0.07s0.169-0.026,0.485-0.076c0.314-0.064,0.782-0.112,1.379-0.138
		c0.585,0.014,1.363-0.001,2.077,0.474c0.34,0.252,0.593,0.642,0.749,1.088c0.153,0.442,0.22,0.937,0.328,1.435
		c0.802,4.019,1.873,9.376,2.943,14.733c1.071,5.357,2.141,10.713,2.944,14.734c0.209,0.978,0.384,2.043-0.091,2.882
		c-0.473,0.817-1.226,1.168-1.78,1.403c-0.572,0.224-1.055,0.351-1.363,0.42c-0.312,0.07-0.479,0.106-0.479,0.106l-0.109-0.486
		c0,0,0.167-0.035,0.48-0.102c0.317-0.068,0.746-0.181,1.291-0.383c0.524-0.212,1.185-0.533,1.563-1.181
		c0.389-0.649,0.279-1.586,0.073-2.58c-0.757-4.026-1.766-9.397-2.775-14.766c-1.009-5.37-2.018-10.739-2.774-14.767
		C208.965,55.043,208.907,54.561,208.759,54.116z M209.898,97.533l33.898-6.826l0.095,0.49L209.898,97.533z M265.23,87.563
		c-0.765,0.27-1.58,0.391-2.369,0.592l-2.381,0.551c-0.789,0.209-1.609,0.322-2.406,0.426c-0.803,0.135-1.629,0.105-2.461,0.154
		c-0.809-0.074-1.619-0.043-2.43-0.205c-0.812-0.137-1.623-0.268-2.396-0.541c-0.796-0.199-1.541-0.541-2.288-0.871
		c-0.755-0.314-1.427-0.791-2.145-1.18c-0.646-0.496-1.34-0.934-1.944-1.479c-0.593-0.56-1.239-1.063-1.763-1.689
		c-0.551-0.6-1.104-1.195-1.613-1.826l-1.563-1.867l-3.118-3.726l-2.682,0.505l2.686-0.538l0.01-0.002l0.006,0.007l3.167,3.696
		l1.584,1.847c0.519,0.627,1.077,1.211,1.629,1.801c0.528,0.617,1.177,1.107,1.771,1.656c0.606,0.531,1.298,0.957,1.942,1.441
		c0.714,0.373,1.382,0.838,2.132,1.139c0.74,0.314,1.478,0.645,2.262,0.83c0.767,0.26,1.56,0.379,2.351,0.504
		c0.785,0.148,1.613,0.109,2.418,0.174c0.784-0.061,1.593-0.037,2.392-0.18c0.811-0.117,1.596-0.234,2.375-0.453l2.354-0.572
		c0.78-0.209,1.578-0.334,2.343-0.615l4.627-1.514l0.154,0.479L265.23,87.563z M347.037,75.719
		c-0.809,0.073-1.775,0.284-2.963,0.221c-0.559-0.018-1.217-0.184-1.823-0.413c-0.595-0.281-1.22-0.623-1.717-1.157
		c-0.519-0.501-0.94-1.153-1.279-1.823c-0.351-0.665-0.712-1.354-1.084-2.06c-0.75-1.414-1.513-2.91-2.364-4.433
		c-1.677-3.057-3.466-6.317-5.255-9.577c-3.577-6.521-7.155-13.042-9.839-17.933c-0.682-1.219-1.255-2.358-1.882-3.306
		c-0.636-0.912-1.341-1.694-2.147-1.88c-0.404-0.027-0.766-0.08-1.08-0.069c-0.315,0.021-0.584,0.039-0.802,0.053
		c-0.435,0.028-0.667,0.044-0.667,0.044s0.232-0.018,0.667-0.049c0.218-0.017,0.485-0.036,0.802-0.06
		c0.314-0.014,0.678,0.036,1.084,0.061c0.817,0.181,1.535,0.963,2.182,1.876c0.634,0.939,1.221,2.082,1.91,3.292
		c2.726,4.868,6.357,11.358,9.99,17.85c1.816,3.245,3.633,6.49,5.336,9.531c0.862,1.515,1.645,3.016,2.403,4.419
		c0.378,0.704,0.746,1.389,1.103,2.051c0.346,0.667,0.729,1.244,1.218,1.712c0.962,0.955,2.18,1.364,3.272,1.417
		c1.078,0.054,2.068-0.159,2.875-0.242c1.613-0.207,2.535-0.324,2.535-0.324l0.064,0.496
		C349.576,75.416,348.652,75.526,347.037,75.719z M353.803,58.745l6.518-25.568l0.486,0.129L353.803,58.745z M365.908,19.351
		l-17.258,2.39l-0.063-0.496L365.908,19.351z M330.673,23.503c0.097-0.001,0.138-0.016,0.279-0.007l0.249,0.017
		c0.326,0.008,0.67,0.063,1.021,0.144c0.68,0.158,1.325,0.416,1.91,0.777c1.189,0.698,2.145,1.698,2.971,2.758
		c0.825,1.068,1.506,2.23,2.135,3.41c0.302,0.601,0.627,1.163,0.949,1.752l0.967,1.748l7.613,13.772l5.219-19.268l-5.094,19.549
		l-0.061,0.231l-0.118-0.21l-7.862-13.906l-0.983-1.737c-0.322-0.575-0.668-1.163-0.97-1.75c-0.633-1.162-1.316-2.3-2.131-3.331
		c-0.813-1.025-1.746-1.977-2.869-2.619c-0.549-0.334-1.162-0.568-1.774-0.706c-0.302-0.067-0.613-0.119-0.955-0.124l-0.249-0.015
		c-0.023-0.007-0.148,0.008-0.22,0.011l-0.498,0.033l-0.027-0.501L330.673,23.503z M330.541,26.618
		c2.023-0.248,4.116,1.729,6.277,5.936l12.929,23.125l6.81-25.576c0.283-1.068,0.408-1.733,0.377-1.991
		c-0.238-1.913-1.871-2.685-4.899-2.309l-0.228-1.823l11.621-1.439l0.227,1.821c-2.663,0.393-4.412,2.351-5.247,5.872l-7.366,27.781
		l-3.773,14.556l-2.252,0.278c-1.328,0.166-2.287-0.302-2.877-1.399l-2.886-5.43l-17.325-31.261
		c-1.119-2.017-2.375-3.329-3.76-3.936c-0.96-0.425-2.422-0.515-4.382-0.272l-0.228-1.824L330.541,26.618z M293.869,28.331
		c0.847,0.041,1.689,0.032,2.542,0.114c0.851,0.09,1.708,0.146,2.545,0.317c0.42,0.076,0.843,0.135,1.26,0.225l1.243,0.308
		c0.834,0.188,1.63,0.511,2.443,0.769c0.779,0.349,1.593,0.624,2.337,1.05c0.376,0.201,0.761,0.389,1.131,0.602l1.083,0.686
		c0.748,0.463,1.354,1.029,2.039,1.539c0.675,0.509,1.236,1.182,1.857,1.766c0.623,0.594,1.09,1.314,1.641,1.965
		c0.553,0.652,0.936,1.424,1.412,2.13l0.34,0.541l0.283,0.573l0.563,1.146c0.409,0.749,0.667,1.563,0.975,2.357
		c0.146,0.398,0.31,0.793,0.439,1.196l0.341,1.229c0.228,0.82,0.478,1.633,0.609,2.474c0.155,0.835,0.333,1.667,0.47,2.503
		l0.387,2.51l0.019,0.116l-0.116,0.02l-35.587,5.489l35.434-5.705l-0.385-2.391c-0.142-0.834-0.323-1.656-0.483-2.486
		c-0.138-0.834-0.392-1.639-0.621-2.45l-0.346-1.217c-0.133-0.399-0.298-0.788-0.443-1.183c-0.311-0.782-0.569-1.589-0.979-2.326
		l-0.563-1.13l-0.283-0.563l-0.339-0.532c-0.476-0.692-0.856-1.452-1.406-2.09c-0.546-0.636-1.015-1.348-1.624-1.921
		c-0.616-0.567-1.148-1.21-1.83-1.718c-0.676-0.496-1.324-1.086-2.023-1.506l-1.066-0.667c-0.364-0.206-0.744-0.388-1.115-0.583
		c-0.73-0.414-1.533-0.678-2.3-1.017c-0.801-0.247-1.583-0.56-2.405-0.738l-1.224-0.294c-0.41-0.086-0.827-0.143-1.241-0.214
		c-0.826-0.162-1.662-0.211-2.494-0.295c-0.832-0.075-1.688-0.062-2.531-0.097L293.869,28.331z M312.789,62.235
		c0,0-0.178,0.354-0.484,0.972c-0.154,0.311-0.343,0.686-0.559,1.117c-0.188,0.448-0.539,0.871-0.855,1.372
		c-0.347,0.481-0.65,1.058-1.104,1.567c-0.448,0.514-0.92,1.058-1.408,1.619c-0.506,0.545-1.106,1.023-1.674,1.556
		c-0.558,0.538-1.218,1.018-1.876,1.452c-0.342,0.203-0.678,0.42-1.023,0.613c-0.354,0.179-0.705,0.358-1.055,0.535
		c-0.716,0.313-1.42,0.637-2.129,0.866c-0.699,0.263-1.391,0.464-2.048,0.649c-0.653,0.202-1.292,0.318-1.871,0.466
		c-0.582,0.137-1.117,0.218-1.591,0.313c-0.247,0.041-0.432,0.099-0.688,0.115c-0.207,0.019-0.398,0.037-0.57,0.053
		c-0.688,0.064-1.082,0.101-1.082,0.101l-0.039-0.497c0,0,0.394-0.029,1.082-0.079c0.172-0.014,0.365-0.027,0.572-0.042
		c0.163-0.001,0.415-0.063,0.644-0.095c0.473-0.086,1.016-0.158,1.59-0.282c0.571-0.135,1.202-0.236,1.853-0.422
		c0.652-0.17,1.34-0.356,2.035-0.601c0.706-0.214,1.403-0.519,2.116-0.813c0.349-0.169,0.699-0.337,1.051-0.507
		c0.345-0.185,0.679-0.39,1.019-0.584c0.668-0.422,1.301-0.861,1.875-1.394c0.578-0.519,1.19-0.988,1.701-1.519
		c0.496-0.547,0.974-1.076,1.426-1.577c0.461-0.497,0.775-1.064,1.13-1.536c0.325-0.494,0.687-0.909,0.881-1.352
		c0.224-0.427,0.418-0.798,0.578-1.104C312.605,62.585,312.789,62.235,312.789,62.235z M287.741,31.951
		c7.981-1.26,14.444-0.183,19.39,3.229c4.973,3.435,8.071,9.029,9.295,16.789l-35.585,5.61c1.423,9.021,2.735,14.46,3.941,16.322
		c2.243,3.469,5.651,4.846,10.222,4.124c5.498-0.868,9.757-2.488,12.775-4.864c3.427-2.691,5.969-5.954,7.632-9.786l1.692,0.739
		c-1.756,4.037-4.484,7.539-8.183,10.502c-3.183,2.553-7.726,4.294-13.631,5.229c-8.058,1.269-14.544,0.193-19.465-3.224
		c-4.919-3.416-7.993-9.013-9.22-16.798c-1.225-7.76,0.002-14.039,3.68-18.834C273.926,36.223,279.746,33.213,287.741,31.951z
		 M263.286,53.483c0.067-1.143,0.077-2.242,0.278-3.269c0.078-0.516,0.154-1.019,0.229-1.507c0.1-0.482,0.239-0.943,0.35-1.395
		c0.118-0.449,0.232-0.884,0.342-1.304c0.156-0.406,0.306-0.796,0.449-1.172c0.145-0.375,0.282-0.735,0.414-1.079
		c0.141-0.342,0.325-0.643,0.473-0.941c0.314-0.588,0.57-1.128,0.838-1.57c0.292-0.428,0.54-0.792,0.742-1.087
		c0.401-0.59,0.617-0.905,0.617-0.905s-0.213,0.316-0.613,0.908c-0.199,0.296-0.445,0.661-0.735,1.09
		c-0.265,0.444-0.519,0.985-0.829,1.574c-0.146,0.299-0.329,0.601-0.467,0.941c-0.13,0.345-0.266,0.706-0.408,1.081
		c-0.142,0.376-0.289,0.766-0.441,1.172c-0.107,0.42-0.219,0.854-0.336,1.304c-0.108,0.451-0.244,0.911-0.342,1.394
		c-0.07,0.487-0.144,0.989-0.219,1.505c-0.195,1.024-0.2,2.122-0.262,3.262c-0.071,1.14,0.063,2.328,0.087,3.557
		c0.153,1.219,0.259,2.496,0.498,3.777c0.261,1.281,0.475,2.61,0.894,3.921c0.324,1.336,0.856,2.635,1.362,3.967
		c1.146,2.604,2.694,5.152,4.753,7.317c0.544,0.51,1.027,1.082,1.625,1.545c0.596,0.458,1.189,0.947,1.792,1.383
		c1.267,0.818,2.581,1.589,3.996,2.138c2.799,1.16,5.817,1.779,8.792,1.922c2.992,0.17,5.925-0.151,8.746-0.549
		c2.813-0.453,5.488-1.141,7.926-2.059c2.443-0.924,4.605-2.082,6.413-3.482c1.717-1.463,3.306-2.836,4.456-4.28
		c1.29-1.332,2.072-2.739,2.84-3.809c0.4-0.522,0.615-1.093,0.865-1.543c0.234-0.462,0.435-0.855,0.597-1.173
		c0.324-0.637,0.497-0.977,0.497-0.977l0.444,0.229c0,0-0.175,0.338-0.503,0.973c-0.163,0.317-0.365,0.709-0.603,1.169
		c-0.255,0.453-0.466,1.011-0.88,1.553c-0.789,1.092-1.605,2.535-2.917,3.877c-1.18,1.462-2.782,2.834-4.548,4.321
		c-1.813,1.393-4.068,2.591-6.528,3.5c-2.47,0.918-5.175,1.596-8.006,2.035c-2.832,0.387-5.8,0.695-8.81,0.508
		c-3.016-0.158-6.053-0.797-8.881-1.985c-1.426-0.563-2.752-1.349-4.027-2.181c-0.624-0.456-1.198-0.936-1.797-1.401
		c-0.596-0.464-1.092-1.054-1.637-1.572c-2.07-2.199-3.615-4.771-4.754-7.396c-0.502-1.342-1.029-2.649-1.349-3.993
		c-0.413-1.317-0.622-2.65-0.876-3.938c-0.232-1.293-0.332-2.563-0.479-3.787C263.337,55.818,263.208,54.625,263.286,53.483z
		 M268.477,81.391l0.347,1.789c-3.325,1.207-6.63,2.129-9.914,2.766c-5.892,1.143-10.906-0.729-15.043-5.619l-6.403-7.564
		l-7.14,1.383l1.535,7.914c0.801,4.133,3.562,5.74,8.285,4.824l0.351,1.812l-28.335,5.491l-0.351-1.809
		c4.723-0.916,6.684-3.439,5.883-7.572l-5.976-30.824c-0.871-3.57-3.581-4.912-8.131-4.03l-0.351-1.81l26.566-5.15
		c7.403-1.436,13.459-1.098,18.169,1.014c5.659,2.539,8.84,5.622,9.543,9.25c1.2,6.186-2.25,11.864-10.345,17.033
		c2.26-0.323,3.935-0.153,5.021,0.518l10.523,10.25C263.542,81.863,265.464,81.975,268.477,81.391z M212.822,43.156
		c3.896-0.744,8.441-1.611,13.311-2.541c1.223-0.221,2.444-0.492,3.72-0.683c1.262-0.186,2.539-0.373,3.826-0.563
		c1.302-0.097,2.622-0.144,3.942-0.217c0.661-0.066,1.33,0.034,1.984,0.044c0.66,0.05,1.321,0.021,1.979,0.136
		c2.653,0.278,5.229,0.975,7.646,1.996c2.353,1.097,4.604,2.398,6.504,4.005c1.9,1.597,3.422,3.571,4.186,5.735
		c0.15,0.551,0.301,1.094,0.448,1.629c0.067,0.549,0.134,1.089,0.198,1.62c0.098,0.528,0.047,1.06,0.045,1.577
		c-0.021,0.518,0.02,1.029-0.096,1.517c-0.08,0.491-0.16,0.972-0.238,1.439c-0.098,0.465-0.271,0.9-0.397,1.333
		c-0.226,0.884-0.659,1.633-0.993,2.366c-0.761,1.419-1.57,2.579-2.332,3.451c-0.699,0.925-1.396,1.519-1.824,1.968
		c-0.438,0.438-0.672,0.671-0.672,0.671s0.233-0.235,0.668-0.675c0.424-0.452,1.117-1.05,1.812-1.978
		c0.755-0.876,1.558-2.038,2.308-3.459c0.328-0.733,0.756-1.482,0.975-2.362c0.125-0.434,0.295-0.867,0.39-1.33
		c0.074-0.467,0.149-0.945,0.228-1.434c0.111-0.486,0.067-0.994,0.086-1.506c-0.002-0.514,0.047-1.037-0.053-1.566
		c-0.068-0.529-0.138-1.066-0.209-1.613c-0.147-0.528-0.3-1.065-0.453-1.609c-0.769-2.137-2.285-4.081-4.179-5.653
		c-1.899-1.584-4.124-2.854-6.491-3.943c-2.386-0.991-4.957-1.672-7.572-1.93c-0.647-0.108-1.317-0.077-1.976-0.122
		c-0.664-0.007-1.313-0.104-1.968-0.032c-1.308,0.081-2.612,0.134-3.903,0.236c-1.287,0.197-2.563,0.394-3.823,0.587
		c-1.247,0.191-2.486,0.475-3.702,0.702c-4.864,0.958-9.404,1.853-13.295,2.618c-7.783,1.533-12.971,2.555-12.971,2.555l-0.092-0.49
		C199.837,45.635,205.031,44.643,212.822,43.156z M157.626,55.727c2.678-0.641,5.579-1.333,8.647-2.065
		c3.071-0.709,6.292-1.574,9.684-2.188c3.398-0.591,7.008-0.85,10.607-0.409c3.623,0.417,7.167,1.682,10.286,3.669
		c3.139,1.957,5.622,4.916,7.029,8.261c1.388,3.334,1.95,7.027,1.236,10.429c-0.67,3.41-2.489,6.364-4.653,8.646
		c-2.144,2.334-4.708,3.971-7.159,5.209c-2.464,1.23-4.842,2.115-6.984,2.756c-1.065,0.346-2.075,0.619-3.015,0.852
		c-0.936,0.25-1.798,0.465-2.581,0.646c-3.124,0.748-4.909,1.176-4.909,1.176s1.783-0.437,4.904-1.194
		c0.781-0.187,1.643-0.404,2.577-0.656c0.938-0.236,1.947-0.516,3.009-0.865c2.138-0.648,4.509-1.541,6.962-2.781
		c2.441-1.244,4.985-2.887,7.11-5.219c2.145-2.281,3.935-5.218,4.583-8.595c0.694-3.362,0.121-7.021-1.268-10.32
		c-1.407-3.301-3.868-6.209-6.976-8.129c-3.081-1.947-6.62-3.193-10.18-3.584c-3.583-0.422-7.144-0.149-10.514,0.449
		c-3.378,0.626-6.587,1.504-9.659,2.227c-3.065,0.746-5.963,1.451-8.638,2.102c-10.7,2.603-17.833,4.339-17.833,4.339l-0.117-0.492
		C139.774,59.989,146.915,58.284,157.626,55.727z"/>
	<path fill="none" d="M110.042,46.994c0,0,0.001,0,0.001,0c-0.073-0.06-0.148-0.114-0.221-0.173
		C109.896,46.879,109.969,46.935,110.042,46.994z"/>
	<path fill="none" d="M466.166,96.721c2.677-1.739,5.377-3.442,8.09-5.126c-3.019-1.867-6.062-3.694-9.133-5.474v11.285
		C465.471,97.178,465.818,96.949,466.166,96.721z"/>
	<path fill="none" d="M453.8,28.062h-22.22c0,0-2.51-0.164-3.098,1.815c-0.374,1.281,1.613,2.699,3.199,4.039
		c3.167,2.69,6.105,5.63,8.861,8.723c2.747,3.099,5.324,6.344,7.732,9.708c1.949,2.727,3.882,5.464,4.844,5.092
		c0.961-0.375,0.681-4.957,0.681-4.957V28.062z"/>
	<path fill="none" d="M108.321,45.644c-0.211-0.161-0.423-0.318-0.635-0.476C107.898,45.326,108.11,45.483,108.321,45.644z"/>
	<path fill="none" d="M455.082-0.355v27.134h9.4c0.354,0,0.641,0.285,0.641,0.641v57.826c3.323,1.913,6.612,3.881,9.874,5.895
		c0.001,0,0.002-0.001,0.003-0.001V-1h-20.559C454.795-1,455.082-0.709,455.082-0.355z"/>
	<path fill="none" d="M180.853,86.655c7.017-1.691,9.4-7.201,7.151-16.532c-2.531-10.504-7.305-14.905-14.322-13.218l-8.917,2.152
		l7.171,29.75L180.853,86.655z M174.288,85.297l-0.487,0.117l-5.588-24.247L174.288,85.297z"/>
	<path fill="none" d="M449.804,108.973c0,0-3.108,2.492-2.12,3.988c0.988,1.494,3.446,1.629,3.446,1.629h12.711h0.001V99.232
		c-3.479,2.318-6.928,4.689-10.347,7.1C452.261,107.203,449.804,108.973,449.804,108.973z"/>
	<path fill="none" d="M230.148,44.8l-5.312,1.029l5.137,26.506l5.313-1.029c7.083-1.373,9.746-6.598,7.987-15.673
		C241.605,47.036,237.231,43.427,230.148,44.8z M241.031,62.084c-0.02,0.455-0.137,0.893-0.2,1.327
		c-0.132,0.42-0.214,0.87-0.394,1.234c-0.287,0.789-0.771,1.467-1.291,1.991c-0.513,0.546-1.108,0.894-1.628,1.188
		c-0.537,0.264-1.021,0.459-1.438,0.583c-0.413,0.149-0.729,0.196-0.947,0.258c-0.217,0.052-0.334,0.08-0.334,0.08l-0.114-0.488
		c0,0,0.116-0.026,0.335-0.075c0.214-0.057,0.553-0.104,0.929-0.237c0.389-0.107,0.851-0.285,1.363-0.526
		c0.492-0.27,1.056-0.585,1.538-1.083c0.49-0.481,0.946-1.089,1.234-1.845c0.191-0.374,0.256-0.767,0.393-1.164
		c0.065-0.418,0.188-0.837,0.213-1.279c0.106-0.878,0.105-1.799,0.049-2.729c-0.055-0.933-0.182-1.877-0.344-2.814
		c-0.338-1.875-0.836-3.726-1.645-5.318c-0.434-0.773-0.886-1.517-1.476-2.084c-0.574-0.577-1.223-1.016-1.882-1.283
		c-1.334-0.546-2.575-0.419-3.398-0.384c-0.416,0.031-0.739,0.097-0.961,0.122c-0.222,0.031-0.34,0.049-0.34,0.049
		s0.118-0.02,0.339-0.055c0.222-0.028,0.545-0.1,0.961-0.138c0.82-0.047,2.065-0.198,3.428,0.332
		c0.674,0.261,1.342,0.696,1.936,1.274c0.61,0.568,1.083,1.313,1.534,2.092c0.846,1.599,1.381,3.47,1.75,5.347
		c0.178,0.942,0.324,1.895,0.395,2.839C241.109,60.242,241.126,61.181,241.031,62.084z"/>
	<path fill="none" d="M301.904,52.396c-1.262-7.995-2.487-12.885-3.682-14.671c-2.238-3.358-5.637-4.68-10.197-3.959
		c-4.521,0.712-7.188,2.686-7.993,5.913c-0.822,3.31-0.647,8.672,0.521,16.083L301.904,52.396z M282.848,40.202
		c0.022-0.112,0.071-0.273,0.151-0.473c0.058-0.208,0.21-0.425,0.351-0.688c0.193-0.224,0.377-0.522,0.67-0.746
		c0.283-0.241,0.593-0.496,0.978-0.679c0.187-0.099,0.372-0.218,0.574-0.309c0.209-0.077,0.423-0.156,0.639-0.236
		c0.218-0.076,0.438-0.171,0.665-0.236c0.23-0.053,0.462-0.106,0.697-0.16c0.453-0.107,0.961-0.236,1.447-0.259
		c0.494-0.038,0.959-0.114,1.467-0.122c0.244,0.008,0.486,0.016,0.727,0.023c0.239,0.033,0.475,0.066,0.707,0.098
		c0.457,0.096,0.907,0.197,1.301,0.382c0.411,0.146,0.75,0.384,1.08,0.574c0.29,0.246,0.59,0.43,0.795,0.669
		c0.209,0.227,0.424,0.416,0.541,0.589c0.26,0.34,0.409,0.533,0.409,0.533l-0.399,0.299c0,0-0.144-0.199-0.394-0.545
		c-0.118-0.188-0.297-0.345-0.483-0.561c-0.176-0.223-0.453-0.403-0.713-0.642c-0.301-0.183-0.607-0.418-0.988-0.564
		c-0.36-0.186-0.782-0.294-1.213-0.399c-0.222-0.038-0.445-0.076-0.672-0.115c-0.231-0.015-0.466-0.03-0.701-0.045
		c-0.453-0.01-0.961,0.052-1.441,0.075c-0.494,0.007-0.938,0.111-1.424,0.208c-0.236,0.047-0.471,0.093-0.702,0.139
		c-0.228,0.057-0.438,0.142-0.656,0.21c-0.215,0.071-0.426,0.142-0.633,0.212c-0.201,0.082-0.385,0.192-0.571,0.283
		c-0.387,0.168-0.697,0.408-0.981,0.636c-0.298,0.211-0.485,0.498-0.685,0.714c-0.146,0.255-0.305,0.466-0.369,0.671
		c-0.086,0.194-0.14,0.354-0.166,0.466c-0.033,0.109-0.051,0.168-0.051,0.168S282.818,40.313,282.848,40.202z"/>
	<path d="M466.166,96.721c-0.348,0.229-0.695,0.457-1.043,0.686V86.121c-0.429-0.248-0.853-0.504-1.282-0.75v12.877
		c-3.657,2.393-7.306,4.799-10.905,7.281c-4.364,3.006-8.693,6.055-12.981,9.188l-0.002,0.004c-0.154,0.117-0.255,0.305-0.253,0.512
		c0,0.353,0.287,0.642,0.641,0.642h24.144c0.354,0,0.641-0.289,0.641-0.642V98.373c0.494-0.326,0.979-0.662,1.476-0.986
		c2.779-1.811,5.583-3.582,8.4-5.333v-0.001c-0.247-0.154-0.496-0.305-0.744-0.458C471.543,93.278,468.843,94.981,466.166,96.721z
		 M463.842,114.59L463.842,114.59H451.13c0,0-2.458-0.135-3.446-1.629c-0.988-1.496,2.12-3.988,2.12-3.988s2.457-1.77,3.691-2.641
		c3.419-2.41,6.867-4.781,10.347-7.1V114.59z"/>
	<polygon points="475,91.143 475,91.14 474.997,91.141 	"/>
	<path d="M14.894,4.36l7.155,2.224l3.578,1.115l3.546,1.209l7.091,2.422c2.354,0.831,4.684,1.733,7.028,2.594
		c2.343,0.867,4.686,1.731,6.991,2.691l6.946,2.812l6.868,2.987c2.303,0.968,4.533,2.091,6.804,3.128
		c2.274,1.034,4.505,2.153,6.734,3.276l3.346,1.678l3.302,1.767c2.213,1.15,4.385,2.379,6.549,3.623
		c2.185,1.203,4.29,2.543,6.434,3.814c2.101,1.342,4.213,2.666,6.261,4.085c2.048,1.398,4.097,2.861,5.971,4.412l0.007,0.008
		c0.172,0.142,0.411,0.192,0.634,0.114c4.538-1.595,9.141-3.118,13.724-4.645l13.787-4.489c9.205-2.955,18.43-5.845,27.687-8.629
		l13.902-4.117c4.641-1.352,9.292-2.664,13.95-3.949c2.324-0.659,4.664-1.264,6.996-1.89c2.333-0.63,4.667-1.25,7.011-1.833
		c2.343-0.587,4.678-1.209,7.028-1.765l7.048-1.673c0.281-0.066,0.498-0.322,0.498-0.626c0-0.352-0.287-0.64-0.641-0.64
		l-15.172,0.155l-15.173,0.092l-30.344,0.016l-30.346-0.183l-7.586-0.049c-2.544,0.006-5.02-0.074-7.635,0.002
		c-1.301,0.059-2.614,0.188-3.951,0.528c-0.67,0.175-1.338,0.427-2.011,0.8c-0.662,0.374-1.337,0.936-1.779,1.761
		c-0.422,0.824-0.569,1.837-0.417,2.712c0.136,0.886,0.476,1.658,0.849,2.37c0.383,0.71,0.854,1.333,1.339,1.935
		c0.25,0.312,0.494,0.571,0.785,0.877c0.316,0.326,0.54,0.548,0.751,0.79c0.313,0.354,0.73,0.642,1.214,0.794
		c1.407,0.44,2.907-0.344,3.35-1.75c0.442-1.407-0.34-2.907-1.749-3.35l-0.059-0.02l-0.829-0.26
		c-0.223-0.063-0.482-0.184-0.707-0.292c-0.474-0.219-0.892-0.509-1.26-0.813c-0.732-0.636-1.153-1.359-1.015-2.007
		c0.133-0.69,1.033-1.455,2.092-1.882c1.074-0.44,2.278-0.687,3.497-0.823c1.22-0.126,2.467-0.124,3.739-0.132l3.794-0.023
		l7.586-0.043l30.346-0.184l30.344,0.018c0,0,13.04,0.403,13.04,1.687c0,1.281-8.648,3.805-10.976,4.466
		c-4.665,1.283-9.32,2.598-13.966,3.951l-13.916,4.12c-9.264,2.789-18.496,5.683-27.708,8.638l-13.798,4.493
		c-2.964,0.987-5.922,1.979-8.879,2.983c0,0,0,0.001,0,0.001c-1.511,0.514-3.021,1.023-4.532,1.554
		c-0.001-0.001-0.002-0.001-0.003-0.002c0,0-0.001,0-0.001,0c-0.073-0.06-0.146-0.115-0.219-0.174
		c-0.497-0.402-0.998-0.793-1.501-1.176c-0.211-0.161-0.423-0.318-0.635-0.476c-0.445-0.331-0.892-0.657-1.342-0.978
		c-0.693-0.495-1.391-0.984-2.095-1.465c-2.067-1.432-4.193-2.766-6.31-4.116c-2.157-1.279-4.276-2.627-6.472-3.838
		c-2.176-1.248-4.358-2.484-6.582-3.642l-3.318-1.771l-3.361-1.688c-2.239-1.129-4.48-2.252-6.76-3.288
		c-2.28-1.043-4.521-2.172-6.831-3.14l-6.893-3.001l-6.969-2.819c-2.314-0.964-4.664-1.828-7.013-2.699
		c-2.351-0.866-4.689-1.77-7.052-2.604l-7.111-2.43c0,0-3.996-1.529-3.996-4.362c0-2.83,3.845-3.046,3.845-3.046H453.8v26.496
		H421.11c-0.229,0.002-0.453,0.124-0.566,0.341c-0.166,0.313-0.045,0.698,0.268,0.864c1.787,0.965,3.522,2.027,5.2,3.182
		c1.666,1.171,3.284,2.411,4.842,3.729c3.111,2.644,6.01,5.54,8.73,8.592c2.714,3.063,5.265,6.275,7.649,9.604
		c2.38,3.328,4.643,6.774,6.644,10.315l0.006,0.01c0.109,0.191,0.318,0.32,0.559,0.32c0.354,0,0.641-0.283,0.641-0.64V28.062h8.759
		v56.436c0.43,0.245,0.854,0.501,1.282,0.748V27.42c0-0.356-0.286-0.641-0.641-0.641h-9.4V-0.355c0-0.354-0.287-0.645-0.641-0.645
		H0.642v1.311L7.69,2.293C10.09,2.985,12.511,3.609,14.894,4.36z M453.119,57.439c-0.962,0.372-2.895-2.365-4.844-5.092
		c-2.408-3.364-4.985-6.609-7.732-9.708c-2.756-3.093-5.694-6.033-8.861-8.723c-1.586-1.34-3.573-2.758-3.199-4.039
		c0.588-1.979,3.098-1.815,3.098-1.815h22.22v24.42C453.8,52.482,454.08,57.064,453.119,57.439z"/>
	<path d="M253.178,159.243v-34.291c0-0.103-0.025-0.211-0.076-0.306c-0.168-0.311-0.557-0.426-0.867-0.26l-0.004,0.002
		c-2.514,1.59-4.994,3.158-7.451,4.795c-2.452,1.631-4.883,3.31-7.191,5.166c-1.155,0.931-2.292,1.896-3.338,2.98
		c-0.533,0.531-1.021,1.117-1.497,1.723c-0.466,0.615-0.93,1.258-1.274,2.017c-0.399,0.721-0.601,1.622-0.613,2.598
		c0.087,0.47,0.096,1.021,0.34,1.455l0.319,0.694c0.129,0.21,0.283,0.39,0.423,0.595c0.284,0.433,0.616,0.735,0.958,1.051
		c0.347,0.341,0.69,0.613,1.049,0.875c0.728,0.574,1.438,0.979,2.187,1.517c0.501,0.36,1.129,0.561,1.792,0.512
		c1.505-0.107,2.639-1.412,2.531-2.916c-0.105-1.504-1.412-2.639-2.917-2.531h-0.022c-0.631,0.045-1.365,0.104-1.936-0.02
		c-0.312-0.039-0.636-0.074-0.877-0.182c-0.272-0.089-0.562-0.175-0.76-0.312c-0.517-0.232-0.744-0.603-0.987-1.048
		c-0.111-0.483-0.18-1.086,0.036-1.707c0.161-0.622,0.471-1.247,0.841-1.838c0.364-0.596,0.802-1.159,1.268-1.698
		c0.93-1.091,2.145-2.129,3.245-3.084c2.186-1.923,4.365-3.521,6.826-5.109c0.838-0.536,2.549-1.604,2.549-1.604
		s-0.48,2.244,1.015,3.207c1.496,0.961,3.151,0.428,3.151,0.428v22.391v4.26v0.002H100.965c5.54-3.451,11.339-6.49,17.231-9.322
		c3.315-1.521,6.617-3.068,9.995-4.447c3.347-1.453,6.75-2.768,10.151-4.094c3.391-1.348,6.847-2.527,10.269-3.799l10.367-3.533
		c6.945-2.254,13.925-4.406,20.946-6.424c7.02-2.016,14.074-3.92,21.15-5.73c7.08-1.807,14.185-3.506,21.305-5.145l10.7-2.377
		l10.726-2.246c7.165-1.434,14.336-2.836,21.527-4.131c7.193-1.291,14.391-2.547,21.609-3.678c3.605-0.589,7.216-1.152,10.832-1.675
		c3.615-0.53,7.225-1.096,10.847-1.565c7.235-1.021,14.485-1.922,21.739-2.81l10.894-1.217l10.903-1.103
		c7.275-0.686,14.554-1.336,21.842-1.844c3.643-0.273,7.287-0.533,10.936-0.727c3.646-0.211,7.291-0.459,10.94-0.598
		c7.298-0.359,14.6-0.584,21.903-0.75l10.956-0.136c0,0-1.667,2.664-0.573,4.214c1.095,1.547,3.926,1.895,3.926,1.895
		l-28.095,28.096c-0.114,0.115-0.188,0.277-0.188,0.453c0,0.355,0.288,0.643,0.641,0.643h70.507c0.016,0,0.029-0.008,0.045-0.009
		c-0.326-0.029-0.586-0.296-0.586-0.633c-0.002-0.336,0.263-0.605,0.591-0.632l0,0c-0.017-0.001-0.031-0.01-0.048-0.01h-61.291
		c0,0,1.12-2.564,0.078-3.605c-1.041-1.041-3.152-0.988-3.152-0.988l29.564-29.565c0.113-0.115,0.189-0.277,0.19-0.453
		c0.001-0.353-0.285-0.638-0.636-0.64l-10.977-0.045l-10.978,0.136c-7.316,0.163-14.631,0.389-21.938,0.75
		c-3.657,0.141-7.308,0.391-10.959,0.6c-3.654,0.195-7.303,0.451-10.95,0.729c-7.3,0.505-14.587,1.156-21.872,1.845l-10.917,1.103
		l-10.906,1.221c-7.262,0.883-14.521,1.785-21.767,2.809c-3.627,0.473-7.24,1.039-10.859,1.566
		c-3.622,0.521-7.234,1.088-10.845,1.676c-7.228,1.135-14.435,2.391-21.636,3.686s-14.381,2.697-21.554,4.137l-10.742,2.248
		l-10.714,2.379c-7.13,1.642-14.247,3.343-21.336,5.152c-7.089,1.814-14.154,3.723-21.188,5.742
		c-7.034,2.02-14.03,4.176-20.993,6.438l-10.396,3.541c-3.431,1.275-6.897,2.457-10.301,3.812
		c-3.411,1.332-6.828,2.649-10.188,4.113c-3.393,1.381-6.712,2.938-10.044,4.467c-6.606,3.174-13.12,6.578-19.293,10.584
		c-0.173,0.115-0.292,0.317-0.292,0.543c0.001,0.233,0.133,0.428,0.32,0.538h154.474
		C253.046,159.676,253.178,159.479,253.178,159.243z"/>
	<path d="M108.321,45.644c0.504,0.383,1.004,0.774,1.501,1.176c0.073,0.059,0.148,0.114,0.221,0.173
		c0.001,0.001,0.002,0.001,0.003,0.002c1.511-0.531,3.021-1.04,4.532-1.554c0,0,0-0.001,0-0.001
		c-0.233-2.259-2.12-4.025-4.439-4.025c-1.797,0-3.336,1.064-4.052,2.588c0.086,0.061,0.171,0.126,0.257,0.188
		c0.45,0.32,0.897,0.647,1.342,0.978C107.898,45.326,108.11,45.483,108.321,45.644z"/>
	<path d="M247.684,158.602h4.213v-4.26C249.578,154.398,247.712,156.273,247.684,158.602z"/>
	<path d="M465.123,85.246c-0.429-0.247-0.853-0.503-1.282-0.748c-2.419-1.378-4.853-2.73-7.308-4.045
		c-4.661-2.523-9.392-4.927-14.234-7.103c-4.842-2.171-9.79-4.143-14.895-5.669c-2.555-0.759-5.147-1.404-7.79-1.853
		c-2.656-0.416-5.304-0.714-8.076-0.508c-1.378,0.135-2.752,0.412-4.086,0.931c-1.325,0.524-2.644,1.264-3.697,2.514
		c-0.526,0.622-0.949,1.412-1.159,2.322c-0.209,0.908-0.118,1.915,0.178,2.813c0.615,1.825,1.859,3.087,3.047,4.237l0.16,0.152
		c1.071,1.037,2.781,1.01,3.817-0.064c1.039-1.072,1.009-2.781-0.063-3.818c-0.387-0.371-0.853-0.608-1.343-0.704
		c-2.155-0.44-3.67-1.671-2.735-3.637c0.471-0.927,1.398-1.767,2.477-2.331c1.074-0.579,2.301-0.947,3.552-1.107
		c2.505-0.269,5.172,0.02,7.737,0.385c2.584,0.407,5.144,1.014,7.668,1.731c5.059,1.449,9.99,3.351,14.831,5.454
		c4.84,2.108,9.582,4.448,14.258,6.914c2.576,1.379,5.126,2.806,7.661,4.259c0.43,0.246,0.854,0.502,1.282,0.75
		c3.071,1.779,6.114,3.606,9.133,5.474c0.248,0.153,0.497,0.304,0.744,0.458v-0.91c-0.001,0-0.002-0.001-0.003-0.002
		C471.735,89.127,468.446,87.159,465.123,85.246z"/>
	<path d="M474.409,125.913c0,0.337,0.26,0.604,0.586,0.633c0.002,0,0.003,0.001,0.005,0.001v-1.266
		C474.672,125.308,474.407,125.577,474.409,125.913z"/>
	<path d="M152.022,67.791l7.36,30.533c0.986,4.096-0.859,6.707-5.537,7.834l0.432,1.791l28.066-6.768l-0.432-1.789
		c-4.677,1.127-7.509-0.355-8.496-4.449l-1.049-4.348l8.918-2.152c7.504-1.807,12.947-4.338,16.326-7.588
		c4.235-4.087,5.709-8.796,4.424-14.126c-1.284-5.326-4.812-9.136-10.583-11.42c-4.801-1.897-10.868-1.96-18.201-0.191
		l-29.967,7.223l0.433,1.788C148.223,63.043,150.992,64.262,152.022,67.791z M173.682,56.905
		c7.017-1.687,11.791,2.714,14.322,13.218c2.249,9.331-0.134,14.841-7.151,16.532l-8.917,2.151l-7.171-29.75L173.682,56.905z"/>
	<path d="M247.165,70.288c8.095-5.169,11.545-10.847,10.345-17.033c-0.703-3.628-3.884-6.711-9.543-9.25
		c-4.71-2.112-10.766-2.45-18.169-1.014l-26.566,5.15l0.351,1.81c4.55-0.882,7.26,0.46,8.131,4.03l5.976,30.824
		c0.801,4.133-1.16,6.656-5.883,7.572l0.351,1.809l28.335-5.491l-0.351-1.812c-4.723,0.916-7.483-0.691-8.285-4.824l-1.535-7.914
		l7.14-1.383l6.403,7.564c4.137,4.891,9.151,6.762,15.043,5.619c3.284-0.637,6.589-1.559,9.914-2.766l-0.347-1.789
		c-3.013,0.584-4.935,0.473-5.768-0.334l-10.523-10.25C251.1,70.135,249.425,69.965,247.165,70.288z M235.286,71.306l-5.313,1.029
		l-5.137-26.506l5.312-1.029c7.083-1.373,11.458,2.236,13.125,10.833C245.032,64.708,242.369,69.933,235.286,71.306z"/>
	<path d="M266.605,59.824c1.227,7.785,4.301,13.382,9.22,16.798c4.921,3.417,11.407,4.492,19.465,3.224
		c5.905-0.936,10.448-2.677,13.631-5.229c3.698-2.963,6.427-6.465,8.183-10.502l-1.692-0.739c-1.663,3.832-4.205,7.095-7.632,9.786
		c-3.019,2.376-7.277,3.996-12.775,4.864c-4.57,0.722-7.979-0.655-10.222-4.124c-1.206-1.862-2.519-7.301-3.941-16.322l35.585-5.61
		c-1.224-7.76-4.322-13.354-9.295-16.789c-4.945-3.412-11.408-4.489-19.39-3.229c-7.995,1.262-13.815,4.272-17.456,9.039
		C266.607,45.785,265.381,52.064,266.605,59.824z M280.032,39.679c0.806-3.227,3.472-5.201,7.993-5.913
		c4.561-0.721,7.959,0.601,10.197,3.959c1.194,1.786,2.42,6.676,3.682,14.671l-21.352,3.366
		C279.385,48.351,279.21,42.989,280.032,39.679z"/>
	<path d="M157.724,56.142c2.675-0.651,5.573-1.356,8.638-2.102c3.072-0.723,6.281-1.601,9.659-2.227
		c3.37-0.598,6.931-0.871,10.514-0.449c3.56,0.391,7.099,1.637,10.18,3.584c3.108,1.92,5.569,4.828,6.976,8.129
		c1.389,3.299,1.962,6.958,1.268,10.32c-0.648,3.377-2.438,6.314-4.583,8.595c-2.125,2.332-4.669,3.975-7.11,5.219
		c-2.453,1.24-4.824,2.133-6.962,2.781c-1.062,0.35-2.071,0.629-3.009,0.865c-0.934,0.252-1.796,0.47-2.577,0.656
		c-3.121,0.758-4.904,1.194-4.904,1.194s1.785-0.428,4.909-1.176c0.783-0.181,1.645-0.396,2.581-0.646
		c0.94-0.232,1.95-0.506,3.015-0.852c2.142-0.641,4.52-1.525,6.984-2.756c2.451-1.238,5.015-2.875,7.159-5.209
		c2.164-2.282,3.983-5.236,4.653-8.646c0.714-3.402,0.152-7.095-1.236-10.429c-1.407-3.345-3.89-6.304-7.029-8.261
		c-3.119-1.987-6.663-3.252-10.286-3.669c-3.599-0.441-7.209-0.182-10.607,0.409c-3.392,0.614-6.613,1.479-9.684,2.188
		c-3.068,0.732-5.969,1.424-8.647,2.065c-10.711,2.557-17.852,4.262-17.852,4.262l0.117,0.492
		C139.891,60.481,147.024,58.745,157.724,56.142z"/>
	<path d="M152.28,111.211l-1.722-7.068l2.703-0.66c0.93-0.239,1.904-0.547,2.699-1.157c0.395-0.306,0.72-0.735,0.856-1.229
		c0.141-0.492,0.11-1.008,0.024-1.49c-0.195-0.967-0.45-1.891-0.672-2.84l-2.76-11.311l-2.76-11.31l-1.379-5.656
		c-0.145-0.461-0.336-0.926-0.685-1.273c-0.347-0.347-0.832-0.529-1.313-0.575c-0.971-0.124-1.938,0.079-2.885,0.267
		c0.946-0.183,1.918-0.38,2.883-0.25c0.479,0.049,0.958,0.231,1.298,0.576c0.341,0.344,0.528,0.805,0.669,1.264l1.348,5.663
		l2.696,11.327l2.696,11.326c0.215,0.943,0.469,1.89,0.653,2.828c0.081,0.469,0.104,0.951-0.027,1.393
		c-0.126,0.445-0.416,0.826-0.786,1.111c-0.756,0.572-1.683,0.863-2.621,1.1l-2.828,0.674l-0.127,0.031l0.031,0.129l1.747,7.354
		l0.035,0.148l0.149-0.035l33.646-8.01l-0.116-0.489L152.28,111.211z"/>
	<polygon points="174.288,85.297 168.213,61.167 173.801,85.414 	"/>
	<path d="M265.094,87.141c-0.765,0.281-1.563,0.406-2.343,0.615l-2.354,0.572c-0.779,0.219-1.564,0.336-2.375,0.453
		c-0.799,0.143-1.607,0.119-2.392,0.18c-0.805-0.064-1.633-0.025-2.418-0.174c-0.791-0.125-1.584-0.244-2.351-0.504
		c-0.784-0.186-1.521-0.516-2.262-0.83c-0.75-0.301-1.418-0.766-2.132-1.139c-0.645-0.484-1.336-0.91-1.942-1.441
		c-0.594-0.549-1.242-1.039-1.771-1.656c-0.552-0.59-1.11-1.174-1.629-1.801l-1.584-1.847l-3.167-3.696l-0.006-0.007l-0.01,0.002
		l-2.686,0.538l2.682-0.505l3.118,3.726l1.563,1.867c0.509,0.631,1.063,1.227,1.613,1.826c0.523,0.626,1.17,1.13,1.763,1.689
		c0.604,0.545,1.298,0.982,1.944,1.479c0.718,0.389,1.39,0.865,2.145,1.18c0.747,0.33,1.492,0.672,2.288,0.871
		c0.772,0.273,1.584,0.404,2.396,0.541c0.811,0.162,1.621,0.131,2.43,0.205c0.832-0.049,1.658-0.02,2.461-0.154
		c0.797-0.104,1.617-0.217,2.406-0.426l2.381-0.551c0.789-0.201,1.604-0.322,2.369-0.592l4.645-1.457l-0.154-0.479L265.094,87.141z"
		/>
	<path d="M212.9,43.57c3.891-0.765,8.431-1.66,13.295-2.618c1.216-0.227,2.455-0.511,3.702-0.702c1.26-0.193,2.536-0.39,3.823-0.587
		c1.291-0.102,2.595-0.155,3.903-0.236c0.654-0.072,1.304,0.025,1.968,0.032c0.658,0.045,1.328,0.014,1.976,0.122
		c2.615,0.258,5.187,0.939,7.572,1.93c2.367,1.089,4.592,2.359,6.491,3.943c1.894,1.572,3.41,3.516,4.179,5.653
		c0.153,0.544,0.306,1.081,0.453,1.609c0.071,0.547,0.141,1.084,0.209,1.613c0.1,0.529,0.051,1.052,0.053,1.566
		c-0.019,0.512,0.025,1.02-0.086,1.506c-0.078,0.489-0.153,0.967-0.228,1.434c-0.095,0.463-0.265,0.896-0.39,1.33
		c-0.219,0.88-0.646,1.629-0.975,2.362c-0.75,1.421-1.553,2.583-2.308,3.459c-0.694,0.928-1.388,1.526-1.812,1.978
		c-0.435,0.44-0.668,0.675-0.668,0.675s0.234-0.233,0.672-0.671c0.428-0.449,1.125-1.043,1.824-1.968
		c0.762-0.872,1.571-2.032,2.332-3.451c0.334-0.733,0.768-1.482,0.993-2.366c0.126-0.433,0.3-0.868,0.397-1.333
		c0.078-0.467,0.158-0.948,0.238-1.439c0.115-0.488,0.074-0.999,0.096-1.517c0.002-0.517,0.053-1.049-0.045-1.577
		c-0.064-0.531-0.131-1.071-0.198-1.62c-0.147-0.535-0.298-1.078-0.448-1.629c-0.764-2.164-2.285-4.138-4.186-5.735
		c-1.899-1.607-4.151-2.908-6.504-4.005c-2.416-1.021-4.992-1.718-7.646-1.996c-0.658-0.115-1.319-0.086-1.979-0.136
		c-0.654-0.01-1.323-0.11-1.984-0.044c-1.32,0.073-2.64,0.12-3.942,0.217c-1.287,0.19-2.564,0.377-3.826,0.563
		c-1.276,0.191-2.497,0.462-3.72,0.683c-4.87,0.93-9.415,1.797-13.311,2.541c-7.791,1.487-12.985,2.479-12.985,2.479l0.092,0.49
		C199.929,46.125,205.117,45.103,212.9,43.57z"/>
	<path d="M214.618,85.081c0.206,0.994,0.316,1.931-0.073,2.58c-0.378,0.647-1.039,0.969-1.563,1.181
		c-0.545,0.202-0.974,0.314-1.291,0.383c-0.313,0.066-0.48,0.102-0.48,0.102l0.109,0.486c0,0,0.167-0.036,0.479-0.106
		c0.308-0.069,0.791-0.196,1.363-0.42c0.554-0.235,1.307-0.586,1.78-1.403c0.475-0.839,0.3-1.904,0.091-2.882
		c-0.803-4.021-1.873-9.377-2.944-14.734c-1.07-5.357-2.141-10.714-2.943-14.733c-0.108-0.498-0.175-0.993-0.328-1.435
		c-0.156-0.446-0.409-0.836-0.749-1.088c-0.714-0.475-1.492-0.46-2.077-0.474c-0.597,0.026-1.065,0.074-1.379,0.138
		c-0.316,0.05-0.485,0.076-0.485,0.076s0.169-0.024,0.485-0.07c0.315-0.06,0.782-0.103,1.38-0.122
		c0.582,0.02,1.359,0.018,2.048,0.489c0.329,0.249,0.571,0.63,0.718,1.068c0.148,0.445,0.206,0.927,0.31,1.432
		c0.756,4.028,1.765,9.397,2.774,14.767C212.852,75.684,213.861,81.055,214.618,85.081z"/>
	<polygon points="209.898,97.533 243.891,91.197 243.796,90.707 	"/>
	<path d="M240.641,56.458c-0.369-1.877-0.904-3.748-1.75-5.347c-0.451-0.779-0.924-1.524-1.534-2.092
		c-0.594-0.578-1.262-1.013-1.936-1.274c-1.363-0.53-2.608-0.379-3.428-0.332c-0.416,0.038-0.739,0.11-0.961,0.138
		c-0.221,0.035-0.339,0.055-0.339,0.055s0.118-0.018,0.34-0.049c0.222-0.025,0.545-0.091,0.961-0.122
		c0.823-0.035,2.064-0.162,3.398,0.384c0.659,0.267,1.308,0.706,1.882,1.283c0.59,0.567,1.042,1.311,1.476,2.084
		c0.809,1.592,1.307,3.443,1.645,5.318c0.162,0.937,0.289,1.881,0.344,2.814c0.057,0.931,0.058,1.852-0.049,2.729
		c-0.024,0.442-0.147,0.861-0.213,1.279c-0.137,0.397-0.201,0.79-0.393,1.164c-0.288,0.756-0.744,1.364-1.234,1.845
		c-0.481,0.498-1.045,0.813-1.538,1.083c-0.512,0.241-0.974,0.419-1.363,0.526c-0.376,0.133-0.715,0.18-0.929,0.237
		c-0.219,0.049-0.335,0.075-0.335,0.075l0.114,0.488c0,0,0.117-0.028,0.334-0.08c0.218-0.062,0.534-0.109,0.947-0.258
		c0.417-0.124,0.901-0.319,1.438-0.583c0.52-0.294,1.116-0.642,1.628-1.188c0.52-0.524,1.004-1.202,1.291-1.991
		c0.18-0.364,0.262-0.814,0.394-1.234c0.063-0.434,0.181-0.872,0.2-1.327c0.095-0.903,0.078-1.842,0.004-2.787
		C240.965,58.353,240.818,57.4,240.641,56.458z"/>
	<path d="M298.879,29.225c0.414,0.071,0.831,0.128,1.241,0.214l1.224,0.294c0.822,0.178,1.604,0.491,2.405,0.738
		c0.767,0.339,1.569,0.603,2.3,1.017c0.371,0.195,0.751,0.377,1.115,0.583l1.066,0.667c0.699,0.42,1.348,1.01,2.023,1.506
		c0.682,0.508,1.214,1.151,1.83,1.718c0.609,0.573,1.078,1.285,1.624,1.921c0.55,0.638,0.931,1.398,1.406,2.09l0.339,0.532
		l0.283,0.563l0.563,1.13c0.41,0.737,0.669,1.544,0.979,2.326c0.146,0.395,0.311,0.784,0.443,1.183l0.346,1.217
		c0.229,0.811,0.483,1.616,0.621,2.45c0.16,0.83,0.342,1.652,0.483,2.486l0.385,2.391l-35.434,5.705l35.587-5.489l0.116-0.02
		l-0.019-0.116l-0.387-2.51c-0.137-0.836-0.314-1.668-0.47-2.503c-0.132-0.841-0.382-1.654-0.609-2.474l-0.341-1.229
		c-0.13-0.403-0.294-0.798-0.439-1.196c-0.308-0.794-0.565-1.608-0.975-2.357l-0.563-1.146l-0.283-0.573l-0.34-0.541
		c-0.477-0.706-0.859-1.478-1.412-2.13c-0.551-0.651-1.018-1.371-1.641-1.965c-0.621-0.584-1.183-1.257-1.857-1.766
		c-0.686-0.51-1.291-1.076-2.039-1.539l-1.083-0.686c-0.37-0.213-0.755-0.401-1.131-0.602c-0.744-0.426-1.558-0.701-2.337-1.05
		c-0.813-0.258-1.609-0.581-2.443-0.769l-1.243-0.308c-0.417-0.09-0.84-0.149-1.26-0.225c-0.837-0.171-1.694-0.227-2.545-0.317
		c-0.853-0.082-1.695-0.073-2.542-0.114l-0.016,0.502c0.843,0.035,1.699,0.022,2.531,0.097
		C297.217,29.014,298.053,29.063,298.879,29.225z"/>
	<path d="M263.834,60.838c0.254,1.288,0.463,2.621,0.876,3.938c0.319,1.344,0.847,2.651,1.349,3.993
		c1.139,2.625,2.684,5.197,4.754,7.396c0.545,0.518,1.041,1.108,1.637,1.572c0.599,0.465,1.173,0.945,1.797,1.401
		c1.275,0.833,2.602,1.618,4.027,2.181c2.828,1.188,5.865,1.827,8.881,1.985c3.01,0.188,5.978-0.121,8.81-0.508
		c2.831-0.439,5.536-1.117,8.006-2.035c2.46-0.908,4.716-2.106,6.528-3.5c1.766-1.487,3.368-2.859,4.548-4.321
		c1.312-1.342,2.128-2.785,2.917-3.877c0.414-0.542,0.625-1.1,0.88-1.553c0.237-0.46,0.439-0.852,0.603-1.169
		c0.328-0.635,0.503-0.973,0.503-0.973l-0.444-0.229c0,0-0.173,0.34-0.497,0.977c-0.162,0.318-0.362,0.711-0.597,1.173
		c-0.25,0.45-0.465,1.021-0.865,1.543c-0.768,1.07-1.55,2.477-2.84,3.809c-1.15,1.444-2.739,2.817-4.456,4.28
		c-1.808,1.4-3.97,2.558-6.413,3.482c-2.438,0.918-5.113,1.605-7.926,2.059c-2.821,0.397-5.754,0.719-8.746,0.549
		c-2.975-0.143-5.993-0.762-8.792-1.922c-1.415-0.549-2.729-1.32-3.996-2.138c-0.603-0.436-1.196-0.925-1.792-1.383
		c-0.598-0.463-1.081-1.035-1.625-1.545c-2.059-2.165-3.607-4.713-4.753-7.317c-0.506-1.332-1.038-2.631-1.362-3.967
		c-0.419-1.311-0.633-2.64-0.894-3.921c-0.239-1.281-0.345-2.558-0.498-3.777c-0.024-1.229-0.158-2.417-0.087-3.557
		c0.062-1.14,0.066-2.238,0.262-3.262c0.075-0.516,0.148-1.018,0.219-1.505c0.098-0.483,0.233-0.943,0.342-1.394
		c0.117-0.45,0.229-0.884,0.336-1.304c0.152-0.406,0.3-0.796,0.441-1.172c0.143-0.375,0.278-0.736,0.408-1.081
		c0.138-0.34,0.32-0.642,0.467-0.941c0.311-0.589,0.564-1.13,0.829-1.574c0.29-0.429,0.536-0.794,0.735-1.09
		c0.4-0.592,0.613-0.908,0.613-0.908s-0.216,0.315-0.617,0.905c-0.202,0.295-0.45,0.659-0.742,1.087
		c-0.268,0.442-0.523,0.982-0.838,1.57c-0.147,0.298-0.332,0.599-0.473,0.941c-0.132,0.344-0.27,0.704-0.414,1.079
		c-0.144,0.376-0.293,0.766-0.449,1.172c-0.109,0.42-0.224,0.855-0.342,1.304c-0.11,0.452-0.25,0.913-0.35,1.395
		c-0.074,0.488-0.15,0.991-0.229,1.507c-0.201,1.027-0.211,2.126-0.278,3.269c-0.078,1.142,0.051,2.335,0.069,3.568
		C263.502,58.275,263.602,59.545,263.834,60.838z"/>
	<path d="M310.825,65.653c-0.354,0.472-0.669,1.039-1.13,1.536c-0.452,0.501-0.93,1.03-1.426,1.577
		c-0.511,0.531-1.123,1-1.701,1.519c-0.574,0.533-1.207,0.972-1.875,1.394c-0.34,0.194-0.674,0.399-1.019,0.584
		c-0.352,0.17-0.702,0.338-1.051,0.507c-0.713,0.294-1.41,0.599-2.116,0.813c-0.695,0.245-1.383,0.431-2.035,0.601
		c-0.65,0.186-1.281,0.287-1.853,0.422c-0.574,0.124-1.117,0.196-1.59,0.282c-0.229,0.032-0.48,0.094-0.644,0.095
		c-0.207,0.015-0.4,0.028-0.572,0.042c-0.688,0.05-1.082,0.079-1.082,0.079l0.039,0.497c0,0,0.395-0.037,1.082-0.101
		c0.172-0.016,0.363-0.034,0.57-0.053c0.256-0.016,0.44-0.074,0.688-0.115c0.474-0.095,1.009-0.176,1.591-0.313
		c0.579-0.148,1.218-0.264,1.871-0.466c0.657-0.185,1.349-0.386,2.048-0.649c0.709-0.229,1.413-0.553,2.129-0.866
		c0.35-0.177,0.701-0.356,1.055-0.535c0.346-0.193,0.682-0.41,1.023-0.613c0.658-0.434,1.318-0.914,1.876-1.452
		c0.567-0.533,1.168-1.011,1.674-1.556c0.488-0.561,0.96-1.105,1.408-1.619c0.454-0.509,0.758-1.086,1.104-1.567
		c0.316-0.501,0.668-0.924,0.855-1.372c0.216-0.431,0.404-0.806,0.559-1.117c0.307-0.618,0.484-0.972,0.484-0.972
		s-0.184,0.35-0.505,0.962c-0.16,0.306-0.354,0.677-0.578,1.104C311.512,64.744,311.15,65.159,310.825,65.653z"/>
	<path d="M283.02,39.738c0.064-0.205,0.224-0.416,0.369-0.671c0.199-0.216,0.387-0.503,0.685-0.714
		c0.284-0.228,0.595-0.468,0.981-0.636c0.187-0.091,0.37-0.201,0.571-0.283c0.207-0.07,0.418-0.141,0.633-0.212
		c0.218-0.068,0.429-0.153,0.656-0.21c0.231-0.046,0.466-0.092,0.702-0.139c0.486-0.097,0.93-0.201,1.424-0.208
		c0.48-0.023,0.988-0.085,1.441-0.075c0.235,0.015,0.47,0.03,0.701,0.045c0.227,0.039,0.45,0.077,0.672,0.115
		c0.431,0.105,0.853,0.213,1.213,0.399c0.381,0.146,0.688,0.381,0.988,0.564c0.26,0.239,0.537,0.419,0.713,0.642
		c0.187,0.216,0.365,0.373,0.483,0.561c0.25,0.346,0.394,0.545,0.394,0.545l0.399-0.299c0,0-0.149-0.193-0.409-0.533
		c-0.117-0.173-0.332-0.362-0.541-0.589c-0.205-0.239-0.505-0.423-0.795-0.669c-0.33-0.19-0.669-0.428-1.08-0.574
		c-0.394-0.185-0.844-0.286-1.301-0.382c-0.232-0.032-0.468-0.065-0.707-0.098c-0.24-0.007-0.482-0.015-0.727-0.023
		c-0.508,0.008-0.973,0.084-1.467,0.122c-0.486,0.023-0.994,0.152-1.447,0.259c-0.235,0.054-0.467,0.107-0.697,0.16
		c-0.227,0.065-0.447,0.16-0.665,0.236c-0.216,0.08-0.43,0.159-0.639,0.236c-0.202,0.091-0.388,0.21-0.574,0.309
		c-0.385,0.183-0.694,0.438-0.978,0.679c-0.293,0.224-0.477,0.522-0.67,0.746c-0.141,0.263-0.293,0.48-0.351,0.688
		c-0.08,0.2-0.129,0.361-0.151,0.473c-0.029,0.111-0.045,0.17-0.045,0.17s0.018-0.059,0.051-0.168
		C282.88,40.092,282.934,39.932,283.02,39.738z"/>
	<path d="M318.168,30.823c1.385,0.607,2.641,1.919,3.76,3.936l17.325,31.261l2.886,5.43c0.59,1.097,1.549,1.565,2.877,1.399
		l2.252-0.278l3.773-14.556l7.366-27.781c0.835-3.521,2.584-5.479,5.247-5.872l-0.227-1.821l-11.621,1.439l0.228,1.823
		c3.028-0.376,4.661,0.396,4.899,2.309c0.031,0.258-0.094,0.923-0.377,1.991l-6.81,25.576l-12.929-23.125
		c-2.161-4.207-4.254-6.184-6.277-5.936l-16.982,2.109l0.228,1.824C315.746,30.308,317.208,30.398,318.168,30.823z"/>
	<path d="M346.977,75.244c-0.807,0.083-1.797,0.296-2.875,0.242c-1.093-0.053-2.311-0.462-3.272-1.417
		c-0.488-0.468-0.872-1.045-1.218-1.712c-0.356-0.662-0.725-1.347-1.103-2.051c-0.759-1.403-1.541-2.904-2.403-4.419
		c-1.703-3.041-3.52-6.286-5.336-9.531c-3.633-6.492-7.265-12.982-9.99-17.85c-0.689-1.21-1.276-2.353-1.91-3.292
		c-0.646-0.913-1.364-1.695-2.182-1.876c-0.406-0.025-0.77-0.075-1.084-0.061c-0.316,0.024-0.584,0.043-0.802,0.06
		c-0.435,0.031-0.667,0.049-0.667,0.049s0.232-0.016,0.667-0.044c0.218-0.014,0.486-0.032,0.802-0.053
		c0.314-0.011,0.676,0.042,1.08,0.069c0.807,0.186,1.512,0.968,2.147,1.88c0.627,0.948,1.2,2.087,1.882,3.306
		c2.684,4.891,6.262,11.412,9.839,17.933c1.789,3.26,3.578,6.52,5.255,9.577c0.852,1.523,1.614,3.019,2.364,4.433
		c0.372,0.706,0.733,1.395,1.084,2.06c0.339,0.67,0.761,1.322,1.279,1.823c0.497,0.534,1.122,0.876,1.717,1.157
		c0.606,0.229,1.265,0.395,1.823,0.413c1.188,0.063,2.154-0.148,2.963-0.221c1.615-0.193,2.539-0.303,2.539-0.303l-0.064-0.496
		C349.512,74.92,348.59,75.037,346.977,75.244z"/>
	<polygon points="353.803,58.745 360.807,33.306 360.32,33.177 	"/>
	<polygon points="365.908,19.351 348.588,21.245 348.65,21.741 	"/>
	<path d="M330.7,23.999c0.071-0.003,0.196-0.018,0.22-0.011l0.249,0.015c0.342,0.005,0.653,0.057,0.955,0.124
		c0.612,0.138,1.226,0.372,1.774,0.706c1.123,0.642,2.056,1.594,2.869,2.619c0.814,1.031,1.498,2.169,2.131,3.331
		c0.302,0.587,0.647,1.175,0.97,1.75l0.983,1.737l7.862,13.906l0.118,0.21l0.061-0.231l5.094-19.549l-5.219,19.268l-7.613-13.772
		l-0.967-1.748c-0.322-0.589-0.647-1.151-0.949-1.752c-0.629-1.18-1.31-2.342-2.135-3.41c-0.826-1.06-1.781-2.06-2.971-2.758
		c-0.585-0.361-1.23-0.619-1.91-0.777c-0.352-0.081-0.695-0.136-1.021-0.144l-0.249-0.017c-0.142-0.009-0.183,0.006-0.279,0.007
		l-0.498,0.028l0.027,0.501L330.7,23.999z"/>
</g>
</svg>
