<?xml version="1.0" encoding="utf-8"?>
<!-- Generator: Adobe Illustrator 16.0.3, SVG Export Plug-In . SVG Version: 6.00 Build 0)  -->
<!DOCTYPE svg PUBLIC "-//W3C//DTD SVG 1.1//EN" "http://www.w3.org/Graphics/SVG/1.1/DTD/svg11.dtd">
<svg version="1.1" id="Layer_1" xmlns="http://www.w3.org/2000/svg" xmlns:xlink="http://www.w3.org/1999/xlink" x="0px" y="0px"
	 width="250px" height="160px" viewBox="0 0 250 160" enable-background="new 0 0 250 160" xml:space="preserve">
<g>
	<path id="TX_1_" fill="#F5BC31" d="M92.471,0.127l15.494,0.741l21.23,0.78l-1.594,16.015l-0.203,12.396l0.047,1.421l2.966,2.607
		l1.356,0.988l0.809-0.383l0.254-1.241l0.779,1.231l1.441,0.03l-0.001-0.988l1.14,0.661l0.777,0.279l-0.245,2.709l2.792,0.064
		l1.997,0.817l2.7,0.359l1.626,1.419l1.45-1.417l2.543,0.42l1.518,2.202l0.733,0.219l-0.109,1.342l1.512,0.541l1.59-1.403
		l1.458,0.42l1.521,0.024l0.637,1.663l4.321,1.444l1.088-0.523l1.017-2.853h0.232l0.619,0.056l0.84,1.412l2.683,0.454l2.278,0.767
		l2.34,0.817l1.257-0.666l0.487-1.717l3.04,0.03l1.235,0.635l1.911-1.438l0.754,0.03l0.581,1.096h2.769l1.037-1.385l1.275,0.278
		l1.328,1.641l2.403,1.396l1.953,0.552l1.034,0.546l1.67,1.363l2.078-0.906l1.837,0.777l0.385,4.168l-0.027,6.625l0.469,6.509
		l0.479,2.462l1.826,3.018l0.614,3.381l2.878,3.781l0.134,2.148l0.51,0.536l-0.498,5.724l-1.961,3.418l1.047,1.469l-0.432,1.597
		l-0.456,5.056l-1.027,2.279l0.201,2.393l-3.868,1.081l-6.733,3.092l-0.662,1.324l-1.766,1.323l-1.436,0.994l-0.883,0.553
		l-3.864,3.642l-1.875,1.435l-3.644,2.209l-3.863,1.655l-4.305,2.319l-1.215,0.991l-3.974,2.429l-2.317,0.441l-2.649,3.755
		l-2.759,0.22l-0.662,1.324l1.544,1.325l-0.992,3.754l-0.884,3.089l-0.773,2.65l-0.551,3.09l0.551,1.656l1.214,4.746l0.664,4.194
		l1.214,1.878l-0.663,0.992l-2.097,1.326l-3.863-2.651l-3.754-0.771l-0.883,0.331l-2.207-0.441l-2.87-2.099l-3.532-0.771
		l-5.188-2.318l-1.435-2.649l-0.884-4.414l-2.207-1.325l-0.441-1.545l0.441-0.442l0.221-2.318l-0.884-0.44l-0.44-0.662l0.883-2.98
		l-1.104-1.546l-2.208-0.883l-2.318-2.98l-2.428-4.526l-2.87-1.766l0.111-1.324l-3.643-8.39l-0.552-2.87l-1.214-1.324l-0.11-0.994
		l-4.084-3.642l-1.767-2.097v-0.773l-1.767-1.435l-4.635-0.773l-5.078-0.442l-2.097-1.545l-3.091,1.215l-2.428,0.993l-1.546,2.208
		l-0.662,2.539l-2.981,4.194l-1.655,1.655l-1.767-0.663l-1.214-0.771l-1.324-0.44l-2.649-1.546v-0.442l-1.214-1.323l-3.532-1.435
		l-5.078-5.299l-1.546-3.202v-5.519l-2.207-4.416l-0.332-1.876l-1.104-0.663l-0.773-1.435l-3.422-1.436l-0.883-1.103l-4.857-5.409
		l-0.883-2.208l-3.201-1.545l-0.994-2.98l-1.766-1.987l-1.324-0.331l-0.443-3.193l5.464,0.467l19.825,1.873l19.826,1.093
		l1.524-13.29l2.654-37.932l1.093-12.8l0.936,0.019 M160.908,156.923l-0.386-4.857l-1.876-4.913l-0.387-4.802l1.049-5.629
		l2.262-4.691l2.374-3.698l2.153-2.429l0.44,0.166l-3.257,4.525l-2.979,4.471l-1.38,4.526l-0.221,3.531l0.607,4.196l1.766,4.911
		l0.331,3.533l0.11,0.992L160.908,156.923L160.908,156.923z"/>
	<path d="M157.649,160.002l-0.045-0.03l-3.85-2.642l-3.713-0.764l-0.884,0.331l-2.263-0.461l-2.856-2.088l-3.516-0.768l-5.229-2.335
		l-1.456-2.697l-0.877-4.378l-2.203-1.323l-0.465-1.624l0.456-0.456l0.212-2.231l-0.852-0.426l-0.476-0.712l0.011-0.037l0.872-2.941
		l-1.066-1.494l-2.206-0.882l-0.015-0.018l-2.317-2.98l-2.425-4.519l-2.895-1.78l0.113-1.354l-3.634-8.37l-0.553-2.864l-1.217-1.327
		l-0.109-0.989l-4.06-3.62l-1.795-2.129v-0.764l-1.718-1.396l-4.614-0.77L96.91,98.72l-0.019-0.014l-2.06-1.519l-3.049,1.198
		l-2.404,0.984l-1.523,2.175l-0.671,2.552l-2.981,4.194l-1.703,1.704l-1.816-0.682l-1.229-0.779l-1.306-0.433l-2.706-1.576v-0.457
		l-1.18-1.287l-3.543-1.447l-5.093-5.319l-1.554-3.238v-5.499l-2.206-4.421l-0.325-1.839l-1.09-0.655l-0.77-1.429l-3.428-1.449
		l-0.883-1.103l-4.87-5.43l-0.871-2.178l-3.203-1.546l-0.011-0.034l-0.988-2.964l-1.738-1.954l-1.354-0.339l-0.465-3.352
		l0.104,0.008l5.464,0.468l19.826,1.874l19.744,1.089l1.516-13.213l2.654-37.928l1.099-12.879l1.014,0.021l-0.001,0.059
		l14.678,0.702l21.318,0.784l-1.604,16.103l-0.202,12.389l0.045,1.381l2.939,2.584l1.311,0.954l0.727-0.344l0.288-1.402l0.865,1.368
		l1.312,0.028l-0.002-1.048l1.266,0.733l0.824,0.294l-0.243,2.685l2.732,0.068l1.986,0.814l2.716,0.36l1.586,1.386l1.426-1.394
		l2.62,0.433l1.521,2.207l0.771,0.229l-0.11,1.346l1.405,0.502l1.588-1.4l1.49,0.43l1.567,0.025l0.644,1.678l4.251,1.42l1.026-0.494
		l1.025-2.875h0.291l0.669,0.06l0.842,1.416l2.645,0.448l2.291,0.77l2.307,0.805l1.193-0.632l0.495-1.744l3.142,0.04l1.188,0.612
		l1.894-1.425l0.832,0.033l0.579,1.095h2.677l1.045-1.395l1.355,0.295l1.337,1.651l2.392,1.389l1.933,0.544l1.05,0.553l1.645,1.34
		l2.063-0.9l1.917,0.811l0.39,4.218l-0.027,6.634l0.469,6.502l0.476,2.438l1.829,3.033l0.61,3.361l2.882,3.785l0.001,0.025
		l0.132,2.118l0.515,0.541l-0.513,5.793l-1.934,3.373l1.038,1.457l-0.44,1.634l-0.461,5.069l-1.019,2.26l0.205,2.439l-0.066,0.018
		l-3.869,1.082l-6.693,3.075l-0.674,1.327l-1.766,1.323l-1.438,0.996l-0.887,0.555l-3.851,3.632l-1.883,1.44l-3.65,2.213
		l-3.874,1.661l-4.298,2.316l-1.201,0.982l-4.011,2.446l-2.284,0.436l-2.652,3.758l-2.752,0.22l-0.612,1.225l1.535,1.316
		l-0.014,0.051l-0.992,3.753l-0.885,3.091l-0.772,2.651l-0.546,3.06l0.545,1.638l1.216,4.751l0.662,4.185l1.233,1.909l-0.717,1.062
		L157.649,160.002z M150.028,156.395l0.023,0.005l3.783,0.784l3.818,2.62l2.035-1.288l0.623-0.932l-1.197-1.863l-0.663-4.194
		l-1.212-4.738l-0.557-1.671l0.004-0.021l0.552-3.09l0.774-2.659l0.883-3.089l0.979-3.701l-1.555-1.334l0.713-1.424l2.768-0.221
		l2.646-3.75l0.033-0.006l2.303-0.438l3.961-2.421l1.205-0.985l4.318-2.328l3.869-1.658l3.633-2.203l1.869-1.431l3.856-3.636
		l0.896-0.563l1.433-0.991l1.747-1.311l0.666-1.334l0.027-0.012l6.733-3.091l3.814-1.068l-0.198-2.345l1.031-2.286l0.455-5.042
		l0.423-1.572l-1.055-1.48l0.026-0.047l1.952-3.401l0.493-5.668l-0.504-0.531l-0.002-0.03l-0.134-2.123l-2.878-3.797l-0.61-3.366
		l-1.83-3.032l-0.479-2.462l-0.471-6.519l0.027-6.632l-0.38-4.111l-1.759-0.744l-2.091,0.912l-1.71-1.396l-1.021-0.537l-1.937-0.546
		l-2.445-1.424l-1.31-1.618l-1.195-0.26l-1.029,1.375h-2.861l-0.581-1.098l-0.677-0.027l-1.929,1.452l-1.264-0.65l-2.957-0.029
		l-0.481,1.69l-1.319,0.7l-2.374-0.829l-2.277-0.767l-2.708-0.458l-0.838-1.409l-0.577-0.052l-0.166,0l-1.009,2.829l-1.148,0.553
		l-0.032-0.011l-4.358-1.456l-0.631-1.647l-1.487-0.026l-1.413-0.407l-1.594,1.405l-1.617-0.579l0.109-1.339l-0.697-0.208
		l-0.018-0.024l-1.496-2.173l-2.468-0.407l-1.475,1.442l-1.664-1.453l-2.697-0.361l-1.982-0.812l-2.865-0.066l0.247-2.734
		l-0.717-0.257l-1.028-0.595l0.002,0.929l-1.571-0.033l-0.693-1.095l-0.221,1.08l-0.891,0.421l-1.396-1.018l-2.999-2.636
		l-0.048-1.458l0.202-12.4l1.586-15.934l-21.142-0.777L92.467,0.21l0.001-0.037l-0.038-0.001l-1.086,12.724L88.69,50.826
		l-1.534,13.371l-0.078-0.004L67.253,63.1l-19.829-1.874l-5.359-0.458l0.421,3.035l1.295,0.323l0.017,0.02l1.783,2.016l0.983,2.947
		l3.198,1.543l0.89,2.224l4.847,5.398l0.873,1.09l3.43,1.438l0.776,1.44l1.116,0.671l0.336,1.901l2.21,4.442v5.499l1.532,3.173
		l5.056,5.277l3.545,1.448l1.236,1.348v0.427l2.608,1.521l1.309,0.435l1.232,0.78l1.701,0.637l1.619-1.618l2.962-4.172l0.671-2.551
		l1.56-2.228l0.023-0.009l2.427-0.993L94.856,97l2.115,1.561l5.054,0.438l4.664,0.777l0.017,0.015l1.797,1.46v0.781l1.747,2.075
		l4.1,3.654l0.11,0.998l1.212,1.321l0.004,0.023l0.552,2.87l3.645,8.392l-0.107,1.294l2.845,1.75l0.011,0.021l2.429,4.525
		l2.296,2.951l2.209,0.884l0.014,0.021l1.128,1.578l-0.012,0.039l-0.871,2.943l0.406,0.611l0.915,0.456l-0.229,2.405l-0.429,0.428
		l0.419,1.467l2.211,1.328l0.008,0.035l0.88,4.402l1.417,2.614l5.161,2.306l3.548,0.781l2.855,2.087l2.166,0.433L150.028,156.395z
		 M160.834,157.03l-0.394-4.946l-1.877-4.925l-0.388-4.813l1.058-5.66l2.263-4.691l2.379-3.707l2.197-2.481l0.597,0.224
		l-3.319,4.614l-2.972,4.458l-1.377,4.515l-0.217,3.513l0.605,4.179l1.767,4.915l0.332,3.533l0.118,1.061L160.834,157.03z
		 M158.729,147.133l1.876,4.926l0.378,4.758l0.443-0.122l-0.103-0.922l-0.331-3.523l-1.763-4.902l-0.611-4.212l0.21-3.387
		l-0.485,2.607L158.729,147.133z M159.388,136.749l-0.497,2.669l1.342-4.397l2.98-4.471l3.195-4.439l-0.287-0.107l-2.115,2.385
		l-2.366,3.688L159.388,136.749z"/>
</g>
</svg>
