<?xml version="1.0" encoding="utf-8"?>
<!-- Generator: Adobe Illustrator 16.0.3, SVG Export Plug-In . SVG Version: 6.00 Build 0)  -->
<!DOCTYPE svg PUBLIC "-//W3C//DTD SVG 1.1//EN" "http://www.w3.org/Graphics/SVG/1.1/DTD/svg11.dtd">
<svg version="1.1" id="Layer_1" xmlns="http://www.w3.org/2000/svg" xmlns:xlink="http://www.w3.org/1999/xlink" x="0px" y="0px"
	 width="100px" height="100px" viewBox="0 0 100 100" enable-background="new 0 0 100 100" xml:space="preserve">
<g opacity="0.9">
	<path d="M94.506,79.107c-0.089-0.015-0.118-0.092,0.005-0.246l0.01-0.612c-0.095,0.282-0.267,0.489-0.531,0.604l0.138,8.118
		c0.167,0.137,0.116,0.195,0.004,0.198L94.145,88h-2.18c-0.012,0.16-0.248,0.32-0.229,0H90V70.072
		c-0.095,0.012-0.197,0.017-0.322-0.002c0.015-0.3,0.129-0.5,0.322-0.622v-2.37c-0.086-0.095-0.14-0.223-0.134-0.408
		c0.049,0.018,0.093,0.04,0.134,0.065v-2.019c-0.093,0.083-0.221,0.063-0.134-0.314c0.062,0.004,0.101,0.02,0.134,0.037v-6.715
		c-0.093,0.083-0.221,0.063-0.134-0.315c0.062,0.004,0.101,0.02,0.134,0.037v-0.801c-0.168,0.386-0.631,0.648-0.891,0.386
		c0.125-0.356,0.476-0.49,0.891-0.556V46.363c-0.157,0.108-0.521,0.079-0.134-0.293c0.067,0.032,0.103,0.063,0.134,0.093v-5.111
		c-0.098,0.091-0.235,0.032-0.134-0.461c0.062,0.024,0.101,0.056,0.134,0.09V12h0.955c-0.264-0.302-0.497-0.71-0.143-1.08
		c0.461,0.022,0.385,0.583,0.374,1.08h1.118c-0.002-0.101,0.001-0.205,0.019-0.324c0.113,0.129,0.214,0.23,0.309,0.324H93.5v3.791
		c0.265-0.275,0.633,0.209,1.09-0.145c0.025,0.338-0.23,0.398-0.188,0.755c-0.375-0.106-0.592-0.369-0.901-0.54v7.438
		c0.024-0.03,0.068-0.062,0.145-0.095c0.535,0.341-0.029,0.331-0.145,0.195v10.579c0.345-0.044,0.317,0.283,0.334,0.565
		c-0.157-0.057-0.274-0.153-0.334-0.309v0.551c0.218,0.254,1.071-0.127,0.901,0.514c-0.161,0.035-0.178-0.073-0.188-0.189
		c-0.501-0.06,0.178,1.059-0.568,0.757c0.106-0.445-0.062-0.616-0.145-0.873v14.124c0.313,0.296,0.607,0.608,1.09,0.734
		c-0.209,0.356-0.265,0.867-0.756,0.944c0.147-0.675-0.118-0.937-0.334-1.25V50l0.021,1.188c0.407,0.08,0.37,0.702,0.124,0.931
		c-0.045-0.01-0.074-0.023-0.109-0.036l0.075,4.419c0.33-0.059,0.688-0.108,0.979-0.226c-0.215,0.414-0.486,0.772-0.377,1.512
		c-0.246,0.095-0.433,0.058-0.581-0.036l0.017,0.981c0.252,0,0.502,0,0.753,0c-0.294,0.142-0.286,0.585-0.744,0.563l0.023,1.348
		c0.107-0.014,0.235-0.007,0.343-0.021c0.091,0.438-0.133,0.412-0.338,0.318l0.02,1.178c0.088-0.013,0.121-0.081,0.129-0.173
		c0.348-0.071,0.281,0.749-0.121,0.591l0.033,2.003c0.219-0.412,0.622-0.808,1.022-0.89l0.015-0.868
		c-0.156-0.035-0.293-0.142-0.004-0.27c0.004,0.003,0.004,0.004,0.009,0.007l0.188-11.115c-0.069,0.155-0.308,0.252-0.197-0.23
		c0.124,0.009,0.178,0.053,0.199,0.105L95,50v-3.276c-0.168,0.018-0.35,0.048-0.599,0.102c0.017-0.268,0.031-0.535-0.188-0.566
		c0.138-0.255,0.453-0.262,0.787-0.211v-3.583c-0.011,0.003-0.021,0.01-0.031,0.013c0.013-0.011,0.02-0.029,0.031-0.042v-9.711
		c-0.011-0.025-0.021-0.05-0.031-0.075c0.012,0.005,0.021,0.013,0.031,0.019v-0.625c-0.104,0.045-0.22,0.081-0.221,0.229
		c-0.16,0.034-0.178-0.074-0.189-0.189c0-0.126,0-0.252,0-0.378c0.115,0.075,0.248,0.135,0.41,0.163V20.541
		c-0.115,0.027-0.247,0.038-0.41,0.018c0-0.188,0-0.377,0-0.567c0.189-0.013,0.294,0.058,0.41,0.118V18
		c-0.011-0.03-0.02-0.054-0.031-0.088c-0.021-0.062-0.039-0.111-0.053-0.15c0.023,0.066,0.054,0.151,0.084,0.237V12h4.149
		c0.064-0.137,0.174-0.215,0.354-0.135c0.002,0.046,0.003,0.089,0.005,0.135H100V7.043c-0.2,0.312-0.136,0.89-0.686,0.854
		c0.283-0.258,0.169-0.913,0.686-0.938V2.885c-0.141,0.01-0.23-0.052,0-0.225V1.914c-0.028-0.032-0.058-0.064-0.117-0.065
		C99.898,1.782,99.946,1.748,100,1.72V1.155c-0.119-0.12-0.201-0.239,0-0.107V0h-0.574c0.077,0.205,0.079,0.419-0.111,0.526
		C99.096,0.499,99.105,0.242,99.1,0h-0.339c0.353,0.782-0.576,1.764-1.524,1.282C97.721,0.848,98.293,0.502,98.71,0h-1.276
		c-0.055,0.123-0.216,0.21-0.226,0H88v5h-6.434c0.045,0.034,0.095,0.062,0.174,0.062c-0.036,0.153-0.189,0.188-0.189,0.379
		c-0.152-0.037-0.188-0.19-0.377-0.19C81.199,5.14,81.285,5.09,81.331,5H58.658c-0.058,0.037-0.113,0.062-0.162,0.062
		C58.49,5.037,58.493,5.021,58.49,5H52.97c0.022,0.072,0.041,0.152,0.046,0.25c-0.074-0.013-0.17-0.118-0.249-0.25H45.63
		c0.007,0.082,0.009,0.167,0.014,0.25c-0.137-0.048-0.241-0.13-0.307-0.25h-7.546c-0.022,0.068-0.047,0.142-0.083,0.25
		c-0.004,0.013-0.008,0.023-0.012,0.036C37.728,5.191,37.762,5.089,37.792,5h-4.606c-0.005,0.08-0.01,0.159-0.013,0.25
		c-0.174-0.018-0.27-0.114-0.325-0.25H12V1.1c-0.027,0.027-0.054,0.054,0,0V0h-0.112c-0.002,0.392-0.671,0.52-0.271,0H8.101
		c0.121,0.097,0.113,0.322,0.125,0.526c0.161,0.035,0.179-0.074,0.189-0.189C8.886,0.414,8.427,1.07,8.038,0.904
		C8.188,0.391,7.813,0.402,7.852,0H0v6.582c0.1,0.001,0.201,0.002,0.29-0.008C0.323,7.014,0.188,6.982,0,6.893v3.322
		c0.252,0.143,0.507,0.282,0.479,0.705c-0.1-0.208-0.346-0.269-0.479-0.445V12h1.612c-0.031-0.044-0.042-0.139,0-0.324
		C1.919,11.697,1.84,11.919,1.732,12h1.778c-0.053-0.082-0.073-0.189-0.009-0.324C3.64,11.354,3.697,11.732,3.692,12H5v2.104
		c0.047-0.167,0.178-0.295,0.392-0.16c0.053,0.305-0.178,0.325-0.189,0.567C5.094,14.533,5.03,14.463,5,14.365v6.055
		c0.007,0.044,0.016,0.086,0.014,0.138c-0.006,0.001-0.008-0.002-0.014,0v9.53c0.054,0.036,0.122,0.125,0.203,0.298
		C5.12,30.496,5.053,30.538,5,30.541v1.629c0.048-0.173,0.062-0.382,0.014-0.651c0.279,0.099,0.477,0.28,0.756,0.379
		c-0.118,0.512-0.79,0.47-0.756,1.134C5.008,33.03,5.006,33.023,5,33.021v9.576c0.093-0.077,0.217-0.123,0.392-0.117
		c0.071,0.325-0.149,0.36-0.392,0.371v4.039c0.222,0.115,0.44,0.441,0.392,0.694C5.135,47.653,5.051,47.55,5,47.415v24.203
		c0.007-0.013,0.007-0.021,0.014-0.035C5.396,71.99,5.164,72.238,5,72.195v4.679c0.068,0,0.135,0,0.203,0c0,0.126,0,0.252,0,0.378
		c-0.068,0-0.135,0-0.203,0v1.513c0.068,0,0.135,0,0.203,0c0.051,0.301-0.009,0.49-0.203,0.546v8.354
		c0.007-0.007,0.007-0.011,0.014-0.018C5.373,87.816,5.171,87.97,5,87.987V88H3.838c-0.018,0.097-0.055,0.219-0.146,0.402
		C3.559,88.262,3.551,88.116,3.587,88H0.092C0.11,88.064,0.07,88.116,0,88.147v2.709c0.031-0.003,0.062-0.008,0.101,0.003
		c0.228,0.064,0.153,0.503,0,0.566C0.063,91.441,0.031,91.44,0,91.44v0.523c0.115,0.048,0.22,0.113,0.29,0.217
		c0.053,0.346-0.148,0.437-0.29,0.588V100h0.119c-0.008-0.025-0.007-0.042-0.018-0.07c0.072,0.018,0.122,0.044,0.169,0.07H12v-5
		l10.038,0.001l0,0h6.926c-0.276-0.08-0.106-0.606-0.516-0.552c0.082-0.297,0.595-0.161,0.377-0.756
		c0.73,0.357-0.233,0.515,0.184,1.308l5.503,0.001c0.23-0.205,0.156-0.117,0.042,0l14.282,0.001c0.002-0.05,0.004-0.1,0.022-0.176
		c0.177,0.012,0.219,0.094,0.208,0.176h0.654c0.064-0.147,0.122-0.303,0.083-0.554c0.109,0.018,0.199,0.271,0.23,0.553l2.958-0.047
		c0.03-0.204,0.289-0.474,0.214-0.695c0.308,0.034,0.24,0.418,0.134,0.689l2.962-0.047c0.014-0.169,0.146-0.295,0.496-0.265
		c0,0.086,0,0.171,0,0.257l3.76-0.061c-0.025-0.097-0.075-0.169-0.169-0.196c0.298-0.144,0.282-0.598,0.756-0.566
		c-0.014,0.294-0.038,0.575-0.164,0.756l1.707-0.027c0.198-0.176,0.144-0.108,0.039-0.001l5.4-0.086
		c-0.079-0.254-0.096-0.497,0.009-0.642c0.294,0.052,0.366,0.323,0.4,0.635l0.898-0.015c-0.006-0.056-0.002-0.131,0.023-0.242
		c0.226,0.016,0.241,0.141,0.192,0.239l2.478-0.04l2.623-0.047c0-0.234,0-0.469,0-0.703l-2.488-0.045
		c-0.028,0.139-0.502,0.188-0.347-0.006l-5.977-0.096c-0.031,0.058-0.06,0.105-0.07,0.13c-0.129-0.008-0.188-0.061-0.209-0.134
		l-7.164-0.115c0.001,0.021,0.002,0.041,0.003,0.061c-0.047-0.017-0.088-0.039-0.127-0.063l-3.322-0.053
		c-0.057,0.092-0.137,0.161-0.143,0.304c-0.165,0.034-0.232-0.138-0.22-0.31L50,93.497l-7.55,0.001
		c-0.027,0.151-0.239,0.289-0.229,0h-2.433c0.092,0.255-0.261,0.537-0.212,0l-19.632,0.001c0,0.002,0,0.003,0,0.005
		c-0.002-0.001-0.002-0.003-0.004-0.005L15.975,93.5c0,0.001,0,0.003,0,0.004c-0.126,0-0.252,0-0.378,0c0-0.001,0-0.003,0-0.004H12
		V90h17.386c-0.071-0.322,0.254-0.573,0.227,0h0.332c-0.015-0.055-0.018-0.134,0.015-0.274c0.255,0.017,0.24,0.175,0.167,0.274
		h16.85c-0.002-0.029-0.002-0.061-0.008-0.086c0.036,0.021,0.056,0.057,0.083,0.086h1.454c-0.012-0.055,0.022-0.14,0.163-0.274
		c0.229,0.108,0.223,0.209,0.148,0.274h4.011c-0.032-0.083-0.043-0.175-0.002-0.274c0.367-0.098,0.406,0.132,0.532,0.274h3.236
		c0.005-0.03,0.002-0.049,0.011-0.086c0.107,0.007,0.157,0.043,0.186,0.086h0.749c0.005-0.03,0.002-0.049,0.011-0.086
		c0.106,0.007,0.156,0.043,0.185,0.086h3.565c-0.021-0.037-0.066-0.113-0.159-0.274c-0.053-0.091-0.077-0.133-0.084-0.146
		c0.022,0.038,0.191,0.329,0.243,0.42h7.011c0.005-0.03,0.002-0.049,0.011-0.086c0.107,0.007,0.157,0.043,0.186,0.086h0.371
		c0.006-0.031,0.003-0.05,0.011-0.086c0.059,0.022,0.095,0.054,0.128,0.086h15.356c0.01-0.051,0.016-0.087,0.013-0.086
		c0.059-0.011,0.101,0.029,0.133,0.086h0.389c0.014-0.028,0.023-0.057,0.045-0.086c0.039,0.016,0.065,0.053,0.094,0.086H88v4.138
		l-8.712-0.157c0.087,0.175-0.272,0.464-0.206-0.004l-4.068-0.073c0.415,0.171,0.572,0.983,0.867,0.546
		c0.105,0.03,0.121,0.072,0.104,0.13l5.922-0.107c0.025-0.025,0.067-0.067,0.023-0.022c-0.018,0.018-0.017,0.017-0.023,0.022
		l0.672-0.012c-0.063-0.094-0.096-0.218-0.082-0.389c0.189,0,0.378,0,0.567,0c0,0.126,0,0.253,0,0.38L88,94.362V100h2.723
		c0.03-0.023,0.046-0.042,0.09-0.07c0.056,0.024,0.08,0.048,0.106,0.07h8.686c0.029-0.023,0.045-0.042,0.089-0.07
		c0.056,0.024,0.08,0.048,0.107,0.07H100V88h-5.645L94.506,79.107z M94.213,61C94.786,61.224,94.008,62.003,94.213,61L94.213,61z
		 M94.213,55.331c-0.126,0-0.253,0-0.379,0c0-0.127,0-0.253,0-0.379c0.126,0,0.253,0,0.379,0
		C94.213,55.078,94.213,55.204,94.213,55.331z M93.834,53.063c-0.272-0.715,0.52-0.362,0.379-0.944
		C94.646,52.267,94.396,53.288,93.834,53.063z M94.779,56.465C94.654,56.588,94.857,56.386,94.779,56.465L94.779,56.465z
		 M94.59,54.008C95.157,54.046,94.41,54.793,94.59,54.008L94.59,54.008z M94.59,47.204c0.258,0.059,0.158,0.474,0.189,0.757
		C94.342,47.907,94.346,47.456,94.59,47.204z M94.779,40.401C94.654,40.525,94.857,40.321,94.779,40.401L94.779,40.401z
		 M92.323,10.354C92.199,10.477,92.402,10.274,92.323,10.354L92.323,10.354z M93.456,10.543
		C94.023,10.581,93.275,11.327,93.456,10.543L93.456,10.543z M94.023,12.054C94.104,11.975,93.9,12.178,94.023,12.054L94.023,12.054
		z M94.213,11.488c-0.367,0.074-0.276-0.861,0.188-0.568C94.455,11.225,94.224,11.246,94.213,11.488z M94.023,6.196
		C94.59,6.234,93.843,6.98,94.023,6.196L94.023,6.196z M94.401,11.488C94.277,11.611,94.48,11.408,94.401,11.488L94.401,11.488z
		 M94.213,18.102C94.779,18.14,94.031,18.886,94.213,18.102L94.213,18.102z M93.834,29.063c0.126,0,0.253,0,0.379,0
		c0,0.126,0,0.252,0,0.378c-0.126,0-0.253,0-0.379,0C93.834,29.314,93.834,29.188,93.834,29.063z M94.213,22.826
		C94.881,23.145,93.596,23.416,94.213,22.826L94.213,22.826z M94.213,21.503C94.779,21.542,94.031,22.288,94.213,21.503
		L94.213,21.503z M94.213,23.771C94.292,23.692,94.089,23.895,94.213,23.771L94.213,23.771z M93.645,27.929
		C93.725,27.85,93.521,28.052,93.645,27.929L93.645,27.929z M94.401,33.221c-0.27-0.233-0.356-0.65-0.378-1.135
		C94.273,32.389,94.832,32.792,94.401,33.221z M94.309,37.623c0.086,0.052,0.172,0.104,0.211,0.127
		C94.488,37.731,94.42,37.691,94.309,37.623c-0.029-0.018-0.06-0.034-0.096-0.057c-0.065-0.04-0.104-0.063-0.121-0.072
		C94.125,37.513,94.216,37.568,94.309,37.623z M94.023,39.834C94.59,39.873,93.843,40.619,94.023,39.834L94.023,39.834z
		 M94.023,38.512C94.104,38.433,93.9,38.636,94.023,38.512L94.023,38.512z M93.959,42.561c0.014,0.005,0.086,0.036,0.254,0.108
		c0.063,0.026,0.107,0.046,0.146,0.063C94.209,42.668,93.982,42.57,93.959,42.561z M94.59,45.504c-0.125,0-0.252,0-0.377,0
		c0-0.126,0-0.252,0-0.378c0.125,0,0.252,0,0.377,0C94.59,45.252,94.59,45.378,94.59,45.504z M93.834,31.519
		c-0.073-0.531,0.861-0.805-0.189-0.755c0.067-0.248,0.334-0.297,0.379-0.567c0.334,0.171,0.313,0.695,0.756,0.756
		C94.648,31.325,94.276,31.456,93.834,31.519z M94.59,26.228C95.157,26.266,94.41,27.013,94.59,26.228L94.59,26.228z M94.779,20.747
		c0.131,0.746-0.797,0.618-0.756,0C94.276,20.747,94.527,20.747,94.779,20.747z M94.59,16.779
		C94.67,16.7,94.466,16.902,94.59,16.779L94.59,16.779z M94.59,14.889C95.29,15.461,94.018,15.526,94.59,14.889L94.59,14.889z
		 M97.803,11.488c-0.188,0-0.377,0-0.566,0c-0.033-0.413,0.155-0.602,0.566-0.568C97.803,11.109,97.803,11.298,97.803,11.488z
		 M98.559,9.409c-0.412-0.028-0.405-0.476-0.377-0.945C98.594,8.491,98.588,8.94,98.559,9.409z M98.938,8.086
		C99.504,8.124,98.757,8.87,98.938,8.086L98.938,8.086z M98.938,6.952C99.504,6.99,98.757,7.736,98.938,6.952L98.938,6.952z
		 M99.314,9.786C100.053,10.256,98.688,10.062,99.314,9.786L99.314,9.786z M99.126,8.841C99.7,9.065,98.922,9.844,99.126,8.841
		L99.126,8.841z M99.693,6.763c-0.127,0-0.252,0-0.379,0c0-0.126,0-0.252,0-0.378c0.127,0,0.252,0,0.379,0
		C99.693,6.51,99.693,6.637,99.693,6.763z M99.693,5.25c-0.569,0.191-0.334-0.42-0.379-0.755c0.127,0,0.252,0,0.379,0
		C99.693,4.747,99.693,4.999,99.693,5.25z M99.314,2.039C99.941,2.313,98.578,2.509,99.314,2.039L99.314,2.039z M98.182,1.66
		C98.748,1.699,98.001,2.446,98.182,1.66L98.182,1.66z M97.803,0.148C97.883,0.069,97.68,0.272,97.803,0.148L97.803,0.148z
		 M97.236,0.337C97.803,0.375,97.056,1.122,97.236,0.337L97.236,0.337z M96.669,0.337C96.75,0.258,96.547,0.461,96.669,0.337
		L96.669,0.337z M96.48,1.282C97.047,1.32,96.3,2.067,96.48,1.282L96.48,1.282z M95.157,0.904
		C95.725,0.942,94.977,1.689,95.157,0.904L95.157,0.904z M95.348,1.471C95.223,1.595,95.426,1.392,95.348,1.471L95.348,1.471z
		 M95.157,0.148C95.033,0.272,95.236,0.069,95.157,0.148L95.157,0.148z M94.023,1.093c0.4,0.06,0.041,0.896-0.379,0.756
		C93.509,1.334,94.021,1.468,94.023,1.093z M90,2h0.02C90,1.771,90.144,1.478,90.434,1.66c0.03,0.175-0.032,0.257-0.093,0.34h0.596
		c-0.036-0.244-0.055-0.507-0.313-0.529c0.02-0.669,0.624,0.402,0.566-0.189c0.214,0.036,0.104,0.19,0,0.189
		C91.142,1.75,91.273,1.849,91.354,2h3.133c-0.063-0.289,0.057-0.66,0.104-0.907C94.904,1.152,94.832,1.681,94.714,2H98v1.414
		c0.325,0.28,0.465-0.295,0.182-0.809c0.574-0.006,0.471,0.663,0.566,1.134C98.359,3.951,98.381,3.775,98,3.868v0.4
		c0.196,0.185,0.364,0.091,0,0.301v0.303c0.318,0.005,0.483-0.141,0.559-0.376c0.795,0.615-0.39,1.131,0.379,1.889
		C98.354,6.158,98.301,5.401,98,4.89V10h-0.743c-0.13,0.129-0.254,0.239-0.042,0H95V5.75V5.632
		c-0.049,0.152-0.088,0.335-0.031,0.563c-0.417-0.023-0.08-0.801-0.189-1.134c0.107,0.025,0.172,0.057,0.221,0.09V5h-0.75H90V2z
		 M91.945,5.062c0.47,0.029,0.055,0.64,0,0.756C91.379,5.693,92.125,5.414,91.945,5.062z M90,6.5h1.015
		c0.065-0.346,0.088-0.736,0.552-0.682c0.036,0.329-0.019,0.568-0.198,0.682H93.5V10H90V6.5z M67.379,94.26
		C67.943,94.299,67.197,95.046,67.379,94.26L67.379,94.26z M60.196,94.827c-0.232-0.082-0.388-0.241-0.378-0.567
		C60.051,94.344,60.207,94.502,60.196,94.827z M59.063,94.449C59.629,94.487,58.883,95.235,59.063,94.449L59.063,94.449z
		 M47.914,93.504c0.308-0.085,0.308,1.031,0,0.945C47.135,94.541,47.644,93.526,47.914,93.504z M46.779,94.26
		C47.235,94.895,46.145,93.804,46.779,94.26L46.779,94.26z M43.377,93.504C43.943,93.543,43.197,94.29,43.377,93.504L43.377,93.504z
		 M43.189,94.26C43.754,94.299,43.007,95.046,43.189,94.26L43.189,94.26z M41.299,94.449C41.174,94.573,41.377,94.37,41.299,94.449
		L41.299,94.449z M36.574,93.693C37.14,93.731,36.394,94.479,36.574,93.693L36.574,93.693z M36.007,93.693
		C35.882,93.817,36.085,93.614,36.007,93.693L36.007,93.693z M32.417,94.26c0.126,0,0.252,0,0.377,0
		c0.064,0.38-0.039,0.592-0.377,0.567C32.417,94.638,32.417,94.449,32.417,94.26z M27.692,94.26
		C27.083,93.814,28.356,93.497,27.692,94.26L27.692,94.26z M24.668,93.882C25.405,94.354,24.042,94.158,24.668,93.882L24.668,93.882
		z M22.211,93.882C22.777,93.921,22.031,94.668,22.211,93.882L22.211,93.882z M16.731,94.071
		C16.606,94.195,16.81,93.992,16.731,94.071L16.731,94.071z M14.463,94.638C15.029,94.677,14.282,95.424,14.463,94.638
		L14.463,94.638z M14.019,94.302c0.053,0.117,0.108,0.24,0.131,0.29c-0.011-0.024-0.032-0.069-0.065-0.143
		C14.06,94.393,14.038,94.346,14.019,94.302C13.912,94.069,13.818,93.862,14.019,94.302z M12.573,94.449
		C12.653,94.37,12.45,94.573,12.573,94.449L12.573,94.449z M79.85,94.26C80.307,94.895,79.217,93.804,79.85,94.26L79.85,94.26z
		 M92.512,89.158c0.127,0,0.252,0,0.377,0c0,0.126,0,0.252,0,0.378c-0.125,0-0.25,0-0.377,0
		C92.512,89.41,92.512,89.284,92.512,89.158z M91.189,88.402c0.16,0.035,0.178-0.074,0.188-0.189
		c0.366-0.075,0.276,0.86-0.188,0.567C91.189,88.654,91.189,88.528,91.189,88.402z M91.189,89.726
		c-0.277-0.165-0.6-0.283-0.566-0.756C90.899,89.134,91.222,89.252,91.189,89.726z M89.678,90.67
		C90.415,91.14,89.051,90.945,89.678,90.67L89.678,90.67z M89.488,76.308C90.055,76.346,89.307,77.093,89.488,76.308L89.488,76.308z
		 M88.354,88.024c-0.113-0.491,0.075-0.681,0.565-0.567C88.955,87.869,88.766,88.059,88.354,88.024z M88.92,90.291
		c0.059,0.771-0.394,0.102-0.755,0.189c0-0.314,0-0.63,0-0.944C88.763,89.442,88.236,90.473,88.92,90.291z M87.977,70.638
		c0.16,0.035,0.178-0.074,0.188-0.188c0.366-0.075,0.276,0.86-0.188,0.566C87.977,70.89,87.977,70.764,87.977,70.638z
		 M87.977,63.457C88.543,63.495,87.796,64.242,87.977,63.457L87.977,63.457z M89.109,16.779c-0.082,0.232-0.242,0.388-0.566,0.377
		C88.511,16.633,88.834,16.507,89.109,16.779z M88.92,4.684C89.001,4.605,88.798,4.808,88.92,4.684L88.92,4.684z M89.109,18.102
		c0.055,0.305-0.178,0.325-0.189,0.567C88.555,18.744,88.646,17.808,89.109,18.102z M88.732,19.236
		C89.299,19.273,88.551,20.02,88.732,19.236L88.732,19.236z M88.732,30.007C88.812,29.928,88.609,30.131,88.732,30.007
		L88.732,30.007z M89.488,35.109c-0.134-0.001-0.599-1.284-0.945-1.7C89.076,33.758,89.564,34.151,89.488,35.109z M89.301,23.394
		C89.175,23.517,89.379,23.313,89.301,23.394L89.301,23.394z M89.301,41.157C89.865,41.195,89.118,41.941,89.301,41.157
		L89.301,41.157z M89.301,35.677C89.175,35.8,89.379,35.598,89.301,35.677L89.301,35.677z M88.165,53.63
		c0.376,0.002,0.241,0.516,0.755,0.378c0.191,0.568-0.42,0.335-0.755,0.378C88.165,54.134,88.165,53.882,88.165,53.63z
		 M88.354,51.74C87.775,51.131,88.581,50.326,88.354,51.74L88.354,51.74z M88.543,39.646C89.118,39.869,88.338,40.647,88.543,39.646
		L88.543,39.646z M88.732,39.456C88.124,39.011,89.396,38.692,88.732,39.456L88.732,39.456z M88.732,41.157
		C88.812,41.078,88.609,41.281,88.732,41.157L88.732,41.157z M88.92,44.369C88.345,43.955,89.139,43.159,88.92,44.369L88.92,44.369z
		 M88.92,41.724C89.379,42.358,88.287,41.268,88.92,41.724L88.92,41.724z M88.92,36.432c0.082,0.396-0.128,0.501-0.188,0.757
		c-0.253-0.124-0.352-0.404-0.378-0.757C88.543,36.432,88.732,36.432,88.92,36.432z M88.165,41.535
		C88.864,42.108,87.592,42.172,88.165,41.535L88.165,41.535z M88.165,57.031c0.013,0.001,0.022,0.004,0.034,0.005
		c-0.035-0.005-0.073-0.011-0.111-0.016C88.111,57.023,88.137,57.027,88.165,57.031z M88.354,58.732
		c0.153,0.036,0.188,0.189,0.378,0.188c-0.036,0.153-0.189,0.188-0.189,0.378c-0.152-0.036-0.188-0.189-0.378-0.188
		C88.201,58.957,88.355,58.922,88.354,58.732z M88.543,67.236C89.109,67.274,88.362,68.021,88.543,67.236L88.543,67.236z
		 M88.732,75.362C88.812,75.283,88.609,75.486,88.732,75.362L88.732,75.362z M88.732,82.355
		C88.609,82.479,88.812,82.275,88.732,82.355L88.732,82.355z M88.165,73.473c-0.023-0.339,0.231-0.398,0.189-0.756
		C88.688,72.656,88.693,73.775,88.165,73.473z M88.165,80.276C88.731,80.313,87.984,81.06,88.165,80.276L88.165,80.276z
		 M88.354,74.795C88.434,74.717,88.23,74.92,88.354,74.795L88.354,74.795z M88.354,75.929c-0.231-0.081-0.388-0.241-0.378-0.566
		C88.21,75.444,88.363,75.604,88.354,75.929z M88.165,82.355c0.056,0.036,0.382,0.562,0.189,0.756
		C88.205,83.26,87.933,82.199,88.165,82.355z M88.354,85.001C89.023,85.317,87.737,85.591,88.354,85.001L88.354,85.001z
		 M88.92,86.701C89.001,86.622,88.798,86.824,88.92,86.701L88.92,86.701z M88.92,80.843c0-0.126,0-0.252,0-0.378
		c0.127,0,0.254,0,0.381,0c0,0.126,0,0.252,0,0.378C89.174,80.843,89.047,80.843,88.92,80.843z M89.109,73.095
		C89.779,73.413,88.493,73.686,89.109,73.095L89.109,73.095z M89.109,77.819C89.189,77.74,88.986,77.943,89.109,77.819
		L89.109,77.819z M89.301,78.765C89.175,78.889,89.379,78.685,89.301,78.765L89.301,78.765z M89.301,67.992
		c-0.098-0.243-0.201-0.391-0.381-0.945C89.484,67.008,89.588,67.722,89.301,67.992z M89.488,87.08
		C89.363,87.202,89.568,86.999,89.488,87.08L89.488,87.08z M89.488,61.378C90.055,61.416,89.307,62.163,89.488,61.378L89.488,61.378
		z M89.488,65.157C89.568,65.078,89.363,65.281,89.488,65.157L89.488,65.157z M89.678,66.291c-0.139,0.337-0.344,0.027-0.568,0
		C89.25,65.955,89.454,66.265,89.678,66.291z M89.301,52.118C88.291,51.743,89.142,50.892,89.301,52.118L89.301,52.118z
		 M89.866,54.575c-0.706,0.074-0.079-1.182-0.565-1.323C89.986,52.866,89.721,53.993,89.866,54.575z M89.678,39.646
		C90.243,39.684,89.496,40.43,89.678,39.646L89.678,39.646z M89.678,24.148C89.553,24.272,89.756,24.069,89.678,24.148
		L89.678,24.148z M89.866,25.66C89.945,25.581,89.742,25.785,89.866,25.66L89.866,25.66z M89.678,3.55
		C90.346,3.868,89.061,4.141,89.678,3.55L89.678,3.55z M89.678,10.543C90.135,11.176,89.043,10.086,89.678,10.543L89.678,10.543z
		 M89.678,15.078C90.304,15.353,88.939,15.548,89.678,15.078L89.678,15.078z M89.109,9.975C89.676,10.013,88.93,10.761,89.109,9.975
		L89.109,9.975z M89.301,2.227C89.175,2.351,89.379,2.148,89.301,2.227L89.301,2.227z M89.109,5.629
		C89.189,5.55,88.986,5.752,89.109,5.629L89.109,5.629z M88.732,0.337c0.126,0,0.252,0,0.377,0c0,0.126,0,0.252,0,0.379
		c-0.125,0-0.251,0-0.377,0C88.732,0.589,88.732,0.463,88.732,0.337z M88.732,2.794C88.812,2.715,88.609,2.918,88.732,2.794
		L88.732,2.794z M88.732,7.708C88.812,7.628,88.609,7.831,88.732,7.708L88.732,7.708z M88.732,14.133
		C88.609,14.256,88.812,14.054,88.732,14.133L88.732,14.133z M88.732,15.646C88.609,15.769,88.812,15.565,88.732,15.646
		L88.732,15.646z M88.543,8.086C88.623,8.006,88.42,8.209,88.543,8.086L88.543,8.086z M88.543,14.511
		C88.623,14.432,88.42,14.635,88.543,14.511L88.543,14.511z M88.543,25.094C87.844,24.521,89.116,24.457,88.543,25.094
		L88.543,25.094z M88.354,26.983C88.92,27.022,88.174,27.769,88.354,26.983L88.354,26.983z M84.953,5.44
		C84.829,5.563,85.032,5.36,84.953,5.44L84.953,5.44z M84.008,5.818C83.884,5.941,84.087,5.738,84.008,5.818L84.008,5.818z
		 M77.582,5.44C78.148,5.478,77.402,6.225,77.582,5.44L77.582,5.44z M77.016,5.44C76.893,5.563,77.094,5.36,77.016,5.44L77.016,5.44
		z M75.881,5.629c0.162,0.034,0.18-0.074,0.19-0.188c0.366-0.076,0.276,0.86-0.19,0.566C75.881,5.881,75.881,5.755,75.881,5.629z
		 M73.613,5.062C74.181,5.1,73.434,5.847,73.613,5.062L73.613,5.062z M69.455,5.44C70.03,5.663,69.252,6.442,69.455,5.44
		L69.455,5.44z M65.488,5.25c0.219,0.159,0.506,0.25,0.945,0.19c-0.306,0.216-0.6,0.742-0.945,0.377
		C65.488,5.629,65.488,5.44,65.488,5.25z M62.086,5.818C62.651,5.856,61.905,6.602,62.086,5.818L62.086,5.818z M59.252,5.818
		c0.125,0,0.252,0,0.377,0c0,0.126,0,0.251,0,0.378c-0.125,0-0.252,0-0.377,0C59.252,6.069,59.252,5.944,59.252,5.818z
		 M58.496,6.006C59.232,6.477,57.869,6.282,58.496,6.006L58.496,6.006z M57.74,5.44C58.314,4.924,57.225,6.014,57.74,5.44
		L57.74,5.44z M57.172,6.006C57.252,5.928,57.049,6.131,57.172,6.006L57.172,6.006z M55.283,5.062
		c0.39,0.342-0.217,1.284-0.757,1.323C54.388,5.552,55.139,5.61,55.283,5.062z M52.449,5.44C52.324,5.563,52.527,5.36,52.449,5.44
		L52.449,5.44z M51.314,5.629C51.189,5.752,51.393,5.55,51.314,5.629L51.314,5.629z M49.802,5.44
		C50.369,5.478,49.622,6.225,49.802,5.44L49.802,5.44z M49.236,5.44c0.409-0.032,0.084,0.67,0.188,0.944
		C49.096,6.212,48.936,5.723,49.236,5.44z M48.103,5.062C47.978,5.186,48.181,4.982,48.103,5.062L48.103,5.062z M47.536,5.062
		C48.204,5.38,46.917,5.652,47.536,5.062L47.536,5.062z M46.023,6.006C46.103,5.928,45.899,6.131,46.023,6.006L46.023,6.006z
		 M44.134,5.25C44.802,5.568,43.517,5.841,44.134,5.25L44.134,5.25z M42.811,6.384C42.131,5.307,43.289,5.555,42.811,6.384
		L42.811,6.384z M40.731,5.25C41.4,5.568,40.114,5.841,40.731,5.25L40.731,5.25z M37.645,5.44c-0.022,0.066-0.039,0.115-0.043,0.129
		C37.604,5.559,37.619,5.52,37.645,5.44z M36.574,6.006C36.652,5.928,36.45,6.131,36.574,6.006L36.574,6.006z M33.55,6.006
		C33.629,5.928,33.426,6.131,33.55,6.006L33.55,6.006z M32.605,5.629C32.481,5.752,32.685,5.55,32.605,5.629L32.605,5.629z
		 M31.311,5.329c-0.009-0.025-0.018-0.05-0.028-0.079c-0.006-0.019-0.012-0.033-0.018-0.049C31.279,5.242,31.294,5.286,31.311,5.329
		z M26.936,5.629C27.502,5.667,26.755,6.414,26.936,5.629L26.936,5.629z M19.755,5.818C19.63,5.941,19.834,5.738,19.755,5.818
		L19.755,5.818z M15.786,5.062c0.126,0,0.252,0,0.378,0c0.064,0.38-0.039,0.592-0.378,0.567C15.786,5.44,15.786,5.25,15.786,5.062z
		 M14.213,6.5h2.902c-0.002-0.04-0.011-0.071-0.007-0.116c0.206-0.017,0.355,0.022,0.45,0.116h7.329
		c0.029-0.121,0.083-0.232,0.159-0.304c0.186-0.014,0.218,0.125,0.21,0.304h7.146c0.004-0.038,0.003-0.065,0.015-0.116
		c0.132,0.009,0.188,0.058,0.206,0.116h7.354c0-0.102,0-0.203,0-0.304c0.126,0,0.252,0,0.378,0c0,0.102,0,0.203,0,0.304h0.372
		c-0.024-0.05-0.033-0.137,0.006-0.304c0.28,0.019,0.239,0.209,0.148,0.304h3.122c-0.117-0.066-0.246-0.122-0.434-0.116
		c0.018-0.853,1.057-0.479,0.615,0.116h3.534c0.057-0.243-0.383-0.28-0.559-0.494c0-0.125,0-0.251,0-0.377
		C47.543,5.649,48.03,6.171,48,6.5h14.856c-0.003-0.041-0.005-0.082-0.015-0.116c0.127,0,0.252,0,0.379,0c0,0.039,0,0.077,0,0.116
		h0.958c0.172-0.262,0.413-0.552,0.364-0.871c0.423,0.108,0.313,0.5,0.094,0.871h7.46c0.007-0.033,0.012-0.069,0.006-0.116
		c0.065,0.032,0.106,0.073,0.141,0.116h2.867c-0.036-0.06-0.083-0.11-0.174-0.116c0.06-0.364,0.462-0.17,0.566,0.116h3.875
		c0.026-0.036,0.046-0.069,0.095-0.116c0.084,0.04,0.137,0.079,0.166,0.116h3.095c0.098-0.067,0.261-0.113,0.519-0.116
		c0,0.039,0,0.077,0,0.116h0.85c0.027-0.036,0.046-0.069,0.095-0.116c0.084,0.04,0.137,0.079,0.167,0.116H88V10h-3.261
		c-0.012,0.011-0.011,0.01-0.001,0h-5.039c0.475,0.245-0.217,0.926-0.041,0H66.627c0.43,0.127,0.366,0.748,0.373,1.298
		C66.65,11.03,66.195,10.33,66.421,10H46.75c-0.056,0.115-0.165,0.177-0.35,0.164c0-0.055,0-0.109,0-0.164h-0.813
		c0.075,0.102,0.075,0.238-0.132,0.354c-0.126,0-0.251,0-0.378,0c-0.035-0.169-0.014-0.274,0.025-0.354h-6.283
		c0.016,0.11,0.008,0.243,0.022,0.354c-0.189,0-0.378,0-0.567,0c0.043-0.163,0.17-0.243,0.267-0.354h-4.394
		c0.117,0.053,0.184,0.157,0.347,0.164c0.074,0.359-0.816,0.278-0.577-0.164h-1.972c0.053,0.091,0.056,0.258-0.098,0.543
		c-0.235-0.251-0.233-0.44-0.162-0.543h-2.272c0.212,0.239,0.087,0.129-0.042,0h-6.376c0.305,0.187,0.448,0.647,0.159,0.92
		c-0.581-0.128-0.26-0.49-0.194-0.92h-2.438c-0.047,0.134-0.226,0.236-0.229,0h-1.446c-0.016,0.052-0.031,0.104-0.038,0.164
		c-0.091-0.052-0.171-0.108-0.248-0.164H15.55c0.275,0.509-0.393,0.457-0.25,0h-0.785c0.202,0.088,0.336,0.243,0.327,0.543
		c-0.393,0.085-0.363-0.251-0.378-0.543H12V8.049c-0.149,0.02-0.278-0.063,0-0.333V6.5h1.873c0.076-0.17,0.172-0.347,0.212-0.494
		C14.382,6.127,14.317,6.297,14.213,6.5z M85.709,10.164c0,0.126,0,0.252,0,0.379c-0.126,0-0.253,0-0.378,0c0-0.127,0-0.253,0-0.379
		C85.456,10.164,85.583,10.164,85.709,10.164z M80.984,10.354C80.859,10.477,81.063,10.274,80.984,10.354L80.984,10.354z
		 M78.338,10.543C78.965,10.818,77.602,11.013,78.338,10.543L78.338,10.543z M77.582,11.109c-0.953-0.007-0.41-0.778,0-0.945
		C78.004,10.192,77.338,10.64,77.582,11.109z M75.314,11.488C75.889,11.71,75.109,12.489,75.314,11.488L75.314,11.488z
		 M73.424,10.92C72.817,10.475,74.09,10.156,73.424,10.92L73.424,10.92z M71.914,11.676c0,0.126,0,0.252,0,0.378
		c-0.128,0-0.253,0-0.378,0c0-0.126,0-0.252,0-0.378C71.661,11.676,71.786,11.676,71.914,11.676z M68.7,10.92
		c0.165,0.731-0.461,0.673-0.567,1.134C67.777,11.866,68.227,10.903,68.7,10.92z M68.133,10.164c0.127,0,0.252,0,0.379,0
		C68.465,10.85,67.715,10.722,68.133,10.164z M68.89,10.543C69.348,11.176,68.256,10.086,68.89,10.543L68.89,10.543z M65.866,10.354
		C65.741,10.477,65.945,10.274,65.866,10.354L65.866,10.354z M64.92,11.109C65.486,11.147,64.739,11.894,64.92,11.109L64.92,11.109z
		 M64.354,11.865C64.811,12.499,63.72,11.408,64.354,11.865L64.354,11.865z M62.842,10.731
		C63.579,11.201,62.216,11.007,62.842,10.731L62.842,10.731z M58.685,11.298C58.107,10.883,58.902,10.088,58.685,11.298
		L58.685,11.298z M54.526,11.298c-0.138-0.516,0.376-0.38,0.378-0.755C55.305,10.602,54.945,11.438,54.526,11.298z M52.26,10.164
		C52.135,10.288,52.338,10.085,52.26,10.164L52.26,10.164z M51.314,10.731C51.881,10.769,51.133,11.516,51.314,10.731L51.314,10.731
		z M49.991,11.109c0,0.126,0,0.252,0,0.379c-0.125,0-0.251,0-0.378,0c0-0.127,0-0.253,0-0.379
		C49.74,11.109,49.866,11.109,49.991,11.109z M47.347,11.298C48.083,11.769,46.72,11.574,47.347,11.298L47.347,11.298z
		 M46.213,10.354C46.087,10.477,46.291,10.274,46.213,10.354L46.213,10.354z M45.833,11.488
		C45.913,11.408,45.71,11.611,45.833,11.488L45.833,11.488z M44.134,11.109c0,0.126,0,0.252,0,0.379c-0.127,0-0.252,0-0.378,0
		c0-0.127,0-0.253,0-0.379C43.881,11.109,44.007,11.109,44.134,11.109z M43.567,10.731C43.442,10.855,43.646,10.652,43.567,10.731
		L43.567,10.731z M40.92,10.731C41.589,11.049,40.303,11.321,40.92,10.731L40.92,10.731z M37.33,11.109
		C37.896,11.147,37.149,11.894,37.33,11.109L37.33,11.109z M36.574,11.298C36.45,11.421,36.652,11.219,36.574,11.298L36.574,11.298z
		 M33.172,11.865C32.564,11.42,33.837,11.101,33.172,11.865L33.172,11.865z M32.983,10.354
		C33.549,10.392,32.803,11.139,32.983,10.354L32.983,10.354z M31.66,11.676C32.226,11.714,31.48,12.461,31.66,11.676L31.66,11.676z
		 M31.093,11.109C31.172,11.03,30.97,11.233,31.093,11.109L31.093,11.109z M29.015,11.109c-0.41,0.032-0.085-0.67-0.189-0.945
		C29.235,10.133,28.911,10.834,29.015,11.109z M25.235,11.298C25.314,11.219,25.111,11.421,25.235,11.298L25.235,11.298z
		 M23.912,11.109c-0.58-0.186,0.217-0.503,0.189-0.755C24.681,10.539,23.884,10.857,23.912,11.109z M23.912,11.865
		C23.788,11.989,23.991,11.786,23.912,11.865L23.912,11.865z M22.022,10.543C21.899,10.666,22.101,10.463,22.022,10.543
		L22.022,10.543z M22.022,11.488C21.899,11.611,22.101,11.408,22.022,11.488L22.022,11.488z M20.322,10.354
		C20.198,10.477,20.401,10.274,20.322,10.354L20.322,10.354z M18.432,10.92C18.998,10.958,18.251,11.705,18.432,10.92L18.432,10.92z
		 M18.054,11.865C17.93,11.989,18.133,11.786,18.054,11.865L18.054,11.865z M16.542,10.164c0,0.126,0,0.252,0,0.379
		c-0.126,0-0.252,0-0.378,0c0-0.127,0-0.253,0-0.379C16.29,10.164,16.416,10.164,16.542,10.164z M14.274,11.488
		c0-0.19,0-0.379,0-0.568C14.781,10.996,15.064,11.484,14.274,11.488z M14.085,11.676c0,0.126,0,0.252,0,0.378
		c-0.126,0-0.251,0-0.377,0c0-0.126,0-0.252,0-0.378C13.833,11.676,13.959,11.676,14.085,11.676z M11.818,40.969
		C12.384,41.006,11.637,41.753,11.818,40.969L11.818,40.969z M12.006,50.229C11.882,50.352,12.086,50.149,12.006,50.229
		L12.006,50.229z M11.439,78.953c0.281,0.16,0.273,0.608,0.378,0.945C11.267,79.927,11.243,79.132,11.439,78.953z M11.447,80.274
		c-0.001,0.097-0.004,0.273-0.008,0.568C11.431,81.41,11.443,80.563,11.447,80.274z M11.25,70.826
		c-0.746,0.116-0.222-1.037-0.378-1.511C11.46,69.356,11.191,70.256,11.25,70.826z M10.873,73.095
		c-0.36-0.163,0.204-0.112,0.189-0.378C11.307,72.134,11.311,73.26,10.873,73.095z M10.873,77.441
		C10.952,77.362,10.749,77.565,10.873,77.441L10.873,77.441z M11.25,73.851C10.762,74.502,10.794,72.879,11.25,73.851L11.25,73.851z
		 M10,69.313v1.522c0.018-0.067,0.056-0.135,0.117-0.197c0.549,0.164,0.212,0.283,0.189,0.757C10.085,71.26,9.962,71.057,10,70.859
		v4.05c0.031,0.019,0.06,0.034,0.117,0.075c0.259,0.36,0.023,0.165-0.117,0.012v0.641c0.096-0.026,0.195-0.054,0.306-0.085
		c-0.034,0.199-0.157,0.279-0.306,0.352V81.7c0.268,0.136,0.431,0.354,0.117,0.655c-0.047-0.007-0.079-0.028-0.117-0.043v2.919
		c0.094-0.147,0.245-0.238,0.495-0.23c0.082,0.37-0.215,0.363-0.495,0.375V88H6.5v-5.141c-0.233,0.025-0.488-0.341,0-0.331v-1.803
		c-0.135-0.04-0.222-0.133,0-0.244v-3.554c-0.003-0.006,0-0.016,0-0.023v-1.902c-0.129-0.129-0.237-0.251,0-0.04V38.787
		c-0.17,0.03-0.332-0.032,0-0.254v-9.383c-0.17,0.03-0.332-0.032,0-0.255v-2.351c-0.124,0.06-0.27,0.047-0.352-0.125
		c0.041-0.18,0.289-0.155,0.352-0.313v-9.278c-0.001-0.01,0-0.021,0-0.032v-4.769C6,11.608,7.093,11.332,6.563,12H10v6.877
		c0.237,0.063,0.113,0.303,0,0.333v14.032c0.042-0.1,0.087-0.181,0.117-0.211c0.554,0.16-0.246,0.476,0,0.944
		c-0.049-0.005-0.085-0.023-0.117-0.044v9.673c0.042,0.004,0.066,0,0.117,0.009c-0.014,0.145-0.061,0.218-0.117,0.265v23.567
		c0.237,0.063,0.113,0.303,0,0.333v0.571c0.248-0.026,0.45-0.145,0.684-0.735c0.297,0.081,0.162,0.594,0.756,0.378
		c0,0.189,0,0.378,0,0.567C10.83,68.433,10.499,68.937,10,69.313z M10.495,79.898c0.011,0.021,0.018,0.034,0.028,0.055
		c0.102,0.195,0.29,0.554,0.349,0.667c-0.036-0.069-0.14-0.267-0.349-0.667C10.455,79.823,10.424,79.764,10.495,79.898z
		 M10.117,77.252C10.196,77.174,9.993,77.376,10.117,77.252L10.117,77.252z M10.117,78.765
		C9.993,78.889,10.196,78.685,10.117,78.765L10.117,78.765z M8.604,88.402C9.342,88.872,7.979,88.678,8.604,88.402L8.604,88.402z
		 M5.581,89.158c0.659,0.074,1.111,1.438,0.189,1.512C5.904,89.97,5.447,89.859,5.581,89.158z M5.581,76.118
		C6.208,76.394,4.844,76.589,5.581,76.118L5.581,76.118z M5.392,88.591C5.471,88.512,5.269,88.715,5.392,88.591L5.392,88.591z
		 M5.392,69.882C5.471,69.803,5.269,70.006,5.392,69.882L5.392,69.882z M6.148,49.472c0.13,0.63-0.391,0.306-0.567,0.189
		C5.612,49.439,5.925,49.502,6.148,49.472z M5.77,47.771C5.849,47.692,5.646,47.896,5.77,47.771L5.77,47.771z M6.148,32.275
		C6.228,32.196,6.024,32.399,6.148,32.275L6.148,32.275z M5.959,10.164c0-0.125,0-0.252,0-0.378c0.126,0,0.252,0,0.378,0
		c0,0.126,0,0.252,0,0.378C6.211,10.164,6.085,10.164,5.959,10.164z M6.337,87.646C6.853,88.221,5.762,87.131,6.337,87.646
		L6.337,87.646z M6.337,83.3C6.213,83.423,6.416,83.221,6.337,83.3L6.337,83.3z M5.77,84.813C6.336,84.85,5.589,85.597,5.77,84.813
		L5.77,84.813z M5.77,87.646C5.646,87.77,5.849,87.566,5.77,87.646L5.77,87.646z M5.77,78.953c0.403-0.088,0.36,0.27,0.378,0.567
		C5.916,79.438,5.76,79.278,5.77,78.953z M5.959,76.874C6.525,76.913,5.778,77.659,5.959,76.874L5.959,76.874z M5.959,75.74
		C6.525,75.778,5.778,76.525,5.959,75.74L5.959,75.74z M6.148,69.692C6.228,69.613,6.024,69.816,6.148,69.692L6.148,69.692z
		 M5.761,56.793c-0.048-0.037-0.106-0.082-0.18-0.14c-0.052-0.04-0.084-0.065-0.103-0.08C5.525,56.609,5.653,56.709,5.761,56.793z
		 M5.77,59.678C5.646,59.801,5.849,59.598,5.77,59.678L5.77,59.678z M6.148,62.89c-0.361-0.079-0.813-0.068-0.756-0.566
		C5.886,62.27,6.205,62.392,6.148,62.89z M5.581,76.874C6.318,77.345,4.955,77.149,5.581,76.874L5.581,76.874z M6.337,88.213
		C7.006,88.531,5.72,88.804,6.337,88.213L6.337,88.213z M6.904,89.346c0.053,0.307-0.179,0.327-0.189,0.568
		C6.348,89.988,6.438,89.053,6.904,89.346z M10,6.5v0.354c0.034-0.029,0.059-0.055,0.117-0.092c0.363,0.16,0.061,0.288-0.117,0.279
		V9.05c0.204-0.156,0.448-0.272,0.684-0.397C10.505,8.989,10.287,9.285,10,9.513V10H6.5V9.462c-0.003-0.006,0-0.016,0-0.024V6.5H10z
		 M8.416,5.44C8.981,5.478,8.235,6.225,8.416,5.44L8.416,5.44z M10.495,4.873C11.121,5.148,9.757,5.343,10.495,4.873L10.495,4.873z
		 M10.495,3.172C10.371,3.296,10.574,3.093,10.495,3.172L10.495,3.172z M10.684,11.298C11.25,11.336,10.503,12.083,10.684,11.298
		L10.684,11.298z M10.684,7.519C10.56,7.642,10.763,7.439,10.684,7.519L10.684,7.519z M10.684,6.763
		C11.25,6.801,10.503,7.547,10.684,6.763L10.684,6.763z M10.873,20.936c0.126,0,0.252,0,0.378,0c0,0.252,0,0.504,0,0.756
		C10.682,21.882,10.916,21.271,10.873,20.936z M11.062,16.212C11.627,16.25,10.881,16.997,11.062,16.212L11.062,16.212z
		 M11.25,10.92C11.33,10.841,11.127,11.044,11.25,10.92L11.25,10.92z M11.818,20.747c0,0.125,0,0.252,0,0.378
		c-0.126,0-0.252,0-0.378,0c0-0.126,0-0.253,0-0.378C11.565,20.747,11.691,20.747,11.818,20.747z M11.818,11.109
		C11.693,11.233,11.896,11.03,11.818,11.109L11.818,11.109z M11.25,61.756C11.816,61.794,11.07,62.541,11.25,61.756L11.25,61.756z
		 M11.439,63.268C11.519,63.188,11.316,63.392,11.439,63.268L11.439,63.268z M10.495,65.536c0.156,0.533-0.267,0.489-0.189,0.944
		C9.998,66.514,9.924,65.244,10.495,65.536z M10.306,48.905C9.607,48.332,10.879,48.269,10.306,48.905L10.306,48.905z
		 M10.117,41.346c0.03-0.221,0.345-0.158,0.567-0.188C10.813,41.786,10.293,41.462,10.117,41.346z M10.117,20.747
		C10.683,20.786,9.936,21.532,10.117,20.747L10.117,20.747z M10.117,11.298C10.854,11.769,9.49,11.574,10.117,11.298L10.117,11.298z
		 M10.306,26.417C10.932,26.692,9.568,26.887,10.306,26.417L10.306,26.417z M10.306,30.764
		C10.182,30.887,10.385,30.684,10.306,30.764L10.306,30.764z M10.684,32.275c-0.357-0.021-0.131-0.625-0.567-0.567
		C10.286,31.198,10.883,31.797,10.684,32.275z M10.495,34.543c-0.178,0.088-0.268,0.135-0.303,0.15
		C10.312,34.635,10.997,34.292,10.495,34.543z M10.495,36.621c0,0.126,0,0.253,0,0.379c-0.126,0-0.251,0-0.378,0
		c0-0.126,0-0.253,0-0.379C10.243,36.621,10.369,36.621,10.495,36.621z M10.117,35.866C9.993,35.989,10.196,35.787,10.117,35.866
		L10.117,35.866z M10.684,63.079C11.25,63.117,10.503,63.863,10.684,63.079L10.684,63.079z M10.684,66.103
		C10.56,66.226,10.763,66.023,10.684,66.103L10.684,66.103z M10.873,61C10.952,60.921,10.749,61.124,10.873,61L10.873,61z
		 M10.684,48.717C11.25,48.755,10.503,49.501,10.684,48.717L10.684,48.717z M10.684,39.078c0-0.126,0-0.252,0-0.378
		c0.126,0,0.251,0,0.378,0c0,0.126,0,0.252,0,0.378C10.935,39.078,10.81,39.078,10.684,39.078z M11.25,32.086
		C11.816,32.124,11.07,32.871,11.25,32.086L11.25,32.086z M11.439,37.755C11.519,37.676,11.316,37.879,11.439,37.755L11.439,37.755z
		 M11.25,34.354C11.33,34.274,11.127,34.478,11.25,34.354L11.25,34.354z M10.873,29.818c0-0.189,0-0.378,0-0.567
		c0.126,0,0.252,0,0.378,0C11.314,29.631,11.212,29.843,10.873,29.818z M11.062,37.566C11.627,37.604,10.881,38.352,11.062,37.566
		L11.062,37.566z M11.25,41.157C11.33,41.078,11.127,41.281,11.25,41.157L11.25,41.157z M11.25,59.678
		C11.127,59.801,11.33,59.598,11.25,59.678L11.25,59.678z M11.25,43.425c0.232,0.082,0.388,0.242,0.378,0.567
		C11.396,43.909,11.241,43.75,11.25,43.425z M11.439,12.81C12.006,12.848,11.259,13.595,11.439,12.81L11.439,12.81z M11.25,17.156
		C11.825,17.38,11.046,18.159,11.25,17.156L11.25,17.156z M10.873,24.716C10.749,24.84,10.952,24.636,10.873,24.716L10.873,24.716z
		 M10.684,25.85C11.25,25.888,10.503,26.635,10.684,25.85L10.684,25.85z M10.684,22.259c-0.529,0.029-0.616-0.534-0.378-0.756
		C10.638,21.548,10.736,21.829,10.684,22.259z M10.495,19.424C9.886,18.979,11.159,18.66,10.495,19.424L10.495,19.424z
		 M10.306,13.944C10.872,13.982,10.125,14.729,10.306,13.944L10.306,13.944z M8.416,10.354C8.292,10.477,8.495,10.274,8.416,10.354
		L8.416,10.354z M11.439,71.582C12.176,72.054,10.813,71.858,11.439,71.582L11.439,71.582z M11.818,64.213
		C12.384,64.251,11.637,64.998,11.818,64.213L11.818,64.213z M11.628,5.062c0.5,0.255,0.516,0.997,1.323,0.945
		c-0.36,0.874-0.515,0.214-1.323,0.189C11.646,5.49,11.84,5.657,11.628,5.062z M11.25,2.039C11.127,2.162,11.33,1.958,11.25,2.039
		L11.25,2.039z M11.25,2.983C11.127,3.107,11.33,2.903,11.25,2.983L11.25,2.983z M11.25,9.786c0.144,0.297,0.599,0.282,0.567,0.757
		c-0.413,0.12-0.602-0.536-0.567,0.188C10.809,10.683,11.142,9.901,11.25,9.786z M10.684,13.188c-0.47-0.029-0.055-0.641,0-0.757
		C11.316,12.603,10.849,12.855,10.684,13.188z M10.684,3.928C11.25,3.966,10.503,4.713,10.684,3.928L10.684,3.928z M10.495,1.093
		c0.613,0.328-0.491,0.495-0.189,1.134C9.613,1.81,10.176,1.454,10.495,1.093z M8.983,1.093C9.063,1.014,8.859,1.218,8.983,1.093
		L8.983,1.093z M8.794,1.66C8.67,1.784,8.873,1.581,8.794,1.66L8.794,1.66z M4.825,0.526C5.391,0.565,4.645,1.312,4.825,0.526
		L4.825,0.526z M1.802,3.55C1.224,3.135,2.02,2.34,1.802,3.55L1.802,3.55z M0.856,2.794C0.936,2.715,0.733,2.918,0.856,2.794
		L0.856,2.794z M0.29,1.471C0.958,1.789-0.327,2.062,0.29,1.471L0.29,1.471z M0.479,11.676c-0.336-0.138-0.027-0.344,0-0.567
		C0.815,11.248,0.506,11.453,0.479,11.676z M0.856,10.164C1.313,10.798,0.223,9.707,0.856,10.164L0.856,10.164z M1.046,4.873
		C0.921,4.997,1.125,4.793,1.046,4.873L1.046,4.873z M1.046,10.543C1.612,10.581,0.865,11.327,1.046,10.543L1.046,10.543z
		 M1.423,9.975C1.516,8.958,2.483,9.927,1.423,9.975L1.423,9.975z M2.747,11.298C2.623,11.421,2.825,11.219,2.747,11.298
		L2.747,11.298z M5,10H3.527c0.007,0.098-0.231,0.079-0.334,0H2V2h8v1.824c0.08,0.183,0.121,0.404,0.117,0.672
		C10.066,4.488,10.04,4.505,10,4.508V5H7.034C6.771,5.571,6.373,5.258,6.789,5H5.75H5v0.618c0.26-0.056,0.714,0.083,0.959,0.011
		C5.755,5.866,5.407,5.958,5,5.992V10z M5.203,7.519C5.101,6.787,5.685,6.74,5.77,6.196C6.035,6.352,5.627,7.426,5.203,7.519z
		 M5.77,27.739C5.849,27.66,5.646,27.863,5.77,27.739L5.77,27.739z M5.581,24.716C5.457,24.84,5.66,24.636,5.581,24.716
		L5.581,24.716z M5.581,30.952c-0.161,0.034-0.178-0.074-0.189-0.188c0-0.126,0-0.252,0-0.378c0.189,0,0.378,0,0.567,0
		C5.892,30.633,5.626,30.683,5.581,30.952z M6.148,33.786c-0.188,0.253-0.511,0.372-0.567,0.757c-0.4-0.433,0.084-0.67-0.189-1.322
		C5.777,33.275,5.763,33.731,6.148,33.786z M5.392,36.621C5.471,36.542,5.269,36.745,5.392,36.621L5.392,36.621z M5.203,37.566
		c0.126,0,0.252,0,0.378,0c0,0.126,0,0.252,0,0.378c-0.126,0-0.252,0-0.378,0C5.203,37.818,5.203,37.692,5.203,37.566z
		 M5.014,40.401c0-0.189,0-0.378,0-0.567c0.126,0,0.252,0,0.378,0C5.456,40.214,5.354,40.425,5.014,40.401z M5.392,43.992
		c0.126,0,0.252,0,0.378,0c0,0.125,0,0.251,0,0.377c-0.126,0-0.252,0-0.378,0C5.392,44.243,5.392,44.117,5.392,43.992z
		 M5.392,60.244C5.471,60.165,5.269,60.368,5.392,60.244L5.392,60.244z M5.203,67.047C5.94,67.518,4.577,67.323,5.203,67.047
		L5.203,67.047z M5.203,88.97C5.08,89.093,5.282,88.89,5.203,88.97L5.203,88.97z M5.203,90.859
		C5.08,90.982,5.282,90.779,5.203,90.859L5.203,90.859z M4.636,88.591C5.202,88.629,4.456,89.376,4.636,88.591L4.636,88.591z
		 M4.07,88.402C3.945,88.525,4.149,88.322,4.07,88.402L4.07,88.402z M1.991,88.213c0.33,0.045,0.08,1.066-0.378,0.945
		C1.451,88.556,1.91,88.572,1.991,88.213z M1.612,96.906C1.692,96.827,1.489,97.03,1.612,96.906L1.612,96.906z M1.235,89.346
		c0.126,0,0.252,0,0.377,0c0,0.127,0,0.253,0,0.38c-0.125,0-0.251,0-0.377,0C1.235,89.599,1.235,89.473,1.235,89.346z M1.046,90.67
		c-0.081-0.396,0.129-0.501,0.189-0.756C1.568,89.854,1.572,90.972,1.046,90.67z M1.046,88.402c0.13,0.629-0.391,0.305-0.567,0.188
		C0.509,88.37,0.823,88.432,1.046,88.402z M0.479,90.104c0.126,0,0.252,0,0.378,0c0.064,0.378-0.039,0.59-0.378,0.566
		C0.479,90.48,0.479,90.291,0.479,90.104z M0.856,91.803c-0.232-0.082-0.388-0.241-0.378-0.566
		C0.711,91.319,0.867,91.479,0.856,91.803z M0.479,93.504C0.558,93.426,0.355,93.628,0.479,93.504L0.479,93.504z M0.856,95.017
		c-0.419,0.104-0.269-0.361-0.567-0.379C0.233,94.3,1.023,94.627,0.856,95.017z M0.29,95.583C0.369,95.504,0.166,95.707,0.29,95.583
		L0.29,95.583z M0.479,98.607c-0.548-0.034-0.456-0.897,0.189-0.757C0.691,98.19,0.437,98.25,0.479,98.607z M0.29,96.906
		c0.03-0.222,0.345-0.159,0.567-0.189C0.987,97.346,0.466,97.021,0.29,96.906z M0.668,96.528
		C0.503,95.254,1.882,96.634,0.668,96.528L0.668,96.528z M1.235,99.93C1.314,99.852,1.111,100.055,1.235,99.93L1.235,99.93z
		 M1.235,98.607c0.428,0.201,0.686,0.573,0.756,1.134C1.452,99.65,1.448,99.023,1.235,98.607z M2.936,99.174
		C3.562,99.448,2.198,99.645,2.936,99.174L2.936,99.174z M6.337,99.174C7.074,99.645,5.711,99.448,6.337,99.174L6.337,99.174z
		 M8.794,98.418c-0.126,0-0.252,0-0.378,0c0-0.126,0-0.252,0-0.378c0.126,0,0.252,0,0.378,0C8.794,98.166,8.794,98.292,8.794,98.418
		z M10,98H4.28c0.005,0.166-0.257,0.351-0.229,0H2v-1.859c-0.001,0.002,0.002-0.002-0.009,0.01C1.903,96.237,1.975,96.166,2,96.141
		V90h3v4.25V95h0.75H10V98z M8.983,94.638C9.063,94.56,8.859,94.763,8.983,94.638L8.983,94.638z M10,93.5H6.5v-1.087
		c-0.094,0.139-0.276,0.132-0.163-0.42c0.08,0.031,0.129,0.074,0.163,0.12V90H10v2.201c0.237,0.063,0.113,0.303,0,0.334V93.5z
		 M10.117,94.26c0.253,0.125,0.352,0.404,0.378,0.757C9.926,95.207,10.16,94.596,10.117,94.26z M10.495,89.726
		C10.371,89.849,10.574,89.646,10.495,89.726L10.495,89.726z M10.495,87.269C11.061,87.306,10.314,88.053,10.495,87.269
		L10.495,87.269z M10.873,83.489C10.749,83.612,10.952,83.408,10.873,83.489L10.873,83.489z M10.684,78.765
		c-0.078-0.455,0.345-0.412,0.189-0.945C11.406,77.807,11.222,78.79,10.684,78.765z M11.25,84.813
		C11.708,85.445,10.617,84.354,11.25,84.813L11.25,84.813z M11.25,97.095C11.33,97.017,11.127,97.219,11.25,97.095L11.25,97.095z
		 M11.439,99.363C11.519,99.284,11.316,99.487,11.439,99.363L11.439,99.363z M11.439,86.89
		C12.014,86.375,10.924,87.465,11.439,86.89L11.439,86.89z M11.628,93.315C11.708,93.236,11.505,93.439,11.628,93.315L11.628,93.315
		z M11.628,83.111C12.085,83.744,10.995,82.654,11.628,83.111L11.628,83.111z M11.818,80.276
		C12.392,80.499,11.612,81.279,11.818,80.276L11.818,80.276z M13.14,89.346c-0.126,0-0.251,0-0.377,0c0-0.125,0-0.25,0-0.376
		c0.126,0,0.251,0,0.377,0C13.14,89.096,13.14,89.221,13.14,89.346z M18.054,89.158C18.62,89.196,17.873,89.943,18.054,89.158
		L18.054,89.158z M23.912,88.024C23.788,88.147,23.991,87.944,23.912,88.024L23.912,88.024z M25.802,89.346
		C26.368,89.385,25.621,90.132,25.802,89.346L25.802,89.346z M26.936,88.213C27.502,88.251,26.755,88.998,26.936,88.213
		L26.936,88.213z M28.825,89.536c-0.126,0-0.251,0-0.377,0c0-0.126,0-0.252,0-0.378c0.126,0,0.251,0,0.377,0
		C28.825,89.284,28.825,89.41,28.825,89.536z M31.093,88.97C30.97,89.093,31.172,88.89,31.093,88.97L31.093,88.97z M36.007,89.158
		C35.882,89.281,36.085,89.079,36.007,89.158L36.007,89.158z M36.574,89.536c-0.032-0.523,0.291-0.648,0.567-0.378
		C37.059,89.39,36.898,89.546,36.574,89.536z M36.763,88.402C37.329,88.439,36.583,89.188,36.763,88.402L36.763,88.402z
		 M38.086,89.536C38.542,90.171,37.452,89.079,38.086,89.536L38.086,89.536z M39.409,88.97c0-0.127,0-0.254,0-0.379
		c0.16,0.035,0.179-0.074,0.189-0.188C39.963,88.328,39.875,89.262,39.409,88.97z M40.165,88.402
		C40.041,88.525,40.243,88.322,40.165,88.402L40.165,88.402z M43.944,88.97C43.82,89.093,44.023,88.89,43.944,88.97L43.944,88.97z
		 M44.323,88.402C44.198,88.525,44.401,88.322,44.323,88.402L44.323,88.402z M45.644,89.158c0.233,0.082,0.389,0.241,0.379,0.567
		C45.791,89.643,45.635,89.482,45.644,89.158z M46.213,88.213C46.668,88.848,45.577,87.757,46.213,88.213L46.213,88.213z
		 M46.779,88.402C47.345,88.439,46.598,89.188,46.779,88.402L46.779,88.402z M50.558,88.213
		C51.133,88.437,50.353,89.215,50.558,88.213L50.558,88.213z M51.125,88.591C51.205,88.512,51.002,88.715,51.125,88.591
		L51.125,88.591z M55.283,88.78c-0.125,0.253-0.404,0.352-0.757,0.378C54.439,88.569,55.002,88.482,55.283,88.78z M55.283,89.158
		C55.951,89.476,54.666,89.749,55.283,89.158L55.283,89.158z M56.039,89.158C56.604,89.196,55.858,89.943,56.039,89.158
		L56.039,89.158z M58.307,88.97c0.072,0.072,0.201-0.57,0.189-0.567C58.797,88.349,58.761,89.424,58.307,88.97z M60.574,88.97
		c-0.471-0.078-0.012-0.733,0.379-0.567C60.887,88.65,60.619,88.699,60.574,88.97z M62.275,88.78
		C61.154,89.111,61.688,88.016,62.275,88.78L62.275,88.78z M65.488,88.024C66.054,88.062,65.307,88.809,65.488,88.024L65.488,88.024
		z M66.243,88.024c0.306-0.054,0.327,0.179,0.568,0.188C66.886,88.579,65.95,88.488,66.243,88.024z M70.023,89.536
		C70.59,89.573,69.842,90.321,70.023,89.536L70.023,89.536z M70.195,88.198c-0.14-0.122-0.213-0.186-0.237-0.208
		C69.99,88.02,70.101,88.115,70.195,88.198c0.006,0.005,0.011,0.009,0.018,0.015c0.043,0.038,0.074,0.065,0.095,0.084
		C70.279,88.271,70.238,88.236,70.195,88.198z M77.771,88.213C77.852,88.134,77.648,88.336,77.771,88.213L77.771,88.213z
		 M78.905,89.158c0.233,0.082,0.389,0.241,0.378,0.567C78.881,89.813,78.924,89.455,78.905,89.158z M80.229,88.591
		C80.104,88.715,80.307,88.512,80.229,88.591L80.229,88.591z M81.174,88.213C81.049,88.336,81.252,88.134,81.174,88.213
		L81.174,88.213z M85.52,88.78C86.188,89.098,84.902,89.37,85.52,88.78L85.52,88.78z M87.922,87.922h-9.375
		c-0.008,0.208-0.246,0.369-0.241,0h-4.718c0.21,0.201-0.26,0.57-0.164,0.858c-0.601-0.136-0.292-0.566-0.067-0.858H57.298
		c0.283,0.256-0.539,0.415-0.197,0H44.845c-0.086,0.083-0.13,0.116-0.031,0h-3.33c0.001,0.034,0.002,0.069,0.004,0.103
		c-0.071-0.025-0.131-0.061-0.185-0.103h-7.022c-0.038,0.01-0.085,0.009-0.137,0h-8.346c0.113,0.173-0.271,0.49-0.197,0h-7.703
		c0.131,0.13,0.25,0.443,0.155,0.669c-0.272-0.043-0.066-0.564-0.378-0.566c0.008-0.048,0.022-0.076,0.037-0.103h-5.635V73.397
		c-0.144-0.136-0.429-0.435-0.072-0.114c0.037,0.041,0.05,0.058,0.072,0.083V61.57c-0.09-0.164-0.18-0.311-0.26-0.382
		c0.077,0.066,0.168,0.118,0.26,0.169v-9.11c-0.046-0.084-0.076-0.185-0.072-0.318c0.032-0.007,0.045,0.005,0.072,0.003v-2.243
		c-0.05-0.037-0.061-0.084,0-0.14v-5.014c-0.076,0.02-0.14-0.057-0.072-0.354c0.033,0.002,0.047,0.014,0.072,0.02v-1.934
		c-0.076,0.02-0.14-0.057-0.072-0.354c0.033,0.002,0.047,0.014,0.072,0.02v-1.721c-0.024,0-0.048,0-0.072,0c0-0.126,0-0.252,0-0.378
		c0.024,0,0.048,0,0.072,0v-7.288c-0.062-0.115-0.062-0.293-0.072-0.46c0.026,0.009,0.047,0.024,0.072,0.035v-9.115
		c-0.025,0.001-0.043,0.01-0.072,0.008c0-0.188,0-0.378,0-0.566c0.024,0,0.048,0,0.072,0v-10.37h15.291
		c-0.153-0.119-0.312-0.297-0.433-0.402c0.048-0.442,0.83-0.109,0.944,0c-0.016,0.203-0.055,0.321-0.102,0.402h14.087
		c0-0.071,0-0.142,0-0.213c0.125,0,0.252,0,0.378,0c0.014,0.08,0.015,0.148,0.013,0.213h6.609c-0.026-0.105,0.074-0.211,0.558-0.402
		c0.095,0.109,0.146,0.251,0.161,0.402h2.65c0.025-0.025,0.069-0.069,0.024-0.024c-0.019,0.018-0.018,0.018-0.024,0.024h4.373
		c0-0.009-0.003-0.015-0.003-0.024c0.018,0.006,0.032,0.017,0.049,0.024h3.513c0.031-0.193,0.17-0.363,0.407-0.213
		c0.017,0.095,0.002,0.158-0.021,0.213h26.451c0-0.054,0.006-0.121,0.027-0.213c0.204,0.014,0.234,0.12,0.202,0.213h0.688v11.692
		c0.019,0,0.037,0,0.055,0c0,0.126,0,0.252,0,0.378c-0.018,0-0.036,0-0.055,0v4.98c0.026,0.096,0.047,0.198,0.055,0.312
		c0.279-0.22,0.477-0.22,0.756,0c-0.208,0.263-0.551,0.246-0.811,0.073v32.579c0.275,0.039,0.306-0.883,0.243-1.47
		c0.834,0.282-0.005,1.112,0.189,1.89c-0.179,0.026-0.315,0.012-0.433-0.023v9.347c0.042,0.14,0.085,0.278,0.154,0.391
		c-0.052-0.052-0.104-0.075-0.154-0.084V87.922z M12.006,43.236C11.882,43.36,12.086,43.156,12.006,43.236L12.006,43.236z
		 M87.977,86.135c0.1-0.152,0.197-0.308,0.188-0.567C88.686,85.626,88.564,86.224,87.977,86.135z M88.165,92.56
		C88.949,91.552,87.739,93.108,88.165,92.56L88.165,92.56z M88.543,98.229c-0.126,0-0.251,0-0.378,0c0-0.126,0-0.252,0-0.378
		c0.127,0,0.252,0,0.378,0C88.543,97.977,88.543,98.103,88.543,98.229z M88.732,97.284c-0.315,0.444,0.017-0.069,0-0.378
		C88.787,96.202,89.202,97.463,88.732,97.284z M89.301,87.835C89.865,87.874,89.118,88.62,89.301,87.835L89.301,87.835z
		 M89.488,91.614c0.126,0,0.253,0,0.378,0c0,0.126,0,0.252,0,0.379c-0.125,0-0.252,0-0.378,0
		C89.488,91.866,89.488,91.74,89.488,91.614z M89.866,98.418c0.254,0.124,0.352,0.404,0.378,0.756
		C89.676,99.365,89.909,98.753,89.866,98.418z M92.7,98.04C93.326,98.315,91.963,98.511,92.7,98.04L92.7,98.04z M93.645,98.985
		c-0.521-0.082-0.008-0.595,0.379-0.378C93.978,98.812,93.648,98.734,93.645,98.985z M93.834,98.418c0-0.126,0-0.252,0-0.378
		c0.126,0,0.253,0,0.379,0c0,0.126,0,0.252,0,0.378C94.087,98.418,93.96,98.418,93.834,98.418z M94.401,98.985
		C95.027,99.26,93.664,99.456,94.401,98.985L94.401,98.985z M95.914,99.741c-0.127,0-0.253,0-0.378,0c0-0.126,0-0.252,0-0.378
		c0.125,0,0.251,0,0.378,0C95.914,99.489,95.914,99.615,95.914,99.741z M98.182,96.339C98.986,96.133,97.861,97.554,98.182,96.339
		L98.182,96.339z M99.693,93.882C99.771,93.804,99.57,94.007,99.693,93.882L99.693,93.882z M99.314,99.363
		C99.117,100.157,98.322,99.362,99.314,99.363L99.314,99.363z M98.37,95.205C98.938,95.244,98.189,95.991,98.37,95.205L98.37,95.205
		z M97.047,89.158C97.186,87.979,98.467,89.261,97.047,89.158L97.047,89.158z M98,90v4.073c0.405,0.035,0.109,0.442,0,0.336v0.229
		c0.123,0,0.247,0,0.37,0c0,0.126,0,0.253,0,0.379c-0.123,0-0.247,0-0.37,0V98h-6.523c-0.033,0.018-0.066,0.023-0.091,0H90v-3.674
		l2.135-0.038c0-0.01,0-0.019,0-0.028c0.127,0,0.25,0,0.377,0c0,0.007,0,0.015,0,0.021l1.738-0.031l-3.816-0.068
		c0,0.026,0,0.052,0,0.078c-0.127,0-0.254,0-0.379,0c0-0.028,0-0.057,0-0.085L90,94.174V90h4.178l0.05,2.929
		c0.017-0.016,0.03-0.016,0.045-0.023L94.322,90H98z"/>
	<path d="M94.229,92.965l0.021,1.285l0.021-1.208C94.256,93.017,94.244,92.988,94.229,92.965z"/>
	<path d="M74.919,94.598l0.258-0.004C75.11,94.575,75.021,94.579,74.919,94.598z"/>
	<path d="M94.59,69.504c0.039,0.024,0.051,0.04,0.078,0.062l0.016-0.901c-0.064,0.058-0.151,0.094-0.282,0.084
		c0-0.188,0-0.378,0-0.566c0.097,0,0.193,0,0.29,0l0.012-0.666c-0.137,0.009-0.22-0.054,0.004-0.222l0.032-1.94
		c-0.057,0.118-0.168,0.162-0.338-0.007c0.073,0.072,0.202-0.569,0.188-0.567c0.073-0.013,0.125,0.042,0.157,0.124l0.021-1.243
		c-0.297,0.503-0.782,0.815-1.014,1.385l0.081,4.771c0.138,0.021,0.246,0.155,0.008,0.43l0.14,8.252
		c0.156-0.172,0.335-0.32,0.541-0.44l0.14-8.274C94.486,69.771,94.255,69.651,94.59,69.504z M94.023,67.992
		C94.598,68.216,93.818,68.995,94.023,67.992L94.023,67.992z M94.023,69.127C94.76,69.597,93.397,69.401,94.023,69.127
		L94.023,69.127z M94.213,73.851C94.779,73.889,94.031,74.636,94.213,73.851L94.213,73.851z M94.401,71.96
		C95.07,72.279,93.785,72.552,94.401,71.96L94.401,71.96z"/>
</g>
</svg>
