<svg xmlns="http://www.w3.org/2000/svg" xmlns:xlink="http://www.w3.org/1999/xlink" version="1.1" id="Layer_3" x="0px" y="0px" width="89.513px" height="89.513px" viewBox="5.244 5.244 89.513 89.513" enable-background="new 5.244 5.244 89.513 89.513" xml:space="preserve">
<g>
	<path opacity="0.9" enable-background="new    " d="M39.778 6.039c0.027 0 0 0 0.1 0.017l7.393-0.042 c0-0.053 0-0.107 0-0.16c0.125 0 0.2 0 0.4 0c0 0.1 0 0.1 0 0.158l0.353-0.002c0.003-0.046 0.004-0.089 0.02-0.156 c0.162 0 0.2 0.1 0.2 0.155l1.822-0.01c-0.136-0.225-0.189-0.388-0.19-0.496L34.584 5.4 c0.038 0.17-0.268 0.397-0.224-0.001L19.841 5.333c0.162 0.2 0.4 0.4 0.7 0.333c-0.354 0.861-0.507 0.211-1.304 0.2 c0.007-0.278 0.041-0.417 0.067-0.523l-3.034-0.017c-0.044 0.136-0.226 0.243-0.226-0.001l-2.4-0.013 c-0.231 0.264-0.64 0.349-1.114 0.368c-0.063-0.238 0.015-0.336 0.153-0.374L12.066 5.29c-0.017 0-0.028 0.007-0.046 0 c0-0.002 0-0.004 0-0.006L5.266 5.25v0.5H5.25l0.042 7.351c0.002-0.048 0.004-0.096 0.021-0.169 c0.471 0 0 0.554-0.021 0.249l0.021 3.664c0.018-0.017 0.03-0.029 0 0l0 0l0.007 1.3 c0.137-0.307 0.335-0.014 0.6 0.012c-0.135 0.328-0.335 0.034-0.552 0.002l0.007 1.221c0.098-0.155 0.375-0.329 0.358-0.479 c0.572 0.183-0.214 0.497-0.186 0.746c-0.094-0.03-0.141-0.065-0.171-0.101l0.002 0.354c0.088-0.053 0.196-0.085 0.355-0.067 c-0.469 0.8 0.3 0.6 0.2 1.49c-0.38-0.051-0.189-0.67-0.539-0.75L5.379 28.6c0.243 0.1 0.1 0.3 0 0.3 l0.022 3.963c0.135-0.23 0.323-0.407 0.695-0.398l0.049-8.685c-0.024 0.041-0.054 0.079-0.09 0.1 c-0.327-0.044-0.425-0.32-0.373-0.745c0.235-0.035 0.4 0 0.5 0.15l0.003-0.523c-0.032 0-0.063 0-0.095 0 c0-0.125 0-0.249 0-0.373c0.033 0 0.1 0 0.1 0l0.026-4.563c-0.25 0.035-0.537-0.09-0.682-0.281 c0.016-0.274 0.359-0.219 0.685-0.182l0.015-2.648c-0.118 0-0.184-0.08 0.001-0.283l0.046-8.231l1.397-0.008 C7.789 6.2 8 6.2 8.1 6.224c0 0 0 0 0 0.009l5.247-0.029c0.072-0.097 0.133-0.206 0.156-0.352 c0.081 0 0.1 0.2 0.1 0.351l7.919-0.045c0.075-0.169 0.172-0.346 0.212-0.493c0.295 0.1 0.2 0.3 0.1 0.5 l2.863-0.017c-0.001-0.035-0.01-0.063-0.006-0.102c0.188-0.016 0.3 0 0.4 0.1l7.262-0.042 C32.398 6 32.4 5.9 32.5 5.853c0.163-0.013 0.2 0.1 0.2 0.242l7.055-0.04C39.777 6 39.8 6 39.8 6.039z M43.876 5.666C43.955 5.6 43.8 5.8 43.9 5.666L43.876 5.666z M40.896 5.666C40.974 5.6 40.8 5.8 40.9 5.7 L40.896 5.666z M5.685 30.816C5.763 30.7 5.6 30.9 5.7 30.816L5.685 30.816z M5.5 26 C6.057 26 5.3 26.7 5.5 25.973L5.5 25.973z M5.685 22.619C5.763 22.5 5.6 22.7 5.7 22.619L5.685 22.619z M5.873 22.433c-0.125 0-0.249 0-0.373 0c0-0.125 0-0.249 0-0.373c0.124 0 0.2 0 0.4 0C5.873 22.2 5.9 22.3 5.9 22.4 z M5.873 16.472C6.43 16.5 5.7 17.2 5.9 16.472L5.873 16.472z M5.873 13.491C6.437 13.7 5.7 14.5 5.9 13.5 L5.873 13.491z M12.206 5.853C12.824 6.1 11.5 6.3 12.2 5.853L12.206 5.853z M27.296 5.5 C27.174 5.6 27.4 5.4 27.3 5.48L27.296 5.48z"/>
	<path opacity="0.9" enable-background="new    " d="M50.041 5.998l0.736-0.004c0.057-0.695 0.854-0.476 0.699-0.004l3.312-0.019 c-0.125-0.1-0.361-0.162-0.479-0.305c0-0.046 0-0.093 0-0.139l-4.2-0.024C50.154 5.6 50.2 5.8 50 5.998z M53.193 5.7 C53.07 5.8 53.3 5.6 53.2 5.666L53.193 5.666z"/>
	<path opacity="0.9" enable-background="new    " d="M5.646 75.779L5.75 94.25l0.104-18.374C5.777 75.9 5.7 75.8 5.6 75.8 z"/>
	<path opacity="0.9" enable-background="new    " d="M83.889 94.271c0.225-0.014 0.354-0.021 0.354-0.021s-0.131-0.007-0.354-0.021 C83.889 94.2 83.9 94.3 83.9 94.271z"/>
	<path opacity="0.9" enable-background="new    " d="M72.566 94.344c0.148-0.451 0.637-0.021 0.6 0.4 c0.5 0 1 0 1.461-0.015c0.506-0.024 0.99-0.049 1.465-0.071c-0.292-0.106-0.328-0.473-0.346-0.856 c-0.086-0.004-0.178-0.008-0.266-0.013c0.02 0.1 0 0.1 0.1 0.169c-0.063-0.043-0.128-0.104-0.188-0.175 c-0.246-0.012-0.486-0.022-0.74-0.036c-0.838-0.047-1.721 0.008-2.641-0.009c-1.808 0-3.763 0-5.828 0 c0.17 0.2 0 0.698-0.476 0.593c-0.315-0.318-0.044-0.361 0.112-0.593c-0.646 0-1.309 0-1.977 0c0 0.1 0 0.1 0 0.2 c-0.108-0.035-0.218-0.117-0.306-0.22c-1.185 0-2.396 0-3.633 0c0.019 0.1 0 0.1 0 0.2 c-0.24 0.053-0.313-0.061-0.344-0.22c-0.794 0-1.6 0-2.41 0c-0.031 0.284-0.148 0.505-0.414 0.4 c-0.039-0.17-0.037-0.297-0.018-0.407c-2.516 0-5.098 0-7.707 0c-0.022 0.063-0.047 0.131-0.099 0.2 c-0.104-0.076-0.146-0.15-0.166-0.22c-1.245 0-2.495 0-3.746 0c-2.297 0-4.592 0-6.858 0c0.009 0.336-0.641 0.336-0.633 0 c-2.22 0-4.405 0-6.529 0c0.27 0.372-0.45 0.403-0.242 0c-4.655 0-9.001 0-12.72 0c-0.92 0.015-1.802-0.036-2.64 0 c-0.839 0.041-1.633 0.08-2.381 0.117c-1.495 0.073-2.798 0.136-3.871 0.188C6.977 94.2 5.8 94.2 5.8 94.2 s1.018 0.1 2.8 0.16c0.071-0.063 0.169-0.045 0.3 0.016c0.105 0 0.2 0 0.3 0 c1.073 0.1 2.4 0.1 3.9 0.188c0.748 0 1.5 0.1 2.4 0.117c0.839 0 1.721-0.013 2.6 0 c1.939 0 4.1 0 6.3 0c-0.024-0.071-0.031-0.192 0.013-0.407c0.249 0.1 0.2 0.3 0.2 0.407c1.495 0 3 0 4.6 0 c0.05-0.039 0.101-0.078 0.129-0.101c-0.019 0.016-0.046 0.035-0.084 0.065c-0.017 0.015-0.03 0.023-0.044 0 c0.437 0 0.9 0 1.3 0c-0.002-0.055 0.006-0.125 0.028-0.221c0.209 0 0.2 0.1 0.2 0.221c1.508 0 3 0 4.6 0 c0.014-0.016 0.087-0.088 0.034-0.034c-0.026 0.025-0.032 0.031-0.034 0.034c2.768 0 5.6 0 8.4 0 c0.013-0.055 0.049-0.121 0.154-0.221c0.172 0.1 0.2 0.2 0.2 0.221c0.311 0 0.6 0 0.9 0c5.482 0 11 0 16 0 c0-0.073 0-0.146 0-0.221c0.158 0 0.176-0.072 0.187-0.188c0.198-0.04 0.3 0.2 0.2 0.407c1.398 0 2.8 0 4.1 0 c0.002-0.015 0.002-0.021 0.004-0.034c0.023 0 0 0 0.1 0.034c2.291 0 4.5 0 6.4 0 c0.271-0.005 0.5 0 0.8 0.004C72.759 94.6 72.8 94.3 72.6 94.344z M12.392 94 C12.47 93.9 12.3 94.1 12.4 93.971L12.392 93.971z M23.756 94.344C24.483 94.8 23.1 94.6 23.8 94.344L23.756 94.3 z M42.013 93.971C42.091 93.9 41.9 94.1 42 93.971L42.013 93.971z M43.318 94.5 C43.195 94.7 43.4 94.5 43.3 94.529L43.318 94.529z M46.858 94.529C46.735 94.7 46.9 94.5 46.9 94.5 L46.858 94.529z M53.193 94.529C53.07 94.7 53.3 94.5 53.2 94.529L53.193 94.529z M54.123 94.5 C54.201 94.5 54 94.7 54.1 94.529L54.123 94.529z M59.34 94.344C59.906 93.8 58.8 94.9 59.3 94.344L59.34 94.344z M60.643 93.971C61.201 94 60.5 94.7 60.6 93.971L60.643 93.971z M64.184 94 C64.742 94 64 94.7 64.2 93.971L64.184 93.971z M66.605 94.158C67.164 94.2 66.4 94.9 66.6 94.2 L66.605 94.158z M67.35 94.344C67.428 94.3 67.2 94.5 67.3 94.344L67.35 94.344z M68.281 94.5 C68.359 94.5 68.2 94.7 68.3 94.529L68.281 94.529z M68.469 93.971C69.025 94 68.3 94.7 68.5 94 L68.469 93.971z M68.84 94.529C68.926 93.1 70.3 94.5 68.8 94.529L68.84 94.529z M70.145 94.2 C70.805 94.5 69.5 94.7 70.1 94.158L70.145 94.158z"/>
	<path opacity="0.9" enable-background="new    " d="M13.237 5.295c0.16 0 0.3 0 0.4 0.002L13.237 5.295z"/>
	<path opacity="0.9" enable-background="new    " d="M61.863 5.931l3.552-0.021c-0.112-0.048-0.166-0.14 0.071-0.244 c0.199 0.1 0.2 0.2 0.2 0.243l5.576-0.031c0.051-0.082 0.094-0.167 0.129-0.254l-2.162-0.012 c0.022 0.168-0.266 0.377-0.227-0.001l-2.404-0.014c0 0.1 0 0.2 0 0.256c-0.125 0-0.248 0-0.373 0c0-0.086 0-0.172 0-0.259 l-3.996-0.022C62.135 5.7 62 5.8 61.9 5.931z M64.184 5.666C64.061 5.8 64.3 5.6 64.2 5.666L64.184 5.666z"/>
	<path opacity="0.9" enable-background="new    " d="M71.674 5.875L93.766 5.75L82.902 5.688c-0.055 0.038-0.131 0.036-0.217-0.001 L71.725 5.625C71.725 5.7 71.7 5.8 71.7 5.875z"/>
	<path opacity="0.9" enable-background="new    " d="M56.531 5.96l5.037-0.028c-0.01-0.146 0.002-0.269 0.043-0.364L56.557 5.5 C56.538 5.7 56.5 5.8 56.5 5.96z"/>
	<path opacity="0.9" enable-background="new    " d="M55.113 5.969l1.342-0.008c-0.131-0.107-0.217-0.257-0.234-0.423L54.792 5.5 C54.941 5.7 55.1 5.8 55.1 5.969z"/>
	<path opacity="0.9" enable-background="new    " d="M5.869 73.162c-0.077 0.143-0.29 0.217-0.184-0.242 c0.108 0 0.2 0 0.2 0.088l0.012-2.063c-0.053-0.037-0.11-0.071-0.197-0.075c0.023-0.099 0.112-0.131 0.198-0.167 l0.013-2.292c-0.155-0.063-0.25-0.353 0.003-0.556l0.022-3.879c-0.016 0-0.032 0-0.048 0c0-0.123 0-0.248 0-0.373 c0.017 0 0 0 0.1 0l0.033-5.722c-0.178 0.084-0.541 0.054-0.083-0.239c0.044 0 0.1 0 0.1 0.057l0.011-1.957 c-0.084 0.043-0.17-0.01-0.095-0.334c0.044 0 0.1 0 0.1 0.027l0.027-4.771c-0.054 0.078-0.118 0.146-0.124 0.3 c-0.345 0.07-0.277-0.749 0.125-0.581l0.016-2.811c-0.068 0.091-0.175 0.135-0.329 0.038c0-0.123 0-0.248 0-0.372 c0.159 0 0.177-0.073 0.188-0.187c0.063-0.013 0.1 0 0.1 0.048l0.032-5.673c-0.145 0.018-0.267-0.063 0.002-0.327 l0.047-8.328c-0.136 0.198-0.334 0.333-0.693 0.306l0.022 3.945c0.152 0.1 0.1 0.2 0 0.29l0.018 3.1 c0.121 0.1 0.1 0.3 0 0.365l0.03 5.285c0.056 0.1 0.1 0.2 0 0.596c-0.008-0.006-0.011-0.014-0.019-0.02 L5.554 59.48c0.026-0.045 0.063-0.097 0.131-0.16c0.457 0.217-0.001 0.404-0.13 0.313l0.006 1.178c0.104 0 0.2 0 0.3 0 c0.058 0.346-0.033 0.541-0.308 0.551l0.078 13.912c0.059-0.043 0.131-0.074 0.215-0.092L5.869 73.162z M5.685 53.7 C6.244 53.8 5.5 54.5 5.7 53.73L5.685 53.73z M5.873 48.515C5.75 48.6 6 48.4 5.9 48.515L5.873 48.515z M5.873 46.652C5.75 46.8 6 46.6 5.9 46.652L5.873 46.652z M5.873 33.611C5.75 33.7 6 33.5 5.9 33.6 L5.873 33.611z M5.5 36.22c0-0.124 0-0.249 0-0.373c0.186 0 0.4 0 0.6 0c0.052 0.301-0.176 0.321-0.186 0.6 C5.721 36.4 5.7 36.2 5.5 36.22z M5.685 66.214C5.564 66.3 5.8 66.1 5.7 66.214L5.685 66.214z"/>
	<path opacity="0.9" enable-background="new    " d="M83.641 94.218c-0.563-0.03-1.502-0.083-2.771-0.153 c-1.073-0.053-2.376-0.115-3.87-0.188c-0.39-0.02-0.794-0.038-1.209-0.059c0.293 0.2 0.6 0.3 0.5 0.8 c0.236-0.013 0.479-0.022 0.708-0.034c1.494-0.07 2.797-0.135 3.87-0.188c1.292-0.071 2.242-0.125 2.801-0.155 C83.658 94.3 83.6 94.2 83.6 94.218z M77.969 94.529C78.047 94.5 77.8 94.7 78 94.529L77.969 94.529z"/>
	<path opacity="0.9" enable-background="new    " d="M94.549 84.657c0.1-0.15 0.195-0.304 0.188-0.56 c0.005 0 0 0 0 0.002c0.01-0.682-0.012-1.384 0.002-2.115c0-0.162 0-0.332 0-0.495 c-0.102-0.257-0.162-0.657-0.014-0.558c0.003 0 0 0 0 0.017c0-0.566 0-1.142 0-1.732 c-0.041-0.032-0.061-0.128-0.014-0.334c0.007 0 0 0 0 0.004c0-1.399 0-2.864 0-4.382 c-0.127-0.094-0.206-0.236-0.2-0.466c0.078 0 0.1 0.1 0.2 0.116c0-0.648 0-1.309 0-1.977 c-0.005-0.003-0.008-0.001-0.014-0.004c-0.002-0.042 0.009-0.07 0.014-0.104c0-0.75 0-1.506 0-2.274 c-0.057 0.011-0.121 0.006-0.2-0.044c0-0.124 0-0.247 0-0.372c0.158 0 0.177-0.073 0.188-0.187 c0.005 0 0 0 0 0.002c0-2.172 0-4.411 0-6.688c-0.056 0.164-0.313 0.289-0.2-0.208c0.127 0 0.2 0.1 0.2 0.1 c0-0.346 0-0.693 0-1.041c-0.446 0.009-0.649-0.229-0.571-0.746c0.373 0.6 0.5 0.3 0.571-0.259c0-0.229 0-0.456 0-0.685 c-0.004-0.06-0.007-0.121-0.013-0.175c0.006 0 0 0 0 0.007c0-0.498 0-0.996 0-1.494 c-0.005-0.002-0.008-0.004-0.013-0.004c0.003-0.011 0.009-0.018 0.013-0.027c0-0.672 0-1.346 0-2.02 c-0.028-0.004-0.06-0.009-0.091-0.013c0.025 0 0 0 0.1 0.011c0.005 0 0 0 0 0 c0-0.32 0-0.644 0-0.965c0-0.549 0-1.098 0-1.646c-0.004 0.002-0.009 0-0.013 0.002c0-0.248 0-0.498 0-0.746 c0.005 0 0 0 0 0.003c0-0.724 0-1.446 0-2.167c-0.045-0.148-0.037-0.278 0-0.365c0-3.05 0-6.058 0-8.953 c-0.146-0.013-0.274-0.149-0.013-0.44c0.006 0 0 0 0 0.014c0-4.263 0-8.26 0-11.758 c-0.362-0.081-0.701-0.466-0.571-0.925c0.25 0.1 0.3 0.4 0.4 0.746c0.071-0.056 0.137-0.096 0.2-0.123 c0-0.207 0-0.418 0-0.622c-0.015-0.92 0.036-1.802-0.002-2.64c-0.041-0.839-0.08-1.633-0.117-2.381 c-0.073-1.495-0.136-2.798-0.188-3.871c-0.123-2.146-0.19-3.373-0.19-3.373s-0.067 1.226-0.192 3.4 c-0.045 0.938-0.101 2.063-0.162 3.327c0.205 0.1 0.1 0.289-0.017 0.322c-0.004 0.076-0.007 0.146-0.011 0.2 c-0.037 0.748-0.076 1.543-0.117 2.381c-0.038 0.8 0 1.72-0.002 2.64c0 1.3 0 2.7 0 4.1 c0.1-0.053 0.232-0.07 0.43-0.025c0 0.2 0 0.4 0 0.56c-0.144 0-0.287 0-0.43 0c0 2.2 0 4.5 0 6.893c0.02 0 0 0 0.1 0 c0.032 0.2 0 0.35-0.057 0.444c0 0.9 0 1.8 0 2.787c0.152 0.1 0.2 0.2 0.2 0.5 c-0.118 0.026-0.188 0.005-0.243-0.033c0 1.1 0 2.2 0 3.35c0.17-0.102 0.438-0.032 0.1 0.4 c-0.029-0.021-0.035-0.04-0.057-0.06c0 2.6 0 5.3 0 8.04c0 3.3 0 6.6 0 9.764c0.021-0.017 0.027-0.026 0.057-0.045 c0.317 0.1 0.1 0.258-0.057 0.276c0 2.3 0 4.5 0 6.69c0.078 0.1 0.2 0.1 0.2 0.1 c-0.067 0.069-0.151 0.1-0.243 0.104c0 0.7 0 1.5 0 2.17c0.127 0.1 0.1 0.2 0 0.275c0 2.7 0 5.3 0 7.6 c0.006 0.338-0.001 0.664-0.005 0.99c0.116-0.026 0.246-0.039 0.4 0.004c-0.406 0.498-0.242 0.857-0.373 1.3 c-0.013-0.041-0.037-0.068-0.054-0.104c0.003 0.147-0.002 0.3 0 0.445c0.04 0.8 0.1 1.6 0.1 2.4 c0.071 1.5 0.1 2.8 0.2 3.871c0.051 0.9 0.1 1.6 0.1 2.164c0.016 0 0 0.1 0 0.1 c0.037 0.7 0.1 1.1 0.1 1.066s0.066-1.227 0.188-3.373c0.053-1.072 0.115-2.376 0.188-3.871 c0.035-0.736 0.074-1.52 0.114-2.346C94.682 84.7 94.6 84.7 94.5 84.657z M93.805 27.8 C93.682 28 93.9 27.8 93.8 27.836L93.805 27.836z M94.363 24.669C94.441 24.6 94.2 24.8 94.4 24.7 L94.363 24.669z M94.178 23.179c0.125 0 0.2 0 0.4 0c0 0.1 0 0.2 0 0.372c-0.123 0-0.246 0-0.371 0 C94.178 23.4 94.2 23.3 94.2 23.179z M93.992 27.277C94.549 27.3 93.8 28.1 94 27.277L93.992 27.277z M94.178 63.604C94.055 63.7 94.3 63.5 94.2 63.604L94.178 63.604z M94.549 51.7 C94.629 51.6 94.4 51.8 94.5 51.684L94.549 51.684z M94.363 29.14C94.441 29.1 94.2 29.3 94.4 29.14L94.363 29.14z M94.178 52.8C94.795 53.1 93.4 53.3 94.2 52.8L94.178 52.8z M94.363 54.104c0.088 0.397-0.268 0.355-0.559 0.4 C93.887 54.2 94 54.1 94.4 54.104z M93.992 58.202C93.869 58.3 94.1 58.1 94 58.202L93.992 58.202z M93.992 76.273C94.65 76.6 93.4 76.9 94 76.273L93.992 76.273z M94.178 82.2 C94.055 82.4 94.3 82.2 94.2 82.234L94.178 82.234z M94.363 71.615c-0.824 0.585-0.223-0.846-0.371-1.678 c0.488 0.1 0.4 0.7 0.7 1.008C94.285 70.6 93.9 71.4 94.4 71.615z"/>
</g>
</svg>
