<?xml version="1.0" encoding="utf-8"?>
<!-- Generator: Adobe Illustrator 16.0.3, SVG Export Plug-In . SVG Version: 6.00 Build 0)  -->
<!DOCTYPE svg PUBLIC "-//W3C//DTD SVG 1.1//EN" "http://www.w3.org/Graphics/SVG/1.1/DTD/svg11.dtd">
<svg version="1.1" id="Layer_1" xmlns="http://www.w3.org/2000/svg" xmlns:xlink="http://www.w3.org/1999/xlink" x="0px" y="0px"
	 width="202px" height="202px" viewBox="-21.041 38.666 202 202" enable-background="new -21.041 38.666 202 202"
	 xml:space="preserve">
<path opacity="0.8" d="M0.3,153.437l-0.304,0.038c-0.352,0.048-0.38,0.114-0.266,0.504l0.903,3.193h0.018l1.246-4.049h0.665
	l1.444,4.049h0.02c0.333-1.112,0.685-2.452,0.817-3.004c0.124-0.541,0.095-0.646-0.314-0.693l-0.361-0.038v-0.37h2.271v0.37
	c-0.532,0.076-0.618,0.105-0.94,0.941c-0.048,0.123-0.779,2.31-1.54,4.932H3.227l-1.397-3.858H1.811l-1.274,3.858h-0.731
	l-1.606-4.988c-0.257-0.789-0.428-0.827-0.865-0.885v-0.37H0.3V153.437z M158.221,154.587c0-1.027-0.076-1.093-0.712-1.15v-0.37
	h4.505c0.009,0.161,0.056,0.855,0.104,1.568l-0.418,0.028c-0.096-0.466-0.2-0.732-0.352-0.885c-0.152-0.16-0.465-0.219-0.97-0.219
	h-0.161c-0.36,0-0.38,0-0.38,0.333v1.834h0.476c0.817,0,0.846-0.057,0.94-0.778h0.418v2.243h-0.418
	c-0.095-0.838-0.123-0.894-0.94-0.894h-0.476v1.549c0,0.494,0.02,0.731,0.189,0.817c0.152,0.076,0.371,0.085,0.666,0.085
	c0.38,0,0.798-0.057,1.007-0.284c0.162-0.172,0.323-0.524,0.466-0.979l0.418,0.066c-0.048,0.466-0.247,1.435-0.332,1.691h-4.838
	v-0.37c0.731-0.057,0.808-0.124,0.808-1.149V154.587z M83.881,45.91h-0.816l-3.518-4.485h-0.019v1.748
	c0,0.998,0.038,1.521,0.076,1.815c0.048,0.333,0.304,0.456,0.932,0.485v0.37H78.17v-0.37c0.418-0.02,0.664-0.152,0.713-0.485
	c0.038-0.294,0.074-0.817,0.074-1.815v-1.748c0-0.704-0.018-0.827-0.207-1.094c-0.145-0.199-0.381-0.266-0.723-0.294v-0.371h2.1
	l3.164,3.944h0.02v-1.273c0-0.998-0.039-1.521-0.075-1.815c-0.048-0.332-0.305-0.456-0.933-0.484v-0.371h2.424v0.371
	c-0.475,0.019-0.723,0.152-0.77,0.484c-0.038,0.295-0.076,0.817-0.076,1.815V45.91z M79.109,237.566
	c0.201,0.552,0.762,1.606,1.693,1.606c0.494,0,0.875-0.323,0.875-0.94c0-0.561-0.372-0.876-0.951-1.142l-0.143-0.067
	c-0.779-0.359-1.663-0.853-1.663-1.871c0-1.074,0.778-1.947,2.271-1.947c0.295,0,0.599,0.038,0.874,0.113
	c0.22,0.057,0.372,0.096,0.495,0.132c0.037,0.372,0.104,0.837,0.21,1.483L82.352,235c-0.209-0.627-0.542-1.302-1.293-1.302
	c-0.484,0-0.828,0.372-0.828,0.827c0,0.475,0.373,0.751,0.98,1.025l0.209,0.096c0.874,0.4,1.625,0.884,1.625,1.997
	c0,1.168-0.941,2.022-2.414,2.022c-0.379,0-0.77-0.074-1.026-0.162c-0.284-0.094-0.484-0.171-0.599-0.228
	c-0.076-0.437-0.199-0.948-0.313-1.586L79.109,237.566z M68.725,73.455c0.413,0.015,0.926,0.761,0.529,1.6
	c-0.803,1.691,1.646,1.572,2.313-1.906c0.275-1.431-0.596-2.742-0.396-3.121c0.793-1.525,2.711-1.373,3.769-0.459
	c1.319,1.142,2.109,2.113,2.702,3.914c-0.965-0.36-1.21,1.322-0.19,2.563c0.341,0.416,1.079,0.583,1.81,0.639
	c-0.23,0.248-0.484,0.459-0.751,0.58c-1.653,0.762-2.646-1.219-2.711-2.973c-0.023-0.628-0.493-0.6-0.993,0.077
	c-2.643,3.582,0.663,8.383,3.505,6.021c-0.794,2.133,0.859,3.429,1.786,3.884c0.546,0.271,0.528,1.512,1.079,1.512
	c0.552,0,0.533-1.24,1.079-1.512c0.927-0.455,2.579-1.751,1.786-3.884c2.843,2.362,6.147-2.438,3.505-6.021
	c-0.499-0.677-0.969-0.705-0.992-0.077c-0.066,1.754-1.058,3.734-2.711,2.973c-0.266-0.121-0.52-0.332-0.75-0.58
	c0.729-0.056,1.467-0.223,1.808-0.639c1.02-1.241,0.774-2.924-0.189-2.563c0.592-1.801,1.383-2.772,2.701-3.914
	c1.059-0.914,2.976-1.066,3.77,0.459c0.197,0.379-0.671,1.69-0.398,3.121c0.667,3.479,3.116,3.598,2.315,1.906
	c-0.396-0.839,0.115-1.585,0.527-1.6c2.117-0.078,3.373-3.049,3.306-4.953c-0.168-4.888-4.032-7.62-6.875-6.781
	c-3.389,0.999-5.553,5.715-6.016,7.162c-0.573,1.791-1.054,3.633-1.175,5.447c-0.287,0.039-0.575,0.056-0.832,0.057
	c-0.387-3.259,0.995-7.341,2.537-12.819c1.652-5.868-1.984-12.357-3.396-12.357s-5.047,6.489-3.394,12.357
	c1.542,5.479,2.922,9.561,2.535,12.819c-0.256-0.001-0.545-0.018-0.832-0.057c-0.119-1.814-0.602-3.656-1.175-5.447
	c-0.464-1.447-2.626-6.163-6.015-7.162c-2.844-0.839-6.707,1.894-6.877,6.781C65.354,70.406,66.607,73.377,68.725,73.455z
	 M77.038,80.055c-0.347,0.286-1.171,0.223-1.725-0.488c-0.507-0.654-0.605-1.969-0.246-2.41c0.431-0.532,0.632,0.099,0.931,0.557
	c0.259,0.4,0.667,0.948,0.892,1.143C77.285,79.199,77.631,79.567,77.038,80.055z M85.461,78.855
	c0.225-0.194,0.633-0.742,0.893-1.143c0.297-0.458,0.499-1.089,0.931-0.557c0.358,0.441,0.259,1.756-0.248,2.41
	c-0.554,0.711-1.377,0.774-1.724,0.488C84.719,79.567,85.063,79.199,85.461,78.855z M84.734,69.634
	c0.298-1.372,1.165-3.557,2.977-5.086c1.485-1.258,3.16-1.886,4.796-1.29c1.715,0.623,2.441,1.689,2.789,2.489
	c0.483,1.117,0.004,2.604-1.141,1.085c-0.991-1.313-4.66-1.43-6.545,0.098c-1.096,0.888-1.668,1.638-2.181,2.532
	C84.962,70.276,84.525,70.599,84.734,69.634z M78.407,57.849c0.004-2.372,1.364-5.427,2.044-6.441
	c0.111-0.168,0.343-0.076,0.343,0.137v14.064c0,0.229-0.265,0.31-0.359,0.107C79.707,64.166,78.4,60.796,78.407,57.849z M80,79.568
	c0.525,0.226,1.854,3.547,1.494,3.739c-1.139,0.604-2.633-1.121-2.603-2.142C78.919,80.143,79.475,79.346,80,79.568z M67.055,65.747
	c0.348-0.8,1.074-1.866,2.789-2.489c1.635-0.596,3.309,0.032,4.797,1.29c1.811,1.529,2.678,3.714,2.975,5.086
	c0.209,0.965-0.229,0.643-0.694-0.172c-0.513-0.895-1.083-1.645-2.181-2.532c-1.885-1.527-5.554-1.41-6.545-0.098
	C67.049,68.351,66.57,66.864,67.055,65.747z M116.181,210.481c-0.181,0.124-0.229,0.368-0.107,0.551
	c0.121,0.181,0.367,0.228,0.55,0.105c0.18-0.122,0.229-0.367,0.104-0.548C116.608,210.408,116.361,210.359,116.181,210.481z
	 M113.598,206.646c-0.195,0.132-0.249,0.398-0.116,0.596c0.131,0.194,0.398,0.247,0.596,0.115c0.196-0.132,0.248-0.398,0.115-0.595
	C114.061,206.565,113.795,206.515,113.598,206.646z M111.017,202.812c-0.212,0.142-0.269,0.429-0.127,0.64
	c0.146,0.213,0.43,0.269,0.642,0.126s0.269-0.431,0.125-0.642C111.514,202.726,111.228,202.669,111.017,202.812z M131.11,190.39
	c-0.134,0.194-0.084,0.461,0.112,0.595c0.195,0.132,0.462,0.084,0.596-0.113c0.133-0.195,0.082-0.464-0.113-0.596
	C131.509,190.142,131.243,190.192,131.11,190.39z M134.932,192.989c-0.121,0.181-0.075,0.427,0.106,0.551
	c0.18,0.122,0.426,0.075,0.55-0.105c0.121-0.181,0.074-0.427-0.106-0.549C135.302,192.762,135.055,192.809,134.932,192.989z
	 M92.417,215.751c-0.231,0.043-0.387,0.267-0.343,0.498c0.042,0.233,0.266,0.388,0.5,0.345c0.231-0.042,0.386-0.268,0.343-0.501
	C92.873,215.86,92.65,215.706,92.417,215.751z M93.261,220.297c-0.216,0.041-0.356,0.248-0.318,0.462
	c0.04,0.215,0.247,0.357,0.462,0.316c0.215-0.04,0.356-0.246,0.315-0.461C93.682,220.398,93.475,220.259,93.261,220.297z
	 M108.434,198.976c-0.227,0.152-0.286,0.46-0.135,0.685c0.153,0.228,0.46,0.287,0.687,0.137c0.227-0.154,0.286-0.461,0.134-0.687
	C108.967,198.883,108.659,198.821,108.434,198.976z M76.402,174.521C76.433,174.434,76.395,174.543,76.402,174.521L76.402,174.521z
	 M72.511,141.494C72.501,141.476,72.553,141.579,72.511,141.494L72.511,141.494z M86.191,139.883
	C86.161,139.972,86.198,139.861,86.191,139.883L86.191,139.883z M63.977,152.309C64.065,152.339,63.956,152.301,63.977,152.309
	L63.977,152.309z M97.004,148.416C96.919,148.459,97.024,148.407,97.004,148.416L97.004,148.416z M90.082,172.91
	C90.041,172.826,90.092,172.931,90.082,172.91L90.082,172.91z M65.589,165.989C65.674,165.947,65.568,165.998,65.589,165.989
	L65.589,165.989z M98.616,162.097C98.526,162.066,98.638,162.104,98.616,162.097L98.616,162.097z M91.574,211.205
	c-0.25,0.047-0.415,0.288-0.369,0.536c0.047,0.254,0.287,0.416,0.538,0.372c0.251-0.047,0.417-0.289,0.369-0.539
	C92.065,211.325,91.826,211.158,91.574,211.205z M113.223,110.045c0.211,0.142,0.498,0.085,0.639-0.128
	c0.142-0.214,0.085-0.499-0.128-0.64c-0.212-0.143-0.498-0.084-0.64,0.129C112.952,109.618,113.01,109.904,113.223,110.045z
	 M73.288,120.271c0.069,0.321,0.388,0.522,0.707,0.451c0.321-0.07,0.522-0.388,0.45-0.708c-0.07-0.32-0.388-0.521-0.707-0.45
	C73.418,119.635,73.215,119.951,73.288,120.271z M91.309,207.055c-0.05-0.268-0.308-0.447-0.575-0.396
	c-0.27,0.051-0.447,0.31-0.397,0.575c0.05,0.271,0.308,0.447,0.576,0.398C91.181,207.581,91.358,207.323,91.309,207.055z
	 M89.542,120.723c0.32,0.071,0.639-0.13,0.709-0.451c0.072-0.32-0.131-0.637-0.451-0.707c-0.319-0.07-0.637,0.13-0.709,0.45
	C89.021,120.335,89.222,120.652,89.542,120.723z M88.543,125.236c0.337,0.076,0.672-0.137,0.746-0.476
	c0.075-0.338-0.139-0.672-0.477-0.747c-0.337-0.075-0.671,0.138-0.746,0.476C87.991,124.828,88.203,125.162,88.543,125.236z
	 M87.542,129.75c0.354,0.08,0.707-0.146,0.786-0.5c0.078-0.356-0.146-0.709-0.502-0.787c-0.355-0.079-0.708,0.146-0.787,0.501
	C86.96,129.32,87.186,129.672,87.542,129.75z M71.363,111.295c0.063,0.282,0.346,0.462,0.629,0.399
	c0.285-0.063,0.465-0.345,0.4-0.629c-0.063-0.284-0.345-0.464-0.628-0.401C71.48,110.728,71.301,111.009,71.363,111.295z
	 M72.325,115.782c0.067,0.303,0.366,0.494,0.669,0.426c0.302-0.066,0.492-0.365,0.426-0.667c-0.066-0.304-0.367-0.492-0.668-0.427
	C72.447,115.182,72.258,115.48,72.325,115.782z M55.436,117.745c0.244-0.162,0.311-0.489,0.148-0.731
	c-0.161-0.243-0.489-0.308-0.73-0.147c-0.243,0.161-0.309,0.488-0.147,0.732C54.867,117.84,55.195,117.905,55.436,117.745z
	 M67.988,93.639c0.213-0.048,0.348-0.258,0.301-0.472c-0.048-0.212-0.26-0.348-0.472-0.301c-0.214,0.049-0.349,0.259-0.302,0.473
	C67.563,93.552,67.775,93.687,67.988,93.639z M68.99,98.153c0.23-0.052,0.376-0.281,0.325-0.512
	c-0.052-0.232-0.282-0.377-0.513-0.326c-0.23,0.052-0.376,0.28-0.324,0.513C68.528,98.06,68.758,98.204,68.99,98.153z
	 M69.99,102.666c0.248-0.054,0.405-0.301,0.35-0.549c-0.055-0.25-0.301-0.407-0.55-0.352c-0.249,0.055-0.405,0.301-0.35,0.551
	S69.741,102.722,69.99,102.666z M70.992,107.181c0.267-0.059,0.434-0.323,0.375-0.59c-0.061-0.267-0.324-0.435-0.59-0.376
	c-0.266,0.061-0.436,0.325-0.376,0.592C70.461,107.071,70.725,107.24,70.992,107.181z M116.376,106.077
	c0.133-0.197,0.08-0.464-0.118-0.596c-0.196-0.131-0.463-0.078-0.596,0.12c-0.13,0.196-0.077,0.463,0.12,0.595
	C115.98,106.326,116.246,106.274,116.376,106.077z M132.616,124.216c0.199-0.131,0.252-0.397,0.12-0.595
	c-0.13-0.196-0.396-0.251-0.596-0.119c-0.195,0.131-0.25,0.397-0.117,0.595C132.153,124.293,132.42,124.347,132.616,124.216z
	 M111.347,113.758c0.15-0.227,0.09-0.534-0.137-0.687c-0.228-0.15-0.535-0.089-0.687,0.139c-0.15,0.228-0.091,0.534,0.138,0.686
	C110.889,114.047,111.196,113.984,111.347,113.758z M52.877,113.896c0.227-0.151,0.288-0.458,0.138-0.686
	c-0.151-0.228-0.459-0.289-0.687-0.139c-0.227,0.152-0.287,0.46-0.137,0.687S52.649,114.047,52.877,113.896z M118.892,102.236
	c0.122-0.183,0.072-0.428-0.11-0.55c-0.183-0.12-0.428-0.07-0.548,0.111c-0.121,0.182-0.071,0.427,0.109,0.548
	C118.525,102.466,118.771,102.417,118.892,102.236z M147.884,144.808c0.214-0.043,0.352-0.252,0.309-0.466
	c-0.044-0.215-0.252-0.353-0.466-0.309c-0.214,0.043-0.354,0.251-0.309,0.466C147.461,144.713,147.67,144.851,147.884,144.808z
	 M136.419,121.643c0.182-0.121,0.23-0.367,0.109-0.549c-0.121-0.183-0.366-0.23-0.548-0.109s-0.231,0.366-0.11,0.548
	S136.237,121.764,136.419,121.643z M94.548,98.153c0.232,0.051,0.462-0.094,0.512-0.325c0.053-0.232-0.094-0.461-0.325-0.513
	c-0.229-0.051-0.459,0.094-0.512,0.326C94.173,97.872,94.316,98.102,94.548,98.153z M91.546,111.694
	c0.283,0.063,0.565-0.117,0.629-0.399c0.063-0.286-0.116-0.567-0.4-0.631c-0.284-0.063-0.565,0.117-0.63,0.401
	C91.081,111.35,91.261,111.631,91.546,111.694z M95.55,93.639c0.213,0.048,0.425-0.087,0.473-0.3
	c0.049-0.214-0.088-0.424-0.301-0.473c-0.214-0.047-0.425,0.089-0.473,0.301C95.202,93.381,95.337,93.591,95.55,93.639z
	 M92.547,107.181c0.267,0.06,0.53-0.109,0.59-0.374c0.059-0.267-0.11-0.531-0.376-0.592c-0.267-0.059-0.531,0.109-0.59,0.376
	C92.111,106.857,92.279,107.122,92.547,107.181z M93.548,102.666c0.249,0.056,0.495-0.1,0.551-0.35
	c0.055-0.25-0.102-0.496-0.351-0.551c-0.249-0.056-0.496,0.102-0.551,0.352C93.144,102.365,93.299,102.612,93.548,102.666z
	 M90.544,116.208c0.302,0.068,0.603-0.123,0.67-0.426c0.067-0.302-0.124-0.601-0.427-0.668c-0.302-0.065-0.603,0.123-0.668,0.427
	C90.051,115.843,90.242,116.142,90.544,116.208z M74.249,124.761c0.075,0.339,0.409,0.552,0.746,0.476
	c0.339-0.074,0.552-0.408,0.477-0.747c-0.075-0.338-0.408-0.551-0.745-0.476C74.389,124.089,74.174,124.423,74.249,124.761z
	 M69.652,216.366c-0.232-0.042-0.455,0.11-0.499,0.344s0.11,0.457,0.343,0.502c0.234,0.042,0.459-0.112,0.5-0.346
	C70.039,216.633,69.885,216.411,69.652,216.366z M73.023,198.184c-0.305-0.057-0.597,0.145-0.654,0.447
	c-0.057,0.305,0.145,0.597,0.449,0.654c0.305,0.057,0.598-0.145,0.654-0.449C73.527,198.531,73.326,198.238,73.023,198.184z
	 M73.867,193.636c-0.323-0.062-0.635,0.154-0.693,0.478c-0.061,0.32,0.152,0.632,0.474,0.69c0.323,0.059,0.634-0.152,0.692-0.476
	C74.401,194.005,74.188,193.694,73.867,193.636z M74.708,189.092c-0.341-0.065-0.667,0.16-0.729,0.499
	c-0.063,0.342,0.162,0.667,0.502,0.729c0.34,0.063,0.666-0.16,0.729-0.5C75.272,189.479,75.049,189.152,74.708,189.092z
	 M71.337,207.274c-0.267-0.051-0.525,0.128-0.575,0.396c-0.049,0.269,0.127,0.526,0.397,0.577c0.267,0.049,0.524-0.128,0.575-0.396
	C71.783,207.583,71.605,207.325,71.337,207.274z M70.494,211.82c-0.25-0.047-0.488,0.12-0.537,0.37
	c-0.047,0.25,0.119,0.491,0.37,0.538s0.491-0.118,0.538-0.37C70.911,212.108,70.744,211.867,70.494,211.82z M72.181,202.728
	c-0.287-0.053-0.563,0.139-0.614,0.423c-0.054,0.286,0.135,0.563,0.422,0.615c0.286,0.053,0.563-0.138,0.615-0.422
	C72.655,203.057,72.467,202.781,72.181,202.728z M90.504,202.535c-0.053-0.286-0.328-0.476-0.615-0.423
	c-0.286,0.053-0.475,0.327-0.422,0.613c0.053,0.287,0.328,0.478,0.615,0.425C90.369,203.096,90.557,202.821,90.504,202.535z
	 M89.699,198.016c-0.057-0.305-0.349-0.506-0.652-0.449c-0.305,0.055-0.505,0.35-0.449,0.652c0.057,0.305,0.35,0.506,0.654,0.448
	C89.556,198.612,89.756,198.32,89.699,198.016z M88.092,188.976c-0.064-0.341-0.39-0.564-0.729-0.502
	c-0.341,0.063-0.565,0.388-0.503,0.729c0.064,0.341,0.392,0.564,0.73,0.502C87.93,189.642,88.154,189.314,88.092,188.976z
	 M88.896,193.495c-0.06-0.322-0.37-0.536-0.693-0.475c-0.32,0.059-0.535,0.367-0.475,0.69c0.061,0.325,0.37,0.536,0.693,0.476
	C88.744,194.127,88.957,193.818,88.896,193.495z M75.551,184.545c-0.359-0.066-0.703,0.169-0.77,0.528
	c-0.065,0.357,0.17,0.701,0.529,0.766c0.358,0.069,0.701-0.168,0.769-0.525C76.146,184.953,75.908,184.61,75.551,184.545z
	 M28.056,192.886c-0.181,0.122-0.228,0.368-0.105,0.549c0.124,0.181,0.37,0.228,0.55,0.105c0.181-0.124,0.227-0.37,0.105-0.551
	C28.483,192.809,28.237,192.762,28.056,192.886z M50.316,110.045c0.212-0.141,0.269-0.427,0.129-0.639
	c-0.143-0.213-0.429-0.271-0.641-0.129c-0.213,0.141-0.27,0.426-0.129,0.64C49.818,110.13,50.104,110.187,50.316,110.045z
	 M27.668,121.532c0.121-0.182,0.072-0.427-0.11-0.548c-0.181-0.121-0.427-0.073-0.548,0.109c-0.121,0.182-0.072,0.428,0.11,0.549
	C27.301,121.764,27.546,121.714,27.668,121.532z M30.922,124.216c0.195,0.131,0.463,0.077,0.594-0.119
	c0.131-0.197,0.077-0.464-0.119-0.595c-0.197-0.132-0.465-0.077-0.595,0.119C30.67,123.818,30.724,124.085,30.922,124.216z
	 M47.756,106.196c0.197-0.132,0.25-0.398,0.12-0.595c-0.132-0.198-0.399-0.251-0.596-0.12c-0.198,0.132-0.251,0.398-0.118,0.596
	C47.291,106.274,47.559,106.326,47.756,106.196z M45.195,102.346c0.182-0.121,0.23-0.366,0.109-0.548s-0.366-0.231-0.548-0.111
	c-0.182,0.122-0.231,0.367-0.11,0.55C44.768,102.417,45.013,102.466,45.195,102.346z M45.467,210.565
	c-0.123,0.181-0.074,0.424,0.105,0.548c0.184,0.122,0.429,0.073,0.551-0.105c0.121-0.183,0.073-0.429-0.107-0.551
	C45.835,210.336,45.588,210.382,45.467,210.565z M50.539,202.911c-0.143,0.211-0.086,0.499,0.125,0.642
	c0.213,0.143,0.497,0.085,0.642-0.126c0.142-0.211,0.085-0.498-0.126-0.64C50.969,202.643,50.682,202.699,50.539,202.911z
	 M53.076,199.084c-0.152,0.228-0.092,0.534,0.134,0.688c0.228,0.15,0.534,0.091,0.687-0.136c0.151-0.226,0.092-0.533-0.135-0.688
	C53.535,198.797,53.229,198.858,53.076,199.084z M68.81,220.913c-0.214-0.039-0.421,0.102-0.46,0.316
	c-0.041,0.216,0.102,0.421,0.316,0.461c0.215,0.041,0.421-0.102,0.461-0.316C69.166,221.161,69.025,220.953,68.81,220.913z
	 M48.003,206.736c-0.132,0.196-0.079,0.465,0.116,0.597c0.197,0.132,0.465,0.079,0.596-0.115c0.132-0.197,0.078-0.464-0.117-0.596
	C48.4,206.488,48.135,206.541,48.003,206.736z M32.315,190.984c0.196-0.134,0.245-0.4,0.112-0.595
	c-0.133-0.197-0.398-0.248-0.595-0.114c-0.195,0.132-0.246,0.4-0.114,0.596C31.854,191.068,32.12,191.116,32.315,190.984z
	 M39.943,185.874c0.225-0.154,0.284-0.462,0.13-0.687c-0.153-0.228-0.46-0.285-0.687-0.133c-0.226,0.154-0.283,0.462-0.131,0.689
	C39.41,185.969,39.717,186.028,39.943,185.874z M50.754,136.916c0.182-0.272,0.108-0.642-0.166-0.823
	c-0.273-0.182-0.641-0.107-0.822,0.166c-0.182,0.272-0.109,0.641,0.164,0.822C50.203,137.264,50.572,137.189,50.754,136.916z
	 M58.447,142.045c0.203-0.304,0.121-0.713-0.182-0.915c-0.305-0.202-0.713-0.12-0.915,0.184c-0.202,0.303-0.12,0.712,0.185,0.914
	C57.838,142.429,58.246,142.348,58.447,142.045z M54.602,139.48c0.191-0.288,0.113-0.676-0.175-0.868s-0.677-0.114-0.868,0.173
	c-0.192,0.288-0.115,0.678,0.174,0.869C54.021,139.847,54.408,139.769,54.602,139.48z M39.21,129.224
	c0.153-0.227,0.09-0.533-0.136-0.685c-0.229-0.151-0.535-0.09-0.688,0.138c-0.15,0.228-0.089,0.534,0.139,0.686
	C38.752,129.513,39.059,129.452,39.21,129.224z M43.059,131.789c0.161-0.243,0.096-0.57-0.148-0.732
	c-0.241-0.161-0.569-0.096-0.73,0.146c-0.162,0.242-0.096,0.569,0.146,0.732C42.568,132.096,42.896,132.03,43.059,131.789z
	 M46.906,134.353c0.171-0.258,0.102-0.605-0.156-0.776c-0.258-0.173-0.605-0.102-0.777,0.154c-0.172,0.259-0.102,0.606,0.155,0.777
	C46.385,134.68,46.734,134.61,46.906,134.353z M63.119,129.294c0.289-0.191,0.367-0.579,0.176-0.868
	c-0.192-0.288-0.58-0.366-0.869-0.176c-0.288,0.192-0.366,0.581-0.176,0.87C62.443,129.408,62.832,129.486,63.119,129.294z
	 M65.68,133.144c0.303-0.201,0.387-0.61,0.185-0.914s-0.61-0.386-0.915-0.184c-0.303,0.202-0.387,0.61-0.184,0.915
	C64.967,133.263,65.378,133.346,65.68,133.144z M58,121.594c0.256-0.171,0.326-0.519,0.154-0.775
	c-0.172-0.259-0.52-0.327-0.775-0.157c-0.26,0.172-0.328,0.52-0.159,0.777C57.393,121.695,57.74,121.767,58,121.594z M60.56,125.445
	c0.272-0.183,0.347-0.551,0.165-0.824c-0.182-0.272-0.549-0.346-0.822-0.165c-0.273,0.182-0.349,0.549-0.166,0.823
	C59.918,125.553,60.287,125.626,60.56,125.445z M45.816,149.914c0.065-0.321-0.143-0.636-0.464-0.7
	c-0.321-0.065-0.634,0.143-0.699,0.464c-0.064,0.321,0.142,0.634,0.464,0.699S45.752,150.235,45.816,149.914z M27.692,146.231
	c0.051-0.25-0.111-0.492-0.36-0.543c-0.25-0.052-0.494,0.11-0.545,0.36c-0.05,0.25,0.111,0.492,0.362,0.544
	C27.397,146.644,27.641,146.481,27.692,146.231z M36.754,148.073c0.059-0.285-0.126-0.564-0.412-0.622
	c-0.285-0.058-0.563,0.126-0.621,0.412c-0.059,0.285,0.126,0.563,0.412,0.622C36.418,148.542,36.695,148.358,36.754,148.073z
	 M32.223,147.153c0.055-0.269-0.118-0.529-0.385-0.584c-0.269-0.055-0.529,0.119-0.584,0.387s0.119,0.529,0.387,0.583
	C31.907,147.593,32.169,147.421,32.223,147.153z M18.63,144.391c0.043-0.214-0.095-0.423-0.309-0.466
	c-0.213-0.043-0.422,0.095-0.466,0.309c-0.044,0.215,0.095,0.423,0.309,0.467C18.377,144.742,18.586,144.604,18.63,144.391z
	 M107.954,117.014c-0.161,0.242-0.097,0.569,0.147,0.731c0.241,0.16,0.569,0.095,0.73-0.146c0.161-0.244,0.096-0.571-0.146-0.732
	C108.443,116.706,108.116,116.771,107.954,117.014z M50.348,150.834c0.068-0.339-0.15-0.669-0.49-0.737
	c-0.338-0.069-0.668,0.149-0.738,0.488c-0.067,0.339,0.15,0.67,0.49,0.739C49.947,151.393,50.279,151.174,50.348,150.834z
	 M54.877,151.756c0.074-0.357-0.156-0.706-0.514-0.779c-0.357-0.072-0.705,0.159-0.777,0.516c-0.073,0.357,0.158,0.706,0.516,0.777
	C54.458,152.342,54.807,152.112,54.877,151.756z M35.363,126.66c0.141-0.212,0.083-0.497-0.129-0.639
	c-0.212-0.144-0.498-0.085-0.641,0.128c-0.141,0.212-0.083,0.497,0.129,0.64C34.936,126.931,35.221,126.873,35.363,126.66z
	 M151.022,157.007l0.004-0.1l-0.004,0.051l-0.002-0.051l-47.689-5.137l-2.487,2.731c-0.237-0.857-0.853-2.46-2.02-2.272
	c-1.185,0.19-1.645,1.809-1.846,2.788c-0.62,0.054-1.241,0.096-1.862,0.127c-0.815,0.042-1.684,0.15-2.476-0.1
	c-0.573-0.182-1.126-0.487-1.633-0.849c12.891-5.208,25.277-10.211,35.035-14.153c1.508-0.614,2.963-1.18,4.33-1.756
	c1.367-0.579,2.663-1.129,3.882-1.646c2.437-1.033,4.561-1.934,6.311-2.676c3.498-1.483,5.496-2.331,5.496-2.331
	s-2.026,0.779-5.573,2.142c-1.773,0.682-3.927,1.51-6.398,2.459c-1.235,0.475-2.548,0.979-3.935,1.513
	c-1.385,0.535-2.823,1.14-4.335,1.744c-9.839,3.976-22.349,9.029-35.352,14.282c-0.078-0.066-0.154-0.132-0.229-0.2
	c-0.02-0.047-0.033-0.097-0.054-0.143c0.033-0.875,0.213-1.793,0.586-2.581c0.355-0.751,0.993-1.274,1.598-1.825
	c0.512-0.468,1.033-0.924,1.564-1.371c0.803,0.526,2.091,1.244,3.069,0.762c1.198-0.574,0.478-2.31,0.016-3.126l3.699,0.173
	l30.075-37.338l-0.127-0.14l0.148,0.114l-0.354-0.339l-0.067-0.074l0.033,0.04l-0.038-0.036l-37.354,30.09l0.173,3.691
	c-0.773-0.439-2.343-1.138-3.035-0.18c-0.703,0.973,0.117,2.442,0.667,3.276c-0.401,0.476-0.81,0.945-1.227,1.407
	c-0.549,0.606-1.085,1.295-1.822,1.679c-0.554,0.289-1.185,0.466-1.82,0.567c5.376-12.665,10.536-24.82,14.609-34.414
	c0.632-1.501,1.261-2.93,1.82-4.304c0.557-1.376,1.085-2.682,1.582-3.908c0.992-2.453,1.856-4.593,2.569-6.354
	c1.425-3.523,2.239-5.536,2.239-5.536s-0.882,1.984-2.427,5.456c-0.772,1.736-1.711,3.844-2.785,6.263
	c-0.539,1.209-1.11,2.495-1.714,3.852c-0.601,1.357-1.191,2.802-1.832,4.299c-4.105,9.673-9.316,21.946-14.739,34.722
	c-0.081,0.006-0.162,0.012-0.242,0.016c-0.038-0.016-0.079-0.027-0.117-0.043c-0.605-0.646-1.133-1.43-1.43-2.258
	c-0.28-0.783-0.199-1.605-0.162-2.421c0.032-0.693,0.078-1.386,0.138-2.076c0.939-0.195,2.358-0.599,2.71-1.632
	c0.439-1.254-1.296-1.971-2.2-2.222l2.738-2.494l-5.136-47.668l-0.286,0.016l-0.309-0.016l-0.194,1.804l-4.301,39.923
	c0.016-0.084,0.014-0.173-0.006-0.262c-0.078-0.355-0.432-0.58-0.787-0.501c-0.355,0.078-0.58,0.431-0.502,0.787
	c0.08,0.354,0.434,0.58,0.787,0.5c0.268-0.059,0.461-0.271,0.508-0.523l-0.641,5.94l2.732,2.488
	c-0.857,0.236-2.46,0.853-2.273,2.019c0.191,1.186,1.811,1.646,2.789,1.846c0.053,0.62,0.096,1.241,0.127,1.862
	c0.042,0.817,0.15,1.684-0.1,2.476c-0.229,0.722-0.641,1.413-1.13,2.014c-5.146-12.737-10.083-24.96-13.983-34.611
	c-0.609-1.509-1.195-2.956-1.752-4.332c-0.578-1.366-1.129-2.662-1.646-3.881c-1.033-2.437-1.935-4.561-2.676-6.31
	c-1.484-3.498-2.333-5.497-2.333-5.497s0.778,2.027,2.14,5.575c0.682,1.773,1.508,3.928,2.457,6.398
	c0.475,1.234,0.979,2.55,1.511,3.936c0.556,1.376,1.14,2.823,1.75,4.333c3.921,9.707,8.894,22.015,14.071,34.831
	c-0.881-0.029-1.809-0.211-2.603-0.586c-0.751-0.355-1.274-0.993-1.825-1.598c-0.467-0.512-0.924-1.035-1.371-1.565
	c0.527-0.803,1.245-2.091,0.763-3.07c-0.575-1.197-2.311-0.477-3.127-0.015l0.173-3.699l-37.338-30.075l-0.14,0.127l0.114-0.148
	l-0.338,0.354l-0.074,0.067l0.037-0.031l-0.033,0.035l30.088,37.354l3.693-0.173c-0.44,0.773-1.137,2.343-0.181,3.035
	c0.974,0.704,2.442-0.116,3.276-0.667c0.476,0.4,0.945,0.81,1.408,1.227c0.605,0.549,1.295,1.085,1.678,1.823
	c0.425,0.812,0.621,1.788,0.657,2.708c-12.737-5.407-24.97-10.601-34.615-14.694c-1.499-0.636-2.935-1.245-4.302-1.824
	c-1.377-0.557-2.682-1.085-3.909-1.58c-2.454-0.992-4.593-1.857-6.354-2.568c-3.523-1.425-5.537-2.238-5.537-2.238
	s1.984,0.883,5.456,2.429c1.736,0.772,3.844,1.711,6.262,2.787c1.209,0.538,2.496,1.11,3.852,1.714
	c1.365,0.58,2.802,1.19,4.301,1.828c9.601,4.075,21.766,9.239,34.439,14.619c-0.568,0.466-1.216,0.863-1.893,1.106
	c-0.783,0.279-1.604,0.199-2.42,0.161c-0.693-0.031-1.386-0.078-2.077-0.138c-0.194-0.939-0.599-2.358-1.632-2.709
	c-1.254-0.44-1.971,1.295-2.221,2.2l-2.494-2.738l-47.668,5.134l-0.009,0.189l-0.023-0.186l0.01,0.49l-0.004,0.1l0.004-0.05
	l0.002,0.05l42.976,4.63c-0.299,0.111-0.488,0.416-0.422,0.738c0.071,0.357,0.42,0.588,0.775,0.517
	c0.358-0.073,0.59-0.421,0.517-0.776c-0.036-0.177-0.138-0.321-0.275-0.414l4.118,0.442l2.488-2.732
	c0.235,0.858,0.854,2.461,2.018,2.273c1.188-0.19,1.646-1.81,1.846-2.788c0.619-0.054,1.241-0.097,1.863-0.127
	c0.816-0.041,1.683-0.15,2.477,0.1c0.906,0.286,1.771,0.865,2.459,1.522c-0.002,0.063-0.009,0.127-0.012,0.191
	c-12.936,5.226-25.369,10.248-35.158,14.203c-1.509,0.609-2.955,1.194-4.332,1.751c-1.365,0.58-2.663,1.131-3.88,1.647
	c-2.437,1.032-4.561,1.935-6.31,2.676c-3.498,1.485-5.497,2.334-5.497,2.334s2.027-0.777,5.575-2.141
	c1.773-0.681,3.928-1.508,6.398-2.458c1.235-0.473,2.55-0.978,3.936-1.51c1.376-0.556,2.823-1.141,4.333-1.75
	c9.717-3.925,22.04-8.903,34.873-14.088c-0.089,0.63-0.252,1.255-0.517,1.813c-0.355,0.753-0.993,1.276-1.598,1.827
	c-0.512,0.467-1.034,0.924-1.565,1.371c-0.803-0.527-2.091-1.244-3.069-0.762c-1.198,0.574-0.478,2.31-0.015,3.126l-3.701-0.173
	l-2.66,3.303c-0.01-0.02-0.013-0.043-0.027-0.063c-0.203-0.302-0.613-0.38-0.916-0.175c-0.301,0.205-0.377,0.615-0.172,0.917
	c0.089,0.132,0.221,0.214,0.363,0.254l-26.662,33.102l0.127,0.142l-0.148-0.115l0.354,0.339l0.067,0.073l-0.032-0.039l0.037,0.035
	l37.354-30.089l-0.172-3.692c0.773,0.44,2.342,1.137,3.033,0.181c0.705-0.973-0.115-2.442-0.666-3.276
	c0.4-0.476,0.81-0.946,1.227-1.407c0.549-0.606,1.086-1.295,1.822-1.679c0.845-0.441,1.864-0.641,2.816-0.664
	c0.027,0.031,0.056,0.064,0.085,0.097c-5.517,12.995-10.827,25.504-14.997,35.33c-0.637,1.499-1.246,2.935-1.826,4.302
	c-0.555,1.376-1.084,2.682-1.579,3.908c-0.991,2.454-1.856,4.594-2.568,6.354c-1.425,3.522-2.237,5.535-2.237,5.535
	s0.883-1.982,2.428-5.454c0.773-1.736,1.711-3.843,2.787-6.263c0.537-1.208,1.11-2.494,1.714-3.852
	c0.581-1.365,1.191-2.801,1.828-4.3c4.142-9.757,9.405-22.158,14.88-35.053c0.4,0.521,0.741,1.099,0.957,1.701
	c0.279,0.782,0.199,1.604,0.161,2.42c-0.031,0.693-0.078,1.386-0.138,2.077c-0.939,0.194-2.357,0.598-2.709,1.631
	c-0.441,1.255,1.296,1.972,2.199,2.222l-2.738,2.494l4.941,45.86l0.211,1.832l0.477-0.002l0.1,0.006l-0.051-0.006l0.051-0.002
	l4.521-41.962c0.145,0.196,0.39,0.309,0.646,0.26c0.358-0.065,0.596-0.41,0.529-0.768c-0.065-0.359-0.41-0.596-0.769-0.526
	c-0.124,0.022-0.226,0.085-0.313,0.164l0.523-4.856l-2.731-2.488c0.856-0.235,2.459-0.853,2.271-2.019
	c-0.19-1.185-1.809-1.646-2.788-1.845c-0.054-0.621-0.096-1.241-0.127-1.863c-0.042-0.816-0.149-1.684,0.101-2.477
	c0.26-0.825,0.768-1.608,1.351-2.264c5.315,13.156,10.437,25.832,14.453,35.777c0.615,1.51,1.182,2.964,1.757,4.331
	c0.579,1.367,1.129,2.663,1.645,3.882c1.034,2.436,1.935,4.561,2.677,6.31c1.483,3.498,2.331,5.499,2.331,5.499
	s-0.779-2.027-2.143-5.576c-0.681-1.773-1.509-3.927-2.459-6.396c-0.474-1.235-0.979-2.55-1.511-3.936
	c-0.536-1.385-1.14-2.823-1.746-4.335c-4.012-9.933-9.125-22.589-14.432-35.726c0.778,0.062,1.575,0.237,2.27,0.566
	c0.752,0.355,1.275,0.993,1.826,1.597c0.468,0.513,0.925,1.035,1.37,1.566c-0.525,0.801-1.244,2.09-0.762,3.068
	c0.575,1.198,2.311,0.478,3.127,0.017l-0.173,3.698l37.338,30.076l0.14-0.128l-0.114,0.148l0.339-0.354l0.074-0.067l-0.04,0.033
	l0.035-0.037l-30.089-37.354l-3.691,0.173c0.44-0.774,1.138-2.344,0.18-3.035c-0.973-0.703-2.442,0.116-3.275,0.667
	c-0.478-0.4-0.946-0.81-1.407-1.228c-0.607-0.548-1.296-1.084-1.682-1.821c-0.323-0.627-0.517-1.348-0.606-2.067
	c12.969,5.505,25.45,10.804,35.259,14.968c1.5,0.632,2.93,1.261,4.304,1.82c1.376,0.557,2.682,1.084,3.908,1.582
	c2.454,0.991,4.592,1.856,6.354,2.569c3.523,1.425,5.536,2.239,5.536,2.239s-1.984-0.882-5.456-2.428
	c-1.736-0.772-3.845-1.711-6.263-2.785c-1.209-0.538-2.495-1.11-3.852-1.713c-1.358-0.601-2.803-1.191-4.3-1.833
	c-9.877-4.192-22.471-9.538-35.541-15.087c-0.001-0.018-0.002-0.037-0.003-0.056c0.005-0.013,0.012-0.028,0.017-0.043
	c0.651-0.614,1.447-1.152,2.289-1.454c0.782-0.28,1.604-0.199,2.42-0.161c0.693,0.032,1.385,0.078,2.077,0.138
	c0.194,0.939,0.598,2.357,1.631,2.709c1.253,0.44,1.972-1.295,2.222-2.199l2.493,2.737L151,157.5l0.009-0.189l0.024,0.188
	L151.022,157.007z M14.357,157.203h0.003l44.154,0.004l0.31,4.784L14.357,157.203z M59.394,161.607l-0.286-4.399l2.311-0.001
	c0.002,0.669,0.053,1.336,0.172,1.992L59.394,161.607z M65.098,158.897l-0.029,0.16c-0.117,0.655-0.492,2.537-1.447,2.536
	c-0.914-0.001-1.291-1.75-1.416-2.369l-0.051-0.25c-0.099-0.581-0.142-1.172-0.142-1.763h3.217
	C65.229,157.776,65.188,158.341,65.098,158.897z M81.346,166.17c-4.966,0-9.006-4.04-9.006-9.004c0-4.966,4.04-9.006,9.006-9.006
	c4.965,0,9.004,4.04,9.004,9.006C90.35,162.13,86.311,166.17,81.346,166.17z M128.629,109.868l-0.001,0.004L97.401,141.09
	l-3.601-3.164L128.629,109.868z M96.981,141.509l-1.633,1.634c-0.473-0.471-0.98-0.907-1.528-1.287l-0.15-3.255L96.981,141.509z
	 M90.689,141.599c0.647-0.647,2.15,0.325,2.677,0.676l0.212,0.14c0.481,0.341,0.931,0.729,1.347,1.146l-2.273,2.274
	c-0.399-0.399-0.77-0.828-1.1-1.286l-0.091-0.133C91.08,143.87,90.015,142.274,90.689,141.599z M88.832,147.66
	c0.862-0.771,1.615-1.709,2.363-2.59c0.317,0.419,0.668,0.815,1.039,1.187l-4.116,4.115c-0.612-0.612-1.312-1.136-2.069-1.564
	C87.048,148.653,88.078,148.336,88.832,147.66z M80.805,94.824c0,12.233,0,25.615,0,39.628l-4.297,0.278L80.805,94.824z
	 M76.892,135.3l3.913-0.255c0,0.766,0,1.531,0,2.3c-0.504,0.019-1.008,0.06-1.504,0.15L76.892,135.3z M76.906,139.526
	c0-0.915,1.748-1.291,2.368-1.416l0.25-0.05c0.423-0.072,0.851-0.105,1.28-0.123c0,1.057,0,2.116,0,3.179
	c-0.402-0.017-0.805-0.048-1.203-0.112l-0.16-0.029C78.787,140.856,76.906,140.481,76.906,139.526z M79.878,145.126
	c0.063-1.155-0.067-2.35-0.161-3.502c0.361,0.05,0.724,0.074,1.088,0.089c0,1.95,0,3.912,0,5.881
	c-0.73,0.042-1.438,0.159-2.113,0.354C79.302,147.124,79.82,146.154,79.878,145.126z M33.962,109.87l0.004,0.003l31.218,31.224
	l-3.164,3.603L33.962,109.87z M62.694,144.83l2.907-3.313l1.635,1.634c-0.471,0.473-0.906,0.98-1.287,1.528L62.694,144.83z
	 M68.643,146.947l-0.133,0.093c-0.546,0.38-2.142,1.445-2.816,0.769c-0.646-0.646,0.324-2.149,0.675-2.676l0.14-0.211
	c0.342-0.482,0.729-0.931,1.146-1.348l2.273,2.273C69.529,146.247,69.102,146.616,68.643,146.947z M71.754,149.667
	c-0.771-0.863-1.709-1.614-2.59-2.362c0.42-0.317,0.814-0.668,1.187-1.04l4.165,4.166c-0.625,0.635-1.164,1.354-1.596,2.142
	C72.773,151.536,72.457,150.452,71.754,149.667z M69.219,158.622c-1.154-0.064-2.348,0.066-3.5,0.159
	c0.071-0.52,0.104-1.047,0.104-1.573l5.926,0.001c0.004,0.931,0.145,1.827,0.397,2.678C71.299,159.242,70.291,158.68,69.219,158.622
	z M33.965,204.536l0.002-0.002l31.225-31.219l3.602,3.163L33.965,204.536z M65.611,172.896l1.633-1.635
	c0.473,0.472,0.98,0.907,1.529,1.288l0.151,3.255L65.611,172.896z M71.902,172.806c-0.646,0.647-2.148-0.324-2.676-0.674
	l-0.213-0.142c-0.48-0.34-0.93-0.729-1.346-1.146l2.274-2.274c0.397,0.399,0.768,0.828,1.099,1.285l0.093,0.133
	C71.514,170.535,72.579,172.132,71.902,172.806z M73.762,166.745c-0.863,0.771-1.615,1.709-2.363,2.59
	c-0.318-0.42-0.668-0.815-1.039-1.187l4.2-4.2c0.638,0.638,1.367,1.185,2.161,1.623C75.669,165.715,74.56,166.029,73.762,166.745z
	 M81.398,223.208c0-11.907,0-24.11,0-36.314c0-2.306,0-4.611,0-6.917l4.688-0.303L81.398,223.208z M85.702,179.105l-4.304,0.28
	c0-0.771,0-1.541,0-2.31c0.635-0.005,1.271-0.053,1.895-0.167L85.702,179.105z M85.688,174.878c0,0.915-1.75,1.29-2.369,1.416
	l-0.25,0.05c-0.552,0.095-1.11,0.135-1.67,0.139c0-1.071,0-2.141,0-3.209c0.533,0.004,1.066,0.042,1.594,0.127l0.16,0.029
	C83.807,173.549,85.688,173.924,85.688,174.878z M82.715,169.279c-0.064,1.155,0.068,2.35,0.161,3.501
	c-0.489-0.066-0.984-0.097-1.478-0.102c0-1.977,0-3.947,0-5.918c0.883-0.004,1.738-0.135,2.551-0.365
	C83.318,167.233,82.772,168.225,82.715,169.279z M128.63,204.536l-0.003-0.002l-31.219-31.227l3.164-3.601L128.63,204.536z
	 M99.899,169.575l-2.909,3.314l-1.636-1.636c0.473-0.471,0.908-0.979,1.289-1.528L99.899,169.575z M93.95,167.457l0.133-0.091
	c0.546-0.38,2.142-1.444,2.816-0.77c0.647,0.646-0.325,2.149-0.675,2.676l-0.141,0.212c-0.34,0.481-0.729,0.93-1.146,1.348
	l-2.273-2.274C93.063,168.158,93.491,167.788,93.95,167.457z M90.84,164.738c0.771,0.861,1.708,1.616,2.589,2.363
	c-0.419,0.316-0.815,0.667-1.188,1.039l-4.152-4.154c0.622-0.616,1.156-1.316,1.594-2.083
	C89.832,162.919,90.151,163.972,90.84,164.738z M96.77,157.197l-5.828-0.001c0-0.011,0.002-0.02,0.002-0.03
	c0-0.881-0.129-1.731-0.354-2.543c0.817,0.6,1.77,1.104,2.782,1.16c1.156,0.064,2.352-0.065,3.503-0.159
	C96.802,156.145,96.77,156.671,96.77,157.197z M97.364,157.193c0-0.564,0.041-1.129,0.131-1.687l0.03-0.159
	c0.117-0.655,0.491-2.536,1.446-2.536c0.915,0,1.291,1.75,1.415,2.37l0.052,0.249c0.1,0.582,0.142,1.173,0.142,1.763H97.364z
	 M101.174,157.197c0.001-0.667-0.051-1.334-0.17-1.991l2.195-2.408l0.286,4.399H101.174z M148.232,157.203l-44.155-0.006
	l-0.309-4.783l44.466,4.787L148.232,157.203z M23.161,145.312c0.048-0.231-0.103-0.458-0.333-0.506
	c-0.232-0.046-0.459,0.104-0.506,0.335c-0.047,0.232,0.103,0.459,0.335,0.506C22.888,145.694,23.113,145.543,23.161,145.312z
	 M129.704,147.56c-0.285,0.057-0.469,0.336-0.411,0.622c0.058,0.284,0.336,0.469,0.621,0.411c0.287-0.058,0.471-0.337,0.413-0.622
	C130.269,147.686,129.989,147.501,129.704,147.56z M105.273,141.13c-0.304,0.202-0.386,0.611-0.183,0.915
	c0.2,0.303,0.609,0.384,0.913,0.183c0.304-0.202,0.386-0.611,0.184-0.914C105.986,141.01,105.575,140.928,105.273,141.13z
	 M133.824,147.261c0.054,0.268,0.315,0.439,0.583,0.386c0.267-0.054,0.439-0.314,0.386-0.583c-0.054-0.268-0.314-0.44-0.583-0.387
	C133.942,146.731,133.77,146.992,133.824,147.261z M143.22,144.914c-0.231,0.047-0.382,0.273-0.334,0.506
	c0.047,0.23,0.273,0.382,0.505,0.334c0.233-0.046,0.383-0.272,0.335-0.506C143.679,145.018,143.453,144.867,143.22,144.914z
	 M138.716,145.797c-0.25,0.051-0.412,0.293-0.361,0.543s0.295,0.412,0.544,0.36c0.251-0.052,0.412-0.294,0.361-0.544
	S138.965,145.745,138.716,145.797z M111.684,151.085c-0.357,0.072-0.588,0.421-0.515,0.778c0.072,0.356,0.421,0.586,0.777,0.515
	c0.357-0.072,0.588-0.42,0.515-0.777C112.389,151.243,112.04,151.013,111.684,151.085z M116.188,150.204
	c-0.339,0.069-0.558,0.399-0.488,0.738c0.067,0.339,0.399,0.559,0.738,0.489c0.338-0.069,0.558-0.399,0.489-0.738
	C116.857,150.354,116.527,150.135,116.188,150.204z M120.694,149.321c-0.322,0.065-0.529,0.379-0.463,0.701
	c0.063,0.32,0.377,0.528,0.698,0.463c0.322-0.065,0.529-0.378,0.463-0.7C121.329,149.464,121.015,149.257,120.694,149.321z
	 M125.2,148.44c-0.304,0.063-0.5,0.357-0.439,0.661c0.063,0.303,0.358,0.499,0.662,0.438c0.303-0.062,0.499-0.356,0.438-0.661
	C125.799,148.575,125.502,148.379,125.2,148.44z M97.674,132.229c-0.203,0.304-0.119,0.713,0.186,0.914
	c0.301,0.202,0.711,0.119,0.912-0.183c0.203-0.305,0.12-0.713-0.183-0.915C98.285,131.844,97.876,131.926,97.674,132.229z
	 M100.243,128.426c-0.19,0.289-0.113,0.677,0.176,0.868c0.287,0.192,0.677,0.114,0.868-0.174c0.192-0.289,0.113-0.678-0.176-0.87
	C100.823,128.06,100.436,128.138,100.243,128.426z M128.304,126.021c-0.212,0.142-0.271,0.427-0.129,0.639
	c0.144,0.213,0.429,0.271,0.641,0.129c0.211-0.143,0.271-0.428,0.128-0.64C128.803,125.937,128.516,125.878,128.304,126.021z
	 M109.111,138.612c-0.288,0.192-0.366,0.58-0.174,0.868s0.58,0.366,0.868,0.174c0.289-0.191,0.365-0.581,0.174-0.869
	C109.788,138.498,109.399,138.42,109.111,138.612z M102.814,124.621c-0.184,0.273-0.109,0.642,0.164,0.824
	c0.272,0.181,0.642,0.107,0.822-0.166c0.185-0.274,0.108-0.642-0.164-0.823C103.363,124.275,102.995,124.349,102.814,124.621z
	 M105.384,120.818c-0.172,0.257-0.102,0.604,0.155,0.775c0.258,0.173,0.607,0.102,0.779-0.155c0.17-0.258,0.101-0.605-0.157-0.777
	C105.903,120.491,105.556,120.56,105.384,120.818z M112.949,136.093c-0.272,0.182-0.347,0.551-0.164,0.823
	c0.181,0.273,0.549,0.348,0.822,0.165c0.274-0.182,0.348-0.55,0.165-0.822C113.592,135.985,113.223,135.911,112.949,136.093z
	 M124.465,128.539c-0.227,0.151-0.29,0.458-0.137,0.685c0.151,0.229,0.458,0.289,0.685,0.139c0.228-0.151,0.289-0.458,0.139-0.686
	C124.999,128.449,124.693,128.388,124.465,128.539z M116.788,133.576c-0.257,0.171-0.326,0.519-0.155,0.776s0.521,0.327,0.777,0.155
	c0.258-0.171,0.327-0.519,0.155-0.777C117.395,133.475,117.047,133.403,116.788,133.576z M120.627,131.057
	c-0.242,0.162-0.308,0.489-0.146,0.732c0.161,0.241,0.489,0.307,0.731,0.146c0.242-0.163,0.308-0.49,0.146-0.732
	S120.869,130.896,120.627,131.057z M41.285,148.993c0.062-0.303-0.135-0.599-0.438-0.66s-0.6,0.135-0.661,0.438
	c-0.062,0.304,0.134,0.6,0.438,0.66C40.928,149.493,41.224,149.297,41.285,148.993z M119.641,182.585
	c-0.162,0.241-0.101,0.568,0.141,0.733c0.24,0.164,0.568,0.102,0.733-0.141c0.163-0.239,0.102-0.568-0.141-0.731
	C120.135,182.282,119.806,182.345,119.641,182.585z M111.996,177.384c-0.185,0.271-0.115,0.639,0.157,0.824
	c0.272,0.185,0.64,0.113,0.823-0.156c0.187-0.271,0.116-0.642-0.156-0.825C112.551,177.042,112.181,177.111,111.996,177.384z
	 M115.82,179.984c-0.176,0.256-0.109,0.604,0.146,0.778c0.257,0.175,0.605,0.109,0.78-0.148c0.174-0.254,0.107-0.604-0.149-0.778
	C116.342,179.664,115.993,179.729,115.82,179.984z M123.465,185.188c-0.153,0.225-0.096,0.532,0.13,0.687s0.532,0.095,0.688-0.13
	c0.153-0.228,0.095-0.535-0.132-0.689C123.925,184.902,123.617,184.96,123.465,185.188z M108.175,174.782
	c-0.196,0.287-0.122,0.676,0.164,0.871c0.286,0.193,0.676,0.118,0.871-0.166c0.194-0.286,0.12-0.676-0.167-0.871
	C108.757,174.423,108.369,174.496,108.175,174.782z M105.851,195.141c-0.24,0.163-0.305,0.49-0.143,0.731
	c0.163,0.242,0.491,0.307,0.733,0.143c0.241-0.163,0.305-0.49,0.142-0.731C106.422,195.041,106.094,194.979,105.851,195.141z
	 M103.271,191.306c-0.259,0.171-0.325,0.52-0.154,0.778c0.174,0.256,0.522,0.324,0.779,0.15c0.257-0.173,0.324-0.521,0.15-0.778
	C103.874,191.2,103.526,191.133,103.271,191.306z M104.352,172.182c-0.205,0.301-0.127,0.711,0.174,0.917
	c0.301,0.204,0.712,0.127,0.916-0.175s0.127-0.712-0.174-0.917C104.966,171.802,104.557,171.88,104.352,172.182z M127.288,187.787
	c-0.145,0.211-0.091,0.5,0.121,0.642c0.212,0.143,0.497,0.09,0.642-0.121c0.144-0.212,0.088-0.498-0.123-0.643
	C127.717,187.523,127.43,187.576,127.288,187.787z M112.652,163.519c-0.07,0.339,0.15,0.67,0.489,0.737
	c0.338,0.069,0.669-0.152,0.737-0.489c0.068-0.34-0.15-0.671-0.49-0.738C113.049,162.96,112.72,163.18,112.652,163.519z
	 M139.847,168.996c-0.047,0.231,0.103,0.458,0.335,0.505c0.232,0.048,0.458-0.103,0.505-0.336c0.047-0.23-0.104-0.458-0.335-0.505
	C140.119,168.613,139.893,168.765,139.847,168.996z M135.313,168.083c-0.049,0.25,0.112,0.494,0.361,0.544
	c0.251,0.05,0.493-0.111,0.545-0.361c0.05-0.249-0.111-0.493-0.362-0.543C135.607,167.672,135.364,167.833,135.313,168.083z
	 M130.782,167.17c-0.055,0.269,0.119,0.528,0.386,0.582c0.269,0.055,0.528-0.119,0.583-0.386c0.054-0.269-0.12-0.529-0.387-0.583
	C131.097,166.729,130.835,166.903,130.782,167.17z M108.119,162.606c-0.073,0.355,0.158,0.703,0.516,0.776
	c0.356,0.071,0.705-0.159,0.776-0.517c0.073-0.357-0.159-0.705-0.517-0.777C108.537,162.018,108.19,162.248,108.119,162.606z
	 M144.38,169.909c-0.043,0.215,0.096,0.422,0.309,0.467c0.215,0.042,0.424-0.096,0.467-0.312c0.042-0.214-0.096-0.422-0.311-0.464
	C144.631,169.556,144.423,169.695,144.38,169.909z M50.887,163.519c-0.068-0.339-0.397-0.559-0.737-0.49
	c-0.339,0.067-0.559,0.398-0.49,0.738c0.067,0.337,0.398,0.559,0.737,0.489C50.736,164.188,50.956,163.857,50.887,163.519z
	 M117.183,164.432c-0.064,0.321,0.144,0.634,0.466,0.699c0.321,0.064,0.634-0.145,0.699-0.466c0.064-0.32-0.143-0.635-0.465-0.698
	C117.561,163.9,117.248,164.109,117.183,164.432z M100.688,187.469c-0.271,0.183-0.345,0.552-0.161,0.824s0.552,0.344,0.824,0.16
	c0.272-0.183,0.345-0.55,0.16-0.822C101.328,187.356,100.958,187.285,100.688,187.469z M121.716,165.344
	c-0.061,0.304,0.136,0.6,0.438,0.661c0.304,0.062,0.6-0.135,0.66-0.438c0.062-0.304-0.135-0.6-0.438-0.66
	C122.073,164.845,121.777,165.041,121.716,165.344z M126.249,166.258c-0.057,0.285,0.127,0.563,0.412,0.622
	c0.285,0.057,0.563-0.129,0.622-0.415c0.058-0.285-0.127-0.563-0.413-0.62C126.585,165.787,126.307,165.972,126.249,166.258z
	 M19.158,169.909c-0.043-0.214-0.251-0.354-0.465-0.309c-0.214,0.042-0.353,0.25-0.311,0.464c0.044,0.216,0.252,0.354,0.466,0.312
	C19.063,170.331,19.202,170.124,19.158,169.909z M28.224,168.083c-0.05-0.25-0.293-0.411-0.542-0.36
	c-0.251,0.05-0.413,0.294-0.363,0.543c0.051,0.25,0.293,0.411,0.545,0.361C28.112,168.577,28.274,168.333,28.224,168.083z
	 M23.356,169.501c0.232-0.047,0.381-0.273,0.335-0.505s-0.272-0.383-0.505-0.336c-0.231,0.047-0.382,0.274-0.335,0.505
	C22.898,169.398,23.124,169.549,23.356,169.501z M55.199,175.653c0.285-0.195,0.361-0.584,0.164-0.871
	c-0.194-0.286-0.582-0.359-0.869-0.166c-0.285,0.195-0.359,0.585-0.165,0.871C54.523,175.771,54.913,175.847,55.199,175.653z
	 M37.289,166.258c-0.057-0.286-0.336-0.471-0.621-0.413c-0.285,0.057-0.471,0.335-0.413,0.62c0.058,0.286,0.337,0.472,0.622,0.415
	C37.162,166.82,37.346,166.543,37.289,166.258z M41.822,165.344c-0.061-0.303-0.357-0.499-0.66-0.438
	c-0.304,0.061-0.5,0.356-0.439,0.66s0.357,0.5,0.66,0.438C41.687,165.943,41.883,165.647,41.822,165.344z M45.891,165.131
	c0.321-0.065,0.529-0.378,0.465-0.699c-0.065-0.322-0.379-0.531-0.7-0.465c-0.322,0.063-0.529,0.378-0.464,0.698
	C45.256,164.986,45.568,165.195,45.891,165.131z M51.385,178.208c0.271-0.186,0.342-0.554,0.157-0.824
	c-0.185-0.272-0.554-0.342-0.825-0.157c-0.271,0.184-0.342,0.555-0.156,0.825C50.744,178.321,51.113,178.393,51.385,178.208z
	 M32.37,167.752c0.267-0.054,0.44-0.313,0.386-0.582c-0.053-0.267-0.314-0.44-0.582-0.387s-0.439,0.314-0.387,0.583
	C31.842,167.633,32.103,167.807,32.37,167.752z M64.261,184.479c0.192-0.287,0.118-0.677-0.171-0.87
	c-0.286-0.192-0.674-0.117-0.868,0.171c-0.193,0.286-0.117,0.677,0.169,0.867C63.678,184.84,64.067,184.765,64.261,184.479z
	 M59.08,192.058c0.171-0.257,0.104-0.605-0.154-0.776c-0.256-0.175-0.604-0.105-0.777,0.15c-0.173,0.258-0.105,0.605,0.152,0.778
	C58.558,192.382,58.906,192.315,59.08,192.058z M56.488,195.848c0.162-0.241,0.098-0.568-0.145-0.733
	c-0.241-0.162-0.57-0.098-0.73,0.145c-0.164,0.241-0.1,0.568,0.143,0.731C55.997,196.152,56.325,196.09,56.488,195.848z
	 M95.523,179.8c-0.302,0.201-0.383,0.611-0.18,0.914c0.204,0.303,0.614,0.384,0.916,0.179c0.302-0.203,0.382-0.613,0.18-0.916
	C96.235,179.674,95.825,179.595,95.523,179.8z M47.572,180.763c0.254-0.175,0.321-0.522,0.146-0.778
	c-0.174-0.256-0.522-0.32-0.777-0.148c-0.257,0.175-0.322,0.524-0.149,0.778C46.967,180.872,47.315,180.938,47.572,180.763z
	 M61.67,188.267c0.184-0.272,0.11-0.64-0.161-0.822c-0.271-0.184-0.642-0.112-0.823,0.162c-0.186,0.271-0.111,0.64,0.16,0.822
	C61.117,188.612,61.486,188.541,61.67,188.267z M98.106,183.633c-0.29,0.193-0.365,0.583-0.171,0.87
	c0.193,0.286,0.582,0.361,0.868,0.17c0.288-0.192,0.364-0.583,0.171-0.869C98.78,183.518,98.393,183.44,98.106,183.633z
	 M36.129,188.429c0.211-0.142,0.266-0.431,0.122-0.642s-0.43-0.264-0.642-0.122c-0.211,0.145-0.266,0.431-0.122,0.643
	C35.631,188.519,35.918,188.571,36.129,188.429z M43.758,183.318c0.24-0.165,0.302-0.492,0.139-0.733
	c-0.164-0.24-0.492-0.303-0.732-0.139c-0.242,0.163-0.305,0.492-0.141,0.731C43.188,183.42,43.517,183.482,43.758,183.318z
	 M66.852,180.689c0.204-0.305,0.123-0.713-0.179-0.914c-0.303-0.205-0.712-0.126-0.916,0.177c-0.202,0.303-0.123,0.713,0.18,0.914
	C66.238,181.071,66.648,180.992,66.852,180.689z M81.264,163.793c-3.656,0-6.631-2.974-6.631-6.629c0-3.656,2.975-6.631,6.631-6.631
	s6.629,2.975,6.629,6.631C87.893,160.819,84.92,163.793,81.264,163.793z M81.264,151.127c-3.329,0-6.037,2.708-6.037,6.037
	c0,3.328,2.708,6.036,6.037,6.036c3.328,0,6.036-2.708,6.036-6.036C87.3,153.835,84.592,151.127,81.264,151.127z M81.264,154.591
	c-1.42,0-2.574,1.151-2.574,2.573c0,1.42,1.154,2.572,2.574,2.572s2.572-1.152,2.572-2.572
	C83.836,155.742,82.684,154.591,81.264,154.591z"/>
</svg>
