<svg xmlns="http://www.w3.org/2000/svg" xmlns:xlink="http://www.w3.org/1999/xlink" version="1.1" id="Layer_1" x="0px" y="0px" width="202px" height="202px" viewBox="0 0 202 202" enable-background="new 0 0 202 202" xml:space="preserve">
<path opacity="0.75" enable-background="new    " d="M21.979 113.771l-0.304 0.037c-0.352 0.049-0.38 0.114-0.266 0.504l0.903 3.2 h0.018l1.246-4.049h0.665l1.444 4.049h0.02c0.333-1.111 0.685-2.452 0.817-3.004c0.124-0.541 0.095-0.646-0.314-0.693l-0.361-0.037 V113.4h2.271v0.371c-0.532 0.076-0.618 0.104-0.94 0.94c-0.048 0.123-0.779 2.31-1.54 4.933h-0.732l-1.397-3.858h-0.019 l-1.274 3.858h-0.731l-1.606-4.988c-0.257-0.789-0.428-0.827-0.865-0.885V113.4h2.965V113.771z M179.9 114.9 c0-1.026-0.076-1.093-0.712-1.149V113.4h4.505c0.01 0.2 0.1 0.9 0.1 1.568l-0.418 0.028c-0.097-0.466-0.2-0.731-0.353-0.886 c-0.152-0.159-0.465-0.219-0.97-0.219h-0.161c-0.359 0-0.38 0-0.38 0.334v1.834h0.476c0.817 0 0.847-0.058 0.94-0.778h0.418v2.243 h-0.418c-0.095-0.838-0.123-0.895-0.94-0.895h-0.476v1.549c0 0.5 0 0.7 0.2 0.817c0.152 0.1 0.4 0.1 0.7 0.1 c0.381 0 0.799-0.057 1.008-0.284c0.162-0.172 0.322-0.524 0.466-0.979l0.418 0.066c-0.048 0.467-0.247 1.436-0.332 1.691h-4.838 v-0.37c0.731-0.058 0.808-0.124 0.808-1.149V114.921z M105.561 6.244h-0.816l-3.518-4.485h-0.02v1.748 c0 1 0 1.5 0.1 1.815c0.049 0.3 0.3 0.5 0.9 0.485v0.37H99.85v-0.37c0.418-0.02 0.664-0.152 0.713-0.485 c0.038-0.294 0.074-0.817 0.074-1.815V1.759c0-0.704-0.018-0.827-0.207-1.094c-0.145-0.199-0.381-0.266-0.723-0.294V0h2.1 l3.164 3.944h0.02V2.671c0-0.998-0.039-1.521-0.074-1.815c-0.049-0.332-0.305-0.456-0.934-0.484V0.001h2.424v0.371 c-0.475 0.019-0.723 0.152-0.77 0.484c-0.038 0.295-0.076 0.817-0.076 1.815V6.244L105.561 6.244z M100.789 197.9 c0.201 0.6 0.8 1.6 1.7 1.605c0.494 0 0.875-0.322 0.875-0.939c0-0.562-0.372-0.877-0.95-1.143l-0.144-0.066 c-0.778-0.359-1.663-0.854-1.663-1.871c0-1.074 0.778-1.947 2.271-1.947c0.295 0 0.6 0 0.9 0.1 c0.221 0.1 0.4 0.1 0.5 0.132c0.037 0.4 0.1 0.8 0.2 1.483l-0.418 0.066c-0.209-0.627-0.541-1.302-1.293-1.302 c-0.483 0-0.828 0.372-0.828 0.827c0 0.5 0.4 0.8 1 1.024l0.209 0.097c0.874 0.4 1.6 0.9 1.6 2 c0 1.168-0.941 2.022-2.414 2.022c-0.379 0-0.77-0.074-1.025-0.162c-0.285-0.094-0.484-0.171-0.6-0.228 c-0.076-0.438-0.199-0.948-0.313-1.586L100.789 197.9z M90.405 33.789c0.413 0 0.9 0.8 0.5 1.6 c-0.803 1.7 1.6 1.6 2.313-1.906c0.275-1.431-0.596-2.742-0.396-3.121c0.793-1.525 2.711-1.373 3.769-0.459 c1.319 1.1 2.1 2.1 2.7 3.914c-0.966-0.36-1.211 1.322-0.19 2.563c0.341 0.4 1.1 0.6 1.8 0.6 c-0.229 0.248-0.484 0.459-0.751 0.58c-1.653 0.762-2.646-1.219-2.711-2.973c-0.022-0.628-0.493-0.6-0.993 0.1 c-2.643 3.6 0.7 8.4 3.5 6.021c-0.795 2.1 0.9 3.4 1.8 3.884c0.547 0.3 0.5 1.5 1.1 1.5 c0.552 0 0.533-1.24 1.079-1.512c0.928-0.455 2.579-1.751 1.786-3.884c2.843 2.4 6.147-2.438 3.505-6.021 c-0.499-0.677-0.969-0.705-0.992-0.077c-0.065 1.754-1.058 3.734-2.711 2.973c-0.266-0.121-0.52-0.332-0.75-0.58 c0.729-0.056 1.467-0.223 1.809-0.639c1.02-1.241 0.773-2.924-0.189-2.563c0.592-1.801 1.383-2.772 2.701-3.914 c1.059-0.914 2.977-1.066 3.8 0.459c0.197 0.379-0.67 1.69-0.397 3.121c0.667 3.5 3.1 3.6 2.3 1.9 c-0.396-0.839 0.114-1.585 0.526-1.6c2.117-0.078 3.373-3.049 3.306-4.953c-0.168-4.888-4.031-7.62-6.875-6.781 c-3.389 0.999-5.553 5.715-6.016 7.162c-0.572 1.791-1.055 3.633-1.175 5.447c-0.287 0.039-0.575 0.056-0.832 0.1 c-0.388-3.259 0.995-7.341 2.537-12.819c1.651-5.868-1.984-12.357-3.396-12.357c-1.411 0-5.047 6.489-3.394 12.4 c1.542 5.5 2.9 9.6 2.5 12.819c-0.256-0.001-0.545-0.018-0.832-0.057c-0.119-1.814-0.603-3.656-1.176-5.447 c-0.463-1.447-2.625-6.163-6.015-7.162c-2.844-0.839-6.707 1.894-6.877 6.781C87.034 30.7 88.3 33.7 90.4 33.789z M98.718 40.389c-0.347 0.286-1.171 0.223-1.725-0.488c-0.507-0.654-0.605-1.969-0.246-2.41c0.431-0.532 0.6 0.1 0.9 0.6 c0.259 0.4 0.7 0.9 0.9 1.143C98.965 39.5 99.3 39.9 98.7 40.389z M107.141 39.2 c0.225-0.194 0.633-0.742 0.893-1.143c0.297-0.458 0.5-1.089 0.932-0.557c0.357 0.4 0.3 1.756-0.248 2.4 c-0.555 0.711-1.377 0.774-1.725 0.488C106.398 39.9 106.7 39.5 107.1 39.189z M106.414 30 c0.298-1.372 1.164-3.557 2.977-5.086c1.484-1.258 3.16-1.886 4.796-1.29c1.716 0.6 2.4 1.7 2.8 2.5 c0.483 1.1 0 2.604-1.142 1.085c-0.99-1.313-4.659-1.43-6.545 0.098c-1.096 0.888-1.668 1.638-2.18 2.5 C106.642 30.6 106.2 30.9 106.4 29.968z M100.087 18.183c0.004-2.372 1.364-5.427 2.044-6.441 c0.111-0.168 0.343-0.076 0.3 0.137v14.064c0 0.229-0.265 0.31-0.358 0.107C101.387 24.5 100.1 21.1 100.1 18.183z M101.68 39.902c0.525 0.2 1.9 3.5 1.5 3.739c-1.139 0.604-2.633-1.121-2.604-2.142 C100.599 40.5 101.2 39.7 101.7 39.902z M88.735 26.081c0.348-0.8 1.074-1.866 2.789-2.489 c1.635-0.596 3.3 0 4.8 1.29c1.811 1.5 2.7 3.7 3 5.086c0.209 0.965-0.229 0.643-0.694-0.172 c-0.513-0.895-1.083-1.645-2.181-2.532c-1.885-1.527-5.554-1.41-6.545-0.098C88.729 28.7 88.2 27.2 88.7 26.081z M137.861 170.814c-0.182 0.125-0.229 0.369-0.107 0.552c0.121 0.2 0.4 0.2 0.6 0.104c0.181-0.121 0.229-0.367 0.104-0.548 C138.287 170.7 138 170.7 137.9 170.814z M135.277 166.98c-0.195 0.131-0.248 0.397-0.115 0.6 c0.131 0.2 0.4 0.2 0.6 0.115c0.195-0.133 0.248-0.398 0.115-0.596S135.475 166.8 135.3 166.98z M132.697 163.1 c-0.213 0.142-0.27 0.429-0.127 0.64c0.146 0.2 0.4 0.3 0.6 0.126s0.269-0.432 0.125-0.643 C133.193 163.1 132.9 163 132.7 163.146z M152.789 150.725c-0.133 0.193-0.084 0.5 0.1 0.6 c0.194 0.1 0.5 0.1 0.596-0.112c0.133-0.195 0.082-0.464-0.113-0.597C153.188 150.5 152.9 150.5 152.8 150.725z M156.611 153.322c-0.121 0.182-0.074 0.4 0.1 0.552c0.18 0.1 0.4 0.1 0.55-0.104c0.121-0.182 0.074-0.428-0.105-0.549 C156.981 153.1 156.7 153.1 156.6 153.322z M114.097 176.085c-0.231 0.043-0.388 0.267-0.343 0.5 c0.042 0.2 0.3 0.4 0.5 0.345c0.23-0.042 0.386-0.268 0.343-0.501C114.553 176.2 114.3 176 114.1 176.085z M114.941 180.631c-0.217 0.041-0.357 0.248-0.318 0.462c0.039 0.2 0.2 0.4 0.5 0.316c0.216-0.04 0.357-0.246 0.316-0.462 C115.361 180.7 115.2 180.6 114.9 180.631z M130.113 159.311c-0.227 0.151-0.285 0.459-0.135 0.7 c0.153 0.2 0.5 0.3 0.7 0.137c0.227-0.153 0.285-0.461 0.134-0.687C130.646 159.2 130.3 159.2 130.1 159.311z M98.082 134.855C98.113 134.8 98.1 134.9 98.1 134.855L98.082 134.855z M94.191 101.8 C94.181 101.8 94.2 101.9 94.2 101.828L94.191 101.828z M107.871 100.217C107.841 100.3 107.9 100.2 107.9 100.2 L107.871 100.217z M85.657 112.643C85.745 112.7 85.6 112.6 85.7 112.643L85.657 112.643z M118.684 108.8 C118.599 108.8 118.7 108.7 118.7 108.75L118.684 108.75z M111.762 133.244C111.721 133.2 111.8 133.3 111.8 133.2 L111.762 133.244z M87.269 126.323C87.354 126.3 87.2 126.3 87.3 126.323L87.269 126.323z M120.296 122.4 C120.205 122.4 120.3 122.4 120.3 122.432L120.296 122.432z M113.254 171.539c-0.25 0.047-0.415 0.288-0.369 0.5 c0.047 0.3 0.3 0.4 0.5 0.372c0.251-0.047 0.417-0.289 0.368-0.539C113.744 171.7 113.5 171.5 113.3 171.539z M134.902 70.379c0.211 0.1 0.5 0.1 0.639-0.128c0.143-0.214 0.086-0.499-0.127-0.64c-0.213-0.144-0.498-0.084-0.641 0.1 C134.632 70 134.7 70.2 134.9 70.379z M94.968 80.605c0.069 0.3 0.4 0.5 0.7 0.5 c0.321-0.07 0.522-0.389 0.45-0.709c-0.07-0.32-0.388-0.521-0.707-0.449C95.098 80 94.9 80.3 95 80.605z M112.988 167.389c-0.05-0.268-0.308-0.447-0.574-0.396c-0.271 0.051-0.447 0.31-0.397 0.575c0.05 0.3 0.3 0.4 0.6 0.4 C112.861 167.9 113 167.7 113 167.389z M111.222 81.057c0.319 0.1 0.64-0.13 0.709-0.451 c0.072-0.319-0.131-0.637-0.451-0.707c-0.319-0.069-0.637 0.131-0.709 0.451C110.701 80.7 110.9 81 111.2 81.057z M110.223 85.57c0.337 0.1 0.672-0.137 0.746-0.477c0.074-0.338-0.139-0.672-0.477-0.746c-0.338-0.076-0.672 0.137-0.746 0.5 C109.671 85.2 109.9 85.5 110.2 85.57z M109.222 90.084c0.354 0.1 0.707-0.146 0.786-0.5 c0.078-0.355-0.146-0.709-0.502-0.787c-0.355-0.079-0.708 0.146-0.787 0.501C108.64 89.7 108.9 90 109.2 90.084z M93.042 71.629c0.063 0.3 0.3 0.5 0.6 0.398c0.285-0.063 0.465-0.344 0.4-0.629c-0.063-0.283-0.345-0.463-0.628-0.4 C93.16 71.1 93 71.3 93 71.629z M94.005 76.116c0.067 0.3 0.4 0.5 0.7 0.4 c0.302-0.065 0.492-0.365 0.426-0.667c-0.066-0.305-0.367-0.492-0.668-0.427C94.126 75.5 93.9 75.8 94 76.116z M77.116 78.079c0.244-0.162 0.311-0.489 0.148-0.731c-0.161-0.242-0.489-0.308-0.73-0.146c-0.243 0.16-0.309 0.488-0.147 0.7 C76.547 78.2 76.9 78.2 77.1 78.079z M89.667 53.973c0.213-0.048 0.348-0.258 0.301-0.472 c-0.048-0.212-0.26-0.348-0.472-0.301c-0.214 0.049-0.349 0.259-0.302 0.473C89.243 53.9 89.5 54 89.7 53.973z M90.67 58.487c0.23-0.052 0.376-0.281 0.325-0.512c-0.052-0.232-0.282-0.377-0.513-0.326c-0.23 0.052-0.376 0.28-0.324 0.5 C90.208 58.4 90.4 58.5 90.7 58.487z M91.67 63c0.248-0.055 0.405-0.301 0.35-0.549c-0.055-0.25-0.301-0.407-0.55-0.352 c-0.249 0.055-0.405 0.301-0.35 0.551S91.421 63.1 91.7 63z M92.672 67.516c0.267-0.06 0.434-0.324 0.375-0.591 c-0.061-0.267-0.324-0.435-0.59-0.376c-0.266 0.061-0.436 0.325-0.376 0.592C92.141 67.4 92.4 67.6 92.7 67.516z M138.056 66.411c0.133-0.197 0.08-0.464-0.118-0.597c-0.195-0.131-0.463-0.078-0.596 0.121c-0.13 0.195-0.077 0.5 0.1 0.6 C137.66 66.7 137.9 66.6 138.1 66.411z M154.296 84.55c0.198-0.131 0.252-0.397 0.12-0.595 c-0.131-0.196-0.396-0.251-0.596-0.119c-0.195 0.131-0.25 0.396-0.117 0.596C153.832 84.6 154.1 84.7 154.3 84.55z M133.027 74.092c0.149-0.227 0.09-0.533-0.138-0.688c-0.228-0.149-0.535-0.088-0.687 0.14c-0.15 0.228-0.092 0.5 0.1 0.7 C132.568 74.4 132.9 74.3 133 74.092z M74.557 74.23c0.227-0.151 0.288-0.459 0.138-0.687 c-0.151-0.228-0.459-0.289-0.687-0.14c-0.227 0.152-0.287 0.461-0.137 0.688S74.329 74.4 74.6 74.23z M140.572 62.6 c0.121-0.184 0.071-0.428-0.11-0.551c-0.183-0.119-0.429-0.069-0.548 0.111c-0.121 0.182-0.071 0.4 0.1 0.5 C140.205 62.8 140.5 62.8 140.6 62.57z M169.563 105.143c0.214-0.043 0.353-0.252 0.31-0.467 c-0.045-0.215-0.252-0.353-0.467-0.309c-0.213 0.043-0.354 0.251-0.309 0.466C169.141 105 169.3 105.2 169.6 105.143z M158.099 81.977c0.183-0.121 0.229-0.367 0.108-0.549c-0.12-0.183-0.365-0.23-0.547-0.109c-0.183 0.121-0.231 0.367-0.11 0.5 S157.916 82.1 158.1 81.977z M116.228 58.487c0.231 0.1 0.462-0.094 0.513-0.325c0.053-0.232-0.095-0.461-0.326-0.513 c-0.229-0.051-0.459 0.094-0.512 0.326C115.853 58.2 116 58.4 116.2 58.487z M113.226 72 c0.283 0.1 0.565-0.116 0.629-0.398c0.063-0.286-0.116-0.566-0.399-0.631c-0.284-0.063-0.565 0.117-0.631 0.4 C112.761 71.7 112.9 72 113.2 72.027z M117.229 53.973c0.214 0 0.425-0.087 0.474-0.3 c0.049-0.214-0.088-0.424-0.301-0.473c-0.215-0.047-0.426 0.089-0.474 0.301C116.882 53.7 117 53.9 117.2 53.973z M114.227 67.516c0.268 0.1 0.53-0.109 0.59-0.375c0.059-0.267-0.109-0.531-0.376-0.592c-0.267-0.059-0.53 0.109-0.59 0.4 S113.959 67.5 114.2 67.516z M115.228 63c0.249 0.1 0.495-0.1 0.552-0.35c0.055-0.25-0.103-0.496-0.352-0.551 c-0.249-0.057-0.496 0.102-0.551 0.352C114.824 62.7 115 62.9 115.2 63z M112.224 76.5 c0.302 0.1 0.603-0.123 0.67-0.426c0.067-0.302-0.124-0.601-0.427-0.668c-0.303-0.065-0.604 0.122-0.668 0.4 C111.73 76.2 111.9 76.5 112.2 76.542z M95.929 85.095c0.075 0.3 0.4 0.6 0.7 0.5 c0.339-0.073 0.552-0.407 0.477-0.746c-0.075-0.338-0.408-0.551-0.745-0.477C96.069 84.4 95.9 84.8 95.9 85.095z M91.332 176.7c-0.232-0.042-0.455 0.11-0.499 0.344s0.11 0.5 0.3 0.502c0.234 0 0.459-0.112 0.5-0.346 C91.719 177 91.6 176.7 91.3 176.7z M94.703 158.518c-0.305-0.057-0.597 0.146-0.654 0.4 c-0.057 0.3 0.1 0.6 0.4 0.654c0.305 0.1 0.598-0.145 0.654-0.449C95.207 158.9 95 158.6 94.7 158.518z M95.547 153.971c-0.323-0.063-0.635 0.153-0.693 0.477c-0.061 0.3 0.2 0.6 0.5 0.691c0.323 0.1 0.634-0.152 0.692-0.477 C96.081 154.3 95.9 154 95.5 153.971z M96.388 149.426c-0.341-0.064-0.667 0.16-0.729 0.5 c-0.063 0.3 0.2 0.7 0.5 0.729s0.666-0.16 0.729-0.5C96.952 149.8 96.7 149.5 96.4 149.426z M93.017 167.6 c-0.267-0.051-0.525 0.129-0.575 0.396c-0.049 0.3 0.1 0.5 0.4 0.577c0.267 0 0.524-0.128 0.575-0.396 C93.463 167.9 93.3 167.7 93 167.607z M92.174 172.154c-0.25-0.047-0.488 0.119-0.537 0.4 c-0.047 0.2 0.1 0.5 0.4 0.539s0.491-0.119 0.538-0.371C92.591 172.4 92.4 172.2 92.2 172.154z M93.861 163.1 c-0.287-0.054-0.563 0.139-0.614 0.422c-0.054 0.3 0.1 0.6 0.4 0.615c0.286 0.1 0.563-0.138 0.615-0.422 C94.334 163.4 94.1 163.1 93.9 163.063z M112.184 162.869c-0.053-0.286-0.328-0.477-0.615-0.424 c-0.285 0.054-0.475 0.328-0.422 0.613c0.053 0.3 0.3 0.5 0.6 0.426C112.049 163.4 112.2 163.2 112.2 162.869z M111.379 158.35c-0.057-0.305-0.35-0.506-0.652-0.449c-0.305 0.056-0.505 0.351-0.449 0.652c0.057 0.3 0.4 0.5 0.7 0.4 C111.236 158.9 111.4 158.7 111.4 158.35z M109.771 149.311c-0.064-0.342-0.39-0.564-0.729-0.502 c-0.342 0.063-0.565 0.387-0.504 0.729c0.064 0.3 0.4 0.6 0.7 0.502C109.609 150 109.8 149.6 109.8 149.311z M110.576 153.829c-0.061-0.322-0.371-0.536-0.693-0.476c-0.32 0.06-0.535 0.367-0.475 0.69c0.061 0.3 0.4 0.5 0.7 0.5 C110.424 154.5 110.6 154.2 110.6 153.829z M97.23 144.879c-0.359-0.066-0.703 0.169-0.77 0.5 c-0.065 0.4 0.2 0.7 0.5 0.766c0.358 0.1 0.702-0.168 0.769-0.524C97.826 145.3 97.6 144.9 97.2 144.879z M49.736 153.221c-0.181 0.121-0.228 0.367-0.105 0.549c0.124 0.2 0.4 0.2 0.6 0.104c0.181-0.124 0.227-0.37 0.105-0.552 C50.163 153.1 49.9 153.1 49.7 153.221z M71.996 70.379c0.212-0.141 0.269-0.427 0.129-0.639 c-0.143-0.213-0.429-0.271-0.641-0.129c-0.213 0.141-0.27 0.426-0.129 0.64C71.498 70.5 71.8 70.5 72 70.379z M49.348 81.866c0.121-0.183 0.072-0.427-0.11-0.548c-0.181-0.121-0.427-0.073-0.548 0.108c-0.121 0.183-0.072 0.4 0.1 0.6 C48.98 82.1 49.2 82 49.3 81.866z M52.602 84.55c0.195 0.1 0.5 0.1 0.594-0.118 c0.131-0.197 0.077-0.465-0.119-0.596c-0.197-0.132-0.465-0.077-0.595 0.119C52.35 84.2 52.4 84.4 52.6 84.55z M69.436 66.529c0.197-0.131 0.25-0.397 0.12-0.594c-0.132-0.199-0.399-0.252-0.596-0.121c-0.198 0.133-0.251 0.398-0.118 0.6 C68.971 66.6 69.2 66.7 69.4 66.529z M66.875 62.68c0.182-0.121 0.23-0.365 0.109-0.548c-0.121-0.182-0.366-0.231-0.548-0.11 c-0.182 0.121-0.231 0.367-0.11 0.549C66.448 62.8 66.7 62.8 66.9 62.68z M67.146 170.9 c-0.123 0.182-0.074 0.4 0.1 0.549c0.184 0.1 0.4 0.1 0.551-0.105c0.121-0.183 0.073-0.429-0.107-0.551 C67.515 170.7 67.3 170.7 67.1 170.898z M72.219 163.245c-0.143 0.211-0.086 0.5 0.1 0.6 c0.213 0.1 0.5 0.1 0.642-0.126c0.142-0.211 0.085-0.497-0.126-0.64C72.648 163 72.4 163 72.2 163.245z M74.756 159.418c-0.152 0.229-0.092 0.5 0.1 0.688c0.228 0.1 0.5 0.1 0.687-0.135c0.151-0.227 0.092-0.533-0.135-0.688 C75.215 159.1 74.9 159.2 74.8 159.418z M90.49 181.247c-0.214-0.039-0.421 0.103-0.46 0.3 c-0.041 0.2 0.1 0.4 0.3 0.461c0.215 0 0.421-0.102 0.461-0.315C90.846 181.5 90.7 181.3 90.5 181.247z M69.683 167.07c-0.132 0.195-0.079 0.5 0.1 0.597c0.197 0.1 0.5 0.1 0.596-0.115c0.132-0.196 0.078-0.464-0.117-0.596 C70.08 166.8 69.8 166.9 69.7 167.07z M53.995 151.318c0.196-0.135 0.245-0.4 0.112-0.596 c-0.133-0.197-0.398-0.248-0.595-0.113c-0.195 0.132-0.246 0.399-0.114 0.596C53.534 151.4 53.8 151.4 54 151.318z M61.623 146.208c0.225-0.154 0.284-0.462 0.13-0.687c-0.153-0.229-0.46-0.285-0.687-0.133c-0.226 0.153-0.283 0.461-0.131 0.7 C61.09 146.3 61.4 146.4 61.6 146.208z M72.434 97.25c0.182-0.271 0.108-0.643-0.166-0.823 c-0.273-0.182-0.641-0.106-0.822 0.166c-0.182 0.272-0.109 0.6 0.2 0.822C71.883 97.6 72.3 97.5 72.4 97.25z M80.126 102.379c0.203-0.304 0.121-0.713-0.182-0.915c-0.305-0.202-0.713-0.12-0.915 0.185c-0.202 0.303-0.12 0.7 0.2 0.9 C79.518 102.8 79.9 102.7 80.1 102.379z M76.282 99.814c0.191-0.289 0.113-0.676-0.175-0.869 c-0.288-0.191-0.677-0.113-0.868 0.174c-0.192 0.288-0.115 0.7 0.2 0.869C75.701 100.2 76.1 100.1 76.3 99.814z M60.89 89.559c0.153-0.228 0.09-0.533-0.136-0.686c-0.229-0.15-0.535-0.09-0.688 0.138c-0.15 0.228-0.089 0.5 0.1 0.7 C60.432 89.8 60.7 89.8 60.9 89.559z M64.739 92.123c0.161-0.243 0.096-0.57-0.148-0.732c-0.241-0.16-0.569-0.096-0.73 0.1 c-0.162 0.242-0.096 0.6 0.1 0.732C64.248 92.4 64.6 92.4 64.7 92.123z M68.586 94.7 c0.171-0.258 0.102-0.605-0.156-0.776c-0.258-0.173-0.605-0.103-0.777 0.153c-0.172 0.26-0.102 0.6 0.2 0.8 C68.064 95 68.4 94.9 68.6 94.688z M84.799 89.628c0.289-0.19 0.367-0.579 0.176-0.868 c-0.192-0.287-0.58-0.365-0.869-0.176c-0.288 0.191-0.366 0.581-0.176 0.87C84.123 89.7 84.5 89.8 84.8 89.628z M87.36 93.479c0.303-0.201 0.387-0.61 0.185-0.914c-0.202-0.305-0.61-0.387-0.915-0.185c-0.303 0.202-0.387 0.61-0.184 0.9 C86.646 93.6 87.1 93.7 87.4 93.479z M79.68 81.928c0.256-0.171 0.326-0.519 0.154-0.775c-0.172-0.258-0.52-0.326-0.775-0.156 c-0.26 0.172-0.328 0.52-0.159 0.777C79.073 82 79.4 82.1 79.7 81.928z M82.24 85.779c0.272-0.184 0.347-0.551 0.165-0.824 c-0.182-0.271-0.549-0.346-0.822-0.165c-0.273 0.183-0.349 0.549-0.166 0.823C81.598 85.9 82 86 82.2 85.779z M67.496 110.248c0.065-0.321-0.143-0.637-0.464-0.7c-0.321-0.065-0.634 0.144-0.699 0.464c-0.064 0.3 0.1 0.6 0.5 0.7 C67.119 110.8 67.4 110.6 67.5 110.248z M49.372 106.564c0.051-0.25-0.111-0.491-0.36-0.543 c-0.25-0.052-0.494 0.11-0.545 0.36c-0.05 0.2 0.1 0.5 0.4 0.544C49.077 107 49.3 106.8 49.4 106.564z M58.434 108.407c0.059-0.285-0.126-0.564-0.412-0.622c-0.285-0.059-0.563 0.126-0.621 0.412c-0.059 0.3 0.1 0.6 0.4 0.6 C58.098 108.9 58.4 108.7 58.4 108.407z M53.903 107.486c0.055-0.269-0.118-0.528-0.385-0.584 c-0.269-0.055-0.529 0.119-0.584 0.388c-0.055 0.3 0.1 0.5 0.4 0.583C53.587 107.9 53.8 107.8 53.9 107.486z M40.31 104.725c0.043-0.214-0.095-0.423-0.309-0.466c-0.213-0.043-0.422 0.095-0.466 0.31s0.095 0.4 0.3 0.5 C40.057 105.1 40.3 104.9 40.3 104.725z M129.634 77.348c-0.161 0.242-0.097 0.6 0.1 0.7 c0.24 0.2 0.6 0.1 0.729-0.146c0.161-0.244 0.096-0.572-0.146-0.732C130.123 77 129.8 77.1 129.6 77.348z M72.028 111.168c0.068-0.339-0.15-0.669-0.49-0.736c-0.338-0.07-0.668 0.148-0.738 0.487c-0.067 0.3 0.1 0.7 0.5 0.7 C71.626 111.7 72 111.5 72 111.168z M76.557 112.09c0.074-0.357-0.156-0.706-0.514-0.779 c-0.357-0.072-0.705 0.159-0.777 0.517c-0.073 0.4 0.2 0.7 0.5 0.776C76.138 112.7 76.5 112.4 76.6 112.09z M57.042 86.994c0.141-0.212 0.083-0.497-0.129-0.639c-0.212-0.145-0.498-0.086-0.641 0.127c-0.141 0.213-0.083 0.5 0.1 0.6 C56.616 87.3 56.9 87.2 57 86.994z M172.701 117.341l0.004-0.1l-0.004 0.051l-0.002-0.051l-47.688-5.138l-2.487 2.7 c-0.236-0.856-0.853-2.46-2.02-2.272c-1.186 0.19-1.645 1.81-1.846 2.789c-0.621 0.053-1.242 0.096-1.862 0.1 c-0.815 0.041-1.685 0.149-2.476-0.101c-0.574-0.183-1.127-0.487-1.634-0.849c12.892-5.209 25.277-10.211 35.035-14.153 c1.508-0.614 2.963-1.181 4.33-1.756c1.367-0.579 2.663-1.129 3.882-1.646c2.438-1.033 4.561-1.935 6.311-2.677 c3.498-1.483 5.496-2.331 5.496-2.331s-2.025 0.779-5.572 2.143c-1.773 0.682-3.928 1.51-6.398 2.5 c-1.234 0.475-2.548 0.979-3.935 1.513c-1.386 0.535-2.823 1.14-4.335 1.744c-9.84 3.976-22.35 9.028-35.352 14.3 c-0.078-0.066-0.154-0.133-0.229-0.2c-0.021-0.048-0.033-0.097-0.054-0.144c0.033-0.875 0.213-1.793 0.586-2.58 c0.354-0.752 0.992-1.274 1.598-1.826c0.512-0.467 1.033-0.924 1.564-1.371c0.803 0.5 2.1 1.2 3.1 0.8 c1.198-0.574 0.479-2.31 0.016-3.126l3.699 0.173l30.075-37.338l-0.127-0.14l0.147 0.113l-0.354-0.339l-0.066-0.073l0.032 0 l-0.038-0.035l-37.354 30.09l0.173 3.691c-0.772-0.439-2.343-1.139-3.035-0.181c-0.703 1 0.1 2.4 0.7 3.3 c-0.4 0.476-0.811 0.945-1.227 1.406c-0.549 0.606-1.086 1.295-1.822 1.68c-0.555 0.289-1.186 0.466-1.82 0.6 c5.377-12.664 10.536-24.82 14.609-34.414c0.632-1.5 1.261-2.93 1.82-4.304c0.557-1.376 1.084-2.683 1.582-3.908 c0.992-2.452 1.855-4.593 2.568-6.354c1.426-3.523 2.239-5.536 2.239-5.536s-0.882 1.984-2.427 5.5 c-0.772 1.736-1.711 3.844-2.785 6.263c-0.539 1.209-1.11 2.495-1.715 3.852c-0.6 1.357-1.19 2.803-1.831 4.3 c-4.105 9.673-9.316 21.946-14.739 34.722c-0.081 0.006-0.162 0.012-0.242 0.016c-0.037-0.016-0.078-0.026-0.117-0.043 c-0.604-0.646-1.133-1.43-1.43-2.258c-0.279-0.783-0.199-1.604-0.162-2.421c0.032-0.692 0.078-1.386 0.139-2.075 c0.938-0.195 2.357-0.6 2.709-1.633c0.439-1.254-1.295-1.971-2.199-2.222l2.738-2.494l-5.137-47.668l-0.285 0.016l-0.31-0.016 l-0.194 1.804L98.18 89.559c0.016-0.084 0.014-0.174-0.006-0.263c-0.078-0.354-0.432-0.58-0.787-0.501 c-0.355 0.078-0.58 0.432-0.502 0.787c0.08 0.4 0.4 0.6 0.8 0.5c0.268-0.059 0.461-0.271 0.508-0.523l-0.641 5.9 l2.731 2.487c-0.856 0.236-2.46 0.854-2.272 2.02c0.19 1.2 1.8 1.6 2.8 1.846c0.053 0.6 0.1 1.2 0.1 1.9 c0.041 0.8 0.1 1.685-0.101 2.476c-0.229 0.723-0.641 1.414-1.13 2.015c-5.146-12.737-10.083-24.96-13.983-34.611 c-0.609-1.509-1.195-2.956-1.752-4.331c-0.578-1.367-1.129-2.662-1.646-3.882c-1.033-2.437-1.935-4.561-2.676-6.31 c-1.484-3.498-2.333-5.497-2.333-5.497s0.778 2 2.1 5.575c0.682 1.8 1.5 3.9 2.5 6.4 c0.475 1.2 1 2.5 1.5 3.937c0.556 1.4 1.1 2.8 1.8 4.332c3.921 9.7 8.9 22 14.1 34.8 c-0.881-0.029-1.809-0.211-2.603-0.586c-0.751-0.355-1.274-0.994-1.825-1.599c-0.467-0.512-0.924-1.035-1.371-1.565 c0.527-0.803 1.245-2.09 0.763-3.069c-0.575-1.197-2.311-0.478-3.127-0.015l0.173-3.699L53.895 68.038l-0.14 0.127l0.114-0.147 l-0.338 0.354l-0.074 0.066l0.037-0.03l-0.033 0.034l30.088 37.354l3.693-0.173c-0.44 0.773-1.137 2.343-0.181 3 c0.974 0.7 2.442-0.116 3.276-0.667c0.476 0.4 0.9 0.8 1.4 1.227c0.605 0.6 1.3 1.1 1.7 1.8 c0.425 0.8 0.6 1.8 0.7 2.708c-12.737-5.407-24.97-10.601-34.615-14.694c-1.499-0.636-2.935-1.244-4.302-1.824 c-1.377-0.557-2.682-1.084-3.909-1.58c-2.454-0.991-4.593-1.856-6.354-2.567c-3.523-1.425-5.537-2.238-5.537-2.238 s1.984 0.9 5.5 2.429c1.736 0.8 3.8 1.7 6.3 2.787c1.209 0.5 2.5 1.1 3.9 1.7 c1.365 0.6 2.8 1.2 4.3 1.828c9.601 4.1 21.8 9.2 34.4 14.619c-0.568 0.465-1.216 0.862-1.893 1.1 c-0.783 0.279-1.604 0.199-2.42 0.16c-0.693-0.03-1.386-0.077-2.077-0.137c-0.194-0.939-0.599-2.358-1.632-2.709 c-1.254-0.44-1.971 1.295-2.221 2.199l-2.494-2.738l-47.668 5.135l-0.009 0.188l-0.023-0.186l0.01 0.489l-0.004 0.101l0.004-0.05 l0.002 0.05l42.976 4.63c-0.299 0.111-0.488 0.416-0.422 0.738c0.071 0.4 0.4 0.6 0.8 0.5 c0.358-0.073 0.59-0.421 0.517-0.776c-0.036-0.176-0.138-0.32-0.275-0.414l4.118 0.442l2.488-2.731 c0.235 0.9 0.9 2.5 2 2.272c1.188-0.19 1.646-1.81 1.846-2.788c0.619-0.054 1.241-0.097 1.863-0.127 c0.816-0.041 1.683-0.15 2.5 0.1c0.906 0.3 1.8 0.9 2.5 1.522c-0.002 0.063-0.009 0.127-0.012 0.2 c-12.936 5.226-25.369 10.247-35.158 14.202c-1.509 0.609-2.955 1.195-4.332 1.752c-1.365 0.58-2.663 1.131-3.88 1.6 c-2.437 1.032-4.561 1.936-6.31 2.676c-3.498 1.485-5.497 2.334-5.497 2.334s2.027-0.776 5.575-2.141 c1.773-0.682 3.928-1.508 6.398-2.458c1.235-0.474 2.55-0.978 3.936-1.51c1.376-0.556 2.823-1.142 4.333-1.75 c9.717-3.925 22.04-8.903 34.873-14.089c-0.089 0.631-0.252 1.256-0.517 1.813c-0.355 0.753-0.993 1.276-1.598 1.8 c-0.512 0.467-1.034 0.924-1.565 1.371c-0.803-0.527-2.091-1.244-3.069-0.762c-1.198 0.574-0.478 2.31-0.015 3.126l-3.701-0.173 l-2.66 3.303c-0.01-0.02-0.013-0.043-0.027-0.063c-0.203-0.303-0.613-0.381-0.916-0.176c-0.301 0.205-0.377 0.615-0.172 0.9 c0.089 0.1 0.2 0.2 0.4 0.254l-26.662 33.103l0.127 0.142l-0.148-0.114l0.354 0.338l0.067 0.073l-0.032-0.038l0.037 0 l37.354-30.089l-0.172-3.691c0.773 0.4 2.3 1.1 3 0.18c0.705-0.973-0.115-2.441-0.666-3.275 c0.4-0.477 0.81-0.945 1.227-1.406c0.549-0.606 1.086-1.296 1.822-1.68c0.845-0.441 1.864-0.641 2.816-0.664 c0.026 0 0.1 0.1 0.1 0.098c-5.517 12.994-10.827 25.504-14.997 35.33c-0.637 1.498-1.246 2.935-1.826 4.3 c-0.555 1.377-1.084 2.683-1.579 3.908c-0.991 2.455-1.856 4.594-2.568 6.354c-1.425 3.522-2.237 5.534-2.237 5.5 s0.883-1.981 2.428-5.453c0.773-1.736 1.711-3.844 2.787-6.264c0.537-1.207 1.11-2.494 1.714-3.852 c0.581-1.365 1.191-2.801 1.828-4.3c4.142-9.757 9.405-22.158 14.88-35.054c0.4 0.5 0.7 1.1 1 1.7 c0.279 0.8 0.2 1.6 0.2 2.42c-0.031 0.693-0.078 1.387-0.138 2.078c-0.939 0.193-2.357 0.598-2.709 1.6 c-0.441 1.3 1.3 2 2.2 2.222l-2.738 2.493l4.941 45.861l0.211 1.832l0.477-0.003l0.1 0.007l-0.051-0.007l0.051-0.002 l4.521-41.962c0.145 0.2 0.4 0.3 0.6 0.26c0.358-0.064 0.597-0.41 0.529-0.768c-0.065-0.359-0.41-0.596-0.769-0.526 c-0.125 0.022-0.227 0.085-0.313 0.164l0.522-4.856l-2.73-2.487c0.855-0.235 2.459-0.853 2.271-2.019 c-0.19-1.186-1.81-1.646-2.789-1.846c-0.054-0.621-0.096-1.24-0.127-1.863c-0.041-0.815-0.148-1.684 0.102-2.477 c0.26-0.825 0.768-1.607 1.352-2.264c5.314 13.2 10.4 25.8 14.5 35.777c0.615 1.5 1.2 3 1.8 4.3 c0.579 1.4 1.1 2.7 1.6 3.883c1.034 2.4 1.9 4.6 2.7 6.31c1.482 3.5 2.3 5.5 2.3 5.5 s-0.778-2.027-2.144-5.576c-0.681-1.773-1.508-3.927-2.459-6.396c-0.474-1.234-0.979-2.549-1.51-3.936 c-0.537-1.385-1.141-2.822-1.746-4.335c-4.013-9.933-9.125-22.589-14.433-35.726c0.778 0.1 1.6 0.2 2.3 0.6 c0.752 0.4 1.3 1 1.8 1.597c0.467 0.5 0.9 1 1.4 1.566c-0.525 0.801-1.244 2.09-0.762 3.1 c0.574 1.2 2.3 0.5 3.1 0.017l-0.173 3.698l37.338 30.076l0.14-0.129l-0.113 0.148l0.338-0.354l0.074-0.067l-0.039 0 l0.035-0.037l-30.09-37.354l-3.691 0.174c0.44-0.774 1.139-2.344 0.181-3.035c-0.974-0.703-2.442 0.115-3.274 0.7 c-0.479-0.4-0.947-0.81-1.408-1.228c-0.606-0.549-1.295-1.084-1.682-1.822c-0.322-0.627-0.517-1.348-0.605-2.066 c12.969 5.5 25.4 10.8 35.3 14.968c1.5 0.6 2.9 1.3 4.3 1.82c1.376 0.6 2.7 1.1 3.9 1.6 c2.454 1 4.6 1.9 6.4 2.569c3.523 1.4 5.5 2.2 5.5 2.238s-1.984-0.882-5.457-2.428 c-1.735-0.771-3.845-1.711-6.263-2.785c-1.209-0.538-2.495-1.109-3.853-1.713c-1.357-0.602-2.803-1.191-4.299-1.833 c-9.877-4.192-22.472-9.538-35.541-15.087c-0.002-0.018-0.002-0.037-0.004-0.057c0.006-0.012 0.012-0.027 0.018-0.043 c0.65-0.613 1.447-1.151 2.289-1.453c0.781-0.28 1.604-0.199 2.42-0.161c0.693 0 1.4 0.1 2.1 0.1 c0.195 0.9 0.6 2.4 1.6 2.709c1.253 0.4 1.972-1.295 2.222-2.199l2.493 2.737l47.669-5.13l0.009-0.189l0.024 0.2 L172.701 117.341z M36.037 117.537h0.003l44.154 0.004l0.31 4.784L36.037 117.537z M81.074 121.941l-0.286-4.399l2.311-0.001 c0.002 0.7 0.1 1.3 0.2 1.992L81.074 121.941z M86.778 119.23l-0.029 0.16c-0.117 0.655-0.492 2.537-1.447 2.5 c-0.914-0.001-1.291-1.75-1.416-2.368l-0.051-0.25c-0.099-0.582-0.142-1.173-0.142-1.764h3.217 C86.909 118.1 86.9 118.7 86.8 119.23z M103.025 126.504c-4.966 0-9.006-4.04-9.006-9.004c0-4.966 4.04-9.006 9.006-9.006 c4.965 0 9 4 9 9.006C112.029 122.5 108 126.5 103 126.504z M150.309 70.202l-0.001 0.004l-31.228 31.2 l-3.601-3.164L150.309 70.202z M118.66 101.843l-1.633 1.634c-0.473-0.471-0.979-0.906-1.527-1.287l-0.15-3.254L118.66 101.843z M112.369 101.934c0.646-0.647 2.1 0.3 2.7 0.676l0.212 0.14c0.48 0.3 0.9 0.7 1.3 1.146l-2.272 2.3 c-0.399-0.399-0.771-0.828-1.101-1.286l-0.091-0.133C112.76 104.2 111.7 102.6 112.4 101.934z M110.512 108 c0.861-0.771 1.615-1.709 2.363-2.59c0.316 0.4 0.7 0.8 1 1.187l-4.116 4.115c-0.612-0.612-1.312-1.136-2.069-1.563 C108.728 109 109.8 108.7 110.5 107.994z M102.484 55.158c0 12.2 0 25.6 0 39.628l-4.297 0.278L102.484 55.158z M98.572 95.634l3.912-0.255c0 0.8 0 1.5 0 2.301c-0.504 0.019-1.008 0.059-1.504 0.149L98.572 95.634z M98.586 99.9 c0-0.914 1.748-1.291 2.367-1.416l0.25-0.049c0.424-0.072 0.852-0.105 1.281-0.123c0 1.1 0 2.1 0 3.2 c-0.402-0.017-0.806-0.048-1.203-0.112l-0.16-0.029C100.467 101.2 98.6 100.8 98.6 99.859z M101.558 105.5 c0.063-1.155-0.067-2.351-0.161-3.502c0.361 0.1 0.7 0.1 1.1 0.089c0 1.9 0 3.9 0 5.9 c-0.729 0.043-1.438 0.159-2.113 0.354C100.981 107.5 101.5 106.5 101.6 105.46z M55.642 70.204l0.004 0.003l31.218 31.2 l-3.164 3.603L55.642 70.204z M84.374 105.164l2.907-3.313l1.635 1.633c-0.471 0.474-0.906 0.98-1.287 1.529L84.374 105.164z M90.323 107.281l-0.133 0.093c-0.546 0.38-2.142 1.444-2.816 0.769c-0.646-0.646 0.324-2.148 0.675-2.676l0.14-0.211 c0.342-0.482 0.729-0.931 1.146-1.348l2.273 2.273C91.208 106.6 90.8 107 90.3 107.281z M93.434 110 c-0.771-0.862-1.709-1.614-2.59-2.362c0.42-0.316 0.814-0.668 1.187-1.039l4.165 4.166c-0.625 0.635-1.164 1.354-1.596 2.1 C94.453 111.9 94.1 110.8 93.4 110.001z M90.898 118.956c-1.154-0.063-2.348 0.065-3.5 0.2 c0.071-0.521 0.104-1.047 0.104-1.573l5.926 0.001c0.004 0.9 0.1 1.8 0.4 2.7 C92.979 119.6 92 119 90.9 118.956z M55.645 164.87l0.002-0.002l31.225-31.22l3.602 3.164L55.645 164.87z M87.291 133.23l1.633-1.636c0.473 0.5 1 0.9 1.5 1.288l0.151 3.256L87.291 133.23z M93.582 133.1 c-0.646 0.646-2.148-0.324-2.676-0.675l-0.213-0.142c-0.48-0.34-0.93-0.729-1.346-1.146l2.274-2.273 c0.397 0.4 0.8 0.8 1.1 1.285l0.093 0.133C93.194 130.9 94.3 132.5 93.6 133.141z M95.442 127.1 c-0.863 0.771-1.615 1.709-2.363 2.59c-0.318-0.42-0.668-0.815-1.039-1.187l4.2-4.2c0.638 0.6 1.4 1.2 2.2 1.6 C97.349 126 96.2 126.4 95.4 127.079z M103.078 183.542c0-11.907 0-24.11 0-36.313c0-2.307 0-4.611 0-6.918l4.688-0.303 L103.078 183.542z M107.382 139.439l-4.304 0.279c0-0.771 0-1.541 0-2.31c0.635-0.005 1.271-0.054 1.895-0.167L107.382 139.439z M107.367 135.212c0 0.915-1.75 1.29-2.369 1.416l-0.25 0.05c-0.551 0.096-1.109 0.135-1.67 0.139c0-1.07 0-2.141 0-3.209 c0.533 0 1.1 0 1.6 0.127l0.159 0.029C105.486 133.9 107.4 134.3 107.4 135.212z M104.395 129.6 c-0.064 1.2 0.1 2.4 0.2 3.501c-0.489-0.066-0.983-0.097-1.478-0.103c0-1.977 0-3.947 0-5.918 c0.883-0.004 1.738-0.135 2.551-0.365C104.998 127.6 104.5 128.6 104.4 129.613z M150.31 164.87l-0.003-0.002 l-31.219-31.228l3.164-3.601L150.31 164.87z M121.578 129.909l-2.908 3.313l-1.637-1.636c0.474-0.471 0.908-0.979 1.289-1.528 L121.578 129.909z M115.63 127.791l0.133-0.091c0.546-0.38 2.142-1.444 2.815-0.771c0.647 0.646-0.324 2.149-0.674 2.7 l-0.142 0.213c-0.34 0.48-0.729 0.93-1.146 1.348l-2.273-2.273C114.742 128.5 115.2 128.1 115.6 127.791z M112.52 125.1 c0.771 0.9 1.7 1.6 2.6 2.363c-0.42 0.315-0.816 0.666-1.188 1.039l-4.152-4.154c0.622-0.616 1.156-1.316 1.595-2.084 C111.512 123.3 111.8 124.3 112.5 125.072z M118.449 117.531l-5.828-0.002c0-0.01 0.002-0.02 0.002-0.029 c0-0.881-0.129-1.73-0.354-2.543c0.817 0.6 1.8 1.1 2.8 1.16c1.155 0.1 2.353-0.065 3.503-0.159 C118.481 116.5 118.4 117 118.4 117.531z M119.043 117.527c0-0.564 0.041-1.129 0.132-1.688l0.03-0.158 c0.117-0.656 0.49-2.537 1.445-2.537c0.915 0 1.3 1.8 1.4 2.371l0.052 0.248c0.101 0.6 0.1 1.2 0.1 1.764H119.043z M122.854 117.531c0.001-0.668-0.051-1.334-0.17-1.991l2.195-2.408l0.285 4.399H122.854z M169.912 117.537l-44.155-0.006 l-0.31-4.783l44.467 4.787L169.912 117.537z M44.841 105.646c0.048-0.231-0.103-0.459-0.333-0.506 c-0.232-0.047-0.459 0.104-0.506 0.334c-0.047 0.2 0.1 0.5 0.3 0.506C44.568 106 44.8 105.9 44.8 105.646z M151.384 107.895c-0.285 0.057-0.47 0.336-0.411 0.621c0.059 0.3 0.3 0.5 0.6 0.411c0.287-0.058 0.471-0.337 0.413-0.622 S151.668 107.8 151.4 107.895z M126.953 101.464c-0.305 0.202-0.387 0.611-0.184 0.915c0.2 0.3 0.6 0.4 0.9 0.2 c0.304-0.203 0.386-0.611 0.185-0.914C127.666 101.3 127.3 101.3 127 101.464z M155.504 107.6 c0.054 0.3 0.3 0.4 0.6 0.386c0.267-0.054 0.438-0.313 0.386-0.582c-0.055-0.269-0.314-0.44-0.583-0.388 C155.621 107.1 155.4 107.3 155.5 107.595z M164.9 105.248c-0.232 0.047-0.383 0.273-0.334 0.5 c0.047 0.2 0.3 0.4 0.5 0.334c0.233-0.046 0.383-0.271 0.336-0.506C165.359 105.4 165.1 105.2 164.9 105.248z M160.396 106.131c-0.25 0.051-0.411 0.293-0.36 0.543s0.295 0.4 0.5 0.36c0.252-0.052 0.412-0.294 0.361-0.544 S160.645 106.1 160.4 106.131z M133.363 111.419c-0.356 0.072-0.588 0.421-0.515 0.778c0.072 0.4 0.4 0.6 0.8 0.5 c0.357-0.071 0.589-0.42 0.516-0.776C134.068 111.6 133.7 111.3 133.4 111.419z M137.867 110.5 c-0.338 0.069-0.558 0.399-0.487 0.737c0.067 0.3 0.4 0.6 0.7 0.49c0.338-0.07 0.559-0.399 0.489-0.738 C138.537 110.7 138.2 110.5 137.9 110.538z M142.373 109.654c-0.321 0.065-0.528 0.38-0.463 0.7 c0.063 0.3 0.4 0.5 0.7 0.463c0.321-0.064 0.528-0.377 0.463-0.699C143.009 109.8 142.7 109.6 142.4 109.654z M146.88 108.773c-0.304 0.063-0.5 0.357-0.439 0.662c0.063 0.3 0.4 0.5 0.7 0.438c0.304-0.063 0.499-0.355 0.438-0.661 C147.479 108.9 147.2 108.7 146.9 108.773z M119.354 92.563c-0.203 0.305-0.119 0.7 0.2 0.9 c0.302 0.2 0.7 0.1 0.912-0.183c0.203-0.305 0.121-0.713-0.183-0.915C119.965 92.2 119.6 92.3 119.4 92.563z M121.923 88.76c-0.19 0.289-0.113 0.7 0.2 0.868c0.287 0.2 0.7 0.1 0.868-0.174c0.191-0.289 0.113-0.679-0.176-0.87 C122.503 88.4 122.1 88.5 121.9 88.76z M149.984 86.355c-0.213 0.142-0.271 0.427-0.13 0.6 c0.144 0.2 0.4 0.3 0.6 0.129c0.211-0.143 0.271-0.428 0.127-0.641C150.482 86.3 150.2 86.2 150 86.355z M130.791 98.945c-0.288 0.193-0.366 0.58-0.174 0.869c0.191 0.3 0.6 0.4 0.9 0.174c0.289-0.191 0.365-0.581 0.174-0.869 C131.468 98.8 131.1 98.8 130.8 98.945z M124.494 84.955c-0.185 0.273-0.109 0.6 0.2 0.8 c0.271 0.2 0.6 0.1 0.821-0.166c0.185-0.274 0.108-0.643-0.163-0.823C125.043 84.6 124.7 84.7 124.5 84.955z M127.063 81.152c-0.172 0.257-0.102 0.6 0.2 0.774c0.258 0.2 0.6 0.1 0.779-0.155c0.17-0.258 0.101-0.604-0.157-0.776 C127.582 80.8 127.2 80.9 127.1 81.152z M134.629 96.427c-0.272 0.183-0.348 0.552-0.164 0.8 c0.181 0.3 0.5 0.3 0.8 0.165s0.348-0.55 0.164-0.822C135.271 96.3 134.9 96.2 134.6 96.427z M146.145 88.9 c-0.227 0.15-0.29 0.458-0.137 0.686c0.15 0.2 0.5 0.3 0.7 0.139c0.228-0.151 0.288-0.458 0.139-0.687 C146.679 88.8 146.4 88.7 146.1 88.873z M138.468 93.91c-0.257 0.171-0.326 0.52-0.155 0.8 c0.172 0.3 0.5 0.3 0.8 0.155c0.258-0.171 0.326-0.519 0.154-0.776C139.074 93.8 138.7 93.7 138.5 93.91z M142.307 91.391c-0.242 0.162-0.309 0.489-0.146 0.732c0.162 0.2 0.5 0.3 0.7 0.146c0.242-0.164 0.308-0.49 0.146-0.732 S142.549 91.2 142.3 91.391z M62.965 109.327c0.062-0.304-0.135-0.599-0.438-0.66c-0.303-0.062-0.6 0.135-0.661 0.4 c-0.062 0.3 0.1 0.6 0.4 0.66C62.608 109.8 62.9 109.6 63 109.327z M141.32 142.9 c-0.162 0.241-0.101 0.6 0.1 0.733c0.239 0.2 0.6 0.1 0.733-0.142c0.162-0.239 0.102-0.567-0.142-0.731 C141.814 142.6 141.5 142.7 141.3 142.919z M133.676 137.718c-0.186 0.271-0.115 0.6 0.2 0.8 c0.272 0.2 0.6 0.1 0.824-0.156c0.187-0.271 0.115-0.642-0.156-0.825C134.23 137.4 133.9 137.4 133.7 137.718z M137.5 140.318c-0.176 0.256-0.109 0.6 0.1 0.777c0.257 0.2 0.6 0.1 0.78-0.147c0.174-0.255 0.107-0.604-0.148-0.778 C138.021 140 137.7 140.1 137.5 140.318z M145.145 145.521c-0.152 0.226-0.096 0.5 0.1 0.7 c0.225 0.2 0.5 0.1 0.688-0.13c0.152-0.228 0.095-0.535-0.133-0.688C145.604 145.2 145.3 145.3 145.1 145.521z M129.854 135.116c-0.196 0.286-0.122 0.7 0.2 0.87c0.286 0.2 0.7 0.1 0.871-0.166s0.12-0.676-0.167-0.87 C130.437 134.8 130 134.8 129.9 135.116z M127.531 155.475c-0.24 0.164-0.306 0.49-0.144 0.7 c0.163 0.2 0.5 0.3 0.7 0.144c0.24-0.164 0.305-0.49 0.142-0.731C128.102 155.4 127.8 155.3 127.5 155.475z M124.951 151.641c-0.26 0.17-0.326 0.52-0.154 0.777c0.174 0.3 0.5 0.3 0.8 0.15c0.256-0.174 0.324-0.521 0.149-0.778 C125.554 151.5 125.2 151.5 125 151.641z M126.031 132.516c-0.205 0.301-0.127 0.7 0.2 0.9 c0.302 0.2 0.7 0.1 0.916-0.176c0.205-0.302 0.127-0.712-0.174-0.917C126.646 132.1 126.2 132.2 126 132.516z M148.968 148.121c-0.146 0.211-0.091 0.5 0.1 0.643s0.497 0.1 0.642-0.121c0.145-0.213 0.088-0.498-0.123-0.644 C149.396 147.9 149.1 147.9 149 148.121z M134.332 123.854c-0.07 0.3 0.1 0.7 0.5 0.7 c0.338 0.1 0.67-0.152 0.737-0.488c0.067-0.341-0.149-0.672-0.489-0.738C134.729 123.3 134.4 123.5 134.3 123.854z M161.527 129.33c-0.048 0.2 0.1 0.5 0.3 0.505c0.232 0 0.459-0.103 0.506-0.336c0.047-0.229-0.104-0.458-0.336-0.505 C161.799 128.9 161.6 129.1 161.5 129.33z M156.992 128.417c-0.049 0.2 0.1 0.5 0.4 0.5 c0.251 0.1 0.493-0.111 0.545-0.361c0.051-0.248-0.111-0.492-0.361-0.543S157.043 128.2 157 128.417z M152.462 127.5 c-0.056 0.3 0.1 0.5 0.4 0.582c0.27 0.1 0.527-0.119 0.583-0.386c0.054-0.269-0.12-0.529-0.388-0.583 C152.777 127.1 152.5 127.2 152.5 127.504z M129.799 122.939c-0.073 0.4 0.2 0.7 0.5 0.8 c0.356 0.1 0.705-0.159 0.776-0.517c0.073-0.357-0.159-0.705-0.517-0.777C130.217 122.4 129.9 122.6 129.8 122.939z M166.06 130.243c-0.043 0.2 0.1 0.4 0.3 0.467c0.215 0 0.424-0.097 0.467-0.312c0.042-0.215-0.096-0.422-0.311-0.465 S166.103 130 166.1 130.243z M72.567 123.854c-0.068-0.34-0.397-0.56-0.737-0.49c-0.339 0.066-0.559 0.397-0.49 0.7 c0.067 0.3 0.4 0.6 0.7 0.488C72.416 124.5 72.6 124.2 72.6 123.854z M138.863 124.8 c-0.064 0.3 0.1 0.6 0.5 0.699c0.322 0.1 0.635-0.145 0.699-0.466c0.064-0.319-0.143-0.635-0.465-0.698 C139.24 124.2 138.9 124.4 138.9 124.766z M122.367 147.803c-0.271 0.184-0.345 0.553-0.16 0.8 c0.184 0.3 0.6 0.3 0.8 0.16c0.271-0.184 0.344-0.551 0.16-0.822C123.008 147.7 122.6 147.6 122.4 147.803z M143.396 125.678c-0.062 0.3 0.1 0.6 0.4 0.661c0.304 0.1 0.6-0.135 0.66-0.438c0.062-0.303-0.135-0.6-0.438-0.659 C143.753 125.2 143.5 125.4 143.4 125.678z M147.929 126.592c-0.058 0.3 0.1 0.6 0.4 0.6 c0.284 0.1 0.563-0.129 0.622-0.415c0.058-0.285-0.127-0.563-0.413-0.619C148.265 126.1 148 126.3 147.9 126.592z M40.838 130.243c-0.043-0.214-0.251-0.354-0.465-0.31c-0.214 0.043-0.353 0.25-0.311 0.465c0.044 0.2 0.3 0.4 0.5 0.3 C40.743 130.7 40.9 130.5 40.8 130.243z M49.904 128.417c-0.05-0.25-0.293-0.411-0.542-0.36 c-0.251 0.051-0.413 0.295-0.363 0.543c0.051 0.2 0.3 0.4 0.5 0.361C49.792 128.9 50 128.7 49.9 128.417z M45.036 129.835c0.232-0.047 0.381-0.272 0.335-0.505s-0.272-0.383-0.505-0.336c-0.231 0.047-0.382 0.273-0.335 0.5 C44.578 129.7 44.8 129.9 45 129.835z M76.879 135.986c0.285-0.194 0.361-0.584 0.164-0.87 c-0.194-0.286-0.582-0.359-0.869-0.166c-0.285 0.194-0.359 0.585-0.165 0.87C76.203 136.1 76.6 136.2 76.9 135.986z M58.969 126.592c-0.057-0.285-0.336-0.471-0.621-0.412c-0.285 0.057-0.471 0.334-0.413 0.619c0.058 0.3 0.3 0.5 0.6 0.4 C58.842 127.2 59 126.9 59 126.592z M63.501 125.678c-0.061-0.303-0.357-0.498-0.66-0.438 c-0.304 0.061-0.5 0.355-0.439 0.66c0.061 0.3 0.4 0.5 0.7 0.438C63.367 126.3 63.6 126 63.5 125.678z M67.571 125.465c0.321-0.064 0.529-0.378 0.465-0.699c-0.065-0.322-0.379-0.531-0.7-0.465c-0.322 0.063-0.529 0.379-0.464 0.7 C66.936 125.3 67.2 125.5 67.6 125.465z M73.064 138.542c0.271-0.187 0.342-0.554 0.157-0.824 c-0.185-0.272-0.554-0.342-0.825-0.157s-0.342 0.556-0.156 0.825C72.424 138.7 72.8 138.7 73.1 138.542z M54.05 128.1 c0.267-0.054 0.44-0.313 0.386-0.582c-0.053-0.268-0.314-0.439-0.582-0.387c-0.268 0.053-0.439 0.314-0.387 0.6 C53.521 128 53.8 128.1 54 128.086z M85.941 144.813c0.192-0.287 0.118-0.677-0.171-0.869 c-0.286-0.192-0.674-0.117-0.868 0.171c-0.193 0.286-0.117 0.7 0.2 0.866C85.358 145.2 85.7 145.1 85.9 144.813z M80.76 152.393c0.171-0.258 0.104-0.605-0.154-0.776c-0.256-0.175-0.604-0.105-0.777 0.149c-0.173 0.258-0.105 0.6 0.2 0.8 C80.238 152.7 80.6 152.6 80.8 152.393z M78.167 156.182c0.162-0.24 0.098-0.568-0.145-0.732 c-0.241-0.162-0.57-0.098-0.73 0.145c-0.164 0.241-0.1 0.6 0.1 0.731C77.677 156.5 78 156.4 78.2 156.182z M117.203 140.134c-0.303 0.201-0.383 0.611-0.181 0.914c0.204 0.3 0.6 0.4 0.9 0.179c0.302-0.203 0.382-0.613 0.181-0.916 C117.914 140 117.5 139.9 117.2 140.134z M69.251 141.098c0.254-0.176 0.321-0.522 0.146-0.779 c-0.174-0.256-0.522-0.319-0.777-0.147c-0.257 0.175-0.322 0.524-0.149 0.778C68.646 141.2 69 141.3 69.3 141.098z M83.35 148.602c0.184-0.272 0.11-0.641-0.161-0.822c-0.271-0.185-0.642-0.112-0.823 0.162c-0.186 0.271-0.111 0.6 0.2 0.8 C82.797 148.9 83.2 148.9 83.3 148.602z M119.785 143.967c-0.289 0.193-0.364 0.583-0.17 0.9 c0.192 0.3 0.6 0.4 0.9 0.17c0.288-0.192 0.364-0.583 0.172-0.868C120.459 143.9 120.1 143.8 119.8 143.967z M57.809 148.764c0.211-0.143 0.266-0.432 0.122-0.643s-0.43-0.264-0.642-0.122c-0.211 0.146-0.266 0.431-0.122 0.6 C57.311 148.9 57.6 148.9 57.8 148.764z M65.438 143.652c0.24-0.166 0.302-0.492 0.139-0.733 c-0.164-0.24-0.492-0.303-0.732-0.14c-0.242 0.164-0.305 0.492-0.141 0.731C64.868 143.8 65.2 143.8 65.4 143.652z M88.532 141.023c0.204-0.306 0.123-0.713-0.179-0.914c-0.303-0.205-0.712-0.127-0.916 0.177c-0.202 0.303-0.123 0.7 0.2 0.9 C87.917 141.4 88.3 141.3 88.5 141.023z M102.943 124.127c-3.656 0-6.631-2.975-6.631-6.629 c0-3.656 2.975-6.631 6.631-6.631s6.629 3 6.6 6.631C109.572 121.2 106.6 124.1 102.9 124.127z M102.943 111.5 c-3.328 0-6.037 2.708-6.037 6.037c0 3.3 2.7 6 6 6.036s6.036-2.708 6.036-6.036 C108.979 114.2 106.3 111.5 102.9 111.461z M102.943 114.925c-1.42 0-2.574 1.151-2.574 2.6 c0 1.4 1.2 2.6 2.6 2.572s2.572-1.152 2.572-2.572C105.516 116.1 104.4 114.9 102.9 114.925z"/>
</svg>
