<?xml version="1.0" encoding="utf-8"?>
<!-- Generator: Adobe Illustrator 16.0.3, SVG Export Plug-In . SVG Version: 6.00 Build 0)  -->
<!DOCTYPE svg PUBLIC "-//W3C//DTD SVG 1.1//EN" "http://www.w3.org/Graphics/SVG/1.1/DTD/svg11.dtd">
<svg version="1.1" id="Layer_1" xmlns="http://www.w3.org/2000/svg" xmlns:xlink="http://www.w3.org/1999/xlink" x="0px" y="0px"
	 width="160px" height="300px" viewBox="0 0 160 300" enable-background="new 0 0 160 300" xml:space="preserve">
<g>
	<circle cx="48.557" cy="173.883" r="0.539"/>
	<circle cx="52.206" cy="171.4" r="0.571"/>
	<path d="M46.625,158.815c0.254-0.736,0.469,0.243,0.509,0.255c0.171,0.049,0.294-0.029,0.481-0.039
		c0.071-0.118,0.104-0.26,0.075-0.405c-0.063-0.31-0.363-0.511-0.673-0.447c-0.31,0.062-0.509,0.363-0.446,0.672
		c0.021,0.106,0.078,0.192,0.147,0.268C46.895,158.988,46.999,158.888,46.625,158.815z"/>
	<circle cx="51.458" cy="157.867" r="0.602"/>
	<circle cx="37.609" cy="181.332" r="0.444"/>
	<circle cx="30.31" cy="186.298" r="0.38"/>
	<path d="M45.193,176.785c0.095-0.064,0.152-0.159,0.187-0.26c-0.092,0.087-0.267,0.088-0.535-0.153
		c0.225-0.274,0.39-0.319,0.492-0.271c-0.004-0.007-0.005-0.015-0.009-0.021c-0.158-0.231-0.474-0.291-0.705-0.133
		c-0.232,0.156-0.292,0.472-0.134,0.703S44.961,176.942,45.193,176.785z"/>
	<circle cx="41.258" cy="178.848" r="0.475"/>
	<circle cx="136.582" cy="141.143" r="0.444"/>
	<path d="M33.233,171.935c-0.082-0.04-0.186-0.157-0.347-0.144c0.063-0.317,0.506-0.257,0.509,0
		c-0.013,0.042-0.026,0.072-0.039,0.096c0.53-0.203,1.066-0.409,1.621-0.622c1.323-0.534,2.715-1.097,4.167-1.683
		c3.917-1.582,8.277-3.344,12.926-5.221c-0.236-0.119-0.361-0.35-0.863-0.203c-0.003-0.028,0.02-0.052,0.032-0.077
		c-4.417,1.784-8.566,3.461-12.309,4.973c-1.451,0.586-2.842,1.148-4.166,1.684c-1.313,0.558-2.56,1.087-3.731,1.584
		c-2.343,0.993-4.385,1.859-6.067,2.573c-3.363,1.428-5.285,2.243-5.285,2.243s1.949-0.748,5.36-2.059
		c1.706-0.654,3.777-1.449,6.152-2.362C31.849,172.466,32.532,172.203,33.233,171.935z"/>
	<circle cx="53.698" cy="109.64" r="0.476"/>
	<circle cx="51.253" cy="105.965" r="0.444"/>
	<circle cx="33.96" cy="183.814" r="0.412"/>
	<path d="M59.036,116.692c-0.166-0.249-0.5-0.314-0.747-0.151c-0.249,0.166-0.315,0.499-0.151,0.747
		c0.014,0.021,0.035,0.032,0.05,0.05c0.116-0.204,0.452-0.365,0.906-0.253c-0.115,0.181-0.349,0.245-0.457,0.434
		c0.086-0.008,0.172-0.029,0.25-0.081C59.133,117.274,59.2,116.939,59.036,116.692z"/>
	<circle cx="25.496" cy="163.096" r="0.412"/>
	<circle cx="46.365" cy="98.615" r="0.381"/>
	<circle cx="42.804" cy="159.61" r="0.539"/>
	<circle cx="29.823" cy="162.225" r="0.443"/>
	<circle cx="38.477" cy="160.482" r="0.508"/>
	<circle cx="66.871" cy="173.903" r="0.634"/>
	<circle cx="47.152" cy="203.195" r="0.38"/>
	<circle cx="58.79" cy="136.75" r="0.634"/>
	<circle cx="55.855" cy="168.917" r="0.602"/>
	<path d="M62.646,154.747c0.003,0,0.006-0.003,0.01-0.003c-0.012-0.018-0.02-0.039-0.032-0.058
		C62.63,154.707,62.639,154.728,62.646,154.747z"/>
	<circle cx="61.032" cy="120.665" r="0.571"/>
	<circle cx="63.476" cy="124.34" r="0.602"/>
	<path d="M81.197,59.295c-0.063-8.26-0.1-12.98-0.1-12.98s-0.035,4.72-0.099,12.98c-0.032,4.13-0.07-7.994-0.114-2.241
		c-0.022,2.876-0.045,5.937-0.07,9.164c0,0.193,0,0.392,0,0.585c0.128-0.091,0.361-0.079,0.569-0.091c0-0.164,0-0.332,0-0.494
		c-0.025-3.227-0.049-6.287-0.07-9.164C81.268,51.302,81.229,63.426,81.197,59.295z"/>
	<circle cx="65.92" cy="128.016" r="0.634"/>
	<path d="M59.576,161.328c0.087-0.035,0.174-0.07,0.261-0.105C59.667,161.213,59.509,161.246,59.576,161.328z"/>
	<circle cx="49.617" cy="199.532" r="0.413"/>
	<circle cx="52.082" cy="195.871" r="0.444"/>
	<circle cx="54.547" cy="192.209" r="0.476"/>
	<path d="M55.516,213.605c0,0,0.103-0.231,0.284-0.639c-0.011,0.002-0.019,0.008-0.03,0.01
		C55.608,213.377,55.516,213.605,55.516,213.605z"/>
	<path d="M62.293,180.784c-0.012-0.01-0.019-0.023-0.032-0.032c-0.216-0.146-0.491-0.116-0.681,0.044
		c-0.021,0.028-0.042,0.058-0.075,0.075c-0.011,0.014-0.026,0.021-0.037,0.036c-0.177,0.261-0.107,0.615,0.154,0.791
		c0.18,0.121,0.402,0.119,0.582,0.024c-0.019-0.002-0.038-0.006-0.058-0.008c-0.039-0.19,0.127-0.286,0.321-0.299
		c0.073-0.201,0.028-0.418-0.118-0.574c0.024,0.033,0.051,0.064,0.052,0.11c-0.227,0.156-0.455,0.307-0.509,0
		C61.936,180.73,62.157,180.701,62.293,180.784z"/>
	<circle cx="64.406" cy="177.563" r="0.602"/>
	<circle cx="59.478" cy="184.886" r="0.539"/>
	<circle cx="57.012" cy="188.547" r="0.507"/>
	<circle cx="34.15" cy="161.353" r="0.475"/>
	<circle cx="69.364" cy="94.498" r="0.412"/>
	<circle cx="72.23" cy="107.425" r="0.507"/>
	<path d="M71.172,102.652c-0.256,0.058-0.418,0.312-0.361,0.568c0.056,0.255,0.311,0.417,0.567,0.36
		c0.211-0.047,0.35-0.228,0.364-0.433c-0.269,0.19-0.499,0.129-0.18-0.056c0.063-0.037,0.119-0.065,0.172-0.091
		C71.67,102.752,71.423,102.597,71.172,102.652z"/>
	<circle cx="68.408" cy="90.188" r="0.38"/>
	<circle cx="70.319" cy="98.807" r="0.444"/>
	<circle cx="40.426" cy="124.511" r="0.475"/>
	<path d="M38.794,133.625c-1.2-0.509-2.366-1.003-3.475-1.474c-1.324-0.535-2.579-1.042-3.758-1.519
		c-2.359-0.954-4.416-1.785-6.109-2.469c-3.388-1.37-5.324-2.152-5.324-2.152s1.908,0.849,5.246,2.335
		c1.669,0.743,3.696,1.645,6.021,2.68c1.163,0.518,2.399,1.068,3.703,1.648c1.313,0.558,2.694,1.145,4.135,1.757
		c5.226,2.219,11.243,4.772,17.69,7.509c-0.263-0.186-0.046-0.411,0.161-0.552c-0.73-0.31-1.454-0.617-2.171-0.921
		c-0.032,0.069-0.078,0.159-0.145,0.282c-0.529,0.136-0.539-0.99-0.254-0.254c0.092-0.049,0.148-0.077,0.21-0.108
		c-1.543-0.655-3.056-1.297-4.538-1.926c-0.581,0.706-0.771-0.091-0.463-0.196c-0.922-0.392-1.834-0.779-2.729-1.159
		c-0.221,0.098-0.62,0.019-0.623,0.336c-0.546-0.193-0.252-0.448,0.157-0.534c-2.481-1.053-4.851-2.059-7.073-3.002
		c-0.136-0.058-0.264-0.112-0.399-0.169c-0.112,0.152-0.303,0.271-0.573,0.143C38.099,133.716,38.457,133.637,38.794,133.625z"/>
	<circle cx="47.771" cy="129.406" r="0.539"/>
	<circle cx="44.098" cy="126.959" r="0.507"/>
	<path d="M89.733,166.777C89.693,166.697,89.742,166.798,89.733,166.777L89.733,166.777z"/>
	<path d="M54.95,130.876c-0.114-0.232,0.003-0.553,0.582-0.05c-0.192,0.263-0.367,0.263-0.481,0.174l1.56,1.937
		c0.224-0.003,0.467,0.01,0.741,0.011l-7.485-9.292c-0.061,0.153-0.177,0.339-0.421,0.384L54.95,130.876z"/>
	<path d="M97.938,156.381C97.853,156.352,97.959,156.389,97.938,156.381L97.938,156.381z"/>
	<path d="M78.78,151.639c0,0.92,0.509,1.714,1.256,2.14c0.348-0.058,0.705,0.024,1.041,0.315c0.06,0.004,0.117,0.018,0.178,0.018
		c0.037,0,0.072-0.01,0.109-0.011c0.146-0.188,0.235-0.434,0.631-0.374c-0.005,0.107,0.006,0.179,0.016,0.255
		c0.994-0.321,1.718-1.242,1.718-2.343c0-1.149-0.786-2.105-1.847-2.384c-0.258,0.23-0.587,0.112-0.938-0.059
		C79.726,149.35,78.78,150.378,78.78,151.639z"/>
	<path d="M87.628,151.639c0-3.516-2.858-6.375-6.374-6.375c-3.515,0-6.375,2.86-6.375,6.375c0,1.104,0.283,2.145,0.78,3.051
		c0.083-0.199,0.213-0.351,0.43-0.416c-0.406-0.792-0.639-1.686-0.639-2.635c0-1.563,0.624-2.982,1.633-4.027
		c-0.062,0.002-0.111,0.009-0.179,0.007c-0.636-0.187,0.012-0.25,0.444-0.262c0.074-0.068,0.146-0.138,0.223-0.202
		c-0.055-0.037-0.115-0.063-0.158-0.045c-0.193,0.082-0.185-0.335,0.254-0.253c0.082,0.015,0.152,0.039,0.211,0.069
		c0.952-0.684,2.116-1.092,3.375-1.092c3.2,0,5.804,2.604,5.804,5.805c0,3.199-2.604,5.803-5.804,5.803
		c-2.108,0-3.952-1.134-4.969-2.82c-0.139,0.1-0.366,0.11-0.594,0.12c0.773,1.38,2.044,2.442,3.568,2.946
		c0.13-0.151,0.45-0.112,0.699-0.145c-0.026,0.187-0.203,0.221-0.402,0.232c0.541,0.149,1.109,0.236,1.697,0.236
		C84.77,158.012,87.628,155.152,87.628,151.639z"/>
	<circle cx="75.098" cy="120.353" r="0.602"/>
	<path d="M80.887,268.372c0.044,5.754,0.082,10.769,0.113,14.898c0.063,8.261,0.098,7.268,0.098,7.268s0.036,0.993,0.099-7.268
		c0.031-4.13,0.069-9.145,0.112-14.898c0.02-2.611,0.041-5.384,0.063-8.288c-0.132,0-0.264,0-0.396,0c0-0.17,0-0.339,0-0.509
		c0.133,0,0.267,0,0.399,0c0.001-0.124,0.002-0.243,0.003-0.367c0.002-3.227,0.004-6.618,0.006-10.159c0-18.602,0-6.259,0-30.332
		l0.09-0.002l0.097,0.005l-0.049-0.005l0.049-0.002l0.836-7.763c-0.134,0.012-0.283,0.009-0.412,0.026
		c0.026-0.195,0.221-0.224,0.435-0.233l2.859-26.535c-0.181-0.04-0.364-0.103-0.24-0.202c0.059-0.047,0.156-0.036,0.262-0.002
		l0.584-5.423c-0.605,0.503-0.618-0.884,0.171-0.173c-0.019,0.022-0.035,0.037-0.053,0.057c0.14,0.124,0.328,0.189,0.526,0.152
		c0.345-0.063,0.572-0.395,0.509-0.738c-0.063-0.346-0.395-0.572-0.739-0.507c-0.119,0.021-0.217,0.083-0.301,0.159l0.503-4.67
		l-0.157-0.143c-0.363,0.242-0.934,0.578-1.305,0.6c-0.111,0.007-0.444-0.491-0.51-0.508c-0.026-0.007-0.055-0.005-0.082-0.008
		l-0.272,0.018c-0.362,0.083-0.705,0.304-0.669,0.044l-0.776,0.051c0.027,0.169-0.023,0.338-0.236,0.403
		c-0.093,0.029-0.365-0.184-0.471-0.357l-0.647,0.042c0-0.74,0-1.48,0-2.22c0.61-0.005,1.222-0.051,1.821-0.16l2.305,2.1
		c0.208-0.075,0.406-0.172,0.62-0.207l-2.247-2.047c0.824-0.227,2.365-0.819,2.185-1.94c-0.183-1.14-1.739-1.582-2.681-1.774
		c-0.052-0.597-0.092-1.193-0.122-1.791c-0.04-0.785-0.144-1.619,0.097-2.381c0.25-0.794,0.738-1.547,1.299-2.177
		c3.455,8.553,6.824,16.892,9.839,24.354c0.293-0.127,1.17,0.614,0.472,0.265c-0.022-0.011-0.245-0.037-0.4-0.088
		c1.417,3.509,2.756,6.823,3.986,9.869c0.591,1.45,1.136,2.849,1.688,4.164c0.558,1.313,1.086,2.561,1.582,3.731
		c0.979,2.307,1.831,4.318,2.539,5.986c0.071,0,0.143,0,0.213,0c-0.654-1.704-1.449-3.771-2.361-6.144
		c-0.456-1.188-0.941-2.452-1.453-3.784c-0.19-0.492-0.397-1.001-0.603-1.509c-0.535,0.072-0.75-0.175-0.612-0.777
		c0.101,0,0.2,0,0.3,0c-0.251-0.616-0.506-1.24-0.764-1.882c-3.857-9.55-8.773-21.718-13.876-34.349
		c0.749,0.059,1.515,0.228,2.183,0.544c0.723,0.342,1.226,0.955,1.756,1.535c0.057,0.063,0.11,0.128,0.167,0.19
		c0.351-0.265,0.945-0.256,0.82,0.375c-0.462-0.16-0.593-0.183-0.618-0.143c0.319,0.357,0.64,0.716,0.948,1.083
		c-0.506,0.771-1.196,2.01-0.732,2.95c0.553,1.152,2.222,0.46,3.006,0.017l-0.056,1.183c0.168,0,0.338,0,0.506,0
		c0,0.17,0,0.339,0,0.508c-0.169,0-0.34,0-0.509,0c0-0.145,0-0.29,0-0.436l-0.107,2.301l3.233,2.604
		c0.098-0.097,0.26-0.128,0.437-0.144c-1.128-0.673,0.579-0.693,0.254,0.508c-0.079,0-0.159,0-0.238,0l32.214,25.948l0.135-0.122
		l-0.11,0.142l0.326-0.34l0.071-0.064l-0.038,0.031l0.033-0.035l-0.176-0.219c-0.13,0.024-0.262,0.009-0.411-0.15
		c-0.008-0.075,0.054-0.136,0.139-0.188l-3.252-4.036c-0.11,0.142-0.373,0.132-0.611,0.146l2.218,2.753l-0.003-0.002L96.777,167.16
		l3.042-3.462l7.206,8.945c0.191-0.13,0.62-0.123,0.764,0.039l-7.517-9.332c0,0.115-0.06,0.227-0.214,0.3
		c-0.276-0.063-0.171-0.507-0.509-0.509c0.024-0.075,0.06-0.124,0.098-0.164l-3.236,0.151c0.423-0.744,1.094-2.253,0.173-2.918
		c-0.936-0.676-2.349,0.111-3.149,0.642c-0.459-0.386-0.91-0.779-1.354-1.181c-0.584-0.526-1.246-1.042-1.616-1.751
		c-0.103-0.197-0.171-0.416-0.247-0.63c-0.025,0.001-0.06-0.005-0.082-0.002c0.014-0.028,0.039-0.041,0.057-0.064
		c-0.143-0.418-0.256-0.851-0.311-1.292c0.16,0.068,0.319,0.136,0.479,0.204c-0.178-0.226-0.102-0.676,0.538-0.12
		c-0.106,0.146-0.206,0.208-0.295,0.223c12.209,5.183,23.93,10.158,33.178,14.085c1.442,0.607,2.816,1.212,4.138,1.75
		c1.323,0.535,2.578,1.043,3.758,1.521c2.359,0.954,4.415,1.786,6.108,2.471c3.388,1.37,5.323,2.153,5.323,2.153
		s-1.908-0.849-5.246-2.334c-0.183-0.081-0.385-0.172-0.576-0.256c-0.103-0.006-0.201-0.01-0.334-0.02
		c-0.488-0.036-0.532-0.176-0.763-0.256c-0.497-0.171-0.225-0.172,0.235-0.108c-1.355-0.603-2.889-1.284-4.584-2.038
		c-1.162-0.518-2.398-1.068-3.703-1.647c-0.978-0.433-2.013-0.866-3.07-1.312c-0.106,0.008-0.219,0.011-0.327,0.018
		c0.017-0.048,0.041-0.087,0.063-0.13c-0.269-0.113-0.528-0.222-0.8-0.338c-8.025-3.406-17.917-7.605-28.373-12.044
		c0.165,0.357-0.596,0.924-0.412-0.175c-1.782-0.757-3.579-1.52-5.387-2.287c-0.001-0.018-0.002-0.036-0.003-0.054
		c0.005-0.013,0.011-0.027,0.016-0.041c0.55-0.52,1.211-0.973,1.912-1.273c-0.077-0.105-0.169-0.196-0.35-0.197
		c0.063-0.275,0.505-0.173,0.509-0.51c0.206,0.102,0.329,0.285,0.407,0.513c0.668-0.168,1.36-0.118,2.049-0.086
		c0.667,0.031,1.332,0.075,1.997,0.133c0.188,0.903,0.575,2.267,1.568,2.604c1.115,0.393,1.785-1.001,2.069-1.901
		c-0.66-0.165-0.625,0.366-1.222,0.265c-0.093-0.434,0.199-0.48,0.51-0.509c-0.306-0.335-0.1-0.4,0-0.764
		c0.343,0.204,0.723,0.372,0.748,0.894c0.009-0.032,0.022-0.068,0.03-0.099l2.397,2.632l45.833-4.938l0.008-0.182l0.023,0.18
		l-0.01-0.472l0.004-0.096l-0.004,0.049l-0.002-0.049l-2.716-0.293c-0.001,0.028,0.001,0.054-0.004,0.083
		c1.538,0.143-0.059,0.384-0.444-0.131l-1.919-0.207c0.073,0.149,0.108,0.336,0.329,0.337c-0.022,0.141-0.07,0.213-0.126,0.255
		l2.201,0.237l-0.002,0.002l-16.94-0.002c0.057,0.155,0.094,0.33,0.108,0.527c-0.301-0.042-0.449-0.235-0.499-0.527l-25.123-0.004
		l-0.297-4.599l40.308,4.339c-0.14-0.112-0.244-0.351-0.188-0.591l-4.537-0.489c0.068,0.047,0.151,0.098,0.261,0.088
		c-0.063,0.32-0.506,0.257-0.51,0c0.016-0.051,0.031-0.084,0.047-0.11l-34.397-3.705c-0.13,0.103-0.243,0.049-0.33-0.036
		l-1.073-0.116l-2.392,2.627c-0.228-0.825-0.819-2.366-1.941-2.186c-1.139,0.183-1.581,1.739-1.774,2.681
		c-0.597,0.052-1.193,0.092-1.791,0.123c-0.382,0.02-0.774,0.053-1.165,0.056c-0.106,0.359-0.453,0.476-0.983,0.411
		c0.111-0.226,0.319-0.354,0.58-0.429c-0.275-0.018-0.548-0.051-0.812-0.134c-0.552-0.175-1.083-0.469-1.57-0.815
		c0.72-0.291,1.438-0.581,2.154-0.87c-0.032-0.014-0.053-0.02-0.097-0.042c-0.04-0.019-0.72-0.085-0.509-0.254
		c0.151-0.121,0.551,0.116,0.705,0.255c4.531-1.831,8.979-3.627,13.244-5.351c-0.192-0.067-0.443-0.331-0.757-0.31
		c-4.903,1.981-10.038,4.056-15.26,6.165c-0.074-0.064-0.147-0.127-0.22-0.193c-0.019-0.045-0.031-0.093-0.051-0.137
		c0.031-0.841,0.204-1.724,0.563-2.481c0.342-0.722,0.955-1.226,1.536-1.755c0.492-0.449,0.994-0.888,1.505-1.318
		c0.771,0.506,2.01,1.196,2.951,0.732c1.151-0.553,0.459-2.221,0.015-3.006l3.557,0.167l8.151-10.119
		c-0.083-0.085-0.142-0.192-0.165-0.206c-0.691-0.401-0.064-0.179,0.302,0.036l18.088-22.456c-0.11,0.011-0.219,0.021-0.322,0.028
		c0.177-0.178,0.4-0.308,0.64-0.423l2.224-2.76l-0.122-0.135l0.143,0.11l-0.34-0.326l-0.064-0.071l0.031,0.038l-0.036-0.034
		l-5.127,4.13c0.233,0.056,0.383,0.212,0.106,0.489c0.06-0.059-0.227-0.145-0.466-0.2l-30.429,24.511l0.166,3.549
		c-0.743-0.422-2.252-1.094-2.918-0.173c-0.676,0.935,0.112,2.348,0.642,3.15c-0.386,0.458-0.778,0.909-1.18,1.353
		c-0.151,0.167-0.303,0.339-0.456,0.511c0.08,0.035,0.189,0.085,0.291,0.121c-0.019,0.461-0.489,0.567-0.877,0.467
		c-0.219,0.197-0.448,0.38-0.71,0.516c-0.532,0.277-1.139,0.448-1.75,0.545c1.708-4.024,3.393-7.992,5.025-11.838
		c-0.139,0.127-0.405,0.127-0.673,0.126c-1.627,3.832-3.304,7.782-5.003,11.785c-0.078,0.006-0.156,0.011-0.233,0.015
		c-0.036-0.015-0.076-0.026-0.112-0.042c-0.324-0.345-0.619-0.734-0.871-1.146c-0.038-0.023-0.059-0.055-0.055-0.094
		c-0.177-0.301-0.335-0.61-0.449-0.931c-0.27-0.753-0.191-1.543-0.156-2.327c0.031-0.667,0.076-1.332,0.133-1.997
		c0.555-0.115,1.281-0.307,1.839-0.667c0.004-0.067,0.026-0.152,0.075-0.264c0.115-0.027,0.21-0.033,0.295-0.03
		c0.176-0.173,0.316-0.372,0.396-0.607c0.423-1.206-1.246-1.896-2.115-2.136l0.889-0.81c-1.013-0.723,0.453-1.027,1.105-1.007
		l0.639-0.582l-0.629-5.834c-0.16,0.055-0.39,0.04-0.58,0.065c0.032-0.234,0.302-0.234,0.562-0.242l-0.435-4.034
		c-0.189,0.199-0.458,0.411-0.127-0.049c0.055-0.04,0.077-0.05,0.113-0.073l-1.005-9.33c-0.025,0.01-0.032-0.004-0.006-0.057
		l-0.6-5.561c-0.009,0.002-0.02,0.004-0.029,0.007c0.002-0.026,0.02-0.037,0.024-0.061l-1.613-14.974
		c-0.097-0.087-0.165-0.216-0.191-0.23c-0.61-0.354-0.195-0.224,0.162-0.042l-0.584-5.417l-0.182-0.008l0.179-0.023l-0.186,0.003
		c0-0.724,0-1.428,0-2.142c-0.053-0.003-0.098,0.001-0.154-0.005c0.04-0.081,0.093-0.147,0.154-0.207c0-2.002,0-3.979,0-5.897
		c-0.001-3.305-0.001-6.477-0.001-9.51c-0.133,0.086-0.364,0.073-0.569,0.086c0,3.007-0.001,6.149-0.001,9.423
		c0,3.218,0,6.564,0,10.013l-0.678,6.295c0.15-0.133,0.358-0.208,0.599-0.248l0.08-0.738c0,0.24,0,0.487,0,0.728
		c0.055-0.007,0.105-0.019,0.163-0.022c-0.02,0.144-0.083,0.244-0.163,0.326c0,1.423,0,2.86,0,4.313
		c0.129,0.076,0.222,0.187,0.417,0.195c-0.048,0.207-0.254,0.254-0.254,0.509c-0.054,0-0.109,0-0.163,0c0,2.687,0,5.417,0,8.198
		c0.203-0.094,0.465-0.142,0.673-0.055c-0.046,0.288-0.482,0.183-0.673,0.325c0,3.997,0,8.086,0,12.25
		c0.147-0.128,0.415-0.054,0.417,0.147c-0.1,0.328-0.198,0.056-0.417,0.007c0,3.675,0,7.401,0,11.182l-4.131,0.267l0.613-5.691
		c-0.116,0.013-0.241,0.036-0.39,0.087c0.074-0.168,0.233-0.299,0.422-0.384l1.958-18.19c-0.03,0-0.06,0-0.089,0
		c0-0.169,0-0.34,0-0.51c0.048,0,0.096,0,0.145,0l0.058-0.537c-0.144,0.018-0.314,0.01-0.458,0.029
		c0.029-0.21,0.249-0.229,0.48-0.237l1.271-11.806c-0.145,0.079-0.344,0.103-0.582,0.089l-1.889,17.538
		c0.064,0.011,0.126,0.024,0.211,0.014c0.023,0.128-0.088,0.215-0.241,0.264l-1.513,14.041c0.015-0.081,0.014-0.166-0.005-0.251
		c-0.076-0.342-0.415-0.558-0.757-0.481c-0.341,0.075-0.558,0.414-0.482,0.756c0.076,0.341,0.416,0.558,0.755,0.481
		c0.258-0.056,0.443-0.26,0.488-0.503l-0.615,5.712l0.874,0.796c0.099-0.346,0.403-0.299,0.652-0.179l-0.314-0.286
		c-0.038,0.002-0.079,0.002-0.114,0.007c0.004-0.034,0.029-0.048,0.042-0.072l-0.151-0.138l3.762-0.245c0,0.735,0,1.472,0,2.21
		c-0.485,0.019-0.969,0.058-1.446,0.145l-1.446-1.317c-0.079,0.055-0.403,0.04-0.735,0.104l1.503,1.369
		c-0.824,0.227-2.365,0.819-2.185,1.94c0.183,1.14,1.739,1.582,2.681,1.775c0.052,0.596,0.092,1.193,0.123,1.791
		c0.04,0.785,0.144,1.618-0.097,2.38c-0.218,0.693-0.616,1.358-1.086,1.936c-4.948-12.247-9.695-23.999-13.444-33.278
		c-0.047-0.116-0.091-0.226-0.138-0.341c-0.052-0.004-0.101-0.042-0.105-0.141c-0.792-0.325-0.682-0.604-0.12-0.417
		c-0.455-1.125-0.899-2.223-1.321-3.267c-0.557-1.314-1.086-2.56-1.583-3.731c-0.184-0.434-0.359-0.845-0.534-1.258
		c-0.131-0.05-0.165-0.123-0.077-0.182c-0.74-1.744-1.4-3.301-1.963-4.626c-1.428-3.364-2.243-5.286-2.243-5.286
		s0.748,1.949,2.058,5.36c0.655,1.705,1.45,3.776,2.362,6.152c0.301,0.783,0.618,1.61,0.943,2.458
		c0.137-0.022,0.291-0.028,0.441-0.038c-0.062,0.172-0.159,0.308-0.303,0.398c0.124,0.322,0.244,0.636,0.371,0.966
		c0.534,1.323,1.096,2.714,1.682,4.167c0.509,1.261,1.038,2.57,1.583,3.917c0.13,0.105,0.218,0.253,0.23,0.476
		c-0.011,0.005-0.022,0.007-0.034,0.012c0.099,0.243,0.196,0.485,0.296,0.731c0.246,0.065,0.418,0.23,0.247,0.528
		c-0.014,0.001-0.022-0.004-0.035-0.004c2.781,6.884,5.949,14.726,9.256,22.912c0.065,0,0.133,0.001,0.193-0.005
		c-0.042,0.063-0.076,0.134-0.113,0.203c0.631,1.563,1.267,3.137,1.907,4.72c-0.847-0.029-1.738-0.203-2.502-0.563
		c-0.722-0.342-1.226-0.956-1.755-1.536c-0.45-0.492-0.889-0.995-1.318-1.505c0.506-0.771,1.196-2.01,0.733-2.952
		c-0.553-1.151-2.221-0.459-3.006-0.014l0.166-3.557l-2.844-2.291c-0.144,0.123-0.447,0.085-0.681,0.116
		c0.03-0.226,0.278-0.233,0.527-0.24l-5.271-4.246c-1.33,0.736-2.119-0.342-0.6-0.349c0.133-0.001,0.273,0.149,0.449,0.227
		l-27.479-22.135l-0.134,0.123l0.11-0.143l-0.326,0.34l-0.071,0.064l0.037-0.03l-0.032,0.034l15.52,19.268
		c0.077-0.011,0.155-0.019,0.222-0.039c-0.01-0.184,0.012-0.398,0.006-0.585l-1.738-2.158c-0.162-0.038-0.303-0.063-0.302-0.056
		c-0.014-0.078,0.039-0.134,0.114-0.178l-11.729-14.558l0.003,0.002l20.777,20.781c0.233-0.251,0.209-0.104,0.104,0.104l9.135,9.136
		l-3.042,3.463l-5.146-6.388c-0.2,0.085-0.398,0.145-0.596,0.169l4.686,5.817c0.104,0.043,0.148,0.099,0.136,0.169l0.779,0.967
		l3.453-0.162c0.157-0.229,0.478-0.294,0.917-0.24c-0.161,0.328-0.517,0.461-0.963,0.502c-0.406,0.794-0.852,2.057-0.03,2.651
		c0.936,0.677,2.348-0.111,3.149-0.641c0.458,0.385,0.91,0.779,1.354,1.18c0.583,0.527,1.246,1.042,1.614,1.752
		c0.26,0.498,0.423,1.061,0.522,1.631c0.088-0.177,0.287-0.244,0.523-0.272c-0.165-0.858-0.462-1.714-1.041-2.36
		c-0.741-0.83-1.643-1.552-2.49-2.271c0.404-0.305,0.784-0.642,1.141-1l4.004,4.005c-0.472,0.479-0.874,1.021-1.234,1.592
		c0.225-0.018,0.439-0.046,0.574-0.154c-0.591,0.687-0.594,0.614-1.427,0.747c0.03,0.229,0.049,0.459,0.058,0.686
		c-1.378-0.585-2.749-1.167-4.111-1.745c-0.036,0.161-0.357,0.298-1.135,0.057c0.238-0.176,0.439-0.246,0.616-0.278
		c-3.652-1.55-7.235-3.071-10.697-4.541c-0.094,0.145-0.213,0.311-0.338,0.476c4.897,2.079,10.04,4.262,15.275,6.484
		c-0.546,0.448-1.169,0.831-1.819,1.064c-0.753,0.269-1.543,0.191-2.328,0.155c-0.667-0.03-1.332-0.075-1.997-0.132
		c-0.187-0.903-0.575-2.268-1.569-2.604c-1.205-0.424-1.895,1.245-2.136,2.115l-2.397-2.633l-23.078,2.486
		c0.18,0.122,0.145,0.46,0.444,0.462c0.046,0.216-0.1,0.24-0.255,0.255c-0.17,0-0.339,0-0.509,0c0.127-0.191,0.24-0.396,0.246-0.709
		l-6.122,0.66c0.006,0.018,0.023,0.029,0.023,0.05c-0.225,0.157-0.453,0.306-0.507,0.002l-16.075,1.731l-0.009,0.182l-0.022-0.178
		l0.01,0.471l-0.004,0.096l0.004-0.048l0.002,0.048l4.462,0.48c0.511-0.121,1.034-0.158,1.453,0.015
		c0.07,0.028,0.05,0.087-0.001,0.142l3.516,0.379c0.096-0.066,0.337-0.098,0.811-0.012c-0.025,0.035-0.053,0.063-0.08,0.091
		l0.746,0.08c0.19-0.096,0.287-0.112,0.161,0.018l2.245,0.242c-0.08-0.088-0.103-0.225-0.018-0.431c0.205,0.177,0.697,0.396,0.763,0
		c0.518,0.168,0.297,0.404-0.044,0.506l10.292,1.109c-0.049-0.088-0.084-0.191-0.07-0.343c0.249,0.259,0.738,0.311,1.13,0.457
		l11.466,1.235c-0.063-0.076-0.108-0.154-0.128-0.166c-0.897-0.52,0.417,0.005,0.512,0.207l4.105,0.442
		c-0.288,0.106-0.469,0.399-0.406,0.71c0.068,0.344,0.403,0.564,0.746,0.496c0.344-0.07,0.567-0.404,0.497-0.746
		c-0.034-0.17-0.133-0.309-0.264-0.398l3.958,0.426l2.357-2.587c-0.029-0.1-0.06-0.197-0.055-0.33
		c0.182,0.119,0.381,0.222,0.667,0.238c-0.051-0.192-0.087-0.357-0.116-0.496c-0.014,0.002-0.029,0.001-0.042,0.003
		c0.003-0.024,0.023-0.033,0.031-0.054c-0.003-0.016-0.008-0.039-0.011-0.054l-0.049-0.24c-0.096-0.559-0.137-1.127-0.137-1.694
		h0.864c-0.165-0.538-0.478-1.223,0.573-1.012c-0.388,0.979-0.247,0.504,0.51,0.256c-0.016,0.337-0.121,0.586-0.305,0.756h1.451
		c0,0.542-0.04,1.085-0.126,1.62l-0.028,0.154c-0.113,0.63-0.474,2.439-1.393,2.438c-0.576-0.001-0.926-0.721-1.136-1.386
		c-0.087,0.187-0.363,0.186-0.463,0.359c0.307,0.804,0.858,1.728,1.741,1.586c0.835-0.135,1.293-1.004,1.555-1.829
		c-0.229,0.098-0.474,0.036-0.023-0.139c-0.261-0.482-0.254-0.52,0.15-0.307c0.036-0.144,0.067-0.28,0.092-0.406
		c0.597-0.052,1.194-0.093,1.792-0.122c0.785-0.04,1.618-0.145,2.38,0.096c0.423,0.134,0.835,0.335,1.224,0.578
		c0.256,0.095,0.509,0.176,0.722,0.161c-0.043,0.065-0.149,0.111-0.288,0.141c0.249,0.184,0.489,0.377,0.707,0.584
		c-0.001,0.061-0.008,0.122-0.011,0.184c-0.41,0.166-0.818,0.331-1.228,0.496c0.076,0.051,0.173,0.136,0.311,0.123
		c-0.063,0.32-0.505,0.257-0.509,0c0.007-0.022,0.014-0.034,0.021-0.052c-0.247,0.1-0.494,0.199-0.74,0.299
		c0.114,0.166,0.196,0.342,0.21,0.517c-0.483,0.069-0.812-0.016-1.075-0.167c-2.912,1.176-5.79,2.339-8.603,3.475
		c0.002,0,0.005,0,0.008,0c-0.035,0.252-0.339,0.233-0.614,0.245c-1.474,0.596-2.928,1.184-4.362,1.763
		c0.042,0.014,0.09,0.022,0.141,0.027c-0.062,0.275-0.25,0.07-0.381,0.069c-0.021,0.008-0.041,0.017-0.061,0.024
		c-0.03,0.025-0.055,0.068-0.067,0.161c-0.056-0.013-0.088-0.049-0.12-0.086c-1.305,0.527-2.59,1.047-3.854,1.558
		c0.338-0.02,0.694,0.068,0.721,0.324c2.282-0.922,4.633-1.872,7.035-2.842c-0.154-0.117-0.169-0.177,0.035-0.227
		c-0.016,0.004,0.523-0.197,0.604-0.032c4.044-1.634,8.224-3.322,12.466-5.036c-0.045,0.325-0.117,0.646-0.208,0.96
		c0.01,0.066-0.015,0.126-0.066,0.179c-0.067,0.206-0.132,0.413-0.223,0.605c-0.342,0.724-0.955,1.227-1.536,1.756
		c-0.492,0.449-0.994,0.889-1.505,1.318c-0.772-0.507-2.011-1.196-2.951-0.732c-1.152,0.553-0.46,2.221-0.015,3.006l-3.557-0.166
		l-2.559,3.176c-0.011-0.02-0.013-0.042-0.025-0.062c-0.197-0.29-0.591-0.365-0.881-0.168c-0.29,0.197-0.364,0.592-0.167,0.882
		c0.017,0.024,0.041,0.039,0.06,0.06c0.012-0.047,0.019-0.092,0.054-0.146c0.411-0.073,0.438,0.24,0.763,0.253
		c0.062,0.303-0.388,0.372-0.654,0.237l-3.274,4.064c0.062,0.157,0.019,0.245-0.087,0.108l-22.146,27.494l0.122,0.136l-0.143-0.11
		l0.34,0.326l0.064,0.07l-0.031-0.038l0.035,0.034l17.325-13.955c-0.069-0.021-0.138-0.042-0.203-0.047
		c0.094-0.11,0.237-0.139,0.409-0.119l18.384-14.809l-0.166-3.55c0.743,0.423,2.252,1.093,2.917,0.173
		c0.677-0.935-0.112-2.348-0.641-3.149c0.385-0.458,0.778-0.91,1.18-1.354c0.527-0.583,1.042-1.245,1.751-1.614
		c0.812-0.424,1.792-0.615,2.707-0.638c0.028,0.029,0.054,0.062,0.082,0.093c-5.303,12.493-10.41,24.521-14.42,33.968
		c-0.611,1.441-1.197,2.822-1.754,4.137c-0.021,0.051-0.04,0.098-0.06,0.148c0.159-0.043,0.373-0.031,0.551-0.055
		c-0.034,0.256-0.35,0.233-0.629,0.247c-0.483,1.194-0.946,2.341-1.381,3.417c-0.954,2.359-1.785,4.416-2.47,6.109
		c-0.843,2.085-1.461,3.615-1.813,4.487c0.012-0.001,0.023-0.002,0.035-0.003c0.384-0.861,1.052-2.361,1.962-4.406
		c0.743-1.669,1.645-3.695,2.68-6.021c0.517-1.162,1.068-2.399,1.648-3.703c0.558-1.313,1.145-2.694,1.757-4.136
		c1.641-3.865,3.467-8.167,5.413-12.751c-0.025-0.012-0.038-0.028-0.077-0.035c0.021-0.229,0.083-0.25,0.177-0.201
		c2.749-6.476,5.736-13.513,8.793-20.714c0.315,0.41,0.573,0.861,0.777,1.328c0.395-0.174,0.875-0.263,1.193-0.513
		c0.289,0.047,0.141,0.254,0,0.254c-0.095,0.433,0.199,0.479,0.509,0.509c-0.07,0.6-0.948-0.023-1.019-0.255
		c-0.229,0.051-0.384,0.177-0.551,0.291c0.003,0.007,0.007,0.014,0.01,0.021c0.27,0.752,0.192,1.542,0.155,2.326
		c-0.031,0.667-0.075,1.332-0.132,1.997c-0.903,0.188-2.268,0.575-2.604,1.568c-0.166,0.471-0.008,0.86,0.292,1.177
		c0.405-0.185,1.249,0.25,1.559,0.253c-0.063,0.32-0.506,0.256-0.509,0c-0.289-0.152-0.502-0.069-0.671,0.063
		c0.46,0.315,1.037,0.53,1.443,0.643l-2.632,2.398l2.731,25.35c0.191-0.156,0.43-0.254,0.656-0.212
		c0.122,0.555-0.33,0.537-0.604,0.694l0.18,1.672c0.174,0.164,0.146,0.277,0.037,0.341l1.75,16.248c0,7.868,0,12.043,0,14.701
		c0.136,0.065,0.254,0.148,0.417,0.186c0.032,0.175-0.176,0.279-0.417,0.305c0,5.141,0,4.298,0,16.903
		c0.002,3.541,0.004,6.933,0.006,10.159C80.842,262.436,80.866,265.497,80.887,268.372z M147.132,151.436
		c0.256-0.205,1.232,0.618,0.508,0.255C147.601,151.672,146.919,151.606,147.132,151.436z M144.078,151.436
		c0.04-0.297,0.464-0.214,0.763-0.254C144.801,151.48,144.378,151.396,144.078,151.436z M126.521,153.472
		c0.071-0.019,0.19,0.033,0.255,0c0.386-0.193,0.188,0.159,0,0.255C126.435,153.897,126.206,153.557,126.521,153.472z
		 M118.634,151.944C119.874,152.465,119.073,153.654,118.634,151.944L118.634,151.944z M117.615,154.489
		c-0.037,0.557-0.641,0.547-1.272,0.509C116.082,154.143,117.136,154.603,117.615,154.489z M104.64,154.744c0.169,0,0.339,0,0.508,0
		c0,0.17,0,0.339,0,0.51c-0.169,0-0.339,0-0.508,0C104.64,155.083,104.64,154.914,104.64,154.744z M99.042,155.762
		c-0.049,0.289-0.256,0.142-0.256,0c-0.334,0.305-0.399,0.099-0.763,0c0.063-0.275,0.506-0.172,0.509-0.508
		C98.809,155.317,98.706,155.759,99.042,155.762z M98.786,153.217c0.299-0.806,1.299-0.906,2.036-1.272
		c0.783-0.557-0.156,0.571-0.266,0.583c0.009,0.115,0.153,0.219,0.234,0.199C100.608,152.813,99.635,153.123,98.786,153.217z
		 M100.313,153.217c0.457-0.032,0.537,0.312,1.019,0.255C101.412,153.921,99.907,153.927,100.313,153.217z M103.112,152.201
		c-0.063,0.319-0.505,0.256-0.508,0C102.716,151.829,102.826,152.226,103.112,152.201z M100.327,150.468
		c-0.025-0.238-0.05-0.476-0.093-0.712l2.11-2.316l0.275,4.23h-2.223c0-0.252-0.014-0.504-0.03-0.756
		c-0.184,0.008-0.39-0.006-0.563,0.015C99.847,150.581,100.077,150.458,100.327,150.468z M96.751,148.383
		c0.058-0.249,0.366-0.247,0.677-0.244c0.209-0.39,0.484-0.686,0.853-0.686c0.88,0,1.241,1.683,1.36,2.279l0.05,0.239
		c0.096,0.559,0.137,1.128,0.137,1.694h-3.093c0-0.542,0.04-1.085,0.126-1.622l0.029-0.152c0.051-0.286,0.157-0.813,0.34-1.305
		C97.061,148.575,96.886,148.514,96.751,148.383z M92.896,150.311c1.111,0.062,2.261-0.063,3.368-0.153
		c-0.07,0.5-0.102,1.007-0.102,1.513l-5.604-0.001c0-0.01,0.002-0.019,0.002-0.029c0-0.847-0.124-1.664-0.34-2.444
		C91.007,149.771,91.923,150.257,92.896,150.311z M85.301,133.88C84.48,134.658,83.398,133.575,85.301,133.88L85.301,133.88z
		 M85.048,128.536C84.275,129.477,84.19,127.764,85.048,128.536L85.048,128.536z M34.921,105.891
		C35.692,104.95,35.779,106.664,34.921,105.891L34.921,105.891z M44.591,114.033c0.04-0.298,0.463-0.214,0.763-0.254
		C45.313,114.077,44.89,113.993,44.591,114.033z M51.46,119.63C50.791,120.561,49.986,119.755,51.46,119.63L51.46,119.63z
		 M54.259,123.702c-0.662,0.153-0.916-0.101-0.764-0.764c0.256,0,0.51,0,0.764,0C54.259,123.193,54.259,123.447,54.259,123.702z
		 M54.514,124.465c0.042-0.299,0.463-0.214,0.763-0.254C55.236,124.51,54.813,124.425,54.514,124.465z M55.531,124.21
		c0.041-0.298,0.464-0.214,0.763-0.254C56.253,124.254,55.83,124.17,55.531,124.21z M56.804,125.737c0.112-0.37,0.223,0.026,0.509,0
		C57.25,126.058,56.806,125.994,56.804,125.737z M58.584,126.755c0.027-0.647,0.95-0.601,1.272-0.254
		C59.475,127.046,59.235,126.319,58.584,126.755z M59.349,128.791c0.041-0.299,0.463-0.215,0.763-0.255
		C60.07,128.835,59.647,128.751,59.349,128.791z M66.727,133.372C66.167,134.149,65.098,133.077,66.727,133.372L66.727,133.372z
		 M66.53,139.634l-3.13,0.145l1.165-1.328c-0.043,0.002-0.088,0.002-0.128,0.008c0.022-0.16,0.156-0.208,0.32-0.226l1.439-1.64
		l1.571,1.571C67.315,138.619,66.896,139.107,66.53,139.634z M69.12,141.815l-0.127,0.089c-0.526,0.365-2.06,1.39-2.71,0.74
		c-0.621-0.622,0.313-2.067,0.65-2.573l0.135-0.203c0.328-0.464,0.7-0.894,1.102-1.295l2.187,2.186
		C69.972,141.142,69.561,141.497,69.12,141.815z M70.798,139.223c-0.557-0.112,0.482-1.123,0.763-0.509
		C71.503,139.08,70.802,138.803,70.798,139.223z M60.621,149.146c-0.141,0.007-0.343-0.091-0.254-0.255
		C60.808,148.072,61.408,149.111,60.621,149.146z M58.076,146.857c0.07-0.02,0.189,0.032,0.254,0c0.388-0.193,0.189,0.159,0,0.253
		C57.989,147.282,57.761,146.94,58.076,146.857z M55.531,147.619C54.888,146.699,56.746,147.627,55.531,147.619L55.531,147.619z
		 M48.916,149.655c0.919,0.574,0.151,1.343-0.764,0.763C48.075,149.832,48.888,150.136,48.916,149.655z M46.625,149.909
		C45.582,149.731,45.93,149.499,46.625,149.909L46.625,149.909z M43.572,150.418c-0.225,0.157-0.455,0.308-0.509,0
		C43.127,150.099,43.569,150.162,43.572,150.418z M36.702,151.182c-0.679-0.703-0.552,0.3-1.271,0.254
		c-0.511-0.518,0.113-0.5,0.254-1.017C36.171,150.525,36.779,150.51,36.702,151.182z M36.448,149.909
		c-0.719,0.21-0.659-0.358-1.272-0.254C35.131,149.241,36.841,149.142,36.448,149.909z M33.648,150.418
		C34.57,149.774,33.642,151.633,33.648,150.418L33.648,150.418z M26.525,150.929c-0.042,0.298-0.465,0.215-0.764,0.253
		C25.803,150.883,26.225,150.967,26.525,150.929z M24.234,150.672c0.144,0.019,1.338-0.365,1.272,0.509
		c-0.907-0.228-1.304-0.315-1.527-0.509C23.466,150.23,24.253,150.675,24.234,150.672z M31.197,153.213
		c-0.01-0.001-0.02-0.002-0.029-0.004l-1.186-0.127c-0.208,0.193-0.383,0.096-0.465-0.051l-4.317-0.465
		c-0.248,0.064-0.487,0.118-0.712,0.142c-0.206,0.022-0.181-0.088-0.006-0.219l-7.557-0.813h0.003h2.188
		c-0.568-0.268,0.284-0.064,0.642,0l3.967,0.001c0-0.165,0-0.331,0-0.495c0.169,0,0.339,0,0.509,0c0,0.164,0,0.33,0,0.495h3.524
		c-0.125-0.111-0.214-0.26-0.216-0.495c0.338,0.358,1.21,0.184,1.596,0.495l30.244,0.003l0.298,4.6L31.197,153.213z M60.366,147.619
		C59.594,148.561,59.509,146.846,60.366,147.619L60.366,147.619z M60.227,155.91l-0.275-4.229l2.222-0.001
		c0.001,0.643,0.05,1.284,0.164,1.915L60.227,155.91z M85.891,173.281l-3.513,32.627c0.142,0.009,0.276,0.01,0.38-0.021
		c-0.013,0.288-0.187,0.416-0.429,0.475l-0.945,8.777c0-2.896,0-5.812,0-8.74c-0.052-0.001-0.104-0.002-0.154-0.002
		c-0.076-0.289,0.005-0.422,0.154-0.486c0-0.709,0-1.425,0-2.136c-0.29-0.16-0.818-0.081-0.662-0.685
		c0.148,0.169,0.479,0.157,0.662,0.293c0-6.18,0-12.405,0-18.648c-0.05,0-0.102,0.007-0.154,0.034
		c0.01-0.158,0.069-0.242,0.154-0.277c0-1.423,0-2.845,0-4.269c0-2.217,0-4.435,0-6.65L85.891,173.281z M80.467,190.367
		c0.111-0.313,0.326-0.522,0.763-0.51C81.119,190.172,80.905,190.38,80.467,190.367z M85.508,168.67c0,0.88-1.683,1.24-2.278,1.361
		l-0.239,0.048c-0.531,0.091-1.068,0.13-1.606,0.134c0-1.03,0-2.059,0-3.086c0.513,0.004,1.025,0.04,1.532,0.122l0.154,0.028
		C83.699,167.392,85.508,167.752,85.508,168.67z M93.189,167.719c0.041-0.296,0.463-0.212,0.763-0.253
		C93.912,167.765,93.488,167.682,93.189,167.719z M95.225,166.45c-0.17,0-0.34,0-0.508,0c0-0.17,0-0.34,0-0.511
		c0.168,0,0.338,0,0.508,0C95.225,166.11,95.225,166.28,95.225,166.45z M95.479,167.977c-0.21-0.264,0.227-0.46,0.256-0.511
		C96.301,166.487,95.62,168.152,95.479,167.977z M95.734,170.266c0.063-0.319,0.506-0.258,0.509,0
		C96.016,170.423,95.788,170.572,95.734,170.266z M112.78,185.787C114.752,186.283,111.333,186.538,112.78,185.787L112.78,185.787z
		 M109.22,180.698c0.098-0.099-0.766-0.271-0.764-0.256C108.385,180.039,109.831,180.087,109.22,180.698z M104.64,179.171
		c0.169,0,0.339,0,0.508,0c0,0.169,0,0.339,0,0.509c-0.169,0-0.339,0-0.508,0C104.64,179.51,104.64,179.34,104.64,179.171z
		 M98.278,173.318c0.17,0,0.339,0,0.508,0c0,0.169,0,0.339,0,0.508c-0.169,0-0.338,0-0.508,0
		C98.278,173.657,98.278,173.487,98.278,173.318z M97.26,169.757c0.12,0.542-0.363,0.483-0.763,0.509
		C96.607,169.952,96.822,169.744,97.26,169.757z M99.172,163.571l-2.797,3.187l-1.572-1.572c0.454-0.453,0.873-0.942,1.239-1.47
		L99.172,163.571z M93.452,161.535l0.128-0.088c0.524-0.365,2.059-1.389,2.708-0.74c0.622,0.622-0.313,2.067-0.649,2.573
		l-0.135,0.204c-0.327,0.463-0.701,0.894-1.102,1.295l-2.186-2.187C92.599,162.209,93.011,161.853,93.452,161.535z M90.462,158.921
		c0.741,0.828,1.642,1.554,2.489,2.272c-0.403,0.304-0.784,0.641-1.142,0.999l-2.494-2.495c-0.123,0.243-0.329,0.401-0.706,0.391
		c0.095-0.271,0.277-0.454,0.604-0.492l-1.397-1.398c0.599-0.592,1.112-1.266,1.532-2.002
		C89.493,157.172,89.8,158.184,90.462,158.921z M92.425,142.275c0.063-0.319,0.507-0.255,0.51,0
		C92.709,142.433,92.48,142.584,92.425,142.275z M94.207,142.022c0.063-0.319,0.505-0.257,0.51,0
		C94.604,142.393,94.492,141.996,94.207,142.022z M96.751,139.479c0.698-0.607-1.005-1.124-0.254-1.781
		c0.289,0.047,0.142,0.254,0,0.253c0.537,0.228,0.441,1.085,1.272,1.02C97.602,139.31,97.226,139.442,96.751,139.479z
		 M97.77,136.678c0.041-0.298,0.464-0.213,0.763-0.253C98.491,136.722,98.068,136.639,97.77,136.678z M102.858,130.572
		C104.128,129.652,104.509,131.109,102.858,130.572L102.858,130.572z M105.658,131.082c-0.398-0.125-0.615-0.104-1.019-0.255
		C103.961,130.575,105.93,130.363,105.658,131.082z M104.386,129.809c0.062-0.32,0.505-0.256,0.509,0
		C104.781,130.179,104.671,129.783,104.386,129.809z M106.674,131.082C106.374,131.854,105.326,130.804,106.674,131.082
		L106.674,131.082z M108.456,126.755C108.864,125.492,110.408,126.374,108.456,126.755L108.456,126.755z M113.035,121.666
		c-0.296,0.259-0.602,0.203-0.255,0C113.096,121.484,113.341,121.401,113.035,121.666z M114.053,121.157
		c-0.746-0.216,0.332-0.639,0-1.272C114.649,119.951,114.2,121.004,114.053,121.157z M116.09,119.375
		c-0.564,0.141-0.364-0.485-0.764-0.509C115.25,118.412,116.313,118.85,116.09,119.375z M95.225,131.335
		c0.143-0.036,0.236-0.022,0.303,0.018l0.67-0.54c-0.071,0.002-0.144,0.004-0.209,0.013c0.029-0.213,0.254-0.23,0.488-0.238
		l11.468-9.238c-0.048-0.192,0.153-0.307,0.365-0.294l18.485-14.892l-0.001,0.003l-30.023,30.016l-3.462-3.042l1.899-1.53
		C95.188,131.521,95.186,131.427,95.225,131.335z M96.367,136.586l-1.57,1.571c-0.454-0.453-0.942-0.873-1.47-1.238l-0.145-3.13
		L96.367,136.586z M90.317,136.672c0.622-0.623,2.067,0.313,2.573,0.649l0.204,0.135c0.463,0.328,0.895,0.7,1.295,1.102
		l-2.187,2.187c-0.384-0.384-0.739-0.795-1.057-1.236l-0.088-0.128C90.692,138.856,89.668,137.322,90.317,136.672z M87.083,143.294
		c0.045-0.231,0.287-0.258,0.42-0.16c0.372-0.165,0.727-0.364,1.028-0.635c0.829-0.742,1.553-1.643,2.272-2.49
		c0.305,0.403,0.642,0.784,0.999,1.141l-3.958,3.956c-0.589-0.588-1.261-1.092-1.989-1.504c0.413-0.064,0.829-0.166,1.23-0.303
		C87.086,143.298,87.084,143.298,87.083,143.294z M83.774,132.608c-0.153-0.147-1.207-0.596-1.272,0
		C81.725,132.398,84.298,131.088,83.774,132.608z M82.248,129.3c0.063-0.32,0.505-0.257,0.51,0
		C82.644,129.669,82.533,129.274,82.248,129.3z M84.028,123.447c-0.037,0.634-0.861,0.074-1.017,0
		C83.073,122.792,83.449,123.796,84.028,123.447z M82.758,111.233c-0.228,0.157-0.456,0.308-0.51,0
		C82.312,110.914,82.753,110.978,82.758,111.233z M82.502,104.873C81.682,105.651,80.599,104.568,82.502,104.873L82.502,104.873z
		 M81.994,112.761C82.87,113.419,80.685,113.375,81.994,112.761L81.994,112.761z M81.485,125.483
		C82.339,124.868,80.87,126.336,81.485,125.483L81.485,125.483z M81.739,130.827c0.599,0.423-0.093-0.023-0.51,0
		C80.283,130.751,81.979,130.193,81.739,130.827z M77.064,134.68c0-0.88,1.683-1.241,2.278-1.361l0.24-0.048
		c0.406-0.069,0.818-0.102,1.23-0.119c0,0.088,0,0.176,0,0.264c0.225,0.153,0.53,0.227,0.927,0.21
		c0.055,0.304-0.615,0.396-0.927,0.207c0,0.791,0,1.581,0,2.376c-0.387-0.017-0.773-0.047-1.157-0.108l-0.153-0.028
		C78.873,135.958,77.064,135.599,77.064,134.68z M79.922,140.063c0.062-1.11-0.064-2.259-0.155-3.367
		c0.347,0.048,0.696,0.072,1.045,0.085c0,1.875,0,3.762,0,5.654c-0.701,0.04-1.381,0.153-2.031,0.341
		C79.368,141.985,79.868,141.052,79.922,140.063z M74.36,143.547c0.063-0.319,0.505-0.254,0.508,0
		C74.756,143.918,74.646,143.523,74.36,143.547z M69.674,153.04c-1.111-0.062-2.259,0.063-3.366,0.153
		c0.068-0.5,0.1-1.007,0.1-1.513l5.698,0.001c0.004,0.895,0.139,1.757,0.381,2.574C71.674,153.637,70.705,153.096,69.674,153.04z
		 M63.418,166.957C62.86,167.734,61.789,166.664,63.418,166.957L63.418,166.957z M61.638,166.704c0.101,0.408-0.308-0.043-0.255,0
		C60.268,165.836,61.581,166.471,61.638,166.704z M69.264,170.209l-33.486,26.977l0.002-0.003l13.872-13.869
		c-0.043-0.038-0.026-0.045,0.031-0.03l11.412-11.409c-0.12,0.025-0.212,0.076-0.22,0.173c-0.641-0.723,0.059-0.467,0.372-0.325
		l4.556-4.555l0.383,0.336c0.012-0.013,0.019-0.023,0.033-0.037c0.025-0.024,0.243-0.218,0.456-0.29l-0.469-0.411l1.571-1.572
		c0.454,0.454,0.942,0.873,1.47,1.239l0.145,3.129l-2.405-2.111c-0.091,0.125-0.298,0.246-0.498,0.32L69.264,170.209z
		 M72.254,166.678c-0.622,0.622-2.067-0.313-2.573-0.648l-0.205-0.136c-0.462-0.327-0.894-0.701-1.294-1.102l2.187-2.187
		c0.383,0.384,0.739,0.796,1.057,1.235l0.089,0.128C71.88,164.494,72.904,166.029,72.254,166.678z M74.041,160.851
		c-0.829,0.741-1.552,1.643-2.272,2.489c-0.306-0.403-0.642-0.783-0.999-1.141l4.04-4.038c0.613,0.613,1.313,1.139,2.078,1.561
		C75.875,159.859,74.809,160.162,74.041,160.851z M78.322,159.746c-0.383,0.063-0.787-0.205-1.153-0.52
		c-1.313-0.724-2.411-1.78-3.197-3.052c-0.037,0.038-0.078,0.075-0.121,0.096c-0.342,0.173-0.569-0.17-0.254-0.254
		c0.07-0.02,0.189,0.033,0.254,0c0.01-0.005,0.011-0.002,0.021-0.006c-0.362-0.615-0.651-1.277-0.853-1.978
		c-0.119-0.046-0.253-0.129-0.44-0.307c0.017-0.127,0.146-0.184,0.311-0.195c-0.137-0.609-0.215-1.241-0.215-1.892
		c0-0.448,0.045-0.885,0.111-1.314c-0.072,0.039-0.142,0.073-0.207,0.093c-0.229,0.072-0.1-0.132,0.247-0.355
		c0.063-0.344,0.142-0.683,0.245-1.011c-0.066-0.037-0.044-0.062,0.029-0.08c1.128-3.473,4.39-5.991,8.233-5.991
		c4.773,0,8.657,3.884,8.657,8.658c0,4.773-3.884,8.657-8.657,8.657C80.273,160.297,79.262,160.096,78.322,159.746z M80.722,163.396
		c0.454-0.072,0.521,0.241,0.254,0.255c-0.044,0.271,0.181,0.272,0.408,0.271c0-1.019,0-2.038,0-3.056
		c0.85-0.004,1.671-0.13,2.452-0.352c-0.605,0.806-1.131,1.759-1.186,2.773c-0.063,1.11,0.064,2.259,0.154,3.366
		c-0.471-0.064-0.946-0.094-1.421-0.098c0-0.773,0-1.544,0-2.315c-0.188-0.06-0.403-0.094-0.662-0.082
		C80.722,163.905,80.722,163.65,80.722,163.396z M80.722,169.503c-0.063,0.318-0.506,0.256-0.509,0
		C80.325,169.133,80.436,169.528,80.722,169.503z M80.213,192.657c0.169,0,0.338,0,0.509,0c0,0.17,0,0.338,0,0.508
		c-0.17,0-0.34,0-0.509,0C80.213,192.995,80.213,192.827,80.213,192.657z M79.958,165.178c-0.113,0.368-0.224-0.027-0.509,0
		C79.512,164.857,79.955,164.921,79.958,165.178z M79.958,180.188c-0.227,0.157-0.456,0.308-0.509,0
		C79.512,179.869,79.955,179.932,79.958,180.188z M77.16,179.171c-0.182-0.314-0.266-0.559,0-0.255
		C77.419,179.213,77.362,179.519,77.16,179.171z M77.413,173.318c-0.453-0.187-0.036-0.462,0-0.765
		C77.867,172.742,77.451,173.019,77.413,173.318z M78.432,182.733c0.169,0,0.339,0,0.508,0c0,0.169,0,0.339,0,0.509
		c-0.169,0-0.339,0-0.508,0C78.432,183.072,78.432,182.902,78.432,182.733z M79.195,194.438c-0.298,0.26-0.603,0.201-0.255,0
		C79.254,194.257,79.5,194.172,79.195,194.438z M79.195,183.242C80.265,183.508,79.193,184.579,79.195,183.242L79.195,183.242z
		 M79.45,190.622c0.076-0.16,0.326-0.434,0.509-0.51C80.814,189.597,79.026,191.507,79.45,190.622z M80.213,193.674
		c0.07-0.018,0.188,0.033,0.254,0c0.387-0.192,0.19,0.159,0,0.255C80.125,194.099,79.897,193.759,80.213,193.674z M80.467,209.45
		c0.042-0.298,0.464-0.215,0.763-0.256C81.189,209.493,80.767,209.409,80.467,209.45z"/>
	<circle cx="74.142" cy="116.044" r="0.57"/>
	<circle cx="73.187" cy="111.734" r="0.539"/>
	<circle cx="55.264" cy="146.312" r="0.634"/>
	<path d="M5.406,147.753c0,0.04,0,0.081,0,0.121c-0.166,0-0.333,0-0.498,0l-1.161,3.772H3.729l-0.341-1.205
		c-0.313,0.251-0.734,0.275-0.528-0.532c0.127,0.083,0.271,0.152,0.434,0.2l-0.434-1.533c-0.109-0.375-0.082-0.438,0.256-0.484
		l0.292-0.037v-0.356H0.559v0.095c0.39,0.123,0.836,0.287,0.775,0.335c-0.116,0.093-0.233,0.092-0.342,0.054
		c0.146,0.102,0.259,0.297,0.398,0.722l1.544,4.796h0.703l1.225-3.709h0.019l0.99,2.735c0.102-0.004,0.205-0.006,0.297-0.019
		c-0.018,0.128-0.112,0.178-0.23,0.206l0.285,0.787h0.704c0.731-2.521,1.435-4.623,1.48-4.742c0.311-0.804,0.393-0.832,0.904-0.905
		v-0.356H7.128v0.356l0.347,0.037c0.393,0.046,0.42,0.146,0.302,0.667c-0.128,0.53-0.466,1.819-0.786,2.888H6.973l-1.389-3.893
		H5.406z"/>
	<circle cx="55.117" cy="134.302" r="0.602"/>
	<circle cx="20.661" cy="139.281" r="0.38"/>
	<circle cx="29.406" cy="117.168" r="0.381"/>
	<path d="M0.57,147.874c-0.005-0.001-0.007-0.002-0.012-0.004v0.185c0.11,0.015,0.203,0.029,0.284,0.054
		C0.704,148.013,0.599,147.884,0.57,147.874z"/>
	<circle cx="24.986" cy="140.16" r="0.412"/>
	<circle cx="56.142" cy="113.315" r="0.507"/>
	<circle cx="36.752" cy="122.063" r="0.444"/>
	<circle cx="33.079" cy="119.616" r="0.412"/>
	<path d="M42.559,143.217c-0.051-0.03-0.104-0.057-0.164-0.069c-0.292-0.06-0.576,0.129-0.635,0.42
		c-0.059,0.292,0.129,0.576,0.421,0.635c0.291,0.06,0.576-0.129,0.635-0.421c0.036-0.177-0.027-0.345-0.142-0.468
		c-0.043-0.004-0.072-0.021-0.12-0.02C42.552,143.265,42.56,143.245,42.559,143.217z"/>
	<circle cx="46.614" cy="144.554" r="0.571"/>
	<circle cx="48.809" cy="102.29" r="0.412"/>
	<circle cx="51.444" cy="131.854" r="0.571"/>
	<circle cx="29.311" cy="141.039" r="0.444"/>
	<circle cx="21.169" cy="163.968" r="0.38"/>
	<circle cx="33.637" cy="141.918" r="0.476"/>
	<circle cx="37.962" cy="142.796" r="0.507"/>
	<circle cx="50.939" cy="145.433" r="0.602"/>
	<circle cx="112.573" cy="199.557" r="0.412"/>
	<circle cx="129.521" cy="183.814" r="0.412"/>
	<circle cx="107.643" cy="192.233" r="0.475"/>
	<circle cx="133.171" cy="186.297" r="0.381"/>
	<path d="M105.384,211.087c0.81,1.909,1.258,2.967,1.258,2.967s-0.403-1.05-1.129-2.938
		C105.467,211.104,105.424,211.095,105.384,211.087z"/>
	<path d="M109.861,195.526c-0.086,0.058-0.139,0.143-0.168,0.233c0.08,0.042,0.174,0.104,0.288,0.204
		c-0.077,0.105-0.15,0.168-0.22,0.2c0.145,0.183,0.399,0.229,0.595,0.1c0.203-0.137,0.258-0.414,0.12-0.617
		C110.339,195.444,110.064,195.39,109.861,195.526z"/>
	<circle cx="115.039" cy="203.217" r="0.381"/>
	<circle cx="111.275" cy="171.399" r="0.57"/>
	<circle cx="107.626" cy="168.917" r="0.602"/>
	<path d="M125.115,194.192l-8.06-10.006c-0.099,0.079-0.175,0.18-0.203,0.328c-0.317-0.093-0.033-0.261,0.007-0.572l-9.037-11.219
		c0.04,0.084,0.017,0.195-0.129,0.341c0.061-0.061-0.252-0.151-0.495-0.206l3.014,3.74c0.314-0.073,0.802,0.112,0.534,0.537
		c-0.034,0-0.067,0-0.102,0l13.883,17.232C124.615,194.201,124.871,194.202,125.115,194.192z"/>
	<circle cx="105.178" cy="188.572" r="0.507"/>
	<path d="M105.176,210.597c0.05,0.007,0.098,0.016,0.146,0.023c-0.215-0.559-0.449-1.169-0.711-1.851
		c-0.025,0.075-0.071,0.131-0.142,0.161C104.728,209.539,104.961,210.09,105.176,210.597z"/>
	<circle cx="89.64" cy="195.354" r="0.508"/>
	<circle cx="92.054" cy="208.374" r="0.412"/>
	<path d="M92.483,212.783c0.021,0.118,0.099,0.208,0.197,0.261c0-0.221,0-0.44,0-0.661C92.539,212.46,92.453,212.617,92.483,212.783
		z"/>
	<path d="M107.571,157.617c0.343,0.068,0.678-0.152,0.746-0.496c0.07-0.344-0.152-0.679-0.496-0.748
		c-0.223-0.044-0.433,0.041-0.578,0.194c0.146,0.074,0.238,0.203,0.45,0.213c0.06,0.29-0.351,0.362-0.618,0.248
		C107.09,157.31,107.281,157.558,107.571,157.617z"/>
	<circle cx="87.228" cy="182.334" r="0.602"/>
	<circle cx="112.023" cy="157.867" r="0.602"/>
	<circle cx="116.35" cy="158.738" r="0.571"/>
	<path d="M88.306,191.111c0.055,0.293,0.336,0.486,0.629,0.432c0.292-0.054,0.485-0.335,0.431-0.628
		c-0.006-0.034-0.025-0.061-0.037-0.092c-0.101-0.027-0.163-0.085-0.109-0.175c-0.121-0.126-0.295-0.199-0.48-0.164
		C88.445,190.537,88.252,190.819,88.306,191.111z"/>
	<circle cx="91.249" cy="204.033" r="0.444"/>
	<circle cx="88.032" cy="186.673" r="0.571"/>
	<circle cx="90.445" cy="199.693" r="0.475"/>
	<circle cx="114.925" cy="173.883" r="0.538"/>
	<path d="M81.404,296.135l-0.201-0.092c-0.584-0.265-0.941-0.529-0.941-0.986c0-0.438,0.329-0.795,0.795-0.795
		c0.722,0,1.042,0.648,1.243,1.252l0.402-0.064c-0.102-0.621-0.166-1.069-0.201-1.426c-0.119-0.036-0.266-0.072-0.477-0.127
		c-0.265-0.073-0.557-0.11-0.84-0.11c-1.435,0-2.184,0.841-2.184,1.873c0,0.222,0.048,0.414,0.125,0.589
		c0.161,0.049,0.257,0.151,0.181,0.314c0.314,0.411,0.824,0.679,1.293,0.896l0.137,0.064c0.557,0.256,0.915,0.558,0.915,1.097
		c0,0.594-0.366,0.904-0.841,0.904c-0.896,0-1.435-1.014-1.627-1.544l-0.402,0.119c0.11,0.612,0.229,1.105,0.302,1.525
		c0.11,0.055,0.302,0.128,0.575,0.219c0.247,0.083,0.622,0.156,0.987,0.156c1.416,0,2.32-0.822,2.32-1.946
		C82.967,296.984,82.245,296.519,81.404,296.135z"/>
	<circle cx="72.429" cy="195.946" r="0.507"/>
	<circle cx="73.233" cy="191.606" r="0.538"/>
	<circle cx="69.211" cy="213.306" r="0.38"/>
	<circle cx="75.646" cy="178.587" r="0.633"/>
	<circle cx="74.842" cy="182.926" r="0.601"/>
	<circle cx="70.016" cy="208.966" r="0.413"/>
	<circle cx="120.677" cy="159.61" r="0.539"/>
	<path d="M66.019,27.725c-0.063,1.832,1.144,4.688,3.179,4.763c0.397,0.014,0.889,0.731,0.508,1.538
		c-0.771,1.626,1.585,1.511,2.224-1.833c0.042-0.215,0.049-0.426,0.045-0.632c-0.13,0.019-0.26,0.037-0.414,0.032
		c0.093-0.433-0.198-0.48-0.509-0.509c-0.087-0.306,0.43-0.124,0.509-0.254c0.117-0.191,0.057-0.455,0.167-0.647
		c-0.139-0.465-0.266-0.824-0.179-0.991c0.762-1.467,2.606-1.32,3.623-0.441c1.268,1.098,2.029,2.032,2.598,3.763
		c-0.928-0.346-1.164,1.271-0.184,2.465c0.329,0.399,1.038,0.56,1.74,0.614c-0.223,0.239-0.467,0.441-0.723,0.558
		c-1.589,0.732-2.542-1.171-2.606-2.858c-0.022-0.604-0.473-0.576-0.954,0.075c-2.542,3.444,0.636,8.06,3.369,5.788
		c-0.763,2.051,0.826,3.297,1.716,3.735c0.526,0.261,0.509,1.454,1.038,1.454c0.53,0,0.513-1.193,1.038-1.454
		c0.549-0.27,1.36-0.849,1.726-1.732c-0.259,0.16-0.565,0.357-0.921,0.104c0.185-0.353,0.642-0.555,1.013-0.419
		c0.13-0.486,0.14-1.042-0.101-1.688c2.733,2.271,5.911-2.344,3.37-5.788c-0.18-0.244-0.355-0.399-0.506-0.468
		c-0.16,0.162-0.305,0.234-0.429,0.252c-0.008,0.044-0.018,0.087-0.02,0.141c-0.063,1.687-1.017,3.591-2.606,2.858
		c-0.255-0.117-0.5-0.319-0.722-0.558c0.701-0.054,1.411-0.214,1.738-0.614c0.98-1.194,0.745-2.811-0.182-2.465
		c0.568-1.731,1.329-2.666,2.597-3.763c1.018-0.878,2.861-1.025,3.624,0.441c0.19,0.365-0.645,1.625-0.383,3.001
		c0.642,3.344,2.996,3.458,2.227,1.833c-0.382-0.807,0.11-1.524,0.507-1.538c2.035-0.075,3.243-2.931,3.179-4.763
		c-0.162-4.699-3.877-7.327-6.61-6.52c-3.259,0.96-5.339,5.494-5.784,6.886c-0.055,0.172-0.104,0.347-0.157,0.521
		c0.29-0.085,0.59-0.126,0.862,0.053c0.203-0.854,0.624-1.985,1.349-3.066c-0.13-0.126-0.278-0.212-0.422-0.113
		c0.202-0.39,0.471-0.38,0.658-0.225c0.351-0.474,0.757-0.931,1.239-1.338c1.429-1.21,3.039-1.813,4.611-1.241
		c1.648,0.6,2.348,1.625,2.682,2.394c0.465,1.074,0.004,2.503-1.097,1.043c-0.741-0.982-3.036-1.263-4.873-0.652
		c-0.121,0.203-0.362,0.285-0.69,0.28c-0.263,0.133-0.509,0.287-0.729,0.465c-1.054,0.854-1.604,1.574-2.097,2.435
		c-0.44,0.767-0.849,1.073-0.676,0.212c-0.272,0.098-0.587,0.155-0.941,0.16c-0.419,1.426-0.753,2.875-0.848,4.308
		c-0.277,0.038-0.554,0.053-0.801,0.055c-0.089-0.748-0.075-1.545,0.009-2.391c-0.153,0.138-0.271,0.2-0.009-0.163
		c0.013-0.009,0.014-0.008,0.025-0.016c0.068-0.616,0.185-1.27,0.322-1.944c-0.116-0.026-0.231-0.043-0.348-0.075
		c0.059-0.016,0.354-0.348,0.459-0.459c0.041-0.185,0.082-0.37,0.127-0.559c-0.026,0-0.052,0-0.078,0c0-0.168,0-0.339,0-0.508
		c0.068,0,0.137,0,0.205,0c0.461-1.845,1.074-3.891,1.727-6.21c1.589-5.642-1.908-11.881-3.265-11.881
		c-1.356,0-4.852,6.239-3.263,11.881c1.482,5.268,2.81,9.192,2.438,12.326c-0.247-0.001-0.523-0.017-0.8-0.055
		c-0.115-1.745-0.58-3.516-1.129-5.238c-0.445-1.392-2.525-5.925-5.784-6.886C69.896,20.398,66.183,23.026,66.019,27.725z
		 M77.192,38.833c-0.333,0.275-1.126,0.214-1.658-0.47c-0.488-0.628-0.583-1.892-0.237-2.317c0.414-0.511,0.608,0.095,0.895,0.536
		c0.25,0.385,0.642,0.912,0.857,1.098C77.43,38.01,77.762,38.364,77.192,38.833z M85.29,37.679c0.216-0.187,0.608-0.713,0.858-1.098
		c0.285-0.44,0.479-1.047,0.895-0.536c0.345,0.425,0.249,1.689-0.238,2.317c-0.532,0.684-1.324,0.745-1.657,0.47
		C84.576,38.364,84.908,38.01,85.29,37.679z M94.971,24.723C95.742,23.782,95.827,25.496,94.971,24.723L94.971,24.723z
		 M95.479,28.539c-0.062,0.32-0.505,0.257-0.508,0C95.082,28.169,95.194,28.565,95.479,28.539z M88.609,25.995
		c0.17,0,0.34,0,0.509,0c0,0.169,0,0.339,0,0.509c-0.169,0-0.339,0-0.509,0C88.609,26.334,88.609,26.164,88.609,25.995z
		 M84.793,33.12c-0.111,0.313-0.325,0.521-0.765,0.508C84.14,33.315,84.354,33.105,84.793,33.12z M82.502,35.918
		C83.356,35.303,81.887,36.771,82.502,35.918L82.502,35.918z M84.538,16.581c0.241,0.918-1.003,0.354-1.526,0.507
		C83.04,16.439,83.864,16.584,84.538,16.581z M83.012,24.723c0.135,0.529-0.993,0.539-0.254,0.255
		C82.199,24.198,82.232,24.166,83.012,24.723z M82.248,25.231c-0.041,0.298-0.464,0.215-0.763,0.254
		C81.526,25.187,81.949,25.271,82.248,25.231z M78.507,17.482c0.004-2.28,1.313-5.217,1.965-6.193
		c0.108-0.162,0.331-0.073,0.331,0.131v13.522c0,0.221-0.255,0.298-0.347,0.104C79.758,23.556,78.502,20.316,78.507,17.482z
		 M80.04,38.365c0.505,0.216,1.783,3.41,1.436,3.595c-1.095,0.581-2.53-1.078-2.502-2.059C79,38.917,79.534,38.151,80.04,38.365z
		 M78.94,32.865c-0.062,0.32-0.505,0.255-0.508,0C78.545,32.495,78.655,32.891,78.94,32.865z M71.562,27.521
		c0.063-0.319,0.505-0.256,0.509,0C71.844,27.678,71.615,27.829,71.562,27.521z M77.923,34.392c-0.17,0-0.34,0-0.51,0
		c0-0.17,0-0.339,0-0.51c0.17,0,0.34,0,0.51,0C77.923,34.052,77.923,34.222,77.923,34.392z M74.886,23.923
		c0.596,0.503,1.078,1.082,1.476,1.675c0.059-0.027,0.054-0.001,0.028,0.041c0.748,1.13,1.17,2.316,1.356,3.173
		c0.201,0.928-0.219,0.618-0.667-0.165c-0.494-0.86-1.042-1.581-2.097-2.435c-1.812-1.468-5.34-1.356-6.292-0.094
		c-1.103,1.459-1.563,0.031-1.097-1.043c0.334-0.769,1.033-1.794,2.682-2.394C71.847,22.11,73.456,22.713,74.886,23.923z"/>
	<circle cx="71.624" cy="200.286" r="0.476"/>
	<circle cx="70.82" cy="204.625" r="0.444"/>
	<circle cx="74.037" cy="187.267" r="0.57"/>
	<circle cx="97.784" cy="177.587" r="0.602"/>
	<circle cx="103.977" cy="166.434" r="0.634"/>
	<circle cx="102.714" cy="184.911" r="0.539"/>
	<circle cx="122.223" cy="178.849" r="0.476"/>
	<circle cx="118.573" cy="176.365" r="0.508"/>
	<circle cx="125.873" cy="181.332" r="0.444"/>
	<path d="M66.184,160.123C66.265,160.083,66.165,160.132,66.184,160.123L66.184,160.123z"/>
	<path d="M76.581,168.327C76.609,168.242,76.573,168.348,76.581,168.327L76.581,168.327z"/>
	<path d="M79.038,1.69v1.681c0,0.959-0.036,1.462-0.073,1.746c-0.045,0.32-0.283,0.448-0.685,0.466v0.356h2.275V5.583
		c-0.604-0.028-0.85-0.146-0.896-0.466c-0.037-0.283-0.073-0.786-0.073-1.746V1.69h0.018l3.381,4.313h0.786V2.568
		c0-0.959,0.036-1.462,0.072-1.746c0.046-0.319,0.283-0.448,0.74-0.466V0h-2.33v0.356c0.604,0.027,0.85,0.146,0.896,0.466
		c0.035,0.283,0.072,0.786,0.072,1.746v1.224h-0.019L80.162,0h-2.019v0.356c0.329,0.027,0.557,0.091,0.694,0.283
		C79.02,0.896,79.038,1.014,79.038,1.69z"/>
	<circle cx="100.249" cy="181.249" r="0.571"/>
	<path d="M85.47,172.736l-0.561,0.037c0.05,0.017,0.101,0.036,0.139,0.037C85.198,172.815,85.336,172.782,85.47,172.736z"/>
	<circle cx="95.319" cy="173.927" r="0.634"/>
	<circle cx="137.985" cy="163.096" r="0.412"/>
	<path d="M117.327,98.298c-0.176-0.116-0.411-0.067-0.527,0.107s-0.068,0.41,0.105,0.527c0.068,0.045,0.145,0.058,0.22,0.056
		c0.041-0.132,0.164-0.181,0.321-0.195C117.538,98.622,117.491,98.408,117.327,98.298z"/>
	<circle cx="90.295" cy="111.734" r="0.539"/>
	<circle cx="92.206" cy="103.116" r="0.476"/>
	<circle cx="94.117" cy="94.498" r="0.412"/>
	<path d="M132.722,141.927c-0.016-0.077-0.053-0.141-0.098-0.198c-0.153,0.028-0.345,0.018-0.504,0.039
		c0.018-0.131,0.115-0.183,0.238-0.209c-0.063-0.014-0.13-0.017-0.197-0.003c-0.257,0.052-0.424,0.303-0.371,0.561
		c0.052,0.258,0.304,0.423,0.561,0.371S132.773,142.185,132.722,141.927z"/>
	<circle cx="95.073" cy="90.188" r="0.38"/>
	<circle cx="127.931" cy="142.9" r="0.507"/>
	<circle cx="97.562" cy="128.015" r="0.633"/>
	<circle cx="123.605" cy="143.779" r="0.539"/>
	<path d="M88.047,124.799c0.075-0.343-0.141-0.681-0.482-0.756c-0.098-0.022-0.192-0.015-0.283,0.007
		c-0.054,0.075-0.139,0.118-0.253,0.132c-0.104,0.087-0.188,0.2-0.221,0.343c-0.076,0.343,0.141,0.681,0.483,0.756
		C87.631,125.357,87.971,125.14,88.047,124.799z"/>
	<path d="M88.312,120.941c-0.019-0.316,0.272-0.322,0.59-0.302c0.027-0.049,0.057-0.098,0.069-0.156
		c0.072-0.325-0.134-0.646-0.458-0.719c-0.324-0.072-0.646,0.133-0.718,0.458c-0.072,0.326,0.132,0.646,0.458,0.718
		C88.272,120.945,88.292,120.939,88.312,120.941z"/>
	<circle cx="89.338" cy="116.043" r="0.571"/>
	<circle cx="104.69" cy="136.75" r="0.634"/>
	<circle cx="112.036" cy="131.854" r="0.571"/>
	<circle cx="119.383" cy="126.959" r="0.507"/>
	<circle cx="110.629" cy="146.415" r="0.634"/>
	<circle cx="115.709" cy="129.407" r="0.539"/>
	<circle cx="108.363" cy="134.302" r="0.602"/>
	<circle cx="125.004" cy="160.482" r="0.508"/>
	<path d="M107.723,90.625c0,0-0.849,1.908-2.334,5.246c-0.742,1.669-1.645,3.696-2.678,6.021c-0.518,1.163-1.067,2.399-1.647,3.704
		c-0.577,1.305-1.146,2.694-1.762,4.133c-1.452,3.421-3.049,7.184-4.746,11.181c0.055-0.002,0.108-0.004,0.161-0.007
		c-0.065,0.183-0.173,0.323-0.333,0.412c-1.331,3.136-2.724,6.417-4.156,9.792c0.194-0.023,0.428-0.007,0.63-0.023
		c3.288-7.747,6.361-14.987,8.971-21.131c0.607-1.443,1.212-2.817,1.75-4.138c0.535-1.323,1.043-2.578,1.521-3.758
		c0.954-2.359,1.785-4.416,2.471-6.109C106.939,92.56,107.723,90.625,107.723,90.625z"/>
	<circle cx="119.279" cy="144.657" r="0.571"/>
	<circle cx="100.005" cy="124.34" r="0.602"/>
	<circle cx="114.954" cy="145.536" r="0.602"/>
	<circle cx="102.449" cy="120.665" r="0.57"/>
	<circle cx="93.162" cy="98.807" r="0.444"/>
	<circle cx="123.056" cy="124.511" r="0.475"/>
	<path d="M126.776,121.92c-0.029,0.211-0.249,0.229-0.479,0.237c0.011,0.052,0.03,0.104,0.062,0.151
		c0.138,0.205,0.412,0.26,0.616,0.124c0.203-0.137,0.26-0.411,0.123-0.615c-0.136-0.204-0.411-0.26-0.615-0.123
		c-0.094,0.062-0.151,0.155-0.179,0.255C126.451,121.93,126.629,121.94,126.776,121.92z"/>
	<circle cx="134.074" cy="117.168" r="0.38"/>
	<path d="M72.839,136.572C72.829,136.554,72.879,136.654,72.839,136.572L72.839,136.572z"/>
	<circle cx="91.25" cy="107.425" r="0.507"/>
	<path d="M159.441,152.011l-0.402-0.063c-0.137,0.438-0.292,0.776-0.447,0.941c-0.201,0.219-0.604,0.273-0.969,0.273
		c-0.283,0-0.493-0.009-0.64-0.082c-0.164-0.082-0.183-0.311-0.183-0.785v-1.49h0.457c0.786,0,0.813,0.054,0.904,0.859h0.402v-2.157
		h-0.402c-0.091,0.694-0.118,0.749-0.904,0.749h-0.457v-1.763c0-0.32,0.019-0.32,0.365-0.32h0.155c0.485,0,0.786,0.056,0.933,0.21
		c0.001,0.001,0.002,0.003,0.003,0.004c0.023-0.002,0.049-0.001,0.071-0.004c-0.004,0.025-0.023,0.035-0.032,0.055
		c0.122,0.153,0.214,0.395,0.296,0.796l0.401-0.027c-0.046-0.686-0.091-1.353-0.1-1.508h-4.331v0.356
		c0.611,0.055,0.685,0.119,0.685,1.106v3.016c0,0.986-0.073,1.051-0.776,1.105v0.356h4.651
		C159.204,153.391,159.396,152.459,159.441,152.011z M155.528,151.182C156.381,150.567,154.913,152.034,155.528,151.182
		L155.528,151.182z M155.783,150.672c0.04-0.298,0.464-0.214,0.764-0.254C156.504,150.718,156.083,150.633,155.783,150.672z"/>
	<circle cx="145.233" cy="139.385" r="0.38"/>
	<circle cx="142.312" cy="163.968" r="0.38"/>
	<circle cx="133.657" cy="162.225" r="0.443"/>
	<circle cx="129.331" cy="161.353" r="0.475"/>
	<path d="M85.992,135.023C85.999,135.002,85.963,135.108,85.992,135.023L85.992,135.023z"/>
	<path d="M96.389,143.228C96.307,143.268,96.408,143.218,96.389,143.228L96.389,143.228z"/>
	<path d="M88.863,141.512c-0.035-0.03-0.059-0.052-0.082-0.073c-0.09,0.1-0.182,0.2-0.275,0.296
		C88.684,141.839,88.836,141.863,88.863,141.512z"/>
	<path d="M85.544,131.368c-0.366,0.076-0.535,0.35-0.694,0.633L85.544,131.368z"/>
	<path d="M64.633,146.97C64.719,146.999,64.613,146.962,64.633,146.97L64.633,146.97z"/>
	<circle cx="104.895" cy="116.99" r="0.539"/>
	<circle cx="107.339" cy="113.315" r="0.507"/>
	<circle cx="109.783" cy="109.64" r="0.476"/>
	<circle cx="130.4" cy="119.616" r="0.412"/>
	<circle cx="114.671" cy="102.29" r="0.413"/>
	<circle cx="112.228" cy="105.965" r="0.444"/>
	<circle cx="140.906" cy="140.264" r="0.412"/>
	<path d="M143.557,127.093c0,0-1.948,0.749-5.359,2.059c-1.705,0.655-3.775,1.451-6.151,2.364c-0.47,0.18-0.96,0.369-1.453,0.559
		c0,0.008,0,0.017,0,0.025c-0.021,0-0.044,0-0.065,0c-0.732,0.282-1.482,0.57-2.265,0.871c-0.871,0.337-1.774,0.705-2.694,1.08
		c0.066,0.109,0.135,0.217,0.189,0.338c-0.27,0.273-1.028,0.345-1.564,0.219c-0.034,0.014-0.065,0.026-0.099,0.04
		c-1.704,0.688-3.494,1.412-5.353,2.162c0.05,0.013,0.102,0.026,0.135,0.03c0.142-0.042,0.162,0.019,0,0
		c-0.105,0.033-0.279,0.121-0.498,0.347c-0.172-0.029-0.182-0.111-0.137-0.175c-3.721,1.503-7.719,3.118-11.897,4.807
		c0.513-0.007,0.797,0.109-0.178,0.204c-0.047,0.216,0.1,0.239,0.253,0.253c-0.021,0.073-0.046,0.115-0.07,0.157
		c2.836-1.146,5.588-2.257,8.229-3.325c-0.027-0.129-0.039-0.277-0.016-0.394c0.079-0.394,0.242-0.039,0.264,0.293
		c2.071-0.836,4.07-1.644,5.987-2.418c-0.009-0.137,0.08-0.241,0.312-0.126c1.089-0.44,2.153-0.87,3.184-1.286
		c1.45-0.591,2.849-1.134,4.163-1.688c1.314-0.557,2.561-1.085,3.732-1.583c2.343-0.993,4.385-1.859,6.067-2.572
		C141.635,127.908,143.557,127.093,143.557,127.093z M108.709,141.259C107.938,142.2,107.854,140.486,108.709,141.259
		L108.709,141.259z"/>
</g>
</svg>
