<svg xmlns="http://www.w3.org/2000/svg" xmlns:xlink="http://www.w3.org/1999/xlink" version="1.1" id="Layer_1" x="0px" y="0px" width="950px" height="71px" viewBox="0 0 950 71" enable-background="new 0 0 950 71" xml:space="preserve">
<g id="off" display="none">
	<g display="inline">
		<g>
			<line fill="none" x1="404.4" y1="44" x2="404.4" y2="57.6"/>
			<path d="M404.445 58.137c-0.277 0-0.5-0.225-0.5-0.502v-13.67c0-0.277 0.224-0.502 0.5-0.502c0.275 0 0.5 0.2 0.5 0.5 v13.67C404.946 57.9 404.7 58.1 404.4 58.137z"/>
		</g>
		<g>
			<line fill="none" x1="417.3" y1="44" x2="417.3" y2="57.6"/>
			<path d="M417.274 58.137c-0.277 0-0.501-0.225-0.501-0.502v-13.67c0-0.277 0.224-0.502 0.501-0.502 c0.276 0 0.5 0.2 0.5 0.502v13.67C417.775 57.9 417.6 58.1 417.3 58.137z"/>
		</g>
		<g>
			<line fill="none" x1="430.1" y1="44" x2="430.1" y2="57.6"/>
			<path d="M430.104 58.137c-0.276 0-0.501-0.225-0.501-0.502v-13.67c0-0.277 0.225-0.502 0.501-0.502c0.277 0 0.5 0.2 0.5 0.5 v13.67C430.604 57.9 430.4 58.1 430.1 58.137z"/>
		</g>
		<g>
			<line fill="none" x1="442.9" y1="44" x2="442.9" y2="57.6"/>
			<path d="M442.933 58.137c-0.276 0-0.5-0.225-0.5-0.502v-13.67c0-0.277 0.225-0.502 0.5-0.502c0.276 0 0.5 0.2 0.5 0.5 v13.67C443.434 57.9 443.2 58.1 442.9 58.137z"/>
		</g>
		<g>
			<line fill="none" x1="455.8" y1="44" x2="455.8" y2="57.6"/>
			<path d="M455.763 58.137c-0.276 0-0.501-0.225-0.501-0.502v-13.67c0-0.277 0.225-0.502 0.501-0.502 c0.277 0 0.5 0.2 0.5 0.502v13.67C456.264 57.9 456 58.1 455.8 58.137z"/>
		</g>
		<g>
			<line fill="none" x1="468.6" y1="44" x2="468.6" y2="57.6"/>
			<path d="M468.591 58.137c-0.276 0-0.501-0.225-0.501-0.502v-13.67c0-0.277 0.225-0.502 0.501-0.502c0.277 0 0.5 0.2 0.5 0.5 v13.67C469.092 57.9 468.9 58.1 468.6 58.137z"/>
		</g>
		<g>
			<line fill="none" x1="481.4" y1="44" x2="481.4" y2="57.6"/>
			<path d="M481.421 58.137c-0.274 0-0.5-0.225-0.5-0.502v-13.67c0-0.277 0.226-0.502 0.5-0.502c0.277 0 0.5 0.2 0.5 0.5 v13.67C481.923 57.9 481.7 58.1 481.4 58.137z"/>
		</g>
		<g>
			<line fill="none" x1="494.3" y1="44" x2="494.3" y2="57.6"/>
			<path d="M494.251 58.137c-0.277 0-0.5-0.225-0.5-0.502v-13.67c0-0.277 0.223-0.502 0.5-0.502s0.501 0.2 0.5 0.502v13.67 C494.752 57.9 494.5 58.1 494.3 58.137z"/>
		</g>
		<g>
			<line fill="none" x1="507.1" y1="44" x2="507.1" y2="57.6"/>
			<path d="M507.079 58.137c-0.277 0-0.502-0.225-0.502-0.502v-13.67c0-0.277 0.225-0.502 0.502-0.502c0.276 0 0.5 0.2 0.5 0.5 v13.67C507.579 57.9 507.4 58.1 507.1 58.137z"/>
		</g>
		<g>
			<line fill="none" x1="519.9" y1="44" x2="519.9" y2="57.6"/>
			<path d="M519.906 58.137c-0.275 0-0.5-0.225-0.5-0.502v-13.67c0-0.277 0.225-0.502 0.5-0.502c0.276 0 0.5 0.2 0.5 0.5 v13.67C520.408 57.9 520.2 58.1 519.9 58.137z"/>
		</g>
		<g>
			<line fill="none" x1="532.7" y1="44" x2="532.7" y2="57.6"/>
			<path d="M532.736 58.137c-0.277 0-0.5-0.225-0.5-0.502v-13.67c0-0.277 0.223-0.502 0.5-0.502c0.276 0 0.5 0.2 0.5 0.5 v13.67C533.238 57.9 533 58.1 532.7 58.137z"/>
		</g>
		<g>
			<line fill="none" x1="545.6" y1="44" x2="545.6" y2="57.6"/>
			<path d="M545.566 58.137c-0.277 0-0.502-0.225-0.502-0.502v-13.67c0-0.277 0.225-0.502 0.502-0.502c0.274 0 0.5 0.2 0.5 0.5 v13.67C546.066 57.9 545.8 58.1 545.6 58.137z"/>
		</g>
		<path d="M582.311 63.27H370.265c-0.277 0-0.501-0.225-0.501-0.502c0-0.274 0.224-0.5 0.501-0.5h212.045c0.277 0 0.5 0.2 0.5 0.5 C582.811 63 582.6 63.3 582.3 63.27z"/>
		<path d="M579.746 65.832H365.667c-0.277 0-0.5-0.225-0.5-0.502c0-0.275 0.224-0.5 0.5-0.5h214.079c0.277 0 0.5 0.2 0.5 0.5 C580.248 65.6 580 65.8 579.7 65.832z"/>
		<g>
			<path d="M547.4-17.704c-0.211-0.91-0.634-1.7-1.158-2.322c-1.053-1.25-2.371-1.989-3.695-2.514 c-1.334-0.519-2.709-0.796-4.086-0.931c-2.773-0.206-5.42 0.092-8.076 0.508c-2.643 0.448-5.235 1.094-7.789 1.9 c-5.106 1.526-10.053 3.498-14.894 5.669c-4.844 2.176-9.573 4.58-14.236 7.103c-9.344 5.006-18.417 10.498-27.3 16.3 c-0.348 0.229-0.695 0.457-1.043 0.686v-69.986c0-0.356-0.286-0.641-0.641-0.641h-9.4v-27.135c0-0.354-0.287-0.645-0.641-0.645 H0.642c-0.279 0-0.537 0.187-0.617 0.47c-0.096 0.3 0.1 0.7 0.4 0.79l0.007 0.004l7.215 2 c2.4 0.7 4.8 1.3 7.2 2.067l7.155 2.224l3.578 1.115l3.546 1.209l7.091 2.422c2.354 0.8 4.7 1.7 7 2.6 c2.343 0.9 4.7 1.7 7 2.691l6.946 2.812l6.868 2.987c2.303 1 4.5 2.1 6.8 3.1 c2.274 1 4.5 2.2 6.7 3.276l3.346 1.678l3.302 1.767c2.213 1.1 4.4 2.4 6.5 3.6 c2.185 1.2 4.3 2.5 6.4 3.814c2.101 1.3 4.2 2.7 6.3 4.085c2.048 1.4 4.1 2.9 6 4.412l0.007 0 c0.172 0.1 0.4 0.2 0.6 0.114c4.538-1.595 9.141-3.118 13.724-4.646l13.787-4.489c9.205-2.955 18.43-5.845 27.687-8.629 l13.902-4.117c4.641-1.352 9.292-2.664 13.95-3.949c2.324-0.659 4.664-1.264 6.996-1.89c2.333-0.63 4.667-1.25 7.011-1.833 c2.343-0.587 4.678-1.209 7.028-1.765l7.048-1.673c0.281-0.066 0.498-0.322 0.498-0.626c0-0.352-0.287-0.64-0.641-0.64l0 0 l-15.172 0.155l-15.173 0.092l-30.344 0.016l-30.346-0.183l-7.586-0.049c-2.544 0.006-5.02-0.074-7.635 0 c-1.301 0.059-2.614 0.188-3.951 0.528c-0.67 0.175-1.338 0.427-2.011 0.8c-0.662 0.374-1.337 0.936-1.779 1.8 c-0.422 0.824-0.569 1.837-0.417 2.712c0.136 0.9 0.5 1.7 0.8 2.37c0.383 0.7 0.9 1.3 1.3 1.9 c0.25 0.3 0.5 0.6 0.8 0.877c0.316 0.3 0.5 0.5 0.8 0.79c0.313 0.4 0.7 0.6 1.2 0.8 c1.407 0.4 2.907-0.344 3.35-1.75c0.442-1.407-0.34-2.907-1.749-3.35l-0.059-0.02l-0.829-0.26 c-0.223-0.063-0.482-0.184-0.707-0.292c-0.474-0.219-0.892-0.509-1.26-0.813c-0.732-0.636-1.153-1.359-1.015-2.007 c0.133-0.69 1.033-1.455 2.092-1.882c1.074-0.44 2.278-0.687 3.497-0.823c1.22-0.126 2.467-0.124 3.739-0.132l3.794-0.023 l7.586-0.043l30.346-0.184l30.344 0.018c0 0 13 0.4 13 1.687c0 1.281-8.648 3.805-10.976 4.5 c-4.665 1.283-9.32 2.598-13.966 3.951l-13.916 4.12c-9.264 2.789-18.496 5.683-27.708 8.638l-13.798 4.5 c-4.479 1.491-8.945 2.972-13.416 4.537c-1.885-1.54-3.818-2.919-5.793-4.269c-2.067-1.432-4.193-2.766-6.31-4.116 c-2.157-1.279-4.276-2.627-6.472-3.838c-2.176-1.248-4.358-2.484-6.582-3.642l-3.318-1.771l-3.361-1.688 c-2.239-1.129-4.48-2.252-6.76-3.288c-2.28-1.043-4.521-2.172-6.831-3.14l-6.893-3.001l-6.969-2.819 c-2.314-0.964-4.664-1.828-7.013-2.699c-2.351-0.866-4.689-1.77-7.052-2.604l-7.111-2.43c0 0-3.996-1.529-3.996-4.362 c0-2.83 3.845-3.046 3.845-3.046H453.8v26.496H421.11c-0.229 0.002-0.453 0.124-0.566 0.3 c-0.166 0.313-0.045 0.7 0.3 0.864c1.787 1 3.5 2 5.2 3.182c1.666 1.2 3.3 2.4 4.8 3.7 c3.111 2.6 6 5.5 8.7 8.592c2.714 3.1 5.3 6.3 7.6 9.604c2.38 3.3 4.6 6.8 6.6 10.315l0.006 0 c0.109 0.2 0.3 0.3 0.6 0.32c0.354 0 0.641-0.283 0.641-0.64V-60.73h8.759V9.461c-3.657 2.393-7.306 4.799-10.906 7.3 c-4.363 3.006-8.692 6.055-12.98 9.188l-0.002 0.004c-0.154 0.117-0.255 0.305-0.253 0.512c0 0.4 0.3 0.6 0.6 0.6 h24.144c0.354 0 0.641-0.289 0.641-0.641V9.586c0.494-0.326 0.98-0.662 1.476-0.986c8.862-5.773 17.901-11.285 27.224-16.275 c4.676-2.465 9.418-4.805 14.259-6.914c4.836-2.104 9.77-4.005 14.826-5.454c2.529-0.718 5.088-1.324 7.672-1.731 c2.566-0.365 5.229-0.653 7.738-0.385c1.25 0.2 2.5 0.5 3.6 1.107c1.076 0.6 2 1.4 2.5 2.3 c0.935 1.966-0.58 3.196-2.735 3.637c-0.49 0.096-0.957 0.333-1.345 0.704c-1.069 1.037-1.098 2.746-0.063 3.8 c1.039 1.1 2.7 1.1 3.8 0.064l0.159-0.152c1.188-1.15 2.433-2.412 3.047-4.237 C547.521-15.785 547.613-16.792 547.4-17.704z M453.119-31.348c-0.962 0.372-2.895-2.365-4.844-5.092 c-2.408-3.364-4.985-6.609-7.732-9.708c-2.756-3.093-5.694-6.033-8.861-8.723c-1.586-1.34-3.573-2.758-3.199-4.039 c0.588-1.979 3.098-1.815 3.098-1.815h22.22v24.42C453.8-36.305 454.08-31.723 453.119-31.348z M463.841 25.803H451.13 c0 0-2.458-0.135-3.446-1.629c-0.988-1.496 2.12-3.988 2.12-3.988s2.457-1.77 3.691-2.641c3.419-2.41 6.867-4.781 10.347-7.1 L463.841 25.803L463.841 25.803z"/>
			<path d="M474.952 36.484h-61.291c0 0 1.12-2.564 0.078-3.605c-1.041-1.041-3.152-0.988-3.152-0.988l29.564-29.566 c0.113-0.115 0.189-0.277 0.19-0.453c0.001-0.352-0.285-0.637-0.636-0.639l-10.977-0.045l-10.978 0.1 c-7.316 0.164-14.631 0.389-21.938 0.75c-3.657 0.141-7.307 0.391-10.959 0.6c-3.654 0.195-7.302 0.451-10.95 0.7 c-7.3 0.504-14.587 1.156-21.872 1.844l-10.917 1.102L330.21 7.57c-7.262 0.883-14.521 1.785-21.766 2.8 c-3.627 0.473-7.241 1.039-10.86 1.566c-3.622 0.521-7.234 1.088-10.845 1.676c-7.227 1.135-14.435 2.391-21.635 3.7 c-7.201 1.295-14.381 2.697-21.554 4.137l-10.742 2.248l-10.714 2.379c-7.13 1.641-14.247 3.342-21.336 5.2 c-7.089 1.814-14.154 3.723-21.188 5.742c-7.034 2.02-14.03 4.176-20.993 6.438l-10.396 3.5 c-3.431 1.275-6.897 2.457-10.301 3.812c-3.411 1.332-6.828 2.649-10.188 4.113c-3.393 1.381-6.712 2.938-10.044 4.5 c-6.606 3.174-13.12 6.578-19.293 10.584c-0.173 0.115-0.292 0.317-0.292 0.543c0.002 0.4 0.3 0.6 0.6 0.636h153.83 c0.355 0 0.641-0.285 0.641-0.642V36.164c0-0.102-0.025-0.211-0.076-0.305c-0.169-0.311-0.557-0.426-0.867-0.26l-0.005 0 c-2.513 1.59-4.994 3.158-7.45 4.795c-2.453 1.631-4.883 3.309-7.192 5.166c-1.155 0.93-2.292 1.895-3.338 3 c-0.533 0.531-1.021 1.117-1.497 1.724c-0.466 0.614-0.93 1.258-1.274 2.016c-0.399 0.721-0.601 1.623-0.613 2.6 c0.087 0.5 0.1 1 0.3 1.455l0.319 0.695c0.129 0.2 0.3 0.4 0.4 0.594c0.284 0.4 0.6 0.7 1 1.1 c0.347 0.3 0.7 0.6 1 0.875c0.728 0.6 1.4 1 2.2 1.516c0.501 0.4 1.1 0.6 1.8 0.5 c1.505-0.106 2.639-1.412 2.531-2.916c-0.105-1.504-1.412-2.64-2.917-2.531h-0.022c-0.631 0.045-1.365 0.104-1.936-0.021 c-0.312-0.039-0.636-0.073-0.877-0.182c-0.272-0.088-0.562-0.174-0.76-0.311c-0.517-0.232-0.744-0.602-0.987-1.047 c-0.111-0.484-0.18-1.086 0.036-1.707c0.161-0.623 0.471-1.248 0.841-1.838c0.364-0.596 0.802-1.16 1.268-1.699 c0.93-1.09 2.145-2.129 3.245-3.084c2.185-1.922 4.365-3.521 6.825-5.109c0.839-0.537 2.549-1.605 2.549-1.605 s-0.48 2.2 1 3.207c1.496 1 3.2 0.4 3.2 0.429v26.651H100.965c5.54-3.45 11.339-6.489 17.231-9.321 c3.315-1.521 6.617-3.068 9.995-4.447c3.347-1.453 6.75-2.769 10.151-4.094c3.391-1.349 6.847-2.527 10.269-3.8l10.367-3.532 c6.945-2.254 13.925-4.406 20.946-6.425c7.02-2.016 14.074-3.919 21.15-5.729c7.08-1.807 14.185-3.506 21.305-5.145l10.7-2.377 l10.726-2.246c7.165-1.434 14.336-2.836 21.527-4.131c7.193-1.291 14.391-2.547 21.61-3.678 c3.605-0.588 7.215-1.152 10.831-1.674c3.615-0.531 7.225-1.096 10.847-1.566c7.235-1.021 14.486-1.922 21.74-2.809l10.893-1.217 l10.903-1.102c7.275-0.686 14.554-1.336 21.842-1.844c3.643-0.273 7.287-0.533 10.935-0.727 c3.647-0.211 7.291-0.459 10.941-0.598c7.298-0.359 14.6-0.584 21.903-0.75l10.956-0.135c0 0-1.667 2.664-0.573 4.2 c1.095 1.5 3.9 1.9 3.9 1.895l-28.095 28.096c-0.114 0.115-0.188 0.277-0.188 0.453c0 0.4 0.3 0.6 0.6 0.6 h70.507c0.354 0 0.641-0.287 0.641-0.644C475.592 36.8 475.3 36.5 475 36.484z"/>
			<path d="M114.579-43.345c-0.233-2.26-2.12-4.027-4.44-4.027c-1.797 0-3.336 1.064-4.052 2.6 c1.341 0.9 2.7 1.9 4 2.993C111.558-42.322 113.068-42.831 114.579-43.345z"/>
			<path d="M251.897 65.555c-2.319 0.057-4.185 1.932-4.213 4.26h4.213V65.555z"/>
		</g>
		<g>
			<path d="M402.773-14.887c0.615 1.8 1.9 3.1 3 4.237l0.16 0.152c1.071 1 2.8 1 3.817-0.064 c1.039-1.072 1.009-2.781-0.063-3.818c-0.387-0.371-0.853-0.608-1.343-0.704c-2.155-0.44-3.67-1.671-2.735-3.637 c0.471-0.927 1.398-1.767 2.477-2.331c1.074-0.579 2.301-0.947 3.552-1.107c2.505-0.269 5.2 0 7.7 0.4 c2.584 0.4 5.1 1 7.7 1.731c5.059 1.4 10 3.4 14.8 5.454c4.84 2.1 9.6 4.4 14.3 6.9 c9.321 5 18.4 10.5 27.2 16.275c0.493 0.3 1 0.7 1.5 0.986v16.859c0 0.4 0.3 0.6 0.6 0.641h24.144 c0.354 0 0.641-0.289 0.641-0.641c0.004-0.207-0.102-0.395-0.254-0.512l-0.002-0.004c-4.287-3.133-8.617-6.182-12.979-9.188 c-3.601-2.482-7.25-4.889-10.904-7.281v-70.186h8.758v35.036c0 0.4 0.3 0.6 0.6 0.64c0.241 0 0.449-0.129 0.56-0.32 l0.006-0.01c2-3.541 4.265-6.987 6.644-10.315c2.386-3.329 4.937-6.541 7.65-9.604c2.722-3.052 5.618-5.948 8.729-8.592 c1.559-1.318 3.178-2.559 4.844-3.729c1.676-1.154 3.412-2.217 5.197-3.182c0.315-0.166 0.436-0.551 0.27-0.864 c-0.115-0.217-0.342-0.339-0.568-0.341h-32.688v-26.496H920.57c0 0 3.8 0.2 3.8 3.046c0 2.833-3.996 4.362-3.996 4.4 l-7.111 2.43c-2.362 0.834-4.698 1.737-7.051 2.604c-2.35 0.871-4.699 1.735-7.014 2.699l-6.969 2.819l-6.894 3 c-2.313 0.968-4.553 2.097-6.832 3.14c-2.281 1.036-4.521 2.159-6.76 3.288l-3.361 1.688l-3.317 1.8 c-2.224 1.157-4.406 2.394-6.582 3.642c-2.195 1.211-4.314 2.559-6.474 3.838c-2.114 1.351-4.241 2.685-6.309 4.1 c-1.978 1.35-3.91 2.729-5.793 4.269c-4.472-1.565-8.937-3.046-13.418-4.537l-13.795-4.493 c-9.213-2.955-18.445-5.849-27.709-8.638l-13.916-4.12c-4.646-1.354-9.302-2.668-13.968-3.951 c-2.325-0.661-10.975-3.185-10.975-4.466c0-1.283 13.039-1.687 13.039-1.687l30.346-0.018l30.347 0.184l7.586 0.043l3.793 0 c1.271 0 2.5 0 3.7 0.132c1.219 0.1 2.4 0.4 3.5 0.823c1.063 0.4 2 1.2 2.1 1.9 c0.139 0.647-0.283 1.371-1.017 2.007c-0.367 0.305-0.785 0.595-1.26 0.813c-0.225 0.108-0.484 0.229-0.705 0.292l-0.83 0.3 l-0.057 0.02c-1.41 0.442-2.193 1.942-1.75 3.35c0.442 1.4 1.9 2.2 3.4 1.75c0.486-0.152 0.902-0.439 1.215-0.794 c0.211-0.242 0.435-0.464 0.75-0.79c0.293-0.306 0.535-0.565 0.785-0.877c0.486-0.602 0.957-1.225 1.338-1.935 c0.373-0.712 0.715-1.484 0.851-2.37c0.151-0.875 0.004-1.888-0.416-2.712c-0.441-0.825-1.115-1.387-1.777-1.761 c-0.674-0.373-1.342-0.625-2.014-0.8c-1.336-0.34-2.648-0.47-3.949-0.528c-2.615-0.076-5.092 0.004-7.635-0.002l-7.586 0 l-30.347 0.183l-30.346-0.016l-15.17-0.092l-15.174-0.155h-0.002c-0.353 0-0.642 0.288-0.642 0.64c0 0.3 0.2 0.6 0.5 0.6 l7.05 1.673c2.35 0.6 4.7 1.2 7 1.765c2.344 0.6 4.7 1.2 7 1.833c2.334 0.6 4.7 1.2 7 1.9 c4.658 1.3 9.3 2.6 13.9 3.949l13.904 4.117c9.256 2.8 18.5 5.7 27.7 8.629l13.787 4.5 c4.582 1.5 9.2 3 13.7 4.645c0.226 0.1 0.5 0 0.638-0.114l0.006-0.008c1.875-1.551 3.922-3.014 5.971-4.412 c2.047-1.419 4.16-2.743 6.262-4.085c2.144-1.271 4.25-2.611 6.435-3.814c2.166-1.244 4.336-2.473 6.549-3.623l3.303-1.767 l3.349-1.678c2.229-1.123 4.459-2.242 6.731-3.276c2.271-1.037 4.502-2.16 6.806-3.128l6.866-2.987l6.947-2.812 c2.306-0.96 4.648-1.824 6.99-2.691c2.342-0.86 4.674-1.763 7.027-2.594l7.092-2.422l3.547-1.209l3.576-1.115l7.157-2.224 c2.38-0.751 4.802-1.375 7.201-2.067l7.215-2.029l0.009-0.004c0.342-0.096 0.541-0.449 0.442-0.79 c-0.08-0.283-0.336-0.47-0.617-0.47H495.559c-0.351 0-0.64 0.29-0.64 0.645v27.135h-9.4c-0.354 0-0.64 0.284-0.64 0.641V8.619 c-0.349-0.229-0.696-0.457-1.044-0.686C474.952 2.2 465.88-3.332 456.533-8.338c-4.661-2.523-9.392-4.927-14.234-7.103 c-4.842-2.171-9.79-4.143-14.895-5.669c-2.555-0.759-5.147-1.404-7.79-1.853c-2.656-0.416-5.304-0.714-8.076-0.508 c-1.378 0.135-2.752 0.412-4.086 0.931c-1.325 0.524-2.644 1.264-3.697 2.514c-0.526 0.622-0.949 1.412-1.159 2.3 C402.387-16.792 402.478-15.785 402.773-14.887z M496.201-36.305v-24.42h22.219c0 0 2.512-0.163 3.1 1.8 c0.375 1.281-1.612 2.699-3.198 4.039c-3.166 2.689-6.105 5.63-8.86 8.723c-2.745 3.099-5.322 6.344-7.729 9.7 c-1.952 2.727-3.886 5.464-4.847 5.092C495.921-31.723 496.201-36.305 496.201-36.305z M486.161 10.4 c3.479 2.3 6.9 4.7 10.3 7.1c1.232 0.9 3.7 2.6 3.7 2.641s3.11 2.5 2.1 4 c-0.988 1.494-3.443 1.629-3.443 1.629h-12.713V10.445z"/>
			<path d="M475.048 36.484h61.292c0 0-1.121-2.564-0.082-3.605c1.043-1.041 3.154-0.988 3.154-0.988L509.85 2.3 c-0.113-0.115-0.191-0.277-0.191-0.453c-0.002-0.352 0.283-0.637 0.637-0.639l10.979-0.045l10.975 0.1 c7.316 0.2 14.6 0.4 21.9 0.75c3.655 0.1 7.3 0.4 11 0.6c3.653 0.2 7.3 0.5 10.9 0.7 c7.299 0.5 14.6 1.2 21.9 1.844l10.918 1.102l10.908 1.223c7.26 0.9 14.5 1.8 21.8 2.8 c3.629 0.5 7.2 1 10.9 1.566c3.621 0.5 7.2 1.1 10.8 1.676c7.229 1.1 14.4 2.4 21.6 3.7 c7.196 1.3 14.4 2.7 21.6 4.137l10.742 2.248l10.713 2.379c7.131 1.6 14.2 3.3 21.3 5.2 c7.088 1.8 14.2 3.7 21.2 5.742c7.036 2 14 4.2 21 6.438l10.396 3.5 c3.432 1.3 6.9 2.5 10.3 3.811c3.412 1.3 6.8 2.6 10.2 4.113c3.396 1.4 6.7 2.9 10 4.5 c6.604 3.2 13.1 6.6 19.3 10.584c0.172 0.1 0.3 0.3 0.3 0.543c-0.003 0.354-0.289 0.637-0.644 0.635h-153.83 c-0.354 0-0.641-0.285-0.641-0.641V36.164c0-0.102 0.024-0.211 0.076-0.305c0.168-0.311 0.557-0.426 0.866-0.26l0.007 0 c2.514 1.6 5 3.2 7.4 4.795c2.453 1.6 4.9 3.3 7.2 5.166c1.156 0.9 2.3 1.9 3.3 3 c0.531 0.5 1 1.1 1.5 1.724c0.467 0.6 0.9 1.3 1.3 2.016c0.4 0.7 0.6 1.6 0.6 2.6 c-0.086 0.469-0.094 1.021-0.34 1.455l-0.318 0.695c-0.127 0.209-0.28 0.389-0.424 0.594c-0.283 0.432-0.617 0.736-0.959 1.1 c-0.346 0.34-0.688 0.613-1.049 0.875c-0.727 0.574-1.436 0.979-2.184 1.516c-0.505 0.361-1.132 0.562-1.795 0.5 c-1.505-0.106-2.638-1.412-2.529-2.916c0.104-1.504 1.412-2.64 2.916-2.531h0.021c0.631 0 1.4 0.1 1.938-0.021 c0.311-0.039 0.635-0.073 0.875-0.182c0.272-0.088 0.563-0.174 0.762-0.311c0.516-0.232 0.742-0.602 0.986-1.047 c0.111-0.484 0.18-1.086-0.035-1.707c-0.162-0.623-0.473-1.248-0.846-1.838c-0.361-0.596-0.797-1.16-1.267-1.699 c-0.93-1.09-2.146-2.129-3.244-3.084c-2.186-1.922-4.364-3.521-6.827-5.109c-0.836-0.537-2.548-1.605-2.548-1.605 s0.48 2.244-1.014 3.207c-1.496 0.961-3.149 0.429-3.149 0.429v26.651h150.932c-5.541-3.45-11.34-6.489-17.232-9.321 c-3.313-1.521-6.614-3.068-9.996-4.447c-3.344-1.453-6.75-2.769-10.147-4.094c-3.394-1.349-6.851-2.527-10.271-3.8l-10.366-3.532 c-6.947-2.254-13.927-4.406-20.945-6.425c-7.023-2.016-14.074-3.919-21.152-5.729c-7.078-1.807-14.182-3.506-21.303-5.145 l-10.699-2.377l-10.727-2.246c-7.164-1.434-14.338-2.836-21.529-4.131c-7.19-1.291-14.389-2.547-21.606-3.678 c-3.609-0.588-7.216-1.152-10.832-1.674c-3.615-0.531-7.226-1.096-10.849-1.566c-7.235-1.021-14.485-1.922-21.739-2.809 l-10.894-1.217l-10.904-1.102C590.568 5.8 583.3 5.2 576 4.678c-3.643-0.273-7.285-0.533-10.934-0.727 c-3.646-0.211-7.293-0.459-10.943-0.598c-7.295-0.359-14.598-0.584-21.9-0.75l-10.957-0.135c0 0 1.7 2.7 0.6 4.2 c-1.096 1.547-3.928 1.895-3.928 1.895l28.096 28.096c0.115 0.1 0.2 0.3 0.2 0.453c0 0.355-0.287 0.643-0.644 0.6 h-70.504c-0.353 0-0.641-0.287-0.641-0.643C474.407 36.8 474.7 36.5 475 36.484z"/>
			<path d="M835.422-43.345c0.23-2.26 2.119-4.027 4.441-4.027c1.795 0 3.3 1.1 4 2.6 c-1.342 0.948-2.662 1.933-3.959 2.993C838.441-42.322 836.932-42.831 835.422-43.345z"/>
			<path d="M698.104 65.555c2.318 0.1 4.2 1.9 4.2 4.26h-4.214V65.555z"/>
		</g>
		<path d="M595.727-57.328c0.535-4.175-1.58-6.564-6.348-7.179l0.238-1.827l17.781 2.292c0.534 0.1 1.1 0.6 1.6 1.5 c0.563 0.9 0.9 1.4 1 1.383c3.412-1.782 6.761-2.463 10.05-2.038c15.496 2 22.5 8.6 21.1 19.901L638.3-21.025 c-0.541 4.2 1.6 6.6 6.3 7.175l-0.232 1.827l-27.863-3.588l0.238-1.825c4.271 0.5 6.672-1.262 7.211-5.432l2.76-21.416 c1.369-10.651-0.922-16.359-6.881-17.128c-3.065-0.397-6.231 0.322-9.494 2.146c-0.012 0.757-0.131 2.017-0.354 3.8 l-3.906 30.313c-0.537 4.2 1.3 6.5 5.6 7.083l-0.233 1.825l-27.859-3.59l0.236-1.825c4.766 0.6 7.418-1.163 7.955-5.334 L595.727-57.328z"/>
		<path d="M684.557-9.091c4.109-1.471 7.56-3.768 10.353-6.881l1.373 1.24c-2.947 3.28-6.648 5.742-11.104 7.4 c-3.828 1.418-8.701 1.631-14.604 0.643c-8.054-1.346-13.879-4.42-17.474-9.224c-3.59-4.803-4.735-11.098-3.438-18.881 c1.299-7.761 4.451-13.336 9.465-16.729c4.971-3.37 11.453-4.394 19.447-3.056c7.981 1.3 13.8 4.4 17.4 9.2 c3.638 4.8 4.8 11.1 3.5 18.895l-35.586-5.944c-1.509 9.018-1.98 14.603-1.427 16.754c1.033 4 3.8 6.4 8.4 7.2 C676.375-7.598 680.936-7.791 684.557-9.091z M685.553-30.679c1.338-7.992 1.719-13.031 1.152-15.105 c-1.064-3.9-3.875-6.229-8.435-6.991c-4.521-0.757-7.68 0.272-9.471 3.085c-1.828 2.882-3.361 8.03-4.6 15.444L685.553-30.679z"/>
		<path d="M744.762 4.635l-0.362 1.803l-27.531-5.545l0.363-1.805c2.895 0.5 4.502-0.102 4.825-1.707 c0.123-0.615 0.06-1.375-0.192-2.279l-3.279-11.863l-10.063 9.173c-1.063 0.959-1.666 1.805-1.813 2.5 c-0.26 1.3 0.9 2.2 3.6 2.758l0.293 0.059l-0.363 1.801L695.959-3.32l0.365-1.801c1.842 0.4 3.2 0.6 3.9 0.6 c1.498-0.018 3.621-1.287 6.377-3.809l11.41-10.438l-6.069-21.96c-0.55-1.964-1.388-3.573-2.515-4.835 c-0.699-0.779-1.99-1.36-3.881-1.739l0.363-1.804l16.78 3.38c2.021 0.5 3.7 3.1 5 7.796l2.928 10.665l8.85-8.293 c1.213-1.132 1.83-1.762 1.857-1.885c0.342-1.704-1.07-2.876-4.234-3.516l0.363-1.802l14.278 2.876l-0.36 1.8 c-1.875-0.377-3.531-0.373-4.965 0.018c-1.613 0.54-3.295 1.626-5.037 3.254l-10.193 9.532l6.398 23.2 C738.613 1.6 741 3.9 744.8 4.635z"/>
		<path d="M806.963-26.89l-1.664 13.325l-1.834-0.248c0.717-7.847-2.815-12.705-10.602-14.581l-2.775-0.669L781.44 6.8 c-0.99 4.1 0.9 6.7 5.5 7.832l-0.43 1.791l-28.066-6.768l0.431-1.789c4.678 1.1 7.51-0.352 8.5-4.449l8.646-35.887 l-2.774-0.669c-7.785-1.876-13.146 0.842-16.08 8.149l-1.746-0.614l4.588-12.621L806.963-26.89z"/>
		<path fill="none" stroke="#000000" stroke-width="0.5" d="M692.596-1.08"/>
		<g>
			<path d="M173.25-33.669c7.333-1.769 13.4-1.706 18.2 0.191c5.771 2.3 9.3 6.1 10.6 11.4 c1.285 5.33-0.189 10.039-4.424 14.126c-3.379 3.25-8.822 5.781-16.326 7.588l-8.918 2.152l1.049 4.3 c0.987 4.1 3.8 5.6 8.5 4.449l0.432 1.789l-28.066 6.768l-0.432-1.791c4.678-1.127 6.523-3.738 5.537-7.834l-7.36-30.533 c-1.03-3.529-3.799-4.748-8.306-3.662l-0.433-1.788L173.25-33.669z M171.936 0.02l8.917-2.152 c7.017-1.691 9.4-7.201 7.151-16.532c-2.531-10.504-7.305-14.905-14.322-13.218l-8.917 2.152L171.936 0.02z"/>
			<path d="M229.798-45.796c7.403-1.436 13.459-1.098 18.2 1.014c5.659 2.5 8.8 5.6 9.5 9.2 c1.2 6.186-2.25 11.864-10.345 17.033c2.26-0.323 3.934-0.153 5 0.518l10.524 10.25c0.833 0.8 2.8 0.9 5.8 0.3 l0.346 1.789c-3.325 1.207-6.629 2.129-9.914 2.766c-5.891 1.143-10.906-0.729-15.043-5.619l-6.403-7.564l-7.14 1.4 l1.535 7.914c0.801 4.1 3.6 5.7 8.3 4.824l0.351 1.811l-28.335 5.492l-0.351-1.809c4.723-0.916 6.684-3.439 5.883-7.572 l-5.976-30.824c-0.871-3.57-3.581-4.912-8.131-4.03l-0.351-1.81L229.798-45.796z M229.973-16.452l5.313-1.029 c7.083-1.373 9.746-6.598 7.987-15.673c-1.667-8.597-6.042-12.206-13.125-10.833l-5.312 1.029L229.973-16.452z"/>
			<path d="M307.78-15.626c3.426-2.691 5.968-5.954 7.631-9.786l1.693 0.739c-1.756 4.037-4.485 7.539-8.183 10.5 c-3.182 2.553-7.726 4.294-13.631 5.23c-8.057 1.268-14.544 0.193-19.465-3.224c-4.919-3.416-7.993-9.013-9.219-16.798 c-1.225-7.76 0.002-14.039 3.679-18.834c3.641-4.767 9.461-7.777 17.456-9.039c7.981-1.26 14.445-0.183 19.4 3.2 c4.973 3.4 8.1 9 9.3 16.789l-35.585 5.61c1.422 9 2.7 14.5 3.9 16.322c2.244 3.5 5.7 4.8 10.2 4.1 C300.502-11.63 304.761-13.25 307.78-15.626z M301.905-36.391c-1.262-7.995-2.488-12.885-3.682-14.671 c-2.238-3.358-5.637-4.68-10.197-3.959c-4.522 0.712-7.188 2.686-7.994 5.913c-0.822 3.31-0.647 8.7 0.5 16.1 L301.905-36.391z"/>
			<path d="M321.928-54.028c-1.12-2.017-2.375-3.329-3.76-3.936c-0.96-0.425-2.422-0.515-4.382-0.272l-0.228-1.824l16.983-2.109 c2.023-0.248 4.1 1.7 6.3 5.936l12.929 23.125l6.809-25.576c0.284-1.068 0.409-1.733 0.377-1.991 c-0.237-1.913-1.87-2.685-4.899-2.309l-0.227-1.823l11.62-1.439l0.227 1.821c-2.663 0.393-4.412 2.351-5.247 5.872l-7.366 27.8 l-3.773 14.556l-2.252 0.278c-1.329 0.166-2.287-0.302-2.877-1.399l-2.886-5.43L321.928-54.028z"/>
		</g>
	</g>
</g>
<g opacity="0.9">
	<path d="M429.603 43.965v13.67c0 0.3 0.2 0.5 0.5 0.502c0.277 0 0.5-0.225 0.5-0.502v-6.762 c-0.059 0.058-0.11 0.12-0.116 0.212c-0.271-0.041-0.333-0.219-0.668-0.219c0-0.146 0-0.291 0-0.437c0.261 0 0.5 0 0.8 0 v-6.465c0-0.277-0.223-0.502-0.5-0.502C429.827 43.5 429.6 43.7 429.6 43.965z M429.819 55.2 C429.959 55.1 429.6 55.4 429.8 55.239L429.819 55.239z M429.819 43.871C429.959 43.8 429.6 44 429.8 43.9 L429.819 43.871z"/>
	<path d="M579.746 64.83h-9.503c-0.23 0.073-0.547 0.09-0.938 0.059c0.005-0.023 0.025-0.037 0.033-0.059h-6.061 c0.001 0 0 0 0 0.059c-0.248 0.035-0.396 0.006-0.491-0.059h-1.824c-0.068 0.195-0.377 0.309-0.41 0h-11.039 c-0.134 0.077-0.354 0.07-0.53 0h-1.054c0.014 0.3 0 0.536-0.029 0.715c-0.665-0.133-0.561-0.413-0.436-0.715h-1.563 c-0.011 0.087-0.014 0.18-0.007 0.278c-0.197 0.022-0.322-0.11-0.376-0.278H530.9c0.03 0.195-0.467 0.43-0.405 0h-0.598 c0.03 0.195-0.466 0.43-0.405 0h-8.459c-0.074 0.034-0.15 0.044-0.201 0H508.33c-0.075 0.034-0.151 0.044-0.201 0h-3.142 c-0.074 0.034-0.151 0.044-0.201 0h-1.248c0.144 0.1 0.3 0.1 0.6 0.278c-0.113 0.299-0.374 0.501-0.604 0.724h4.936 c-0.006-0.089-0.005-0.182 0.015-0.287c0.195 0.1 0.3 0.2 0.4 0.287h1.619c0.117-0.126 0.324-0.19 0.621-0.067 c0.008 0.028-0.005 0.043-0.003 0.067h21.733c0-0.022 0-0.045 0-0.067c0.07 0 0.1 0 0.2 0.067h26.545 c0-0.022 0-0.045 0-0.067c0.223 0 0.4 0 0.7 0c0 0 0 0 0 0.067h19.467c0.277 0 0.502-0.225 0.502-0.502 C580.248 65.1 580 64.8 579.7 64.83z M504.784 65.327C505.786 65.4 504.5 66.2 504.8 65.327L504.784 65.327z M531.528 64.889C532.53 64.9 531.2 65.8 531.5 64.889L531.528 64.889z M537.546 64.9 c0.362 0.1 0.2 0.4 0.7 0.438C537.972 66.2 536.6 65.3 537.5 64.889z"/>
	<path d="M540.89 63.141c-0.5-0.066-0.737 0.038-0.998 0.129h6.749c-1.954-0.692-0.521-1.583 0.2 0h12.486 c-0.376-0.104-0.59-0.488 0.597-0.348c-0.03 0.204-0.139 0.306-0.269 0.348h6.801c0.04-0.04 0.091-0.083 0.154-0.129 c0.086 0 0.2 0.1 0.2 0.129h7.523c-0.021-0.038-0.034-0.082-0.041-0.129c0-0.146 0-0.291 0-0.438 c0.54-0.062 0.6 0.2 1 0.219c-0.072 0.202-0.489 0.18-0.616 0.348h7.604c0.277 0 0.5-0.225 0.5-0.502 c0-0.274-0.223-0.5-0.5-0.5h-41.725C540.817 62.5 540.9 62.8 540.9 63.141z"/>
	<path d="M803.256 71.098h0.426c-0.009-0.103-0.01-0.21-0.028-0.306C803.478 70.9 803.4 71 803.3 71.098z"/>
	<path d="M532.236 43.965v10.43c0.211 0 0.4 0 0.6 0c0 0.1 0 0.3 0 0.438c-0.209 0-0.419 0-0.63 0v2.803 c0 0.3 0.2 0.5 0.5 0.502s0.502-0.225 0.502-0.502v-2.144c-0.014-0.003-0.024 0.001-0.038-0.003 c-0.071-0.177-0.038-0.283 0.038-0.362v-2.403c-0.156 0.1-0.316 0.195-0.372 0.36c-1.173-0.061 0.839-0.813-0.335-0.874 c-0.062-0.186 0.13-0.207 0.335-0.219c0.124 0 0.2 0 0.4 0v-8.025c0-0.277-0.226-0.502-0.502-0.502 C532.459 43.5 532.2 43.7 532.2 43.965z"/>
	<path d="M540.011 62.268h-2.78c0 0.068-0.006 0.141-0.019 0.217c-0.456 0.034-0.731-0.051-0.88-0.217h-2.056 c-0.194 0.268-0.205 0.655-0.277 1.002h5.548C539.527 63.1 539.6 62.7 540 62.268z"/>
	<path d="M533.993 62.268h-3.899c-0.088 0.02-0.159 0.021-0.215 0h-11.262c-0.058 0.069-0.113 0.143-0.127 0.2 c-0.229-0.062-0.287-0.135-0.271-0.217h-19.156c-0.093 0.149-0.286 0.233-0.631 0.217c0-0.072 0-0.145 0-0.217h-1.654 c0.192 0.1 0.4 0.2 0.7 0.217c-0.178 0.177-0.348 0.354-0.333 0.656c-0.906 0.026-1.104-0.411-1.263-0.873h-1.407 c0.584 0.2 0 0.396-0.005 0.654c-0.594-0.16-0.052-0.397-0.001-0.654h-4.317c-0.059 0.17-0.415 0.316-0.405 0h-3.605 c-0.06 0.17-0.416 0.316-0.406 0h-1.393c-0.087 0.02-0.159 0.021-0.215 0h-2.443c0 0.1 0 0.3 0 0.4 c-0.53 0.022-0.601 0.346-0.779 0.598h18.467c0.033-0.045 0.063-0.091 0.112-0.129c0.058 0 0.1 0.1 0.2 0.129h15.019 c-0.252-0.208-0.061-0.934 0.516-0.129c-0.07 0.061-0.132 0.1-0.189 0.129h18.457C533.516 62.9 533.7 62.5 534 62.268z M483.389 62.484C483.166 63.5 481.4 62.3 483.4 62.484L483.389 62.484z M485.061 63.141c-0.223 0-0.445 0-0.668 0 c0-0.146 0-0.291 0-0.438c0.223 0 0.4 0 0.7 0C485.061 62.9 485.1 63 485.1 63.141z M503.782 63.1 c0-0.219 0-0.438 0-0.656c0.438 0.1 0.5 0.4 1 0.438C504.73 63.2 504.2 63.1 503.8 63.141z M507.125 62.7 C508.126 62.7 506.8 63.6 507.1 62.703L507.125 62.703z M512.139 62.703C513.141 62.7 511.8 63.6 512.1 62.7 L512.139 62.703z M516.818 62.484c0.058-0.063 0.093-0.105 0.116-0.131C516.774 62.5 516.1 63.3 516.8 62.484z"/>
	<path d="M417.274 43.463c-0.277 0-0.501 0.225-0.501 0.502v2.752c0.003-0.002 0.005-0.003 0.008-0.004 c0.514 0.1 0.3 0.274-0.008 0.314v10.607c0 0.3 0.2 0.5 0.5 0.502c0.276 0 0.501-0.225 0.501-0.502v-4.73 c-0.142 0.164-0.514 0.244-0.325-0.289c0.187 0 0.3 0 0.3 0.098v-8.748C417.775 43.7 417.6 43.5 417.3 43.463z "/>
	<path d="M495.425 65.545c-0.036-0.33 0.263-0.443 0.316-0.715h-1.836c-0.073 0.098-0.134 0.192-0.153 0.3 c-0.348-0.051-0.543-0.152-0.637-0.278h-6.032c-0.008 0.021-0.008 0.038-0.017 0.059c-0.112-0.008-0.206-0.028-0.286-0.059h-6.354 c-0.006 0.001-0.01-0.001-0.015 0h-3.087c-0.021 0.185-0.439 0.371-0.405 0h-5.355c-0.063 0.154-0.874 0.21-0.641 0h-1.582 c-0.026 0.01-0.047 0.018-0.075 0.028c-0.134 0.051-0.208 0.079-0.24 0.091c0.047-0.018 0.177-0.067 0.314-0.119h-48.178 c-0.013 0.01-0.021 0.018-0.034 0.028c-0.02-0.01-0.031-0.019-0.049-0.028h-5.612c-0.009 0.01-0.013 0.018-0.022 0 c-0.02-0.01-0.031-0.019-0.049-0.028h-39.796c0.022 0 0 0 0.1 0.028c0.495 0.449-0.037 0.149-0.265-0.028h-5.384 c-0.021 0.185-0.44 0.371-0.406 0h-3.939c-0.276 0-0.5 0.225-0.5 0.5c0 0.3 0.2 0.5 0.5 0.502h19.672 c0.009-0.037 0.005-0.058 0.018-0.1c0.104 0 0.2 0.1 0.2 0.1h7.83c-0.153-0.028-0.165-0.124 0.301-0.318 c0.53 0.2 0.3 0.282-0.034 0.318h39.148c0-0.106 0-0.213 0-0.318c0.334 0 0.7 0 1 0 c-0.059 0.144-0.205 0.229-0.347 0.318h11.291c0.015-0.018 0.025-0.029 0.042-0.049c0.056-0.063 0.108-0.121 0.146-0.164 c-0.025 0.029-0.057 0.063-0.099 0.113c-0.017 0.019-0.031 0.034-0.047 0.051c-0.014 0.017-0.028 0.032-0.042 0.049h37.543 c0.332-0.217 0.229-0.598 0.403-0.724c0.086 0.3 0.7 0.2 1 0c-0.019 0.3 0 0.5 0.2 0.724h4.874 c-0.019-0.017-0.014-0.018 0 0h7.445C496.305 65.6 496.4 65.4 495.4 65.545z M394.048 65.1 C393.828 65.2 394.2 65 394 65.077L394.048 65.077z M407.754 64.858C407.895 64.8 407.5 65 407.8 64.9 L407.754 64.858z M410.765 64.858C410.543 65 410.9 64.8 410.8 64.858L410.765 64.858z M420.458 65.7 C420.6 65.6 420.2 65.9 420.5 65.732L420.458 65.732z M449.208 64.858C449.349 64.8 449 65 449.2 64.9 L449.208 64.858z M459.571 65.514C459.712 65.4 459.4 65.7 459.6 65.514L459.571 65.514z M467.261 64.9 C467.401 64.8 467 65 467.3 64.858L467.261 64.858z M467.93 65.296C468.931 65.3 467.6 66.2 467.9 65.3 L467.93 65.296z M471.941 65.296C472.083 65.2 471.7 65.4 471.9 65.296L471.941 65.296z M478.293 64.9 c0.639 0.1 1.4 0.1 1.3 0.655C478.99 65.4 478.2 65.4 478.3 64.858z M480.967 65.3 C481.107 65.2 480.7 65.4 481 65.296L480.967 65.296z M489.74 64.889C490.742 64.9 489.4 65.8 489.7 64.9 L489.74 64.889z M494.086 65.327C495.088 65.4 493.8 66.2 494.1 65.327L494.086 65.327z"/>
	<path d="M403.979 43.799c-0.019 0.053-0.033 0.107-0.033 0.166v13.67c0 0.3 0.2 0.5 0.5 0.5 c0.276 0 0.501-0.225 0.501-0.502v-13.67c0-0.277-0.226-0.502-0.501-0.502c-0.126 0-0.238 0.051-0.327 0.1 C404.133 43.7 404.1 43.7 404 43.799z M404.078 48.899c0.221 0 0.4 0 0.7 0c0 0.3 0 0.6 0 0.9 C403.741 50 404.2 49.3 404.1 48.899z M404.411 57.207C405.412 57.3 404.1 58.1 404.4 57.207L404.411 57.207z M404.745 48.462C404.886 48.4 404.5 48.6 404.7 48.462L404.745 48.462z"/>
	<path d="M369.764 62.768c0 0.3 0.2 0.5 0.5 0.502h80.349c-0.353-0.176 0.183-0.701 0.266-0.816 c1.059 0.2 0.4 0.5 0.1 0.816h12.283c0.007-0.05 0.007-0.091 0.031-0.16c0.265 0 0.4 0.1 0.4 0.16h12.612 c-0.01-0.09-0.002-0.206 0.052-0.379c0.347 0.1 0.4 0.2 0.4 0.379h3.685c0.354-0.377 0.194-0.809-0.58-1.002h-6.593 c0.622 0.849-0.668 0.686-0.374 0h-18.611c-0.013 0.009-0.011 0 0 0h-4.043c-0.089 0.129-0.27 0.209-0.586 0.2 c0-0.061 0.002-0.123 0.004-0.186h-45.758c0.378 0.3 0.2 0.148-0.074 0h-2.697c-0.013 0.009-0.011 0 0 0h-1.438 c0.581 0.146-0.43 0.769-0.188 0h-4.725c-0.013 0.009-0.011 0 0 0h-1.598c-0.087 0.152-0.397 0.268-0.406 0h-8.917 c-0.008 0.063-0.023 0.125-0.063 0.186c-0.201-0.008-0.293-0.087-0.356-0.186h-8.803c-0.094 0.044-0.171 0.099-0.2 0.2 c-0.176-0.044-0.242-0.111-0.254-0.186h-3.805C369.988 62.3 369.8 62.5 369.8 62.768z M479.297 62.9 C480.6 63.4 478.2 63.2 479.3 62.891L479.297 62.891z M453.555 62.672C453.334 62.8 453.7 62.6 453.6 62.7 L453.555 62.672z M433.162 62.672c0.223 0 0.4 0 0.7 0c0 0.1 0 0.3 0 0.438c-0.223 0-0.446 0-0.669 0 C433.162 63 433.2 62.8 433.2 62.672z M425.472 62.672c-0.062 0.178-0.334 0.219-0.334 0.4 C424.352 63 424.9 62.1 425.5 62.672z M407.754 62.672C407.895 62.6 407.5 62.8 407.8 62.672L407.754 62.672z M400.4 62.891C400.181 63 400.5 62.8 400.4 62.891L400.4 62.891z M398.729 62.672c-0.05 0.545-1.131 0.064-1.337 0 C397.611 62 398.1 62.9 398.7 62.672z M384.687 63.109C384.828 63 384.5 63.3 384.7 63.109L384.687 63.109z M377.667 62.672C378.669 62.7 377.3 63.6 377.7 62.672L377.667 62.672z M373.99 63.1 C374.131 63 373.8 63.3 374 63.109L373.99 63.109z M370.646 62.672C371.754 63 369.3 63.2 370.6 62.7 L370.646 62.672z"/>
	<path d="M545.566 43.463c-0.277 0-0.502 0.225-0.502 0.502v6.73c0.074 0.1 0.2 0.2 0.5 0.2 c-0.073 0.228-0.289 0.135-0.506 0.021v4.183c0.07-0.085 0.153-0.176 0.171-0.27c0.596 0.2 0 0.4 0 0.7 c-0.073-0.02-0.129-0.041-0.171-0.063v2.209c0 0.3 0.2 0.5 0.5 0.502c0.275 0 0.5-0.225 0.5-0.502v-5.249 c-0.148 0.046-0.294-0.021-0.162-0.396c0.074 0 0.1 0 0.2 0.029v-8.055C546.066 43.7 545.8 43.5 545.6 43.463z "/>
	<path d="M519.406 43.965v13.67c0 0.3 0.2 0.5 0.4 0.487c-0.07-0.246 0.093-0.49 0.574-0.491v-9.99 c-0.348-0.032-1.674-0.156-0.246-0.023c0.121 0 0.2 0 0.2 0.023v-0.679c-0.082 0-0.164 0-0.246 0 c-0.056-0.343 0.003-0.61 0.246-0.757V44.12c-0.305 0-0.609 0-0.915 0c0-0.141 0-0.281 0-0.421 C519.443 43.8 519.4 43.9 519.4 43.965z M520.162 52.646C520.97 53.4 519 52.1 520.2 52.646L520.162 52.646z M520.162 55.707c-0.496-0.187-0.719-0.55-0.669-1.094C519.877 55 520.8 55.3 520.2 55.707z"/>
	<path d="M455.262 43.965v13.67c0 0.3 0.2 0.5 0.5 0.502c0.277 0 0.501-0.225 0.501-0.502v-1.985 c-0.025 0.212-0.593 0.443-0.369-0.192c0.24 0 0.3 0.1 0.4 0.139v-8.427c-0.011-0.007-0.025-0.012-0.036-0.019 c0.007-0.02 0.023-0.033 0.036-0.05v-3.136c0-0.277-0.224-0.502-0.501-0.502C455.486 43.5 455.3 43.7 455.3 43.965z M455.895 43.652C456.036 43.6 455.7 43.8 455.9 43.652L455.895 43.652z"/>
	<path d="M480.921 44.659c0.27 0 0.5 0.2 0 0.523c-0.019-0.01-0.029-0.019-0.046-0.028v9.34 c0.091 0.1 0.1 0.1 0 0.18v2.961c0 0.3 0.2 0.5 0.5 0.502c0.277 0 0.502-0.225 0.502-0.502v-0.197 c-0.06 0.085-0.131 0.162-0.206 0.237c-0.111 0-0.223 0-0.333 0c0-0.219 0-0.438 0-0.656c0.179 0 0.4 0 0.5 0v-1.985 c-0.221-0.039-0.311-0.166-0.539-0.201c0-0.072 0-0.146 0-0.219c0.271 0 0.4 0.1 0.5 0.28v-4.135 c-0.133 0.047-0.306 0.094-0.539 0.139c0-0.219 0-0.438 0-0.656c0.233 0 0.4 0.1 0.5 0.139v-5.823 c-0.068 0-0.137 0-0.206 0c0-0.146 0-0.292 0-0.437c0.069 0 0.1 0 0.2 0v-0.155c0-0.277-0.225-0.502-0.502-0.502 c-0.274 0-0.5 0.225-0.5 0.502V44.659z M481.636 43.871c0 0.1 0 0.1 0 0.219C481.451 44.1 481.3 43.9 481.6 43.871z M481.636 52.834c0 0.1 0 0.3 0 0.438C481.299 53.3 481.2 52.9 481.6 52.834z"/>
	<path d="M494.752 57.635v-0.383c-0.032 0.193-0.244 0.539-0.222 0.789C494.661 58 494.8 57.8 494.8 57.635z"/>
	<path d="M506.577 44.961v1.795c0.124-0.082 0.303-0.114 0.548-0.013c0.094 0.354-0.316 0.376-0.334 0.7 c-0.086 0.012-0.156 0-0.214-0.023v10.26c0 0.1 0 0.2 0.1 0.245c0.033-0.064 0.076-0.132 0.141-0.205 c0.178 0.2 0.3 0.3 0.3 0.453c0.254-0.024 0.454-0.232 0.454-0.493v-1.872c-0.208 0.091-0.458 0.153-0.788 0.2 c-0.124-0.545 0.149-0.83 0.788-0.877V43.965c0-0.275-0.221-0.498-0.495-0.501c-0.003 0-0.007 0-0.01 0 c-0.275 0.003-0.497 0.226-0.497 0.501v0.513C506.733 44.6 506.7 44.8 506.6 44.961z M506.791 53.5 C507.791 53.6 506.5 54.4 506.8 53.521L506.791 53.521z"/>
	<path d="M493.752 55.926L493.752 55.926l-0.001 1.709c0 0.2 0.1 0.4 0.3 0.464c-0.08-0.489-0.1-0.939 0.688-0.861v-1.919 C494.765 55.7 493.8 55.5 493.8 55.926z M494.422 56.581C495.229 57.3 493.3 56.1 494.4 56.581L494.422 56.581z"/>
	<path d="M496.525 64.83c0.19 0.2 0.3 0.4 0.9 0.278c0.033 0.349-0.193 0.529-0.397 0.724h5.357 c-0.119-0.271-0.267-0.571-0.613-0.943c1.251 0.6 1.1 0.1 1.321-0.059H496.525z M498.768 65.1 C499.574 65.8 497.6 64.6 498.8 65.108L498.768 65.108z"/>
	<path d="M519.906 43.463c-0.025 0-0.048 0.011-0.072 0.015c0.143 0 0.3 0 0.4 0.1 C520.109 43.5 520 43.5 519.9 43.463z"/>
	<path d="M481.378 62.268h-0.122C481.296 62.3 481.3 62.3 481.4 62.268z"/>
	<path d="M494.752 54.158v-3.704c-0.035-0.052-0.074-0.106-0.112-0.162c-0.042-0.06-0.082-0.117-0.116-0.166 c-0.035-0.051-0.063-0.091-0.076-0.11c0.017 0 0 0.1 0.1 0.11c0.032 0 0.1 0.1 0.1 0.2 c0.036 0.1 0.1 0.1 0.1 0.161v-6.488c0-0.277-0.224-0.502-0.501-0.502s-0.5 0.225-0.5 0.502v8.475 c0.192-0.024 0.409-0.033 0.671-0.013c-0.007 0.6 0 1.166-0.671 1.289v1.519c0.238-0.139 0.606-0.184 1 0.033v-0.641 C494.351 54.3 494.5 54 494.8 54.158z M494.086 48.493C493.867 48.6 494.2 48.4 494.1 48.493L494.086 48.493z M494.086 45.869C495.088 45.9 493.8 46.8 494.1 45.869L494.086 45.869z"/>
	<path d="M442.433 43.965v7.153c0.165 0.1 0.2 0.2 0 0.573v5.943c0 0.3 0.2 0.5 0.5 0.5 c0.277 0 0.501-0.225 0.501-0.502v-1.538c-0.137-0.177-0.17-0.421-0.243-0.64c0.08 0 0.2 0.1 0.2 0.092v-7.401 c-0.103 0.091-0.244 0.156-0.243 0.314c-0.271-0.041-0.333-0.22-0.668-0.219c0.063-0.177 0.335-0.218 0.334-0.438 c0.243 0 0.3 0.2 0.6 0.206v-4.047c0-0.277-0.225-0.502-0.501-0.502C442.657 43.5 442.4 43.7 442.4 43.965z M443.19 50.866C443.331 50.8 443 51 443.2 50.866L443.19 50.866z M443.199 53.063c-0.004-0.004-0.006-0.007-0.009-0.011 c-0.036-0.046-0.065-0.085-0.093-0.121C443.131 53 443.2 53 443.2 53.063z M442.856 46.9 C443.857 47 442.5 47.8 442.9 46.932L442.856 46.932z M442.522 44.526C443.523 44.6 442.2 45.4 442.5 44.5 L442.522 44.526z"/>
	<path d="M468.09 46.981c0.038-0.079 0.09-0.166 0.174-0.269c0.811 0.6 0.1 0.879-0.174 0.647v10.274 c0 0.3 0.2 0.5 0.5 0.502c0.277 0 0.501-0.225 0.5-0.502V47.109c-0.146 0.044-0.289-0.026-0.159-0.396 c0.072 0 0.1 0 0.2 0.029v-2.777c0-0.277-0.223-0.502-0.5-0.502c-0.276 0-0.501 0.225-0.501 0.502V46.981z"/>
	<path d="M849.138 68.37c-0.007 0.005-0.012 0.012-0.02 0.017c-0.134-0.05-0.227-0.126-0.301-0.215 c-3.597-2.198-7.283-4.236-11.032-6.146c-0.036 0.209-0.584 0.428-0.368-0.193c-0.201-0.102-0.403-0.2-0.604-0.301 c-0.089-0.032-0.215-0.076-0.397-0.141c-0.233-0.082 0.2 0.1 0.4 0.14c-1.479-0.745-2.964-1.479-4.456-2.195 c-3.334-1.529-6.65-3.086-10.046-4.467c-3.36-1.463-6.776-2.781-10.188-4.113c-3.403-1.354-6.869-2.535-10.301-3.811l-10.221-3.481 c-0.215 0-0.433 0-0.649 0c0-0.07 0-0.14 0-0.21c-1.131-0.366-2.269-0.714-3.401-1.075c-0.454 0.171-1.035 0.233-1.278-0.026 c0.042-0.166 0.126-0.251 0.225-0.307c-5.335-1.69-10.683-3.337-16.063-4.88c-1.83-0.525-3.667-1.023-5.5-1.533 c-0.07 0.127-0.907 0.009-0.633-0.176c-5.006-1.389-10.022-2.744-15.055-4.032c-1.809-0.462-3.624-0.898-5.436-1.347 c0.02 0.291-0.188 0.7 0.3 0.688c-0.563 0.692-0.894-0.498-0.998-0.852c-2.684-0.661-5.368-1.315-8.058-1.952 c0.016 0.1 0 0.1 0 0.181c-0.251-0.058-0.44-0.156-0.555-0.305c-2.219-0.524-4.437-1.055-6.659-1.566l-9.272-2.059 c0.08 0.1 0.1 0.225-0.229 0.431c-0.563-0.302-0.401-0.48-0.155-0.516l-1.057-0.235l-10.742-2.248 c-0.586-0.118-1.174-0.23-1.761-0.347c-0.067 0.195-0.266 0.304-0.661 0.286c0-0.139 0-0.277 0-0.417 c-3.634-0.725-7.271-1.432-10.91-2.124c-0.296 0.173-0.81 0.135-1.126-0.083c0.01-0.046 0.044-0.077 0.065-0.115 c-2.386-0.451-4.771-0.907-7.16-1.337c-2.78-0.5-5.563-0.986-8.347-1.47c0.021 0 0 0 0.1 0.1 c-0.456 0.397-0.653 0.062-0.621-0.179c-3.709-0.643-7.422-1.263-11.141-1.855c-0.091 0.003-0.183-0.013-0.264-0.044 c-0.443-0.07-0.886-0.149-1.33-0.219c-3.609-0.588-7.223-1.155-10.844-1.676c-1.763-0.256-3.523-0.522-5.286-0.782 c-0.077 0.18-0.174 0.328-0.267 0.383c-0.473-0.157-0.863-0.368-1.23-0.594c-1.358-0.196-2.717-0.395-4.078-0.572 c-0.505-0.071-1.012-0.133-1.517-0.203c-0.039 0.077-0.099 0.167-0.196 0.276c-0.255-0.123-0.336-0.245-0.33-0.347 c-1.35-0.187-2.7-0.363-4.051-0.542c0.013 0 0 0 0 0.015c0.517 0.468-0.082 0.123-0.291-0.05 c-0.964-0.127-1.927-0.262-2.891-0.387c-0.165 0-0.329 0-0.495 0c0-0.022 0-0.044 0-0.066c-4.008-0.517-8.018-1.017-12.027-1.504 l-10.908-1.223l-1.75-0.177c0.24 0.544-1.522 0.515-1.056-0.091c0.052 0 0.1 0 0.2 0l-1.825-0.184c0 0.1 0 0.3 0 0.4 c-0.223 0-0.446 0-0.669 0c0-0.146 0-0.291 0-0.438c0.107 0 0.2 0 0.3 0l-4.202-0.424c0.131 0.3 0 0.655-0.467 0.9 c-0.629 0.025-0.25-0.608-0.329-0.942l-1.097-0.111c-2.958-0.279-5.917-0.545-8.877-0.805c0.208 0.1 0.3 0.3 0.3 0.5 c-0.702 0.038-1.029-0.17-0.998-0.612c-1.372-0.12-2.746-0.225-4.118-0.338c-0.381 0.793-1.485 1.389-2.237 0.5 c-0.092-0.409 0.188-0.577 0.63-0.638c-2.182-0.174-4.361-0.359-6.544-0.51c-3.646-0.279-7.295-0.535-10.948-0.73 c-0.635-0.036-1.27-0.075-1.903-0.113c-0.08 0.158-0.952 0.209-0.603-0.036c-2.816-0.169-5.634-0.342-8.453-0.451 c-7.309-0.361-14.623-0.586-21.939-0.75l-10.975-0.135l-10.979 0.045c-0.354 0.002-0.639 0.287-0.637 0.6 c0 0.2 0.1 0.3 0.2 0.453l0.561 0.561c0.009-0.288 0.273-0.659 0.393-0.74c0.781 0.1 0.2 1 0 1.1 c-0.021-0.001-0.032-0.01-0.052-0.013l0.69 0.691c-0.036-0.088-0.045-0.222 0.029-0.46c0.671 0.2 0.3 0.6 0.1 0.6 l8.866 8.868c0.028-0.01 0.051-0.02 0.086-0.03c0.547 0.2 0.4 0.3 0.2 0.327l5.103 5.1 c0.206-0.283 0.985-0.19 1.629-0.185l-9.528-9.528c0 0 2.025-0.252 3.313-1.267c-0.067-0.057-0.025-0.167 0.274-0.355 c0.034 0 0.1 0 0.1 0.032c0.092-0.097 0.179-0.197 0.255-0.305c1.092-1.549-0.574-4.213-0.574-4.213l10.957 0.1 c7.303 0.2 14.6 0.4 21.9 0.75c3.65 0.1 7.3 0.4 10.9 0.598c1.899 0.1 3.8 0.2 5.7 0.3 c-0.101-0.266 0.218-0.374 0.4 0.03c0.808 0.1 1.6 0.1 2.4 0.174c-0.437-0.492-0.596-1.164-1.957-1.049 c1.028-0.806 2.3 0.3 3 1.127c0.439 0 0.9 0.1 1.3 0.095c3.327 0.2 6.7 0.5 10 0.8 c0.007-0.074 0.013-0.146 0.046-0.253c0.265 0.1 0.4 0.2 0.4 0.286c2.353 0.2 4.7 0.4 7.1 0.6 c-0.083-0.123-0.143-0.261-0.411-0.262c0.009-0.212 0.408-0.169 0.668-0.218c0.33 0.2 0.2 0.3 0.1 0.5 c1.352 0.1 2.7 0.2 4.1 0.367l4.893 0.495c0-0.021 0-0.041 0-0.061c0.284 0 0.316-0.084 0.334-0.218 c0.29-0.039 0.4 0.2 0.4 0.353l5.287 0.534l0.969 0.108c-0.06-0.065-0.135-0.12-0.293-0.121 c0.229-0.432 0.891-0.583 1.671-0.656c0.124 0.54-0.499 0.592-0.822 0.839l9.369 1.046c3.042 0.4 6.1 0.8 9.1 1.1 c-0.015-0.091-0.011-0.21 0.048-0.397c0.408 0.1 0.4 0.3 0.3 0.444c1.91 0.2 3.8 0.5 5.7 0.8 c-0.024-0.063 0.044-0.165 0.297-0.323c0.537 0.2 0.4 0.3 0.1 0.378c0.404 0.1 0.8 0.1 1.2 0.2 c0.201-0.071 0.438-0.113 0.683-0.104c0.05 0.1 0.1 0.2 0.1 0.205c1.38 0.2 2.8 0.4 4.1 0.6 c1.447 0.2 2.9 0.4 4.3 0.607c0.399-0.153 0.892-0.246 1.148-0.493c0.222 0.2 0.2 0.396-0.052 0.6 c1.373 0.2 2.7 0.4 4.1 0.612c-0.008-0.047-0.018-0.095-0.058-0.164c0.225 0 0.4 0 0.7 0 c-0.062 0.2 0.1 0.2 0.3 0.219c-0.057 0.018-0.102 0.042-0.154 0.063c0.168 0 0.3 0.1 0.5 0.1 c3.616 0.5 7.2 1.1 10.8 1.674c2.877 0.5 5.7 0.9 8.6 1.418c0.095-0.342 0.227-0.66 0.925-0.607 c0.054 0.3 0 0.574-0.203 0.726c2.751 0.5 5.5 0.9 8.2 1.434c0.082-0.153 0.316-0.205 0.316-0.412 c0.272 0 0.3 0.2 0.7 0.219c-0.048 0.137-0.219 0.195-0.295 0.315c1.11 0.2 2.2 0.4 3.3 0.6 c0.238 0 0.5 0.1 0.7 0.133c0.131-0.502 0.075-0.286 0 0c2.485 0.5 5 0.9 7.5 1.4 c-0.169-0.152-0.225-0.377-0.169-0.677c0.544 0 0.7 0.3 0.7 0.771c1.306 0.2 2.6 0.5 3.9 0.8 c0.133-0.003 0.272-0.001 0.4 0.01c0.005 0 0 0 0 0.075c0.209 0 0.4 0.1 0.6 0.1 c0.083-0.297 0.228-0.553 0.654-0.625c0-0.11 0.005-0.137 0.052-0.01c-0.018 0.002-0.035 0.007-0.052 0 c-0.001 0.1 0 0.448-0.06 0.743c2.432 0.5 4.9 0.9 7.3 1.436l1.188 0.249c-0.02-0.074-0.027-0.155-0.011-0.252 c0.446 0 0.9 0 1.3 0c0 0.2 0 0.4 0 0.53l8.213 1.719l10.699 2.377c1.945 0.4 3.9 0.9 5.8 1.4 c0.236-0.27 0.421-0.457-0.002-0.969c1.073 0.1 1.1 0.7 0.6 1.117c2.123 0.5 4.2 1 6.4 1.5 c0.052 0 0.1 0 0.2 0.042c2.773 0.7 5.5 1.4 8.3 2.06c7.078 1.8 14.1 3.7 21.2 5.7 c7.019 2 14 4.2 20.9 6.425l10.366 3.532c0.419 0.2 0.8 0.3 1.3 0.461c0-0.113 0-0.227 0-0.339 c0.225 0 0.4 0 0.7 0c0 0.1 0 0.3 0 0.437c-0.136 0-0.271 0-0.404 0c2.919 1.1 5.9 2.1 8.7 3.2 c2.554 1 5.1 2 7.6 3.054c0.044-0.043 0.057-0.107 0.066-0.174c0.295-0.039 0.4 0.2 0.4 0.4 c0.684 0.3 1.4 0.6 2.1 0.851c0.423 0.2 0.8 0.4 1.3 0.531c0.17-0.027 0.306-0.077 0.308-0.215 c0.407 0.1 0.4 0.3 0.1 0.407c0.73 0.3 1.5 0.6 2.2 0.95c-0.251-0.163-0.521-0.356 0.009-0.045 c0.072 0.1 0.1 0.1 0.2 0.12c1.982 0.9 4 1.8 5.9 2.698c2.83 1.4 5.6 2.8 8.4 4.3 c0.246 0 0.5 0.3 0.9 0.364c-0.007 0.046-0.021 0.069-0.032 0.098c2.702 1.5 5.4 3 8 4.608h-12.356 c0.422 0.313-0.472 0.831-0.285 0H825.11c-0.03 0.033-0.054 0.066-0.062 0.102c-0.072-0.034-0.13-0.068-0.178-0.102h-5.636 c-0.13 0.104-0.307 0.155-0.539 0.102c-0.004-0.037 0.002-0.068 0.004-0.102h-6.426c0.427 0.286-1.01 0.466-0.431 0h-3.232 c-0.102 0.08-0.239 0.104-0.296 0h-7.735c-0.165 0.104-0.376 0.165-0.604 0.102c-0.016-0.04-0.015-0.07-0.017-0.102h-13.037 c0.005 0 0 0.1 0 0.102c-0.112-0.025-0.212-0.061-0.301-0.102h-26.434c0.145 0.201-0.479 0.528-0.368 0h-34.744 c0 0.1 0 0.2 0 0.32c-0.214-0.1-0.346-0.206-0.442-0.32h-7.638c-0.102 0.08-0.239 0.104-0.296 0h-3.705 c0.1 0.2 0.1 0.5 0.7 0.32c-0.077 0.648-1.483 0.395-1.354-0.32h-10.053c-0.029-2.328-1.896-4.203-4.214-4.26V55.476 c-0.139 0.006-0.285 0.007-0.425 0.013c0.084-0.155 0.222-0.274 0.425-0.351v-8.136c-0.113 0.031-0.251 0.032-0.425-0.04 c0-0.146 0-0.292 0-0.437c0.284 0 0.315-0.087 0.333-0.219c0.036-0.005 0.1 0 0.1 0.008v-3.151 c0 0 1.6 0.5 3.065-0.385c-0.068-0.05-0.051-0.073 0.097-0.056c1.476-0.968 1.001-3.195 1.001-3.195s0.172 0.1 0.4 0.3 c-0.124-0.254 0.081-0.723 0.031-1.025c-1.071-0.693-2.149-1.388-3.232-2.074c-0.37 0.195-0.883 0.285-1.14-0.004 c-0.068-0.288 0.214-0.347 0.536-0.38c-0.371-0.234-0.738-0.47-1.111-0.706l-0.007-0.002c-0.31-0.166-0.698-0.051-0.866 0.3 c-0.01 0.019-0.007 0.041-0.015 0.06c0.036-0.034 0.074-0.068 0.127-0.106c0.837 0.4 0.1 0.626-0.188 0.466v12.459 c0.379 0.1 0.2 0.3 0 0.375v10.749c0.063 0 0.1 0 0.2 0c0 0.1 0 0.3 0 0.437c-0.063 0-0.126 0-0.188 0v10.159 c0 0.4 0.3 0.6 0.6 0.641h1.887c0-0.029 0-0.059 0-0.087c0.278-0.032 0.4 0 0.6 0.087h21.811 c-0.021-0.064-0.022-0.153 0.031-0.306c0.436 0 0.4 0.2 0.3 0.306h62.612c0.016-0.08 0.089-0.18 0.263-0.306 c0.229 0.1 0.3 0.2 0.4 0.306h17.475c0.124-0.14 0.22-0.297 0.208-0.524c0.631 0 1.2 0.3 1.2 0.524h3.117 c-0.101-0.04-0.061-0.134 0.352-0.306c0.479 0.1 0.3 0.3 0 0.306h1.911c-0.253-0.048-0.433-0.168 0.047-0.306 c0.412 0.2 0.5 0.3 0.4 0.306h10.943c0.032-0.037 0.059-0.068 0.072-0.087c0.156 0 0.2 0 0.3 0.087h17.42 c-0.002-0.029-0.003-0.059-0.006-0.087c0.1 0 0.2 0.1 0.3 0.087h6.063c0.003-0.001 0 0 0 0h6.19 c0.354 0 0.641-0.281 0.644-0.635c0.002-0.225-0.117-0.428-0.289-0.543C850.821 69.4 850 68.9 849.1 68.37z M516.818 5.206C517.82 5.2 516.5 6.1 516.8 5.206L516.818 5.206z M519.493 4.332C520.603 4.7 518.2 4.9 519.5 4.3 L519.493 4.332z M549.915 3.02C548.895 2.5 550.3 1.6 549.9 3.02L549.915 3.02z M557.604 2.8 C558.412 3.5 556.5 2.3 557.6 2.801L557.604 2.801z M577.329 4.55c0.053-0.256 0.608-0.184 1.003-0.218 C578.562 5.1 577.6 4.7 577.3 4.55z M592.372 5.206C593.48 5.5 591.1 5.8 592.4 5.206L592.372 5.206z M601.397 6.081C602.399 6.1 601.1 7 601.4 6.081L601.397 6.081z M606.748 6.955C607.748 7 606.4 7.9 606.7 7 L606.748 6.955z M608.419 7.174C609.421 7.2 608.1 8.1 608.4 7.174L608.419 7.174z M609.423 6.7 C610.333 7.4 608.4 6.1 609.4 6.736L609.423 6.736z M625.132 8.485C624.911 9.5 623.1 8.3 625.1 8.485L625.132 8.5 z M629.815 9.142c-0.243-0.022-0.398-0.038-0.501-0.048C629.695 9.1 630.6 9.2 629.8 9.142z M639.509 11.1 c-0.223 0-0.445 0-0.669 0c0-0.146 0-0.292 0-0.438c0.224 0 0.4 0 0.7 0C639.509 10.8 639.5 11 639.5 11.109z M642.518 11.328C643.326 12.1 641.4 10.8 642.5 11.328L642.518 11.328z M649.204 12.421c-0.223 0-0.445 0-0.668 0 c0-0.146 0-0.292 0-0.438c0.223 0 0.4 0 0.7 0C649.204 12.1 649.2 12.3 649.2 12.421z M653.551 13.3 c-0.223 0-0.447 0-0.669 0c0-0.146 0-0.292 0-0.438c0.222 0 0.4 0 0.7 0C653.551 13 653.6 13.1 653.6 13.295z M655.557 12.421C656.557 12.5 655.2 13.3 655.6 12.421L655.557 12.421z M656.561 12.6 C657.56 12.7 656.2 13.5 656.6 12.639L656.561 12.639z M663.247 14.606C664.052 15.3 662.1 14.1 663.2 14.6 L663.247 14.606z M678.623 17.447c-0.186-0.484 0.639-0.31 0.668-0.655C679.889 16.7 679.3 17.6 678.6 17.447z M681.298 16.792c0.387 0.2 0.9 0.3 1.7 0.219C682.672 17.5 681.1 17.7 681.3 16.792z M686.646 18.1 c0.41 0.1 0.7 0.3 0.7 0.655C686.602 18.9 686.7 18.4 686.6 18.105z M695.338 19.9 C696.339 19.9 695 20.8 695.3 19.853L695.338 19.853z M730.105 27.286C731.106 27.3 729.8 28.2 730.1 27.3 L730.105 27.286z M739.467 29.254c0.411 0.1 0.7 0.3 0.7 0.656C739.421 30 739.5 29.6 739.5 29.254z M768.55 37.124C769.552 37.2 768.2 38 768.5 37.124L768.55 37.124z M770.557 37.3 C771.364 38.1 769.4 36.8 770.6 37.344L770.557 37.344z M793.624 44.339c0.448 0.1 0.6 0.5 0.7 0.9 C793.604 45.1 792.9 44.8 793.6 44.339z M805.323 48.711C806.325 48.8 805 49.6 805.3 48.711L805.323 48.711z M811.341 51.115C812.151 51.9 810.2 50.6 811.3 51.115L811.341 51.115z M811.678 51.8 C811.456 51.9 811.8 51.7 811.7 51.771L811.678 51.771z M822.374 55.488C823.374 55.5 822.1 56.4 822.4 55.5 L822.374 55.488z M842.098 65.327C843.114 64.7 841.2 66 842.1 65.327L842.098 65.327z M843.435 66 C844.617 66.3 842.3 66.7 843.4 65.981L843.435 65.981z M701.355 39.528C702.557 40.8 700.5 40.5 701.4 39.5 L701.355 39.528z M699.35 39.966c1.031 0.456-0.845 0.964-1.003 0.22C698.244 39.5 699.3 40.7 699.4 39.966z M697.344 49.8 c1.021 0.3 0.2 0.7 0.7 1.53C697.058 51.3 697.4 50.4 697.3 49.804z M697.344 60.5 C698.345 60.6 697 61.4 697.3 60.517L697.344 60.517z M697.344 70.573c0.556-0.438 0.897-1.017 2.006-1.094 C698.794 69.9 698.5 70.5 697.3 70.573z M699.35 68.168c-0.223 0-0.446 0-0.669 0c0-0.146 0-0.291 0-0.438 c0.223 0 0.4 0 0.7 0C699.35 67.9 699.4 68 699.4 68.168z M700.687 70.1 C701.688 70.2 700.4 71 700.7 70.135L700.687 70.135z M701.021 68.605c0-0.219 0-0.438 0-0.655c0.223 0 0.4 0 0.7 0 C701.803 68.4 701.6 68.6 701 68.605z M706.036 69.916C707.219 70.3 704.9 70.6 706 69.916L706.036 69.916z M728.101 70.135C729.336 70.8 727.1 70.9 728.1 70.135L728.101 70.135z M732.78 70.6 C732.562 70.7 732.9 70.5 732.8 70.573L732.78 70.573z M742.808 70.573C743.917 70.9 741.5 71.1 742.8 70.6 L742.808 70.573z M746.486 70.792C746.268 70.9 746.6 70.7 746.5 70.792L746.486 70.792z M756.182 70.6 C757.183 70.6 755.9 71.5 756.2 70.573L756.182 70.573z M757.184 70.792C756.964 70.9 757.3 70.7 757.2 70.8 L757.184 70.792z M787.272 70.354C788.287 70.6 786.9 71.5 787.3 70.354L787.272 70.354z M797.301 71 C797.082 71.2 797.4 70.9 797.3 71.011L797.301 71.011z M800.311 70.135C800.45 70 800.1 70.3 800.3 70.1 L800.311 70.135z M816.691 71.011c-0.65 0.086-0.49-0.996 0.334-0.657C817.119 70.7 816.7 70.7 816.7 71.011z M821.706 70.792c0-0.146 0-0.292 0-0.438c0.282 0 0.313-0.084 0.334-0.219C822.688 70 822.5 71.1 821.7 70.792z M835.412 70.792c-0.592 0.068-0.598-1.225 0.335-0.876C835.887 70.4 835.5 70.5 835.4 70.792z M848.449 70.4 c0.714-0.102 0.6 0.3 0.7 0.657C848.706 70.9 848.4 70.7 848.4 70.354z M849.453 69.9 c-0.286 0.041-0.316-0.084-0.335-0.218c0-0.146 0-0.292 0-0.437c0.335 0 0.7 0 1 0 C850.003 69.5 849.5 69.6 849.5 69.916z"/>
	<path d="M286.42 13.674c0.011-0.002 0.023-0.003 0.033-0.006C286.442 13.7 286.4 13.7 286.4 13.674z"/>
	<path d="M707.896 43.25c0.263 0.2 0.5 0.4 0.8 0.583c0.008-0.048 0.007-0.085 0.029-0.15 c0.512 0 0.4 0.3 0.2 0.362c0.906 0.7 1.8 1.4 2.7 2.197c1.099 1 2.3 2 3.2 3.1 c0.47 0.5 0.9 1.1 1.3 1.699c0.373 0.6 0.7 1.2 0.8 1.838c0.215 0.6 0.1 1.2 0 1.7 c-0.244 0.445-0.471 0.814-0.986 1.047c-0.199 0.137-0.489 0.223-0.762 0.311c-0.24 0.108-0.564 0.143-0.875 0.2 c-0.573 0.125-1.308 0.065-1.938 0.021h-0.021c-1.504-0.108-2.813 1.027-2.916 2.531c-0.108 1.5 1 2.8 2.5 2.9 c0.663 0 1.29-0.151 1.795-0.513c0.748-0.537 1.457-0.941 2.184-1.516c0.36-0.262 0.703-0.535 1.049-0.875 c0.342-0.314 0.676-0.619 0.959-1.051c0.144-0.205 0.297-0.385 0.424-0.594l0.318-0.695c0.246-0.434 0.254-0.986 0.34-1.455 c-0.009-0.975-0.213-1.877-0.613-2.598c-0.341-0.758-0.806-1.401-1.272-2.016c-0.476-0.606-0.963-1.192-1.494-1.724 c-1.049-1.085-2.186-2.05-3.342-2.979c-1.245-1.003-2.528-1.95-3.83-2.869C708.681 43 708.3 43.3 707.9 43.25z M713.725 58.986C713.865 58.9 713.5 59.1 713.7 58.986L713.725 58.986z M718.405 53.5 c0.159 0.1 0.2 0.1 0.3 0.097C718.547 53.6 717.1 53 718.4 53.521z M717.735 55.5 C717.877 55.4 717.5 55.6 717.7 55.488L717.735 55.488z"/>
	<path d="M252.973 63.109c0.094 0 0.1 0 0.2 0.038v-3.665c-0.166-0.26-0.198-0.512 0-0.692v-4.595 c-0.065-0.009-0.129-0.018-0.206-0.049c0-0.146 0-0.292 0-0.438c0.098 0 0.2 0 0.206-0.016v-6.368 c-0.358-0.161-0.26-0.619-1.208-0.394c0.226-0.26 0.634-0.399 1.208-0.431v-0.505c-0.067-0.031-0.137-0.082-0.206-0.158 c0.033-0.096 0.125-0.152 0.206-0.218v-9.456c0-0.102-0.025-0.211-0.076-0.305c-0.169-0.311-0.557-0.426-0.867-0.26l-0.005 0 c-2.513 1.59-4.994 3.158-7.45 4.795c-1.001 0.665-1.995 1.343-2.982 2.033c0.479 0.2 0 0.278-0.294 0.2 c-0.282 0.198-0.562 0.399-0.841 0.602c0.619 0.203-0.164 0.36-0.396 0.289c-0.905 0.66-1.803 1.332-2.679 2 c-1.008 0.812-1.993 1.665-2.925 2.587c0.062-0.036 0.14-0.077 0.256-0.125c0.862 0.248-0.398 0.438-0.392 0.3 c-0.09 0.09-0.188 0.171-0.277 0.263c-0.032 0.032-0.061 0.067-0.092 0.1c-0.046 0.087-0.123 0.171-0.224 0.2 c-0.41 0.438-0.803 0.899-1.182 1.382c-0.466 0.614-0.93 1.258-1.274 2.016c-0.081 0.146-0.147 0.304-0.212 0.5 c0.036 0.067-0.005 0.145-0.078 0.203c-0.204 0.581-0.314 1.236-0.322 1.931c0.028 0.1 0 0.3 0.1 0.5 c0.456-0.137 1.048-0.247 1.307-0.328c-0.073 0.43-0.781 0.443-1.266 0.604c0.043 0.2 0.1 0.5 0.2 0.71l0.319 0.7 c0.129 0.2 0.3 0.4 0.4 0.594c0.284 0.4 0.6 0.7 1 1.051c0.347 0.3 0.7 0.6 1 0.9 c0.728 0.6 1.4 1 2.2 1.516c0.501 0.4 1.1 0.6 1.8 0.513c0.124-0.009 0.241-0.038 0.36-0.063 c-0.006-0.049-0.011-0.096-0.032-0.154c0.103 0 0.2 0.1 0.3 0.097c0.859-0.265 1.526-0.934 1.794-1.775 c-0.125 0.035-0.257 0.079-0.406 0.148c-0.01-0.418 0.206-0.698 0.522-0.864c0.004-0.102 0.016-0.201 0.009-0.305 c-0.105-1.504-1.412-2.64-2.917-2.531h-0.022c-0.631 0.045-1.365 0.104-1.936-0.021c-0.312-0.039-0.636-0.073-0.877-0.182 c-0.272-0.088-0.562-0.174-0.76-0.311c-0.517-0.232-0.744-0.602-0.987-1.047c-0.111-0.484-0.18-1.086 0.036-1.707 c0.161-0.623 0.471-1.248 0.841-1.838c0.364-0.596 0.802-1.16 1.268-1.699c0.93-1.09 2.145-2.129 3.245-3.084 c1.179-1.037 2.361-1.977 3.582-2.875c-0.053-0.052-0.072-0.16 0.002-0.371c0.216 0 0.3 0.1 0.3 0.1 c0.933-0.675 1.886-1.332 2.893-1.982c0.574-0.367 1.545-0.977 2.108-1.329c0-0.029 0-0.058 0-0.087c0.046 0 0.1 0 0.1 0 c0.185-0.115 0.303-0.189 0.303-0.189s-0.014 0.08-0.029 0.189c0.085 0 0.2 0 0.3 0c0.084 0.3 0 0.551-0.298 0.6 c0 0.5 0.1 1 0.3 1.528c0.321 0 0.4 0.2 0.3 0.484c0.123 0.1 0.3 0.3 0.4 0.4 c1.496 1 3.2 0.4 3.2 0.429v18.548c0.279-0.006 0.6 0.2 0.1 0.523c-0.03-0.016-0.048-0.029-0.074-0.045v3.365 c-2.318 0.058-4.184 1.932-4.212 4.26H230.95c-0.014 0.024-0.033 0.045-0.043 0.072c-0.098 0.012-0.172-0.022-0.236-0.072h-18.581 c-0.087 0.051-0.185 0.062-0.241 0h-14.065c0.279 0.261-0.957 0.409-0.503 0h-81.69c-0.002 0.095-0.008 0.191-0.017 0.3 c-0.323-0.015-0.496-0.127-0.589-0.291h-12.979c0.027 0.261-0.027 0.523-0.139 0.729c-0.006-0.274-0.207-0.513-0.436-0.729h-0.466 c0.093-0.058 0.188-0.11 0.281-0.168c-0.363-0.318-0.696-0.589-0.383-0.854c0.478 0.1 0.8 0.3 1 0.5 c0.681-0.417 1.368-0.824 2.056-1.229c-0.055-0.051-0.075-0.161 0-0.375c0.253 0 0.4 0.1 0.4 0.1 c1.751-1.024 3.517-2.024 5.306-2.982c0-0.003 0-0.006 0-0.009c0.005 0 0 0 0 0c0.35-0.188 0.706-0.365 1.058-0.551 c-0.188-0.02-0.239-0.114 0.264-0.324c0.096 0 0.2 0.1 0.2 0.08c0.142-0.074 0.285-0.147 0.427-0.222 c-0.016-0.065-0.014-0.153 0.036-0.296c0.195 0 0.3 0.1 0.3 0.104c2.086-1.081 4.185-2.14 6.303-3.157 c1.042-0.478 2.083-0.957 3.125-1.434c-0.299-0.03-0.613-0.165-0.064-0.323c0.193 0.1 0.3 0.1 0.4 0.2 c2.179-0.996 4.364-1.977 6.583-2.883c3.347-1.453 6.75-2.769 10.151-4.094c3.391-1.349 6.847-2.527 10.269-3.8l10.367-3.532 c1.898-0.616 3.805-1.204 5.708-1.804c0.074-0.326 0.761-0.64 1.207-0.382c4.662-1.46 9.334-2.889 14.03-4.239 c7.02-2.016 14.074-3.919 21.15-5.729c0.138-0.035 0.276-0.067 0.414-0.103c0-0.026 0-0.052 0-0.079c0.106 0 0.2 0 0.3 0 c4.16-1.057 8.33-2.072 12.506-3.066c-0.04 0.002-0.082 0.001-0.118 0.005c-0.096-0.353 0.315-0.376 0.333-0.656 c0.364 0.1 0.2 0.4 0.7 0.437c-0.001 0.004-0.006 0.005-0.008 0.008c2.396-0.568 4.792-1.139 7.192-1.692l10.7-2.377 l10.726-2.246c3.011-0.603 6.023-1.194 9.037-1.78c-0.077-0.111-0.149-0.252-0.204-0.44c0.333 0.1 0.5 0.2 0.7 0.3 c4.006-0.777 8.015-1.538 12.031-2.261c5.971-1.072 11.948-2.102 17.936-3.073c-0.071-0.16-0.136-0.323-0.208-0.481 c0.269-0.116 0.542-0.228 1.003-0.218c0.19 0.1 0.3 0.3 0.3 0.516c0.854-0.138 1.706-0.288 2.56-0.421 c0.462-0.076 0.926-0.146 1.388-0.221c-0.055-0.096 0.206-0.262 1.082-0.31c-0.079 0.071-0.158 0.126-0.237 0.2 c1.19-0.19 2.38-0.381 3.571-0.565c0.005-0.019 0.002-0.028 0.009-0.049c0.037 0 0.1 0 0.1 0 c0.251-0.039 0.503-0.075 0.754-0.113c-0.273-0.19-0.087-0.959 0.501-0.141c-0.04 0.035-0.075 0.058-0.111 0.1 c0.26-0.039 0.52-0.078 0.78-0.117c0-0.062 0-0.123 0-0.184c0.223 0 0.4 0 0.7 0c0 0 0 0.1 0 0.1 c0.782-0.117 1.563-0.239 2.345-0.352c0.658-0.097 1.315-0.195 1.973-0.293c-0.023-0.064-0.028-0.154 0.028-0.313 c0.373 0 0.4 0.1 0.4 0.256c0.223-0.033 0.447-0.066 0.67-0.1c-0.004-0.23 0.103-0.459 0.311-0.593 c0.098 0.1 0.2 0.3 0.3 0.505c0.762-0.114 1.525-0.224 2.288-0.336c-0.097-0.226-0.213-0.438 0.099-0.606 c0.201 0 0.4 0.3 0.4 0.536c0.99-0.144 1.98-0.281 2.972-0.416c-0.181-0.434 0.835-0.551 0.646-0.091 c0.271-0.036 0.542-0.079 0.813-0.114c4.762-0.672 9.532-1.285 14.304-1.883c-0.029-0.001-0.051 0.003-0.082 0 c-0.494-0.302-0.173-1.04 1.003-0.875c-0.104 0.311-0.122 0.678-0.485 0.82c2.052-0.257 4.104-0.515 6.157-0.767 c0.006-0.021 0.002-0.03 0.01-0.053c0.078 0 0.1 0 0.2 0.031c0.222-0.027 0.442-0.056 0.664-0.083l10.893-1.217 l10.903-1.102c1.363-0.128 2.727-0.245 4.09-0.371c-0.026-0.063-0.032-0.155 0.026-0.319c0.412 0 0.4 0.2 0.3 0.3 c5.796-0.531 11.595-1.037 17.4-1.442c3.643-0.273 7.287-0.533 10.935-0.727c0.352-0.021 0.704-0.042 1.056-0.063 c0.046-0.03 0.112-0.073 0.037-0.024c-0.028 0.018-0.025 0.017-0.037 0.024c3.23-0.192 6.459-0.399 9.692-0.525 c0.049-0.247 0.381-0.375 0.433-0.02c4.466-0.218 8.934-0.376 13.403-0.512c0.018-0.201 0.208-0.392 0.578-0.497 c0.145 0.1 0.2 0.3 0.2 0.474c1.63-0.048 3.259-0.095 4.889-0.135c-0.175-0.172-0.08-0.52-0.124-0.777 c0.445 0 0.9 0 1.3 0c0 0.2 0 0.4 0 0.656c-0.569 0.08-0.631-0.17-0.669-0.438c-0.342 0.031-0.306 0.31-0.325 0.6 c0.775-0.019 1.549-0.046 2.324-0.064l10.956-0.135c0 0-1.667 2.664-0.573 4.213c1.095 1.5 3.9 1.9 3.9 1.895l-1.77 1.8 c0.047 0 0.1 0 0.2 0.077c0.478 0.4 0 0.17-0.239-0.009l-10.054 10.054c0.085-0.01 0.174-0.008 0.3 0 c0.243 0.597-0.666 0.44-0.668 0.875c-0.175-0.017-0.267-0.089-0.297-0.185l-3.691 3.691c0.397 0.1 0.7 0.3 0.6 0.6 c-0.692 0.099-0.642-0.289-0.667-0.625l-5.917 5.917c0.178 0.1 0.3 0.2 0.6 0.174c-0.183 0.443-0.508 0.458-0.971 0.2 l-5.467 5.467c-0.114 0.115-0.188 0.277-0.188 0.453c0 0.3 0.2 0.5 0.5 0.609c-0.199-0.306-0.15-0.602 0.802-0.421 c-0.154 0.115-0.246 0.271-0.294 0.455h3.945c0.044-0.029 0.097-0.063 0.027-0.018c-0.021 0.014-0.016 0.011-0.027 0.018h2.337 c-0.035-0.088-0.043-0.221 0.03-0.455c0.421 0.1 0.4 0.3 0.3 0.455h1.639c-0.237-0.155-0.45-0.312 0.05-0.018 c0.01 0 0 0 0 0.018h6.093c0.201-0.362 0.605-0.594 1.238-0.674c-0.227 0.187-0.293 0.477-0.502 0.674h1.478 c0.044-0.029 0.097-0.063 0.028-0.018c-0.021 0.014-0.016 0.011-0.027 0.018h15.405c0-0.006 0-0.012 0-0.018 c0.223 0 0.4 0 0.7 0c0 0 0 0 0 0.018h0.466c0.026-0.02 0.049-0.021 0.1 0h1.442 c0.044-0.029 0.097-0.063 0.027-0.018c-0.021 0.014-0.016 0.011-0.027 0.018h17.407c0.002-0.008 0-0.01 0.003-0.018 c0.044 0 0.1 0 0.1 0.018h0.904c0.002-0.008 0.001-0.01 0.003-0.018c0.044 0 0.1 0 0.1 0.018h4.78 c-0.119-0.117-0.235-0.235-0.531-0.237c0.075-0.314 0.998-0.076 1.002-0.437c0.367 0.1 0.3 0.4 0.3 0.674h5 c0.044-0.029 0.097-0.063 0.027-0.018c-0.021 0.014-0.016 0.011-0.027 0.018h6.379c0.018 0 0.032-0.009 0.049-0.01 c0.017 0 0 0 0 0.01h2.51c0.318-0.25 0.762-0.418 1.404-0.455c-0.123 0.151-0.241 0.307-0.369 0.455h4.948 c-0.166-0.213-0.312-0.438-0.487-0.644c0.524-0.095 0.285-0.688 1.338-0.438c0 0.4 0 0.7 0 1.081h2.41 c0.044-0.132 0.041-0.273-0.07-0.424c0.494 0.1 0.6 0.2 0.5 0.424h10.793c-0.023-0.091-0.026-0.215 0.039-0.424 c0.387 0.1 0.4 0.3 0.3 0.424h28.699c0.004-0.058 0.009-0.117 0.04-0.206c0.317 0 0.4 0.1 0.4 0.206h12.632 c0.004-0.058 0.009-0.117 0.04-0.206c0.317 0 0.4 0.1 0.4 0.206h4.966c0.356 0 0.644-0.287 0.644-0.643 c0-0.176-0.073-0.338-0.188-0.453l-16.414-16.414c-0.024 0.01-0.042 0.021-0.07 0.032c-0.224 0-0.446 0-0.669 0 c-0.103-0.328 0.026-0.491 0.222-0.549l-1.563-1.564c0.011 0.46-0.723 0.436-1.304 0.51l3.951 4 c0.007-0.05 0.007-0.092 0.031-0.162c0.563 0 0.4 0.3 0.2 0.384l9.029 9.031c0 0-2.111-0.053-3.154 1 c-1.039 1 0.1 3.6 0.1 3.605h-7.065c0.786 0.1-0.37 0.84-0.089 0H504.3c-0.001 0-0.001 0-0.002 0h-9.808 c0 0.107-0.021 0.246-0.068 0.421c-0.27-0.127-0.368-0.283-0.377-0.421h-4.962c-0.257 0.12-0.603 0.183-1.013 0.2 c0.131-0.069 0.221-0.136 0.294-0.202h-1.632c-0.021 0.066-0.026 0.1 0 0.202c-0.183-0.022-0.213-0.102-0.207-0.202h-11.478 c-0.017 0-0.031 0.009-0.048 0.01c-0.017-0.001-0.031-0.01-0.048-0.01h-8.387c0.013 0.1 0 0.1 0 0.2 c-0.167-0.039-0.301-0.098-0.413-0.172h-6.273c0 0.3 0 0.6 0 0.828c-0.617 0.052-1.086-0.57-0.815-0.828h-1.398 c0.837 0.337-1.056 0.591-0.193 0h-6.356l0 0h-8.28c0.093 0.411-0.504 0.371-1.009 0.392c0.1-0.187 0.273-0.324 0.554-0.392h-4.604 c0.006 0.1 0 0.1 0 0.172c-0.072-0.048-0.116-0.113-0.171-0.172h-1.155c-0.125 0.041-0.287 0.035-0.467 0h-1.542 c0.216 0.331-0.746 0.356-0.593 0h-10.113c0 0.1 0 0.1 0 0.172c-0.225 0-0.446 0-0.67 0c0-0.058 0-0.114 0-0.172h-8.4 c0.016 0.105-0.053 0.298-0.291 0.609c-0.329-0.229-0.242-0.475-0.08-0.609h-0.7c0 0 1.12-2.564 0.078-3.605 c-1.041-1.041-3.152-0.988-3.152-0.988l3.581-3.581c-0.098-0.019-0.16-0.119-0.061-0.399c0.21 0 0.3 0.1 0.3 0.1 l9.065-9.065c-0.018-0.003-0.029-0.011-0.048-0.013c0.036-0.146 0.148-0.211 0.285-0.224l15.389-15.39 c-0.268-0.163-0.586-0.421 0.037-0.127c0.02 0 0 0 0 0.044l0.927-0.927c0.113-0.115 0.189-0.277 0.19-0.453 c0.001-0.352-0.285-0.637-0.636-0.639l-10.977-0.045l-3.592 0.044c0 0 0 0 0 0.008c-0.017-0.001-0.028-0.006-0.044-0.007 l-5.959 0.073c-0.003 0.05-0.006 0.099-0.015 0.152c-0.128-0.05-0.261-0.096-0.388-0.147l-0.98 0 c-1.438 0.032-2.876 0.081-4.314 0.118c0 0 0 0 0 0.017c-0.271 0.059-0.433 0.048-0.535-0.002 c-0.623 0.017-1.246 0.034-1.869 0.051c0.418 0.175-0.479 0.701-0.279 0.008c-1.662 0.048-3.325 0.093-4.987 0.1 c-0.042 0.028-0.173 0.113-0.019 0.012c0.023-0.015 0.018-0.012 0.019-0.012c-3.226 0.112-6.45 0.238-9.673 0.4 c0.021 0.191-0.449 0.414-0.409 0.018c-1.772 0.069-3.543 0.163-5.314 0.266c0 0.1 0 0.3 0 0.425c-0.221 0-0.446 0-0.667 0 c0-0.129 0-0.257 0-0.386c-1.616 0.096-3.232 0.196-4.849 0.288c-3.654 0.195-7.302 0.451-10.95 0.7 c-2.141 0.148-4.279 0.33-6.418 0.5c0.149 0.1 0.3 0.3 0.2 0.616c-0.404 0.073-0.866-0.239-1.016-0.549 c-0.478 0.039-0.956 0.072-1.433 0.112c0.148 0 0.3 0 0.4 0c0 0.1 0 0.3 0 0.437c-0.223 0-0.447 0-0.668 0 c0-0.14 0-0.28 0-0.419c-4.313 0.358-8.623 0.74-12.931 1.147l-10.917 1.102L330.21 7.57c-1.921 0.234-3.841 0.477-5.762 0.7 c0.411 0.173-0.448 0.68-0.286 0.035c-0.704 0.088-1.408 0.174-2.112 0.263c-0.12 0.074-0.182 0.104-0.058 0 c-4.52 0.568-9.037 1.151-13.548 1.789c-0.787 0.103-1.571 0.221-2.356 0.331c0.314 0.185-0.44 0.621-0.317 0 c-2.73 0.385-5.458 0.793-8.187 1.19c-0.701 0.101-1.4 0.21-2.1 0.314c-0.026 0.039-0.053 0.077-0.056 0.1 c-0.133 0.018-0.223-0.021-0.289-0.079c-2.066 0.309-4.131 0.628-6.194 0.958c0.04 0.1 0.1 0.1 0.1 0.2 c-0.194-0.029-0.34-0.088-0.469-0.159c-0.404 0.065-0.808 0.127-1.211 0.193c-0.09 0.671-0.723 0.423-0.326 1.3 c-0.925-0.095-0.417-0.452-0.981-1.066c-2.687 0.425-5.371 0.873-8.053 1.326c0.003 0.351-0.398 0.438-0.327 0.8 c-0.364 0.043-0.504-0.435-0.339-0.724c-3.352 0.569-6.7 1.154-10.046 1.752c0.027 0.3 0.1 0.713-0.647 0.5 c0.058-0.159 0.067-0.286 0.05-0.396c-0.541 0.097-1.082 0.188-1.623 0.286c-2.294 0.413-4.583 0.851-6.873 1.3 c-0.086 0.116-0.195 0.218-0.245 0.358c-0.168-0.054-0.288-0.14-0.386-0.24c-1.259 0.238-2.52 0.467-3.777 0.7 c0.567 0.144-0.383 0.736-0.196 0.039c-1.583 0.306-3.165 0.624-4.747 0.936c0.051 0.1 0.1 0.2 0.1 0.3 c-0.39 0.056-0.541-0.044-0.606-0.2c-0.765 0.151-1.53 0.3-2.294 0.452c0.229 0.1 0.2 0.4 0.2 0.6 c-0.363-0.084-0.606-0.246-0.65-0.539c-0.695 0.139-1.391 0.271-2.086 0.411l-10.742 2.248l-10.714 2.4 c-0.137 0.032-0.273 0.065-0.41 0.096c-0.119 0.134-0.181 0.2 0 0c-0.185 0.042-0.368 0.087-0.552 0.1 c-0.085 0.085-0.218 0.109-0.363 0.085c-0.756 0.175-1.511 0.356-2.266 0.533c-0.087 0.08-0.218 0.129-0.294 0.1 c-3.44 0.804-6.875 1.627-10.306 2.468c0.839 0.084-0.333 0.843-0.066 0.017c-1.113 0.273-2.226 0.549-3.338 0.8 c0 0.1 0 0.2 0 0.238c-0.223 0-0.446 0-0.668 0c0-0.024 0-0.048 0-0.073c-1.023 0.257-2.049 0.5-3.071 0.8 c-7.089 1.814-14.154 3.723-21.188 5.742c-7.034 2.02-14.03 4.176-20.993 6.438l-10.396 3.5 c-3.431 1.275-6.897 2.457-10.301 3.812c-3.411 1.332-6.828 2.649-10.188 4.113c-2.282 0.929-4.53 1.939-6.772 3 c0.001 0 0 0 0 0.028c-0.025 0.003-0.037-0.004-0.06-0.002c-1.072 0.49-2.143 0.983-3.214 1.5 c-6.606 3.174-13.12 6.578-19.293 10.584c-0.173 0.115-0.292 0.317-0.292 0.543c0.002 0.4 0.3 0.6 0.6 0.636h17.807 c0-0.085 0.017-0.194 0.061-0.337c0.31 0.1 0.4 0.2 0.4 0.337h1.594c-0.277-0.14-0.356-0.408-0.288-0.773 c0.634 0.1 1.3 0.4 0.8 0.773h6.541c-0.034-0.061-0.045-0.157 0.018-0.337c0.474 0 0.4 0.2 0.3 0.337h1.183 c-0.084-0.084-0.134-0.189-0.122-0.337c0.513 0.1 1 0.1 1.3 0.337h22.907c0.015-0.017 0.033-0.037 0.042-0.048 c-0.007 0.008-0.031 0.035-0.042 0.048h49.329c0.031-0.031 0.054-0.068 0.059-0.117c0.158-0.018 0.2 0 0.2 0.117h7.444 c0.18-0.115 0.354-0.231 0.337-0.337c0.432 0.1 0.4 0.2 0.3 0.337h5.151c0.176-0.123 0.591-0.089 0.911-0.117 c0.015 0 0 0.1 0 0.117h12.975c-0.478-0.243 0.217-0.817 0.38-1.211c0.953 0.253-0.188 0.694-0.031 1.211h24.334 c0.355 0 0.641-0.285 0.641-0.642v-6.97C253.018 63.6 252.8 63.5 253 63.109z M252.638 44.5 C252.418 44.7 252.8 44.4 252.6 44.526L252.638 44.526z M252.973 39.498C252.752 39.6 253.1 39.4 253 39.5 L252.973 39.498z M252.304 40.81C253.304 40.9 252 41.7 252.3 40.81L252.304 40.81z M231.91 51.7 C232.05 51.6 231.7 51.9 231.9 51.741L231.91 51.741z M231.91 56.769C232.05 56.7 231.7 56.9 231.9 56.8 L231.91 56.769z M238.931 59.393C239.932 59.4 238.6 60.3 238.9 59.393L238.931 59.393z M236.257 60.3 C236.397 60.2 236 60.4 236.3 60.267L236.257 60.267z M237.593 59.83C238.609 60.1 237.2 61 237.6 59.8 L237.593 59.83z M237.593 57.207c0.455 0.1 0.3 0.5 0.3 0.873C237.154 58 237.2 57.5 237.6 57.207z M236.257 57.207C236.038 57.4 236.4 57.1 236.3 57.207L236.257 57.207z M236.257 57.9 c0.971 0.306-0.096 1.078-0.334 1.312C235.114 59 236.7 58.5 236.3 57.862z M235.923 59.4 c-0.175 0.323-0.496 0.551-0.67 0.874c-0.254-0.343-1.06-0.326-1.003-0.874C234.807 59.4 235.4 59.4 235.9 59.393z M234.25 57.643C234.389 57.6 234 57.8 234.2 57.643L234.25 57.643z M233.247 57.4 C234.25 57.5 232.9 58.3 233.2 57.426L233.247 57.426z M233.247 55.896c0 0.1 0 0.3 0 0.437c-0.223 0-0.445 0-0.668 0 c0-0.146 0-0.292 0-0.437C232.801 55.9 233 55.9 233.2 55.896z M242.942 41.9 C243.944 41.9 242.6 42.8 242.9 41.903L242.942 41.903z M249.293 39.28C249.434 39.2 249.1 39.4 249.3 39.3 L249.293 39.28z M249.628 41.029C250.63 41.1 249.3 41.9 249.6 41.029L249.628 41.029z M250.298 38.4 C250.078 38.5 250.4 38.3 250.3 38.405L250.298 38.405z M250.298 41.903C251.299 41.9 250 42.8 250.3 41.9 L250.298 41.903z M251.301 38.405C250.224 37.9 252.5 37.5 251.3 38.405L251.301 38.405z M405.414 36.2 C405.555 36.1 405.2 36.4 405.4 36.219L405.414 36.219z M531.528 22.914C532.53 23 531.2 23.8 531.5 22.9 L531.528 22.914z M542.227 36.031c1.123-0.095 2 0.5 1.3 0.874c-0.326-0.005-0.26-0.267-0.335-0.437 c-0.389-0.036-0.596 0.048-0.669 0.218c-0.283 0.041-0.315-0.084-0.334-0.218C542.227 36.3 542.2 36.2 542.2 36.031z M540.89 33.408C542.071 33.8 539.8 34.1 540.9 33.408L540.89 33.408z M539.886 32.1 C540.888 32.1 539.6 33 539.9 32.096L539.886 32.096z M540.555 34.938c-0.05 0.542-1.132 0.063-1.337 0 C539.438 34.3 539.9 35.1 540.6 34.938z M537.212 36.687C538.515 37.2 536.1 37 537.2 36.687L537.212 36.687z M536.878 33.408c0.223 0 0.4 0 0.7 0c0.114 0.438-0.068 0.685-0.668 0.656C536.878 33.8 536.9 33.6 536.9 33.408z M523.84 36.687c0.285-0.04 0.3 0.1 0.3 0.219c0 0.1 0 0.3 0 0.438c-0.698 0.091-0.885-0.151-1.337-0.22 C522.913 36.8 523.8 37 523.8 36.687z M499.77 37.562c-0.682-0.064-0.655-0.591-1.337-0.656 C498.747 36.1 500.2 36.6 499.8 37.562z M496.428 36.687C497.61 37.1 495.3 37.4 496.4 36.687L496.428 36.687z M490.743 36.687c-0.042 0.4 0.4 0.5 0.3 0.875C490.898 37.3 489.3 36.6 490.7 36.687z M489.406 37.3 C490.408 37.4 489.1 38.3 489.4 37.344L489.406 37.344z M488.07 37.344C489.07 37.4 487.8 38.3 488.1 37.3 L488.07 37.344z M479.297 36.656C479.076 36.8 479.4 36.6 479.3 36.656L479.297 36.656z M476.621 36.9 C476.402 37 476.8 36.8 476.6 36.876L476.621 36.876z M469.601 36.876C469.382 37 469.7 36.8 469.6 36.9 L469.601 36.876z M466.591 37.313C465.027 38.1 465.2 36.2 466.6 37.313L466.591 37.313z M458.235 37.1 C458.016 37.2 458.4 37 458.2 37.094L458.235 37.094z M453.555 37.313C453.334 37.5 453.7 37.2 453.6 37.3 L453.555 37.313z M452.552 37.094C453.553 37.1 452.2 38 452.6 37.094L452.552 37.094z M451.549 37.5 C452.565 36.9 450.6 38.2 451.5 37.53L451.549 37.53z M445.532 37.094C446.532 37.1 445.2 38 445.5 37.1 L445.532 37.094z M432.828 37.313C432.968 37.2 432.6 37.5 432.8 37.313L432.828 37.313z M428.816 36.7 C430.12 37.2 427.7 37 428.8 36.656L428.816 36.656z M423.132 37.313C423.942 38 422 36.8 423.1 37.3 L423.132 37.313z M414.775 37.313C414.555 37.5 414.9 37.2 414.8 37.313L414.775 37.313z M413.438 34.7 C413.579 34.6 413.2 34.8 413.4 34.688L413.438 34.688z M411.432 35.126c-0.714 0.102-0.636-0.313-0.667-0.656 C411.175 34.6 411.4 34.8 411.4 35.126z M423.802 16.981C423.584 17.1 423.9 16.9 423.8 16.981L423.802 16.981z M424.136 16.762C425.672 16.2 426.6 17.1 424.1 16.762L424.136 16.762z M425.807 15.9 C426.614 16.6 424.7 15.4 425.8 15.888L425.807 15.888z M426.141 15.232C426.282 15.1 425.9 15.4 426.1 15.2 L426.141 15.232z M432.493 9.548c-0.223 0-0.446 0-0.668 0c0-0.146 0-0.292 0-0.438c0.223 0 0.4 0 0.7 0 C432.493 9.3 432.5 9.4 432.5 9.548z M436.839 1.896C436.979 1.8 436.6 2 436.8 1.896L436.839 1.896z M436.839 5.176C435.742 4.6 437.8 4.1 436.8 5.176L436.839 5.176z M436.505 2.552c-0.147 0.27-0.429 0.449-1.003 0.4 C435.445 2.4 436 2.2 436.5 2.552z M435.168 5.394C434.948 5.5 435.3 5.3 435.2 5.394L435.168 5.394z M434.499 6.705c-0.638-0.093-0.605-0.624-1.671-0.437c0-0.219 0-0.438 0-0.656C433.475 5.9 434.7 5.9 434.5 6.705z M434.165 3.426C434.306 3.3 433.9 3.6 434.2 3.426L434.165 3.426z M434.165 5.2 C433.947 5.3 434.3 5.1 434.2 5.176L434.165 5.176z M432.828 3.208c0 0.2 0 0.4 0 0.656c-0.334 0-0.668 0-1.003 0 C431.764 3.4 432.1 3.2 432.8 3.208z M430.821 6.05C430.962 6 430.6 6.2 430.8 6.05L430.821 6.05z M429.484 2.989c-0.449-0.144-0.622-0.468-0.668-0.875C429.855 2 430 2.7 429.5 2.989z M423.468 1.9 c-0.308 0.382-1.045 0.482-2.006 0.438c0.052-0.254-0.074-0.39-0.334-0.438C421.614 1.2 422.4 2.2 423.5 1.896z M394.717 2.333C394.497 2.5 394.9 2.2 394.7 2.333L394.717 2.333z M392.376 3.4 C392.518 3.3 392.2 3.6 392.4 3.426L392.376 3.426z M388.699 2.552C390.004 3.1 387.6 2.9 388.7 2.6 L388.699 2.552z M386.36 2.989C386.14 3.1 386.5 2.9 386.4 2.989L386.36 2.989z M374.658 4.5 C374.799 4.4 374.4 4.7 374.7 4.52L374.658 4.52z M364.63 4.738C365.438 5.5 363.5 4.2 364.6 4.738L364.63 4.738z M333.205 7.798C333.345 7.7 333 7.9 333.2 7.798L333.205 7.798z M313.814 10.4 C314.816 10.5 313.5 11.3 313.8 10.422L313.814 10.422z M313.147 10.641c0.155 0.466-0.479 0.417-1.004 0.4 C312.289 10.8 312.6 10.6 313.1 10.641z M311.809 10.203C310.797 11 310.7 9.5 311.8 10.203L311.809 10.203z M308.465 11.078C308.606 11 308.2 11.2 308.5 11.078L308.465 11.078z M306.795 10.6 C306.575 10.8 306.9 10.5 306.8 10.641L306.795 10.641z M296.431 12.827C296.572 12.7 296.2 13 296.4 12.8 L296.431 12.827z M288.409 13.701c0.223 0 0.4 0 0.7 0c0 0.1 0 0.3 0 0.438c-0.223 0-0.446 0-0.669 0 C288.409 14 288.4 13.8 288.4 13.701z M279.382 15.669C280.687 16.2 278.3 16 279.4 15.669L279.382 15.669z M275.704 16.543C275.484 16.7 275.8 16.5 275.7 16.543L275.704 16.543z M268.014 17.6 C268.155 17.5 267.8 17.8 268 17.637L268.014 17.637z M265.005 17.855c0.598 0.2 0 0.4 0 0.7 C264.411 18.4 265 18.1 265 17.855z M264.004 18.292C265.005 18.3 263.7 19.2 264 18.292L264.004 18.292z M262 18.73C261.78 18.9 262.1 18.6 262 18.73L262 18.73z M253.641 20.479C253.421 20.6 253.8 20.4 253.6 20.5 L253.641 20.479z M246.62 21.79C246.761 21.7 246.4 21.9 246.6 21.79L246.62 21.79z M239.265 23.5 C239.406 23.4 239 23.7 239.3 23.54L239.265 23.54z M232.578 24.195C232.719 24.1 232.4 24.3 232.6 24.2 L232.578 24.195z M226.895 25.726C227.897 25.8 226.6 26.6 226.9 25.726L226.895 25.726z M218.54 27.7 C218.32 27.8 218.7 27.6 218.5 27.693L218.54 27.693z M215.863 28.13C216.004 28 215.6 28.3 215.9 28.1 L215.863 28.13z M211.853 29.004C211.633 29.1 212 28.9 211.9 29.004L211.853 29.004z M210.181 30.1 C209.961 30.2 210.3 30 210.2 30.098L210.181 30.098z M190.456 34.033C191.563 34.4 189.2 34.6 190.5 34 L190.456 34.033z M185.109 36C184.89 36.1 185.2 35.9 185.1 36L185.109 36z M180.761 36.9 C181.763 36.9 180.4 37.8 180.8 36.876L180.761 36.876z M178.088 37.53C178.228 37.4 177.9 37.7 178.1 37.5 L178.088 37.53z M176.417 37.968C177.432 38.2 176.1 39.1 176.4 37.968L176.417 37.968z M173.406 39.9 C172.171 39.3 174.4 39.2 173.4 39.936L173.406 39.936z M167.724 41.029C167.504 41.2 167.9 40.9 167.7 41 L167.724 41.029z M160.37 42.996C160.15 43.1 160.5 42.9 160.4 42.996L160.37 42.996z M156.023 44.5 C157.024 44.6 155.7 45.4 156 44.526L156.023 44.526z M134.962 51.96C134.743 52.1 135.1 51.9 135 52 L134.962 51.96z M126.27 56.114C126.051 56.3 126.4 56 126.3 56.114L126.27 56.114z M123.596 57 C124.899 57.5 122.5 57.3 123.6 56.987L123.596 56.987z M118.247 59.393C119.262 59.7 117.9 60.6 118.2 59.4 L118.247 59.393z M112.564 62.672C113.477 63.3 111.5 62.1 112.6 62.672L112.564 62.672z M108.552 64 c0.224 0 0.4 0 0.7 0c0.114 0.439-0.068 0.685-0.669 0.656C108.552 64.4 108.6 64.2 108.6 63.983z M105.269 66.8 c-0.02-0.002-0.038-0.004-0.06-0.006c-0.051-0.005-0.095-0.01-0.139-0.014C105.139 66.8 105.2 66.8 105.3 66.832z M98.857 70.543C97.836 70.1 99.2 69.1 98.9 70.543L98.857 70.543z M99.86 69.4 C100.668 70.2 98.7 68.9 99.9 69.449L99.86 69.449z M108.886 70.324C109.026 70.2 108.7 70.5 108.9 70.3 L108.886 70.324z M116.91 70.324C116.69 70.5 117 70.2 116.9 70.324L116.91 70.324z M130.282 70.3 C131.586 70.9 129.2 70.6 130.3 70.324L130.282 70.324z M136.968 69.887C136.749 70 137.1 69.8 137 69.9 L136.968 69.887z M137.971 70.324C138.111 70.2 137.8 70.5 138 70.324L137.971 70.324z M149.672 71 C149.452 71.1 149.8 70.9 149.7 70.98L149.672 70.98z M152.011 70.324c0.412 0.1 0.7 0.3 0.7 0.7 C151.967 71.1 152 70.7 152 70.324z M158.764 70.408c0.049-0.056 0.13-0.147 0.21-0.238 c0.021-0.023 0.033-0.037 0.058-0.064c0.026-0.029 0.031-0.035 0.05-0.057c-0.032 0.036-0.071 0.08-0.108 0.1 C158.869 70.3 158.8 70.4 158.8 70.408z M171.067 70.324C170.848 70.5 171.2 70.2 171.1 70.324L171.067 70.324z M177.754 69.887C177.534 70 177.9 69.8 177.8 69.887L177.754 69.887z M183.102 69.9 C184.104 69.9 182.8 70.8 183.1 69.887L183.102 69.887z M193.8 70.98C193.581 71.1 193.9 70.9 193.8 70.98L193.8 71 z M195.471 70.543C195.613 70.5 195.3 70.7 195.5 70.543L195.471 70.543z M199.148 69.9 C198.929 70 199.3 69.8 199.1 69.887L199.148 69.887z M198.814 70.543C199.817 70.6 198.5 71.4 198.8 70.5 L198.814 70.543z M205.5 70.105C205.281 70.2 205.6 70 205.5 70.105L205.5 70.105z M211.184 70.1 C212.184 70.1 210.9 71 211.2 70.105L211.184 70.105z M212.521 70.761C212.302 70.9 212.7 70.7 212.5 70.8 L212.521 70.761z M212.521 70.105C212.302 70.2 212.7 70 212.5 70.105L212.521 70.105z M213.859 70.3 C213.639 70.5 214 70.2 213.9 70.324L213.859 70.324z M215.863 70.98c-0.223 0-0.444 0-0.669 0c0-0.146 0-0.292 0-0.438 c0.225 0 0.4 0 0.7 0C215.863 70.7 215.9 70.8 215.9 70.98z M220.545 70.1 C220.326 70.2 220.7 70 220.5 70.105L220.545 70.105z M221.212 70.98c-0.223 0-0.446 0-0.667 0c0-0.146 0-0.292 0-0.438 c0.221 0 0.4 0 0.7 0C221.212 70.7 221.2 70.8 221.2 70.98z M223.886 70.543c-0.437-0.078-0.523-0.386-1.001-0.438 c0.54-0.349 1.057-0.085 1.7 0C224.474 70.3 223.9 70.3 223.9 70.543z M225.225 69.9 C225.005 70 225.4 69.8 225.2 69.887L225.225 69.887z M231.241 69.887C232.244 69.9 230.9 70.8 231.2 69.9 L231.241 69.887z M231.91 70.543C232.913 70.6 231.6 71.4 231.9 70.543L231.91 70.543z M236.257 70.3 C237.559 70.9 235.1 70.6 236.3 70.324L236.257 70.324z M240.937 70.324C242.045 70.6 239.6 70.9 240.9 70.3 L240.937 70.324z M247.289 70.324C248.289 70.4 247 71.2 247.3 70.324L247.289 70.324z M250.298 69.2 c0.053-0.256 0.61-0.184 1.003-0.218C251.53 69.7 250.6 69.4 250.3 69.23z M251.301 66.8 C251.081 67 251.4 66.7 251.3 66.826L251.301 66.826z M250.632 66.826c-0.895-0.32 0.139-1.199 1.003-1.094 C251.793 66.4 250.7 66.3 250.6 66.826z M251.97 70.324C250.948 69.8 252.4 68.9 252 70.324L251.97 70.324z M252.304 47.369C253.304 47.4 252 48.3 252.3 47.369L252.304 47.369z M252.638 55 C252.418 55.2 252.8 54.9 252.6 55.021L252.638 55.021z M251.97 60.048c0.008-0.212 0.409-0.169 0.668-0.218 c0.399 0.3 0.1 0.3 0 0.655C252.273 60.4 252.4 60.1 252 60.048z M252.638 60.7 C253.638 60.7 252.3 61.6 252.6 60.704L252.638 60.704z"/>
	<path d="M703.027 39.311c0.176 0 0.4 0 0.5 0c-0.188-0.123-0.376-0.246-0.563-0.367 C703.01 39.1 703 39.2 703 39.311z"/>
	<path d="M708.041 42.37c0.064 0 0.1 0 0.1 0.051c-0.443-0.311-0.888-0.62-1.336-0.925c-0.161 0-0.322 0-0.483 0 c0-0.107 0-0.217 0-0.325c-0.383-0.259-0.766-0.519-1.15-0.774c-0.452-0.301-0.909-0.592-1.362-0.889 c-0.307 0.134-0.909 0.073-0.83 0.458c-0.039-0.001-0.061-0.015-0.093-0.021c0.573 0.4 1.4 0.9 1.9 1.2 c0.881 0.6 1.7 1.1 2.5 1.729C707.407 42.6 708 42.7 708 42.37z"/>
</g>
</svg>
