<?xml version="1.0" encoding="utf-8"?>
<!-- Generator: Adobe Illustrator 16.0.3, SVG Export Plug-In . SVG Version: 6.00 Build 0)  -->
<!DOCTYPE svg PUBLIC "-//W3C//DTD SVG 1.1//EN" "http://www.w3.org/Graphics/SVG/1.1/DTD/svg11.dtd">
<svg version="1.1" id="Layer_1" xmlns="http://www.w3.org/2000/svg" xmlns:xlink="http://www.w3.org/1999/xlink" x="0px" y="0px"
	 width="950px" height="127px" viewBox="0 0 950 127" enable-background="new 0 0 950 127" xml:space="preserve">
<g>
	<path d="M177.111,68.076c0,0.001,0,0.002,0,0.004l1.903,0.398c0.168,0,0.337,0,0.506,0c0,0.035,0,0.07,0,0.106l2.447,0.513
		c-0.005-0.079-0.014-0.156-0.038-0.218c0.135,0.07,0.251,0.171,0.354,0.284l2.001,0.419c-0.059-0.494,0.411-1.057,0.857-0.301
		c-0.044,0.186-0.164,0.293-0.263,0.422c1.542,0.309,3.085,0.605,4.627,0.911c-0.013-0.12-0.003-0.287,0.053-0.531
		c0.561,0.038,0.515,0.399,0.347,0.609c1.078,0.214,2.156,0.426,3.235,0.637c0.013-0.013,0.019-0.028,0.033-0.041
		c0.135,0.037,0.239,0.074,0.328,0.112c6.086,1.191,12.175,2.361,18.278,3.46c5.972,1.072,11.949,2.121,17.934,3.123
		c0-0.09,0-0.181,0-0.271c0.268,0,0.536,0,0.803,0c0,0.136,0,0.271,0,0.406c1.333,0.222,2.666,0.439,3.999,0.655
		c-0.044-0.17-0.047-0.381,0.017-0.66c0.948,0.59,0.747,0.848,2.008,0.401c0.072-0.342-0.156-0.378-0.402-0.401
		c0.39-0.836,0.779,0.111,0.856,1.06c0.395,0.063,0.79,0.129,1.185,0.19c-0.054-0.24-0.074-0.514-0.033-0.849
		c0.895-0.3,0.854,0.335,0.811,0.975c0.027,0.004,0.054,0.009,0.081,0.013c1.932,0.314,3.865,0.621,5.799,0.924
		c-1.288-0.922-1.686-2.085-3.479-0.706c0.236-0.523,0.536-0.983,0.945-1.333c-1.004-0.161-2.009-0.317-3.012-0.48
		c-1.495-0.234-2.987-0.479-4.48-0.721c-0.12,0.103-0.263,0.125-0.318-0.051c-0.534-0.087-1.068-0.17-1.601-0.258
		c-0.279,0.12-0.632,0.26-1.171,0.434c0-0.209,0-0.418,0-0.628c-3.485-0.576-6.966-1.174-10.446-1.781c-0.133,0-0.265,0-0.397,0
		c0-0.023,0-0.046,0-0.069c-2.938-0.514-5.874-1.033-8.81-1.561c-0.661-0.119-1.319-0.25-1.98-0.37
		c-0.365,0.051-0.888-0.056-1.256-0.009c0-0.075,0-0.15,0-0.226c-2.146-0.394-4.29-0.795-6.433-1.201
		c-0.044,0.151-0.157,0.354-0.392,0.624c-0.408-0.299-0.418-0.57-0.285-0.751c-5.597-1.064-11.189-2.152-16.774-3.271l-1.115-0.233
		c0.465,0.312,0.742,1.168-0.698,1.043c-0.098-0.753,0.061-1.061,0.282-1.13l-0.689-0.145c-0.001,0.025,0.006,0.042,0.004,0.069
		c-0.454,0.038-0.775-0.057-0.974-0.272l-3.937-0.825c0.122,0.274,0.147,0.646,0.092,1.098c0.342,0.074,0.379-0.156,0.401-0.4
		c1.164,1.172-0.673,0.441-1.606,0.4c0.256-0.292,0.378-0.72,0.398-1.248l-5.674-1.188l-9.479-2.105c0.124,0.339,0.193,0.531,0,0
		l-4-0.888c-1.646-0.378-3.289-0.775-4.935-1.16c0,0.188,0,0.377,0,0.566c-0.268,0-0.537,0-0.803,0c0-0.252,0-0.504,0-0.755
		c-0.399-0.093-0.798-0.188-1.197-0.281c0.269,0.38-0.681,1.155-0.422-0.099c-6.507-1.532-13.007-3.097-19.486-4.751
		c-8.916-2.282-17.798-4.681-26.646-7.221c-7.34-2.107-14.643-4.34-21.917-6.66c0.116,0.216-0.055,0.103-0.251-0.081
		c-1.407-0.449-2.814-0.896-4.218-1.352l-13.063-4.449c-4.309-1.602-8.664-3.089-12.937-4.787c-2.9-1.13-5.801-2.259-8.681-3.436
		c0.141,0.346-0.654,0.861-0.479,1.548c0.827,0.338,1.654,0.674,2.484,1.004c0,0,0.001-0.001,0.001-0.001
		c0.066-0.066,0.04-0.039-0.001,0.001c2.028,0.807,4.063,1.598,6.097,2.392c4.286,1.703,8.654,3.194,12.977,4.803l13.097,4.46
		c8.772,2.846,17.584,5.566,26.446,8.11c0.919,0.264,1.843,0.51,2.764,0.771c0.053-0.054,0.154-0.155,0.058-0.057
		c-0.028,0.027-0.044,0.043-0.058,0.057c6.711,1.904,13.445,3.726,20.198,5.48c0.324-0.43,0.128-1.38,1.139-1.12
		c0.186,0.803-0.013,1.222-0.59,1.265c1.062,0.275,2.12,0.565,3.182,0.837c7.358,1.88,14.742,3.65,22.136,5.376
		c-0.103-0.192-0.184-0.405-0.232-0.651c0.63,0.122,1.072,0.434,1.345,0.913c1.211,0.282,2.419,0.575,3.63,0.854l7.446,1.654
		c0.208-0.405,1.087-0.138,1.631-0.209c-0.101,0.206-0.262,0.352-0.45,0.471l4.871,1.082l6.001,1.258
		C177.1,68.076,177.105,68.076,177.111,68.076z M233.73,78.517C233.468,78.78,233.897,78.348,233.73,78.517L233.73,78.517z
		 M228.509,76.509C229.932,77.185,227.201,77.763,228.509,76.509L228.509,76.509z M226.903,76.509
		C227.074,76.341,226.643,76.772,226.903,76.509L226.903,76.509z M218.872,74.903C219.042,74.734,218.611,75.166,218.872,74.903
		L218.872,74.903z M217.668,74.903C217.838,74.734,217.406,75.166,217.668,74.903L217.668,74.903z M214.056,74.501
		C215.384,75.087,212.489,75.501,214.056,74.501L214.056,74.501z M200.804,72.092C200.54,72.354,200.971,71.924,200.804,72.092
		L200.804,72.092z M195.985,70.485C197.188,70.567,195.602,72.154,195.985,70.485L195.985,70.485z M194.78,70.084
		C194.516,70.348,194.948,69.916,194.78,70.084L194.78,70.084z M193.576,70.485C193.312,70.749,193.743,70.317,193.576,70.485
		L193.576,70.485z M185.945,69.282C186.117,69.113,185.684,69.544,185.945,69.282L185.945,69.282z M63.475,36.354
		C62.256,37.839,62.121,35.136,63.475,36.354L63.475,36.354z M67.49,37.157C68.692,37.239,67.105,38.825,67.49,37.157L67.49,37.157z
		 M72.709,38.763C72.877,38.595,72.447,39.026,72.709,38.763L72.709,38.763z M86.363,44.386
		C86.099,44.648,86.531,44.218,86.363,44.386L86.363,44.386z M133.344,57.235c-0.27,0-0.536,0-0.803,0c0-0.27,0-0.535,0-0.803
		c0.268,0,0.533,0,0.803,0C133.344,56.7,133.344,56.966,133.344,57.235z M137.76,58.038c0.648-0.113,0.691,0.379,1.205,0.402
		C139.124,59.219,137.135,59.026,137.76,58.038z"/>
	<path d="M636.893,13.406c-0.242-0.058-0.496,0.073-0.584,0.315c-0.097,0.259,0.034,0.547,0.295,0.643l0.006,0.002
		c0,0,0.992,0.367,2.522,0.774c0.769,0.202,1.672,0.415,2.679,0.563c0.502,0.073,1.03,0.13,1.588,0.147
		c0.556,0.012,1.138,0,1.772-0.144c0.314-0.072,0.646-0.183,0.982-0.36c0.084-0.046,0.168-0.103,0.25-0.156l0.063-0.042l0.031-0.021
		l0.008-0.005l0.063-0.053l0.008-0.008L646.65,15l0.301-0.246c0.566-0.56,0.889-1.113,1.119-1.753
		c0.405-1.153,0.25-2.377-0.19-3.304c-0.109-0.025-0.163-0.09-0.102-0.202c-0.014-0.024-0.024-0.051-0.038-0.075
		c-0.537-0.976-1.33-1.553-1.892-1.839c-0.278-0.165-0.514-0.234-0.672-0.298c-0.16-0.058-0.244-0.089-0.244-0.089
		c-0.045-0.017-0.094-0.032-0.141-0.044c-0.801-0.206-1.617,0.275-1.822,1.075c-0.207,0.8,0.275,1.615,1.074,1.821l0.137,0.035
		c0,0,0.039,0.01,0.109,0.028c0.069,0.021,0.186,0.027,0.303,0.085c0.252,0.085,0.588,0.262,0.859,0.622
		c0.276,0.346,0.469,0.917,0.344,1.514c-0.049,0.287-0.227,0.625-0.346,0.819l-0.263,0.275l-0.065,0.07l-0.002,0.002l-0.049,0.045
		c-0.111,0.08-0.262,0.164-0.443,0.23c-0.748,0.271-1.762,0.318-2.674,0.298c-0.926-0.022-1.81-0.117-2.562-0.22
		C637.883,13.64,636.893,13.406,636.893,13.406z M645.014,14.325C646.215,14.407,644.627,15.993,645.014,14.325L645.014,14.325z"/>
	<path d="M4.849,7.845c0.039-0.271,0.055-0.519,0.053-0.75H2.146c-0.445-0.004-0.809,0.357-0.81,0.801
		C1.333,8.179,1.484,8.432,1.702,8.578c0.507,0.329,1.021,0.646,1.532,0.97c-0.031-0.535,0.04-1.17,0.008-1.703
		C4.175,8.733,4.316,8.2,5.25,8.647c0.001,0.024-0.006,0.04-0.006,0.063h11.687c-0.058-0.243-0.079-0.522-0.037-0.865
		c0.825-0.124,1.178,0.354,1.147,0.865h1.318c-0.013-0.298,0.11-0.625,0.345-0.865c0.341,0.078,0.386,0.45,0.389,0.865h4.574
		c0.089-0.592,0.805-0.906,0.556,0h2.112c0-0.155,0-0.31,0-0.464c0.267,0,0.535,0,0.803,0c0,0.154,0,0.309,0,0.464h27.853
		c-0.646-1.115,1.345-1.423,0.491,0h2.915c0.052-0.052,0.163-0.163,0.063-0.063c-0.03,0.03-0.049,0.049-0.063,0.063h3.398
		c-0.257-0.207-0.544-0.384-0.927-0.464c0.386-0.614,1.099-0.181,1.563,0.464h33.312c-0.002-0.114,0.014-0.265,0.06-0.464
		c0.442,0.03,0.506,0.264,0.431,0.464h47.381c-0.779-0.89,0.079-1.639,0.332,0h9.617c0.052-0.052,0.163-0.162,0.063-0.063
		c-0.03,0.03-0.049,0.049-0.063,0.063h3.795c-0.04-0.02-0.079-0.035-0.12-0.063c0.616-0.84,0.998-1.06,0.945-1.552h-4.527
		c-0.101,0.285-0.486,0.506-0.492,0h-5.586c0.017,0.106,0.027,0.22,0.023,0.347c-0.911,0.167-1.203-0.051-1.316-0.347h-15.542
		c0.129,0.743,0.057,1.539-0.812,1.552c0.346-0.593,0.317-1.099,0.265-1.552h-8.292c0,0.116,0,0.231,0,0.347
		c-0.27,0-0.536,0-0.803,0c0-0.116,0-0.231,0-0.347H76.164c0.049,0.223,0.147,0.545,0.16,1.151
		c-0.593-0.018-0.861-0.608-0.801-1.151h-12.82c-0.102,0.285-0.486,0.506-0.493,0h-9.365c-0.077,0.287-0.158,0.551-0.212,0.75
		c-0.568-0.106-0.681-0.372-0.637-0.75H26.077c-0.047,0.047-0.033,0.033,0,0H24.08c-0.113,0.194-0.339,0.173-0.595,0H5.33
		C5.219,7.428,5.058,7.698,4.849,7.845z M149.405,8.246C149.142,8.509,149.573,8.077,149.405,8.246L149.405,8.246z M98.007,7.845
		C99.21,7.925,97.624,9.513,98.007,7.845L98.007,7.845z M91.583,7.442C91.751,7.274,91.319,7.706,91.583,7.442L91.583,7.442z
		 M66.687,7.442C66.854,7.274,66.423,7.706,66.687,7.442L66.687,7.442z M59.057,8.647c-0.495-0.175-0.825-0.514-0.803-1.205
		C59.11,7.255,59.018,8.017,59.057,8.647z M53.435,8.246C53.172,8.509,53.604,8.077,53.435,8.246L53.435,8.246z M37.373,7.845
		C38.344,9.191,36.026,6.874,37.373,7.845L37.373,7.845z M12.076,8.647c-0.857,0.188-0.765-0.573-0.803-1.205
		C11.767,7.618,12.098,7.957,12.076,8.647z"/>
	<path d="M289.443,15.362c1.802,1.877,4.25,3.201,6.812,4.011c1.285,0.407,2.605,0.68,3.914,0.849
		c1.314,0.182,2.617,0.213,3.854,0.217c1.5-0.005,2.929-0.009,4.271-0.014c0.04-0.043,0.074-0.084,0.125-0.133
		c0.094,0.045,0.167,0.089,0.228,0.132c0.734-0.002,1.449-0.004,2.114-0.006c1.972-0.01,3.616-0.012,4.766,0.006
		c1.151,0.011,1.808,0.017,1.808,0.017c0.002,0,0.007,0,0.008-0.001c0.276-0.002,0.498-0.228,0.495-0.504
		c-0.002-0.277-0.228-0.498-0.504-0.496c0,0-0.658,0.006-1.808,0.017c-1.15,0.018-2.794,0.016-4.766,0.006
		c-1.972-0.006-4.273-0.013-6.738-0.021c-1.227-0.009-2.477-0.034-3.729-0.208c-1.257-0.164-2.521-0.422-3.748-0.797
		c-0.054-0.016-0.107-0.037-0.162-0.054c-0.132,0.279-0.513,0.453-0.468-0.155c-2.211-0.758-4.272-1.964-5.685-3.583
		c-0.5-0.591-0.903-1.226-1.204-1.875c-0.028,0.171-0.109,0.395-0.284,0.697c-0.797-0.589-0.224-1.163,0.108-1.104
		c-0.076-0.197-0.149-0.394-0.203-0.592c-0.274-0.958-0.291-1.903-0.107-2.733c-0.069,0.001-0.123,0.019-0.2,0.012
		c-0.189-0.824,0.027-1.241,0.635-1.266c0.175-0.359,0.38-0.682,0.606-0.961c0.426-0.568,0.905-0.982,1.313-1.294
		c0.424-0.305,0.773-0.51,1.034-0.631c0.255-0.119,0.391-0.182,0.391-0.182c0.381-0.177,0.713-0.47,0.938-0.863
		c0.576-1.009,0.226-2.293-0.782-2.87c-1.009-0.576-2.294-0.226-2.87,0.783l-0.014,0.024c0,0-0.097,0.169-0.278,0.486
		c-0.19,0.299-0.451,0.76-0.768,1.337c-0.313,0.583-0.665,1.301-0.981,2.154c-0.319,0.848-0.578,1.851-0.651,2.955
		c-0.079,1.098,0.035,2.311,0.487,3.462C287.848,13.332,288.538,14.431,289.443,15.362z M313.639,19.892
		C313.375,20.153,313.808,19.723,313.639,19.892L313.639,19.892z M287.939,10.254C288.109,10.086,287.677,10.517,287.939,10.254
		L287.939,10.254z"/>
	<path d="M325.603,23.221c1.034,0,1.967-0.402,2.678-1.044c-0.527-0.297-1.051-0.599-0.991-1.483
		c0.936-0.107,1.246,0.411,1.228,1.257c0.676-0.718,1.097-1.679,1.097-2.743c0-2.216-1.796-4.012-4.012-4.012
		s-4.012,1.796-4.012,4.012S323.387,23.221,325.603,23.221z M329.298,17.883c0.573,1.778-1.359,1.051-1.205,2.409
		C327.168,19.727,328.124,17.678,329.298,17.883z M323.676,19.892c0.324,0.211,0.653,0.418,1.205,0.4
		c-0.225,0.836-0.627,0.852-1.205,0.402C323.676,20.427,323.676,20.159,323.676,19.892z"/>
	<path d="M495.999,17.092h-5.316c-0.082,0.486-0.186,0.904-1.471,0.848c0.024-0.32,0.087-0.601,0.184-0.848h-5.524
		c0.115,0.276,0.166,0.617,0.176,1h12.17C496.231,17.728,496.229,17.359,495.999,17.092z"/>
	<path d="M484.543,45.016c0.275,0,0.5-0.224,0.5-0.499V30.849c-0.071-0.031-0.149-0.056-0.248-0.059
		c0.024-0.153,0.121-0.233,0.248-0.284v-3.217c0-0.276-0.225-0.5-0.5-0.5c-0.277,0-0.5,0.224-0.5,0.5v2.772
		c0.304,0.435,0.195,0.408,0,0.244v14.211C484.043,44.792,484.266,45.016,484.543,45.016z"/>
	<path d="M777.618,65.997l-9.896,2.073c-0.496,0.1-0.993,0.194-1.489,0.293c-0.089,0.527-0.598,1.16-1.158,0.974
		c-0.107-0.402-0.026-0.617,0.117-0.769c-0.298,0.06-0.596,0.117-0.893,0.176c0.169,0.362-0.572,0.976-0.48,0.095
		c-2.517,0.5-5.034,0.998-7.553,1.487c-0.011,0.07-0.02,0.143-0.026,0.217c-0.122-0.024-0.206-0.084-0.262-0.16
		c-3.119,0.605-6.243,1.187-9.367,1.768c1.184,0.089-0.388,1.658-0.01,0.002c-0.779,0.146-1.56,0.294-2.34,0.438
		c0.369,0.13,0.275,0.724,0.335,1.164c0.401,0,0.804,0,1.204,0c-0.005,0.083-0.029,0.146-0.061,0.202
		c0.506-0.094,1.011-0.188,1.517-0.283c0.094-0.338,0.166-0.724,0.151-0.722c0.246-0.043,0.385,0.271,0.407,0.617
		c6.752-1.263,13.497-2.566,20.232-3.914l9.556-2.002C777.113,67.385,777.147,66.487,777.618,65.997z M749.014,71.748
		C750.344,72.332,747.447,72.746,749.014,71.748L749.014,71.748z M758.65,70.142C759.854,70.222,758.268,71.81,758.65,70.142
		L758.65,70.142z"/>
	<path d="M253.35,81.714c0.005-0.104,0.019-0.227,0.056-0.386c0.438,0.029,0.505,0.259,0.433,0.458
		c0.568,0.084,1.137,0.168,1.705,0.253c-0.052-0.274-0.204-0.612-0.531-1.113c0.288-0.244,0.497-0.404,0.681-0.498
		c-0.748-0.111-1.497-0.223-2.245-0.333c-0.06,0.279-0.085,0.563-0.042,0.831c-1.108,0.357-1.245-0.258-1.233-1.021
		c-1.494-0.217-2.986-0.443-4.478-0.672c-0.328,0.262-0.998,0.205-1.168-0.175c-0.613-0.095-1.226-0.192-1.838-0.289
		c0.154,0.447,0.14,0.786,0.275,1.68c1.055,0.165,2.11,0.322,3.166,0.483c0.003-0.107,0.018-0.236,0.057-0.407
		c0.453,0.03,0.509,0.275,0.424,0.479c1.363,0.206,2.725,0.416,4.089,0.613C252.917,81.648,253.133,81.682,253.35,81.714z"/>
	<path d="M637.147,19.458c-1.151-0.011-1.81-0.017-1.81-0.017c-0.002,0-0.006,0-0.008,0.001c-0.277,0.002-0.498,0.228-0.496,0.504
		c0.002,0.277,0.229,0.498,0.504,0.496c0,0,0.659-0.006,1.809-0.017c1.151-0.018,2.793-0.016,4.767-0.006
		c0.247,0.001,0.515,0.001,0.771,0.002c-0.032-0.153-0.039-0.331-0.08-0.473c-0.323,0.212-0.654,0.416-1.206,0.401
		c0.064-0.469-0.088-0.716-0.402-0.804c0.009-0.03,0.02-0.052,0.029-0.078C639.452,19.474,638.116,19.473,637.147,19.458z"/>
	<path d="M419.891,45.016c0.276,0,0.5-0.224,0.5-0.499v-3.284c-0.028,0.028-0.039,0.039,0,0V27.289c0-0.276-0.224-0.5-0.5-0.5
		c-0.275,0-0.5,0.224-0.5,0.5v1.59c0.058-0.05,0.134-0.101,0.256-0.155c1.06,0.676,0.08,0.705-0.256,0.472v3.739
		c0.116-0.15,0.336-0.077,0.658,0.608c-0.327,0.436-0.544,0.391-0.658,0.191v10.781C419.391,44.792,419.615,45.016,419.891,45.016z
		 M419.646,38.763C420.85,38.845,419.262,40.431,419.646,38.763L419.646,38.763z"/>
	<path d="M481.252,49.084h-2.578c0,0.173,0,0.347,0,0.521c0,0.135,0,0.269,0,0.402c-0.324-0.212-0.653-0.418-1.205-0.402
		c0.001-0.17-0.002-0.345-0.006-0.521h-0.951c-0.063,0-0.12,0.022-0.18,0.036c-0.058-0.013-0.112-0.035-0.174-0.035h-8.742
		c-0.002,0.18-0.003,0.36,0.015,0.52c-0.402-0.048-0.621-0.258-0.707-0.52h-6.158c0.481,0.498-0.802,0.349-0.714,0h-0.935
		c0.03,0.036,0.06,0.073,0.081,0.119c-0.363,1.102-1.478-0.784-1.606,0.803c-0.584-0.284-0.371-0.675,0.065-0.922h-11.724
		c0.004,0.042,0.011,0.075,0.015,0.119c-0.055-0.04-0.098-0.079-0.146-0.119h-1.196c0.109,0.33-0.034,0.825-0.267,0.922
		c-0.578,0.243-0.789-0.484-0.596-0.922h-9.972c-0.102,0.084-0.217,0.105-0.282,0h-13.253c0.193,0.608,0.26,1.344,0.79,1.616h27.332
		c-0.006-0.103-0.008-0.203-0.003-0.293c0.554-0.048,0.771,0.078,0.822,0.293h0.551c-0.566-0.422,0.055-1.679,0.637-0.694
		c-0.068,0.29-0.324,0.393-0.38,0.694h12.865c-0.109-0.144-0.102-0.204,0.205,0h2.283c-0.137-0.133-0.286-0.254-0.517-0.293
		c0.044-1.421,1.327,0.854,1.205-0.401c0.448,0.185,0.358,0.424,0.213,0.694h7.441c0.075-0.08,0.192-0.176,0.375-0.293
		c0.241,0.106,0.34,0.206,0.355,0.293h1.948c0.063,0,0.119-0.022,0.178-0.036c0.06,0.014,0.115,0.036,0.179,0.036h3.017
		c0.01-0.072,0.022-0.147,0.043-0.237c0.275,0.019,0.4,0.118,0.44,0.237h1.405C481.251,50.171,481.187,49.616,481.252,49.084z
		 M426.875,49.604C428.076,49.687,426.49,51.272,426.875,49.604L426.875,49.604z M428.078,49.604
		C428.247,49.437,427.816,49.868,428.078,49.604L428.078,49.604z M441.33,49.204C442.815,50.421,440.11,50.558,441.33,49.204
		L441.33,49.204z"/>
	<path d="M488.201,73.641v1.355C488.531,74.993,488.96,74.783,488.201,73.641z"/>
	<path d="M365.042,91.825c0.055,0.529-0.188,1.166-0.485,1.59c1.98,0.118,3.961,0.231,5.943,0.343
		c-0.02-0.298,0.016-0.684,0.159-1.187c0.422,0.488,0.602,0.903,0.648,1.227c1.716,0.094,3.433,0.189,5.15,0.255
		c0.431,0.021,0.861,0.037,1.292,0.059c0.322-0.366,0.484-0.788,0.239-1.604c-0.483-0.023-0.967-0.042-1.451-0.065
		C372.701,92.295,368.872,92.055,365.042,91.825z"/>
	<path d="M516.867,26.789c-0.275,0-0.5,0.224-0.5,0.5v17.227c0,0.276,0.225,0.5,0.5,0.5c0.277,0,0.5-0.224,0.5-0.499v-4.095
		c-0.078,0.374-0.706,0.723-0.448-0.397c0.291,0.019,0.417,0.127,0.448,0.256v-4.445c-0.186,0.143-0.464,0.231-0.851,0.172
		c0.213-0.321,0.421-0.652,0.402-1.202c0.197,0.022,0.336,0.088,0.448,0.168v-4.212c-0.136,0.023-0.275,0.042-0.448,0.028
		c-0.169-0.732-0.015-1.142,0.448-1.242v-2.259C517.367,27.013,517.144,26.789,516.867,26.789z"/>
	<path d="M533.031,45.016c0.137,0,0.26-0.056,0.351-0.145c-0.001-0.01,0.001-0.018,0-0.028c0.006,0.002,0.01,0.004,0.017,0.006
		c0.08-0.088,0.133-0.204,0.133-0.333V40.86c-0.463,0.029-0.714-0.152-1-0.298v3.955C532.531,44.792,532.754,45.016,533.031,45.016z
		"/>
	<path d="M501.205,40.752v-9.25c-0.047-0.216-0.05-0.467,0-0.687v-3.526c0-0.276-0.223-0.5-0.5-0.5c-0.275,0-0.5,0.224-0.5,0.5
		v13.563c0.54,0.124,0.244,0.665,0,0.729v2.935c0,0.276,0.225,0.5,0.5,0.5c0.277,0,0.5-0.224,0.5-0.499v-3.004
		C500.775,41.331,500.976,41.037,501.205,40.752z"/>
	<path d="M387.297,44.927c-0.083-0.156-0.148-0.33-0.176-0.541c0.318,0.083,0.629,0.174,0.912,0.294
		c0.018-0.051,0.033-0.105,0.033-0.163V27.289c0-0.276-0.224-0.5-0.5-0.5s-0.5,0.224-0.5,0.5v7.114
		c0.014-0.014,0.029-0.029,0.056-0.056c0.097-0.096-0.001,0.003-0.056,0.057v4.792c0.021-0.01,0.033-0.02,0.056-0.03
		c0.889,0.566,0.342,0.679-0.056,0.563v4.789C387.065,44.691,387.16,44.838,387.297,44.927z M387.522,41.574
		C388.942,42.251,386.213,42.829,387.522,41.574L387.522,41.574z"/>
	<path d="M423.261,21.096c0.068,0.094,0.116,0.167,0.154,0.228h5.753c0.289-0.245,0.734-0.222,1.096,0h0.98
		c-0.137-0.338-0.43-0.52-0.422-1h-2.05c-0.166,0.472-0.607,0.937-1.097,0.772c-0.219-0.574,0.012-0.698,0.292-0.772h-12.271
		c0.311,0.128,0.325,0.555,0.321,1h7.191C422.889,21.024,422.518,20.56,423.261,21.096z M417.237,20.694
		C418.208,22.041,415.891,19.724,417.237,20.694L417.237,20.694z"/>
	<path d="M378.274,94.135c0.143,0.007,0.285,0.013,0.428,0.02c-0.029-0.131-0.041-0.261-0.012-0.378
		C378.489,93.834,378.369,93.972,378.274,94.135z"/>
	<path d="M404.228,44.517v-3.822c-0.287-0.178-0.236-0.646,0-1.032v-5.741c-0.002,0-0.004,0-0.006-0.001
		c0.002,0,0.004,0,0.006,0.001v-6.633c0-0.276-0.224-0.5-0.5-0.5c-0.275,0-0.5,0.224-0.5,0.5v2.305c0.314,0.449,0.2,0.416,0,0.247
		v14.675c0,0.276,0.225,0.5,0.5,0.5C404.004,45.016,404.228,44.792,404.228,44.517z"/>
	<path d="M414.426,21.096c0.398-0.069,0.568,0.089,0.759,0.228h0.446c0-0.333,0-0.666,0-1h-14.017c-0.032,0.976-1.096,0.545-0.704,0
		h-44.28c-0.01,0.523-0.254,0.814-0.83,0.772c0-0.257,0-0.515,0-0.772h-11.299c-0.276,0-0.5,0.224-0.5,0.5
		c0,0.276,0.224,0.5,0.5,0.5h20.514c-0.196-0.717,0.58-1.327,0.493,0h17.929c0.033-0.075,0.061-0.15,0.071-0.228
		c0.166,0.068,0.252,0.145,0.295,0.228h15.573c0.277-0.13,0.616-0.2,0.996-0.228c0.013,0.085,0.004,0.152,0.005,0.228h14.002
		C414.393,21.25,414.396,21.187,414.426,21.096z M344.958,21.096C345.127,20.927,344.696,21.358,344.958,21.096L344.958,21.096z"/>
	<path d="M440.056,20.323c0.256,0.146,0.478,0.228,0.641,0H440.056z"/>
	<path d="M352.714,18.092h74.794c-0.196-0.422-0.111-0.892,0.468-1h-10.75c-0.059,0.06-0.128,0.129,0,0h-9.245
		c-0.584,0.385-0.874,0.295-0.962,0h-5.443c-0.119,0.262-0.391,0.383-0.458,0h-3.649c-0.278,0.356-1.076,0.192-1.111,0.791
		c-0.483-0.194-0.566-0.513-0.423-0.791h-42.892C352.997,17.458,352.846,17.852,352.714,18.092z"/>
	<path d="M449.362,17.482c-0.081,0.508-0.947,0.231-1.159,0.609h8.343c-0.031-0.117-0.027-0.309,0.042-0.609
		c0.56,0.037,0.513,0.399,0.344,0.609h9.452c-0.053-0.055-0.105-0.12-0.158-0.209c0.076-0.321,0.394-0.401,0.399-0.791h-2.82
		c-0.129,0.129-0.06,0.06,0,0h-10.759c1.049,0.145-0.437,1.609-0.074,0h-4.722C448.545,17.266,448.927,17.705,449.362,17.482z"/>
	<path d="M497.645,17.137c0.073,0.486-0.072,0.754-0.283,0.955h7.863c-0.019-0.12-0.01-0.293,0.05-0.554
		c0.512,0.035,0.517,0.341,0.385,0.554h32.517c0.009-0.052,0.014-0.095,0.025-0.152c0.107,0.042,0.187,0.095,0.253,0.152h33.807
		c0.024-0.051,0.042-0.097,0.071-0.152c0.05,0.053,0.084,0.102,0.124,0.152h15.086c-0.019-0.12-0.01-0.293,0.05-0.554
		c0.511,0.035,0.517,0.341,0.385,0.554h7.195c-0.019-0.12-0.01-0.293,0.05-0.554c0.511,0.035,0.517,0.341,0.385,0.554h1.222
		c0-0.185,0-0.369,0-0.554c0.268,0,0.531,0,0.801,0c0,0.185,0,0.369,0,0.554h10.791c0.277,0,0.5-0.224,0.5-0.5
		c0-0.276-0.223-0.5-0.5-0.5h-7.84c-0.047,0.128-0.095,0.271-0.142,0.446c-0.095-0.202-0.197-0.337-0.305-0.446h-2.088
		c-0.135,0.021-0.271,0.039-0.417,0.045c0.003-0.017,0-0.028,0.002-0.045h-36.536c-0.004,0.018,0,0.026-0.005,0.045
		c-0.009-0.02-0.03-0.028-0.042-0.045h-34.034c-0.02,0.016-0.025,0.02-0.05,0.039c-0.003,0.002-0.004,0.003-0.007,0.006
		c-0.002,0.001-0.003,0.002-0.005,0.004c0.004-0.003,0.008-0.006,0.012-0.01c0.02-0.015,0.032-0.025,0.05-0.039h-29.978
		C497.23,17.169,497.433,17.201,497.645,17.137z M526.508,17.486c-0.156,0.123-0.244,0.189-0.277,0.216
		C526.271,17.67,526.379,17.587,526.508,17.486z M507.282,17.137C508.703,17.813,505.971,18.39,507.282,17.137L507.282,17.137z"/>
	<path d="M338.211,17.592c0,0.276,0.224,0.5,0.5,0.5h13.612c-0.4-0.33-0.438-0.657-0.29-1h-13.322
		C338.435,17.092,338.211,17.316,338.211,17.592z"/>
	<path d="M492.813,20.323h-6.524c0.038,0.276,0.072,0.556,0.113,0.829c-1.742-0.835-0.926-0.373-2.812,0
		c0.312-0.295,0.666-0.547,0.991-0.829h-5.006c-0.001,0.009-0.001,0.017-0.002,0.026c-0.173,0.026-0.303,0.01-0.413-0.026h-7.686
		c0.668,0.7-0.579,0.164-1.481,0h-12.011c0.819,0.231-0.527,1.511-0.196,0h-2.129c-0.249,0.307-0.54,0.644-0.64,1h34.948
		c-0.028-0.426,0.76-0.453,0.772,0h2.397C492.903,21.115,492.808,20.77,492.813,20.323z"/>
	<path d="M466.954,18.092h6.897c-0.011-0.4,0.042-0.737,0.169-1h-7.36C467.165,17.232,467.166,17.808,466.954,18.092z"/>
	<path d="M194.355,51.046c0.404,0.255,0.802,0.511,1.208,0.767l0.005,0.003c0.192,0.104,0.408,0.12,0.602,0.065
		c-0.499-0.117-0.892-0.92,0.562-0.676c0.004-0.034,0.025-0.067,0.025-0.101v-1.115C195.152,48.955,194.882,50.1,194.355,51.046z"/>
	<path d="M259.053,80.926c0.181,0.552-0.635,1.186-0.481-0.071c-0.674-0.101-1.349-0.199-2.023-0.3
		c0.136,0.095,0.285,0.213,0.471,0.371c-0.068,0.479-0.199,0.895-0.362,1.278c1.345,0.2,2.69,0.394,4.036,0.589
		c0.301-0.318,0.712-0.38,1.146,0.141c-0.013,0.005-0.021,0.011-0.034,0.016c0.639,0.092,1.278,0.18,1.917,0.27
		c-0.236-0.495-0.438-1.04-0.702-1.729C261.698,81.302,260.375,81.121,259.053,80.926z"/>
	<path d="M159.08,8.71h36.06v0.77c0.016-0.01,0.025-0.019,0.042-0.029c0.637,0.28,0.306,0.52-0.042,0.585v27.297
		c0.248-0.092,0.528-0.152,0.845-0.175c0.28,0.834-0.254,0.854-0.845,0.818v4.313c0,0-2.086-0.673-3.971,0.538
		c-0.747,0.48-1.099,1.215-1.256,1.926c0.018,0.013,0.029,0.02,0.049,0.034c0.459,0.638,0.182,0.453-0.094,0.186
		c-0.168,0.999,0.023,1.894,0.023,1.894s-2.153-1.345-3.209-2.022c-3.102-1.997-5.846-4.014-8.6-6.438
		c-0.894-0.776-1.841-1.6-2.721-2.453c-0.22,0-0.439,0-0.657,0c0-0.22,0-0.44,0-0.661c-0.244-0.254-0.488-0.509-0.709-0.769
		c-0.589-0.685-1.139-1.395-1.597-2.145c-0.467-0.74-0.86-1.53-1.064-2.311c-0.271-0.787-0.183-1.545-0.043-2.15
		c0.307-0.567,0.592-1.029,1.243-1.322c0.25-0.171,0.613-0.282,0.957-0.391c0.305-0.138,0.714-0.181,1.106-0.232
		c0.719-0.154,1.644-0.08,2.438-0.021h0.028c1.882,0.134,3.513-1.272,3.667-3.146c-0.001-0.035-0.002-0.069-0.004-0.104
		c0.004,0.001,0.006,0.003,0.01,0.005c0.104-1.871-1.31-3.485-3.188-3.62c-0.836-0.056-1.628,0.19-2.258,0.645
		c-0.943,0.682-1.836,1.185-2.753,1.913c-0.452,0.331-0.885,0.672-1.322,1.099c-0.432,0.398-0.851,0.784-1.208,1.326
		c-0.177,0.257-0.371,0.484-0.532,0.746l-0.401,0.877c-0.308,0.545-0.32,1.245-0.43,1.835c0.015,1.225,0.269,2.364,0.774,3.274
		c0.433,0.955,1.017,1.763,1.602,2.537c0.601,0.766,1.216,1.502,1.887,2.17c1.318,1.366,2.75,2.584,4.208,3.754
		c2.908,2.34,5.971,4.454,9.06,6.512c2.34,1.558,4.705,3.067,7.085,4.576c-0.02-1.798-0.375-3.226-0.086-5.164
		c2.161,0.748,3.427,2.543,3.583,4.436V37.396c-0.033-0.09-0.038-0.243,0-0.468v-4.35c-0.033-0.09-0.038-0.243,0-0.468v-1.779
		c-0.123,0-0.247,0-0.37,0c0-0.268,0-0.535,0-0.803c0.123,0,0.247,0,0.37,0v-1.46c-0.237-0.203-0.385-0.495-0.37-0.95
		c0.155-0.034,0.271-0.028,0.37-0.006V7.902c0-0.446-0.362-0.807-0.807-0.807h-35.756C159.904,7.793,159.533,8.465,159.08,8.71z
		 M179.119,22.3C180.323,22.382,178.736,23.968,179.119,22.3L179.119,22.3z M177.111,20.694
		C177.282,20.526,176.851,20.956,177.111,20.694L177.111,20.694z M169.882,30.331C170.053,30.163,169.62,30.595,169.882,30.331
		L169.882,30.331z M169.48,25.513C170.686,25.594,169.098,27.181,169.48,25.513L169.48,25.513z M191.969,49.204
		C191.705,49.467,192.137,49.035,191.969,49.204L191.969,49.204z M194.78,45.188c-0.038,0.038-0.059,0.059-0.072,0.072
		C194.756,45.212,194.885,45.083,194.78,45.188z M194.78,43.181C196.111,43.767,193.215,44.181,194.78,43.181L194.78,43.181z
		 M195.182,39.968c0.857-0.187,0.764,0.574,0.803,1.205C195.49,40.998,195.162,40.659,195.182,39.968z M195.985,43.181
		C197.205,43.655,195.55,45.311,195.985,43.181L195.985,43.181z M196.387,41.574c0.012-0.012,0.015-0.015,0.021-0.021
		c-0.013,0.013-0.03,0.029-0.048,0.048C196.37,41.591,196.374,41.587,196.387,41.574z M195.583,7.442
		C195.751,7.274,195.321,7.706,195.583,7.442L195.583,7.442z M181.528,7.442C182.733,7.524,181.145,9.11,181.528,7.442
		L181.528,7.442z M165.469,7.442C165.205,7.706,165.636,7.274,165.469,7.442L165.469,7.442z"/>
	<path d="M316.063,14.365l0.008-0.003c0.234-0.086,0.372-0.336,0.313-0.585c-0.064-0.269-0.334-0.435-0.603-0.372
		c0,0-0.99,0.234-2.499,0.443c-0.753,0.103-1.635,0.198-2.561,0.22c-0.912,0.02-1.925-0.027-2.674-0.298
		c-0.182-0.066-0.333-0.149-0.444-0.229l-0.056-0.052c0.022,0.02,0.041,0.036,0.014,0.012l-0.008-0.009l-0.066-0.069l-0.263-0.275
		c-0.119-0.194-0.297-0.532-0.345-0.819c-0.125-0.597,0.068-1.168,0.344-1.514c0.272-0.36,0.606-0.538,0.858-0.622
		c0.117-0.057,0.234-0.064,0.303-0.085c0.07-0.018,0.108-0.028,0.108-0.028l0.139-0.036c0.047-0.012,0.094-0.027,0.14-0.044
		c0.775-0.284,1.173-1.144,0.889-1.919c-0.284-0.775-1.143-1.173-1.919-0.889c0,0-0.085,0.031-0.244,0.089
		c-0.158,0.065-0.393,0.133-0.673,0.298c-0.348,0.178-0.781,0.484-1.191,0.912c-0.013,0.048-0.023,0.099-0.026,0.157
		c-0.046,0.009-0.089,0.01-0.128,0.005c-0.195,0.225-0.382,0.472-0.544,0.766c-0.547,0.95-0.776,2.31-0.329,3.581
		c0.23,0.64,0.553,1.193,1.12,1.753L306.022,15l0.075,0.061l0.009,0.008l0.062,0.053l0.008,0.005l0.031,0.021l0.062,0.041
		c0.083,0.053,0.167,0.11,0.251,0.156c0.335,0.176,0.666,0.288,0.982,0.36c0.633,0.144,1.215,0.157,1.773,0.144
		c0.557-0.016,1.085-0.074,1.588-0.147c1.006-0.148,1.91-0.361,2.677-0.563C315.072,14.732,316.063,14.365,316.063,14.365z
		 M307.508,13.456c-0.002-0.002,0.003,0.002,0.007,0.006l-0.005-0.004L307.508,13.456z"/>
	<path d="M42.943,27.595c-1.222-0.502-2.44-1.013-3.651-1.54c-4.159-1.694-8.221-3.595-12.297-5.466
		c-0.119,0.204-0.292,0.501-0.381,0.656c0.056-0.097,0.155-0.269,0.319-0.551c0.027-0.047,0.042-0.071,0.062-0.105
		c-0.098-0.045-0.196-0.09-0.294-0.135c-1.536-0.738-3.062-1.495-4.585-2.258c0,0.164,0,0.327,0,0.49c-0.269,0-0.536,0-0.803,0
		c0-0.268,0-0.535,0-0.804c0.056,0,0.111,0,0.167,0c-0.294-0.148-0.586-0.3-0.879-0.449c-0.032-0.004-0.061-0.016-0.085-0.044
		c-5.207-2.647-10.326-5.46-15.282-8.535c-0.081,0.699-0.75,0.81-1.046,1.294c5.803,3.609,11.82,6.835,17.928,9.862
		c-0.001-0.042,0.003-0.078,0.001-0.12c0.188-0.034,0.324,0.109,0.406,0.323c1.16,0.573,2.323,1.141,3.488,1.701
		c2.059,0.942,4.114,1.895,6.178,2.827c-0.011-0.145-0.005-0.272-0.033-0.435c0.594,0.209,1.012,0.595,1.606,0.804
		c-0.024,0.106-0.068,0.193-0.112,0.28c1.663,0.739,3.331,1.465,5.016,2.152c0.779,0.339,1.563,0.667,2.346,0.995
		c-0.007-0.072-0.024-0.133-0.022-0.215c0.55-0.12,0.708,0.152,0.761,0.528c0.271,0.112,0.543,0.221,0.814,0.333
		C42.408,28.7,42.752,27.871,42.943,27.595z M23.721,20.292c-0.033,0.033-0.055,0.055-0.069,0.069
		C23.701,20.312,23.825,20.188,23.721,20.292z M32.153,23.505C32.321,23.337,31.89,23.769,32.153,23.505L32.153,23.505z
		 M36.971,26.315C37.14,26.147,36.709,26.579,36.971,26.315L36.971,26.315z"/>
	<path d="M475.846,18.092c0.045-0.372,0.105-0.758,0.021-1h-0.599c-0.065,0.387-0.143,0.761-0.355,1H475.846z"/>
	<path d="M452.717,43.498v-10.65c-0.231,0.342-0.612,0.638-1,0.804v10.363C451.746,43.721,452.226,43.399,452.717,43.498z"/>
	<path d="M452.573,31.536c0.059,0.045,0.101,0.094,0.144,0.143v-4.39c0-0.276-0.224-0.5-0.5-0.5c-0.164,0-0.302,0.084-0.394,0.206
		c0.018,0.112-0.032,0.234-0.106,0.329v1.509c0.17,0.132,0.117,0.351,0,0.499v3.519C452.147,32.557,452.498,32.185,452.573,31.536z"
		/>
	<path d="M533.531,39.614v-4.087c-0.244,0.186-0.622,0.239-1,0.291v4.015C532.764,39.659,533.102,39.591,533.531,39.614z"/>
	<path d="M478.52,17.092c-0.039,0.019-0.086,0.034-0.148,0.045c0-0.015,0-0.03,0-0.045h-2.437c0.429,0.02,0.408,0.489,0.346,1h1.81
		c0.191-0.163,0.167-0.119,0.059,0h3.982c0.15-0.276,0.252-0.602,0.279-1H478.52z"/>
	<path d="M452.217,45.016c0.276,0,0.5-0.224,0.5-0.499v-0.65c-0.236,0.118-0.542,0.167-0.546,0.519
		c-0.273-0.043-0.411-0.142-0.454-0.259v0.389C451.717,44.792,451.941,45.016,452.217,45.016z"/>
	<path d="M436.054,45.016c0.276,0,0.5-0.224,0.5-0.499V30.331c-0.148,0-0.295,0-0.444,0c0-0.535,0-1.07,0-1.606
		c-0.168,0.051-0.36,0.11-0.556,0.168v9.838c0.089,0.099,0.108,0.26,0,0.481v5.305C435.554,44.792,435.778,45.016,436.054,45.016z"
		/>
	<path d="M438.543,20.323h-4.874c-0.05,0.05-0.087,0.086-0.001,0h-0.745c0.058,0.19,0.182,0.315,0.375,0.371
		c-0.344,0.162-0.61,0.402-0.891,0.629h1.607c0.029-0.076,0.05-0.148,0.087-0.228c2.542-0.131,2.925-0.653,3.614,0
		c0.432-0.45,0.375-0.228,0.235,0.228h1.164C438.95,20.964,438.802,20.588,438.543,20.323z"/>
	<path d="M454.581,21.096c0-0.257,0-0.515,0-0.772h-9.979c1.144,0.563-1.524,0.939-0.103,0h-3.105c0.025,0.315-0.004,0.671-0.073,1
		h4.383c0.022-0.068,0.037-0.145,0.044-0.228c0.202-0.041,0.337,0.063,0.412,0.228h1.153c0.01-0.069,0.021-0.142,0.042-0.228
		c0.268,0.019,0.393,0.113,0.436,0.228h6.835C454.604,21.255,454.589,21.179,454.581,21.096z"/>
	<path d="M434.1,18.092h9.527c0.083-0.175,0.135-0.374,0.113-0.609c0.35,0.038,0.47,0.293,0.473,0.609h3.686
		c0.005-0.104,0.131-0.209,0.256-0.209c0.074-0.341-0.156-0.378-0.4-0.4c0.045-0.205,0.1-0.324,0.164-0.391h-10.072
		c-0.144,0.045-0.298,0.053-0.464,0h-1.029c0.08,0.236,0.136,0.497,0.158,0.791c-0.785,0.118-1.149-0.309-1.156-0.791h-6.876
		c0.03,0.469-0.192,0.688-0.321,1h5.243C433.436,17.805,433.781,17.691,434.1,18.092z M437.716,17.482
		C437.885,17.313,437.454,17.745,437.716,17.482L437.716,17.482z M434.907,17.883C434.643,18.146,435.074,17.715,434.907,17.883
		L434.907,17.883z M429.686,17.482C429.422,17.745,429.854,17.313,429.686,17.482L429.686,17.482z M432.094,17.482
		C432.263,17.313,431.832,17.745,432.094,17.482L432.094,17.482z"/>
	<path d="M436.472,27.031c-0.088-0.142-0.238-0.242-0.418-0.242c-0.275,0-0.5,0.224-0.5,0.5v0.666
		C435.911,27.752,436.144,27.401,436.472,27.031z"/>
	<path d="M468.379,45.016c0.277,0,0.5-0.224,0.5-0.499v-6.39c-0.304-0.737-0.431-2.061-0.645-2.575
		c0.249,0.193,0.462,0.293,0.645,0.286v-8.548c0-0.275-0.223-0.499-0.498-0.5c-0.163,0.397-0.236,0.884-0.146,1.534
		c-0.141,0.093-0.257,0.13-0.355,0.131v16.062C467.879,44.792,468.103,45.016,468.379,45.016z"/>
	<path d="M361.977,93.262c0.279-0.168,0.504-0.389,0.248-1.092c0.358,0.246,0.719,0.485,0.805,0
		c1.125,0.005-0.958,1.095,0.803,0.802c0.575,0.045,0.47-0.589,0.396-1.194c-0.493-0.029-0.986-0.06-1.479-0.088
		c-4.157-0.225-8.312-0.515-12.464-0.823c-0.159,0.049-0.331,0.046-0.417-0.03c-0.299-0.022-0.598-0.042-0.896-0.064
		c-9.182-0.637-18.351-1.459-27.515-2.32l-13.739-1.389l-13.723-1.535c-6.816-0.832-13.627-1.696-20.432-2.604
		c0.003,0.204-0.018,0.468-0.081,0.813c-0.373-0.268-0.474-0.609-0.45-0.884c-0.626-0.084-1.251-0.166-1.877-0.251
		c-0.003,0.192-0.026,0.431-0.08,0.732c-0.338-0.242-0.45-0.544-0.452-0.804c-1.339-0.183-2.68-0.349-4.018-0.537
		c-0.016-0.002-0.032-0.005-0.048-0.007c-0.126,0.124-0.29,0.156-0.344-0.049c-0.401-0.053-0.802-0.114-1.203-0.169
		c-0.341,0.401-0.587,0.897-0.696,1.532c0.69,0.095,1.378,0.2,2.068,0.29c0.532,0.075,1.065,0.14,1.597,0.214
		c-0.05-0.121-0.094-0.266-0.119-0.471c0.386,0.056,0.582,0.302,0.768,0.558c2.728,0.377,5.457,0.739,8.188,1.095
		c-0.863-1.328,0.423-2.5,0.296,0.04c1.035,0.134,2.068,0.281,3.104,0.413c0.031-0.032,0.054-0.062,0.092-0.098
		c0.099,0.047,0.173,0.093,0.235,0.139c2.484,0.316,4.969,0.62,7.455,0.927c0.032-0.079,0.128-0.168,0.342-0.262
		c0.237,0.151,0.363,0.267,0.426,0.357c1.68,0.207,3.358,0.422,5.039,0.627l7.032,0.788c0.119-0.077,0.238-0.135,0.353-0.166
		c-0.005,0.075-0.001,0.142,0.005,0.206l6.35,0.711l6.526,0.658c0.01-0.01,0.01-0.01,0,0l7.229,0.729
		c9.176,0.865,18.359,1.688,27.553,2.324C353.226,92.714,357.598,93.019,361.977,93.262z M360.218,91.769
		C361.436,92.242,359.783,93.897,360.218,91.769L360.218,91.769z M265.451,83.335C265.62,83.167,265.189,83.599,265.451,83.335
		L265.451,83.335z M267.059,82.532C266.795,82.796,267.227,82.363,267.059,82.532L267.059,82.532z M273.884,84.14
		C273.622,84.401,274.053,83.971,273.884,84.14L273.884,84.14z M284.325,84.54C284.495,84.371,284.063,84.804,284.325,84.54
		L284.325,84.54z M307.615,88.154c-1.112-0.172-0.021-1.264,0.803-0.804C308.318,87.787,307.621,87.623,307.615,88.154z
		 M337.33,90.162C338.531,90.243,336.945,91.83,337.33,90.162L337.33,90.162z"/>
	<path d="M536.147,120.92c-0.025-0.119-0.02-0.302,0.046-0.586c0.285,0.019,0.41,0.123,0.445,0.248
		c0.199-0.153,0.395-0.322,0.583-0.518c0.711-0.713,1.234-1.814,1.322-2.885c0.219-2.183-0.516-3.918-1.098-5.584l-0.092-0.264
		c-0.847,0.426-2.291,0.925-1.964,2.177c-1.067-2.023,0.247-3.481,1.215-3.623c-0.469-0.577-1.092-0.994-1.792-1.205
		c-0.152,0.122-0.346,0.257-0.628,0.41c-0.04-0.202-0.059-0.382-0.063-0.548c-0.52-0.053-1.056-0.006-1.581,0.178
		c-1.922,0.672-2.936,2.772-2.266,4.694c0.364,1.049,1.17,1.832,2.125,2.215c1.061,0.418,1.811,1.113,2.139,1.652
		c0.146,0.272,0.244,0.524,0.143,0.883c-0.106,0.349-0.426,0.735-0.866,1.058c-1.873,1.286-4.769,1.575-7.263,1.389
		c-0.154-0.014-0.309-0.044-0.463-0.062c-0.136,0.162-0.339,0.22-0.386-0.051c-2.287-0.292-4.573-0.925-6.813-1.649
		c-0.698-0.233-1.388-0.501-2.081-0.756c0.499,0.283,0.969,0.597,0.912,1.437c-1.031,0.119-1.039-0.784-1.193-1.538
		c-1.711-0.635-3.411-1.306-5.09-2.036c-2.529-1.102-5.027-2.284-7.502-3.517l3.133-3.132c-0.085-0.318-0.236-0.57-0.592-0.618
		c0.365-0.526,0.821-0.373,1.16,0.049l1.247-1.246c0.001-0.002,0.002-0.005,0.003-0.007c0,0.001,0.001,0.001,0.001,0.002
		l11.643-11.642c0-0.002,0-0.005,0-0.007c0.003-0.001,0.005,0,0.007-0.001l0.724-0.723l13.488,0.056l2.637-0.032
		c-0.048-0.163-0.062-0.335,0.011-0.504c0.306,0.082,0.475,0.302,0.669,0.495L548.576,95c1.751-0.039,3.502-0.085,5.252-0.13
		c0.092-0.453,0.32-0.918,0.434-1.039c0.537,0.032,0.461,0.676,0.694,1.011c2.053-0.056,4.105-0.117,6.157-0.184
		c-0.183-0.181-1.065-1.063-0.426-0.426c0.248,0.248,0.373,0.375,0.426,0.426c2.458-0.079,4.916-0.166,7.373-0.264
		c0.062-0.225,0.21-0.518,0.232-0.965c0.598,0.071,0.805,0.493,0.741,0.927c2.163-0.088,4.325-0.186,6.487-0.292
		c0-0.077,0-0.155,0-0.233c0.268,0,0.534,0,0.802,0c0,0.065,0,0.13,0,0.195c0.177-0.007,0.354-0.019,0.53-0.026
		c-0.12-0.246-0.107-0.626-0.129-0.972c0.422,0.149,0.711,0.434,0.776,0.939c2.255-0.101,4.509-0.216,6.762-0.35
		c-0.309-0.298-0.618-0.701,0.093-0.188c0.051,0.07,0.087,0.125,0.12,0.176c1.707-0.102,3.414-0.205,5.12-0.303
		c4.605-0.248,9.201-0.572,13.798-0.922c9.194-0.637,18.377-1.459,27.553-2.324l13.758-1.387l2.682-0.301
		c-0.074-0.138-0.096-0.433,0.012-0.963c0.566,0.221,0.512,0.691,0.337,0.924l5.778-0.646c-0.111-0.094-0.084-0.303,0.308-0.678
		c0.512,0.243,0.482,0.473,0.3,0.609l4.324-0.484c1.777-0.217,3.555-0.443,5.332-0.663c0.033-0.521,0.308-1.001,0.89-0.666
		c0.045,0.222,0.044,0.399,0.02,0.553c4.969-0.615,9.935-1.258,14.898-1.923c-0.066-0.107-0.006-0.309,0.34-0.64
		c0.437,0.208,0.479,0.406,0.369,0.545c1.857-0.25,3.716-0.483,5.571-0.745c3.245-0.425,6.484-0.905,9.724-1.388
		c-0.001-0.006-0.002-0.011-0.003-0.017c0.01,0.006,0.016,0.008,0.024,0.014c0.311-0.047,0.621-0.092,0.932-0.139
		c-0.035-0.264-0.104-0.621-0.152-1.08c0.224-0.426,0.457,0.203,0.614,1.012c0.848-0.126,1.696-0.253,2.545-0.377
		c1.217-0.176,2.432-0.364,3.646-0.547c-0.004-0.153-0.005-0.309,0.017-0.487c0.592-0.199,0.772,0.013,0.816,0.362
		c2.587-0.394,5.173-0.797,7.756-1.215c-0.702-1.439,0.854-1.563,0.454-0.072c0.323-0.052,0.647-0.102,0.971-0.154
		c1.161-0.182,2.32-0.373,3.479-0.561c-0.408-0.206-0.443-1.41,0.05-1.644c-0.36,0.058-0.722,0.116-1.082,0.174
		c0.082,0.568-0.167,1.33-0.798,0.697c0.084,0.083,0.201-0.271,0.288-0.615c-0.652,0.104-1.304,0.212-1.956,0.314
		c0.459,0.329-0.573,1.256-0.369,0.06c-1.096,0.178-2.193,0.35-3.29,0.524c0.041,0.168,0.081,0.337,0.106,0.521
		c-0.283-0.143-0.495-0.287-0.659-0.433c-3.222,0.512-6.444,1.013-9.673,1.478c-4.553,0.666-9.1,1.375-13.666,1.975
		c-8.941,1.259-17.908,2.374-26.875,3.47c0.947,0.529-0.493,1.931-0.138,0.017c-0.125,0.016-0.251,0.031-0.376,0.047l-6.849,0.767
		c0.086,0.854,0.251,1.787-0.794,1.514c0.063-0.541,0.195-1.015,0.351-1.465l-6.431,0.72l-4.425,0.447
		c0.346,0.387,0.068,1.609-0.737,1.101c0-0.266,0-0.535,0-0.803c0.273,0.06,0.353-0.079,0.384-0.262l-8.96,0.905
		c-8.482,0.798-16.972,1.555-25.473,2.169c0.107,0,0.213,0,0.32,0c0,0.266,0,0.534,0,0.802c-0.27,0-0.535,0-0.801,0
		c0-0.256,0-0.512,0-0.766c-0.521,0.037-1.041,0.079-1.563,0.115c-1.756,0.132-3.513,0.256-5.27,0.379
		c-0.123,0.222-0.394,0.354-0.447,0.032c-2.686,0.187-5.373,0.361-8.061,0.507c-1.17,0.067-2.34,0.138-3.509,0.208
		c-0.108,0.266-0.455,0.46-0.485,0.029c-1.593,0.096-3.186,0.179-4.779,0.266c0.047,0.238,0.052,0.517,0.018,0.836
		c-0.414-0.247-1.009-0.313-1.206-0.777c-1.274,0.066-2.548,0.142-3.823,0.19c-2.893,0.143-5.786,0.264-8.681,0.375
		c-0.058,0.013-0.128,0.014-0.203,0.008c-6.235,0.239-12.473,0.419-18.708,0.56l-25.791,0.24l17.052-17.051
		c0-0.002,0.001-0.004,0.001-0.006c0.002,0,0.002,0.001,0.004,0.001l7.707-7.707c0.08-0.078,0.14-0.17,0.179-0.267l18.214-18.132
		c0.146-0.145,0.238-0.349,0.238-0.571c0-0.446-0.363-0.808-0.81-0.808h-35.581c0.002,0.06,0.004,0.12,0.011,0.176
		c-0.41,0.028-0.688-0.047-0.866-0.176h-21.204c0.053,0.653-0.173,1.025-0.817,0.979c0-0.326,0-0.652,0-0.979h-9.357
		c-0.201,0.135-0.554,0.165-0.631,0h-8.111c-0.006,0.125-0.012,0.242-0.016,0.324c0.003-0.071,0.008-0.177,0.015-0.324h-7.031
		c0.167,0.565,0.436,1.107,0.673,1.617H507.8c-0.604-0.35-0.348-0.201,0,0h6.308c0-0.213,0-0.426,0-0.639c0.269,0,0.536,0,0.804,0
		c0.043,0.255,0.036,0.459,0.004,0.639h38.82c0,0-1.414,3.229-0.103,4.542c1.313,1.313,3.971,1.246,3.971,1.246l-9.02,9.02
		c0.25,0.185,0.541,0.379,0.86,0.216c-0.046,0.749-0.791,0.438-1.263,0.188L532.765,81.33c0.172-0.024,0.372-0.017,0.617,0.054
		c-0.119,0.995-1.318,1.806-1.984,1.313l-2.027,2.026c0.031,0.597-0.333,1.228-1.096,1.096l-3.208,3.209
		c0.423,0.062,0.287,0.042-0.001,0.001l-3.214,3.214c0.93,0.173-0.371,1.476-0.144,0.144l-1.35,1.35
		c-0.003,0.004-0.005,0.009-0.008,0.012l-16.813,16.813c0.153,0.15,0.325,0.322,0.531,0.538c-0.112,0.318-0.477,0.076-0.802-0.267
		l-0.84,0.84c-1.81-0.92-3.61-1.857-5.398-2.818c-0.921-0.496-1.828-1.018-2.744-1.523c-0.171,0.65-0.324,1.408,0.549,1.359
		c0.007,0.087-0.012,0.147-0.014,0.225c0.554,0.313,1.099,0.641,1.654,0.949c0.069,0.039,0.141,0.076,0.21,0.114
		c0.046-0.027,0.093-0.055,0.157-0.083c0.299,0.19,0.434,0.328,0.468,0.425c1.394,0.769,2.796,1.522,4.204,2.267l-1.473,1.473
		c0.263,0.3-0.338,0.899-0.435,0.435l-0.62,0.62c0.222,0,0.444,0,0.666,0c0.137,0.805-0.082,1.259-0.803,1.206
		c0-0.355,0-0.713,0-1.069l-1.401,1.401c-0.124,0.235-0.216,0.501-0.204,0.873c-0.233,0.011-0.417-0.029-0.58-0.089l-2.438,2.438
		c0,0-0.007-0.204-0.121-0.482c-0.311,0.609-0.804,1.247-0.878,1.748c-1.513-0.34-0.71-1.834,0.097-2.67
		c-0.241-0.167-0.534-0.325-0.925-0.445c-1.875-0.58-2.582,0.569-2.582,0.569v-6.806c-0.055,0.483-0.793,1.398-1.409,1.32
		c-0.352-1.291,1.043-0.833,1.205-1.606c0.164,0.012,0.222,0.125,0.204,0.285v-4.759c-0.002,0.192-0.051,0.43-0.204,0.859
		c-0.84-0.364-1.225-1.187-1.205-2.41c0.402,0,0.804,0,1.205,0c0.022,0.911,0.182,1.14,0.204,1.46v-0.894
		c1.251,0.736,2.517,1.447,3.777,2.168c-0.051-0.482-0.071-0.935,0.07-1.225c-1.283-0.712-2.573-1.412-3.848-2.141v-4.352
		c-0.445-0.371-0.658-0.976-0.605-1.844c0.295-0.09,0.478-0.068,0.605,0.009v-4.274c-0.094-0.293-0.134-0.638-0.204-0.955
		c0.068,0,0.136,0,0.204,0v-2.736c-0.531,0.394-1.228,0.733-1.409,1.13c-0.093-0.085-0.158-0.167-0.209-0.246v8.838
		c0.888-0.851,1.673,2.128,0,1.88v1.604c-1.726-0.997-3.451-1.994-5.162-3.017c-0.121-0.073-0.24-0.15-0.361-0.225
		c-0.363,0-0.729,0-1.093,0c-0.021-0.257,0.011-0.46,0.07-0.636c-1.478-0.903-2.944-1.824-4.413-2.743
		c0.957-0.599,1.917-1.192,2.871-1.797c-0.037-0.157-0.078-0.31-0.135-0.446c0.154,0.072,0.284,0.171,0.417,0.265
		c2.611-1.657,5.216-3.325,7.806-5.015v0.622c0.316-0.486,1.216-0.902,1.618-1.439v-0.234c0.058-0.038,0.114-0.076,0.172-0.114
		c0.009-0.036,0.022-0.071,0.026-0.108c0.021,0.02,0.033,0.037,0.052,0.057c0.52-0.342,1.035-0.688,1.554-1.031
		c0-0.076,0-0.153,0-0.229c0.115,0,0.23,0,0.347,0c1.497-0.988,2.993-1.978,4.483-2.976c-1.193-0.612-0.258-1.521,0.276-0.183
		c0.187-0.126,0.376-0.249,0.563-0.374l4.166-2.816c-0.25-0.262-0.402-0.503,0.158-0.106l1.614-1.092
		c0.098-0.926,0.718-1.778,1.508-1.02l0.939-0.635c0-0.146,0-0.29,0-0.436c0.215,0,0.429,0,0.644,0l4.338-2.933l13.248-9.223
		l0.002-0.002c0.197-0.146,0.33-0.386,0.33-0.65c0-0.445-0.361-0.807-0.808-0.807h-17.698c-0.001,0.709-0.477,0.664-0.632,0h-2.653
		c0.22,0.442,0.262,1.063,0.419,1.569c-0.117,0.036-0.201,0.037-0.289,0.044h6.271c0.016-0.016,0.024-0.027,0.041-0.044
		c0.031,0.015,0.05,0.029,0.077,0.044h7.468c0.029-0.015,0.049-0.029,0.083-0.044c0.025,0.016,0.04,0.028,0.063,0.044h1.079
		c0.011-0.127,0.028-0.269,0.064-0.445c0.275,0.107,0.399,0.274,0.438,0.445h2.827c-3.646,2.73-7.33,5.416-11.043,8.055
		c-4.379,3.109-8.765,6.215-13.217,9.219c-2.298,1.55-4.603,3.089-6.912,4.615V70.296c-0.508-0.544-1.625-1.505-0.203-1.361
		c-0.024,0.348,0.089,0.558,0.203,0.767V66.17h0.001v3.533c0.122,0.224,0.245,0.447,0.198,0.84
		c-0.033-0.062-0.107-0.147-0.198-0.246v5.818c5.103-0.617,9.103-4.773,9.483-9.945h1.133c0.009-0.017,0.013-0.027,0.021-0.044
		c0.107,0.005,0.195,0.021,0.268,0.044h1.677c-0.544-0.098-0.34-0.945-0.313-1.613h-12.093c0.013,0.116,0.034,0.224,0.022,0.364
		c-0.503,0.041-0.83-0.091-1.021-0.361c-0.439,0.009-0.794,0.362-0.794,0.804v4.81c0.461,0.132,0.228,0.597,0,0.703v2.162
		c0.332-0.065,0.998,0.761,1.412,0.716c0.461,1.666-0.845,1.565-0.803,2.813c-0.621-0.052-0.381-0.964-0.609-1.407v10.229
		c0.069,0.004,0.138,0.007,0.207,0.011c0,0.402,0,0.804,0,1.205c-0.077,0.017-0.145,0.023-0.207,0.025v2.483
		c-3.926,2.58-7.886,5.108-11.864,7.605c-0.525-0.33-1.057-0.652-1.582-0.984c-0.04-0.003-0.074-0.022-0.102-0.063
		c-2.451-1.551-4.886-3.126-7.317-4.708c-0.103,0-0.205,0-0.307,0c-0.017-0.08-0.021-0.146-0.028-0.216
		c-0.842-0.549-1.691-1.085-2.531-1.637V77.292c-0.54,0.968-1.683-0.299,0-0.373V65.361c0-0.444-0.361-0.807-0.807-0.807h-11.476
		c-0.118,0.258-0.454,0.436-0.477,0h-1.587c-0.216,0.544-0.566,0.953-0.763,1.515c-0.703-0.181-0.499-1.141,0.045-1.515h-7.328
		c-0.029,0.252-0.152,0.512-0.348,0.711c-0.297-0.067-0.367-0.361-0.382-0.711h-12.104c-0.448,0-0.808,0.361-0.808,0.807
		c0,0.267,0.133,0.505,0.327,0.65l0.004,0.002l13.248,9.223l9.695,6.554c-0.002-0.114,0.014-0.264,0.06-0.462
		c0.636,0.043,0.491,0.504,0.271,0.685l3.344,2.261c0.514,0.346,1.035,0.684,1.55,1.028c0.006-0.1,0.021-0.213,0.054-0.36
		c0.569,0.039,0.513,0.412,0.337,0.62c1.84,1.229,3.68,2.456,5.531,3.671v15.612c-0.667,0.382-1.342,0.746-2.012,1.122
		c0.653,0.498-0.746,0.861-0.59,0.328c-1.534,0.859-3.064,1.727-4.611,2.561c-1.788,0.961-3.589,1.897-5.397,2.816l-4.89-4.891
		c-0.23,0.207-0.42,0.421-0.414,0.646c-0.672-0.347-0.387-0.686,0.019-1.04l-12.64-12.64c-0.003-0.003-0.004-0.008-0.007-0.011
		l-37.249-37.247c0,0,0.531,0.012,1.234-0.089c0.006-0.102,0.02-0.218,0.055-0.37c0.308,0.021,0.432,0.141,0.454,0.279
		c0.773-0.164,1.638-0.474,2.23-1.066c0.51-0.512,0.605-1.313,0.534-2.103c-0.266-0.269-0.355-0.608-0.152-0.932
		c-0.195-0.845-0.483-1.508-0.483-1.508h3.841c0-0.098,0-0.195,0-0.293c0.27,0,0.537,0,0.803,0c0,0.098,0,0.195,0,0.293h2.809
		c-0.066-0.094-0.086-0.302,0.004-0.694c0.646,0.044,0.485,0.521,0.259,0.694h7.3c0.043-0.078,0.061-0.182,0.071-0.293
		c0.227-0.046,0.369,0.092,0.435,0.293h5.227c-0.233-0.377-0.309-0.967-0.208-1.616h-32.149c-0.446,0-0.807,0.362-0.807,0.808
		c0,0.222,0.091,0.426,0.236,0.571L404.979,68.6c0.04,0.095,0.097,0.185,0.175,0.262l4.849,4.849
		c0.004-0.004,0.005-0.007,0.009-0.011c0.166,0.136,0.272,0.256,0.345,0.364l1.51,1.51c0.37-0.263,1.215-0.458,1.757-0.269
		c0,0.535,0,1.07,0,1.606c-0.186,0.041-0.32,0.03-0.428-0.008l2.426,2.426c0.004-0.004,0.005-0.005,0.009-0.009
		c0.071-0.07,0.036-0.035-0.009,0.01l14.295,14.294l-25.789-0.24c-3.134-0.07-6.267-0.154-9.4-0.246
		c-0.132,0.201-0.382,0.302-0.429-0.013c-2.661-0.079-5.321-0.168-7.981-0.268c0,0.038,0,0.076,0,0.114
		c-0.453,0.152-0.666,0.064-0.76-0.143c-2.358-0.09-4.717-0.19-7.074-0.301c0.393,0.419,0.535,1.086,0.78,1.65
		c6.105,0.28,12.213,0.495,18.324,0.66c-0.601-0.291-0.069-0.599-0.026-1.465c0.862,0.104,0.913,0.931,0.503,1.477
		c2.011,0.054,4.021,0.104,6.032,0.149l8.624,0.106c0.032-0.043,0.061-0.088,0.099-0.127c0.093,0.021,0.158,0.071,0.212,0.131
		l3.84,0.048c-0.112-0.094-0.232-0.179-0.438-0.179c0-0.268,0-0.535,0-0.802c0.401,0,0.803,0,1.205,0
		c0.094,0.535-0.213,0.67-0.34,0.985l0.624,0.008l13.485-0.056l5.496,5.496c0.003-0.003,0.005-0.006,0.008-0.009
		c0.014,0.022,0.028,0.039,0.042,0.06l0.376,0.376c0.487,0.305,0.954,0.089,1.134,1.134l6.939,6.939
		c-0.041-0.139-0.063-0.295-0.058-0.479c0.493,0.177,0.823,0.515,0.803,1.205c-0.014-0.005-0.024-0.013-0.037-0.019l2.623,2.623
		c-2.475,1.232-4.972,2.414-7.501,3.516c-2.452,1.064-4.935,2.053-7.454,2.893c-2.518,0.814-5.093,1.539-7.662,1.762
		c-2.495,0.188-5.387-0.102-7.261-1.389c-0.443-0.32-0.764-0.709-0.867-1.057c-0.103-0.357-0.005-0.609,0.14-0.883
		c0.33-0.539,1.079-1.234,2.139-1.652c0.957-0.383,1.761-1.166,2.127-2.215c0.374-1.066,0.212-2.181-0.322-3.083
		c-0.118,0.345-0.381,0.56-0.82,0.307c-0.111-0.544,0.038-0.829,0.19-1.111c-0.367-0.348-0.806-0.63-1.314-0.808
		c-1.198-0.417-2.464-0.181-3.411,0.521c0.096,0.166,0.157,0.473,0.117,0.996c-0.37-0.143-0.547-0.352-0.609-0.552
		c-0.34,0.363-0.616,0.799-0.791,1.3l-0.213,0.609c-0.582,1.666-1.314,3.402-1.096,5.584c0.088,1.07,0.611,2.172,1.323,2.885
		c0.705,0.73,1.507,1.146,2.259,1.431c0.801,0.289,1.578,0.456,2.339,0.564c0-0.059,0-0.117,0-0.176c0.401,0,0.803,0,1.205,0
		c-0.032,0.118-0.089,0.211-0.154,0.297c0.325,0.028,0.649,0.052,0.97,0.072c1.409,0.063,2.78,0.08,4.192-0.053
		c2.79-0.285,5.417-1.074,7.993-1.945c2.389-0.833,4.716-1.798,7.012-2.82c0.002-0.42,0.389-1.014,0.465-1.173
		c0.674,0.183,0.759,0.409,0.632,0.68c1.81-0.829,3.599-1.698,5.375-2.592c0.006-0.033,0.009-0.06,0.017-0.096
		c0.051,0.004,0.09,0.013,0.131,0.021c0.594-0.3,1.188-0.599,1.778-0.904l5.822,5.821c-0.095-0.246-0.082-0.601-0.101-0.923
		c0.493,0.175,0.824,0.514,0.802,1.205c-0.185,0.04-0.319,0.03-0.426-0.007l7.332,7.332c0.314,0.316,0.827,0.316,1.143,0
		c0.156-0.155,0.235-0.364,0.235-0.569v-7.099c-0.301,0.521-1.528,0.382-0.252-0.862c0.128,0.135,0.203,0.257,0.252,0.371v-3.779
		c-0.203,0.152-0.456-0.012-0.252-1.009c0.108,0.042,0.186,0.095,0.252,0.152v-8.924c1.888-1.122,3.773-2.25,5.646-3.396
		c2.085-1.261,4.15-2.557,6.218-3.846c0.668,0.417,1.34,0.829,2.01,1.243c-0.037-0.202,0.054-0.435,0.329-0.489
		c0,0.231,0,0.462,0,0.692c1.294,0.798,2.578,1.612,3.879,2.399c1.008,0.615,2.025,1.216,3.037,1.826
		c0.004-0.016,0.004-0.027,0.008-0.043c0.338,0.023,0.452,0.166,0.455,0.32c0.715,0.431,1.429,0.864,2.146,1.291v21.15
		c0,0.205,0.078,0.414,0.236,0.57c0.315,0.316,0.827,0.316,1.141,0l6.036-6.036c0.03-0.121,0.045-0.259,0.024-0.431
		c0.179-0.043,0.315-0.044,0.434-0.026l5.759-5.76c-0.215-0.255-0.412-0.626-0.571-1.039c0.078-0.458,0.403-0.224,0.402,0
		c0.774-0.767,0.585-0.063,0.937,0.271l0.41-0.409c2.592,1.342,5.212,2.635,7.878,3.84c2.463,1.109,4.965,2.148,7.533,3.043
		c2.574,0.871,5.201,1.66,7.992,1.945c1.41,0.133,2.783,0.117,4.193,0.053c1.401-0.09,2.84-0.209,4.358-0.758
		C535.351,121.347,535.752,121.162,536.147,120.92z M536.996,113.509C536.733,113.769,537.164,113.341,536.996,113.509
		L536.996,113.509z M537.398,115.515C536.18,117,536.045,114.295,537.398,115.515L537.398,115.515z M534.186,109.895
		C532.969,111.378,532.832,108.675,534.186,109.895L534.186,109.895z M694.805,82.188C693.577,81.306,695.268,79.616,694.805,82.188
		L694.805,82.188z M611.685,90.62C612.888,90.7,611.3,92.288,611.685,90.62L611.685,90.62z M549.846,93.43c0.268,0,0.535,0,0.803,0
		c0,0.27,0,0.535,0,0.803c-0.268,0-0.535,0-0.803,0C549.846,93.965,549.846,93.699,549.846,93.43z M490.818,50.063
		c-0.268,0-0.535,0-0.803,0c0-0.268,0-0.535,0-0.803c0.268,0,0.535,0,0.803,0C490.818,49.527,490.818,49.795,490.818,50.063z
		 M562.293,52.874C563.715,53.551,560.982,54.127,562.293,52.874L562.293,52.874z M556.672,50.866
		c0.143-0.528,0.707-0.633,0.803-1.205c0.471,0.065,0.34,0.732,0.402,1.205C557.475,50.866,557.073,50.866,556.672,50.866z
		 M554.262,60.504C555.359,61.726,553.041,59.407,554.262,60.504L554.262,60.504z M545.429,68.935
		C546.994,69.934,544.098,69.521,545.429,68.935L545.429,68.935z M523.344,93.028C523.513,92.86,523.08,93.292,523.344,93.028
		L523.344,93.028z M490.818,105.477C490.987,105.31,490.555,105.741,490.818,105.477L490.818,105.477z M488.811,94.635
		C490.029,95.11,488.375,96.765,488.811,94.635L488.811,94.635z M489.212,97.445C487.728,96.228,490.432,96.092,489.212,97.445
		L489.212,97.445z M512.903,72.551C514.105,72.631,512.52,74.217,512.903,72.551L512.903,72.551z M493.629,85.802
		C494.831,85.881,493.246,87.469,493.629,85.802L493.629,85.802z M500.455,64.921C501.658,65.001,500.071,66.589,500.455,64.921
		L500.455,64.921z M490.016,67.732C491.218,67.813,489.631,69.397,490.016,67.732L490.016,67.732z M490.818,72.149
		C489.527,71.201,492.23,70.524,490.818,72.149L490.818,72.149z M490.818,74.558C492.021,74.637,490.434,76.225,490.818,74.558
		L490.818,74.558z M492.023,67.33C493.244,67.803,491.588,69.459,492.023,67.33L492.023,67.33z M494.433,73.353
		c-1.501,0.035-1.146,0.45-2.409,0c0-0.534,0-1.069,0-1.604c0.47,0.063,0.338,0.73,0.4,1.203c1.312,0.105,1.16-1.25,2.009-1.604
		C495.61,71.687,493.91,72.354,494.433,73.353z M494.031,69.337C492.804,68.455,494.494,66.766,494.031,69.337L494.031,69.337z
		 M496.842,67.33c0,0.267,0,0.536,0,0.804C495.385,68.033,495.656,66.441,496.842,67.33z M496.44,68.935
		C497.861,69.611,495.129,70.19,496.44,68.935L496.44,68.935z M494.834,66.126C496.037,66.208,494.45,67.794,494.834,66.126
		L494.834,66.126z M493.629,66.126c0.137,0.807-0.082,1.255-0.803,1.204c0-0.401,0-0.803,0-1.204
		C493.094,66.126,493.361,66.126,493.629,66.126z M488.811,80.583c1.609,0.515-0.109,0.829,0,2.006
		C487.633,82.248,489.332,81.577,488.811,80.583z M464.218,69.282c-0.032,0.032-0.053,0.053-0.066,0.066
		C464.202,69.298,464.321,69.18,464.218,69.282z M418.442,50.408C418.611,50.24,418.178,50.671,418.442,50.408L418.442,50.408z
		 M418.041,49.604C418.209,49.437,417.778,49.868,418.041,49.604L418.041,49.604z M410.812,49.604c0.268,0,0.537,0,0.803,0
		c0,0.269,0,0.537,0,0.804c-0.266,0-0.536,0-0.803,0C410.812,50.142,410.812,49.873,410.812,49.604z M403.987,49.604
		C405.19,49.687,403.602,51.272,403.987,49.604L403.987,49.604z M397.562,52.817C398.765,52.898,397.177,54.485,397.562,52.817
		L397.562,52.817z M395.955,52.416C396.125,52.248,395.693,52.679,395.955,52.416L395.955,52.416z M395.554,50.007
		C396.524,51.354,394.206,49.036,395.554,50.007L395.554,50.007z M392.341,52.015C393.908,53.014,391.01,52.601,392.341,52.015
		L392.341,52.015z M393.548,50.811C394.516,52.157,392.2,49.839,393.548,50.811L393.548,50.811z M408.402,70.084
		C409.375,71.431,407.057,69.113,408.402,70.084L408.402,70.084z M426.072,88.556C426.241,88.388,425.808,88.818,426.072,88.556
		L426.072,88.556z M394.349,93.776C395.552,93.857,393.964,95.444,394.349,93.776L394.349,93.776z M406.396,94.178
		C406.132,94.439,406.563,94.009,406.396,94.178L406.396,94.178z M411.615,93.776C412.818,93.857,411.232,95.444,411.615,93.776
		L411.615,93.776z M414.026,94.579C413.762,94.843,414.194,94.411,414.026,94.579L414.026,94.579z M432.496,94.979
		C432.665,94.812,432.233,95.244,432.496,94.979L432.496,94.979z M433.298,96.185C434.501,96.267,432.916,97.854,433.298,96.185
		L433.298,96.185z M437.314,98.996C438.646,99.58,435.747,99.995,437.314,98.996L437.314,98.996z M442.133,104.217
		C443.554,104.892,440.823,105.471,442.133,104.217L442.133,104.217z M446.952,109.035c0.857-0.188,0.764,0.573,0.803,1.203
		C447.261,110.063,446.93,109.725,446.952,109.035z M420.45,111.443C420.619,111.275,420.188,111.707,420.45,111.443L420.45,111.443
		z M418.844,114.254C420.264,114.931,417.533,115.509,418.844,114.254L418.844,114.254z M418.844,111.845
		C420.175,112.43,417.278,112.845,418.844,111.845L418.844,111.845z M414.426,115.459
		C414.595,115.291,414.162,115.723,414.426,115.459L414.426,115.459z M415.161,118.339c0.014-0.014,0.036-0.036,0.069-0.069
		C415.332,118.167,415.209,118.29,415.161,118.339z M436.511,117.868C437.731,118.344,436.076,119.999,436.511,117.868
		L436.511,117.868z M463.415,87.351C464.618,87.433,463.032,89.019,463.415,87.351L463.415,87.351z M463.415,78.517
		C463.584,78.348,463.153,78.78,463.415,78.517L463.415,78.517z M463.415,71.691C463.584,71.522,463.153,71.954,463.415,71.691
		L463.415,71.691z M462.21,66.471c0.402,0,0.803,0,1.205,0C464.006,67.642,461.621,67.642,462.21,66.471z M462.612,72.493
		C463.832,72.969,462.177,74.624,462.612,72.493L462.612,72.493z M463.014,70.888C463.183,70.719,462.751,71.15,463.014,70.888
		L463.014,70.888z M459.803,67.675c0.493,0.176,0.824,0.514,0.801,1.205C460.11,68.704,459.779,68.366,459.803,67.675z
		 M460.604,70.084C458.725,71.484,458.987,68.058,460.604,70.084L460.604,70.084z M458.596,71.289
		C459.927,71.875,457.031,72.288,458.596,71.289L458.596,71.289z M458.596,67.274C458.766,67.105,458.334,67.536,458.596,67.274
		L458.596,67.274z M456.588,69.684c0.545,0.123,0.334,1.006,0.401,1.605c-1.095,0.292-0.809-0.798-1.604-0.804
		C455.475,69.907,456.583,70.346,456.588,69.684z M455.385,67.274c1.021-0.208,1.556-0.686,1.604,0.802
		C455.969,68.284,455.434,68.761,455.385,67.274z M456.588,72.092C457.791,72.174,456.204,73.76,456.588,72.092L456.588,72.092z
		 M461.407,73.699C462.378,75.045,460.06,72.728,461.407,73.699L461.407,73.699z M461.407,66.872
		C462.975,67.872,460.076,67.458,461.407,66.872L461.407,66.872z M461.809,65.667c0,0.268,0,0.535,0,0.804c-0.268,0-0.536,0-0.803,0
		c0-0.269,0-0.536,0-0.804C461.273,65.667,461.541,65.667,461.809,65.667z M443.338,65.667
		C443.507,65.499,443.074,65.931,443.338,65.667L443.338,65.667z M431.292,66.471C431.028,66.733,431.46,66.302,431.292,66.471
		L431.292,66.471z M432.496,68.076C432.665,67.907,432.233,68.34,432.496,68.076L432.496,68.076z M435.308,69.684
		C436.509,69.764,434.921,71.35,435.308,69.684L435.308,69.684z M446.149,77.313C446.318,77.145,445.885,77.575,446.149,77.313
		L446.149,77.313z M458.998,85.744C459.167,85.576,458.736,86.008,458.998,85.744L458.998,85.744z M462.426,87.771
		c-0.726-0.48-1.446-0.967-2.17-1.449c-0.129,0.13-0.278,0.216-0.453,0.226c0.028-0.157,0.051-0.318,0.076-0.478
		c-1.312-0.875-2.626-1.745-3.934-2.627c-1.4-0.944-2.785-1.912-4.174-2.874c0,0.119,0,0.238,0,0.356c-0.268,0-0.538,0-0.803,0
		c0-0.267,0-0.535,0-0.803c0.051,0,0.103,0,0.154,0c-2.137-1.484-4.269-2.979-6.393-4.482c-0.104,0.045-0.203,0.01-0.235-0.166
		c-0.589-0.418-1.181-0.832-1.77-1.25c-3.714-2.639-7.396-5.324-11.044-8.055h21.689c0.14,1.892,0.768,3.646,1.752,5.142
		c0.298,0.064,0.352,0.25,0.296,0.42c0.954,1.31,2.19,2.395,3.625,3.167c-0.061-0.488-0.04-1.059-0.046-1.602
		c0.852,0.162,0.84,1.185,0.984,2.053c0.903,0.379,1.866,0.644,2.875,0.766v11.549C463.592,88.807,461.93,89.173,462.426,87.771z
		 M458.195,108.23C458.364,108.063,457.933,108.494,458.195,108.23L458.195,108.23z M456.187,109.035
		C455.923,109.298,456.356,108.866,456.187,109.035L456.187,109.035z M456.588,119.475
		C456.757,119.308,456.326,119.738,456.588,119.475L456.588,119.475z M461.407,120.68
		C461.577,120.512,461.145,120.943,461.407,120.68L461.407,120.68z M462.21,121.482C463.414,121.564,461.828,123.15,462.21,121.482
		L462.21,121.482z M462.612,119.475C463.815,119.557,462.229,121.143,462.612,119.475L462.612,119.475z M464.439,120.318
		c-0.063,0.037-0.249,0.146-0.623,0.361c-0.162,0.093-0.251,0.145-0.29,0.167C463.661,120.769,464.302,120.396,464.439,120.318z
		 M462.858,118.592c0,0-0.71-1.15-2.582-0.57c-1.818,0.562-1.828,1.851-1.828,1.851l-1.669-1.669
		c-0.122,0.055-0.241,0.009-0.251-0.252l-5.367-5.366c1.688-0.892,3.367-1.795,5.034-2.721c1.926-1.07,3.83-2.177,5.731-3.288
		c-0.143,0.008-0.25-0.173-0.116-0.755c0.583,0.039,0.509,0.432,0.323,0.637c0.241-0.142,0.486-0.275,0.726-0.417V118.592z
		 M469.635,100.884c-1.664,0.994-3.342,1.963-5.019,2.934c-0.15,0.15-0.063,0.063-0.001,0.001c-0.048,0.027-0.096,0.057-0.145,0.084
		V90.285c1.764,1.151,3.542,2.279,5.316,3.416c0.012-0.099,0.029-0.205,0.054-0.327c0.388,0.151,0.484,0.421,0.45,0.65
		c1.709,1.094,3.422,2.18,5.142,3.257C473.503,98.487,471.58,99.703,469.635,100.884z M488.408,120.735
		C489.611,120.815,488.025,122.403,488.408,120.735L488.408,120.735z M488.408,115.515
		C489.611,115.597,488.025,117.185,488.408,115.515L488.408,115.515z M492.023,118.728
		C493.354,119.313,490.457,119.726,492.023,118.728L492.023,118.728z M492.023,123.145
		C493.227,123.227,491.639,124.813,492.023,123.145L492.023,123.145z M493.629,121.54
		C494.831,121.618,493.246,123.206,493.629,121.54L493.629,121.54z M505.676,113.509c0.494,0.175,0.824,0.513,0.803,1.203
		C505.622,114.899,505.714,114.139,505.676,113.509z"/>
	<path d="M868.674,44.046c0-0.136,0-0.272,0-0.408c0.343-0.028,0.592,0.038,0.789,0.155c1.881-0.597,3.76-1.197,5.637-1.806
		l1.373-0.468c-0.089-0.123,0.072-0.291,0.232-0.29c0.115-0.757-0.345-0.937-0.645-1.278l-1.469,0.5
		c-6.79,2.204-13.606,4.328-20.452,6.357c0.966,1.32-0.625,2.46-0.386,0.113c-1.848,0.547-3.696,1.09-5.549,1.622
		c-8.848,2.54-17.732,4.939-26.646,7.221c-0.13,0.033-0.26,0.063-0.39,0.097c0.603,0.523-1.031,0.876-0.545,0.135
		c-8.611,2.189-17.249,4.259-25.905,6.249l-13.481,2.993l-2.522,0.528c-0.18,0.687-0.771,0.963-0.785,1.817l3.651-0.766
		l13.496-2.998c8.983-2.067,17.951-4.21,26.881-6.492c8.934-2.283,17.834-4.688,26.697-7.232
		C855.354,48.174,862.026,46.149,868.674,44.046z M789.168,63.717c0.494,0.174,0.824,0.513,0.804,1.204
		C789.477,64.744,789.146,64.406,789.168,63.717z M817.277,57.692C817.014,57.955,817.444,57.525,817.277,57.692L817.277,57.692z
		 M825.709,55.283C825.877,55.116,825.444,55.547,825.709,55.283L825.709,55.283z M838.157,52.874
		C836.674,51.656,839.375,51.522,838.157,52.874L838.157,52.874z"/>
	<path d="M631.051,19.498c-0.131-0.014-0.219-0.206-0.092-0.755c0.029,0.002,0.05,0.009,0.075,0.012
		c-0.228-2-1.905-3.559-3.966-3.559c-2.216,0-4.013,1.796-4.013,4.012s1.797,4.012,4.013,4.012
		C629.186,23.221,630.9,21.576,631.051,19.498z M629.754,19.948c-0.268,0-0.535,0-0.803,0c0-0.269,0-0.536,0-0.804
		c0.268,0,0.535,0,0.803,0C629.754,19.412,629.754,19.68,629.754,19.948z M628.951,17.538
		C630.152,17.62,628.568,19.204,628.951,17.538L628.951,17.538z M624.533,20.35c-1.249,0.186-1.436-1.01-0.803-1.606
		C624.437,18.84,624.645,19.433,624.533,20.35z M625.738,17.538c-0.268,0-0.535,0-0.803,0c0-0.268,0-0.535,0-0.803
		c0.268,0,0.535,0,0.803,0C625.738,17.003,625.738,17.271,625.738,17.538z"/>
	<path d="M591.77,20.323h-42.138c0.003,0.004,0.002,0.003,0,0h-32.708c-0.001,0.01-0.005,0.016-0.005,0.026
		c-0.035-0.005-0.05-0.019-0.081-0.026h-13.92c-0.048,0.33-0.546,0.655-0.511,0h-8.549c0.171,0.289,0.154,0.679-0.045,1h6.192
		c-0.021-0.119-0.016-0.298,0.048-0.572c0.526,0.036,0.519,0.359,0.375,0.572h43.405c-0.002-0.059-0.016-0.106-0.012-0.171
		c0.097,0.059,0.196,0.115,0.296,0.171h8.159c-0.006-0.058-0.019-0.11-0.023-0.171c0.471-0.158,0.68-0.053,0.769,0.171h7.665
		c0-0.057,0-0.114,0-0.171c0.268,0,0.535,0,0.803,0c0,0.057,0,0.114,0,0.171h30.176C591.581,20.98,591.606,20.602,591.77,20.323z"/>
	<path d="M612.15,20.823c0-0.276-0.224-0.5-0.5-0.5h-3.823c0.16,0.197,0.253,0.46,0.241,0.829c-0.688,0.15-0.762-0.314-0.784-0.829
		h-12.806c-0.074,0.399-0.37,0.74-0.863,0.428c0-0.144,0-0.286,0-0.428h-0.793c0.038,0.416,0.16,0.747,0.202,1h6.212
		c0-0.325,0-0.65,0-0.974c0.535,0,1.07,0,1.607,0c-0.212,0.265-0.308,0.646-0.456,0.974h11.263
		C611.928,21.323,612.15,21.099,612.15,20.823z"/>
	<path d="M755.914,7.901v1.646c0.359,0.102,0.754,0.146,1.13-0.04c-0.163,0.16-0.642,0.405-1.13,0.563v1.53
		c0.303-0.328,0.604-0.642,0.729-0.888c0.851,0.744-0.399,1.038-0.729,1.695v0.632c0.063,0.146,0.162,0.305,0.326,0.483
		c-0.124-0.016-0.226-0.037-0.326-0.059v25.758c0.243,0,0.486,0,0.729,0c0,0.268,0,0.533,0,0.804c-0.242,0-0.485,0-0.729,0v11.078
		c0.002,0.129,0.031,0.266,0.1,0.388c0.211,0.39,0.699,0.536,1.09,0.324l0.009-0.003c3.168-2,6.291-3.978,9.385-6.038
		c3.092-2.058,6.152-4.172,9.061-6.512c1.457-1.17,2.89-2.388,4.209-3.754c0.673-0.668,1.285-1.404,1.886-2.17
		c0.586-0.774,1.17-1.582,1.604-2.537c0.504-0.91,0.758-2.049,0.775-3.274c-0.091-0.483-0.125-1.037-0.301-1.522
		c-0.714,0.1-0.644-0.585-0.582-1.262c-0.152-0.231-0.323-0.442-0.482-0.674c-0.359-0.542-0.775-0.928-1.209-1.326
		c-0.436-0.427-0.869-0.768-1.32-1.099c-0.92-0.728-1.811-1.231-2.754-1.913c-0.548-0.395-1.221-0.619-1.934-0.638
		c0.533,0.768-0.955,0.847-0.599,0.041c-1.757,0.269-3.045,1.828-2.917,3.629c0.134,1.896,1.781,3.323,3.677,3.188h0.026
		c0.795-0.059,1.719-0.133,2.439,0.021c0.393,0.051,0.801,0.094,1.104,0.232c0.345,0.109,0.707,0.22,0.957,0.391
		c0.652,0.293,0.938,0.755,1.242,1.322c0.144,0.605,0.228,1.363-0.045,2.15c-0.201,0.781-0.596,1.571-1.063,2.311
		c-0.456,0.75-1.008,1.46-1.596,2.145c-0.037,0.043-0.08,0.084-0.117,0.127c0.554,0.618,0.192,0.563-0.299,0.324
		c-0.949,1.036-2.061,2.031-3.141,2.968c0.188,0.231-0.047,0.302-0.307,0.268c-0.074,0.064-0.151,0.131-0.225,0.195
		c-1.229,1.083-2.461,2.075-3.719,3.03c0.131,0.278,0.201,0.618,0.23,0.998c-0.395-0.054-0.621-0.276-0.736-0.609
		c-0.804,0.598-1.627,1.177-2.467,1.75c-0.004,0.023-0.006,0.041-0.01,0.064c-0.015-0.01-0.023-0.022-0.037-0.033
		c-0.271,0.184-0.55,0.367-0.825,0.549c-0.034,0.246-0.153,0.496-0.343,0.689c-0.121-0.074-0.224-0.16-0.316-0.251
		c-0.127,0.083-0.246,0.167-0.375,0.25c-1.06,0.677-3.211,2.022-3.211,2.022s0.051-0.244,0.076-0.614
		c-0.399-0.423-0.242-0.68,0.005-0.748c-0.053-0.897-0.342-2.022-1.36-2.677c-1.883-1.211-3.969-0.538-3.969-0.538V8.71h4.731
		c0-0.002,0-0.004,0.001-0.007c0.005,0.002,0.008,0.005,0.014,0.007h6.773c0.001-0.257,0.004-0.516,0.041-0.81
		c0.222,0.23,0.387,0.516,0.545,0.81h8.271c0.016-0.28,0.048-0.576,0.018-0.81c0.268,0,0.533,0,0.803,0c0,0.27,0,0.54,0,0.81h31.665
		c-0.223-0.162-0.414-0.355-0.345-0.81c0.495-0.143,0.809,0.315,0.978,0.81h13.076c0-0.002,0-0.004,0.001-0.007
		c0.016,0.001,0.026,0.005,0.042,0.007h6.776c0.003-0.002,0.004-0.004,0.007-0.007c0.005,0.002,0.007,0.004,0.012,0.007h5.209
		c0-0.002,0-0.004,0-0.007c0.268,0,0.536,0,0.804,0c0,0.002,0,0.004,0,0.007h3.981c-0.218-0.309-0.332-0.721-0.368-1.211
		c0.595,0.082,0.821,0.53,0.816,1.211h3.499c0.176-0.262,0.454-0.422,0.905-0.408c-0.134,0.14-0.229,0.275-0.291,0.408h15.949
		c0-0.003,0.002-0.004,0.002-0.007c0.003,0.002,0.005,0.005,0.008,0.007h5.212c0-0.002,0-0.004,0.001-0.007
		c0.016,0.001,0.026,0.005,0.042,0.007h2.364c0-0.002,0-0.004,0.001-0.007c0.017,0.001,0.026,0.005,0.042,0.007h16.288
		c0.045-0.002,0.09-0.005,0.135-0.007c0,0.003-0.001,0.004,0,0.007h14.053c0-0.002,0-0.004,0.001-0.007
		c0.016,0.001,0.026,0.005,0.042,0.007h1.105c0.004-0.108,0.019-0.237,0.058-0.408c0.401,0.027,0.488,0.223,0.445,0.408h15.617
		c0-0.27,0-0.54,0-0.81c0.266,0,0.535,0,0.802,0c0.058,0.344,0.035,0.606-0.047,0.81h21.975c0.071-0.131,0.141-0.268,0.157-0.408
		c0.282,0.116,0.348,0.254,0.324,0.408h5.496c-0.019-0.247,0.004-0.493,0.203-0.81c0.213,0.003,0.382,0.365,0.461,0.81h1.45
		c-0.468,0.291-0.947,0.562-1.418,0.849c-0.067,0.565-0.331,1-0.895,0.751c0.051-0.103,0.08-0.192,0.113-0.284
		c-3.088,1.86-6.228,3.638-9.416,5.331c0.453,0.55-0.503,1.44-0.398,0.207c-3.2,1.691-6.435,3.322-9.697,4.891
		c-4.178,1.914-8.334,3.867-12.594,5.601c-4.213,1.835-8.5,3.491-12.785,5.161c-2.843,1.13-5.724,2.167-8.604,3.207
		c0.394,0.396,1.454,0.124,1.18,1.185c-0.865,0.071-1.262-0.324-1.201-1.177c-1.439,0.52-2.878,1.04-4.312,1.572l-6.394,2.178
		c-0.147,0.14-0.374,0.2-0.643,0.219l-3.522,1.199c0.133,0.583,0.005,1.337-0.229,1.786l11.329-3.858
		c4.321-1.609,8.69-3.1,12.977-4.803c2.549-0.994,5.098-1.987,7.634-3.011c0.008-0.042,0.013-0.079,0.023-0.127
		c0.08,0.005,0.146,0.018,0.203,0.035c1.667-0.674,3.329-1.36,4.979-2.078c4.273-1.741,8.455-3.705,12.65-5.627
		c4.817-2.315,9.591-4.734,14.269-7.333c-0.05-0.107-0.059-0.308,0.021-0.659c0.396,0.027,0.486,0.216,0.449,0.399
		c2.846-1.592,5.652-3.258,8.41-5.012c-0.102-0.106-0.149-0.399-0.025-1.009c0.448,0.175,0.507,0.509,0.425,0.756
		c0.253-0.162,0.509-0.317,0.76-0.48c0.218-0.146,0.369-0.398,0.365-0.682c-0.002-0.444-0.365-0.805-0.811-0.801h-35.351
		c-0.119,0.265-0.356,0.372-0.726,0.004c0.01,0.01,0.021-0.002,0.032-0.004h-1.637c0,0.001,0,0.003,0,0.004
		c0.812,0.395,0.075,0.393-0.3-0.004h-5.724c0,0.001,0,0.002,0,0.004c-0.043,0.008-0.083,0.005-0.121-0.004h-16.746
		c0,0.001,0,0.002,0,0.004c-0.28,0.057-0.488,0.042-0.666-0.004h-32.233c0.016,1.556-1.187,0.801-0.528,0h-8.008
		c0.024,0.137,0.048,0.273,0.077,0.405c-0.224-0.133-0.462-0.253-0.667-0.405h-3.301c-0.066,0.318-0.527,0.61-0.506,0h-29.31
		c-0.061,0.324-0.158,0.612-0.348,0.807c-0.213-0.003-0.382-0.363-0.461-0.807h-20.014c-0.002,0.002-0.002,0.002-0.004,0.004
		c-0.165,0.165-0.06,0.059,0.003-0.004h-28.111c0,0.001,0,0.003,0,0.004c-0.248,0.065-0.419,0.054-0.543-0.004h-6.802
		c-0.153,0.076-0.271,0.188-0.284,0.405c-0.189-0.093-0.326-0.239-0.441-0.405h-1.086C756.28,7.094,755.914,7.455,755.914,7.901z
		 M782.342,28.379C783.908,29.378,781.01,28.965,782.342,28.379L782.342,28.379z M773.91,22.357
		C775.241,22.941,772.343,23.355,773.91,22.357L773.91,22.357z M774.713,21.956c0-0.402,0-0.804,0-1.205
		c0.357,0.247,0.718,0.485,0.804,0C776.234,20.632,775.541,22.309,774.713,21.956z M776.318,22.759
		C776.056,23.022,776.486,22.59,776.318,22.759L776.318,22.759z M779.932,24.365C781.353,25.038,778.623,25.618,779.932,24.365
		L779.932,24.365z M781.137,27.175C781.306,27.007,780.875,27.44,781.137,27.175L781.137,27.175z M761.461,44.039
		c-0.494-0.175-0.823-0.514-0.803-1.205C761.152,43.009,761.483,43.351,761.461,44.039z M759.855,47.653
		C761.422,48.653,758.523,48.238,759.855,47.653L759.855,47.653z M758.65,42.433C760.05,44.314,756.623,44.05,758.65,42.433
		L758.65,42.433z M912.846,27.576c-0.268,0-0.537,0-0.803,0c0-0.266,0-0.534,0-0.802c0.266,0,0.535,0,0.803,0
		C912.846,27.042,912.846,27.311,912.846,27.576z M937.34,16.334C936.113,15.452,937.803,13.761,937.34,16.334L937.34,16.334z
		 M948.984,9.105C946.471,8.402,948.799,6.29,948.984,9.105L948.984,9.105z M875.102,7.098c0.274,1.336-0.834,0.646-1.207,0.401
		C873.959,7.028,874.627,7.16,875.102,7.098z M868.674,7.098C869.895,7.573,868.238,9.228,868.674,7.098L868.674,7.098z
		 M842.572,7.098C843.904,7.683,841.008,8.098,842.572,7.098L842.572,7.098z M824.506,7.499
		C824.242,7.763,824.673,7.331,824.506,7.499L824.506,7.499z M816.875,7.9C817.043,7.733,816.611,8.164,816.875,7.9L816.875,7.9z
		 M814.466,8.302C814.633,8.135,814.202,8.566,814.466,8.302L814.466,8.302z M803.625,7.9C803.793,7.733,803.361,8.164,803.625,7.9
		L803.625,7.9z M795.191,8.302C795.361,8.135,794.928,8.566,795.191,8.302L795.191,8.302z M783.947,8.302
		C784.117,8.135,783.684,8.566,783.947,8.302L783.947,8.302z M766.28,7.499C767.482,7.581,765.896,9.168,766.28,7.499L766.28,7.499z
		 M759.453,7.9C759.035,9.589,757.345,7.9,759.453,7.9L759.453,7.9z M757.044,18.342C758.611,19.34,755.715,18.925,757.044,18.342
		L757.044,18.342z"/>
	<path d="M722.512,77.368c0.309,0.11,0.54,0.296,0.675,0.578c5.267-0.883,10.526-1.803,15.782-2.742
		c0.005-0.351,0.192-0.245,0.421-0.075c0.263-0.047,0.524-0.093,0.787-0.14c0.001-0.012,0.003-0.019,0.003-0.03
		c0.012,0.008,0.019,0.016,0.029,0.024c0.229-0.041,0.457-0.081,0.685-0.122c0.505-0.091,1.008-0.19,1.513-0.282
		c0.041-0.133,0.095-0.271,0.183-0.424c0.08,0.127,0.144,0.242,0.201,0.352c0.451-0.082,0.902-0.17,1.354-0.252
		c0.001-0.532,0.169-1.232,0.06-1.654c-1.201,0.221-2.399,0.456-3.602,0.673c-1.617,0.291-3.234,0.577-4.852,0.864
		c-0.486,0.548-1.102,1.097-1.595,1.626c-0.193-0.366,0.057-0.863,0.438-1.42c-0.783,0.139-1.567,0.274-2.352,0.412
		c-0.03,0.066-0.056,0.13-0.095,0.203c-0.053-0.057-0.091-0.109-0.133-0.163c-1.416,0.247-2.831,0.495-4.248,0.738
		c0.063,0.024,0.175,0.091,0.367,0.229c0.726,1.007-0.389-0.035-0.432-0.219c-0.258,0.045-0.516,0.09-0.773,0.135
		c0,0.161,0,0.322,0,0.485c-0.268,0-0.535,0-0.803,0c0-0.118,0-0.233,0-0.351c-2.915,0.497-5.832,0.979-8.751,1.451
		c0.095,0.006,0.198,0.034,0.317,0.103c0.05,0.699-0.456,0.843-0.403,1.547c1.791-0.288,3.581-0.581,5.369-0.88
		C722.564,77.858,722.503,77.648,722.512,77.368z"/>
	<path d="M665.273,12.185c0.451-1.151,0.564-2.364,0.486-3.462c-0.074-1.103-0.332-2.107-0.651-2.955
		c-0.316-0.853-0.667-1.571-0.98-2.154c-0.317-0.577-0.579-1.038-0.768-1.337c-0.182-0.317-0.277-0.486-0.277-0.486l-0.016-0.024
		c-0.177-0.311-0.45-0.563-0.776-0.754c0.383,0.503-1.319,0.205-0.582-0.251c-0.946-0.216-1.948,0.246-2.375,1.162
		c-0.49,1.053-0.033,2.304,1.021,2.794c0,0,0.137,0.063,0.391,0.182c0.262,0.121,0.611,0.327,1.035,0.631
		c0.407,0.312,0.887,0.725,1.311,1.294c0.449,0.556,0.818,1.28,1.027,2.129c0.205,0.849,0.19,1.829-0.092,2.819
		c-0.183,0.671-0.506,1.337-0.922,1.974c0.067,0.936-1.104,0.636-0.826,1.784c-0.176-0.024-0.274-0.178-0.308-0.392
		c-1.441,1.434-3.399,2.504-5.478,3.179c0.463,0.066,0.905,0.129,0.165,0.024c-0.067-0.009-0.11-0.016-0.167-0.024
		c-0.121,0.039-0.241,0.083-0.363,0.12c-1.227,0.375-2.49,0.633-3.748,0.797c-1.242,0.173-2.483,0.197-3.701,0.208
		c0.034,0.361-0.592,0.821-0.505,0.002c-2.091,0.007-4.047,0.013-5.778,0.018c0.21,0.092,0.419,0.148,0.61,0.083
		c0,0.292,0,0.584,0,0.876c1.713,0.005,3.618,0.011,5.646,0.018c1.235-0.004,2.538-0.035,3.854-0.217
		c0.961-0.125,1.925-0.329,2.88-0.577c0.008-0.139,0.025-0.298,0.067-0.501c0.236,0.092,0.363,0.229,0.419,0.373
		c0.182-0.052,0.366-0.087,0.546-0.144c0.905-0.286,1.794-0.64,2.647-1.056c0-0.26,0-0.52,0-0.78c0.27,0,0.536,0,0.804,0
		c0,0.12,0,0.24,0,0.36c0.413-0.229,0.816-0.473,1.204-0.736c0-0.008,0-0.017,0-0.025c0.013-0.001,0.021,0.003,0.033,0.002
		c0.771-0.526,1.489-1.115,2.124-1.776C664.135,14.432,664.825,13.332,665.273,12.185z"/>
	<path d="M533.531,34.8v-6.271c-0.152-0.214-0.117-0.4,0-0.531v-0.708c0-0.276-0.226-0.5-0.5-0.5c-0.277,0-0.5,0.224-0.5,0.5v7.486
		C532.842,34.76,533.194,34.788,533.531,34.8z"/>
	<path d="M549.693,34.142v-3.948c-0.062,0.066-0.138,0.132-0.249,0.194c-0.251,0-0.501,0-0.751,0v4.124
		C549.016,33.935,549.257,33.473,549.693,34.142z"/>
	<path d="M549.193,26.789c-0.275,0-0.5,0.224-0.5,0.5v2.291c0.217-0.38,0.746-0.276,1-0.005v-2.286
		C549.693,27.013,549.47,26.789,549.193,26.789z"/>
	<path d="M549.193,45.016c0.277,0,0.5-0.224,0.5-0.499v-9.871c-0.148,0.255-0.263,0.543-0.249,0.961
		c-0.223-0.147-0.452-0.285-0.751-0.354v9.263C548.693,44.792,548.918,45.016,549.193,45.016z"/>
	<path d="M564.998,44.862c0.091,0.094,0.217,0.154,0.359,0.154c0.275,0,0.5-0.224,0.5-0.499V29.735c-0.01-0.069-0.013-0.152,0-0.264
		v-1.92c-0.528-0.264-0.329-0.165,0,0v-0.262c0-0.276-0.226-0.5-0.5-0.5c-0.277,0-0.5,0.224-0.5,0.5v1.801
		c0.076,0.016,0.157,0.042,0.248,0.094c0.027,0.393-0.121,0.61-0.248,0.85v14.087c0.156-0.012,0.369,0.067,0.649,0.319
		C565.307,44.685,565.139,44.808,564.998,44.862z"/>
	<path d="M412.158,75.866l0.766,0.766c-0.097-0.246-0.084-0.603-0.104-0.926C412.501,75.661,412.292,75.726,412.158,75.866z"/>
	<path d="M554.256,94.859c0.104-0.003,0.208-0.005,0.313-0.008C554.432,94.761,554.318,94.732,554.256,94.859z"/>
	<path d="M488.199,100.709v1.206C488.422,101.495,488.671,100.875,488.199,100.709z"/>
</g>
</svg>
