<?xml version="1.0" encoding="utf-8"?>
<!-- Generator: Adobe Illustrator 16.0.3, SVG Export Plug-In . SVG Version: 6.00 Build 0)  -->
<!DOCTYPE svg PUBLIC "-//W3C//DTD SVG 1.1//EN" "http://www.w3.org/Graphics/SVG/1.1/DTD/svg11.dtd">
<svg version="1.1" id="Layer_1" xmlns="http://www.w3.org/2000/svg" xmlns:xlink="http://www.w3.org/1999/xlink" x="0px" y="0px"
	 width="950px" height="6px" viewBox="0 0 950 6" enable-background="new 0 0 950 6" xml:space="preserve">
<path d="M546.973,0.001h-18.194c-0.278,0.251-0.631,0.467-5.032,0.438c0.082-0.165,0.295-0.31,0.631-0.438h-18.898
	c0.397,0.143,0.565,0.318,0.603,0.516h41.637C547.763,0.329,547.755,0.139,546.973,0.001z"/>
<path d="M298.095,2.069c0.231,0.048,0.397,0.086,0.526,0.118h19.686c0.988-0.126,2.51-0.115,3.748,0h3.354
	c-0.465-0.175-1.469-0.269-1.442-0.517h-7.015c-0.566,0.244-2.076,0.484-3.756,0.399c-0.746-0.297,0.045-0.361,1-0.399h-41.981
	c1.061,0.066,1.112,0.287,1.092,0.517h24.607C296.818,2.031,295.55,1.792,298.095,2.069z M277.485,1.861
	C280.804,2.557,272.875,1.36,277.485,1.861L277.485,1.861z"/>
<path d="M267.865,2.069c1.361-0.036,1.942,0.046,2.594,0.118h1.526c0-0.172,0-0.344,0-0.517h-47.958
	c-0.109,0.504-3.751,0.281-2.406,0H70.114c-0.033,0.27-0.869,0.42-2.842,0.399c0-0.133,0-0.266,0-0.399H28.616
	c-0.944,0-1.711,0.116-1.711,0.258s0.767,0.258,1.711,0.258h70.19c-0.674-0.371,1.981-0.686,1.684,0h61.346
	c0.113-0.039,0.207-0.078,0.242-0.118c0.568,0.035,0.865,0.075,1.01,0.118h53.283c0.949-0.067,2.108-0.104,3.409-0.118
	c0.043,0.043,0.012,0.078,0.017,0.118h47.905C267.751,2.148,267.763,2.116,267.865,2.069z M30.179,2.069
	C30.757,1.981,29.282,2.204,30.179,2.069L30.179,2.069z"/>
<path d="M355.556,1.669c0.881,0.075,1.641,0.118,2.198,0H355.556z"/>
<path d="M56.716,0.517h255.909c-0.672-0.218-0.377-0.46,1.598-0.516h-36.779c-0.201,0.031-0.437,0.066,0,0h-31.631
	c-2,0.199-2.989,0.152-3.292,0h-18.623c-0.408,0.135-1.34,0.198-1.565,0h-12.488c-0.949,0.184-3.682,0.099-3.798,0.408
	c-1.656-0.1-1.938-0.265-1.449-0.408H57.843C57.683,0.19,57.169,0.394,56.716,0.517z"/>
<path d="M387.399,0.202c-0.274,0.263-3.237,0.119-3.965,0.314h28.545c-0.106-0.06-0.092-0.159,0.144-0.314
	c1.918,0.019,1.756,0.206,1.178,0.314h32.341c-0.182-0.028-0.36-0.062-0.545-0.108c0.262-0.166,1.353-0.207,1.369-0.409h-9.65
	c-0.438,0.067-0.203,0.031,0,0h-36.813c3.588,0.075-1.492,0.832-0.252,0h-16.157C384.604,0.091,385.912,0.317,387.399,0.202z"/>
<path d="M552.603,0.024c0.246,0.25-0.246,0.389-0.972,0.493h26.906c-0.065-0.062-0.032-0.151,0.172-0.286
	c1.754,0.018,1.767,0.176,1.315,0.286h111.255c0.032-0.027,0.053-0.049,0.09-0.079c0.364,0.022,0.635,0.049,0.868,0.079h115.672
	c0.082-0.026,0.14-0.05,0.238-0.079c0.176,0.028,0.29,0.053,0.426,0.079h51.619c-0.062-0.062-0.036-0.151,0.168-0.286
	c1.75,0.018,1.774,0.176,1.319,0.286h24.615c-0.057-0.062-0.032-0.151,0.177-0.286c1.745,0.018,1.766,0.176,1.319,0.286h4.18
	c0-0.095,0-0.19,0-0.286c0.91,0,1.815,0,2.737,0c0,0.095,0,0.19,0,0.286h36.925c0.942,0,1.709-0.115,1.709-0.258
	c0-0.142-0.767-0.258-1.709-0.258h-26.828c-0.159,0.066-0.323,0.14-0.483,0.23c-0.332-0.104-0.68-0.174-1.049-0.23h-7.143
	c-0.459,0.011-0.926,0.02-1.422,0.023c0.004-0.009,0-0.015,0.004-0.023h-125.01c-0.017,0.009,0,0.013-0.021,0.023
	c-0.024-0.011-0.103-0.015-0.144-0.023H653.092c-0.069,0.008-0.082,0.01-0.172,0.02c-0.009,0.001-0.017,0.001-0.021,0.003
	c-0.009,0-0.013,0.001-0.021,0.002c0.012-0.001,0.024-0.003,0.041-0.005c0.069-0.008,0.114-0.013,0.172-0.02H550.521
	C551.185,0.041,551.877,0.057,552.603,0.024z M651.358,0.204c-0.537,0.063-0.836,0.098-0.942,0.112
	C650.551,0.299,650.92,0.256,651.358,0.204z M585.573,0.024C590.441,0.373,581.09,0.671,585.573,0.024L585.573,0.024z"/>
<path d="M7.092,0.259c0,0.143,0.766,0.258,1.711,0.258H55.38c-1.373-0.17-1.502-0.339-0.994-0.516H8.803
	C7.858,0.001,7.092,0.117,7.092,0.259z"/>
<path d="M536.063,1.669h-22.315c0.131,0.143,0.245,0.287,0.389,0.428c-5.966-0.431-3.172-0.192-9.63,0
	c1.078-0.152,2.287-0.282,3.397-0.428h-17.133c0,0.004,0,0.009-0.004,0.013c-0.59,0.014-1.037,0.005-1.41-0.013h-26.301
	c2.285,0.361-1.981,0.084-5.065,0h-41.096c2.801,0.119-1.805,0.78-0.674,0h-7.282c-0.85,0.158-1.846,0.333-2.192,0.517h119.581
	c-0.099-0.22,2.594-0.234,2.639,0h8.199C536.375,2.079,536.052,1.9,536.063,1.669z"/>
<path d="M447.593,0.517h23.593c-0.035-0.207,0.146-0.38,0.58-0.516h-25.179C448.314,0.073,448.318,0.371,447.593,0.517z"/>
<path d="M478.015,0.517c0.152-0.192,0.361-0.391,0.074-0.516h-2.049c-0.226,0.2-0.492,0.393-1.217,0.516H478.015z"/>
<path d="M487.161,0.001c-0.127,0.01-0.291,0.018-0.504,0.023c0-0.008,0-0.016,0-0.023h-8.339c1.467,0.01,1.397,0.252,1.188,0.516
	h6.191c0.655-0.084,0.569-0.061,0.201,0h13.621c0.516-0.143,0.868-0.311,0.958-0.516H487.161z"/>
<path d="M350.384,1.669h-16.678c-0.172,0.026-0.297,0.044-0.004,0h-2.549c0.201,0.098,0.625,0.163,1.281,0.191
	c-1.174,0.084-2.082,0.208-3.047,0.325h5.497c0.101-0.04,0.174-0.077,0.297-0.118c8.699-0.068,10.013-0.337,12.367,0
	c1.479-0.233,1.282-0.118,0.807,0.118h3.981C351.775,2,351.267,1.806,350.384,1.669z"/>
<path d="M405.257,2.069c0-0.133,0-0.266,0-0.399H371.11c3.918,0.291-5.212,0.485-0.348,0h-10.625
	c0.084,0.163-0.016,0.347-0.248,0.517h14.994c0.074-0.036,0.129-0.075,0.151-0.118c0.692-0.021,1.151,0.032,1.412,0.118h3.944
	c0.035-0.036,0.07-0.074,0.146-0.118c0.916,0.01,1.342,0.058,1.492,0.118h23.384C405.333,2.15,405.284,2.111,405.257,2.069z"/>
<path d="M335.177,0.517h32.602c0.28-0.09,0.459-0.193,0.385-0.314c1.197,0.02,1.608,0.151,1.617,0.314h12.615
	c0.014-0.054,0.449-0.108,0.875-0.108c0.25-0.176-0.532-0.195-1.371-0.207c0.156-0.106,0.346-0.167,0.563-0.202h-34.464
	c-0.491,0.023-1.018,0.027-1.585,0h-3.52c0.272,0.122,0.467,0.256,0.537,0.408c-2.684,0.061-3.928-0.159-3.95-0.408h-23.527
	c0.099,0.242-0.658,0.355-1.098,0.516h17.94C332.907,0.369,334.091,0.31,335.177,0.517z M347.553,0.202
	C348.132,0.115,346.657,0.338,347.553,0.202L347.553,0.202z M337.943,0.409C337.038,0.545,338.513,0.322,337.943,0.409
	L337.943,0.409z M320.077,0.202C319.174,0.338,320.653,0.115,320.077,0.202L320.077,0.202z M328.315,0.202
	C328.896,0.115,327.42,0.338,328.315,0.202L328.315,0.202z"/>
<path d="M874.653,1.669H730.479c0.004,0.002,0.004,0.001,0,0h-111.91c-0.009,0.005-0.021,0.008-0.021,0.013
	c-0.115-0.002-0.168-0.01-0.278-0.013h-47.629c-0.159,0.17-1.86,0.338-1.745,0h-29.246c0.582,0.149,0.524,0.351-0.164,0.517h21.193
	c-0.073-0.062-0.053-0.154,0.16-0.296c1.808,0.019,1.778,0.186,1.283,0.296h148.511c-0.004-0.031-0.054-0.055-0.037-0.089
	c0.328,0.031,0.672,0.06,1.017,0.089h27.909c-0.021-0.03-0.065-0.057-0.077-0.089c1.614-0.081,2.323-0.027,2.626,0.089h26.234
	c0-0.03,0-0.059,0-0.089c0.918,0,1.827,0,2.749,0c0,0.03,0,0.059,0,0.089h103.243C874.006,2.009,874.092,1.813,874.653,1.669z"/>
<path d="M944.385,1.928c0-0.143-0.77-0.258-1.708-0.258h-13.084c0.553,0.102,0.868,0.238,0.831,0.428
	c-2.364,0.078-2.614-0.162-2.688-0.428h-43.817c-0.25,0.206-1.267,0.382-2.95,0.221c0-0.074,0-0.147,0-0.221h-2.717
	c0.131,0.215,0.549,0.386,0.692,0.517h21.255c0-0.168,0-0.336,0-0.503c1.832,0,3.663,0,5.499,0
	c-0.726,0.137-1.053,0.334-1.565,0.503h38.544C943.623,2.186,944.385,2.07,944.385,1.928z"/>
</svg>
