<?xml version="1.0" encoding="utf-8"?>
<!-- Generator: Adobe Illustrator 16.0.3, SVG Export Plug-In . SVG Version: 6.00 Build 0)  -->
<!DOCTYPE svg PUBLIC "-//W3C//DTD SVG 1.1//EN" "http://www.w3.org/Graphics/SVG/1.1/DTD/svg11.dtd">
<svg version="1.1" id="Layer_1" xmlns="http://www.w3.org/2000/svg" xmlns:xlink="http://www.w3.org/1999/xlink" x="0px" y="0px"
	 width="950px" height="60px" viewBox="0 0 950 60" enable-background="new 0 0 950 60" xml:space="preserve">
<g>
	<path fill="#231F20" d="M31.849,47.366l398.556,0.403c0.763,16.191,19.642,0.93,4-2.494L35.842,44.877
		C35.108,28.68,16.203,43.941,31.849,47.366L31.849,47.366z"/>
	<path fill="#231F20" d="M519.217,47.77l400.269-0.403c15.647-3.425-3.251-18.687-3.991-2.489l-400.273,0.398
		C499.578,48.699,518.454,63.961,519.217,47.77L519.217,47.77z"/>
	<path fill="#231F20" d="M496.63,46.777c1.603-3.004,0.784-8.115,0.784-8.115s-3.283-0.141-6.164,1.361
		c-2.03,1.055-3.554,3.357-3.756,8.71c-0.224,6.322-2.69,8.391-4.483,8.469c0,0,5.84,3.307,12.14-0.274
		c5.431-3.088,5.431-10.268,10.459-11.518c0,0-2.988-1.469-5.808,0.627c-2.421,1.793-4.887,4.098-6.989,3.082
		C492.813,49.119,495.206,49.456,496.63,46.777L496.63,46.777z"/>
	<path fill="#231F20" d="M468.8,40.606c-3.907,2.304-5.207,6.983-3.629,10.856c2.497,6.165,9.443,6.054,9.443,6.054
		s6.95,0.111,9.45-6.054c1.568-3.873,0.269-8.553-3.632-10.856c-3.472-2.04-5.182-3.173-5.715-5.308l0.003-0.162
		C474.211,37.316,472.322,38.533,468.8,40.606L468.8,40.606z"/>
	<path fill="#231F20" d="M453.765,56.928c6.303,3.581,12.146,0.274,12.146,0.274c-1.796-0.078-4.26-2.146-4.489-8.469
		c-0.196-5.353-1.718-7.655-3.75-8.71c-2.884-1.502-6.168-1.361-6.168-1.361s-0.821,5.111,0.779,8.115
		c1.432,2.679,3.828,2.342,3.828,2.342c-2.107,1.016-4.567-1.289-6.989-3.082c-2.822-2.096-5.814-0.627-5.814-0.627
		C448.342,46.66,448.342,53.84,453.765,56.928L453.765,56.928z"/>
</g>
</svg>
