<?xml version="1.0" encoding="utf-8"?>
<!-- Generator: Adobe Illustrator 16.0.3, SVG Export Plug-In . SVG Version: 6.00 Build 0)  -->
<!DOCTYPE svg PUBLIC "-//W3C//DTD SVG 1.1//EN" "http://www.w3.org/Graphics/SVG/1.1/DTD/svg11.dtd">
<svg version="1.1" xmlns="http://www.w3.org/2000/svg" xmlns:xlink="http://www.w3.org/1999/xlink" x="0px" y="0px" width="950px"
	 height="26.375px" viewBox="0 0 950 26.375" enable-background="new 0 0 950 26.375" xml:space="preserve">
<g id="Layer_2">
	<g opacity="0.75">
		<path d="M102.262,13.253c-0.682-0.077-2.202,0.165-2.104,0.173c2.667,0.199,5.838-0.188,8.565-0.178
			c0.083,0.001,0.165,0.002,0.247,0.002c-1.043-0.028-2.085-0.065-3.078-0.062C104.719,13.192,103.416,13.383,102.262,13.253z"/>
		<path d="M845.363,13.29c-0.552,0.001-1.087,0-1.568-0.004c0.479,0.019,1.002,0.037,1.542,0.054
			C845.346,13.323,845.351,13.302,845.363,13.29z"/>
		<path d="M832.638,13.117c-2.868-0.012-5.775,0.063-8.642,0.05c-2.729-0.01-6.788,0.343-9.363-0.105
			c-0.58-0.101-1.257-0.075-1.954-0.032c0.007,0.033,0.023,0.068,0.049,0.106c-0.247,0.032-0.336-0.02-0.399-0.084
			c-0.689,0.046-1.387,0.093-2.021,0.039c-1.281-0.108-3.032-0.136-4.326-0.089c-0.144,0.005-0.286,0.004-0.43,0.009
			c-0.055,0.11-0.139,0.225-0.263,0.318c2.322-0.011,4.707-0.031,6.97-0.039c2.434-0.011,5.599,0.437,7.953,0.115
			c1.88-0.257,5.235-0.198,7.233-0.156c2.351,0.049,4.884-0.106,7.245,0.077c2.278,0.177,4.838-0.172,7.173-0.113
			C839.153,12.867,835.438,13.128,832.638,13.117z"/>
		<path d="M843.795,13.286c-0.857-0.033-1.558-0.064-1.865-0.073c-0.022,0-0.045,0-0.067,0c0.043,0.006,0.092,0.008,0.135,0.014
			C842.244,13.261,842.931,13.278,843.795,13.286z"/>
		<path d="M849.851,13.22C849.44,13.54,850.257,12.903,849.851,13.22L849.851,13.22z"/>
		<path d="M562.27,14.147c0.112-0.333,1.58,0.317,1.9-0.126c0.153,0.22-0.122,0.358-0.519,0.399c3.521-0.01,7.05-0.021,10.607-0.033
			c21.313-0.092,42.562-0.257,63.897-0.366c0.355-0.077,0.874-0.129,1.176-0.127c-0.014,0.056-0.063,0.092-0.125,0.121
			c2.382-0.012,4.761-0.026,7.146-0.037c6.768-0.024,13.553-0.048,20.332-0.07c0-0.09,0-0.179,0-0.267c0.241,0,0.475,0,0.717,0
			c-0.158,0.039-0.176,0.152-0.197,0.264c15.519-0.054,31.05-0.107,46.59-0.162c0.063-0.216,0.456-0.081,0.423-0.001
			c8.491-0.03,16.976-0.062,25.461-0.093c0.021-0.208,0.503-0.171,0.506-0.389c0.612,0.009,0.393,0.239,0.344,0.387
			c2.679-0.01,5.358-0.02,8.035-0.03c0.462-0.119,1.129,0.085,1.37-0.104c0.108,0.011,0.173,0.05,0.217,0.099
			c0.939-0.004,1.88-0.007,2.818-0.011c0.189-0.149,0.456-0.259,1.009-0.213c0.024,0.089,0.008,0.155-0.033,0.21
			c0.792-0.003,1.582-0.007,2.374-0.01c0.127-0.049,0.28-0.083,0.514-0.075c0.006,0.027,0.001,0.05-0.001,0.073
			c0.108,0,0.216-0.001,0.324-0.002c0.043-0.038,0.168-0.048,0.393-0.001c0.181-0.001,0.362-0.002,0.544-0.002
			c-0.023-0.018-0.047-0.039-0.071-0.068c0.384-0.32,0.416-0.049,0.296,0.067c0.514-0.002,1.026-0.005,1.54-0.007
			c-0.226-0.048-0.256-0.218,0.544-0.186c-0.081,0.11-0.197,0.162-0.311,0.185c10.18-0.039,20.354-0.079,30.504-0.123
			c4.644-0.017,9.405-0.096,13.976-0.116c0.121-0.179-0.053-0.227-0.256-0.297c-0.923,0.014-1.845,0.019-2.764,0.012
			c0,0.071,0,0.143,0,0.212c-0.158,0-0.317,0-0.476,0c0-0.07,0-0.143,0-0.214c-1.491-0.014-2.979-0.039-4.47-0.046
			c-2.899-0.011-5.793,0.08-8.649,0.067c-1.464-0.005-2.881-0.035-4.323-0.042c-1.453-0.005-3.636,0.202-5.043-0.032
			c-2.373-0.396-6.157-0.079-8.647-0.062c-0.211,0.002-0.421,0-0.632,0.001c0.457,0.254-1.047,0.24-0.295,0
			c-2.841,0.012-5.681-0.011-8.451-0.022c-0.421-0.002-0.844-0.007-1.266-0.011c-0.239,0.177-0.733,0.219-1.277,0.235
			c0.03-0.122,0.155-0.192,0.318-0.244c-2.168-0.028-4.342-0.08-6.512-0.125c-0.095,0.153-0.411,0.192-0.468,0.369
			c-0.275-0.021-0.196-0.232-0.233-0.381c0.031,0,0.064,0,0.096,0c-2.912-0.058-5.814-0.096-8.682-0.035
			c-0.553,0.012-1.105,0.018-1.658,0.026c-0.002,0-0.004-0.002,0.016,0.009c0.111,0.061,0.012,0.007-0.017-0.009
			c-5.136,0.09-10.286,0.093-15.438,0.064c-0.43,0.201-1.311,0.35-1.412-0.007c-5.852-0.037-11.703-0.104-17.535-0.107
			c-6.035-0.005-11.989-0.112-18.018-0.135c-2.882-0.012-5.839,0.105-8.636,0.096c-2.658-0.012-6.764-0.519-9.359-0.138
			c-2.745,0.402-5.854-0.414-8.663-0.061c-2.815,0.354-6.521-0.013-9.372-0.025c-2.891-0.011-5.738-0.039-8.648-0.05
			c-2.835-0.013-6.619-0.321-9.39,0.037c-2.252,0.29-5.703,0.079-8.158,0.038c-0.04,0.247-0.541,0.248-0.948,0.296
			c-0.034-0.152,0.041-0.248,0.181-0.308c-3.063-0.025-6.116-0.158-9.12-0.171c-2.896-0.011-5.753-0.027-8.664-0.037
			c-2.284-0.01-7.412-0.524-9.396-0.002c-0.465,0.122-1.26,0.119-2.076,0.079c-0.119,0.158-0.388,0.236-0.898,0.186
			c-0.035-0.094-0.039-0.172-0.028-0.24c-0.153-0.012-0.303-0.021-0.447-0.031c0,0.048,0,0.096,0,0.144
			c-0.476,0.06-0.72-0.005-0.745-0.188c-0.045-0.002-0.1-0.006-0.142-0.007c-0.645-0.022-1.304,0.042-1.964,0.094
			c0,0.118,0,0.237,0,0.354c-0.396,0-0.797,0-1.192,0c0.118-0.118,0.242-0.231,0.44-0.307c-0.546,0.022-1.089,0.01-1.621-0.095
			c-2.502-0.491-6.71-0.092-9.378-0.102c-5.778-0.024-12.365-0.454-18.075-0.006c-1.453,0.114-2.908-0.159-4.342-0.049
			c-1.099,0.085-3.293,0.162-4.348,0.028c-1.632-0.207-3.516-0.196-5.369-0.151c-0.502,0.149-0.954,0.326-1.308,0.555
			c-0.13-0.233,0.094-0.392,0.448-0.534c-1.108,0.031-2.193,0.064-3.186,0.062c-1.475-0.007-2.893-0.033-4.355-0.039
			c-0.747-0.003-1.438,0.138-2.2,0.105c-1.391-0.06-0.561-0.751-0.988-1.278c-1.817-2.237-2.338-4.101-7.659-4.746
			c-5.227-0.637-10.626,0.396-15.428,1.528c-2.074,0.491-1.756-0.049-3.255-0.849c-1.213-0.645-2.52-1.239-3.709-1.913
			c-1.323-0.749-2.711-1.551-4.138-2.3c-0.03-0.001-0.054,0.001-0.085-0.001c0.003-0.013,0.017-0.021,0.022-0.032
			c-0.265-0.138-0.529-0.272-0.796-0.405c-0.221,0.034-0.513,0.029-0.815,0.021c0.018-0.136,0.163-0.202,0.373-0.234
			c-0.136-0.065-0.271-0.133-0.407-0.197c0.03,0.052-0.062,0.098-0.441,0.051c0.017-0.136,0.148-0.157,0.266-0.136
			c-0.079-0.036-0.156-0.078-0.235-0.114c-0.031-0.014-0.068-0.033-0.108-0.055c0,0.029,0,0.06,0,0.089c-0.237,0-0.475,0-0.712,0
			c-0.027-0.18,0.077-0.29,0.288-0.342c-0.27-0.167-0.594-0.368-0.933-0.549c-0.025,0-0.041,0.006-0.068,0.005
			c-0.004-0.016,0.007-0.023,0.006-0.038c-0.674-0.352-1.391-0.603-1.824-0.301c-1.035,0.72-2.16,1.424-3.361,2.063
			c-2.043,1.087-4.131,2.179-6.158,3.258c-1.662,0.885-1.183,0.347-2.593-0.327c-1.233-0.59-2.6-1.197-3.748-1.81
			c-1.284-0.684-4.038-3.234-6.01-3.237c-0.771-0.002-6.274,2.972-6.681,3.402c-0.581,0.615-2.028,1.232-3.013,1.667
			c-1.513,0.667-1.653,1.006-3.02-0.037c-1.742-1.33-4.623-2.33-6.761-3.468c-0.64-0.341-2.146-1.673-3.024-1.671
			c-0.456,0.002-2.7,1.397-3.158,1.642c-0.794,0.423-1.559,0.888-2.332,1.354c-0.031,0.164-0.162,0.319-0.413,0.415
			c0.058,0.327,0.408-0.174,0.95,0c-0.217,0.351-0.909,0.446-1.663,0.507c-0.054-0.056-0.105-0.111-0.176-0.157
			c-0.977,0.558-2,1.085-3.15,1.5c-1.271,0.46-1.934,1.214-3.133,1.68c-0.616,0.238-0.893,0.663-1.547,0.861
			c-0.837-0.21-1.73-0.533-2.588-0.722c-4.881-1.073-12.1-2.121-16.939-0.626c-3.241,1.006-4.734,3.143-5.049,5.036
			c-0.135,0.816-7.063,0.361-8.752,0.368c-12.093,0.044-24.012,0.066-36.02,0.119c-11.734,0.042-23.441,0.084-35.145,0.125
			c-0.288,0.09-0.443,0.064-0.48,0.002c-3.021,0.011-6.044,0.021-9.065,0.033c-0.159,0.083-0.388,0.129-0.687,0.137
			c-0.02-0.051-0.028-0.095-0.028-0.135c-5.469,0.02-10.941,0.039-16.414,0.059c-0.095,0.182-0.437,0.23-0.923,0.202
			c-0.018-0.081-0.006-0.146,0.028-0.198c-3.128,0.011-6.251,0.021-9.382,0.033c-4.067,0.018-8.127,0.039-12.192,0.059
			c-0.186,0.182-0.526,0.268-0.813,0.106c0.038-0.034,0.074-0.068,0.112-0.104c-6.937,0.032-13.875,0.063-20.807,0.1
			c0,0.001,0,0.003,0,0.004c-0.154,0-0.313,0-0.476,0c0,0,0-0.001,0-0.002c-10.782,0.055-21.558,0.112-32.332,0.171
			c-0.282,0.134-0.556,0.271-1.201,0.211c0.016-0.095,0.05-0.156,0.093-0.205c-21.13,0.113-42.252,0.225-63.377,0.323
			c-0.14,0.053-0.267,0.112-0.224,0.263c-0.275-0.024-0.327-0.151-0.244-0.26c-3.27,0.015-6.54,0.032-9.811,0.046
			c-0.048,0.065-0.155,0.138-0.172,0.214c-0.258-0.057-0.215-0.13-0.134-0.212c-0.893,0.004-1.784,0.009-2.677,0.013
			c-8.893,0.038-17.979,0.211-26.731-0.018c-4.152-0.109-8.914-0.083-13.031,0.154c-0.378,0.022-0.769,0.025-1.16,0.031
			c2.263,0.02,4.528,0.043,6.826,0.046c6.131,0.004,11.979,0.12,18.004,0.146c12.048,0.043,23.987-0.026,36.044,0.025
			c24.111,0.087,47.978,0.206,72.095,0.293c16.292,0.069,32.607,0.151,48.929,0.235c0.074-0.035,0.159-0.064,0.265-0.082
			c0.147,0.032,0.254,0.06,0.345,0.085c0.093,0,0.185,0.001,0.277,0.001c-0.031-0.062-0.088-0.165-0.146-0.34
			c0.645-0.01,1.016,0.127,1.232,0.346c20.104,0.104,40.218,0.207,60.332,0.299c0.409-0.214,1.128-0.265,1.701-0.391
			c-0.248,0.118-0.416,0.28-0.671,0.396c8.344,0.037,16.687,0.072,25.028,0.104c-0.039-0.057-0.053-0.146-0.019-0.285
			c0.483,0.037,0.5,0.191,0.386,0.286c0.919,0.003,1.838,0.008,2.757,0.012c0.038-0.002,0.069-0.007,0.111-0.006
			c0.001,0.003-0.001,0.003,0,0.006c1.263,0.005,2.528,0.012,3.792,0.016c2.837,0.013,5.813,0.055,8.689,0.064
			c1.455,0.007,2.888-0.07,4.343-0.065c0.278,0.001,0.576,0.009,0.881,0.02c0.101-0.026,0.217-0.043,0.37-0.04
			c0.01,0.023-0.005,0.033-0.004,0.053c0.834,0.032,1.719,0.077,2.535,0.08c0.08-0.184,0.334-0.336,0.799-0.388
			c-0.275,0.137-0.356,0.26-0.375,0.385c0.304-0.006,0.6-0.016,0.868-0.039c1.093-0.097,3.322-0.217,4.357-0.035
			c0.75,0.131,1.42-0.086,2.15,0.05c0.101,0.652,0.431,1.66,0.806,2.276c0.612,1.006,1.657,1.918,3.205,2.605
			c2.168,0.964,3.713,0.681,6.155,1.188c2.8,0.581,7.761-0.672,10.495-1.225c1.998-0.405,3.571-1.054,5.061-0.262
			c1.212,0.646,2.532,1.231,3.676,1.927c1.748,1.062,5.102,2.073,6.274,3.334c0.627,0.675,2.245,1.104,3.035,1.81
			c0.613,0.548,2.847-0.871,3.303-1.141c0.059-0.034,0.127-0.068,0.188-0.104c-0.21,0.006-0.48-0.02-0.676-0.006
			c0-0.085,0-0.169,0-0.254c0.317,0,0.634,0,0.95,0c0.022,0.036,0.028,0.063,0.034,0.089c1.052-0.567,2.326-1.137,3.46-1.732
			c-1.432,0.071,0.141-0.766,0.075-0.04c0.776-0.411,1.478-0.834,1.98-1.279c0.221-0.196,2.273-1.361,2.567-1.362
			c0.536,0,3.166,1.568,3.652,1.854c1.851,1.084,3.935,2.387,6.146,3.261c0.56,0.222,1.498,1.474,2.083,0.564
			c0.456-0.709,2.55-1.32,3.517-1.835c2.044-1.088,4.181-2.146,6.213-3.229c0.938-0.498,1.6-0.952,2.414,0.197
			c0.545,0.77,2.627,1.281,3.684,1.844c1.939,1.034,4.038,2.082,5.59,3.255c0.359,0.271,5.957-2.819,6.743-3.236
			c2.102-1.119,3.991-2.289,6.122-3.424c1.486-0.791,2.107-1.256,4.163-0.539c1.976,0.688,5.277,0.992,7.586,1.25
			c3.943,0.441,9.42,0.457,12.377-1.387c1.066-0.663,1.298-1.389,1.77-2.161c0.328-0.539,0.707-0.909,0.872-1.502
			c0.262-0.961-0.183-0.777,1.566-0.785c8.378-0.03,16.623-0.051,24.92-0.073C562.835,14.394,562.495,14.308,562.27,14.147z
			 M771.816,13.261c-0.059,0.224-0.408,0.29-0.95,0.253C770.624,13.133,771.396,13.29,771.816,13.261z M741.371,13.136
			C741.271,13.082,741.525,13.218,741.371,13.136L741.371,13.136z M731.143,13.514C731.042,13.461,731.301,13.597,731.143,13.514
			L731.143,13.514z M729.004,12.882C729.158,12.964,728.904,12.829,729.004,12.882L729.004,12.882z M727.813,13.136
			c0.158,0,0.32,0,0.479,0c0,0.083,0,0.167,0,0.253c-0.158,0-0.32,0-0.479,0C727.813,13.303,727.813,13.219,727.813,13.136z
			 M710.214,13.136C711.01,12.829,709.639,13.56,710.214,13.136L710.214,13.136z M699.271,13.261
			c0.238,0.382-0.529,0.225-0.954,0.253C698.476,13.346,698.83,13.278,699.271,13.261z M682.619,13.389
			C682.67,13.009,683.611,13.509,682.619,13.389L682.619,13.389z M682.861,13.514c0.108,0.271-0.342,0.242-0.717,0.254
			C682.249,13.612,682.453,13.509,682.861,13.514z M679.056,13.642c-0.733-0.005-1.684,0.369-1.667-0.253
			C677.988,13.271,679.019,13.145,679.056,13.642z M668.59,13.261c0.158,0,0.316,0,0.475,0c0,0.085,0,0.17,0,0.253
			c-0.158,0-0.316,0-0.475,0C668.59,13.431,668.59,13.346,668.59,13.261z M667.401,13.008
			C667.447,12.628,668.39,13.129,667.401,13.008L667.401,13.008z M641,12.502c0.028,0.227-0.297,0.267-0.242,0.506
			C640.07,12.985,640.187,12.406,641,12.502z M639.808,13.768C639.707,13.715,639.966,13.851,639.808,13.768L639.808,13.768z
			 M632.434,12.882C632.483,12.502,633.422,13.002,632.434,12.882L632.434,12.882z M600.563,12.882
			c0.879,0.09,1.021-0.217,1.9-0.127c-0.241,0.167-0.233,0.466-0.476,0.634c-0.475,0-0.95,0-1.425,0
			C600.563,13.219,600.563,13.05,600.563,12.882z M593.902,13.008c0.346,0.11,0.921,0.101,0.713,0.506
			C593.781,13.61,593.553,13.183,593.902,13.008z M580.506,13.933c-0.2,0.188-0.596,0.272-1.188,0.252
			C579.268,13.809,580.164,13.739,580.506,13.933z M575.274,12.539c0.421,0.093,0.034,0.23,0,0.38
			C574.85,12.827,575.237,12.689,575.274,12.539z M573.845,14.185c-0.063-0.203,0.226-0.217,0.242-0.379
			C574.545,13.756,574.433,14.383,573.845,14.185z M573.611,13.553C573.657,13.173,574.596,13.673,573.611,13.553L573.611,13.553z
			 M566.551,13.514C566.596,13.136,567.538,13.636,566.551,13.514L566.551,13.514z M198.752,13.553
			C198.654,13.499,198.909,13.635,198.752,13.553L198.752,13.553z M244.898,13.553C244.798,13.499,245.053,13.635,244.898,13.553
			L244.898,13.553z M269.633,12.919c0.167-0.249,0.638-0.337,1.192-0.38C270.934,12.936,270.316,12.944,269.633,12.919z
			 M279.624,13.172C280.216,12.679,279.97,13.593,279.624,13.172L279.624,13.172z M280.337,12.919
			C280.236,12.866,280.495,13.002,280.337,12.919L280.337,12.919z M295.084,13.553c-0.529-0.15,0.134-0.938-0.934-0.802
			c0.792-0.125,2.914-0.407,3.547-0.338C297.206,12.993,295.393,12.873,295.084,13.553z M298.89,13.553
			C298.936,13.173,299.878,13.673,298.89,13.553L298.89,13.553z M300.319,13.679c0.029-0.361,0.992-0.23,1.663-0.252
			C301.949,13.788,300.99,13.658,300.319,13.679z M304.601,12.919c0.392,0,0.787,0,1.188,0
			C305.968,13.302,304.233,13.549,304.601,12.919z M311.02,14.06c-0.171-0.347,0.475-0.255,0.479-0.507
			C311.808,13.49,311.599,14.181,311.02,14.06z M319.818,14.06c-0.279-0.021-0.195-0.231-0.233-0.381c0.233,0,0.476,0,0.713,0
			C320.215,13.846,319.877,13.879,319.818,14.06z M342.419,14.06c0.1-0.156,0.304-0.261,0.713-0.254
			C343.027,13.961,342.827,14.065,342.419,14.06z M358.116,13.933C357.938,14.106,358.691,13.364,358.116,13.933L358.116,13.933z
			 M360.968,12.666c0.638-0.125,1.084-0.354,1.905-0.379C362.677,12.636,361.477,12.871,360.968,12.666z M368.104,14.185
			c-0.158,0-0.316,0-0.475,0c0-0.084,0-0.167,0-0.252c0.158,0,0.316,0,0.475,0C368.104,14.018,368.104,14.101,368.104,14.185z
			 M375.24,12.287C375.29,11.907,376.228,12.407,375.24,12.287L375.24,12.287z M374.052,14.06c0.434-0.566,0.192-1.276,2.143-1.266
			C375.34,13.142,375.119,13.825,374.052,14.06z M377.693,12.121c0.521-0.023,0.759,0.104,0.715,0.381
			C377.792,12.577,377.552,12.451,377.693,12.121z M381.426,13.3C381.705,12.915,382.685,13.437,381.426,13.3L381.426,13.3z
			 M382.452,13.768C383.173,13.3,383.254,14.153,382.452,13.768L382.452,13.768z M385.231,13.047
			c-0.325-0.04-0.196-0.317-0.238-0.508C385.965,12.502,385.119,12.804,385.231,13.047z M387.607,12.794
			c-0.634-0.149-0.021-0.673,0.717-0.507C388.532,12.692,387.703,12.55,387.607,12.794z M389.987,13.427
			C390.579,12.933,390.333,13.846,389.987,13.427L389.987,13.427z M390.538,12.374C390.819,11.99,391.801,12.512,390.538,12.374
			L390.538,12.374z M393.793,13.679c0.104-0.155,0.304-0.259,0.713-0.252C394.618,13.696,394.168,13.668,393.793,13.679z
			 M394.743,12.666c0.371-0.174,1.43-0.255,1.667-0.127C396.215,12.808,395.156,12.887,394.743,12.666z M403.622,13.008
			C403.67,12.628,404.61,13.129,403.622,13.008L403.622,13.008z M405.98,12.596c0.013-0.005,0.067-0.021,0.18-0.057
			C407.09,12.254,406.06,12.57,405.98,12.596z M409.016,12.539C409.295,12.154,410.278,12.677,409.016,12.539L409.016,12.539z
			 M410.92,12.919c0.496-0.053,0.63,0.088,0.95,0.128C411.945,13.27,410.537,13.271,410.92,12.919z M532.537,8.069
			C532.583,7.691,533.525,8.19,532.537,8.069L532.537,8.069z M531.824,6.931C530.941,7.372,530.615,6.585,531.824,6.931
			L531.824,6.931z M528.415,6.843C528.698,6.458,529.678,6.979,528.415,6.843L528.415,6.843z M520.329,6.968
			c0.241,0.382-0.53,0.225-0.951,0.253C519.437,6.999,519.787,6.934,520.329,6.968z M516.285,7.221
			C517.106,7.55,515.064,7.527,516.285,7.221L516.285,7.221z M513.508,8.323C513.789,7.938,514.77,8.46,513.508,8.323L513.508,8.323
			z M513.271,8.323c-0.073,0.173-0.597,0.104-0.95,0.127C512.393,8.278,512.914,8.345,513.271,8.323z M511.605,7.816
			c-0.24,0.21-1.009,0.138-1.428,0.253C510.172,7.696,511.28,7.642,511.605,7.816z M508.99,6.425
			c-0.029,0.468-0.347,0.318-0.953,0.253C508.096,6.455,508.447,6.389,508.99,6.425z M497.665,2.35
			C497.704,2.349,497.693,2.35,497.665,2.35L497.665,2.35z M497.341,2.353C497.288,2.354,497.272,2.354,497.341,2.353L497.341,2.353
			z M492.977,4.31c-0.055,0.223-0.408,0.289-0.95,0.253C492.085,4.341,492.435,4.274,492.977,4.31z M487.745,7.475
			c0.309,0,0.617,0,0.925,0c-0.082-0.08-0.139-0.155-0.143-0.221c-0.017-0.278,2.338-1.393,2.816-1.648
			c1.014-0.539,1.967-1.107,2.98-1.647c0.457-0.243,2.814-1.603,3.174-1.606c0.437-0.005,5.001,2.535,5.417,2.91
			c1.516,1.366,5.04,1.969,6.285,3.441c-3.823,1.065-7.625,2.305-11.127,3.631c-2.359-0.744-4.589-2.309-6.519-3.338
			c-0.557-0.296-2.313-1.002-2.855-1.498C488.902,7.918,487.374,8.052,487.745,7.475z M505.586,10.514
			C504.539,10.979,504.681,10.163,505.586,10.514L505.586,10.514z M500.112,12.16c-0.237,0-0.475,0-0.712,0c0-0.084,0-0.17,0-0.254
			C499.879,11.864,500.142,11.933,500.112,12.16z M495.466,13.334c0-0.017-0.001-0.04-0.001-0.069
			C495.465,13.295,495.466,13.321,495.466,13.334z M493.932,10.642c0.107,0.27-0.342,0.239-0.718,0.253
			C493.318,10.738,493.519,10.634,493.932,10.642z M492.104,11.108C492.15,10.729,493.09,11.229,492.104,11.108L492.104,11.108z
			 M490.121,8.614c-0.054,0.224-0.408,0.289-0.95,0.253C489.229,8.646,489.579,8.58,490.121,8.614z M486.795,6.968
			c-0.104,0.157-0.305,0.261-0.717,0.253C485.97,6.951,486.42,6.981,486.795,6.968z M481.875,4.904
			c-0.131,0.301-0.921,0.525-1.428,0.253C480.475,4.835,481.244,4.907,481.875,4.904z M475.141,0.638c0.233,0,0.475,0,0.709,0
			c0,0.212,0,0.423,0,0.634C474.766,1.348,474.874,0.988,475.141,0.638z M475.169,2.351c-0.032,0.001-0.082,0.001-0.142,0.001
			C475.091,2.352,475.143,2.352,475.169,2.351z M474.262,1.739C474.543,1.354,475.525,1.876,474.262,1.739L474.262,1.739z
			 M473.948,1.903c0.121,0.528-0.604,0.608-1.425,0.634C472.489,2.056,473.144,1.94,473.948,1.903z M472.599,1.612
			c-0.104,0.156-0.307,0.261-0.715,0.254C471.773,1.595,472.226,1.625,472.599,1.612z M471.331,3.044
			c0.604,0.169,0.154,0.827-0.713,0.633C470.368,3.205,471.118,3.268,471.331,3.044z M469.994,5.139
			c0.942-0.501,3.842-2.785,5.005-2.787c0.23-0.001,3.741,1.891,4.188,2.129c0.94,0.5,1.735,1.065,2.615,1.568
			c0.107,0.001,0.215,0.001,0.311-0.005c-0.021,0.048-0.081,0.075-0.157,0.093c0.623,0.346,1.294,0.658,2.1,0.888
			c0.64,0.183-3.37,2.101-3.944,2.406c-1.613,0.857-3.325,1.666-4.659,2.613c-0.625,0.444-3.991-1.771-4.542-2.063
			c-0.817-0.436-5.097-2.266-5.1-2.724C465.808,6.795,469.274,5.522,469.994,5.139z M481.084,11.02
			c-0.533-0.092-0.116-0.721,0.476-0.632c-0.042,0.107,0.096,0.12,0.237,0.126C481.701,10.758,480.876,10.614,481.084,11.02z
			 M474.631,13.527c-0.038,0.012-0.146,0.045-0.369,0.114c-0.02,0.006-0.03,0.01-0.046,0.014
			C474.36,13.611,474.572,13.545,474.631,13.527z M473.074,14.907C473.795,14.439,473.874,15.292,473.074,14.907L473.074,14.907z
			 M464.437,6.462C464.591,6.546,464.336,6.409,464.437,6.462L464.437,6.462z M455.871,2.537c0.158,0,0.32,0,0.479,0
			c0,0.084,0,0.168,0,0.254c-0.158,0-0.32,0-0.479,0C455.871,2.705,455.871,2.621,455.871,2.537z M453.257,2.031
			c0.108,0.27-0.342,0.24-0.712,0.253C452.645,2.127,452.849,2.023,453.257,2.031z M450.64,1.778
			C450.689,1.398,451.627,1.898,450.64,1.778L450.64,1.778z M451.59,2.537c-0.025,0.324-0.796,0.25-1.426,0.254
			C450.189,2.467,450.961,2.539,451.59,2.537z M444.934,5.449c0.233,0,0.475,0,0.713,0c-0.255,0.117-0.075,0.468-0.713,0.38
			C444.934,5.702,444.934,5.575,444.934,5.449z M443.752,7.172c0.983-0.523,1.793-1.141,2.771-1.662
			c0.984-0.523,1.908-1.075,2.891-1.6c0.428-0.228,2.779-1.561,3.086-1.559c0.073,0,0.179,0.038,0.297,0.091
			c-0.005-0.012-0.011-0.021-0.016-0.031c0.851,0.068,0.834,0.305,0.606,0.36c0.588,0.376,1.262,0.887,1.531,1.031
			c0.284-0.384,1.264,0.138,0,0c1.171,0.628,2.416,1.218,3.608,1.853c0.474,0.252,3.265,1.404,3.256,1.604
			c-0.027,0.622-3.228,1.416-3.92,1.979c-0.771,0.624-2.071,1.267-3.163,1.732c-1.164,0.498-1.815,1.268-2.926,1.267
			c-0.039,0.108-0.18,0.212-0.345,0.012c0.015-0.013,0.027-0.021,0.042-0.032c-0.24-0.028-0.5-0.089-0.792-0.195
			c-3.318-1.22-6.484-2.363-10.036-3.354C441.127,8.088,442.919,7.615,443.752,7.172z M454.683,13.427
			c-0.104,0.154-0.304,0.259-0.713,0.252C454.074,13.523,454.274,13.42,454.683,13.427z M451.59,13.047
			C451.64,12.667,452.578,13.166,451.59,13.047L451.59,13.047z M441.84,7.349c-0.295,0.182-0.816,0.24-1.43,0.253
			C440.439,7.278,441.207,7.351,441.84,7.349z M437.08,9.754c0.329,0.452-0.721,1.103-1.426,0.888
			C435.634,10.081,437.055,10.288,437.08,9.754z M427.093,6.462c-0.333,0.202-0.821,0.324-1.425,0.381
			C425.88,6.577,426.367,6.456,427.093,6.462z M416.389,8.235c0.43-0.017,0.5,0.154,0.95,0.126c0.034,0.356-0.583,0.365-1.188,0.381
			C416.051,8.477,416.313,8.406,416.389,8.235z M424.051,6.895c2.558,0,5.122,0.34,7.584,0.809c0.206-0.185,0.577-0.354,0.926-0.354
			c0.023,0.242-0.215,0.344-0.462,0.441c1.513,0.299,2.984,0.643,4.385,0.984c-0.148,0.167-0.403,0.343-0.713,0.521
			c0.063,0.044,0.032,0.093-0.185,0.1c-0.99,0.533-2.432,1.077-3.198,1.484c-0.597,0.318-1.222,0.909-2.008,1.087
			c-0.973,0.22-2.391-0.165-3.466-0.038c-1.815,0.216-3.827-0.216-5.506,0.019c-0.929,0.13-1.821-0.098-2.757,0.009
			c-0.553,0.063-3.077,0.192-3.505,0.108C415.594,9.307,418.367,6.895,424.051,6.895z M431.611,11.906
			C432.203,11.412,431.957,12.325,431.611,11.906L431.611,11.906z M427.644,12.628C428.365,12.159,428.444,13.013,427.644,12.628
			L427.644,12.628z M422.648,14.401C422.698,14.021,423.636,14.522,422.648,14.401L422.648,14.401z M421.145,13.172
			C423.087,12.736,422.545,13.449,421.145,13.172L421.145,13.172z M422.1,12.287C421.896,13.035,422.232,11.778,422.1,12.287
			L422.1,12.287z M417.814,13.172c0,0.128,0,0.255,0,0.381c-0.237,0-0.476,0-0.713,0C417.061,13.276,417.298,13.149,417.814,13.172z
			 M413.771,11.906c0.162,0,0.316,0,0.475,0c0,0.084,0,0.17,0,0.254c-0.158,0-0.313,0-0.475,0
			C413.771,12.076,413.771,11.99,413.771,11.906z M414.722,16.971c-0.158,0-0.313,0-0.476,0c0-0.083,0-0.168,0-0.253
			c0.163,0,0.317,0,0.476,0C414.722,16.803,414.722,16.888,414.722,16.971z M413.533,13.047c-0.225-0.459,0.938-0.177,1.43-0.253
			C414.667,12.975,414.143,13.032,413.533,13.047z M415.676,18.236c-1.191-0.091,0.075-0.707,0-1.012
			C416.693,17.224,415.855,18.07,415.676,18.236z M416.864,17.858C417.66,17.552,416.289,18.282,416.864,17.858L416.864,17.858z
			 M428.119,19.846c0.056-0.224,0.411-0.289,0.952-0.253C429.311,19.973,428.542,19.816,428.119,19.846z M430.737,19.212
			C431.137,18.765,431.479,19.626,430.737,19.212L430.737,19.212z M427.155,19.439c-0.049,0.05-0.125,0.072-0.212,0.016
			c-0.969,0.087-1.937,0.142-2.891,0.142c-5.918,0-8.457-2.393-8.912-5.18c1.092-0.216,4.252,0.062,5.56,0.066
			c2.057,0.008,4.159,0.21,6.199,0.004c1.832-0.186,3.884-0.01,4.928,0.88c0.457,0.39,1.179,0.699,1.926,0.997
			c0.126-0.017,0.275-0.027,0.477-0.026c-0.03,0.06-0.059,0.121-0.087,0.182c0.92,0.364,1.819,0.729,2.256,1.219
			C433.576,18.427,430.359,19.133,427.155,19.439z M433.59,16.173C433.638,15.795,434.578,16.294,433.59,16.173L433.59,16.173z
			 M433.754,15.452C434.55,15.146,433.179,15.877,433.754,15.452L433.754,15.452z M435.503,15.021
			c-1.735-0.604-2.384-1.625-1.618-2.71c0.39-0.553,2.712-1.618,3.597-2.045c1.505-0.727,2.583-0.601,3.898-0.216
			c0.022-0.025,0.046-0.051,0.059-0.081c0.213,0.006,0.262,0.101,0.312,0.194c0.418,0.131,0.862,0.28,1.356,0.434
			c1,0.309,7.74,2.313,7.519,2.744c0.006,0.001,0.009,0.004,0.002,0.012c-2.821,1.054-5.81,2.064-8.845,2.97
			c0.236-0.008,0.538,0.229-0.181,0.142c0.006-0.053,0.033-0.086,0.066-0.108c-0.846,0.251-1.693,0.498-2.543,0.73
			C437.589,16.635,436.995,15.542,435.503,15.021z M440.648,17.984c-0.209-0.099-0.534-0.136-0.95-0.126
			C439.623,17.634,441.031,17.632,440.648,17.984z M441.439,19.719c-0.515-0.264,0.031-0.409,0.24-0.633
			C442.195,19.198,442.404,19.794,441.439,19.719z M442.078,19.883C442.124,19.504,443.065,20.004,442.078,19.883L442.078,19.883z
			 M454.92,24.188c0.059-0.222,0.409-0.288,0.951-0.253C455.816,24.157,455.462,24.225,454.92,24.188z M458.488,22.543
			c-0.07-0.294,0.688-0.142,0.713-0.38C459.918,22.314,459.164,22.716,458.488,22.543z M458.657,20.885
			c-1.013,0.539-1.968,1.107-2.981,1.647c-0.456,0.242-2.814,1.603-3.173,1.607c0.18-0.002,0.367-0.004,0,0
			c-0.338,0.004-0.173,0.001,0,0c-0.438,0.004-5.001-2.535-5.416-2.91c-1.514-1.367-5.041-1.97-6.286-3.441
			c3.822-1.064,7.627-2.304,11.127-3.631c2.361,0.744,4.586,2.309,6.519,3.338c0.656,0.349,2.999,1.271,3.026,1.741
			C461.489,19.516,459.135,20.63,458.657,20.885z M457.063,15.959C457.342,15.573,458.321,16.096,457.063,15.959L457.063,15.959z
			 M458.251,16.846C459.047,16.539,457.676,17.27,458.251,16.846L458.251,16.846z M458.564,17.44
			C458.848,17.055,459.827,17.577,458.564,17.44L458.564,17.44z M461.182,17.44C461.229,17.061,462.169,17.561,461.182,17.44
			L461.182,17.44z M464.747,17.782c-0.027,0.154-0.24,0.211-0.499,0.243c-0.223,0.1-0.4,0.162-0.498,0.162
			c-0.836,0.002-3.8-2.094-4.599-2.484c-0.755-0.369-4.575-2.051-4.578-2.458c-0.004-0.492,3.802-2.141,4.622-2.414
			c0.817-0.273,4.413-2.773,5.013-2.385c0.854,0.552,2.06,1.14,3.315,1.739c0.254-0.036,0.518-0.066,0.794-0.09
			c-0.107,0.108-0.268,0.187-0.452,0.253c0.366,0.175,0.733,0.35,1.096,0.524c0.153-0.056,0.312-0.099,0.468-0.106
			c-0.068,0.079-0.147,0.152-0.227,0.225c1.598,0.778,3.058,1.558,3.735,2.286c-0.206,0.11-0.417,0.228-0.631,0.35
			c0.235-0.006,0.528,0.229-0.187,0.141c0.003-0.022,0.018-0.032,0.026-0.05c-0.051,0.029-0.102,0.059-0.153,0.088
			c0.104,0.003,0.205,0.006,0.291,0c-0.126,0.135-0.376,0.203-0.696,0.234c-1.036,0.604-2.123,1.249-3.156,1.688
			C467.832,15.983,465.96,17.152,464.747,17.782z M469.983,15.667C470.029,15.288,470.971,15.788,469.983,15.667L469.983,15.667z
			 M469.031,16.554C469.079,16.174,470.019,16.675,469.031,16.554L469.031,16.554z M469.031,17.313
			c-0.646,0.424-2.084-0.021-3.331,0.253C466.298,16.986,467.743,17.29,469.031,17.313z M474.972,24.14
			C474.688,24.14,474.812,24.14,474.972,24.14L474.972,24.14z M476.566,24.821C476.846,24.437,477.829,24.959,476.566,24.821
			L476.566,24.821z M480.006,21.352c-0.941,0.502-3.845,2.785-5.006,2.788c-0.144,0-1.571-0.739-2.729-1.352
			c-0.07,0.005-0.137,0.011-0.223,0.007c0.042-0.019,0.07-0.046,0.094-0.075c-0.637-0.337-1.173-0.625-1.33-0.709
			c-1.651-0.879-2.845-1.967-4.868-2.544c-0.64-0.183,3.37-2.101,3.945-2.406c1.612-0.858,3.325-1.666,4.658-2.613
			c0.625-0.444,3.991,1.771,4.542,2.063c0.817,0.435,5.097,2.265,5.101,2.724C484.192,19.696,480.726,20.969,480.006,21.352z
			 M486.078,18.744c-0.742-0.204,0.492-0.401,0.475-0.633C487.3,18.315,486.065,18.512,486.078,18.744z M486.687,18.066
			c-0.289,0.286-2.884-1.179-4.041-1.832c-0.201,0.051-0.45,0.078-0.771,0.065c-0.15-0.243-0.032-0.344,0.163-0.403
			c-1.563-0.838-3.05-1.719-4.781-2.41c-0.834-0.332,3.326-2.124,3.877-2.418c0.818-0.435,4.255-2.712,5.116-2.714
			c0.868-0.002,3.259,1.843,3.979,2.227c0.518,0.276,2.046,0.866,3.319,1.445c0.123-0.001,0.252,0.002,0.384,0.006
			c0.047,0.083,0.037,0.135,0.005,0.175c0.861,0.409,1.526,0.795,1.528,1.038c0.001,0.122-3.553,1.992-3.999,2.229
			C489.813,16.353,487.771,16.989,486.687,18.066z M490.838,21.91c-0.066-0.205,0.226-0.219,0.238-0.381
			C491.534,21.479,491.422,22.106,490.838,21.91z M506.249,19.319c-0.231,0.123-0.452,0.252-0.669,0.383
			c0.259,0.016,0.478,0.145,0.081,0.27c-0.148-0.019-0.211-0.081-0.338-0.11c-0.608,0.378-1.19,0.771-1.847,1.119
			c-0.984,0.523-1.907,1.077-2.892,1.6c-0.428,0.229-2.778,1.562-3.086,1.56c-0.419-0.002-1.681-0.979-2.25-1.348
			c-0.044,0.001-0.087,0.002-0.13,0.003c0.013-0.019,0.033-0.035,0.049-0.053c-0.028-0.018-0.065-0.042-0.088-0.054
			c-1.171-0.627-2.415-1.219-3.608-1.853c-0.364-0.194-2.098-0.921-2.875-1.336c-0.046,0.001-0.092,0.002-0.139,0.004
			c0.017-0.018,0.036-0.033,0.054-0.051c-0.184-0.102-0.298-0.181-0.296-0.221c0.027-0.623,3.228-1.416,3.92-1.979
			c0.562-0.456,1.407-0.92,2.248-1.318c-0.016-0.054-0.013-0.127,0.022-0.23c0.168,0.009,0.27,0.034,0.331,0.068
			c0.189-0.087,0.381-0.175,0.562-0.253c0.079-0.033,0.155-0.069,0.229-0.105c-0.19,0.025-0.399,0.042-0.646,0.037
			c0.629-0.338,0.783-0.932,2.138-0.887c-0.003,0.003-0.005,0.006-0.008,0.009c0.629-0.322,1.285-0.479,2.309-0.104
			c2.012,0.742,3.978,1.447,5.999,2.113c0.055,0.011,0.1,0.025,0.132,0.044c1.269,0.416,2.555,0.82,3.904,1.197
			C508.874,18.403,507.08,18.876,506.249,19.319z M506.894,15.894c-0.135-0.042-0.379-0.116-0.69-0.211
			c-0.119,0.096-0.309,0.153-0.617,0.148c0.066-0.104,0.188-0.182,0.378-0.222c-2.135-0.652-6.774-2.1-6.59-2.461
			c-0.006,0-0.008-0.003-0.002-0.011c3.64-1.363,7.565-2.651,11.502-3.733c1.536,0.452,2.132,1.545,3.622,2.064
			c1.735,0.605,2.386,1.626,1.618,2.711c-0.39,0.553-2.713,1.617-3.597,2.045C510.412,17.241,509.149,16.591,506.894,15.894z
			 M530.795,20.011C530.846,19.631,531.783,20.131,530.795,20.011L530.795,20.011z M525.949,19.597
			c-4.299,0-8.621-0.952-12.435-1.88c0.403-0.455,1.555-0.965,2.606-1.423c-0.25-0.059-0.515-0.106-0.786-0.082
			c0.367-0.228,0.87-0.242,1.364-0.171c0.347-0.153,0.666-0.299,0.91-0.43c0.589-0.313,1.204-0.889,1.974-1.075
			c-0.043-0.004-0.072-0.003-0.127-0.009c0.029-0.24,0.415-0.127,0.444-0.044c0.951-0.107,2.207,0.194,3.184,0.079
			c0.74-0.088,1.514-0.067,2.284-0.029c0.046-0.084,0.11-0.157,0.196-0.221c0.237,0,0.475,0,0.713,0
			c0.022,0.099,0.029,0.188,0.019,0.269c0.798,0.041,1.578,0.063,2.296-0.036c0.819-0.114,1.61,0.049,2.429,0.015
			c0.018-0.159,0.189-0.237,0.25-0.375c0.365,0.013,0.499,0.18,0.43,0.321c0.885-0.065,2.785-0.15,3.153-0.078
			C534.402,17.185,531.638,19.597,525.949,19.597z M517.076,14.021c0.318,0,0.636,0,0.952,0c0.094,0.472-0.189,0.742-0.952,0.759
			C517.543,14.545,517.151,14.316,517.076,14.021z M521.521,12.794c0.342-0.24,0.529-0.563,1.426-0.507
			C522.738,12.599,522.392,12.836,521.521,12.794z M524.372,12.413c-0.972-0.289,0.763-0.169,0.717-0.381
			C526.061,12.323,524.326,12.202,524.372,12.413z M524.927,13.895C524.973,13.515,525.915,14.016,524.927,13.895L524.927,13.895z
			 M529.3,12.008c-2.057-0.008-4.158-0.21-6.198-0.004c-1.832,0.186-3.885,0.009-4.928-0.881c-1.098-0.935-3.721-1.411-4.572-2.371
			c3.737-0.911,8.173-1.857,12.348-1.857c5.919,0,8.456,2.393,8.912,5.179C533.769,12.289,530.607,12.013,529.3,12.008z
			 M536.343,13.008C536.389,12.628,537.33,13.129,536.343,13.008L536.343,13.008z M537.456,12.666
			c0.154-0.17,0.509-0.236,0.95-0.253C538.648,12.794,537.877,12.637,537.456,12.666z M542.049,12.502
			c0.297-0.182,0.821-0.24,1.43-0.254C543.482,12.622,542.537,12.762,542.049,12.502z"/>
		<polygon points="452.502,24.14 452.502,24.14 452.501,24.14 		"/>
		<path d="M111.258,13.269c-0.762-0.007-1.525-0.015-2.288-0.019C109.74,13.271,110.505,13.278,111.258,13.269z"/>
		<path d="M845.753,13.352c1.917,0.052,3.853,0.06,4.098-0.132c-0.03,0.023-2.125,0.062-4.156,0.069
			C845.733,13.309,845.752,13.331,845.753,13.352z"/>
		<path d="M499.372,13.138c-0.003,0.003,0.004,0.008,0.002,0.011C499.416,13.152,499.672,13.025,499.372,13.138z"/>
		<path d="M450.628,13.354c0.002-0.003-0.004-0.008-0.002-0.012C450.584,13.34,450.329,13.466,450.628,13.354z"/>
	</g>
</g>
<g id="Layer_3" display="none">
	<g display="inline">
		<path fill="#070707" d="M294.15-1.182c0.084-0.02,0.157-0.029,0.221-0.029c0.75,0,0.225,1.275,0.713,1.536
			c0.309-1.277,2.122-1.051,2.613-2.141c-0.068-0.014-0.152-0.021-0.251-0.021C296.625-1.836,294.857-1.39,294.15-1.182z
			 M296.333-1.093c-0.446,0.191-0.935,0.4-1.241,0.814c-0.004-0.053-0.007-0.106-0.01-0.154c-0.011-0.207-0.027-0.489-0.141-0.705
			c0.721-0.184,1.659-0.391,2.271-0.438C296.983-1.371,296.665-1.234,296.333-1.093z"/>
		<path fill="#070707" d="M474.631,0.277c-0.059,0.033-0.271,0.157-0.415,0.241c0.016-0.009,0.026-0.016,0.046-0.026
			C474.485,0.362,474.593,0.3,474.631,0.277z"/>
		<path fill="#070707" d="M481.797-5.384c-0.142-0.012-0.279-0.035-0.237-0.237c-0.039-0.011-0.077-0.016-0.114-0.016
			c-0.528,0-0.859,1.042-0.361,1.204C480.876-5.195,481.701-4.925,481.797-5.384z"/>
		<path fill="#070707" d="M489.171-8.477c0.092,0.012,0.178,0.018,0.258,0.018c0.396,0,0.647-0.145,0.692-0.492
			c-0.089-0.011-0.173-0.017-0.251-0.017C489.472-8.967,489.22-8.824,489.171-8.477z"/>
		<path fill="#070707" d="M472.599-22.104c-0.373,0.023-0.825-0.033-0.715,0.476c0.013,0,0.025,0,0.037,0
			C472.304-21.628,472.498-21.821,472.599-22.104z"/>
		<path fill="#070707" d="M456.35-20.368c-0.158,0-0.32,0-0.479,0c0,0.158,0,0.316,0,0.478c0.158,0,0.32,0,0.479,0
			C456.35-20.052,456.35-20.21,456.35-20.368z"/>
		<path fill="#070707" d="M486.795-12.044c-0.375,0.024-0.825-0.031-0.717,0.475c0.015,0.001,0.028,0.001,0.043,0.001
			C486.504-11.568,486.694-11.761,486.795-12.044z"/>
		<path fill="#070707" d="M481.875-15.921c-0.012,0-0.023,0-0.035,0c-0.179,0-0.368-0.01-0.547-0.01
			c-0.443,0-0.826,0.061-0.846,0.485c0.16,0.162,0.349,0.23,0.536,0.23C481.388-15.215,481.785-15.534,481.875-15.921z
			 M481.293-15.681c0.055,0,0.11,0.001,0.166,0.002c-0.127,0.128-0.303,0.213-0.476,0.213c-0.095,0-0.184-0.026-0.263-0.078
			C480.764-15.619,480.893-15.681,481.293-15.681z"/>
		<path fill="#070707" d="M453.257-21.318c-0.015,0-0.028-0.001-0.042-0.001c-0.38,0-0.573,0.192-0.669,0.476
			C452.915-20.866,453.365-20.813,453.257-21.318z"/>
		<path fill="#070707" d="M473.948-21.559c-0.805,0.069-1.459,0.286-1.425,1.19C473.344-20.416,474.069-20.566,473.948-21.559z
			 M473.709-21.28c-0.01,0.146-0.05,0.261-0.123,0.348c-0.153,0.184-0.458,0.257-0.798,0.293
			C472.854-21.009,473.127-21.196,473.709-21.28z"/>
		<path fill="#070707" d="M301.146,0.077c-0.438,0-0.809,0.068-0.827,0.485c0.057-0.003,0.115-0.005,0.175-0.005
			c0.213,0,0.443,0.017,0.657,0.017c0.439,0,0.81-0.068,0.831-0.486c-0.059,0.004-0.12,0.005-0.182,0.005
			C301.588,0.093,301.359,0.077,301.146,0.077z"/>
		<path fill="#070707" d="M475.58-22.727c0.08,0,0.17-0.006,0.27-0.02c0-0.396,0-0.792,0-1.19c-0.234,0-0.476,0-0.709,0
			C474.898-23.338,474.787-22.727,475.58-22.727z M475.313-23.687h0.287v0.71c-0.007,0-0.013,0-0.02,0
			c-0.1,0-0.276-0.013-0.333-0.098C475.208-23.132,475.171-23.285,475.313-23.687z"/>
		<path fill="#070707" d="M470.927-18.161c0.656,0,0.932-0.978,0.404-1.255c-0.213,0.421-0.963,0.303-0.713,1.188
			C470.728-18.181,470.832-18.161,470.927-18.161z M471.102-18.89c0.075-0.043,0.159-0.092,0.237-0.155
			c0.027,0.081,0.023,0.175,0.002,0.258c-0.046,0.188-0.192,0.377-0.415,0.377c-0.032,0-0.064-0.003-0.098-0.011
			C470.775-18.701,470.882-18.762,471.102-18.89z"/>
		<path fill="#070707" d="M269.633-0.865c0.129,0.009,0.255,0.016,0.375,0.016c0.516,0,0.905-0.125,0.817-0.729
			C270.271-1.499,269.8-1.334,269.633-0.865z M270.565-1.276c-0.008,0.021-0.019,0.039-0.032,0.054
			c-0.06,0.069-0.197,0.109-0.408,0.12C270.237-1.176,270.381-1.232,270.565-1.276z"/>
		<path fill="#070707" d="M367.629,1.513c0.158,0,0.316,0,0.475,0c0-0.158,0-0.314,0-0.475c-0.158,0-0.316,0-0.475,0
			C367.629,1.198,367.629,1.354,367.629,1.513z"/>
		<path fill="#070707" d="M519.991-11.553c0.276,0,0.478-0.075,0.338-0.491c-0.09-0.011-0.174-0.017-0.252-0.017
			c-0.397,0-0.65,0.143-0.699,0.491c0.04-0.005,0.082-0.007,0.127-0.007C519.659-11.576,519.837-11.553,519.991-11.553z"/>
		<path fill="#070707" d="M361.469-1.196c0.559,0,1.258-0.369,1.404-0.856c-0.821,0.048-1.268,0.478-1.905,0.713
			C361.099-1.241,361.275-1.196,361.469-1.196z"/>
		<path fill="#070707" d="M374.052,1.277c1.067-0.439,1.288-1.724,2.143-2.378c-0.015,0-0.029,0-0.044,0
			C374.248-1.101,374.482,0.221,374.052,1.277z M375.119-0.164c-0.195,0.309-0.384,0.607-0.622,0.844
			c0.007-0.029,0.015-0.06,0.022-0.089c0.169-0.679,0.301-1.205,1.023-1.38C375.387-0.589,375.251-0.374,375.119-0.164z"/>
		<path fill="#070707" d="M410.92-0.865c-0.212,0.368,0.127,0.53,0.458,0.53c0.265,0,0.525-0.104,0.492-0.29
			c-0.271-0.063-0.408-0.263-0.744-0.263C411.065-0.888,410.997-0.881,410.92-0.865z"/>
		<path fill="#070707" d="M405.98-1.472c0.055-0.033,0.566-0.329,0.566-0.329c0,0-0.101,0.058-0.386,0.223
			C406.048-1.513,405.993-1.481,405.98-1.472z"/>
		<path fill="#070707" d="M394.743-1.34c0.164,0.164,0.429,0.24,0.702,0.24c0.415,0,0.847-0.175,0.965-0.479
			c-0.08-0.082-0.254-0.118-0.464-0.118C395.536-1.696,394.989-1.557,394.743-1.34z M395.445-1.35c-0.037,0-0.073-0.002-0.108-0.005
			c0.185-0.054,0.395-0.089,0.584-0.092C395.789-1.387,395.62-1.35,395.445-1.35z"/>
		<path fill="#070707" d="M385.143-1.584c-0.044,0-0.094,0.002-0.149,0.006c0.042,0.356-0.087,0.878,0.238,0.953
			C385.125-1.056,385.872-1.584,385.143-1.584z"/>
		<path fill="#070707" d="M393.793,0.563c0.375-0.021,0.825,0.033,0.713-0.475c-0.013,0-0.025-0.001-0.037-0.001
			C394.084,0.087,393.893,0.279,393.793,0.563z"/>
		<path fill="#070707" d="M388.037-2.112c-0.593,0-0.979,0.77-0.43,1.012c0.096-0.458,0.925-0.189,0.717-0.952
			C388.226-2.095,388.129-2.112,388.037-2.112z M387.885-1.653c-0.086,0.034-0.194,0.077-0.29,0.146
			c0.001-0.006,0.002-0.012,0.003-0.018c0.035-0.163,0.219-0.338,0.439-0.338c0.024,0,0.049,0.002,0.074,0.006
			C388.121-1.746,388.062-1.723,387.885-1.653z"/>
		<path fill="#070707" d="M377.81-2.368c-0.037,0-0.076,0.002-0.116,0.005c-0.115,0.504,0.022,0.755,0.409,0.755
			c0.089,0,0.191-0.014,0.306-0.04C378.449-2.127,378.25-2.368,377.81-2.368z"/>
		<path fill="#070707" d="M304.998-0.142c0.395,0,0.891-0.321,0.791-0.724c-0.4,0-0.796,0-1.188,0
			C304.438-0.343,304.686-0.142,304.998-0.142z M305.49-0.615c-0.104,0.128-0.314,0.224-0.493,0.224
			c-0.038,0-0.132-0.005-0.169-0.057c-0.025-0.033-0.034-0.092-0.026-0.167H305.49z"/>
		<path fill="#070707" d="M492.977-17.038c-0.09-0.011-0.175-0.017-0.254-0.017c-0.396,0-0.647,0.145-0.696,0.492
			c0.091,0.011,0.176,0.017,0.256,0.017C492.679-16.545,492.931-16.689,492.977-17.038z"/>
		<path fill="#070707" d="M493.214-4.669c0.376-0.024,0.825,0.031,0.718-0.475c-0.015-0.001-0.028-0.001-0.043-0.001
			C493.505-5.145,493.314-4.951,493.214-4.669z"/>
		<path fill="#070707" d="M516.148-11.122c0.253,0,0.54-0.145,0.137-0.447C515.664-11.276,515.888-11.122,516.148-11.122z"/>
		<path fill="#070707" d="M499.4-2.768c0,0.158,0,0.318,0,0.478c0.237,0,0.475,0,0.712,0c0.024-0.35-0.147-0.5-0.472-0.5
			C499.568-2.79,499.488-2.782,499.4-2.768z"/>
		<path fill="#070707" d="M319.818,1.277c0.059-0.34,0.396-0.402,0.479-0.715c-0.237,0-0.479,0-0.713,0
			C319.623,0.842,319.539,1.238,319.818,1.277z"/>
		<path fill="#070707" d="M512.735-9.269c0.255,0,0.488-0.021,0.535-0.23c-0.068,0.008-0.142,0.01-0.218,0.01
			c-0.063,0-0.127-0.001-0.19-0.001c-0.258,0-0.495,0.021-0.542,0.23c0.066-0.008,0.14-0.01,0.214-0.01
			C512.601-9.27,512.669-9.269,512.735-9.269z"/>
		<path fill="#070707" d="M342.419,1.277c0.011,0,0.021,0,0.031,0c0.387,0,0.58-0.193,0.682-0.478c-0.012,0-0.023,0-0.035,0
			C342.711,0.8,342.516,0.992,342.419,1.277z"/>
		<path fill="#070707" d="M511.045-10.63c-0.413,0-0.871,0.203-0.867,0.655c0.419-0.217,1.188-0.081,1.428-0.476
			C511.489-10.567,511.274-10.63,511.045-10.63z"/>
		<path fill="#070707" d="M508.99-13.065c-0.091-0.011-0.177-0.017-0.256-0.017c-0.396,0-0.648,0.144-0.697,0.492
			c0.271,0.055,0.485,0.142,0.641,0.142C508.87-12.448,508.974-12.58,508.99-13.065z"/>
		<path fill="#070707" d="M522.946-2.053c-0.069-0.008-0.134-0.012-0.195-0.012c-0.73,0-0.915,0.549-1.23,0.964
			c0.067,0.006,0.132,0.009,0.193,0.009C522.444-1.092,522.755-1.513,522.946-2.053z M522.009-1.372
			c0.161-0.229,0.305-0.377,0.549-0.425C522.419-1.563,522.246-1.428,522.009-1.372z"/>
		<path fill="#070707" d="M525.089-2.53c0.046,0.396-1.688,0.171-0.717,0.715C524.326-2.211,526.061-1.984,525.089-2.53z"/>
		<path fill="#070707" d="M518.028,1.205c-0.316,0-0.634,0-0.952,0c0.075,0.556,0.467,0.983,0,1.427
			C517.839,2.601,518.122,2.093,518.028,1.205z M517.795,1.455c0.009,0.326-0.052,0.565-0.18,0.714
			c-0.021,0.023-0.043,0.046-0.068,0.065c0.021-0.229-0.052-0.451-0.115-0.647c-0.014-0.043-0.028-0.088-0.041-0.132H517.795z"/>
		<path fill="#070707" d="M468.048,7.753c0.402,0,0.746-0.072,0.982-0.364c-0.67-0.021-1.383-0.188-1.997-0.188
			c-0.565,0-1.047,0.141-1.333,0.662c0.34-0.141,0.693-0.181,1.042-0.181C467.203,7.683,467.654,7.753,468.048,7.753z"/>
		<path fill="#070707" d="M537.456-1.34c0.041-0.005,0.085-0.007,0.131-0.007c0.152,0,0.327,0.021,0.479,0.021
			c0.277,0,0.481-0.073,0.34-0.49C537.965-1.784,537.61-1.659,537.456-1.34z"/>
		<path fill="#070707" d="M474.972,20.213c-0.142,0-0.182,0.001-0.167,0.001S474.892,20.213,474.972,20.213z"/>
		<path fill="#070707" d="M542.67-1.399c0.413,0,0.812-0.271,0.809-0.727c-0.608,0.025-1.133,0.136-1.43,0.478
			C542.22-1.478,542.447-1.399,542.67-1.399z M543.105-1.815c-0.104,0.104-0.267,0.166-0.436,0.166
			c-0.064,0-0.126-0.008-0.184-0.024c0.163-0.085,0.377-0.143,0.648-0.175C543.126-1.837,543.116-1.826,543.105-1.815z"/>
		<path fill="#070707" d="M486.553,8.889c0.018,0.436-1.217,0.805-0.475,1.188C486.065,9.642,487.3,9.272,486.553,8.889z"/>
		<path fill="#070707" d="M727.813,0.017c0.158,0,0.32,0,0.479,0c0-0.16,0-0.318,0-0.475c-0.158,0-0.32,0-0.479,0
			C727.813-0.302,727.813-0.144,727.813,0.017z"/>
		<path fill="#070707" d="M698.317,0.252c0.04-0.005,0.083-0.007,0.128-0.007c0.155,0,0.333,0.023,0.487,0.023
			c0.276,0,0.478-0.075,0.339-0.491C698.83-0.189,698.476-0.064,698.317,0.252z"/>
		<path fill="#070707" d="M678.32-0.184c-0.313,0-0.665,0.102-0.932,0.2c-0.008,0.532,0.186,0.677,0.468,0.677
			c0.333,0,0.789-0.201,1.186-0.201c0.005,0,0.009,0,0.014,0C679.035-0.025,678.709-0.184,678.32-0.184z M678.339,0.356
			c-0.182,0.045-0.354,0.087-0.482,0.087c-0.104,0-0.132-0.028-0.141-0.037c-0.019-0.019-0.055-0.072-0.07-0.214
			c0.259-0.082,0.489-0.126,0.675-0.126c0.255,0,0.38,0.075,0.438,0.2C678.614,0.289,678.476,0.323,678.339,0.356z"/>
		<path fill="#070707" d="M682.145,0.729c0.375-0.022,0.825,0.031,0.717-0.478c-0.01,0-0.02,0-0.029,0
			C682.443,0.252,682.246,0.444,682.145,0.729z"/>
		<path fill="#070707" d="M771.205-0.238c-0.277,0-0.479,0.074-0.339,0.49c0.093,0.012,0.18,0.018,0.261,0.018
			c0.393,0,0.641-0.145,0.689-0.492c-0.04,0.005-0.083,0.007-0.128,0.007C771.535-0.216,771.358-0.238,771.205-0.238z"/>
		<path fill="#070707" d="M575.274-1.578c-0.037,0.281-0.425,0.54,0,0.713C575.309-1.146,575.695-1.404,575.274-1.578z"/>
		<path fill="#070707" d="M579.318,1.513c0.058,0.004,0.113,0.006,0.167,0.006c0.5,0,0.84-0.16,1.021-0.48
			c-0.122-0.13-0.314-0.196-0.51-0.196C579.645,0.842,579.285,1.059,579.318,1.513z M579.617,1.264
			c0.01-0.015,0.021-0.028,0.032-0.041c0.076-0.082,0.206-0.131,0.347-0.131c0.043,0,0.085,0.005,0.124,0.014
			C579.997,1.196,579.83,1.249,579.617,1.264z"/>
		<path fill="#070707" d="M668.59,0.252c0.158,0,0.316,0,0.475,0c0-0.156,0-0.316,0-0.475c-0.158,0-0.316,0-0.475,0
			C668.59-0.064,668.59,0.096,668.59,0.252z"/>
		<path fill="#070707" d="M450.743-19.882c0.445,0,0.83-0.06,0.847-0.486c-0.009,0-0.019,0-0.028,0c-0.181,0-0.373-0.01-0.555-0.01
			c-0.443,0-0.826,0.062-0.843,0.488c0.016,0,0.032,0,0.049,0C450.387-19.891,450.569-19.882,450.743-19.882z"/>
		<path fill="#070707" d="M600.873-0.904c-0.093,0-0.195-0.009-0.31-0.031c0,0.316,0,0.634,0,0.952c0.475,0,0.95,0,1.425,0
			c0.242-0.314,0.234-0.877,0.476-1.19c-0.114-0.021-0.216-0.031-0.309-0.031C601.628-1.205,601.399-0.904,600.873-0.904z
			 M601.985-0.645c-0.041,0.152-0.08,0.298-0.136,0.411h-1.036v-0.422c0.021,0.001,0.04,0.001,0.06,0.001
			c0.312,0,0.535-0.089,0.733-0.168c0.155-0.062,0.293-0.117,0.469-0.13C602.04-0.851,602.013-0.747,601.985-0.645z"/>
		<path fill="#070707" d="M640.758-0.698c-0.055-0.45,0.271-0.525,0.242-0.95c-0.063-0.014-0.12-0.021-0.174-0.021
			C640.174-1.668,640.123-0.737,640.758-0.698z"/>
		<path fill="#070707" d="M593.902-0.698c-0.314,0.296-0.161,0.977,0.481,0.977c0.071,0,0.148-0.009,0.231-0.026
			C594.823-0.509,594.248-0.49,593.902-0.698z M594.384,0.028c-0.244,0-0.333-0.134-0.365-0.213c-0.024-0.063-0.03-0.13-0.019-0.19
			c0.022,0.009,0.045,0.018,0.068,0.027c0.255,0.101,0.369,0.146,0.34,0.376C594.399,0.028,594.392,0.028,594.384,0.028z"/>
		<path fill="#070707" d="M417.339-9.427c-0.034,0.004-0.066,0.006-0.097,0.006c-0.348,0-0.447-0.245-0.796-0.245
			c-0.019,0-0.038,0-0.058,0.002c-0.075,0.321-0.338,0.454-0.237,0.952C416.756-8.741,417.373-8.758,417.339-9.427z M416.488-9.261
			c0.023-0.043,0.048-0.088,0.071-0.138c0.059,0.016,0.106,0.042,0.166,0.074c0.088,0.048,0.192,0.105,0.329,0.134
			c-0.013,0.023-0.025,0.037-0.032,0.045c-0.107,0.118-0.37,0.153-0.641,0.171C416.392-9.082,416.434-9.16,416.488-9.261z"/>
		<path fill="#070707" d="M427.036-12.995c-0.694,0-1.162,0.229-1.368,0.716c0.604-0.106,1.092-0.336,1.425-0.715
			C427.074-12.994,427.055-12.995,427.036-12.995z"/>
		<path fill="#070707" d="M414.246-2.768c-0.158,0-0.313,0-0.475,0c0,0.158,0,0.318,0,0.478c0.162,0,0.316,0,0.475,0
			C414.246-2.449,414.246-2.609,414.246-2.768z"/>
		<path fill="#070707" d="M417.102,0.325c0.237,0,0.476,0,0.713,0c0-0.237,0-0.476,0-0.715c-0.039-0.003-0.076-0.005-0.112-0.005
			C417.264-0.395,417.063-0.155,417.102,0.325z"/>
		<path fill="#070707" d="M435.654-5.144c0.096,0.055,0.197,0.08,0.302,0.08c0.663,0,1.409-1.013,1.124-1.747
			C437.055-5.807,435.634-6.196,435.654-5.144z M436.47-5.775c0.081-0.036,0.168-0.075,0.255-0.122
			c-0.02,0.034-0.041,0.068-0.063,0.102c-0.198,0.288-0.481,0.482-0.706,0.482c-0.012,0-0.024-0.001-0.036-0.002
			C435.973-5.541,436.161-5.637,436.47-5.775z"/>
		<path fill="#070707" d="M414.246,6.746c0.163,0,0.317,0,0.476,0c0-0.156,0-0.316,0-0.475c-0.158,0-0.313,0-0.476,0
			C414.246,6.43,414.246,6.59,414.246,6.746z"/>
		<path fill="#070707" d="M455.257-18.26c-0.124,0-0.257,0.069-0.337,0.27c0.154,0.032,0.275,0.045,0.368,0.045
			C455.742-17.945,455.522-18.26,455.257-18.26z"/>
		<path fill="#070707" d="M445.646-14.897c-0.238,0-0.479,0-0.713,0c0,0.237,0,0.476,0,0.713c0.07,0.018,0.13,0.026,0.182,0.026
			C445.537-14.158,445.419-14.701,445.646-14.897z"/>
		<path fill="#070707" d="M441.812-11.329c-0.183,0-0.376-0.011-0.559-0.011c-0.443,0-0.823,0.063-0.843,0.485
			c0.613-0.024,1.135-0.133,1.43-0.475C441.831-11.329,441.821-11.329,441.812-11.329z"/>
		<path fill="#070707" d="M454.007,0.563c0.384,0,0.574-0.193,0.676-0.476c-0.013,0-0.025-0.001-0.037-0.001
			c-0.383,0-0.575,0.192-0.676,0.476C453.982,0.563,453.995,0.563,454.007,0.563z"/>
		<path fill="#070707" d="M452.529,20.212c-0.009,0.001-0.017,0.001-0.026,0.001l0,0C452.512,20.213,452.521,20.213,452.529,20.212z
			"/>
		<path fill="#070707" d="M459.201,16.5c-0.025,0.448-0.783,0.162-0.713,0.713c0.116,0.056,0.235,0.08,0.348,0.08
			C459.38,17.293,459.794,16.736,459.201,16.5z"/>
		<path fill="#070707" d="M452.529,20.212c0.135-0.002,0.185-0.004,0.184-0.004C452.713,20.208,452.624,20.21,452.529,20.212z"/>
		<path fill="#070707" d="M441.679,10.719c-0.208,0.421-0.755,0.694-0.24,1.19c0.056,0.008,0.109,0.012,0.157,0.012
			C442.378,11.921,442.165,10.917,441.679,10.719z M441.596,11.671c-0.014,0-0.027,0-0.042-0.001
			c-0.14-0.156-0.091-0.23,0.107-0.482c0.026-0.033,0.053-0.068,0.081-0.104c0.089,0.12,0.142,0.291,0.116,0.424
			C441.842,11.588,441.798,11.671,441.596,11.671z"/>
		<path fill="#070707" d="M413.945-1.133c-0.306,0-0.521,0.093-0.412,0.508c0.609-0.027,1.134-0.136,1.43-0.476
			c-0.066,0.02-0.144,0.026-0.229,0.026C414.49-1.074,414.189-1.133,413.945-1.133z"/>
		<path fill="#070707" d="M454.92,20.304c0.092,0.012,0.178,0.018,0.259,0.018c0.395,0,0.647-0.146,0.692-0.493
			c-0.09-0.011-0.175-0.017-0.254-0.017C455.221,19.812,454.969,19.956,454.92,20.304z"/>
		<path fill="#070707" d="M428.815,11.654c-0.396,0-0.649,0.144-0.696,0.492c0.041-0.005,0.085-0.007,0.131-0.007
			c0.153,0,0.328,0.021,0.48,0.021c0.277,0,0.48-0.073,0.341-0.49C428.98,11.66,428.895,11.654,428.815,11.654z"/>
		<path fill="#070707" d="M440.192,8.121c-0.266,0-0.528,0.104-0.494,0.293c0.044-0.002,0.087-0.003,0.129-0.003
			c0.354,0,0.634,0.074,0.821,0.238C440.86,8.283,440.523,8.121,440.192,8.121z"/>
		<path fill="#070707" d="M415.678,7.224c0,0-0.001,0-0.002,0c0.075,0.571-1.191,1.729,0,1.9
			C415.855,8.812,416.692,7.224,415.678,7.224z M415.547,8.84c-0.091-0.031-0.117-0.065-0.123-0.078
			c-0.06-0.115,0.112-0.456,0.227-0.683c0.093-0.185,0.184-0.364,0.235-0.536c0.001,0.002,0.001,0.003,0.002,0.005
			C416.003,7.746,415.814,8.33,415.547,8.84z"/>
	</g>
</g>
<g id="Layer_4" display="none">
	<path display="inline" opacity="0.5" fill="#FFFFFF" d="M470.911-6.386c0.501,0.501,3.33,3.987,4.308,3.987
		c0.098,0,0.177-0.035,0.233-0.11c1.333-1.779,3.045-3.299,4.659-4.909c0.574-0.574,4.584-4.178,3.944-4.521
		c-0.806-0.432-1.477-1.018-2.1-1.668c0.076-0.033,0.136-0.084,0.157-0.174c-0.071,0.008-0.149,0.01-0.229,0.01
		c-0.027,0-0.055,0-0.082,0c-0.88-0.945-1.675-2.008-2.615-2.947c-0.447-0.447-3.958-3.999-4.188-3.999
		c-1.163,0.005-4.063,4.295-5.005,5.237c-0.72,0.72-4.186,3.11-4.183,3.978C465.814-10.641,470.094-7.204,470.911-6.386z
		 M468.968-14.304c0.527-0.417,0.981-0.778,1.202-0.999c0.287-0.287,0.738-0.859,1.26-1.521c1.048-1.33,2.787-3.536,3.52-3.638
		c0.196,0.133,0.977,0.824,3.848,3.709l0.212,0.213c0.534,0.533,1.029,1.118,1.509,1.683c0.355,0.419,0.723,0.853,1.101,1.258
		l0.073,0.079h0.003l0.079,0.088c0.723,0.755,1.389,1.289,2.09,1.676c-0.116,0.41-1.269,1.648-3.432,3.687
		c-0.23,0.219-0.408,0.386-0.499,0.477c-0.369,0.368-0.743,0.732-1.117,1.095c-1.241,1.207-2.525,2.454-3.565,3.841l-0.033,0.011
		c-0.671,0-2.786-2.4-3.581-3.304c-0.254-0.289-0.449-0.509-0.55-0.61c-0.217-0.218-0.655-0.6-1.208-1.083
		c-1.142-0.997-3.816-3.332-3.818-3.857C466.059-11.996,468.024-13.555,468.968-14.304z"/>
	<path display="inline" opacity="0.5" fill="#FFFFFF" d="M488.108-10.366c0.323,0,0.698-0.266,0.591-0.682
		c0.542,0.931,2.299,2.258,2.855,2.813c1.93,1.934,4.159,4.872,6.519,6.27c3.502-2.491,7.304-4.819,11.127-6.82
		c-1.245-2.766-4.77-3.897-6.285-6.465c-0.416-0.704-4.972-5.467-5.416-5.467h-0.001c-0.359,0.007-2.717,2.562-3.174,3.019
		c-1.014,1.014-1.967,2.083-2.98,3.095c-0.479,0.479-2.833,2.573-2.816,3.096c0.004,0.123,0.061,0.265,0.143,0.415
		c-0.308,0-0.616,0-0.925,0C487.569-10.58,487.818-10.366,488.108-10.366z M491.079-14.004c0.194-0.184,0.351-0.332,0.441-0.422
		c0.511-0.51,1.007-1.035,1.502-1.56c0.488-0.516,0.976-1.033,1.479-1.536c0.09-0.089,0.252-0.259,0.458-0.475
		c0.595-0.622,2.138-2.236,2.539-2.457c0.698,0.383,4.833,4.706,5.202,5.33c0.733,1.243,1.922,2.16,3.071,3.048
		c1.252,0.966,2.438,1.881,3.1,3.181c-3.703,1.95-7.432,4.237-10.809,6.631c-1.605-0.995-3.192-2.744-4.598-4.293
		c-0.605-0.667-1.177-1.297-1.733-1.854c-0.167-0.167-0.431-0.394-0.735-0.657c-0.725-0.624-1.716-1.479-2.081-2.105l-0.059-0.1
		c-0.063-0.127-0.078-0.2-0.079-0.241C488.825-11.882,490.521-13.479,491.079-14.004z M488.459-10.842
		c-0.008,0.029-0.021,0.057-0.042,0.082c-0.065,0.085-0.192,0.144-0.309,0.144c-0.031,0-0.109-0.005-0.145-0.054
		c-0.025-0.035-0.032-0.096-0.023-0.172H488.459z"/>
	<path display="inline" opacity="0.5" fill="#FFFFFF" d="M491.466,3.937c0.446-0.446,4-3.959,3.999-4.188
		c-0.002-0.457-0.667-1.182-1.528-1.95c0.032-0.075,0.042-0.174-0.005-0.328c-0.12-0.007-0.238-0.012-0.352-0.012
		c-0.011,0-0.021,0-0.032,0c-1.273-1.088-2.802-2.196-3.319-2.716c-0.72-0.72-3.107-4.183-3.977-4.183c-0.001,0-0.002,0-0.002,0
		c-0.861,0.004-4.298,4.282-5.116,5.1c-0.551,0.551-4.711,3.917-3.877,4.542c1.731,1.298,3.219,2.953,4.781,4.527
		c-0.195,0.111-0.313,0.3-0.163,0.757c0.053,0.004,0.104,0.006,0.152,0.006c0.249,0,0.45-0.048,0.618-0.129
		c1.056,1.12,3.309,3.511,3.915,3.511c0.058,0,0.101-0.022,0.126-0.069C487.771,6.781,489.813,5.585,491.466,3.937z M486.506,8.613
		c-0.408-0.114-1.644-1.264-3.677-3.42l-0.125-0.134l-0.167,0.077c-0.136,0.065-0.29,0.1-0.47,0.104
		c-0.041-0.217,0.036-0.261,0.095-0.295l0.283-0.161l-0.229-0.231c-0.322-0.325-0.642-0.652-0.96-0.98
		c-1.209-1.243-2.46-2.529-3.85-3.571c-0.035-0.682,2.384-2.813,3.295-3.615c0.288-0.254,0.508-0.448,0.609-0.55
		c0.218-0.218,0.6-0.654,1.083-1.208c0.997-1.143,3.332-3.816,3.857-3.818c0.495,0,2.053,1.964,2.802,2.908
		c0.418,0.526,0.778,0.98,0.999,1.201c0.287,0.288,0.862,0.742,1.528,1.267c0.571,0.45,1.218,0.96,1.806,1.463l0.07,0.061
		l0.094-0.001c0.002,0,0.003,0,0.004,0c0.053,0,0.102,0.001,0.148,0.002l-0.066,0.154l0.135,0.12c1.154,1.03,1.406,1.508,1.44,1.716
		c-0.136,0.199-0.831,0.984-3.727,3.864l-0.195,0.195c-0.526,0.525-1.105,1.014-1.664,1.486
		C488.464,6.227,487.264,7.239,486.506,8.613z"/>
	<path display="inline" opacity="0.5" fill="#FFFFFF" d="M531.7,2.115c0.069-0.266-0.064-0.579-0.43-0.603
		c-0.061,0.259-0.232,0.404-0.25,0.704c-0.079,0.006-0.158,0.009-0.237,0.009c-0.518,0-1.026-0.114-1.54-0.114
		c-0.216,0-0.433,0.02-0.651,0.077c-0.378,0.099-0.773,0.134-1.179,0.134c-0.365,0-0.739-0.028-1.117-0.064
		c0.011-0.152,0.004-0.32-0.019-0.505c-0.238,0-0.476,0-0.713,0c-0.086,0.118-0.15,0.257-0.196,0.415
		c-0.372-0.035-0.744-0.062-1.112-0.062c-0.396,0-0.789,0.031-1.172,0.116c-0.161,0.036-0.33,0.05-0.505,0.05
		c-0.715,0-1.514-0.242-2.214-0.242c-0.161,0-0.316,0.013-0.465,0.044c-0.017-0.087-0.141-0.189-0.254-0.189
		c-0.092,0-0.178,0.068-0.19,0.271c0.055,0.013,0.084,0.011,0.127,0.017c-0.77,0.352-1.385,1.434-1.974,2.021
		c-0.244,0.245-0.563,0.518-0.91,0.806c-0.164-0.044-0.33-0.07-0.491-0.07c-0.322,0-0.628,0.106-0.873,0.392
		c0.05-0.009,0.1-0.013,0.148-0.013c0.22,0,0.434,0.077,0.638,0.167c-1.052,0.861-2.203,1.818-2.606,2.673
		c3.813,1.743,8.136,3.531,12.435,3.531c5.688,0,8.453-4.531,8.904-9.71c-0.1-0.037-0.313-0.052-0.588-0.052
		C533.528,1.917,532.345,2.025,531.7,2.115z M525.949,11.429c-4.202,0-8.429-1.732-12.087-3.397
		c0.478-0.775,1.545-1.648,2.417-2.363l0.315-0.258l-0.373-0.164c-0.046-0.021-0.094-0.041-0.144-0.061
		c0.042-0.005,0.085-0.008,0.13-0.008c0.129,0,0.272,0.021,0.427,0.063l0.125,0.034l0.1-0.083c0.329-0.273,0.669-0.563,0.927-0.821
		c0.206-0.205,0.407-0.459,0.62-0.727c0.404-0.509,0.821-1.034,1.28-1.244l0.057-0.025l0.209-0.056
		c0.123-0.025,0.258-0.038,0.413-0.038c0.328,0,0.682,0.057,1.057,0.117c0.383,0.062,0.778,0.125,1.157,0.125
		c0.206,0,0.389-0.018,0.56-0.056c0.333-0.074,0.698-0.11,1.117-0.11c0.392,0,0.788,0.032,1.089,0.061l0.206,0.02l0.058-0.199
		c0.025-0.088,0.057-0.165,0.094-0.234h0.346c0.004,0.085,0.004,0.164-0.001,0.237l-0.018,0.243l0.243,0.023
		c0.339,0.032,0.74,0.065,1.141,0.065c0.47,0,0.876-0.047,1.242-0.142c0.178-0.047,0.37-0.069,0.588-0.069
		c0.242,0,0.483,0.026,0.739,0.056c0.26,0.028,0.527,0.059,0.801,0.059c0.085,0,0.171-0.003,0.257-0.01l0.218-0.017l0.013-0.218
		c0.007-0.122,0.051-0.209,0.107-0.319c0.013-0.026,0.026-0.053,0.04-0.081c0.004,0.004,0.007,0.008,0.01,0.012
		c0.039,0.054,0.051,0.134,0.03,0.209l-0.095,0.362l0.371-0.051c0.678-0.095,1.838-0.196,2.531-0.196
		c0.141,0,0.243,0.004,0.317,0.01C534.003,7.976,530.788,11.429,525.949,11.429z"/>
	<path display="inline" opacity="0.5" fill="#FFFFFF" d="M479.088,5.882c-0.501-0.501-3.33-3.987-4.308-3.987
		c-0.098,0-0.177,0.035-0.233,0.11c-1.333,1.78-3.045,3.298-4.658,4.909c-0.575,0.574-4.584,4.178-3.945,4.521
		c2.023,1.085,3.217,3.129,4.868,4.779c0.157,0.157,0.693,0.698,1.33,1.332c-0.024,0.055-0.052,0.105-0.094,0.142
		c0.019,0.002,0.037,0.002,0.054,0.002c0.062,0,0.114-0.009,0.169-0.016c1.158,1.15,2.584,2.539,2.729,2.539
		c1.161-0.005,4.064-4.295,5.006-5.236c0.72-0.72,4.187-3.11,4.183-3.979C484.185,10.137,479.905,6.699,479.088,5.882z
		 M481.03,13.801c-0.526,0.418-0.98,0.778-1.201,0.999c-0.286,0.286-0.737,0.858-1.26,1.521c-1.049,1.33-2.788,3.536-3.521,3.639
		c-0.144-0.099-0.671-0.545-2.602-2.463l-0.086-0.086h0l-0.042-0.041c-0.517-0.515-0.968-0.968-1.203-1.204l-0.126-0.128
		c-0.529-0.529-1.021-1.11-1.495-1.672c-0.978-1.157-1.989-2.354-3.359-3.111c0.116-0.41,1.27-1.649,3.434-3.689
		c0.23-0.217,0.406-0.383,0.497-0.474c0.374-0.373,0.752-0.741,1.131-1.109c1.236-1.201,2.515-2.444,3.55-3.827
		c0.001,0,0.003,0,0.004,0c0.709,0,2.815,2.393,3.61,3.294c0.254,0.289,0.448,0.509,0.55,0.61c0.217,0.217,0.652,0.597,1.204,1.078
		c1.144,0.999,3.821,3.336,3.823,3.862C483.94,11.492,481.976,13.052,481.03,13.801z"/>
	<path display="inline" opacity="0.5" fill="#FFFFFF" d="M516.114,1.503c0.768-2.038,0.117-3.955-1.618-5.092
		c-1.49-0.977-2.086-3.03-3.622-3.879c-3.937,2.033-7.862,4.452-11.502,7.013c-0.006,0.015-0.004,0.021,0.002,0.021
		c-0.185,0.678,4.455,3.396,6.59,4.623c-0.19,0.075-0.312,0.221-0.378,0.416c0.013,0,0.025,0.001,0.038,0.001
		c0.286,0,0.465-0.107,0.579-0.28c0.312,0.179,0.556,0.318,0.69,0.396c1.416,0.822,2.44,1.609,3.528,1.609
		c0.645,0,1.312-0.276,2.096-0.988C513.401,4.541,515.725,2.541,516.114,1.503z M512.35,5.158c-0.694,0.631-1.307,0.924-1.928,0.924
		c-0.802,0-1.595-0.482-2.599-1.094c-0.255-0.155-0.521-0.318-0.804-0.481l-0.444-0.255l-0.248-0.143l-0.203-0.117l-0.001,0.001
		l-0.034-0.021c-5.374-3.087-6.304-4.039-6.448-4.312c3.663-2.568,7.539-4.932,11.227-6.844c0.688,0.422,1.177,1.111,1.693,1.839
		c0.514,0.723,1.043,1.469,1.799,1.964c1.671,1.095,2.239,2.887,1.521,4.795c-0.325,0.868-2.265,2.607-3.196,3.443L512.35,5.158z"/>
	<path display="inline" opacity="0.5" fill="#FFFFFF" d="M505.319,6.021c-2.021-1.252-3.987-2.577-5.999-3.971
		c-0.421-0.29-0.779-0.411-1.1-0.411c-0.458,0-0.839,0.249-1.209,0.606c0.003-0.006,0.005-0.012,0.008-0.018
		c-0.049-0.003-0.097-0.005-0.143-0.005c-1.224,0-1.389,1.059-1.995,1.671c0.028,0.001,0.056,0.002,0.083,0.002
		c0.211,0,0.395-0.03,0.563-0.072c-0.074,0.068-0.15,0.136-0.229,0.199c-0.181,0.146-0.372,0.312-0.562,0.474
		c-0.062-0.063-0.163-0.111-0.331-0.128c-0.035,0.195-0.038,0.333-0.022,0.433c-0.841,0.75-1.687,1.621-2.248,2.478
		c-0.692,1.057-3.893,2.547-3.92,3.716c-0.002,0.075,0.112,0.225,0.296,0.416c-0.018,0.032-0.037,0.062-0.054,0.094
		c0.047-0.002,0.093-0.004,0.139-0.007c0.777,0.78,2.511,2.145,2.875,2.51c1.193,1.19,2.438,2.302,3.608,3.479
		c0.022,0.023,0.06,0.069,0.088,0.102c-0.016,0.033-0.036,0.063-0.049,0.1c0.043-0.003,0.086-0.004,0.13-0.006
		c0.569,0.691,1.831,2.527,2.25,2.531c0,0,0,0,0.001,0c0.311,0,2.657-2.501,3.085-2.929c0.984-0.982,1.907-2.022,2.892-3.005
		c0.656-0.656,1.238-1.393,1.847-2.104c0.127,0.055,0.189,0.173,0.338,0.208c0.396-0.234,0.178-0.478-0.081-0.506
		c0.217-0.246,0.438-0.488,0.669-0.72c0.831-0.833,2.625-1.722,3.106-2.808c-1.35-0.708-2.636-1.467-3.904-2.249
		C505.419,6.067,505.374,6.039,505.319,6.021z M495.468,3.581c-0.011,0.003-0.021,0.005-0.032,0.008
		c0.04-0.061,0.078-0.12,0.116-0.18c0.278-0.435,0.523-0.818,1.054-0.913l-0.457,0.914L495.468,3.581z M507.263,10.031
		c-0.452,0.328-0.879,0.638-1.19,0.95c-0.235,0.235-0.459,0.481-0.68,0.731l-0.318,0.361l0.007,0.001
		c-0.137,0.159-0.271,0.32-0.406,0.48c-0.438,0.523-0.892,1.063-1.375,1.547c-0.494,0.493-0.973,1-1.451,1.508
		c-0.475,0.504-0.95,1.008-1.44,1.497c-0.077,0.077-0.216,0.221-0.395,0.405c-0.541,0.561-2.155,2.233-2.532,2.442
		c-0.271-0.12-1.107-1.221-1.515-1.757c-0.191-0.252-0.366-0.481-0.504-0.649l0.001-0.003l-0.045-0.051l-0.057-0.068h-0.003
		l-0.004-0.004l-0.032-0.038c-0.023-0.027-0.046-0.055-0.063-0.071c-0.61-0.614-1.247-1.216-1.863-1.799
		c-0.585-0.554-1.173-1.11-1.749-1.685c-0.155-0.156-0.52-0.461-0.979-0.847c-0.643-0.538-1.441-1.207-1.896-1.663l-0.04-0.04
		l-0.041-0.043c-0.198-0.207-0.23-0.277-0.233-0.284c0.02-0.517,1.168-1.34,2.091-2.001c0.764-0.547,1.484-1.063,1.795-1.537
		c0.483-0.736,1.225-1.553,2.205-2.428l0.103-0.091l-0.021-0.135c-0.001-0.006-0.002-0.013-0.003-0.02l0.095,0.096l0.177-0.151
		l0.096-0.082c0.156-0.134,0.313-0.268,0.461-0.388c0.083-0.066,0.163-0.138,0.241-0.209l0.725-0.667l-0.267,0.067l1.03-0.983
		c0.39-0.375,0.699-0.536,1.035-0.536c0.286,0,0.6,0.12,0.958,0.367c1.622,1.123,3.771,2.591,6.009,3.978l0.024,0.015l0.026,0.009
		l0.022,0.024l0.06,0.033c1.399,0.863,2.581,1.548,3.696,2.14C508.665,9.016,507.925,9.552,507.263,10.031z"/>
	<path display="inline" opacity="0.5" fill="#FFFFFF" d="M525.949-12.183c-4.175,0-8.61,1.778-12.348,3.49
		c0.852,1.803,3.475,2.697,4.572,4.454c0.803,1.286,2.204,1.778,3.642,1.778c0.431,0,0.864-0.044,1.286-0.124
		c0.685-0.13,1.377-0.174,2.071-0.174c1.375,0,2.761,0.171,4.127,0.181c0.942,0.006,2.846,0.278,4.246,0.278
		c0.543,0,1.01-0.041,1.315-0.154C534.405-7.688,531.868-12.183,525.949-12.183z M533.546-2.549c-0.771,0-1.712-0.085-2.541-0.16
		c-0.657-0.06-1.277-0.115-1.703-0.118c-0.655-0.005-1.329-0.048-1.981-0.09c-0.704-0.045-1.431-0.091-2.147-0.091
		c-0.794,0-1.487,0.059-2.118,0.178c-0.418,0.08-0.835,0.12-1.239,0.12c-1.543,0-2.761-0.59-3.43-1.661
		c-0.544-0.871-1.435-1.53-2.295-2.169c-0.866-0.643-1.688-1.252-2.145-2.035c3.689-1.679,7.973-3.357,12.003-3.357
		c6.688,0,8.294,5.73,8.645,9.298C534.343-2.578,533.992-2.549,533.546-2.549z"/>
	<path display="inline" opacity="0.5" fill="#FFFFFF" d="M804.481-0.832l-0.065-0.042l-0.11-0.02
		c-0.647,0.018-1.295,0.028-1.941,0.028c-0.271,0-0.541-0.002-0.812-0.006l-0.254-0.004v0.004l-0.222-0.004
		c-0.577-0.01-1.154-0.023-1.73-0.036c-0.914-0.021-1.827-0.043-2.741-0.05l-0.477-0.002c-1.284,0-2.584,0.034-3.841,0.066
		c-1.241,0.032-2.525,0.064-3.778,0.064l-0.554-0.002c-0.75-0.005-1.487-0.022-2.222-0.04c-0.7-0.017-1.398-0.033-2.102-0.039
		h-0.057c-0.446,0-0.948,0.034-1.479,0.07c-0.575,0.038-1.17,0.079-1.74,0.079c-0.711,0-1.266-0.065-1.694-0.199
		c-0.822-0.259-1.885-0.384-3.245-0.384c-1.059,0-2.143,0.072-3.191,0.142c-0.826,0.055-1.607,0.106-2.288,0.116h-0.02l0.01-0.006
		l-0.916,0.007c-0.568,0.005-1.137,0.007-1.705,0.007c-1.627,0-3.25-0.016-4.854-0.031l-1.888-0.018
		c-0.322-0.002-0.646-0.009-0.97-0.015l-0.293-0.006l-0.132-0.002l-0.005,0.007l-0.821-0.021c-1.654-0.041-3.341-0.108-4.972-0.174
		l-1.536-0.062l-0.188-0.007l-0.059,0.179c-0.023,0.069-0.075,0.123-0.159,0.204c-0.014,0.014-0.028,0.026-0.042,0.041
		c-0.003-0.077-0.006-0.152-0.015-0.223l-0.147,0.02l0.005-0.236c-1.645-0.062-3.593-0.124-5.585-0.124
		c-1.111,0-2.131,0.02-3.116,0.059c-0.34,0.014-0.68,0.023-1.02,0.032l-0.529,0.015l-0.108,0.003
		c-0.018,0.001-0.035,0.001-0.053,0.002l-0.276,0.009c-3,0.094-6.2,0.14-9.771,0.14c-1.775,0-3.552-0.011-5.328-0.029l-0.096-0.001
		l-0.072,0.063c-0.214,0.188-0.544,0.329-0.766,0.329c-0.172,0-0.216-0.07-0.234-0.192l-0.032-0.21l-0.212-0.003
		c-1.841-0.022-3.681-0.05-5.521-0.077c-3.942-0.058-8.018-0.118-12.018-0.124c-3.287-0.005-6.606-0.068-9.817-0.13
		c-2.682-0.051-5.455-0.104-8.198-0.123l-0.438-0.002c-1.326,0-2.682,0.047-3.993,0.092c-1.279,0.044-2.603,0.09-3.866,0.09
		l-0.338-0.001c-0.892-0.007-1.951-0.121-3.073-0.241c-1.298-0.14-2.64-0.283-3.894-0.283c-0.985,0-1.79,0.09-2.461,0.274
		c-0.503,0.139-1.053,0.206-1.681,0.206c-0.849,0-1.743-0.125-2.608-0.246c-0.889-0.124-1.808-0.253-2.705-0.253
		c-0.609,0-1.152,0.059-1.66,0.179c-0.802,0.189-1.749,0.281-2.894,0.281c-1.14,0-2.326-0.09-3.474-0.176
		c-1.043-0.079-2.028-0.153-2.945-0.161c-1.438-0.01-2.865-0.028-4.295-0.046c-1.444-0.019-2.892-0.037-4.354-0.047
		c-0.831-0.007-1.737-0.062-2.697-0.119c-1.104-0.066-2.246-0.136-3.36-0.136c-1.366,0-2.476,0.108-3.393,0.33
		c-0.768,0.186-1.756,0.276-3.021,0.276c-1.065,0-2.166-0.062-3.23-0.122c-0.648-0.036-1.271-0.071-1.841-0.089l-0.089-0.003
		l0.01-0.008l-0.692-0.011c-1.449-0.023-2.92-0.092-4.342-0.159c-1.571-0.074-3.197-0.15-4.78-0.163
		c-1.439-0.01-2.868-0.022-4.3-0.034c-1.449-0.013-2.9-0.025-4.364-0.035c-0.654-0.006-1.576-0.093-2.552-0.185
		c-1.277-0.121-2.726-0.258-4.013-0.258c-1.348,0-2.312,0.151-2.944,0.465c-0.227,0.112-0.588,0.169-1.073,0.169
		c-0.251,0-0.535-0.015-0.869-0.045l-0.186-0.017l-0.069,0.173c-0.046,0.114-0.124,0.221-0.382,0.221
		c-0.021,0-0.042-0.001-0.063-0.002c-0.006-0.071-0.006-0.14,0-0.209l0.02-0.237l-0.235-0.031l-0.224-0.028l-0.224-0.029
		l-0.283-0.038v0.286v0.058c-0.019,0.001-0.036,0.002-0.054,0.002c-0.163,0-0.184-0.049-0.192-0.161l-0.016-0.212l-0.212-0.019
		l-0.056-0.006l-0.09-0.008c-0.096-0.007-0.19-0.009-0.285-0.009c-0.497,0-1.001,0.076-1.488,0.15l-0.245,0.037l-0.213,0.031v0.018
		l-0.521,0.04c-0.138,0.011-0.274,0.017-0.412,0.017c-0.414,0-0.774-0.059-1.103-0.18c-0.883-0.326-2.004-0.478-3.528-0.478
		c-1.07,0-2.173,0.074-3.238,0.146c-0.945,0.063-1.837,0.124-2.604,0.124h-0.093c-1.785-0.015-3.611-0.1-5.545-0.19
		c-2.129-0.1-4.33-0.203-6.478-0.203c-2.344,0-4.336,0.126-6.09,0.385c-0.232,0.034-0.477,0.051-0.748,0.051
		c-0.457,0-0.928-0.049-1.383-0.097c-0.465-0.048-0.946-0.098-1.423-0.098c-0.284,0-0.541,0.017-0.788,0.053
		c-0.593,0.086-1.652,0.186-2.688,0.186c-0.67,0-1.212-0.044-1.565-0.129c-0.978-0.233-2.099-0.342-3.526-0.342
		c-0.548,0-1.156,0.016-1.913,0.05l-0.049,0.003l0.006-0.005l-0.817,0.042l-0.328,0.018c-0.951,0.05-1.85,0.098-2.695,0.098
		l-0.147-0.001c-0.738-0.006-1.463-0.021-2.186-0.037c-0.721-0.015-1.439-0.03-2.17-0.036c-0.373,0-0.708,0.055-1.032,0.106
		c-0.319,0.052-0.622,0.102-0.934,0.102c-0.071,0-0.144-0.003-0.216-0.009c-0.618-0.05-0.643-0.3-0.624-1.016
		c0.011-0.387,0.022-0.825-0.155-1.235c-0.274-0.635-0.519-1.253-0.755-1.85c-1.307-3.301-2.435-6.152-7.078-7.21
		c-1.079-0.247-2.22-0.372-3.392-0.372c-4.258,0-8.553,1.646-12.193,3.257c-0.508,0.226-0.863,0.331-1.119,0.331
		c-0.364,0-0.533-0.212-0.913-0.735c-0.229-0.314-0.514-0.706-0.944-1.138c-0.505-0.504-1.033-0.999-1.544-1.477
		c-0.722-0.676-1.468-1.375-2.159-2.111l-0.713-0.759c-1.096-1.17-2.229-2.38-3.392-3.528v-0.002l-0.104-0.102
		c-0.266-0.26-0.531-0.514-0.8-0.765l-0.104-0.098l-0.137,0.04c-0.033,0.01-0.071,0.018-0.114,0.024l0.24-0.069l-0.024-0.022
		l0.075,0.025l-0.969-0.838l-0.104-0.095c-0.045-0.042-0.089-0.083-0.134-0.121c-0.026-0.022-0.058-0.054-0.093-0.089l-0.206-0.208
		l0.009-0.004l-0.215-0.25c-0.266-0.309-0.595-0.692-0.938-1.037v-0.002l-0.071-0.07c-0.619-0.606-1.102-0.889-1.519-0.889
		c-0.269,0-0.503,0.122-0.679,0.352c-1.11,1.449-2.234,2.744-3.34,3.848c-1.036,1.036-2.085,2.075-3.131,3.111
		c-1.015,1.006-2.028,2.01-3.027,3.008c-0.218,0.218-0.797,0.797-1.001,0.797c-0.077,0-0.21-0.187-0.351-0.384
		c-0.193-0.271-0.459-0.643-0.897-1.036c-0.363-0.326-0.738-0.655-1.115-0.987c-0.894-0.785-1.817-1.597-2.623-2.403
		c-0.359-0.36-0.847-1.016-1.411-1.775c-1.448-1.95-3.25-4.376-4.775-4.38c-0.981,0-6.561,5.844-6.904,6.529
		c-0.528,1.05-1.837,2.131-2.793,2.921l-0.156,0.129c-0.213,0.176-0.399,0.341-0.566,0.488c-0.417,0.368-0.717,0.633-0.941,0.633
		c-0.247,0-0.59-0.341-1.148-1.142c-1.134-1.625-2.742-2.992-4.297-4.314c-0.89-0.757-1.731-1.472-2.493-2.233
		c-0.178-0.178-0.439-0.525-0.741-0.927c-0.973-1.294-1.771-2.284-2.458-2.284H452.5c-0.354,0.002-1.002,0.599-2.777,2.552
		c-0.252,0.277-0.453,0.499-0.558,0.604c-0.745,0.745-1.476,1.572-2.182,2.373l-0.161,0.182l-0.053,0.061l-0.008,0.08
		c-0.026,0.264-0.136,0.478-0.31,0.602l-0.117,0.083l0.013,0.143c0.034,0.364,0.209,0.44,0.35,0.44c0.035,0,0.063-0.015,0.094-0.024
		c-0.21,0.102-0.456,0.183-0.771,0.238c-0.036-0.063-0.074-0.123-0.12-0.179l-0.181-0.222l-0.195,0.209
		c-0.796,0.853-1.868,1.939-3.108,2.782c-0.689,0.469-1.204,1.088-1.701,1.688c-0.457,0.551-0.888,1.07-1.439,1.472
		c-0.315,0.229-0.542,0.531-0.762,0.823c-0.206,0.273-0.402,0.534-0.654,0.712c-0.318-0.157-0.642-0.34-0.982-0.532
		c-0.49-0.277-0.996-0.563-1.494-0.77c-2.861-1.182-7.119-2.591-11.155-2.591c-2.349,0-4.369,0.481-6.005,1.43
		c-2.851,1.662-4.784,5.271-5.172,9.654c-0.018,0.208-0.372,0.69-3.249,0.69c-1.188,0-2.484-0.08-3.525-0.145
		c-0.703-0.044-1.311-0.081-1.688-0.081c-5.038,0.034-10.002,0.062-14.957,0.088c-7.041,0.039-14.059,0.077-21.107,0.135
		l-5.576,0.038l-29.569,0.198h-0.067l-0.058,0.034c-0.063,0.037-0.109,0.056-0.14,0.065l-0.031-0.098l-0.184,0.001l-9.065,0.062
		l-0.102,0.001l-0.072,0.071c-0.072,0.071-0.168,0.122-0.289,0.152l-0.001-0.222l-0.25,0.002l-8.292,0.056l-8.121,0.055
		l-0.188,0.001l-0.051,0.182c-0.018,0.063-0.058,0.208-0.432,0.211c0.003-0.021,0.008-0.039,0.015-0.058l0.113-0.333l-0.351,0.003
		l-4.938,0.033l-4.444,0.03c-2.593,0.021-5.183,0.045-7.773,0.069l-4.419,0.04l-0.147,0.001l-0.07,0.13
		c-0.071,0.13-0.17,0.22-0.252,0.229l0.206-0.358l-0.437,0.004l-5.707,0.05c-5.035,0.045-10.069,0.089-15.101,0.137l-0.248,0.002
		v0.004l-0.228-0.001c-10.782,0.103-21.558,0.211-32.332,0.32l-0.094,0.001l-0.07,0.063c-0.233,0.208-0.404,0.359-0.739,0.36
		c0.008-0.023,0.016-0.042,0.024-0.06l0.164-0.357l-0.394,0.004c-20.039,0.203-41.585,0.417-63.377,0.608l-0.078,0.001l-0.022,0.016
		l0.006-0.016l-0.375,0.003l-4.334,0.039l-5.366,0.048l0-0.001l-0.417,0.004l-1.063,0.01l-1.614,0.015
		c-2.222,0.019-4.455,0.052-6.693,0.086c-3.242,0.049-6.593,0.1-9.875,0.1c-3.894,0-7.118-0.069-10.149-0.219
		c-1.565-0.076-3.165-0.115-4.753-0.115c-2.984,0-5.86,0.141-8.317,0.407c-0.339,0.037-0.7,0.046-1.05,0.055l-0.089,0.002l0.002,0.5
		l1.07,0.018c1.879,0.032,3.821,0.065,5.759,0.068c3.402,0.004,6.77,0.075,10.026,0.143c2.604,0.055,5.296,0.111,7.977,0.133
		c3.181,0.021,6.355,0.028,9.525,0.028c2.622,0,5.241-0.005,7.861-0.009c2.619-0.005,5.239-0.01,7.861-0.01
		c4.168,0,7.599,0.012,10.797,0.038c12.051,0.082,24.04,0.178,36.03,0.274c12,0.097,24.001,0.194,36.065,0.275
		c16.789,0.136,33.376,0.294,48.928,0.443l0.098,0.001l0.072-0.065c0.031-0.028,0.063-0.051,0.096-0.069
		c0.092,0.04,0.165,0.077,0.229,0.11l0.054,0.029h0.062l0.271,0.002l0.329,0.004l-0.081-0.318l-0.014-0.053
		c-0.018-0.063-0.04-0.146-0.065-0.255c0.325,0.051,0.551,0.213,0.702,0.499l0.069,0.133l0.149,0.001l4.526,0.044
		c18.597,0.179,37.202,0.357,55.806,0.518l0.104,0.001l0.074-0.073c0.174-0.171,0.428-0.28,0.712-0.377
		c-0.006,0.006-0.012,0.011-0.019,0.017l-0.515,0.435l0.674,0.006c8.315,0.071,16.63,0.136,24.943,0.195l0,0.001l0.454,0.003
		l1.654,0.013l1.004,0.008v0.001l0.209,0.001l1.865,0.015l1.927,0.015c1.357,0.011,2.747,0.035,4.142,0.059
		c1.52,0.026,3.047,0.053,4.547,0.063l0.171,0.001c0.681,0,1.365-0.032,2.027-0.063c0.657-0.03,1.336-0.062,2.005-0.062h0.14
		c0.273,0.002,0.566,0.018,0.866,0.036l0.066,0.005l0.06-0.029c0.005-0.002,0.01-0.005,0.015-0.007l0.001,0.039l0.223,0.016
		l0.539,0.041c0.67,0.052,1.362,0.105,2.012,0.111l0.156,0.001v0.001l0.018-0.001l0.026,0.001l0-0.001l0.234-0.008
		c0.379-0.013,0.657-0.036,0.902-0.077c0.696-0.115,1.785-0.239,2.754-0.239c0.653,0,1.152,0.056,1.484,0.165
		c0.195,0.064,0.402,0.096,0.633,0.096c0.185,0,0.368-0.021,0.55-0.04c0.162-0.019,0.324-0.037,0.487-0.037
		c0.118,0,0.224,0.011,0.324,0.031c0.112,1.184,0.419,2.979,0.802,4.16c0.669,2.064,1.773,3.749,3.282,5.009
		c1.414,1.18,2.593,1.404,3.843,1.642c0.736,0.14,1.497,0.285,2.381,0.629c0.51,0.199,1.115,0.3,1.799,0.3
		c2.38,0,5.399-1.211,7.604-2.096c0.46-0.185,0.888-0.355,1.272-0.502c0.394-0.149,0.771-0.317,1.134-0.479
		c0.846-0.376,1.578-0.701,2.256-0.701c0.528,0,0.974,0.201,1.405,0.631c0.447,0.447,0.908,0.879,1.37,1.311
		c0.776,0.727,1.579,1.479,2.295,2.297c0.686,0.782,1.589,1.529,2.545,2.321c1.473,1.219,2.996,2.479,3.693,3.889
		c0.345,0.697,0.969,1.261,1.572,1.806c0.546,0.492,1.11,1.002,1.473,1.61c0.139,0.233,0.353,0.356,0.618,0.356
		c0.808,0,2.005-1.237,2.957-2.314l0.129-0.145c0.031-0.034,0.064-0.068,0.097-0.102l0.088-0.091l0.139-0.148l0.165-0.167
		c0.554-0.563,1.159-1.115,1.8-1.7c0.423-0.386,0.856-0.782,1.277-1.184v0.009l0.276-0.275c0.035-0.034,0.07-0.068,0.104-0.103
		l0.499-0.491l-0.017,0.001c0.711-0.744,1.23-1.401,1.613-2.038c0.224-0.374,1.988-2.211,2.371-2.429
		c0.171,0.064,0.844,0.51,3.341,3.272l0.107,0.118c0.253,0.278,0.511,0.565,0.772,0.855c1.632,1.814,3.482,3.871,5.41,5.304
		c0.125,0.092,0.311,0.36,0.49,0.619c0.376,0.543,0.766,1.104,1.226,1.104c0.484,0,0.686-0.59,0.752-0.783
		c0.285-0.83,1.323-1.631,2.238-2.337c0.461-0.355,0.896-0.691,1.22-1.015c1.021-1.021,2.084-2.046,3.111-3.037
		c1.025-0.988,2.085-2.011,3.102-3.027l0.161-0.162c0.38-0.384,0.739-0.746,1.002-0.746c0.256,0,0.547,0.411,0.841,1.19
		c0.383,1.018,1.418,1.77,2.419,2.496c0.499,0.363,0.972,0.706,1.321,1.056c0.284,0.284,0.571,0.569,0.859,0.855
		c1.667,1.653,3.391,3.363,4.703,5.227c0.062,0.088,0.162,0.138,0.276,0.138c0.396,0,1.444-0.693,6.397-5.729
		c0.204-0.207,0.359-0.365,0.45-0.456c1.051-1.051,2.065-2.144,3.046-3.2c0.988-1.064,2.011-2.165,3.076-3.23l0.287-0.289
		c0.784-0.794,1.303-1.317,1.982-1.317c0.426,0,0.928,0.198,1.58,0.625c1.808,1.184,4.638,1.763,6.912,2.228l0.759,0.156
		c1.457,0.307,2.959,0.469,4.343,0.469c2.547,0,6.05-0.548,8.276-3.155c0.89-1.04,1.215-2.14,1.56-3.303
		c0.082-0.277,0.165-0.559,0.258-0.843c0.102-0.314,0.209-0.598,0.313-0.873c0.232-0.616,0.451-1.198,0.568-1.988
		c0.051-0.352,0.076-0.623,0.095-0.831c0.018-0.196,0.036-0.399,0.065-0.443c-0.002,0.002,0,0.002,0.004,0.002
		c0.014,0,0.063-0.008,0.176-0.008c0.076,0,0.166,0.003,0.272,0.007c0.159,0.005,0.354,0.011,0.594,0.011h0.115
		c6.218-0.042,12.362-0.073,18.51-0.104l6.409-0.033l0.04-0.497c-0.113-0.019-0.286-0.062-0.455-0.164
		c0.067,0.019,0.139,0.04,0.21,0.062c0.203,0.061,0.43,0.129,0.645,0.145l0.045,0.453l0.109-0.001
		c3.484-0.019,6.978-0.038,10.499-0.063c12.167-0.099,24.521-0.244,36.467-0.385c9.136-0.107,18.275-0.215,27.432-0.304h0.047
		l0.044-0.019c0.142-0.057,0.31-0.105,0.475-0.142l-0.174,0.156l0.658-0.006l2.734-0.027c1.47-0.015,2.939-0.03,4.411-0.042
		c6.768-0.046,13.553-0.09,20.332-0.134l0.248-0.002V1.225l0.271,0.014l16.243-0.106l30.347-0.198l0.109-0.001v0.001l0.313-0.002
		c8.104-0.054,16.201-0.11,24.3-0.166l1.161-0.008l0.234-0.002l0.014-0.234c0.003-0.059,0.021-0.08,0.143-0.16
		c0.086-0.058,0.21-0.141,0.288-0.282c0.001,0.05-0.026,0.163-0.043,0.228c-0.013,0.053-0.025,0.105-0.034,0.152l-0.053,0.296
		l0.301-0.002l2.673-0.019l5.362-0.037h0.057l0.051-0.025c0.071-0.034,0.16-0.051,0.279-0.051c0.098,0,0.195,0.011,0.291,0.02
		c0.105,0.01,0.207,0.02,0.302,0.02c0.069,0,0.237,0,0.395-0.085l0.054,0.112l0.159-0.001l1.466-0.01l1.353-0.01l0.132-0.001
		l0.073-0.109c0.125-0.184,0.268-0.308,0.557-0.31c-0.005,0.025-0.011,0.049-0.02,0.07l-0.141,0.347l0.374-0.003l0.82-0.006
		l1.554-0.012l0.08-0.001l0.064-0.047c0.036-0.025,0.071-0.046,0.107-0.061l-0.005,0.079l0.266,0.025l0.324-0.003l0.141-0.001
		l0.033-0.057c0.028,0.005,0.068,0.016,0.127,0.038l0.044,0.017h0.047l0.26-0.002l0.284-0.002l0.488-0.002l-0.001-0.002l0.508-0.004
		l0.771-0.006l0.548-0.004c10.075-0.073,20.145-0.148,30.189-0.229c2.42-0.017,4.906-0.065,7.311-0.112
		c2.2-0.043,4.477-0.088,6.665-0.106l0.174-0.001l0.06-0.164C804.985-0.506,804.67-0.71,804.481-0.832z M759.123-1.086l-0.029,0.04
		c-0.1,0.138-0.279,0.219-0.496,0.268L759.123-1.086z M625.639-1.557l0.371-0.298l-0.009,0.104c-0.013,0.146-0.092,0.203-0.424,0.27
		C625.599-1.523,625.624-1.544,625.639-1.557z M804.568-0.086c-4.57,0.039-9.332,0.188-13.976,0.219
		c-10.149,0.082-20.324,0.158-30.504,0.231c0.113-0.042,0.229-0.14,0.311-0.348c-0.068-0.005-0.13-0.008-0.187-0.008
		c-0.606,0-0.563,0.275-0.357,0.357c-0.514,0.004-1.026,0.008-1.54,0.012c0.078-0.143,0.092-0.409-0.016-0.409
		c-0.057,0-0.147,0.075-0.28,0.283c0.024,0.055,0.048,0.096,0.071,0.128c-0.182,0.001-0.363,0.003-0.544,0.004
		c-0.105-0.041-0.188-0.059-0.252-0.059c-0.071,0-0.118,0.023-0.141,0.062c-0.108,0.001-0.216,0.002-0.324,0.003
		c0.002-0.044,0.007-0.086,0.001-0.138c-0.022-0.001-0.044-0.002-0.064-0.002c-0.198,0-0.334,0.061-0.449,0.144
		c-0.792,0.005-1.582,0.012-2.374,0.018c0.041-0.102,0.058-0.228,0.033-0.395c-0.086-0.014-0.165-0.02-0.237-0.02
		c-0.396,0-0.611,0.184-0.771,0.42c-0.938,0.007-1.879,0.013-2.818,0.02c-0.044-0.092-0.108-0.164-0.217-0.185
		c-0.086,0.126-0.225,0.158-0.389,0.158c-0.18,0-0.389-0.039-0.593-0.039c-0.136,0-0.27,0.018-0.389,0.076
		c-2.677,0.02-5.356,0.037-8.035,0.056c0.049-0.276,0.269-0.709-0.344-0.726c-0.003,0.408-0.484,0.339-0.506,0.73
		c-8.485,0.059-16.97,0.117-25.461,0.174c0.02-0.09-0.113-0.217-0.237-0.217c-0.082,0-0.16,0.057-0.186,0.219
		c-15.54,0.103-31.071,0.203-46.59,0.305c0.021-0.21,0.039-0.423,0.197-0.496c-0.242,0-0.476,0-0.717,0c0,0.166,0,0.333,0,0.5
		c-6.779,0.044-13.564,0.088-20.332,0.134c-2.385,0.02-4.764,0.047-7.146,0.069c0.062-0.056,0.111-0.124,0.125-0.229
		c-0.006,0-0.012,0-0.018,0c-0.304,0-0.81,0.098-1.158,0.238c-21.336,0.207-42.585,0.516-63.897,0.688
		c-3.558,0.024-7.087,0.044-10.607,0.063c0.396-0.077,0.672-0.338,0.519-0.752c-0.088,0.229-0.262,0.303-0.471,0.303
		c-0.385,0-0.887-0.252-1.184-0.251c-0.131,0-0.222,0.048-0.246,0.186c0.226,0.301,0.565,0.462,0.897,0.517
		c-8.297,0.044-16.542,0.081-24.92,0.138c-0.039,0-0.076,0-0.113,0c-0.399,0-0.675-0.018-0.866-0.018
		c-0.584,0-0.395,0.164-0.587,1.493c-0.165,1.114-0.544,1.809-0.872,2.821c-0.472,1.452-0.703,2.814-1.77,4.061
		c-1.975,2.313-5.071,3.067-8.086,3.067c-1.5,0-2.98-0.188-4.291-0.463c-2.309-0.484-5.61-1.055-7.586-2.349
		c-0.713-0.467-1.253-0.666-1.717-0.666c-0.873,0-1.476,0.709-2.446,1.68c-2.131,2.131-4.021,4.329-6.122,6.431
		c-0.753,0.751-5.923,6.112-6.671,6.112c-0.033,0-0.058-0.01-0.072-0.031c-1.552-2.204-3.65-4.172-5.59-6.115
		c-1.057-1.057-3.139-2.019-3.684-3.463c-0.377-0.999-0.721-1.353-1.074-1.353c-0.411,0-0.836,0.479-1.34,0.981
		c-2.032,2.032-4.169,4.021-6.213,6.064c-0.967,0.968-3.062,2.116-3.517,3.447c-0.152,0.444-0.328,0.613-0.516,0.613
		c-0.532,0-1.153-1.366-1.567-1.674c-2.211-1.642-4.295-4.089-6.146-6.126c-0.486-0.535-3.115-3.48-3.652-3.48
		c-0.294,0.001-2.347,2.189-2.567,2.558c-0.502,0.837-1.205,1.632-1.98,2.403c0.02-0.417-0.114-0.56-0.268-0.56
		c-0.328,0-0.747,0.644,0.029,0.644c0.049,0,0.104-0.002,0.163-0.008c-1.134,1.119-2.408,2.188-3.46,3.255
		c-0.006-0.05-0.012-0.101-0.034-0.167c-0.316,0-0.633,0-0.95,0c0,0.158,0,0.317,0,0.476c0.042-0.006,0.088-0.008,0.136-0.008
		c0.151,0,0.323,0.021,0.474,0.021c0.022,0,0.045-0.001,0.067-0.002c-0.061,0.065-0.129,0.13-0.188,0.195
		c-0.383,0.425-2.023,2.377-2.9,2.377c-0.166,0-0.305-0.07-0.403-0.234c-0.79-1.326-2.408-2.132-3.035-3.399
		c-1.172-2.369-4.527-4.27-6.274-6.264c-1.144-1.307-2.464-2.405-3.676-3.619c-0.513-0.512-1.035-0.704-1.582-0.704
		c-1.041,0-2.169,0.696-3.479,1.196c-2.239,0.85-5.971,2.581-8.787,2.581c-0.623,0-1.201-0.085-1.708-0.282
		c-2.441-0.951-3.986-0.42-6.155-2.23c-1.547-1.291-2.592-3.004-3.205-4.894c-0.375-1.158-0.705-3.051-0.806-4.276
		c-0.189-0.066-0.374-0.088-0.558-0.088c-0.346,0-0.686,0.077-1.037,0.077c-0.182,0-0.366-0.021-0.555-0.083
		c-0.392-0.129-0.955-0.178-1.562-0.178c-0.998,0-2.116,0.13-2.795,0.243c-0.269,0.045-0.564,0.063-0.868,0.073
		c0.018-0.233,0.099-0.466,0.375-0.722c-0.465,0.098-0.719,0.383-0.799,0.729c-0.815-0.007-1.701-0.091-2.535-0.151
		c-0.001-0.036,0.014-0.056,0.004-0.1c-0.01,0-0.02-0.001-0.03-0.001c-0.139,0-0.246,0.031-0.34,0.077
		c-0.305-0.02-0.603-0.035-0.881-0.037c-0.047,0-0.094,0-0.142,0c-1.35,0-2.683,0.125-4.032,0.125c-0.057,0-0.113-0.001-0.169-0.001
		c-2.875-0.02-5.852-0.098-8.689-0.121c-1.264-0.009-2.528-0.021-3.792-0.029c-0.001-0.006,0.001-0.007,0-0.013
		c-0.002,0-0.004,0-0.006,0c-0.04,0-0.069,0.009-0.105,0.012c-0.919-0.007-1.838-0.016-2.757-0.021
		c0.114-0.178,0.097-0.468-0.386-0.538c-0.035,0.261-0.02,0.43,0.019,0.535c-8.341-0.061-16.684-0.125-25.028-0.196
		c0.255-0.216,0.423-0.52,0.671-0.743c-0.573,0.238-1.292,0.332-1.701,0.735c-20.114-0.173-40.228-0.368-60.332-0.562
		c-0.209-0.397-0.562-0.65-1.165-0.65c-0.022,0-0.045,0-0.068,0.001c0.058,0.328,0.116,0.522,0.146,0.639
		c-0.093-0.001-0.185-0.002-0.277-0.002c-0.091-0.048-0.198-0.101-0.345-0.161c-0.105,0.034-0.191,0.089-0.265,0.155
		c-16.322-0.157-32.637-0.312-48.929-0.443c-24.118-0.163-47.984-0.387-72.095-0.55c-3.609-0.029-7.206-0.038-10.799-0.038
		c-5.244,0-10.479,0.019-15.722,0.019c-3.169,0-6.343-0.007-9.523-0.028c-6.025-0.049-11.874-0.268-18.004-0.275
		c-2.298-0.004-4.563-0.049-6.826-0.086c0.391-0.01,0.782-0.017,1.16-0.058c2.611-0.283,5.48-0.406,8.29-0.406
		c1.621,0,3.222,0.041,4.741,0.115c3.349,0.165,6.745,0.219,10.161,0.219c5.514,0,11.079-0.141,16.57-0.186
		c0.893-0.007,1.784-0.017,2.677-0.024c-0.081,0.155-0.125,0.292,0.134,0.398c0.017-0.143,0.125-0.278,0.172-0.4
		c3.271-0.027,6.541-0.06,9.811-0.088c-0.083,0.205-0.031,0.442,0.244,0.488c-0.042-0.281,0.084-0.394,0.224-0.492
		c21.125-0.186,42.248-0.395,63.377-0.608c-0.042,0.093-0.077,0.208-0.093,0.386c0.107,0.019,0.204,0.027,0.293,0.027
		c0.443,0,0.673-0.215,0.908-0.424c10.774-0.109,21.55-0.218,32.332-0.32c0,0.001,0,0.003,0,0.004c0.163,0,0.321,0,0.476,0
		c0-0.003,0-0.006,0-0.009c6.932-0.066,13.87-0.125,20.807-0.187c-0.038,0.065-0.074,0.131-0.112,0.195
		c0.105,0.111,0.218,0.159,0.327,0.159c0.188,0,0.368-0.144,0.485-0.36c4.065-0.036,8.125-0.076,12.192-0.109
		c3.13-0.021,6.254-0.042,9.382-0.063c-0.034,0.101-0.046,0.222-0.028,0.374c0.083,0.009,0.162,0.014,0.237,0.014
		c0.36,0,0.608-0.112,0.687-0.394c5.472-0.037,10.944-0.073,16.414-0.11c0,0.075,0.008,0.158,0.028,0.253
		c0.299-0.015,0.528-0.101,0.687-0.258c3.021-0.021,6.044-0.041,9.065-0.062c0.02,0.063,0.074,0.106,0.165,0.106
		c0.078,0,0.182-0.031,0.315-0.109c11.704-0.078,23.411-0.157,35.145-0.236c12.008-0.098,23.927-0.141,36.02-0.223
		c0.014,0,0.027,0,0.042,0c0.917,0,3.21,0.226,5.213,0.226c1.838,0,3.434-0.19,3.498-0.918c0.315-3.557,1.808-7.571,5.049-9.461
		c1.728-1.002,3.759-1.396,5.879-1.396c3.817,0,7.922,1.276,11.06,2.573c0.858,0.354,1.751,0.961,2.588,1.355
		c0.654-0.373,0.931-1.17,1.547-1.618c1.199-0.874,1.862-2.291,3.133-3.154c1.15-0.781,2.173-1.771,3.15-2.818
		c0.07,0.086,0.122,0.191,0.176,0.296c0.754-0.115,1.446-0.294,1.663-0.953c-0.084-0.051-0.165-0.071-0.239-0.071
		c-0.281,0-0.491,0.285-0.61,0.285c-0.052,0-0.086-0.055-0.101-0.214c0.251-0.18,0.382-0.471,0.413-0.78
		c0.773-0.876,1.538-1.75,2.332-2.544c0.458-0.458,2.702-3.08,3.158-3.083c0.001,0,0.002,0,0.003,0c0.878,0,2.382,2.498,3.021,3.138
		c2.138,2.138,5.02,4.017,6.761,6.514c0.625,0.896,0.993,1.249,1.354,1.249c0.428,0,0.845-0.499,1.667-1.179
		c0.985-0.816,2.432-1.975,3.013-3.131c0.407-0.81,5.907-6.392,6.68-6.392h0c1.972,0.005,4.726,4.797,6.01,6.083
		c1.148,1.149,2.515,2.291,3.748,3.399c0.882,0.792,1.024,1.484,1.415,1.484c0.233,0,0.556-0.248,1.178-0.871
		c2.027-2.026,4.115-4.077,6.158-6.12c1.201-1.2,2.326-2.522,3.361-3.873c0.136-0.178,0.3-0.253,0.48-0.253
		c0.397,0,0.881,0.364,1.344,0.817c0.001,0.027-0.01,0.042-0.006,0.071c0.003,0,0.005,0,0.007,0c0.023,0,0.038-0.009,0.062-0.009
		c0.339,0.339,0.663,0.716,0.933,1.03c-0.211,0.099-0.315,0.305-0.288,0.644c0.237,0,0.475,0,0.712,0c0-0.056,0-0.112,0-0.168
		c0.04,0.041,0.077,0.077,0.108,0.104c0.079,0.067,0.156,0.145,0.235,0.214c-0.025-0.009-0.051-0.014-0.075-0.014
		c-0.093,0-0.178,0.067-0.19,0.269c0.111,0.025,0.197,0.036,0.264,0.036c0.159,0,0.199-0.063,0.178-0.132
		c0.137,0.121,0.271,0.247,0.407,0.37c-0.21,0.061-0.355,0.186-0.373,0.44c0.12,0.007,0.238,0.012,0.351,0.012
		c0.172,0,0.332-0.013,0.465-0.051c0.267,0.25,0.531,0.502,0.796,0.762c-0.006,0.022-0.02,0.036-0.022,0.06
		c0.014,0.002,0.026,0.002,0.038,0.002c0.006,0,0.013,0,0.019,0c0.009,0,0.019,0,0.028,0.001c1.427,1.406,2.814,2.913,4.138,4.32
		c1.189,1.265,2.496,2.382,3.709,3.593c1.103,1.105,1.222,1.946,2.034,1.946c0.291,0,0.673-0.108,1.221-0.353
		c3.785-1.675,7.941-3.236,12.092-3.236c1.115,0,2.229,0.113,3.336,0.366c5.321,1.213,5.842,4.713,7.659,8.915
		c0.428,0.991-0.402,2.289,0.988,2.401c0.079,0.007,0.158,0.01,0.236,0.01c0.664,0,1.282-0.208,1.943-0.208c0.007,0,0.014,0,0.021,0
		c1.463,0.012,2.881,0.062,4.355,0.073c0.05,0,0.1,0.001,0.149,0.001c0.951,0,1.983-0.061,3.036-0.115
		c-0.354,0.267-0.578,0.564-0.448,1.003c0.354-0.43,0.806-0.762,1.308-1.043c0.634-0.028,1.271-0.05,1.901-0.05
		c1.211,0,2.395,0.078,3.468,0.335c0.412,0.099,0.998,0.136,1.624,0.136c0.978,0,2.054-0.092,2.724-0.188
		c0.25-0.036,0.501-0.051,0.752-0.051c0.93,0,1.867,0.195,2.806,0.195c0.262,0,0.523-0.015,0.784-0.054
		c1.939-0.286,3.979-0.382,6.054-0.382c4.036,0,8.205,0.362,12.021,0.394c0.031,0,0.063,0,0.094,0c1.637,0,3.824-0.271,5.843-0.271
		c1.275,0,2.483,0.108,3.441,0.462c0.392,0.145,0.789,0.195,1.189,0.195c0.144,0,0.287-0.007,0.432-0.018
		c-0.198,0.14-0.322,0.354-0.44,0.576c0.396,0,0.796,0,1.192,0c0-0.222,0-0.445,0-0.667c0.569-0.084,1.137-0.185,1.696-0.185
		c0.089,0,0.179,0.002,0.268,0.008c0.042,0.003,0.097,0.01,0.142,0.014c0.02,0.26,0.165,0.393,0.441,0.393
		c0.088,0,0.189-0.014,0.304-0.04c0-0.09,0-0.18,0-0.27c0.145,0.02,0.294,0.037,0.447,0.058c-0.011,0.13-0.007,0.275,0.028,0.452
		c0.104,0.02,0.199,0.029,0.284,0.029c0.33,0,0.52-0.142,0.614-0.378c0.306,0.027,0.608,0.046,0.892,0.046
		c0.474,0,0.894-0.051,1.185-0.195c0.666-0.329,1.686-0.438,2.833-0.438c2.272,0,5.045,0.43,6.563,0.442
		c2.911,0.02,5.769,0.05,8.664,0.069c3.004,0.024,6.057,0.273,9.12,0.322c-0.14,0.112-0.215,0.291-0.181,0.577
		c0.407-0.09,0.908-0.092,0.948-0.556c1.49,0.047,3.347,0.211,5.079,0.211c1.123,0,2.193-0.069,3.079-0.283
		c1.009-0.244,2.151-0.323,3.334-0.323c2.066,0,4.253,0.24,6.056,0.255c2.91,0.02,5.758,0.073,8.648,0.093
		c1.929,0.016,4.25,0.337,6.421,0.337c1.037,0,2.041-0.073,2.951-0.288c0.525-0.124,1.061-0.172,1.603-0.172
		c1.756,0,3.576,0.499,5.313,0.499c0.594,0,1.179-0.059,1.747-0.215c0.706-0.194,1.524-0.266,2.395-0.266
		c2.328,0,5.03,0.509,6.965,0.524c0.113,0.001,0.227,0.001,0.34,0.001c2.555,0,5.233-0.182,7.859-0.182
		c0.146,0,0.291,0.001,0.437,0.002c6.028,0.041,11.982,0.244,18.018,0.253c5.832,0.008,11.684,0.131,17.535,0.201
		c0.045,0.295,0.24,0.405,0.481,0.405c0.308,0,0.689-0.181,0.931-0.392c1.777,0.019,3.555,0.029,5.331,0.029
		c3.373,0,6.744-0.04,10.107-0.15c0.019,0.019,0.067,0.068,0.068,0.068c0,0-0.014-0.014-0.052-0.053
		c-0.013-0.013-0.016-0.016-0.016-0.016c0.553-0.018,1.105-0.027,1.658-0.05c1.031-0.041,2.066-0.059,3.106-0.059
		c1.85,0,3.711,0.055,5.575,0.124c-0.031,0-0.064,0-0.096,0c0.037,0.279-0.042,0.676,0.233,0.716
		c0.057-0.332,0.373-0.405,0.468-0.693c2.17,0.084,4.344,0.182,6.512,0.235c-0.163,0.096-0.288,0.229-0.318,0.458
		c0.544-0.031,1.038-0.109,1.277-0.442c0.422,0.008,0.845,0.018,1.266,0.021c2.216,0.018,4.476,0.049,6.744,0.049
		c0.568,0,1.138-0.002,1.707-0.007c-0.381,0.229-0.183,0.349,0.047,0.349c0.223,0,0.474-0.113,0.248-0.349
		c0.045,0,0.091-0.001,0.136-0.001c0.103,0,0.204,0.001,0.307,0.001c0.063,0,0.126,0,0.189-0.001
		c1.543-0.021,3.583-0.258,5.477-0.258c1.161,0,2.269,0.089,3.171,0.372c0.512,0.16,1.125,0.211,1.769,0.211
		c1.106,0,2.301-0.149,3.22-0.149c0.018,0,0.036,0,0.055,0c1.442,0.012,2.859,0.069,4.323,0.079c0.186,0.002,0.37,0.002,0.556,0.002
		c2.52,0,5.066-0.131,7.619-0.131c0.158,0,0.316,0.001,0.475,0.002c1.49,0.012,2.979,0.061,4.47,0.086c0,0.134,0,0.27,0,0.402
		c0.158,0,0.317,0,0.476,0c0-0.131,0-0.265,0-0.398c0.271,0.004,0.544,0.006,0.815,0.006c0.648,0,1.298-0.011,1.948-0.028
		C804.516-0.511,804.689-0.422,804.568-0.086z"/>
	<path display="inline" opacity="0.5" fill="#FFFFFF" d="M418.652-2.676c0.189-0.04,0.376-0.056,0.562-0.056
		c0.52,0,1.03,0.116,1.546,0.116c0.215,0,0.431-0.021,0.649-0.077c0.38-0.1,0.777-0.135,1.185-0.135c1.012,0,2.09,0.218,3.143,0.218
		c0.398,0,0.792-0.031,1.178-0.117c0.159-0.035,0.326-0.05,0.498-0.05c0.72,0,1.526,0.251,2.231,0.251
		c0.263,0,0.512-0.035,0.737-0.131c0.786-0.334,1.411-1.443,2.008-2.041c0.766-0.766,2.208-1.787,3.198-2.788
		c0.217-0.014,0.248-0.105,0.185-0.188c0.31-0.334,0.564-0.663,0.713-0.978c-1.401-0.642-2.873-1.287-4.385-1.849
		c0.247-0.184,0.485-0.375,0.462-0.829c0,0-0.001,0-0.001,0c-0.348,0-0.719,0.32-0.924,0.665c-2.462-0.88-5.026-1.519-7.584-1.519
		c-5.685,0-8.458,4.531-8.904,9.71c0.1,0.037,0.313,0.052,0.588,0.052C416.643-2.421,418.228-2.585,418.652-2.676z M424.051-11.933
		c2.215,0,4.668,0.492,7.5,1.504l0.193,0.069l0.003-0.005l0.265,0.099c1.511,0.562,2.974,1.206,4.124,1.729
		c-0.128,0.207-0.31,0.436-0.547,0.692l-0.106,0.114l-0.006,0.001l-0.067,0.067c-0.525,0.53-1.173,1.063-1.801,1.577
		c-0.532,0.437-1.035,0.849-1.396,1.21c-0.206,0.206-0.407,0.46-0.62,0.729c-0.413,0.521-0.84,1.06-1.309,1.259
		c-0.175,0.075-0.384,0.111-0.64,0.111c-0.331,0-0.687-0.059-1.063-0.121c-0.386-0.063-0.785-0.13-1.167-0.13
		c-0.204,0-0.384,0.019-0.552,0.056c-0.335,0.075-0.703,0.111-1.124,0.111c-0.519,0-1.057-0.056-1.577-0.109
		c-0.518-0.054-1.052-0.108-1.566-0.108c-0.472,0-0.88,0.047-1.249,0.143c-0.178,0.047-0.369,0.069-0.586,0.069
		c-0.244,0-0.486-0.027-0.743-0.056c-0.26-0.03-0.529-0.061-0.803-0.061c-0.222,0-0.422,0.021-0.614,0.062
		c-0.384,0.082-1.953,0.249-2.865,0.249c-0.141,0-0.243-0.004-0.317-0.01C415.992-8.479,419.208-11.933,424.051-11.933z"/>
	<path display="inline" opacity="0.5" fill="#FFFFFF" d="M440.645-8.854c3.552,1.862,6.717,4.01,10.036,6.301
		c0.292,0.201,0.551,0.313,0.792,0.368c-0.014,0.021-0.026,0.036-0.042,0.06c0.068,0.155,0.132,0.214,0.187,0.214
		c0.077,0,0.135-0.116,0.158-0.236c0.001,0,0.002,0,0.003,0c1.108,0,1.761-1.444,2.923-2.378c1.092-0.876,2.393-2.082,3.163-3.256
		c0.692-1.056,3.893-2.548,3.92-3.716c0.009-0.375-2.782-2.538-3.256-3.012c-1.192-1.193-2.437-2.302-3.608-3.48
		c-0.269-0.271-0.943-1.232-1.531-1.937c0.228-0.105,0.244-0.55-0.606-0.678c0.004,0.022,0.011,0.038,0.016,0.059
		c-0.118-0.098-0.224-0.169-0.297-0.17h0c-0.31,0-2.658,2.5-3.086,2.928c-0.983,0.984-1.907,2.022-2.891,3.005
		c-0.978,0.979-1.788,2.138-2.771,3.121C442.919-10.829,441.127-9.941,440.645-8.854z M442.739-10.537
		c0.452-0.327,0.878-0.636,1.19-0.948c0.501-0.501,0.961-1.051,1.406-1.583c0.435-0.52,0.885-1.058,1.365-1.538
		c0.498-0.497,0.98-1.009,1.463-1.521c0.471-0.499,0.942-0.999,1.428-1.485c0.077-0.077,0.215-0.22,0.392-0.403
		c0.537-0.556,2.129-2.204,2.525-2.438c0.021,0.015,0.063,0.044,0.129,0.099l0.397,0.332l-0.059,0.027l0.22,0.229
		c0.278,0.333,0.575,0.724,0.839,1.071c0.086,0.114,0.168,0.221,0.244,0.32l-0.121-0.025l0.583,0.587c0,0,0,0,0,0l0.27,0.271
		l0-0.002c0.518,0.512,1.051,1.016,1.569,1.506c0.584,0.553,1.188,1.124,1.77,1.706c0.155,0.155,0.515,0.456,0.972,0.838
		c0.737,0.616,2.109,1.765,2.218,2.037c-0.02,0.518-1.168,1.341-2.091,2.002c-0.763,0.547-1.484,1.063-1.794,1.537
		c-0.848,1.291-2.313,2.558-3.11,3.197c-0.433,0.348-0.785,0.749-1.126,1.138c-0.559,0.636-1.042,1.186-1.641,1.186h-0.183
		l-0.068-0.031c-0.227-0.052-0.458-0.159-0.706-0.33c-3.355-2.316-6.42-4.387-9.838-6.198
		C441.336-9.521,442.077-10.057,442.739-10.537z"/>
	<path display="inline" opacity="0.5" fill="#FFFFFF" d="M458.446,7.73c-1.933-1.933-4.158-4.872-6.519-6.27
		c-3.5,2.493-7.305,4.82-11.127,6.82c1.245,2.766,4.771,3.896,6.286,6.466c0.414,0.704,4.971,5.466,5.415,5.466c0,0,0,0,0.001,0
		c-0.102,0.002-0.201,0.004-0.196,0.004c0.004,0,0.058-0.001,0.196-0.004h0h0c0.361-0.012,2.717-2.563,3.173-3.02
		c1.013-1.014,1.968-2.081,2.981-3.094c0.479-0.479,2.832-2.573,2.815-3.097C461.445,10.119,459.102,8.386,458.446,7.73z
		 M458.923,13.5c-0.196,0.184-0.353,0.332-0.444,0.423c-0.509,0.509-1.003,1.032-1.498,1.555c-0.489,0.518-0.979,1.035-1.482,1.539
		c-0.089,0.089-0.25,0.257-0.454,0.471c-0.596,0.623-2.142,2.24-2.543,2.462c-0.701-0.384-4.834-4.705-5.201-5.329
		c-0.733-1.245-1.923-2.163-3.073-3.051c-1.251-0.965-2.437-1.88-3.098-3.179c3.719-1.959,7.448-4.246,10.808-6.631
		c1.602,0.992,3.184,2.736,4.584,4.279c0.61,0.672,1.186,1.308,1.747,1.868c0.168,0.168,0.435,0.397,0.745,0.664
		c0.766,0.658,2.191,1.883,2.208,2.439C461.175,11.378,459.48,12.975,458.923,13.5z"/>
	<path display="inline" opacity="0.5" fill="#FFFFFF" d="M468.433,4.412c1.033-0.824,2.121-2.037,3.156-3.171
		c0.32-0.06,0.57-0.188,0.696-0.441c-0.04,0.005-0.082,0.007-0.126,0.007c-0.053,0-0.108-0.003-0.165-0.006
		c0.052-0.056,0.103-0.11,0.153-0.165c-0.009,0.032-0.023,0.051-0.026,0.094c0.113,0.026,0.201,0.037,0.268,0.037
		c0.352,0,0.123-0.303-0.073-0.303c-0.002,0-0.005,0-0.008,0c0.214-0.228,0.425-0.449,0.631-0.655
		c-0.677-1.369-2.138-2.833-3.735-4.296c0.08-0.136,0.159-0.272,0.227-0.421c-0.156,0.015-0.314,0.096-0.468,0.2
		c-0.363-0.329-0.729-0.657-1.096-0.985c0.184-0.125,0.345-0.272,0.452-0.476c-0.276,0.045-0.541,0.102-0.794,0.169
		c-1.255-1.126-2.461-2.23-3.315-3.268c-0.043-0.053-0.102-0.077-0.173-0.077c-0.929,0-4.081,4.081-4.839,4.557
		c-0.819,0.515-4.625,3.611-4.622,4.536c0.003,0.765,3.823,3.923,4.578,4.617c0.798,0.734,3.76,4.667,4.597,4.667
		c0,0,0.001,0,0.001,0c0.098,0,0.274-0.118,0.498-0.305c0.259-0.061,0.472-0.167,0.499-0.457
		C465.96,7.088,467.832,4.891,468.433,4.412z M466.513,6.041c-0.644,0.702-1.375,1.498-1.94,2.051l-0.066,0.063l-0.009,0.092
		c-0.009,0.096-0.037,0.174-0.307,0.237l-0.058,0.014l-0.045,0.038c-0.23,0.192-0.325,0.236-0.35,0.246
		c-0.478-0.034-2.274-2.147-3.142-3.168c-0.544-0.64-1.014-1.193-1.275-1.433c-0.138-0.127-0.375-0.334-0.673-0.594
		c-0.94-0.818-3.802-3.31-3.824-3.841c-0.003-0.698,3.406-3.634,4.504-4.323c0.296-0.187,0.822-0.759,1.655-1.677
		c0.965-1.063,2.579-2.842,3.051-2.842c0.848,1.039,2.056,2.146,3.321,3.281l0.101,0.09l0.015-0.004l-0.011,0.007l0.238,0.214
		l0.057,0.051c0.347,0.311,0.694,0.621,1.038,0.934l0.091,0.083l0.149,0.137c1.453,1.33,2.889,2.74,3.599,4.064
		c-0.167,0.17-0.336,0.349-0.508,0.531l-0.416,0.442h0.004l-0.249,0.268l0.026,0.002l-0.03,0.006l-0.057,0.062l-0.199,0.219
		c-0.972,1.065-1.977,2.166-2.928,2.926C467.944,4.481,467.281,5.204,466.513,6.041z"/>
	<path display="inline" opacity="0.5" fill="#FFFFFF" d="M441.603,5.796c0.112,0.025,0.2,0.037,0.267,0.037
		c0.352,0,0.123-0.303-0.074-0.303c-0.004,0-0.008,0-0.012,0c3.035-1.7,6.024-3.601,8.845-5.579
		c0.006-0.015,0.004-0.021-0.002-0.021c0.221-0.811-6.519-4.576-7.519-5.156c-0.494-0.287-0.938-0.568-1.356-0.814
		c-0.05-0.176-0.099-0.354-0.312-0.365c-0.013,0.058-0.037,0.104-0.059,0.153c-0.631-0.347-1.207-0.582-1.801-0.582
		c-0.646,0-1.313,0.277-2.097,0.987c-0.884,0.802-3.207,2.803-3.597,3.841c-0.766,2.038-0.118,3.956,1.618,5.092
		c1.492,0.977,2.086,3.03,3.623,3.879c0.85-0.437,1.697-0.9,2.543-1.372C441.635,5.635,441.609,5.696,441.603,5.796z M441.547,5.373
		c-0.665,0.372-1.533,0.851-2.414,1.306c-0.688-0.422-1.178-1.111-1.694-1.839c-0.513-0.723-1.043-1.469-1.799-1.964
		c-1.669-1.093-2.238-2.886-1.521-4.795c0.328-0.872,2.275-2.617,3.21-3.455l0.32-0.288c0.694-0.63,1.307-0.923,1.929-0.923
		c0.477,0,0.979,0.165,1.681,0.551l0.238,0.131l0.021-0.045l0.019,0.066l0.088,0.057c0.184,0.107,0.373,0.223,0.568,0.342
		c0.25,0.152,0.512,0.312,0.789,0.473l0.38,0.218c5.76,3.294,6.839,4.315,6.999,4.627c-2.757,1.929-5.548,3.694-8.304,5.256
		L441.547,5.373z"/>
	<path display="inline" opacity="0.5" fill="#FFFFFF" d="M434.143,5.898c0.028-0.114,0.057-0.229,0.087-0.342
		c-0.009,0-0.018,0-0.027,0c-0.188,0-0.33,0.02-0.45,0.051c-0.748-0.561-1.469-1.142-1.926-1.873
		c-0.804-1.286-2.205-1.778-3.643-1.778c-0.43,0-0.864,0.044-1.286,0.124c-0.685,0.13-1.376,0.174-2.072,0.174
		c-1.375,0-2.761-0.171-4.127-0.181c-0.942-0.006-2.845-0.278-4.245-0.278c-0.542,0-1.01,0.041-1.315,0.154
		c0.456,5.235,2.994,9.729,8.912,9.729c0.954,0,1.922-0.103,2.891-0.266c0.036,0.044,0.071,0.063,0.102,0.063
		c0.044,0,0.082-0.037,0.111-0.093c3.204-0.574,6.421-1.902,9.244-3.194C435.961,7.267,435.063,6.582,434.143,5.898z
		 M427.111,11.137l-0.122,0.021l-0.003,0.007l-0.085,0.002c-1.048,0.176-1.98,0.262-2.85,0.262c-3.33,0-5.4-1.42-6.683-3.286
		l0-0.115l-0.079-0.003c-1.234-1.861-1.71-4.139-1.882-5.894c0.25-0.057,0.601-0.086,1.047-0.086c0.771,0,1.711,0.085,2.541,0.16
		c0.656,0.06,1.276,0.115,1.702,0.118c0.655,0.005,1.33,0.048,1.982,0.09c0.704,0.045,1.431,0.091,2.147,0.091
		c0.794,0,1.487-0.059,2.119-0.178c0.418-0.08,0.835-0.12,1.239-0.12c1.543,0,2.761,0.59,3.431,1.661
		c0.488,0.78,1.25,1.387,1.988,1.94l0.096,0.071l0.116-0.029c0.028-0.007,0.058-0.014,0.087-0.019l-0.039,0.155l0.13,0.113
		c0.752,0.559,1.597,1.186,2.06,1.972C433.389,9.283,430.268,10.571,427.111,11.137z"/>
</g>
</svg>
