<svg xmlns="http://www.w3.org/2000/svg" xmlns:xlink="http://www.w3.org/1999/xlink" version="1.1" id="Layer_1" x="0px" y="0px" width="950px" height="3px" viewBox="0 0 950 3" enable-background="new 0 0 950 3" xml:space="preserve">
<g opacity="0.75">
	<path d="M475.023 2.385c0 0-0.472 0.011-1.385 0.03c-0.373 0.006-0.931 0.07-1.738 0.058c-0.317-0.022-0.659-0.047-1.026-0.073 l-0.132-0.011l-0.033-0.002c-0.019-0.001 0.047-0.003 0.001-0.002l-0.074 0.003l-0.303 0.012c-0.21 0.008-0.426 0.016-0.649 0 c-0.468 0.024-0.913 0.015-1.403 0.02l-0.369 0.001c-0.134-0.003-0.271-0.007-0.409-0.01c-0.25-0.009-0.507-0.018-0.769-0.026 c-0.432-0.034-1.053 0.027-1.657 0.038c-0.59 0-1.204-0.001-1.842-0.001c-0.313-0.005-0.632-0.01-0.957-0.015 c-0.056 0-0.217-0.004-0.187-0.002l-0.249 0.016l-0.51 0.03c-0.75 0.069-1.462 0.011-2.153 0 c-0.362-0.001-0.73-0.002-1.103-0.003h-0.281l-0.357-0.025l-0.559-0.048c-0.351-0.04-0.669-0.06-1.083-0.036l-0.611 0 l-0.235 0.005l-0.303 0.024c-0.385 0.026-0.87 0.084-1.318 0.092c-0.414-0.006-0.833-0.012-1.258-0.018 c-0.608-0.047-0.915-0.087-1.316-0.129l-0.144-0.017c0.029-0.003-0.087 0.003-0.124 0.005l-0.332 0.014l-0.693 0 c-1.829 0.022-3.695-0.034-5.658-0.047c-0.491-0.009-0.987-0.018-1.488-0.027c-0.438-0.019-0.977 0.018-1.498 0 c-0.393 0.008-0.973 0.069-1.535 0.104c-0.529 0.024-1.046 0.014-1.586 0.022l-0.797-0.006L436.5 2.455l-0.201-0.002 c-0.018 0.002-0.21-0.007-0.176-0.008l-0.101-0.009l-0.783-0.07l-0.364-0.035l-0.429-0.018l-0.809-0.026l-0.2-0.006 c-0.092 0 0.014-0.006-0.036-0.002l-0.104 0.007c-0.129 0.01-0.311 0.014-0.344 0.039l-0.402 0.1 c-0.178 0.027-0.364 0.032-0.546 0.045c-0.388-0.005-0.597-0.025-0.895-0.036c-8.916-0.266-19.38 0.182-30.386-0.151 c-0.297-0.043-0.646-0.044-1.001-0.039l-1.064-0.003l-1.051-0.016l-0.131-0.003c0.074-0.006-0.056 0.004-0.073 0.005l-0.266 0 l-0.546 0.039l-1.068 0.066l-0.557 0.029l-0.284 0.014c-0.083-0.001-0.015 0.014-0.223-0.001l-0.134-0.015l-1.016-0.112 l-0.119-0.014c-0.106-0.004 0.013-0.014-0.051-0.005l-0.27 0.025l-0.557 0.054l-0.599 0.054c-0.198-0.002-0.133-0.008-0.212-0.012 l-0.136-0.014l-0.271-0.026l-0.509-0.051l-0.245-0.026c-0.09 0-0.012-0.017-0.072-0.009l-0.137 0.009l-1.14 0.1 c-0.372 0.023-0.733 0.015-1.11 0.023l-1.101 0.018l-0.567 0.011l-0.143 0.002c-0.082-0.001-0.019 0.007-0.219-0.002l-0.278-0.028 l-1.042-0.11L383.408 2.2c-0.655-0.03-1.495 0.086-2.275 0.04c-0.748-0.032-1.466-0.024-2.26-0.012 c-1.456 0.097-3.125 0.097-4.652 0.014l-1.136-0.054c-0.1 0-0.02-0.009-0.082-0.002l-0.146 0.012l-0.292 0.022l-0.614 0 c-0.951 0.079-1.589-0.138-2.338-0.038L369 2.263l-0.156 0.009c-0.08 0.001-0.043 0.008-0.217 0.005l-0.295-0.025l-1.061-0.094 l-1.232 0.101c-0.392 0.033-0.786 0.027-1.199 0.044l-0.309 0.008l-0.186 0.003l-0.15-0.007l-0.599-0.026l-0.575-0.027 l-0.654-0.049l-0.57-0.047l-0.277-0.024l-0.246 0.015c-0.272 0.017-0.174 0.036-0.509 0.095c-0.261 0.058-0.458 0.061-0.799 0.1 c-0.203-0.017-0.379-0.013-0.697-0.091c-0.246-0.056-0.327-0.08-0.498-0.083l-0.112-0.01c-0.042-0.007 0 0.001-0.088 0 l-0.304 0.022l-0.632 0.046c-0.829 0.049-1.646 0.077-2.494 0.052c-0.828-0.044-1.537 0.026-2.508-0.004l-1.178-0.102l-1.216 0.1 l-0.169 0.015c-0.05 0.009-0.178 0.001-0.197-0.001l-0.311-0.017l-0.606-0.034l-1.246-0.051c-0.806-0.047-1.638 0.004-2.512-0.038 c-0.402-0.003-0.859-0.057-1.185-0.016c-0.242 0.017-0.216 0.045-0.549 0.103c-0.256 0.042-0.512 0.061-0.785 0.1 c-0.834-0.04-1.67-0.081-2.508-0.122L338.898 2.1l-0.308-0.012c-0.063-0.004 0.007-0.007-0.099 0.002l-0.159 0.014l-0.649 0.1 c-0.473 0.05-0.881 0.058-1.312 0.059c-0.427 0.009-0.876 0.013-1.3 0.003c-0.84-0.016-1.72-0.011-2.552-0.001 c-0.446 0.003-0.823 0.027-1.353 0.014l-0.325-0.021l-0.417-0.081c-0.167-0.046-0.335-0.052-0.502-0.063l-1.286 0.003h-0.163 c0.092-0.008-0.067 0.009-0.088 0.012l-0.323 0.035l-0.685 0.076l-0.356 0.036c-0.177-0.004-0.142-0.01-0.224-0.015l-0.162-0.016 l-0.629-0.06l-0.298-0.03c-0.03-0.005-0.142-0.01-0.106-0.016l-0.163 0.011l-0.658 0.043c-0.949 0.096-1.782-0.014-2.635 0 l-0.67 0.02l-0.168 0.005c-0.051 0.003-0.16-0.002-0.192-0.004l-0.328-0.014c-0.444-0.012-0.847-0.052-1.282-0.039 c-0.846 0.03-1.893-0.017-2.591-0.05l-1.37 0.116c-0.554-0.022-0.916-0.069-1.338-0.102c-1.768-0.011-3.542-0.021-5.322-0.03 c-0.761-0.067-1.792 0.143-2.672 0.078l-0.666-0.008c-0.317-0.003-0.472-0.032-0.716-0.047c-0.453-0.03-0.814-0.09-1.284-0.066 l-2.693 0.036c-0.459 0-0.877 0.024-1.39 0.006l-1.293-0.063c-1.85 0.132-3.635-0.024-5.438 0.1 c-1.833 0.021-3.631 0.054-5.492-0.096c-0.203-0.009-0.453-0.05-0.618-0.034l-0.687 0.038c-0.257 0.008-0.432 0.036-0.757 0 L284.5 2.031l-0.638-0.056l-0.685-0.005l-0.686-0.003c-0.133 0-0.429 0.033-0.636 0.048l-0.722 0.1 c-0.333 0.028-0.485-0.022-0.737-0.03l-0.655-0.052l-0.161-0.013c-0.06-0.008-0.05 0-0.136 0.002L279.101 2l-1.369 0.1 l-0.706 0.046l-0.361 0.022l-0.387-0.028c-0.462-0.021-0.895-0.109-1.294-0.072c-0.444 0.022-0.953 0.073-1.412 0.074l-1.401-0.008 l-1.38-0.057l-1.353-0.056l-1.39 0.015l-1.381 0.053c-0.531-0.014-0.943-0.053-1.392-0.077c-0.968-0.046-1.794-0.068-2.759-0.02 c-0.474 0.015-0.928-0.001-1.393 0c-0.427-0.011-0.905 0.025-1.377 0.037l-0.356 0.013l-0.373-0.018l-0.683-0.035l-0.335-0.018 c-0.049-0.009-0.213 0.009-0.314 0.012l-0.705 0.041c-0.493 0.037-0.928 0.029-1.404 0.037l-0.351 0.004l-0.208 0.001l-0.173-0.012 l-0.687-0.047c-0.85-0.083-1.856 0.011-2.764-0.039l-0.649-0.011l-0.694 0.053l-0.732 0.055l-0.742-0.07l-0.649-0.068 c-0.18-0.01-0.45 0.014-0.67 0.019l-0.714 0.029l-0.664 0.043c-0.46 0.034-0.99 0.078-1.439 0.044l-0.687-0.021l-0.375-0.017 l-0.348-0.022c-0.485-0.022-0.859-0.084-1.341-0.043l-0.708 0.028c-0.13 0.002-0.214 0.015-0.382 0.009l-0.348-0.02l-0.683-0.038 l-0.336-0.019c-0.015 0.007-0.203 0.023-0.296 0.034c-0.451 0.025-0.962 0.152-1.467 0.098c-0.463-0.018-0.923-0.089-1.332-0.059 c-0.474 0.012-0.907 0.096-1.471 0.05c-0.476-0.044-0.894-0.117-1.327-0.133c-0.441 0.011-0.982 0.01-1.355 0 c-0.46 0.042-0.917 0.103-1.458 0.135l-1.368-0.075l-1.393-0.06L226.38 1.98c-1.868-0.084-3.696 0.157-5.579-0.035 c-0.462-0.035-0.933-0.034-1.384-0.053l-0.342-0.01l-0.307 0.028l-0.709 0.063c-0.498 0.061-0.941 0.028-1.41 0.038h-0.348 c-0.027 0.001-0.158 0-0.208-0.007l-0.173-0.014l-0.682-0.057l-0.33-0.028c-0.038-0.005-0.149-0.009-0.125-0.015l-0.173 0 l-0.699 0.064c-0.261 0.01-0.445 0.072-0.77 0.037l-0.683-0.08c-0.203-0.021-0.457-0.062-0.616-0.067l-0.693 0.051l-0.753 0.1 l-0.691-0.055c-0.852-0.115-1.824-0.013-2.726-0.021c-0.941 0.01-1.829 0.049-2.79 0.01l-0.68-0.029 c-0.099-0.002-0.256-0.017-0.306-0.008l-0.344 0.027l-0.705 0.056l-0.384 0.027l-0.344-0.021c-0.894-0.067-1.831-0.095-2.722-0.094 c-0.464 0.004-0.907 0.03-1.404 0.017c-0.458-0.02-0.92-0.052-1.341-0.06l-1.354 0.049l-1.399 0.117l-1.374 0 c-0.542-0.031-0.939-0.099-1.374-0.145c-0.371-0.043-0.877 0.051-1.34 0.071c-0.453 0.041-0.904 0.038-1.371 0.06l-0.348 0 l-0.378-0.036l-0.664-0.07c-0.414-0.061-0.913-0.055-1.347-0.074c-0.449-0.028-0.869-0.001-1.341 0.018l-0.662 0.03l-0.68 0.1 c-0.25 0.018-0.438 0.041-0.739 0.054l-0.676-0.063l-0.646-0.063l-0.688-0.03l-0.667-0.026c-0.15-0.023-0.429 0.031-0.637 0 c-0.441 0.037-0.957 0.118-1.392 0.08l-0.671-0.017L175.9 1.866l-0.337 0.019c-0.456 0.005-0.889 0.094-1.403 0 c-0.463-0.042-0.856-0.106-1.311-0.126l-1.303-0.018l-1.371 0.148l-1.345-0.072l-1.339-0.057c-0.379-0.025-0.856 0.064-1.313 0.1 c-0.468 0.07-0.921-0.002-1.354 0.001l-1.336-0.05c-0.844-0.071-1.765 0.072-2.659-0.003c-0.857-0.013-1.798-0.097-2.61-0.032 c-0.436 0.018-0.9 0.114-1.358 0.07c-0.444-0.017-0.867-0.052-1.3-0.053c-0.886-0.001-1.729 0.019-2.631 0.1 c-0.911-0.04-1.729-0.088-2.619-0.076c-0.857-0.009-1.761 0.023-2.619-0.042c-0.768-0.135-1.714 0.223-2.591 0.1 c-0.85-0.082-1.685-0.005-2.584-0.038c-0.429-0.019-0.858-0.06-1.259-0.06l-1.296 0.056c-1.703 0.062-3.438-0.104-5.104-0.073 c-0.848 0.029-1.708 0-2.523 0.052c-0.426 0.006-0.835 0.093-1.303 0.034l-1.211-0.125c-0.833 0.052-1.697 0.089-2.521 0.1 c-0.891 0.008-1.629-0.16-2.474-0.048c-0.863 0.061-1.642 0.079-2.515 0.033c-0.406-0.028-0.829-0.092-1.184-0.089l-1.246 0.1 c-0.426 0.017-0.825-0.012-1.232-0.015c-0.398 0.003-0.854-0.059-1.232-0.083c-0.753-0.123-1.609 0.089-2.426 0 c-0.806-0.059-1.577-0.017-2.409 0.025c-0.765 0.041-1.635 0.086-2.41 0.007c-1.626-0.129-3.113-0.146-4.738 0.1 c-0.812-0.017-1.56-0.071-2.352-0.043c-0.827 0.071-1.576-0.171-2.314-0.111l-1.173 0.095l-1.159 0 c-0.755-0.008-1.551 0.049-2.31-0.012c-0.76-0.033-1.518-0.067-2.271-0.1c-0.717 0.033-1.542 0.112-2.272 0 c-0.715-0.089-1.508-0.051-2.209-0.033L88.25 1.723c-0.413 0.027-0.755-0.065-1.121-0.091c-0.172-0.016-0.371-0.051-0.521-0.052 l-0.55 0.049c-0.372 0.016-0.74 0.107-1.123 0.06c-0.727-0.055-1.445-0.096-2.174-0.102c-0.703-0.044-1.434 0.091-2.169 0.1 L79.526 1.58c-0.341-0.004-0.706 0.027-1.063 0.039c-0.702 0.026-1.417 0.083-2.125 0.093c-0.701-0.003-1.41-0.008-2.104-0.031 c-0.697-0.019-1.39-0.037-2.08-0.056c-0.703-0.007-1.355-0.071-2.038 0.027c-0.691 0.102-1.385 0.046-2.045 0 c-0.661-0.016-1.343 0.06-2.014 0.029c-1.334-0.04-2.652-0.08-3.955-0.119c-0.663 0-1.28-0.103-1.925-0.009L59.2 1.6 l-0.951-0.064c-0.628-0.056-1.265-0.041-1.887-0.065c-0.604 0.027-1.25 0.125-1.865 0.102c-1.242-0.01-2.449-0.04-3.658 0 c-0.625 0.021-1.208-0.133-1.774-0.149c-0.585 0.039-1.187 0.159-1.769 0.131c-1.165-0.034-2.321 0.052-3.453-0.007 C34.813 1.4 26.9 1.7 20.4 1.521c-1.626-0.052-3.163-0.014-4.613 0.017c-1.452 0.067-2.802-0.151-4.065-0.014 c-0.633 0.006-1.24-0.109-1.818-0.063C9.33 1.5 8.8 1.6 8.2 1.582C7.701 1.6 7.2 1.6 6.7 1.5 C6.22 1.5 5.8 1.4 5.3 1.489C4.895 1.5 4.5 1.6 4.1 1.545C3.72 1.5 3.4 1.5 3 1.4 C2.372 1.4 1.8 1.5 1.4 1.524C0.464 1.6 0 1.6 0 1.591s0.464-0.024 1.363-0.072C1.813 1.5 2.4 1.4 3 1.4 c0.331 0 0.7 0.1 1.1 0.102c0.381 0.1 0.791-0.044 1.224-0.061c0.433-0.073 0.896-0.001 1.4 0 C7.19 1.6 7.7 1.6 8.2 1.549C8.773 1.6 9.3 1.5 9.9 1.422c0.585-0.05 1.2 0.1 1.8 0.1 c1.261-0.142 2.6 0.1 4.065-0.002c1.446-0.036 2.989-0.081 4.614-0.035c6.494 0.2 14.39-0.215 23.4 0 c1.133 0.1 2.278-0.036 3.45-0.006c0.589 0 1.153-0.096 1.75-0.137c0.614 0 1.2 0.2 1.8 0.1 c1.194-0.083 2.43-0.059 3.663-0.053c0.623 0 1.216-0.078 1.864-0.109c0.631 0 1.3 0 1.9 0.058l0.957 0.1 l0.94-0.081c0.635-0.096 1.3 0 2 0.001c1.302 0 2.6 0.1 4 0.104c0.664 0 1.322-0.05 2.01-0.038 c0.688 0 1.4 0.1 2.017-0.023c0.673-0.101 1.395-0.042 2.071-0.036c0.689 0 1.4 0 2.1 0 c0.699 0 1.4 0 2.1 0.022c0.699-0.014 1.396-0.072 2.116-0.102c0.354-0.013 0.701-0.045 1.075-0.043l1.081 0.1 c0.699 0 1.408-0.103 2.156-0.063c0.722 0 1.5 0 2.2 0.093c0.348 0 0.708-0.046 1.07-0.063l0.55-0.052 c0.217-0.002 0.4 0 0.6 0.05c0.369 0 0.8 0.1 1.1 0.085l1.094-0.12c0.784-0.025 1.495-0.065 2.3 0 c0.766 0.1 1.4 0 2.246-0.012c0.76 0 1.5 0.1 2.3 0.092c0.767 0.1 1.507-0.004 2.3 0.001l1.156-0.012 l1.142-0.098c0.811-0.066 1.6 0.2 2.3 0.101c0.771-0.031 1.6 0 2.4 0.034c1.503-0.214 3.199-0.209 4.758-0.085 c0.82 0.1 1.6 0 2.393-0.017c0.774-0.044 1.615-0.091 2.427-0.034c0.8 0.1 1.567-0.142 2.437-0.023 c0.434 0 0.8 0.1 1.2 0.078c0.408 0 0.8 0 1.2 0.01l1.203-0.131c0.463-0.011 0.9 0.1 1.3 0.1 c0.77 0 1.7 0 2.44-0.043c0.81-0.116 1.7 0.1 2.5 0.037c0.845 0 1.651-0.021 2.493-0.077 c6.682-0.026 13.6 0.2 20.5 0.021c0.854-0.016 1.8 0 2.6 0.065c0.847-0.038 1.755-0.063 2.626-0.065 c0.445-0.001 0.9 0 1.3 0.048c0.422 0 0.833-0.053 1.276-0.074c0.945-0.073 1.8 0 2.7 0 c0.875 0.1 1.726-0.075 2.657-0.007l1.329 0.044c0.455-0.004 0.9 0.1 1.312-0.006c0.431-0.028 0.839-0.117 1.352-0.099 l1.338 0.051l1.334 0.067l1.3-0.149c0.525-0.015 0.9 0 1.4 0.008c0.442 0 0.9 0.1 1.4 0.1 c0.38 0.1 0.849-0.03 1.291-0.04l0.337-0.02l0.361 0.006l0.681 0.015c0.468 0 0.848-0.046 1.306-0.082 c0.242-0.015 0.411-0.065 0.713-0.049l0.688 0.024l0.668 0.027l0.706 0.063l0.676 0.061l0.616-0.058l0.676-0.058l0.698-0.035 c0.434-0.019 0.922-0.05 1.382-0.023c0.474 0 0.9 0 1.4 0.07l0.694 0.069l0.302 0.031l0.335-0.013 c0.443-0.022 0.905-0.022 1.36-0.065c0.445-0.02 0.851-0.113 1.387-0.076c0.473 0 1 0.1 1.4 0.139l1.369-0.007 l1.337-0.12l1.392-0.057c0.496 0 0.9 0 1.4 0.055c0.42 0 0.895-0.016 1.349-0.022 c0.945-0.005 1.8 0 2.8 0.084l0.344 0.02l0.304-0.029l0.671-0.057l0.344-0.029c0.18-0.015 0.3 0 0.4 0 l0.7 0.027c0.879 0 1.837-0.008 2.74-0.021l1.384-0.032C208.8 1 209.3 1 209.8 1.07l0.691 0.052l0.628-0.053 l0.689-0.053c0.301 0 0.5 0 0.8 0.066l0.696 0.078c0.134 0 0.412-0.031 0.611-0.042l0.683-0.065l0.173-0.017 c0.139-0.002 0.1 0 0.2 0.01l0.362 0.028l0.702 0.055l0.173 0.014c0.065 0 0.1 0 0.1 0.003l0.348-0.001 c0.457-0.011 0.9 0 1.366-0.042l0.675-0.063l0.386-0.033l0.354 0.009c0.475 0 0.9 0 1.4 0 c1.818 0.2 3.707-0.064 5.5 0.012l1.396-0.063l1.391 0.055l1.415 0.07L231.892 1c0.554-0.031 0.943-0.025 1.431-0.04 c0.494 0 1 0.1 1.4 0.133c0.361 0 0.857-0.042 1.31-0.06c0.519-0.037 1 0 1.5 0.1 c0.423 0 0.833-0.07 1.308-0.099l0.396-0.041l0.361 0.018L240.303 1l0.348 0.018l0.314-0.012l0.685-0.03 c0.447-0.043 1 0 1.4 0.039l0.348 0.021l0.322 0.013l0.707 0.019c0.48 0 0.876-0.014 1.342-0.048l0.727-0.049 l0.678-0.031c0.243-0.006 0.438-0.03 0.721-0.022l0.737 0.07c0.855 0.2 1.702-0.143 2.736-0.042 c0.946 0 1.798-0.053 2.8 0.029l0.701 0.044l0.173 0.011l0.139-0.003l0.344-0.005c0.451-0.009 0.943-0.005 1.375-0.042 l0.682-0.042c0.13-0.004 0.198-0.02 0.38-0.015l0.359 0.016l0.705 0.033l0.321 0.015l0.337-0.014 c0.453-0.012 0.899-0.05 1.397-0.042c0.46-0.003 0.9 0 1.381-0.005c0.883-0.051 1.906-0.034 2.8 0 c0.474 0 1 0.1 1.4 0.071l1.386-0.058l1.376-0.02l1.409 0.051l1.38 0.05l1.359 0 c0.46-0.005 0.868-0.053 1.341-0.078c0.518-0.046 1 0.1 1.5 0.068l0.299 0.024l0.326-0.024l0.667-0.046l1.377-0.088 l0.343-0.021c0.028-0.001 0.152-0.013 0.207-0.005l0.182 0.013l0.714 0.052c0.205 0 0.5 0.1 0.6 0.025l0.646-0.058 c0.25-0.018 0.408-0.045 0.732-0.055l0.686 0l0.686 0.002l0.727 0.057l0.684 0.055l0.608-0.033l0.678-0.04 c0.29-0.02 0.5 0 0.7 0.031c1.772 0.1 3.6 0.1 5.4 0.073c1.815-0.159 3.656-0.011 5.407-0.148 c0.517 0 1 0 1.4 0.059c0.388 0 0.871-0.01 1.31-0.013l2.694-0.046c0.428-0.027 1 0 1.4 0.1 c0.203 0 0.5 0 0.6 0.041l0.675 0.006c0.911 0.1 1.652-0.146 2.675-0.09c1.784 0 3.6 0 5.3 0 c0.459 0 1 0.1 1.3 0.095l1.268-0.116c0.563-0.004 0.9 0 1.4 0.044c0.385 0 0.854-0.007 1.283-0.009 c0.444-0.016 0.9 0 1.3 0.035l0.328 0.012c0.078 0 0.1 0 0.1 0.001l0.16-0.005l0.643-0.021 c0.895-0.059 1.8 0 2.6-0.05l0.646-0.044l0.163-0.011c0.145 0 0.1 0 0.2 0.012l0.352 0.031l0.668 0.061l0.263 0 l0.291-0.036l0.607-0.072l0.323-0.037c0.087-0.007 0.034-0.012 0.235-0.02l0.163-0.001l1.308-0.007 c0.265 0 0.5 0 0.8 0.094c0.102 0 0.1 0 0.2 0.049l0.32 0.021c0.332 0 0.816-0.016 1.229-0.022 c0.888-0.014 1.724-0.022 2.595-0.009c0.432 0 0.8 0 1.264-0.008c0.424-0.002 0.868-0.015 1.243-0.062l0.623-0.055 l0.159-0.014c0-0.004 0.177-0.012 0.22-0.007l0.329 0.01l1.269 0.043c0.855 0 1.7 0.1 2.6 0.1 c0.146 0 0.315-0.007 0.472-0.033c0.082-0.013 0.512-0.124 0.691-0.124c0.513-0.051 0.9 0 1.3 0 c0.801 0 1.645-0.016 2.5 0.028L349 0.826l0.639 0.032l0.311 0.016c0.084 0 0.1 0 0.113-0.001l0.14-0.015 l1.257-0.123l1.291 0.101c0.674 0 1.611-0.05 2.421-0.011c0.791 0 1.609-0.009 2.405-0.06l0.585-0.046l0.304-0.023 c0.007 0 0.157-0.016 0.216-0.008l0.192 0.012c0.238 0 0.6 0.1 0.7 0.11c0.074 0 0.3 0 0.5 0.1 c0.061-0.015 0.275-0.002 0.406-0.043c0.062-0.009 0.547-0.133 0.68-0.121l0.358-0.021l0.326 0.024l0.633 0.049L363.03 0.8 l0.627 0.025l0.602 0.025l0.15 0.006c-0.015-0.003 0.08-0.003 0.114-0.005l0.291-0.009c0.385-0.017 0.79-0.013 1.19-0.048 l1.144-0.101c0.542 0 0.9 0.1 1.3 0.089l0.295 0.024c-0.075-0.008 0.059-0.007 0.079-0.011l0.139-0.008l0.566-0.033 c0.824-0.11 1.8 0.1 2.4 0.028l0.554-0.046l0.292-0.024l0.146-0.012c0.035-0.006 0.212-0.008 0.209-0.003l1.194 0.1 c1.574 0.1 3 0.1 4.583-0.033c0.733-0.016 1.536-0.027 2.3 0.003c0.735 0 1.402-0.072 2.25-0.05l1.122 0 l1.187 0.114l0.278 0.027c-0.107-0.007 0.048-0.004 0.06-0.006l0.136-0.003l0.547-0.013l1.119-0.022 c0.362-0.01 0.738-0.002 1.1-0.027l1.056-0.077l0.137-0.01c0.032-0.007 0.2 0 0.2 0.005l0.301 0.026l0.58 0.1 l0.467 0.043l0.485-0.052l0.524-0.053l0.27-0.027c0.027-0.007 0.235-0.013 0.219-0.002l0.15 0.014l1.133 0.115l0.134 0 c-0.119-0.002 0.04-0.005 0.046-0.007l0.253-0.015l0.516-0.029l0.576-0.031l0.49-0.04l0.517-0.04l0.265-0.02 c0.07-0.003 0.029-0.007 0.191-0.01l0.135 0.001l1.067 0.012l1.043-0.002c0.346-0.006 0.695-0.008 1.1 0.038l0.989 0.1 l0.962-0.096l0.257-0.024c0.077-0.004 0.009-0.008 0.205-0.013l0.138 0.008l0.552 0.035l0.517 0.033l0.256 0 c-0.026-0.007 0.128-0.012 0.184-0.018l0.984-0.067c0.442-0.027 0.7 0 1.1 0c0.643-0.014 1.4 0.1 2.1 0.1 c0.47-0.014 1.4 0 1.773-0.032l0.564-0.109c0.196-0.011 0.268-0.026 0.555-0.029l1.008 0 c0.604 0 1.205-0.038 1.917-0.029l1.004 0.06l0.933 0.045c0.313 0 0.7 0 0.9 0.031l0.911-0.042 c0.678-0.046 1.4 0 1.9 0.033c0.582-0.026 1.138-0.091 1.843-0.086c0.61-0.003 1.216-0.007 1.818-0.01 c0.575-0.016 1.3 0 1.8 0.058c0.523 0 0.934-0.1 1.717-0.138c1.179 0 2.3 0.1 3.5 0.144l0.795 0 c0.097-0.012 0.193-0.008 0.291-0.023l0.417-0.091c0.236-0.051 0.335-0.042 0.482-0.056l0.104-0.007 c0.02-0.003 0.194-0.007 0.171-0.004l0.215 0.006l0.841 0.023c0.128 0 0.3 0 0.4 0.015l0.449 0.036l0.834 0.1 l0.101 0.009c0.101 0.006-0.025 0 0 0.001l0.201 0.001l0.401 0.001l0.797 0.002c0.518-0.011 1.05-0.002 1.559-0.029 c0.475-0.035 0.918-0.09 1.545-0.11c0.498-0.008 0.969-0.046 1.531-0.03c0.499 0 1 0 1.5 0 c1.958 0 3.9 0.1 5.6 0.024l0.645-0.03l0.332-0.015l0.207-0.007l0.184 0.016c0.43 0 0.9 0.1 1.3 0.1 c0.432 0 0.9 0 1.3 0.013c0.386-0.013 0.72-0.06 1.146-0.09l0.303-0.026l0.369-0.013l0.584-0.015 c0.377-0.024 0.838-0.01 1.3 0.036l0.583 0.047l0.142 0.011l0.07 0.006c0.09 0.004-0.044 0.001-0.004 0.001l0.281 0 c0.373 0 0.741-0.001 1.103-0.001c0.758 0 1.4 0.1 2.052-0.012l0.498-0.032l0.249-0.016 c0.195-0.009 0.198-0.001 0.306-0.002c0.331 0 0.7 0 1 0.01c0.625-0.002 1.228-0.004 1.806-0.006 c0.563-0.013 1.061-0.074 1.7-0.045c0.272 0 0.5 0 0.8 0.024c0.114 0 0.3 0 0.3 0.007l0.369-0.003 c0.482-0.006 1 0 1.362-0.024c0.212-0.009 0.418-0.017 0.618-0.025l0.303-0.013l0.074-0.003l0.075 0l0.04 0.002l0.158 0 c0.4 0 0.8 0.1 1.1 0.073c0.519 0 1.078-0.053 1.605-0.069c0.886-0.023 1.344-0.035 1.344-0.035L475.023 2.385z"/>
</g>
<g opacity="0.75">
	<path d="M475.095 0.504c0 0 0.4 0 1.3 0.136c0.285 0 0.949-0.081 1.688-0.088c0.326 0 0.7 0 1.1 0 l0.139 0.005l0.036 0.001c0.085-0.002-0.077 0.006-0.047 0.003l0.074-0.006l0.302-0.026c0.215-0.019 0.438-0.037 0.666-0.057 c0.121-0.01 0.244-0.02 0.368-0.03l0.094-0.007l0.127 0.005l0.171 0.008c0.226 0 0.5 0 0.7 0 c0.241 0 0.5 0 0.7 0.029c0.252 0 0.5 0 0.8 0.021l0.345 0.009l0.415-0.021 c0.292-0.015 0.591-0.029 0.896-0.045c0.757 0 1.2 0.1 1.8 0.097c0.604-0.026 1.367-0.063 2.015-0.036l0.504 0 l0.127 0.002c-0.033 0 0.065-0.003 0.092-0.004l0.262-0.01c0.363-0.014 0.732-0.028 1.106-0.043 c0.362 0 0.7 0 1.1 0.008l0.281 0.001l0.21 0.011l0.142 0.011l0.562 0.044l0.523 0.043l0.604 0 c0.39 0 0.8 0 1.2 0.022c6.544-0.238 14.4 0.2 23.34-0.075l0.458-0.029l0.23-0.014 c0.019-0.006 0.2 0 0.2 0.008l0.106 0.012l0.815 0.092l0.188 0.022l0.094 0.012c-0.006 0 0.1 0 0 0 l0.432-0.042l0.939-0.089c0.752 0 1.2 0.1 1.8 0.089c0.605 0 1.1 0 1.8 0.036l0.826-0.003l0.933-0.087 l0.507-0.044c0.025-0.008 0.3 0 0.2 0.009l0.114 0.013l0.229 0.026l0.841 0.098c0.283 0 0.6 0 0.9 0 l0.468-0.002l0.117 0c-0.094 0 0.041-0.004 0.051-0.005l0.234-0.019c0.589-0.057 1.397-0.113 1.982-0.059l0.457 0 l0.115 0.004c0.043 0 0 0 0.1 0.001l0.239-0.007l0.98-0.028c0.665-0.004 1.3 0 2 0 c0.651 0 1.3 0 1.9 0.036l0.495 0.003l0.524 0.016l0.971 0.035c0.572-0.006 1.386-0.069 2.029-0.031 c0.324 0 0.7 0 1 0.019l1.039-0.04c0.697-0.011 1.323-0.053 2.124-0.009l0.987 0.07c0.108 0-0.016 0 0 0 l0.13-0.013l0.259-0.024l0.545-0.052c11.145 0 23.2 0.1 36 0.097c0.877-0.061 1.7 0.1 2.4 0.005l0.632-0.05 l0.325-0.024c0.22-0.004 0.2 0 0.4 0.016c0.126-0.015 0.6 0.1 0.7 0.119c0.142 0 0.3 0 0.4 0.1 l1.232-0.039l1.205-0.055c0.934-0.069 1.7 0.1 2.4 0.021c0.87-0.064 1.661-0.067 2.497-0.084l1.248-0.017l1.253 0.1 c0.812 0 1.6 0 2.5 0.007c0.829 0 1.642-0.06 2.55-0.004c0.422 0 0.8 0.1 1.2 0.044l1.297-0.023 l1.25 0.035l1.277 0.069l0.15 0.009c0.061 0 0 0 0.1 0l0.317-0.02l0.198-0.045c0.127-0.026 0.252-0.057 0.381-0.075 l0.393-0.027c0.012-0.008 0.209-0.003 0.2 0.004l0.159 0.016l0.622 0.061c0.632 0.2 1.664-0.123 2.529-0.021l0.625 0 c0.085 0 0.2 0 0.3 0.007l0.321-0.021l0.661-0.042l0.342-0.021c0.004-0.008 0.186-0.002 0.2 0.005l0.161 0 c0.427 0 0.9 0.1 1.2 0.105l1.331-0.084c0.533 0 0.9 0.1 1.3 0.087c0.369 0 0.841-0.012 1.276-0.015 c0.448-0.021 0.9 0 1.3 0.003l1.314 0.028c0.425 0 0.8 0 1.3 0.007l0.664-0.01c0.119 0 0.408-0.029 0.604-0.042 c0.941-0.106 1.802-0.052 2.687-0.047l1.295 0.015l1.336-0.026l1.323 0.007c0.582 0 0.9 0.1 1.3 0.1 c0.779 0 1.802-0.062 2.646-0.015l1.332 0.018l0.331 0.004c0.038 0 0.1 0 0.1 0.003l0.167-0.01l0.673-0.039 c1.073-0.112 1.8 0.1 2.7 0.066l0.671-0.003c0.149 0 0.426-0.021 0.633-0.031c0.448-0.023 0.945-0.066 1.38-0.056 c1.791-0.027 3.7 0.1 5.3 0.079l1.41-0.153l1.356 0.002l1.362 0.056c0.405 0 0.888-0.019 1.346-0.027l0.175-0.005 c0.05-0.004 0.2 0 0.2 0.005l0.339 0.024l0.657 0.049c0.431 0 0.9 0 1.3 0.042l0.337 0 c0.009 0 0.197-0.014 0.287-0.02l0.696-0.061l0.364-0.031c0.07-0.004 0.098-0.014 0.205-0.012l0.171 0.007l0.677 0 l2.74 0.11l0.659 0.033l0.637-0.049l0.723-0.056l0.665-0.033c0.458-0.022 0.958-0.049 1.405-0.031l0.682 0.01l0.708 0 c0.898 0.1 1.8 0.1 2.7 0.081c0.444 0 0.9 0.1 1.3 0.016c0.44-0.03 0.957-0.107 1.432-0.104 c0.484 0 0.9 0 1.4 0.036c0.448 0 0.9 0.1 1.3 0.117c0.463-0.043 0.893-0.1 1.47-0.14l1.343 0.1 l1.378-0.048c0.544 0 0.9 0.1 1.4 0.09c0.366 0 0.886-0.053 1.361-0.076c0.511-0.031 0.9 0 1.4 0 c0.389 0 0.888-0.043 1.363-0.062c0.14-0.006 0.201-0.019 0.404-0.018l0.346 0.029l0.673 0.057l0.325 0 c0.05 0 0.213-0.01 0.314-0.013l0.705-0.041l0.361-0.02c0.022-0.007 0.173-0.004 0.2 0.003l0.173 0.015l0.68 0.1 c0.424 0.1 0.9 0 1.4 0.027c0.218-0.006 0.5 0 0.666-0.018l0.699-0.048c0.493-0.048 0.968-0.044 1.424-0.034 l0.732 0.013l0.691 0.058l0.645 0.056l0.695-0.014l0.706-0.014l0.664-0.041c0.474-0.036 0.978-0.062 1.431-0.039l0.69 0 c0.307 0 0.5 0 0.7 0.049l0.666 0.055l0.165 0.014c-0.025 0 0.093-0.007 0.132-0.01l0.348-0.028 c0.465-0.034 0.977-0.093 1.426-0.081c1.896-0.014 3.7 0.1 5.6 0.084c0.461 0 0.9 0 1.4 0.009l1.403-0.034 c0.935-0.012 1.863-0.006 2.8 0.015l1.336 0.043l1.429-0.126l2.786 0.152c0.412 0 0.911-0.036 1.383-0.052 c0.517-0.005 0.9 0 1.4 0.057c0.438 0 0.919-0.003 1.383-0.002c0.403 0 0.895-0.061 1.375-0.089 c0.994-0.036 1.8 0.1 2.8 0.036c0.992 0 1.8 0.1 2.8 0.078l1.388-0.008c0.216-0.005 0.5 0 0.66-0.013 l0.696-0.058c1.037-0.136 1.8 0.1 2.788-0.015c1.856-0.057 3.7-0.048 5.555-0.022l0.685 0.017c0.127 0 0.2 0 0.4 0 l0.344 0.025c0.483 0 0.9 0.1 1.3 0.06l2.765-0.085l2.758-0.022l1.396 0l1.35 0.079c1.812-0.211 3.7 0.1 5.5 0.1 l2.728-0.009c0.86 0 1.845-0.101 2.733-0.033c0.918 0 1.8 0.1 2.7 0.055c0.927-0.068 1.8 0.1 2.7 0 l0.679-0.006c0.097-0.003 0.3 0 0.303-0.007l0.336-0.035l0.689-0.07l0.353-0.035c0.192 0 0.2 0 0.4 0 c0.461 0 0.9 0.1 1.3 0.125c0.432-0.011 0.937-0.007 1.317-0.03l1.392-0.131l1.322 0.083l1.339 0.1 c0.401 0 0.872-0.041 1.324-0.058c0.951-0.016 1.8 0.1 2.7 0.095c0.823 0.1 1.792-0.119 2.66-0.044 c0.452 0 0.9 0 1.3-0.011c0.445-0.022 0.904-0.057 1.34-0.042c0.897 0 1.709-0.053 2.672-0.006 c0.438 0 0.9 0.1 1.3 0.129l0.326-0.021l0.277-0.059c0.232-0.06 0.475-0.071 0.716-0.083 c0.508 0 0.9 0.1 1.3 0.137c0.377 0 0.848-0.046 1.288-0.065c0.885-0.039 1.756-0.005 2.6 0 c0.89-0.007 1.7 0.2 2.6 0.064c0.419-0.021 0.906-0.067 1.326-0.016c0.436 0 0.8 0.1 1.3 0.1 c0.861 0 1.7 0 2.578-0.001c0.862 0 1.7 0 2.6 0.004c0.219 0 0.39-0.007 0.619-0.024 c0.21-0.016 0.348-0.066 0.602-0.11c0.232-0.023 0.455-0.057 0.7-0.029l0.632 0.052c0.403 0 0.8 0.1 1.3 0.1 c0.438 0 0.8 0 1.242-0.017c0.425-0.01 0.842-0.103 1.303-0.045l1.234 0.112c1.679 0.1 3.321-0.071 5-0.05 c1.704 0 3.2 0.2 4.935-0.058c0.888 0.1 1.6 0.2 2.4 0.125c0.827-0.051 1.6 0.1 2.42-0.016 c0.408-0.012 0.81-0.104 1.245-0.05l1.159 0.104l1.214-0.135c0.413-0.051 0.804-0.013 1.206-0.024 c0.813-0.015 1.6 0.1 2.4 0.033c0.405 0 0.777-0.053 1.2 0.002l1.153 0.132l1.173-0.047 c0.404-0.014 0.755-0.047 1.165-0.072c0.855-0.141 1.6 0.2 2.3 0.114l1.178-0.066l1.153 0 c0.708 0 1.554-0.194 2.301-0.087c0.753 0.1 1.5 0 2.3 0.029c0.794 0 1.5 0.2 2.2 0 c0.383-0.096 0.807-0.073 1.167-0.05c0.375 0 0.7 0.1 1.1 0.049c0.746-0.01 1.488-0.02 2.227-0.03 c0.756-0.015 1.5 0 2.2 0.046l1.087 0.054c0.348 0 0.72-0.029 1.083-0.042c0.733-0.043 1.5 0 2.168-0.011 c0.716-0.01 1.44-0.01 2.1 0.012c0.688 0.1 1.4-0.111 2.129-0.074c0.697 0.1 1.4 0.1 2.1 0.1 c0.678 0.1 1.4 0 2.1 0.02c0.68-0.059 1.39-0.164 2.065-0.132c0.68-0.012 1.4 0 2 0.1 c0.649 0 1.336-0.143 2.017-0.07c0.365 0.1 0.7 0.2 1 0.156l0.988 0.004c0.663 0 1.288-0.082 1.961-0.12 c0.647 0 1.307-0.007 1.9 0.044l0.951 0.054l0.957-0.017c0.636-0.004 1.268-0.007 1.895-0.011 c0.614-0.018 1.254-0.056 1.865-0.063c1.239-0.047 2.5 0 3.7 0.067c1.2 0 2.4 0 3.6 0 c1.169-0.074 2.332-0.011 3.5 0.056c0.563 0.1 1.104-0.059 1.674-0.087c0.572-0.034 1.1 0.1 1.7 0.1 c0.547 0 1.1 0 1.6 0.012c0.533-0.036 1.074-0.141 1.604-0.12c0.526 0 1.1 0 1.6 0 c0.523 0 1 0.1 1.5 0.01c0.51-0.039 1.018-0.075 1.517-0.065c0.496-0.011 1.001-0.007 1.5 0 c0.969 0.1 1.931-0.068 2.9 0.027c0.934 0.1 1.9 0 2.753-0.004c0.902-0.106 1.8 0.1 2.6 0.1 c0.857 0 1.685-0.022 2.502-0.074c1.623 0.1 3.169-0.082 4.6 0.053c0.718-0.069 1.427-0.166 2.101-0.057 c0.673 0.1 1.3 0 1.957-0.031c0.63-0.022 1.238-0.059 1.824-0.042c0.584 0 1.1 0.1 1.7 0 c1.073-0.137 2 0.1 2.9 0.089c1.743-0.043 3.1 0 4 0.023C949.536 1.5 950 1.5 950 1.5 s-0.464 0.034-1.361 0.099c-0.9-0.009-2.235-0.058-3.978-0.007c-0.874 0.046-1.836-0.219-2.907-0.078 c-0.534 0.052-1.097-0.02-1.679-0.034c-0.581-0.014-1.189 0.025-1.821 0.05c-0.627 0.033-1.284 0.139-1.962 0 c-0.68-0.106-1.366-0.007-2.091 0.065c-1.453-0.129-2.981 0.046-4.61-0.034c-0.807 0.055-1.647 0.09-2.503 0.1 c-0.865-0.024-1.722-0.23-2.62-0.12c-0.901 0.03-1.817 0.065-2.761 0.016c-0.934-0.092-1.894 0.124-2.879-0.016 c-0.489-0.047-0.975-0.049-1.479-0.037c-0.502-0.007-1.002 0.031-1.509 0.071c-0.505 0.063-1.034 0.018-1.549-0.003 c-0.52-0.032-1.039-0.021-1.57-0.03c-0.53-0.018-1.047 0.087-1.587 0.126c-0.552 0.032-1.089-0.004-1.637-0.005 c-0.548-0.022-1.113-0.12-1.649-0.083c-0.54 0.029-1.116 0.167-1.685 0.094c-1.136-0.063-2.277-0.121-3.442-0.042 c-1.175 0.037-2.356 0.021-3.563 0.004c-1.209-0.026-2.42-0.105-3.656-0.053c-0.626 0.008-1.23 0.048-1.87 0.1 c-0.626 0.006-1.257 0.012-1.892 0.019c-5.097-0.092-10.389-0.179-15.974 0.065c-0.693-0.029-1.396-0.084-2.103-0.143 c-0.676-0.033-1.372 0.127-2.107 0.083c-0.716-0.019-1.42-0.016-2.142-0.003c-0.719 0.016-1.445-0.026-2.161 0 c-0.36 0.014-0.714 0.043-1.095 0.046l-1.101-0.049c-0.716-0.02-1.474-0.055-2.195-0.037c-0.738 0.013-1.479 0.025-2.224 0 c-0.756 0.018-1.525-0.147-2.201 0.002c-0.768 0.216-1.579 0.02-2.288-0.013c-0.752 0.01-1.519 0.036-2.291-0.021 c-0.782-0.103-1.457 0.122-2.287 0.098l-1.161-0.036l-1.141 0.07c-0.798 0.07-1.617-0.255-2.326-0.104l-1.18 0.1 c-0.389 0.017-0.768 0.044-1.183 0.052l-1.198-0.129c-0.348-0.049-0.77 0.006-1.157 0.004c-0.803 0.039-1.608-0.042-2.393-0.023 c-0.396 0.012-0.809-0.023-1.19 0.029l-1.18 0.137c-0.461-0.025-0.839-0.067-1.248-0.099c-0.367-0.049-0.771 0.041-1.171 0.1 c-0.838 0.092-1.646-0.027-2.446 0.027c-0.41-0.006-0.799 0.063-1.236-0.005c-0.414-0.036-0.854-0.103-1.208-0.111 c-1.569 0.255-3.337 0.088-4.944 0.078c-1.638-0.014-3.327 0.148-5.004 0.07l-1.273-0.109c-0.377-0.05-0.801 0.038-1.217 0.1 c-0.415 0.046-0.881 0.025-1.288 0.023c-0.419 0.004-0.841-0.018-1.283-0.06l-0.636-0.049c-0.176-0.023-0.381 0.008-0.568 0 c-0.163 0.029-0.437 0.105-0.65 0.119c-0.195 0.017-0.449 0.028-0.656 0.028c-0.843 0.023-1.716 0.018-2.565 0 c-0.854 0.004-1.71 0.008-2.568 0.011c-0.427 0.017-0.884-0.042-1.31-0.058c-0.439-0.049-0.813 0-1.258 0 c-0.89 0.094-1.771-0.067-2.616-0.054c-0.866-0.021-1.737-0.051-2.591-0.009c-0.429 0.02-0.829 0.095-1.321 0.071l-1.293-0.132 c-0.196 0.013-0.392 0.019-0.585 0.071l-0.367 0.073l-0.329 0.022c-0.49-0.008-0.929-0.088-1.364-0.126 c-0.788-0.036-1.739 0.051-2.604 0.021c-0.447-0.013-0.868 0.022-1.305 0.046c-0.436 0.038-0.919 0.035-1.351 0 c-0.902-0.071-1.7 0.101-2.654 0.055c-0.87 0.016-1.824-0.107-2.651-0.085c-0.438 0.019-0.857 0.072-1.348 0.064l-1.338-0.05 l-1.357-0.08l-1.282 0.134c-0.514 0.032-0.907 0.024-1.373 0.038c-0.459 0.006-0.951-0.087-1.386-0.124 c-0.094-0.009-0.264-0.033-0.295-0.029l-0.318 0.035l-0.654 0.07l-0.336 0.036c-0.185 0.017-0.244 0.007-0.372 0.012l-0.674 0 c-0.923 0.029-1.818-0.088-2.7-0.017c-0.924 0.061-1.842-0.039-2.736-0.044c-0.924-0.064-1.752 0.048-2.71 0.044l-2.731 0 c-1.844 0.038-3.629-0.258-5.473-0.04l-1.392-0.075l-1.353 0.007l-2.746 0.033l-2.746 0.095c-0.442 0.043-0.986-0.039-1.422-0.056 l-0.344-0.024c-0.057-0.008-0.217-0.006-0.319-0.01l-0.696-0.014c-1.83-0.018-3.677-0.02-5.514 0 c-0.895 0.092-1.946-0.112-2.75 0.024l-0.686 0.06c-0.303 0.025-0.48 0.011-0.727 0.018l-1.389 0 c-0.903 0.044-1.918-0.067-2.779-0.067c-0.904 0.026-1.908-0.065-2.764-0.025c-0.444 0.029-0.876 0.089-1.4 0.1 c-0.464 0.001-0.912 0.027-1.4 0.008c-0.472-0.016-0.969-0.061-1.379-0.051c-0.455 0.018-0.885 0.055-1.399 0.058l-2.777-0.141 l-1.347 0.128c-0.557 0.001-0.97-0.024-1.449-0.035c-0.915-0.016-1.845-0.019-2.769-0.003l-1.384 0 c-0.491 0.015-0.943-0.003-1.412-0.003c-1.848 0.009-3.746-0.083-5.565-0.062c-0.481-0.01-0.894 0.049-1.354 0.083l-0.347 0 c-0.076 0.005-0.075 0.012-0.215 0.014l-0.184-0.014l-0.723-0.055c-0.215-0.013-0.5-0.046-0.657-0.043l-0.703-0.01 c-0.476-0.021-0.898 0.007-1.352 0.042l-0.726 0.045l-0.687 0.016l-0.695 0.017l-0.744-0.056l-0.695-0.055l-0.658-0.007 c-0.473-0.008-0.925-0.009-1.356 0.038l-0.688 0.051c-0.304 0.022-0.478 0.014-0.724 0.022c-0.452 0.007-0.927 0.037-1.425-0.023 l-0.706-0.058l-0.173-0.014c-0.067-0.008-0.033-0.003-0.126 0.001l-0.332 0.021l-0.682 0.042c-0.13 0.005-0.198 0.019-0.379 0 l-0.366-0.028l-0.712-0.056l-0.346-0.028c-0.027 0.007-0.197 0.015-0.289 0.022c-0.447 0.019-0.87 0.085-1.405 0.1 c-0.464-0.001-0.958-0.044-1.369-0.011c-0.446 0.023-0.848 0.091-1.402 0.081c-0.477-0.027-0.993-0.078-1.37-0.084l-1.389 0.1 l-1.415-0.099l-1.281 0.142c-0.594-0.004-1.013-0.077-1.481-0.11c-0.359-0.024-0.902-0.017-1.336-0.026 c-0.445 0.001-0.842 0.071-1.317 0.105c-0.552 0.058-0.971-0.009-1.443-0.006c-0.896-0.025-1.823-0.021-2.757-0.07 c-0.875-0.026-1.834-0.057-2.695 0.007l-0.706 0.037L666.857 2.1l-0.729 0.056l-0.709-0.031l-2.728-0.099l-0.688-0.028l-0.17-0.007 l-0.135 0.014l-0.316 0.03l-0.663 0.061c-0.136 0.009-0.173 0.026-0.392 0.026l-0.346-0.005c-0.466-0.015-0.901 0.007-1.375-0.037 l-0.701-0.048l-0.339-0.023c-0.094-0.007-0.063-0.005-0.127-0.002l-0.165 0.006c-0.447 0.009-0.871 0.043-1.371 0.032l-1.351-0.051 l-1.354 0.003l-1.28 0.15c-1.943 0.038-3.665-0.088-5.46-0.05c-0.464-0.008-0.859 0.035-1.306 0.1 c-0.24 0.012-0.409 0.035-0.707 0.036l-0.671 0.006c-0.856 0.072-1.935-0.178-2.642-0.057l-0.661 0.041l-0.166 0.01h-0.205 l-0.337-0.003l-1.334-0.012c-0.931-0.042-1.683 0.039-2.668 0.025l-1.302-0.14l-1.323-0.001l-1.307 0 c-0.469 0.009-0.9-0.007-1.343-0.009c-0.87-0.003-1.766-0.049-2.566 0.054c-0.24 0.016-0.386 0.039-0.703 0.049l-0.646 0 c-0.424 0.013-0.886 0.016-1.332-0.001l-1.296-0.022c-0.442 0.001-0.87-0.02-1.289 0.002c-0.431 0.004-0.827 0.048-1.321 0 c-0.448-0.027-0.948-0.072-1.276-0.082l-1.252 0.087c-0.538-0.008-0.96-0.072-1.39-0.103l-0.16-0.014 c-0.067-0.009 0.007-0.003-0.096 0.001l-0.302 0.021l-0.623 0.043l-0.321 0.021c-0.193 0.015-0.244-0.002-0.373-0.002l-0.658-0.023 c-0.846-0.097-1.518 0.181-2.581 0.028l-0.648-0.061L611.494 2.1c-0.07-0.009 0.02-0.001-0.074 0.002l-0.243 0.015l-0.244 0.1 c-0.136 0.03-0.293 0.063-0.425 0.083l-0.317 0.021c-0.007 0.002-0.167 0.01-0.212 0.005l-0.167-0.009l-1.258-0.064l-1.282-0.029 L606.044 2.2c-0.441 0.025-0.895-0.029-1.311-0.041c-0.767-0.049-1.627 0.021-2.466 0.017c-0.835 0.009-1.668 0.025-2.514 0 l-1.228-0.067l-1.228 0.021c-0.813 0.02-1.667 0.028-2.432 0.092c-0.872 0.112-1.777-0.087-2.47-0.009 c-0.813 0.034-1.623 0.068-2.431 0.103c-0.295-0.018-0.525-0.013-0.775-0.078c-0.305-0.055-0.22-0.075-0.501-0.089 c-0.074-0.003-0.261-0.023-0.242-0.011l-0.276 0.025l-0.571 0.049c-0.903 0.107-1.726-0.06-2.443 0 c-12.745 0.016-24.795 0.03-35.918 0.044l-0.494 0.05l-0.259 0.026l-0.13 0.013c-0.024 0.007-0.235 0.01-0.213 0.003l-1.082-0.069 c-0.576-0.034-1.325 0.005-1.99 0.021l-1 0.044c-0.405 0.01-0.717-0.011-1.067-0.015c-0.705-0.034-1.231 0.029-1.993 0 l-1.023-0.032l-0.469-0.013l-0.495-0.002c-0.646 0.004-1.336-0.011-1.987-0.028c-0.605-0.013-1.293-0.016-1.914-0.009l-0.942 0 l-0.239 0.008h-0.147l-0.124-0.004l-0.497-0.017c-0.687-0.048-1.136 0.006-1.796 0.063l-0.234 0.019l-0.184 0.011l-0.117 0 l-0.468 0.005c-0.317-0.003-0.61 0.017-0.943-0.004l-0.998-0.104l-0.229-0.024l-0.114-0.012c-0.119-0.009 0.033-0.006-0.019 0 l-0.406 0.043l-0.883 0.087l-0.986 0.015c-0.587 0.016-1.237-0.017-1.816-0.029c-0.537-0.013-1.311-0.093-1.723-0.082l-0.799 0.1 l-0.432 0.044c-0.206 0.011-0.127-0.004-0.204-0.005L520.7 2.413l-0.242-0.023l-0.894-0.095l-0.106-0.012 c-0.118-0.01 0.041-0.002-0.011 0.002L519.251 2.3l-0.391 0.027l-0.421 0.028l-0.211 0.015l-0.104 0 c-0.149 0.005-0.106-0.002-0.169-0.003l-0.883-0.051l-0.417-0.024c-0.034-0.008-0.243 0.002-0.356 0.002l-0.818 0 c-0.542 0.018-1.079 0.035-1.612 0.054c-0.59 0.028-0.922 0.08-1.652 0.101c-0.175-0.014-0.354-0.018-0.524-0.048l-0.387-0.089 c-0.045-0.034-0.551-0.067-0.611-0.044c-0.505 0.011-0.974 0.055-1.56 0.039c-0.501-0.001-1.108-0.046-1.391-0.007 c-0.099 0.011-0.152 0.031-0.288 0.056c-0.167 0.034-0.4 0.083-0.496 0.081l-0.186 0.012l-0.092 0 c-0.016 0.003-0.184 0.007-0.161 0.002l-0.401-0.028l-0.758-0.057l-0.182-0.013l-0.09-0.007c0.104 0.002-0.019 0.005-0.017 0 l-0.325 0.027l-0.688 0.055l-0.177 0.014l-0.089 0.008c-0.165 0.009-0.098 0.002-0.157 0.004l-0.357-0.003 c-0.938-0.007-1.878-0.01-2.787-0.074l-0.716-0.065l-0.33-0.031l-0.082-0.008c-0.104-0.006 0.046-0.001 0 0.002l-0.112 0 c-0.075 0.009-0.15-0.001-0.226 0.024l-0.326 0.069c-0.405 0.081-0.417 0.051-0.797 0.078c-0.856 0.004-1.691 0.008-2.505 0 c-0.413-0.006-0.82-0.012-1.223-0.018l-0.573-0.013l-0.635-0.046L492.4 2.379l-0.213-0.016h-0.281 c-0.373-0.001-0.741-0.002-1.104-0.004c-0.349 0.016-0.691 0.031-1.029 0.046l-0.262 0.012l-0.169 0.006l-0.132-0.002l-0.522-0.006 c-0.71-0.022-1.255 0.013-1.913 0.042c-0.703 0.024-1.44-0.1-1.85-0.088c-0.277 0.016-0.55 0.031-0.816 0.046l-0.415 0 c-0.237 0.005-0.308-0.004-0.467-0.006c-0.54-0.015-1.057-0.03-1.547-0.044c-0.248-0.011-0.489-0.021-0.725-0.031l-0.171-0.007 c-0.01-0.001-0.099-0.004-0.043-0.003l-0.074 0.008l-0.293 0.028c-0.205 0.019-0.404 0.037-0.597 0.055l-0.302 0.027l-0.074 0 l-0.119 0.004l-0.039-0.001l-0.15-0.005c-0.392-0.011-0.757-0.021-1.096-0.03c-0.587 0.013-1.037 0.089-1.65 0.1 c-0.951-0.092-1.442-0.14-1.442-0.14L475.095 0.504z"/>
</g>
</svg>
