<svg xmlns="http://www.w3.org/2000/svg" xmlns:xlink="http://www.w3.org/1999/xlink" version="1.1" id="Layer_1" x="0px" y="0px" width="100px" height="100px" viewBox="0 0 100 100" enable-background="new 0 0 100 100" xml:space="preserve">
<path opacity="0.75" d="M97.07 57.737c0.045-2.348-0.016-4.689-0.01-7.038c0.003-1.139 0.015-2.278 0.025-3.417 c0.009-1.017-0.167-2.031-0.162-3.046s0.213-2.028 0.187-3.044c-0.029-1.14-0.06-2.28-0.087-3.421 c-0.057-2.35 0.05-4.691-0.002-7.042c-0.097-4.349 0.089-8.687 0.034-13.032c-0.002-0.1 0.005-1.299-0.033-1.299 c-0.526-0.001-1.053-0.003-1.579-0.004c-1.035-0.003-2.067 0.013-3.103 0.032c-2.052 0.039-4.081-0.071-6.135 0 c-3.84 0.172-7.668-0.088-11.506-0.08c1.476-2.219 2.936-4.449 4.397-6.678c1.477-2.251 3.05-4.42 4.474-6.705 c-8.816 0.081-17.637 0.053-26.452-0.07c-4.144-0.058-8.307 0.011-12.449 0.143c-0.962 0.031-1.941-0.104-2.901-0.168 c-0.949-0.063-1.927 0.04-2.877 0.065c-1.906 0.052-3.765 0.012-5.668-0.09c-2.81 0.049-5.592 0.132-8.401 0.1 c-2.83-0.075-5.641 0.098-8.472 0.016c3.082 4.5 5.9 9.1 9.1 13.505c-1.881 0.027-3.776 0.103-5.657 0.1 c-0.932-0.022-1.863-0.139-2.796-0.151c-0.937-0.013-1.878 0.106-2.815 0.076c-3.709-0.123-7.413 0.101-11.127 0 c0.033 2.1 0.1 4.267-0.05 6.393c-0.163 2.351-0.035 4.7 0 7.036c0.066 2.04-0.081 4.076-0.028 6.1 c0.061 2.308-0.114 4.588-0.09 6.893c0.091 8.8 0.1 17.5 0 26.314C2.857 73.8 3 78.3 2.9 82.8 c-0.017 1 0.1 2 0.1 3.046c-0.001 1.014-0.161 2.034-0.098 3.047c0.146 2.348-0.052 4.6 0 7 c0.009 0.264-0.135 1.1 0.2 1.093c0.736-0.001 1.471-0.001 2.207-0.002c1.046 0 2.1 0 3.1 0 c2.095 0 4.2 0 6.3 0.057c2.357 0.1 4.674-0.137 7 0.016c1.079 0.1 2.165-0.057 3.243-0.117 c0.965-0.055 1.9 0.2 2.9 0.116c4.532-0.19 9.068-0.035 13.604-0.132c0.971-0.021 2 0.3 2.9 0.2 c1.038-0.083 2.103-0.259 3.143-0.192c2.342 0.1 4.7 0.1 7 0.064c4.281-0.122 8.578-0.012 12.9 0 c2.338 0 4.7 0 7.008-0.058c2.029-0.051 4.1 0.1 6.1 0.092c5.514-0.128 11.041-0.314 16.5 0 c-0.227-4.479-0.05-8.938-0.106-13.418c-0.014-1.086 0.045-2.173 0.08-3.259c0.03-0.971-0.131-1.948-0.135-2.921 c-0.01-2.262-0.002-4.519 0.111-6.777C97.274 66.4 97 62.1 97.1 57.737z M95.28 71.2 c-0.199 4 0 7.906-0.036 11.858c-0.05 4.037-0.189 8.1 0 12.16c-4.198-0.255-8.468-0.049-12.67 0 c-4.401 0.103-8.815 0.004-13.22 0.037c-1.995 0.015-3.988-0.125-5.982-0.114c-2.325 0.014-4.647 0.079-6.972 0 c-2.108-0.036-4.222 0.07-6.33 0.096c-0.964 0.012-1.928-0.187-2.892-0.181c-0.971 0.006-1.955 0.271-2.925 0.2 c-2.111-0.136-4.172-0.142-6.288-0.076c-2.319 0.072-4.633-0.042-6.954-0.063c-1.98-0.017-3.923 0.078-5.907-0.01 c-0.952-0.042-1.917 0.21-2.867 0.148c-0.974-0.063-1.983-0.221-2.958-0.157c-2.304 0.149-4.557 0.128-6.864 0 c-2.098-0.099-4.204 0.037-6.306 0.027c-0.468-0.002-0.937-0.001-1.405-0.001c-0.111 0-0.077-1.021-0.061-1.252 c0.064-0.967 0.208-1.955 0.148-2.924c-0.128-2.064 0.005-4.099-0.075-6.158c-0.168-4.313 0.02-8.633-0.103-12.947 c-0.057-2.007 0.203-4.017 0.133-6.02c-0.08-2.325-0.074-4.647-0.101-6.975c-0.046-4.143 0.087-8.29 0.037-12.436 c-0.052-4.384-0.02-8.777 0.13-13.158c0.086-2.513-0.102-5.055-0.187-7.566c-0.086-2.521 0.208-5.053 0.169-7.584 c2.022 0 4.03-0.021 6.048-0.134c1.966-0.11 4 0 5.943-0.01c1.91-0.052 3.9 0.1 5.8 0.1 c2.068-0.011 4.138-0.06 6.206-0.09c-3.126-4.401-5.96-8.979-9.054-13.397c2.337-0.119 4.648-0.091 6.986-0.003 c2.151 0.1 4.322-0.091 6.476-0.128c2.037 0.1 4 0.1 6.1 0.08c2.11-0.058 4.2 0.2 6.3 0.1 c4.304-0.138 8.652-0.216 12.958-0.093c3.694 0.1 7.382-0.01 11.1 0.042c3.578 0 7.2 0.1 10.7 0 c-3.199 4.273-5.95 8.913-8.907 13.358c4.228-0.009 8.5 0.2 12.7 0.118c2.299-0.039 4.571-0.15 6.87-0.064 c1.03 0 2.065-0.014 3.096-0.033c0.244-0.004 1.114-0.14 1.2 0c0.166 0.2 0 1.1 0 1.4 c-0.124 4.464-0.093 8.9 0 13.373c0.043 1.972-0.071 3.945-0.021 5.921c0.053 2.06-0.202 4.129-0.081 6.2 c0.256 4.3 0.2 8.7 0.1 13.063C95.197 62.5 95.5 66.8 95.3 71.224z"/>
<path opacity="0.75" d="M24.833 99.536c-1.224-0.016-2.448-0.026-3.672-0.021c-2.288 0.011-4.558-0.054-6.844 0.1 c-2.014 0.094-4.037-0.155-6.051-0.084c-2.299 0.08-4.576 0.063-6.876-0.017c-0.63-0.021-0.822 0.157-0.836-0.478 c-0.013-0.573-0.024-1.147-0.04-1.721c-0.027-1.012-0.092-2.028-0.06-3.04c0.074-2.297 0.16-4.572-0.007-6.865 c-0.081-1.114 0.022-2.203 0.093-3.318c0.063-0.979-0.03-1.969-0.039-2.948c-0.019-2.145-0.155-4.312-0.074-6.452 c0.086-2.279 0.098-4.527-0.024-6.805c-0.053-0.984 0.135-1.98 0.172-2.964c0.038-1.01 0.02-2.028 0.007-3.039 c-0.028-2.354-0.013-4.706-0.026-7.06C0.554 54.4 0.6 53.9 0.6 53.5H0.043c0.017 1.6 0 3.2 0 4.8 c-0.01 2.2 0.1 4.4 0 6.558c-0.037 0.984-0.226 1.98-0.173 2.965c0.06 1.1 0.1 2.2 0.1 3.3 c-0.038 2.29-0.131 4.553-0.027 6.842c0.088 1.9 0.2 4 0.1 5.938c-0.069 1.087-0.192 2.166-0.113 3.3 c0.084 1.2 0.1 2.3 0.1 3.446c-0.042 2.201-0.099 4.383-0.04 6.585c0.012 0.433-0.125 2.7 0.2 2.7 c1.093 0 2.2 0.1 3.3 0.104c2.361 0.1 4.713-0.053 7.075-0.013c4.32 0.1 8.638-0.02 12.96-0.006 c0.429 0 0.9 0 1.3 0.016V99.536z"/>
<g>
	<path opacity="0.75" d="M56 99.521c-0.827 0.001-1.654 0.011-2.483 0.048c-1.106 0.05-2.206-0.062-3.311-0.13 c-0.963-0.061-1.97 0.11-2.932 0.176c-2.03 0.139-4.197-0.008-6.233-0.073c-2.319-0.075-4.624 0.042-6.943 0.1 C31.9 99.6 29.7 99.6 27.5 99.574v0.488c3.017 0.1 6 0.1 9 0.004c2.35-0.099 4.681-0.009 7.031-0.005 c1.137 0 2.3 0 3.4 0.045c1.015 0 2.025-0.18 3.039-0.183c1.013-0.003 2 0.2 3 0.2 c0.98-0.045 1.957-0.09 2.937-0.088V99.521z"/>
	<path opacity="0.75" d="M100.029 73.741c-0.146-2.341-0.075-4.67-0.006-7.013c0.061-2.027-0.087-4.081-0.066-6.114 c0.023-2.338-0.073-4.674 0.083-7.007c0.147-2.207-0.057-4.439 0.006-6.658c0.009-0.316-0.001-0.633-0.005-0.949h-0.527 c0.011 0.3 0 0.5 0 0.764c0.043 0.992-0.083 1.99-0.071 2.983c0.012 1 0.2 2 0.1 3 c-0.297 4.482-0.24 9.055-0.07 13.544c0.075 1.974-0.214 3.961-0.091 5.937c0.14 2.3 0 4.5 0 6.7 c0.042 2.3 0 4.6 0 6.848c-0.009 2 0.2 4 0.1 6.07c-0.077 2.574-0.207 5.123-0.092 7.7 c-4.381 0.074-8.789 0.044-13.166-0.106c-2.005-0.069-4.033 0.084-6.043 0.061c-2.326-0.028-4.647-0.018-6.973 0 c-2.214 0.056-4.435-0.057-6.649-0.061c-2.089-0.004-4.173 0.154-6.265 0.105c-0.085-0.002-0.171-0.004-0.256-0.006v0.481 c1.114 0 2.2 0 3.3 0.013c4.332-0.043 8.659-0.049 12.991-0.095c7.848-0.083 15.7 0.2 23.5 0.1 c-0.2-4.43 0.101-8.859-0.023-13.297c-0.06-2.109 0.028-4.221-0.01-6.33C99.962 78.2 100.2 76 100 73.741z"/>
</g>
<g>
	<path opacity="0.75" d="M11.768 0.442c0.689-0.017 1.377-0.01 2.066-0.009v-0.495c-1.009 0.004-2.019 0.008-3.029 0 c1.616 2.2 3 4.5 4.5 6.765c1.507 2.2 3 4.4 4.5 6.696c-4.303-0.02-8.628-0.024-12.93 0.1 c-2.203 0.058-4.406-0.088-6.612-0.063c-0.434 0.005-0.259 0.467-0.271 0.853c-0.021 0.653-0.041 1.307-0.062 2 c-0.03 1 0 2 0 2.933c0.14 4.427-0.041 8.861-0.033 13.293C-0.061 36.7 0.1 40.9 0 45.1 c-0.026 1.687-0.02 3.375-0.006 5.062h0.52c-0.011-2.763-0.013-5.525 0.036-8.29c0.075-4.259-0.213-8.527-0.115-12.792 c0.051-2.252-0.03-4.489 0.074-6.742c0.093-2.015-0.164-4.043-0.101-6.062c0.017-0.514 0.033-1.027 0.049-1.541 c0.014-0.444-0.16-0.789 0.316-0.794c0.961-0.011 1.916-0.028 2.9 0.014c1.895 0.1 3.8 0 5.7 0 c3.796 0 7.589-0.066 11.385-0.05c-1.465-2.274-2.98-4.508-4.496-6.749C14.714 5 13.4 2.6 11.8 0.442z"/>
	<path opacity="0.75" d="M100.086 33.526c-0.03-2.055-0.201-4.154-0.108-6.207c0.104-2.286-0.074-4.523-0.042-6.805 c0.033-2.376 0.138-4.734 0.098-7.111c-6.583 0.191-13.188 0.081-19.772-0.013c1.419-2.266 2.968-4.426 4.375-6.699 c1.426-2.303 3.106-4.379 4.515-6.694c-2.024-0.002-4.106-0.172-6.123-0.034c-2.337 0.16-4.637 0.123-6.977 0 c-2.172-0.082-4.332 0.017-6.502 0.043c-2.167 0.026-4.341-0.144-6.504-0.034c-3.184 0.162-6.364-0.098-9.551-0.007 c-3.022 0.087-6.085-0.014-9.107-0.113c-4.518 0.245-9.045 0.077-13.57 0.017c-2.032-0.027-4.114-0.014-6.145 0.1 c-2.261 0.095-4.476-0.086-6.731-0.059c-0.411 0.005-0.822 0.003-1.232 0.006v0.536c2.658 0.1 5.3 0.1 8 0 c4.275-0.18 8.6 0.2 12.8 0.007c2.3-0.102 4.6 0 6.888-0.095c4.467 0.1 8.934-0.007 13.4 0.1 c1.083 0 2.2 0.1 3.2 0.097c0.972 0 1.947-0.16 2.919-0.137c2.107 0 4.2 0.1 6.3 0.1 c3.029-0.088 6 0 9.1 0.075c1.417 0 2.831-0.197 4.24-0.164c1.561 0 3.1 0.1 4.7 0.1 c-1.324 2.175-2.945 4.113-4.273 6.297c-1.467 2.412-3.123 4.69-4.623 7.085c6.717 0.1 13.5 0.2 20.2 0 c0.037 2.114-0.074 4.21-0.103 6.323c-0.031 2.3 0.2 4.6 0 6.898c-0.194 4.3 0.3 8.7 0 13 c-0.016 0.229-0.018 0.457-0.028 0.685h0.485c0.004-0.063 0.001-0.126 0.005-0.189C100.12 38.3 100.1 35.9 100.1 33.526z"/>
</g>
</svg>
