<?xml version="1.0" encoding="utf-8"?>
<!-- Generator: Adobe Illustrator 16.0.3, SVG Export Plug-In . SVG Version: 6.00 Build 0)  -->
<!DOCTYPE svg PUBLIC "-//W3C//DTD SVG 1.1//EN" "http://www.w3.org/Graphics/SVG/1.1/DTD/svg11.dtd">
<svg version="1.1" id="Layer_1" xmlns="http://www.w3.org/2000/svg" xmlns:xlink="http://www.w3.org/1999/xlink" x="0px" y="0px"
	 width="62.417px" height="8px" viewBox="0 0 62.417 8" enable-background="new 0 0 62.417 8" xml:space="preserve">
<path opacity="0.75" d="M54.418,0h8v8h-8V0z M61.408,1.01h-5.98v5.98h5.98V1.01z"/>
<path opacity="0.75" d="M10.293,7.997c-0.007-0.016,0.289,0.008,0.754-0.172c0.229-0.091,0.503-0.263,0.678-0.547
	c0.186-0.28,0.152-0.695-0.179-0.934C10.868,5.824,9.66,6.053,8.337,6.099C7.672,6.135,6.965,6.174,6.219,6.215
	C5.473,6.253,4.689,6.204,3.871,6.218c-0.409,0-0.827,0-1.252,0C2.38,6.214,2.249,6.226,1.916,6.209l-0.33-0.04
	c-0.16-0.047-0.328-0.103-0.478-0.172C0.56,5.703,0.229,5.157,0.093,4.624c-0.138-0.54-0.125-1.109,0.067-1.659
	c0.183-0.54,0.635-1.101,1.282-1.289c0.316-0.093,0.652-0.092,0.863-0.09H3.04c0.984,0,1.99,0,3.013,0c4.091,0,8.454,0,12.817,0
	c8.728,0,17.454,0,23.999,0c0.818,0.016,1.603-0.038,2.348,0.009c0.746,0.041,1.453,0.08,2.118,0.116
	c1.329,0.072,2.488,0.136,3.442,0.188c1.91,0.119,3,0.187,3,0.187s-1.09,0.067-3,0.187c-0.954,0.053-2.113,0.116-3.442,0.188
	c-0.665,0.036-1.372,0.075-2.118,0.116c-0.745,0.047-1.529-0.007-2.348,0.009c-6.545,0-15.271,0-23.999,0c-4.363,0-8.727,0-12.817,0
	c-1.022,0-2.028,0-3.013,0c-0.458,0.01-1.075-0.029-1.308,0.047c-0.288,0.086-0.51,0.332-0.63,0.669
	C0.852,3.973,1.087,4.874,1.578,5.114c0.053,0.017,0.094,0.03,0.138,0.063l0.317,0.039C2.23,5.217,2.426,5.217,2.619,5.218
	c0.425,0,0.843,0,1.252,0C4.689,5.23,5.473,5.182,6.219,5.22C6.965,5.261,7.672,5.3,8.337,5.337
	c0.671,0.042,1.272,0.058,1.876,0.115c0.601,0.063,1.184,0.224,1.59,0.608c0.439,0.382,0.401,1.06,0.112,1.348
	c-0.263,0.318-0.583,0.45-0.834,0.517C10.564,8.046,10.294,7.979,10.293,7.997z"/>
<path opacity="0.75" d="M55.88,4.001c0-0.657,0.53-1.185,1.185-1.185s1.185,0.527,1.185,1.185c0,0.655-0.53,1.183-1.185,1.183
	S55.88,4.656,55.88,4.001z"/>
</svg>
