<?xml version="1.0" encoding="utf-8"?>
<!-- Generator: Adobe Illustrator 16.0.3, SVG Export Plug-In . SVG Version: 6.00 Build 0)  -->
<!DOCTYPE svg PUBLIC "-//W3C//DTD SVG 1.1//EN" "http://www.w3.org/Graphics/SVG/1.1/DTD/svg11.dtd">
<svg version="1.1" xmlns="http://www.w3.org/2000/svg" xmlns:xlink="http://www.w3.org/1999/xlink" x="0px" y="0px" width="475px"
	 height="161px" viewBox="0 0 475 161" enable-background="new 0 0 475 161" xml:space="preserve">
<g id="on" display="none">
	<g display="inline">
		<g>
			<line fill="#FFFFFF" x1="404.445" y1="133.965" x2="404.445" y2="147.635"/>
			<path d="M404.445,148.137c-0.277,0-0.5-0.225-0.5-0.502v-13.67c0-0.277,0.224-0.502,0.5-0.502s0.501,0.225,0.501,0.502v13.67
				C404.946,147.912,404.722,148.137,404.445,148.137z"/>
		</g>
		<g>
			<line fill="#FFFFFF" x1="417.274" y1="133.965" x2="417.274" y2="147.635"/>
			<path d="M417.274,148.137c-0.277,0-0.501-0.225-0.501-0.502v-13.67c0-0.277,0.224-0.502,0.501-0.502s0.501,0.225,0.501,0.502
				v13.67C417.775,147.912,417.551,148.137,417.274,148.137z"/>
		</g>
		<g>
			<line fill="#FFFFFF" x1="430.104" y1="133.965" x2="430.104" y2="147.635"/>
			<path d="M430.104,148.137c-0.277,0-0.501-0.225-0.501-0.502v-13.67c0-0.277,0.224-0.502,0.501-0.502s0.5,0.225,0.5,0.502v13.67
				C430.604,147.912,430.381,148.137,430.104,148.137z"/>
		</g>
		<g>
			<line fill="#FFFFFF" x1="442.933" y1="133.965" x2="442.933" y2="147.635"/>
			<path d="M442.933,148.137c-0.277,0-0.5-0.225-0.5-0.502v-13.67c0-0.277,0.224-0.502,0.5-0.502s0.501,0.225,0.501,0.502v13.67
				C443.434,147.912,443.21,148.137,442.933,148.137z"/>
		</g>
		<g>
			<line fill="#FFFFFF" x1="455.763" y1="133.965" x2="455.763" y2="147.635"/>
			<path d="M455.763,148.137c-0.277,0-0.501-0.225-0.501-0.502v-13.67c0-0.277,0.224-0.502,0.501-0.502s0.501,0.225,0.501,0.502
				v13.67C456.264,147.912,456.04,148.137,455.763,148.137z"/>
		</g>
		<g>
			<line fill="#FFFFFF" x1="468.591" y1="133.965" x2="468.591" y2="147.635"/>
			<path d="M468.591,148.137c-0.277,0-0.501-0.225-0.501-0.502v-13.67c0-0.277,0.224-0.502,0.501-0.502s0.5,0.225,0.5,0.502v13.67
				C469.092,147.912,468.868,148.137,468.591,148.137z"/>
		</g>
		<g>
			<line fill="#FFFFFF" x1="481.421" y1="133.965" x2="481.421" y2="147.635"/>
			<path d="M481.421,148.137c-0.275,0-0.5-0.225-0.5-0.502v-13.67c0-0.277,0.225-0.502,0.5-0.502c0.277,0,0.502,0.225,0.502,0.502
				v13.67C481.923,147.912,481.698,148.137,481.421,148.137z"/>
		</g>
		<g>
			<line fill="#FFFFFF" x1="494.251" y1="133.965" x2="494.251" y2="147.635"/>
			<path d="M494.251,148.137c-0.277,0-0.5-0.225-0.5-0.502v-13.67c0-0.277,0.223-0.502,0.5-0.502s0.501,0.225,0.501,0.502v13.67
				C494.752,147.912,494.528,148.137,494.251,148.137z"/>
		</g>
		<g>
			<line fill="#FFFFFF" x1="507.079" y1="133.965" x2="507.079" y2="147.635"/>
			<path d="M507.079,148.137c-0.277,0-0.502-0.225-0.502-0.502v-13.67c0-0.277,0.225-0.502,0.502-0.502c0.276,0,0.5,0.225,0.5,0.502
				v13.67C507.579,147.912,507.355,148.137,507.079,148.137z"/>
		</g>
		<g>
			<line fill="#FFFFFF" x1="519.906" y1="133.965" x2="519.906" y2="147.635"/>
			<path d="M519.906,148.137c-0.275,0-0.5-0.225-0.5-0.502v-13.67c0-0.277,0.225-0.502,0.5-0.502c0.277,0,0.502,0.225,0.502,0.502
				v13.67C520.408,147.912,520.184,148.137,519.906,148.137z"/>
		</g>
		<g>
			<line fill="#FFFFFF" x1="532.736" y1="133.965" x2="532.736" y2="147.635"/>
			<path d="M532.736,148.137c-0.277,0-0.5-0.225-0.5-0.502v-13.67c0-0.277,0.223-0.502,0.5-0.502s0.502,0.225,0.502,0.502v13.67
				C533.238,147.912,533.014,148.137,532.736,148.137z"/>
		</g>
		<g>
			<line fill="#FFFFFF" x1="545.566" y1="133.965" x2="545.566" y2="147.635"/>
			<path d="M545.566,148.137c-0.277,0-0.502-0.225-0.502-0.502v-13.67c0-0.277,0.225-0.502,0.502-0.502c0.275,0,0.5,0.225,0.5,0.502
				v13.67C546.066,147.912,545.842,148.137,545.566,148.137z"/>
		</g>
		<path d="M582.311,153.27H370.265c-0.277,0-0.501-0.225-0.501-0.502c0-0.275,0.224-0.5,0.501-0.5h212.046
			c0.277,0,0.5,0.225,0.5,0.5C582.811,153.045,582.588,153.27,582.311,153.27z"/>
		<path d="M579.746,155.832H365.667c-0.277,0-0.5-0.225-0.5-0.502c0-0.275,0.224-0.5,0.5-0.5h214.079c0.277,0,0.502,0.225,0.502,0.5
			C580.248,155.607,580.023,155.832,579.746,155.832z"/>
		<g>
			<path d="M547.4,72.296c-0.211-0.91-0.633-1.7-1.158-2.322c-1.053-1.25-2.371-1.989-3.695-2.514
				c-1.334-0.519-2.709-0.796-4.086-0.931c-2.773-0.206-5.42,0.092-8.076,0.508c-2.643,0.448-5.236,1.094-7.789,1.853
				c-5.107,1.526-10.053,3.498-14.894,5.669c-4.844,2.176-9.573,4.58-14.236,7.103c-9.344,5.006-18.417,10.498-27.3,16.271
				c-0.348,0.229-0.695,0.457-1.043,0.686V28.633c0-0.356-0.286-0.641-0.641-0.641h-9.4V0.858c0-0.354-0.287-0.645-0.641-0.645
				H0.642c-0.279,0-0.537,0.187-0.617,0.47c-0.096,0.341,0.103,0.694,0.444,0.79l0.007,0.004L7.69,3.506
				c2.4,0.692,4.821,1.316,7.204,2.067l7.155,2.224l3.578,1.115l3.546,1.209l7.091,2.422c2.354,0.831,4.684,1.733,7.028,2.594
				c2.343,0.867,4.686,1.731,6.991,2.691l6.946,2.812l6.868,2.987c2.303,0.968,4.533,2.091,6.804,3.128
				c2.274,1.034,4.505,2.153,6.734,3.276l3.346,1.678l3.302,1.767c2.213,1.15,4.385,2.379,6.549,3.623
				c2.185,1.203,4.29,2.543,6.434,3.814c2.101,1.342,4.213,2.666,6.261,4.085c2.048,1.398,4.097,2.861,5.971,4.412l0.007,0.008
				c0.172,0.142,0.411,0.192,0.634,0.114c4.538-1.595,9.141-3.118,13.724-4.645l13.787-4.489c9.205-2.955,18.43-5.845,27.687-8.629
				l13.902-4.117c4.641-1.352,9.292-2.664,13.95-3.949c2.324-0.659,4.664-1.264,6.996-1.89c2.333-0.63,4.667-1.25,7.011-1.833
				c2.343-0.587,4.678-1.209,7.028-1.765l7.048-1.673c0.281-0.066,0.498-0.322,0.498-0.626c0-0.352-0.287-0.64-0.641-0.64l0,0
				l-15.172,0.155l-15.173,0.092l-30.344,0.016l-30.346-0.183l-7.586-0.049c-2.544,0.006-5.02-0.074-7.635,0.002
				c-1.301,0.059-2.614,0.188-3.951,0.528c-0.67,0.175-1.338,0.427-2.011,0.8c-0.662,0.374-1.337,0.936-1.779,1.761
				c-0.422,0.824-0.569,1.837-0.417,2.712c0.136,0.886,0.476,1.658,0.849,2.37c0.383,0.71,0.854,1.333,1.339,1.935
				c0.25,0.312,0.494,0.571,0.785,0.877c0.316,0.326,0.54,0.548,0.751,0.79c0.313,0.354,0.73,0.642,1.214,0.794
				c1.407,0.44,2.907-0.344,3.35-1.75c0.442-1.407-0.34-2.907-1.749-3.35l-0.059-0.02l-0.829-0.26
				c-0.223-0.063-0.482-0.184-0.707-0.292c-0.474-0.219-0.892-0.509-1.26-0.813c-0.732-0.636-1.153-1.359-1.015-2.007
				c0.133-0.69,1.033-1.455,2.092-1.882c1.074-0.44,2.278-0.687,3.497-0.823c1.22-0.126,2.467-0.124,3.739-0.132l3.794-0.023
				l7.586-0.043l30.346-0.184l30.344,0.018c0,0,13.04,0.403,13.04,1.687c0,1.281-8.648,3.805-10.976,4.466
				c-4.665,1.283-9.32,2.598-13.966,3.951l-13.916,4.12c-9.264,2.789-18.496,5.683-27.708,8.638l-13.798,4.493
				c-4.479,1.491-8.945,2.972-13.416,4.537c-1.885-1.54-3.818-2.919-5.793-4.269c-2.067-1.432-4.193-2.766-6.31-4.116
				c-2.157-1.279-4.276-2.627-6.472-3.838c-2.176-1.248-4.358-2.484-6.582-3.642l-3.318-1.771l-3.361-1.688
				c-2.239-1.129-4.48-2.252-6.76-3.288c-2.28-1.043-4.521-2.172-6.831-3.14l-6.893-3.001l-6.969-2.819
				c-2.314-0.964-4.664-1.828-7.013-2.699c-2.351-0.866-4.689-1.77-7.052-2.604l-7.111-2.43c0,0-3.996-1.529-3.996-4.362
				c0-2.83,3.845-3.046,3.845-3.046H453.8v26.496h-32.69c-0.228,0.002-0.453,0.124-0.566,0.341
				c-0.166,0.313-0.045,0.698,0.268,0.864c1.787,0.965,3.522,2.027,5.2,3.182c1.666,1.171,3.284,2.411,4.842,3.729
				c3.111,2.644,6.009,5.54,8.73,8.592c2.714,3.063,5.265,6.275,7.649,9.604c2.38,3.328,4.643,6.774,6.644,10.315l0.006,0.01
				c0.109,0.191,0.318,0.32,0.558,0.32c0.354,0,0.641-0.283,0.641-0.64V29.275h8.759v70.186c-3.657,2.393-7.306,4.799-10.906,7.281
				c-4.364,3.006-8.693,6.055-12.981,9.188l-0.002,0.004c-0.154,0.117-0.255,0.305-0.253,0.512c0,0.352,0.287,0.641,0.641,0.641
				h24.143c0.354,0,0.641-0.289,0.641-0.641V99.586c0.494-0.326,0.98-0.662,1.476-0.986c8.862-5.773,17.901-11.285,27.223-16.275
				c4.676-2.465,9.418-4.805,14.259-6.914c4.836-2.104,9.77-4.005,14.826-5.454c2.529-0.718,5.088-1.324,7.672-1.731
				c2.566-0.365,5.23-0.653,7.738-0.385c1.25,0.16,2.475,0.528,3.551,1.107c1.076,0.564,2.006,1.404,2.475,2.331
				c0.934,1.966-0.58,3.196-2.736,3.637c-0.49,0.096-0.957,0.333-1.344,0.704c-1.07,1.037-1.098,2.746-0.063,3.818
				c1.039,1.074,2.748,1.102,3.82,0.064l0.16-0.152c1.188-1.15,2.432-2.412,3.047-4.237C547.521,74.215,547.613,73.208,547.4,72.296
				z M453.119,58.652c-0.962,0.372-2.894-2.365-4.844-5.092c-2.408-3.364-4.985-6.609-7.732-9.708
				c-2.756-3.093-5.694-6.033-8.861-8.723c-1.586-1.34-3.574-2.758-3.2-4.039c0.588-1.979,3.098-1.815,3.098-1.815H453.8v24.42
				C453.8,53.695,454.08,58.277,453.119,58.652z M463.841,115.803h-12.711c0,0-2.458-0.135-3.446-1.629
				c-0.989-1.496,2.12-3.988,2.12-3.988s2.457-1.77,3.691-2.641c3.419-2.41,6.867-4.781,10.347-7.1V115.803z"/>
			<path d="M474.952,126.484h-61.291c0,0,1.12-2.564,0.078-3.605c-1.041-1.041-3.152-0.988-3.152-0.988l29.564-29.566
				c0.114-0.115,0.19-0.277,0.191-0.453c0.001-0.352-0.285-0.637-0.636-0.639l-10.977-0.045l-10.977,0.135
				c-7.317,0.164-14.631,0.389-21.938,0.75c-3.657,0.141-7.307,0.391-10.959,0.6c-3.654,0.195-7.302,0.451-10.95,0.73
				c-7.3,0.504-14.587,1.156-21.872,1.844l-10.917,1.102L330.21,97.57c-7.262,0.883-14.521,1.785-21.766,2.809
				c-3.627,0.473-7.241,1.039-10.86,1.566c-3.622,0.521-7.234,1.088-10.845,1.676c-7.227,1.135-14.435,2.391-21.635,3.686
				c-7.201,1.295-14.381,2.697-21.554,4.137l-10.742,2.248l-10.714,2.379c-7.13,1.641-14.247,3.342-21.336,5.152
				c-7.089,1.814-14.154,3.723-21.188,5.742c-7.034,2.02-14.03,4.176-20.993,6.438l-10.396,3.541
				c-3.431,1.275-6.897,2.457-10.301,3.811c-3.411,1.332-6.828,2.65-10.188,4.113c-3.393,1.381-6.712,2.938-10.044,4.467
				c-6.606,3.174-13.12,6.578-19.293,10.584c-0.173,0.115-0.292,0.318-0.292,0.543c0.002,0.354,0.29,0.637,0.644,0.635h153.83
				c0.355,0,0.641-0.285,0.641-0.641v-34.291c0-0.102-0.025-0.211-0.076-0.305c-0.169-0.311-0.557-0.426-0.867-0.26l-0.005,0.002
				c-2.513,1.59-4.994,3.158-7.45,4.795c-2.453,1.631-4.883,3.309-7.192,5.166c-1.155,0.93-2.292,1.895-3.338,2.98
				c-0.533,0.531-1.021,1.117-1.497,1.723c-0.466,0.615-0.93,1.258-1.274,2.016c-0.399,0.721-0.601,1.623-0.613,2.598
				c0.087,0.469,0.096,1.021,0.34,1.455l0.319,0.695c0.129,0.209,0.283,0.389,0.423,0.594c0.284,0.432,0.616,0.736,0.958,1.051
				c0.347,0.34,0.69,0.613,1.049,0.875c0.728,0.574,1.438,0.979,2.187,1.516c0.501,0.361,1.129,0.561,1.792,0.512
				c1.505-0.107,2.639-1.412,2.531-2.916c-0.105-1.504-1.412-2.639-2.917-2.531h-0.022c-0.631,0.045-1.365,0.104-1.936-0.02
				c-0.312-0.039-0.636-0.074-0.877-0.182c-0.272-0.088-0.562-0.174-0.76-0.311c-0.517-0.232-0.744-0.602-0.987-1.047
				c-0.111-0.484-0.18-1.086,0.036-1.707c0.161-0.623,0.471-1.248,0.841-1.838c0.364-0.596,0.802-1.16,1.268-1.699
				c0.93-1.09,2.145-2.129,3.245-3.084c2.185-1.922,4.365-3.521,6.825-5.109c0.839-0.537,2.549-1.605,2.549-1.605
				s-0.48,2.244,1.015,3.207c1.496,0.961,3.151,0.428,3.151,0.428v26.652H100.965c5.54-3.451,11.339-6.49,17.231-9.322
				c3.315-1.521,6.617-3.068,9.995-4.447c3.347-1.453,6.75-2.768,10.151-4.094c3.391-1.348,6.847-2.527,10.269-3.799l10.367-3.533
				c6.945-2.254,13.925-4.406,20.946-6.424c7.02-2.016,14.074-3.92,21.15-5.73c7.08-1.807,14.185-3.506,21.305-5.145l10.7-2.377
				l10.726-2.246c7.165-1.434,14.336-2.836,21.527-4.131c7.193-1.291,14.391-2.547,21.61-3.678
				c3.605-0.588,7.215-1.152,10.831-1.674c3.615-0.531,7.225-1.096,10.847-1.566c7.235-1.021,14.486-1.922,21.74-2.809l10.893-1.217
				l10.903-1.102c7.275-0.686,14.554-1.336,21.842-1.844c3.643-0.273,7.287-0.533,10.935-0.727
				c3.647-0.211,7.291-0.459,10.941-0.598c7.298-0.359,14.6-0.584,21.903-0.75l10.956-0.135c0,0-1.667,2.664-0.573,4.213
				c1.095,1.547,3.926,1.895,3.926,1.895l-28.095,28.096c-0.114,0.115-0.188,0.277-0.188,0.453c0,0.355,0.288,0.643,0.64,0.643
				h70.507c0.354,0,0.641-0.287,0.641-0.643C475.592,126.773,475.305,126.484,474.952,126.484z"/>
			<path d="M114.579,46.655c-0.233-2.26-2.12-4.027-4.44-4.027c-1.797,0-3.336,1.064-4.052,2.588
				c1.341,0.948,2.663,1.933,3.96,2.993C111.558,47.678,113.068,47.169,114.579,46.655z"/>
			<path d="M251.897,155.555c-2.319,0.057-4.185,1.932-4.213,4.26h4.213V155.555z"/>
		</g>
		<g>
			<path d="M402.773,75.113c0.616,1.825,1.86,3.087,3.047,4.237l0.16,0.152c1.072,1.037,2.782,1.01,3.818-0.064
				c1.039-1.072,1.009-2.781-0.063-3.818c-0.386-0.371-0.852-0.608-1.342-0.704c-2.156-0.44-3.67-1.671-2.736-3.637
				c0.471-0.927,1.399-1.767,2.477-2.331c1.074-0.579,2.301-0.947,3.552-1.107c2.504-0.269,5.171,0.02,7.737,0.385
				c2.584,0.407,5.143,1.014,7.668,1.731c5.058,1.449,9.99,3.351,14.831,5.454c4.84,2.108,9.582,4.448,14.258,6.914
				c9.321,4.99,18.36,10.502,27.221,16.275c0.494,0.324,0.98,0.66,1.478,0.986v16.859c0,0.352,0.284,0.641,0.64,0.641h24.143
				c0.355,0,0.641-0.289,0.641-0.641c0.004-0.207-0.102-0.395-0.254-0.512l-0.002-0.004c-4.287-3.133-8.617-6.182-12.98-9.188
				c-3.6-2.482-7.25-4.889-10.904-7.281V29.275h8.758v35.036c0,0.356,0.289,0.64,0.64,0.64c0.241,0,0.449-0.129,0.559-0.32
				l0.006-0.01c2-3.541,4.265-6.987,6.644-10.315c2.385-3.329,4.936-6.541,7.65-9.604c2.722-3.052,5.618-5.948,8.729-8.592
				c1.559-1.318,3.178-2.559,4.844-3.729c1.676-1.154,3.412-2.217,5.197-3.182c0.316-0.166,0.436-0.551,0.27-0.864
				c-0.115-0.217-0.342-0.339-0.568-0.341h-32.688V1.497H920.57c0,0,3.844,0.216,3.844,3.046c0,2.833-3.996,4.362-3.996,4.362
				l-7.111,2.43c-2.363,0.834-4.699,1.737-7.051,2.604c-2.35,0.871-4.699,1.735-7.014,2.699l-6.969,2.819l-6.893,3.001
				c-2.313,0.968-4.553,2.097-6.832,3.14c-2.281,1.036-4.521,2.159-6.76,3.288l-3.361,1.688l-3.318,1.771
				c-2.223,1.157-4.406,2.394-6.582,3.642c-2.195,1.211-4.314,2.559-6.473,3.838c-2.115,1.351-4.242,2.685-6.309,4.116
				c-1.977,1.35-3.91,2.729-5.793,4.269c-4.471-1.565-8.936-3.046-13.418-4.537l-13.795-4.493
				c-9.213-2.955-18.445-5.849-27.709-8.638l-13.916-4.12c-4.646-1.354-9.301-2.668-13.967-3.951
				c-2.326-0.661-10.975-3.185-10.975-4.466c0-1.283,13.039-1.687,13.039-1.687l30.346-0.018l30.346,0.184l7.586,0.043l3.793,0.023
				c1.271,0.008,2.52,0.006,3.74,0.132c1.219,0.137,2.424,0.383,3.494,0.823c1.063,0.427,1.963,1.191,2.094,1.882
				c0.139,0.647-0.283,1.371-1.016,2.007c-0.367,0.305-0.785,0.595-1.26,0.813c-0.225,0.108-0.484,0.229-0.705,0.292l-0.83,0.26
				l-0.057,0.02c-1.41,0.442-2.193,1.942-1.75,3.35c0.443,1.406,1.943,2.19,3.35,1.75c0.486-0.152,0.902-0.439,1.215-0.794
				c0.211-0.242,0.434-0.464,0.75-0.79c0.293-0.306,0.535-0.565,0.785-0.877c0.486-0.602,0.957-1.225,1.338-1.935
				c0.373-0.712,0.715-1.484,0.85-2.37c0.152-0.875,0.004-1.888-0.416-2.712c-0.441-0.825-1.115-1.387-1.777-1.761
				c-0.674-0.373-1.342-0.625-2.014-0.8c-1.336-0.34-2.648-0.47-3.949-0.528c-2.615-0.076-5.092,0.004-7.635-0.002l-7.586,0.049
				l-30.346,0.183l-30.346-0.016l-15.17-0.092l-15.174-0.155h-0.002c-0.352,0-0.641,0.288-0.641,0.64
				c0,0.304,0.219,0.56,0.498,0.626l7.049,1.673c2.35,0.556,4.686,1.178,7.029,1.765c2.344,0.583,4.678,1.203,7.01,1.833
				c2.334,0.626,4.67,1.23,6.996,1.89c4.658,1.285,9.309,2.598,13.949,3.949l13.904,4.117c9.256,2.784,18.48,5.674,27.686,8.629
				l13.787,4.489c4.582,1.526,9.186,3.05,13.723,4.645c0.225,0.078,0.463,0.027,0.637-0.114l0.006-0.008
				c1.875-1.551,3.922-3.014,5.971-4.412c2.047-1.419,4.16-2.743,6.262-4.085c2.143-1.271,4.25-2.611,6.434-3.814
				c2.166-1.244,4.336-2.473,6.549-3.623l3.303-1.767l3.348-1.678c2.229-1.123,4.459-2.242,6.732-3.276
				c2.27-1.037,4.502-2.16,6.805-3.128l6.867-2.987l6.947-2.812c2.305-0.96,4.648-1.824,6.99-2.691
				c2.342-0.86,4.674-1.763,7.027-2.594l7.092-2.422l3.547-1.209l3.576-1.115l7.158-2.224c2.379-0.751,4.801-1.375,7.201-2.067
				l7.215-2.029l0.008-0.004c0.342-0.096,0.541-0.449,0.443-0.79c-0.08-0.283-0.336-0.47-0.617-0.47H495.559
				c-0.351,0-0.64,0.29-0.64,0.645v27.135h-9.4c-0.355,0-0.64,0.284-0.64,0.641v69.986c-0.349-0.229-0.696-0.457-1.044-0.686
				c-8.883-5.773-17.955-11.266-27.302-16.271c-4.661-2.523-9.391-4.927-14.234-7.103c-4.842-2.171-9.79-4.143-14.895-5.669
				c-2.554-0.759-5.147-1.404-7.79-1.853c-2.656-0.416-5.303-0.714-8.076-0.508c-1.378,0.135-2.752,0.412-4.086,0.931
				c-1.325,0.524-2.643,1.264-3.697,2.514c-0.526,0.622-0.949,1.412-1.159,2.322C402.387,73.208,402.478,74.215,402.773,75.113z
				 M496.201,53.695v-24.42h22.219c0,0,2.512-0.163,3.098,1.815c0.375,1.281-1.613,2.699-3.199,4.039
				c-3.166,2.689-6.105,5.63-8.86,8.723c-2.745,3.099-5.322,6.344-7.73,9.708c-1.952,2.727-3.885,5.464-4.846,5.092
				C495.921,58.277,496.201,53.695,496.201,53.695z M486.161,100.445c3.479,2.318,6.927,4.689,10.346,7.1
				c1.232,0.871,3.689,2.641,3.689,2.641s3.111,2.492,2.121,3.988c-0.988,1.494-3.443,1.629-3.443,1.629h-12.713V100.445z"/>
			<path d="M475.048,126.484h61.292c0,0-1.121-2.564-0.082-3.605c1.043-1.041,3.154-0.988,3.154-0.988L509.85,92.324
				c-0.114-0.115-0.192-0.277-0.192-0.453c-0.002-0.352,0.283-0.637,0.637-0.639l10.978-0.045l10.975,0.135
				c7.316,0.164,14.631,0.389,21.939,0.75c3.656,0.141,7.307,0.391,10.959,0.6c3.654,0.195,7.303,0.451,10.949,0.73
				c7.299,0.504,14.588,1.156,21.871,1.844l10.918,1.102l10.908,1.223c7.26,0.883,14.52,1.785,21.764,2.809
				c3.629,0.473,7.242,1.039,10.861,1.566c3.621,0.521,7.234,1.088,10.844,1.676c7.229,1.135,14.436,2.391,21.637,3.686
				c7.197,1.295,14.381,2.697,21.553,4.137l10.742,2.248l10.713,2.379c7.131,1.641,14.248,3.342,21.338,5.152
				c7.088,1.814,14.152,3.723,21.188,5.742s14.029,4.176,20.992,6.438l10.395,3.541c3.432,1.275,6.898,2.457,10.301,3.811
				c3.412,1.332,6.828,2.65,10.189,4.113c3.395,1.381,6.711,2.938,10.045,4.467c6.605,3.174,13.119,6.578,19.293,10.584
				c0.172,0.115,0.291,0.318,0.289,0.543c-0.002,0.354-0.289,0.637-0.643,0.635h-153.83c-0.354,0-0.641-0.285-0.641-0.641v-34.291
				c0-0.102,0.025-0.211,0.076-0.305c0.168-0.311,0.557-0.426,0.867-0.26l0.006,0.002c2.514,1.59,4.994,3.158,7.449,4.795
				c2.453,1.631,4.883,3.309,7.191,5.166c1.156,0.93,2.293,1.895,3.342,2.98c0.531,0.531,1.018,1.117,1.494,1.723
				c0.467,0.615,0.932,1.258,1.273,2.016c0.4,0.721,0.604,1.623,0.613,2.598c-0.086,0.469-0.094,1.021-0.34,1.455l-0.318,0.695
				c-0.127,0.209-0.281,0.389-0.424,0.594c-0.283,0.432-0.617,0.736-0.959,1.051c-0.346,0.34-0.689,0.613-1.049,0.875
				c-0.727,0.574-1.436,0.979-2.184,1.516c-0.504,0.361-1.131,0.561-1.795,0.512c-1.504-0.107-2.637-1.412-2.529-2.916
				c0.104-1.504,1.412-2.639,2.916-2.531h0.021c0.631,0.045,1.365,0.104,1.938-0.02c0.311-0.039,0.635-0.074,0.875-0.182
				c0.273-0.088,0.563-0.174,0.762-0.311c0.516-0.232,0.742-0.602,0.986-1.047c0.111-0.484,0.18-1.086-0.035-1.707
				c-0.162-0.623-0.473-1.248-0.846-1.838c-0.361-0.596-0.797-1.16-1.266-1.699c-0.93-1.09-2.146-2.129-3.244-3.084
				c-2.186-1.922-4.365-3.521-6.828-5.109c-0.836-0.537-2.547-1.605-2.547-1.605s0.48,2.244-1.014,3.207
				c-1.496,0.961-3.15,0.428-3.15,0.428v26.652h150.932c-5.541-3.451-11.34-6.49-17.232-9.322c-3.314-1.521-6.615-3.068-9.996-4.447
				c-3.344-1.453-6.75-2.768-10.148-4.094c-3.393-1.348-6.85-2.527-10.27-3.799l-10.367-3.533
				c-6.947-2.254-13.926-4.406-20.945-6.424c-7.023-2.016-14.074-3.92-21.152-5.73c-7.078-1.807-14.182-3.506-21.303-5.145
				l-10.699-2.377l-10.727-2.246c-7.164-1.434-14.338-2.836-21.529-4.131c-7.191-1.291-14.389-2.547-21.607-3.678
				c-3.609-0.588-7.215-1.152-10.832-1.674c-3.615-0.531-7.225-1.096-10.848-1.566c-7.236-1.021-14.486-1.922-21.74-2.809
				l-10.893-1.217l-10.904-1.102c-7.273-0.686-14.553-1.336-21.842-1.844c-3.643-0.273-7.285-0.533-10.934-0.727
				c-3.646-0.211-7.293-0.459-10.943-0.598c-7.295-0.359-14.598-0.584-21.9-0.75l-10.957-0.135c0,0,1.666,2.664,0.574,4.213
				c-1.096,1.547-3.928,1.895-3.928,1.895l28.096,28.096c0.115,0.115,0.188,0.277,0.188,0.453c0,0.355-0.287,0.643-0.643,0.643
				h-70.504c-0.353,0-0.641-0.287-0.641-0.643C474.407,126.773,474.696,126.484,475.048,126.484z"/>
			<path d="M835.422,46.655c0.23-2.26,2.119-4.027,4.441-4.027c1.795,0,3.334,1.064,4.049,2.588
				c-1.342,0.948-2.662,1.933-3.959,2.993C838.441,47.678,836.932,47.169,835.422,46.655z"/>
			<path d="M698.104,155.555c2.318,0.057,4.184,1.932,4.213,4.26h-4.213V155.555z"/>
		</g>
		<path d="M595.727,32.672c0.535-4.175-1.58-6.564-6.348-7.179l0.238-1.827l17.781,2.292c0.535,0.066,1.08,0.556,1.637,1.46
			c0.563,0.903,0.902,1.365,1.025,1.383c3.412-1.782,6.76-2.463,10.049-2.038c15.496,1.995,22.516,8.63,21.064,19.901l-2.873,22.311
			c-0.541,4.168,1.576,6.561,6.344,7.175l-0.232,1.827l-27.863-3.588l0.238-1.825c4.271,0.548,6.672-1.262,7.211-5.432l2.76-21.416
			c1.369-10.651-0.922-16.359-6.881-17.128c-3.066-0.397-6.232,0.322-9.494,2.146c-0.012,0.757-0.131,2.017-0.355,3.781
			l-3.906,30.313c-0.537,4.173,1.328,6.531,5.602,7.083l-0.234,1.825l-27.859-3.59l0.236-1.825c4.766,0.615,7.418-1.163,7.955-5.334
			L595.727,32.672z"/>
		<path d="M684.557,80.909c4.109-1.471,7.559-3.768,10.352-6.881l1.373,1.24c-2.947,3.28-6.648,5.742-11.104,7.386
			c-3.828,1.418-8.701,1.631-14.605,0.643c-8.053-1.346-13.879-4.42-17.473-9.224c-3.59-4.803-4.736-11.098-3.438-18.881
			c1.299-7.761,4.451-13.336,9.465-16.729c4.971-3.37,11.453-4.394,19.447-3.056c7.982,1.332,13.779,4.403,17.396,9.214
			c3.637,4.836,4.809,11.133,3.512,18.895l-35.586-5.944c-1.508,9.018-1.98,14.603-1.426,16.754c1.033,4.008,3.834,6.395,8.406,7.16
			C676.375,82.402,680.936,82.209,684.557,80.909z M685.553,59.321c1.338-7.992,1.719-13.031,1.152-15.105
			c-1.064-3.9-3.875-6.229-8.434-6.991c-4.521-0.757-7.68,0.272-9.471,3.085c-1.828,2.882-3.361,8.03-4.6,15.444L685.553,59.321z"/>
		<path d="M744.762,94.635l-0.363,1.803l-27.531-5.545l0.363-1.805c2.895,0.469,4.502-0.102,4.826-1.707
			c0.123-0.615,0.059-1.375-0.193-2.279l-3.279-11.863l-10.063,9.173c-1.063,0.959-1.666,1.805-1.813,2.527
			c-0.26,1.301,0.939,2.217,3.604,2.758l0.293,0.059l-0.363,1.801l-14.283-2.877l0.365-1.801c1.842,0.369,3.152,0.57,3.939,0.602
			c1.498-0.018,3.621-1.287,6.377-3.809l11.41-10.438l-6.07-21.96c-0.549-1.964-1.387-3.573-2.514-4.835
			c-0.699-0.779-1.99-1.36-3.881-1.739l0.363-1.804l16.781,3.38c2.02,0.509,3.672,3.106,4.961,7.796l2.928,10.665l8.85-8.293
			c1.213-1.132,1.83-1.762,1.857-1.885c0.342-1.704-1.07-2.876-4.234-3.516l0.363-1.802l14.279,2.876l-0.361,1.803
			c-1.875-0.377-3.531-0.373-4.965,0.018c-1.613,0.54-3.295,1.626-5.037,3.254l-10.193,9.532l6.398,23.178
			C738.613,91.633,741.006,93.877,744.762,94.635z"/>
		<path d="M806.963,63.11l-1.664,13.325l-1.834-0.248c0.717-7.847-2.816-12.705-10.602-14.581l-2.775-0.669l-8.648,35.885
			c-0.99,4.096,0.855,6.703,5.533,7.832l-0.43,1.791l-28.066-6.768l0.43-1.789c4.678,1.129,7.51-0.352,8.5-4.449l8.646-35.887
			l-2.775-0.669c-7.785-1.876-13.145,0.842-16.08,8.149l-1.746-0.614l4.588-12.621L806.963,63.11z"/>
		<g>
			<path d="M588.736,62.588c0,0,1.246-9.184,2.492-18.369c0.313-2.295,0.623-4.592,0.916-6.744c0.146-1.076,0.287-2.117,0.42-3.104
				c0.125-0.987,0.283-1.919,0.355-2.78c0.078-0.857-0.178-1.684-0.734-2.132c-0.529-0.467-1.133-0.668-1.613-0.809
				c-0.486-0.142-0.879-0.214-1.146-0.255c-0.268-0.043-0.41-0.066-0.41-0.066s0.143,0.021,0.41,0.061
				c0.27,0.037,0.664,0.104,1.152,0.239c0.484,0.136,1.094,0.328,1.637,0.796c0.576,0.446,0.854,1.301,0.783,2.17
				c-0.061,0.873-0.207,1.801-0.316,2.791c-0.121,0.988-0.248,2.031-0.381,3.109c-0.262,2.156-0.543,4.456-0.822,6.756
				c-1.123,9.201-2.246,18.401-2.246,18.401L588.736,62.588z"/>
			<polygon points="611.377,76.854 582.971,72.944 611.441,76.357 			"/>
			<polygon points="643.15,80.944 617.453,77.384 643.215,80.448 			"/>
			<path d="M620.518,23.679c0,0,1.023,0.169,2.816,0.466c0.9,0.116,1.979,0.401,3.219,0.693c1.252,0.248,2.6,0.756,4.094,1.225
				c1.453,0.586,3.031,1.227,4.578,2.151l0.596,0.328l0.563,0.396c0.379,0.266,0.76,0.534,1.146,0.806
				c0.402,0.253,0.725,0.616,1.094,0.925c0.35,0.333,0.748,0.621,1.064,0.999c1.363,1.422,2.486,3.146,3.303,5.039
				c0.822,1.898,1.193,3.995,1.305,6.073c0.117,2.088-0.148,4.175-0.434,6.192c-0.27,2.026-0.533,4.021-0.789,5.95
				c-0.512,3.86-0.99,7.464-1.4,10.552c-0.191,1.544-0.42,2.959-0.529,4.215c-0.004,0.314-0.051,0.624-0.02,0.914
				c0.066,0.284,0.059,0.58,0.182,0.823c0.164,0.533,0.627,0.83,0.988,1.077c0.203,0.102,0.395,0.196,0.574,0.287
				c0.188,0.076,0.373,0.119,0.541,0.175c0.334,0.116,0.625,0.183,0.867,0.215c0.479,0.087,0.734,0.133,0.734,0.133
				s-0.256-0.044-0.736-0.127c-0.242-0.031-0.533-0.096-0.869-0.209c-0.168-0.054-0.355-0.096-0.543-0.171
				c-0.182-0.089-0.375-0.186-0.58-0.285c-0.363-0.244-0.834-0.541-1.008-1.081c-0.127-0.248-0.121-0.548-0.189-0.836
				c-0.033-0.294,0.01-0.602,0.014-0.917c0.098-1.265,0.318-2.676,0.498-4.223c0.387-3.092,0.838-6.698,1.32-10.562
				c0.24-1.932,0.49-3.929,0.744-5.957c0.27-2.027,0.516-4.089,0.385-6.152c-0.125-2.054-0.506-4.113-1.328-5.973
				c-0.816-1.851-1.93-3.532-3.277-4.915c-0.311-0.369-0.705-0.648-1.051-0.973c-0.365-0.299-0.682-0.654-1.08-0.899
				c-0.381-0.265-0.76-0.525-1.133-0.783l-0.555-0.385l-0.59-0.319c-1.529-0.898-3.092-1.518-4.529-2.086
				c-1.48-0.453-2.816-0.944-4.055-1.179c-1.225-0.279-2.283-0.554-3.189-0.664c-1.795-0.282-2.82-0.443-2.82-0.443L620.518,23.679z
				"/>
			<polygon points="587.184,20.221 607.764,23.123 587.119,20.718 			"/>
			<path d="M620.914,66.736c0,0,0.371-2.748,0.926-6.871c0.275-2.062,0.6-4.467,0.945-7.043c0.174-1.289,0.354-2.62,0.535-3.973
				c0.176-1.353,0.381-2.729,0.537-4.101c0.172-1.378,0.285-2.755,0.318-4.113c0.01-1.357-0.014-2.704-0.254-3.977
				c-0.229-1.266-0.609-2.486-1.305-3.443c-0.672-0.978-1.725-1.553-2.744-1.699c-0.506-0.094-1.012-0.088-1.482-0.135
				c-0.465-0.015-0.92,0.04-1.34,0.055c-0.834,0.118-1.555,0.262-2.133,0.454c-0.59,0.144-1.018,0.361-1.324,0.47
				c-0.303,0.118-0.465,0.182-0.465,0.182s0.16-0.065,0.463-0.188c0.305-0.11,0.73-0.334,1.32-0.485
				c0.576-0.198,1.299-0.351,2.137-0.479c0.424-0.019,0.867-0.078,1.346-0.068c0.475,0.041,0.971,0.028,1.492,0.118
				c1.033,0.136,2.127,0.715,2.824,1.707c0.721,0.972,1.121,2.206,1.367,3.484c0.256,1.284,0.295,2.64,0.301,4.008
				c-0.018,1.37-0.115,2.762-0.271,4.137c-0.145,1.385-0.332,2.755-0.492,4.112c-0.168,1.354-0.33,2.688-0.49,3.978
				c-0.316,2.581-0.613,4.989-0.867,7.054c-0.508,4.129-0.846,6.882-0.846,6.882L620.914,66.736z"/>
		</g>
		<g>
			<path d="M657.393,35.882c0,0,0.223-0.136,0.641-0.393c0.412-0.26,1.02-0.642,1.861-1.042c0.412-0.218,0.873-0.442,1.393-0.638
				c0.516-0.208,1.064-0.456,1.682-0.632c0.611-0.195,1.258-0.418,1.963-0.563c0.352-0.083,0.709-0.168,1.078-0.255
				c0.371-0.063,0.752-0.125,1.141-0.189c1.559-0.27,3.258-0.359,5.074-0.379c0.896,0.044,1.816,0.089,2.756,0.136
				c0.941,0.036,1.9,0.225,2.877,0.334c0.98,0.101,1.965,0.308,2.943,0.518c0.494,0.103,0.99,0.206,1.488,0.312
				c0.49,0.14,0.986,0.28,1.482,0.422c0.496,0.145,0.994,0.288,1.492,0.433l1.463,0.55c0.484,0.193,0.988,0.343,1.457,0.575
				l1.416,0.682c0.967,0.413,1.826,1.026,2.729,1.55c0.887,0.547,1.674,1.237,2.508,1.844c1.521,1.39,2.947,2.854,4.016,4.509
				c0.268,0.408,0.535,0.814,0.799,1.215c0.246,0.414,0.439,0.854,0.658,1.272c0.207,0.426,0.438,0.835,0.617,1.259
				c0.158,0.434,0.314,0.862,0.469,1.284c0.143,0.426,0.33,0.831,0.432,1.256s0.203,0.843,0.305,1.253
				c0.094,0.411,0.211,0.813,0.283,1.212c0.055,0.404,0.107,0.801,0.16,1.189c0.273,1.548,0.223,2.992,0.297,4.262
				c-0.074,1.27-0.1,2.381-0.193,3.288c-0.24,1.81-0.379,2.845-0.379,2.845s0.131-1.035,0.357-2.847
				c0.086-0.908,0.104-2.019,0.168-3.287c-0.082-1.267-0.043-2.708-0.328-4.25c-0.055-0.386-0.111-0.781-0.17-1.184
				c-0.074-0.398-0.193-0.797-0.289-1.206c-0.104-0.408-0.207-0.823-0.314-1.245c-0.102-0.422-0.293-0.824-0.438-1.247
				c-0.156-0.418-0.316-0.843-0.477-1.273c-0.182-0.419-0.412-0.823-0.619-1.243c-0.221-0.413-0.416-0.847-0.662-1.257
				c-0.266-0.398-0.537-0.802-0.809-1.207c-0.504-0.848-1.195-1.55-1.836-2.325c-0.65-0.764-1.451-1.399-2.18-2.116
				c-0.83-0.596-1.615-1.273-2.5-1.809c-0.898-0.513-1.752-1.115-2.715-1.518l-1.408-0.665c-0.467-0.226-0.969-0.37-1.449-0.56
				l-1.455-0.534c-0.494-0.14-0.988-0.278-1.48-0.416s-0.982-0.273-1.469-0.408c-0.5-0.101-0.996-0.2-1.488-0.3
				c-0.992-0.205-1.955-0.399-2.924-0.491c-0.969-0.101-1.906-0.281-2.85-0.311c-0.939-0.039-1.861-0.078-2.756-0.115
				c-1.766,0.033-3.465,0.134-4.99,0.413c-0.383,0.065-0.758,0.13-1.123,0.193c-0.361,0.088-0.713,0.175-1.057,0.26
				c-0.693,0.147-1.326,0.371-1.924,0.568c-0.607,0.176-1.143,0.424-1.646,0.631c-0.51,0.196-0.955,0.418-1.35,0.631
				c-0.807,0.388-1.414,0.775-1.826,1.04c-0.414,0.259-0.635,0.397-0.635,0.397L657.393,35.882z"/>
			<path d="M698.584,77.356c0,0-0.6,0.583-1.65,1.603c-0.262,0.255-0.553,0.537-0.869,0.845c-0.334,0.29-0.736,0.566-1.143,0.881
				c-0.844,0.593-1.707,1.398-2.838,1.97c-1.104,0.613-2.244,1.383-3.605,1.887c-0.666,0.287-1.348,0.578-2.045,0.879
				c-0.725,0.271-1.459,0.461-2.209,0.703c-0.779,0.15-1.566,0.336-2.369,0.463c-0.807,0.08-1.621,0.211-2.447,0.25
				c-0.828,0.012-1.656,0.088-2.5,0.045c-0.832-0.041-1.668-0.084-2.504-0.127c-0.836-0.02-1.666-0.199-2.496-0.289
				c-0.822-0.127-1.666-0.184-2.467-0.377c-0.807-0.168-1.605-0.334-2.395-0.498c-0.785-0.199-1.551-0.436-2.309-0.646
				c-0.764-0.189-1.479-0.486-2.189-0.748c-0.705-0.271-1.41-0.504-2.047-0.842c-0.648-0.314-1.279-0.619-1.889-0.914
				c-0.58-0.354-1.139-0.691-1.676-1.02c-0.551-0.303-1.018-0.687-1.475-1.032c-0.451-0.353-0.896-0.664-1.283-0.997
				c-0.73-0.712-1.402-1.3-1.895-1.84c-0.938-1.125-1.473-1.768-1.473-1.768s0.541,0.638,1.488,1.753
				c0.498,0.535,1.174,1.116,1.908,1.82c0.389,0.327,0.838,0.635,1.291,0.981c0.459,0.341,0.926,0.718,1.48,1.017
				c0.537,0.32,1.098,0.652,1.678,0.998c0.611,0.289,1.242,0.588,1.891,0.895c0.639,0.332,1.342,0.557,2.049,0.818
				c0.709,0.256,1.424,0.543,2.186,0.727c0.756,0.201,1.518,0.428,2.299,0.621c0.791,0.156,1.592,0.314,2.4,0.473
				c0.807,0.189,1.625,0.232,2.449,0.354c0.828,0.082,1.645,0.252,2.484,0.262c0.836,0.035,1.672,0.07,2.504,0.105
				c0.82,0.033,1.652-0.051,2.469-0.068c0.818-0.047,1.621-0.184,2.418-0.27c0.789-0.133,1.555-0.32,2.314-0.475
				c0.74-0.244,1.5-0.451,2.184-0.717c0.688-0.303,1.359-0.598,2.014-0.887c1.342-0.51,2.461-1.283,3.545-1.896
				c1.113-0.576,1.943-1.371,2.762-1.957c0.396-0.312,0.783-0.579,1.111-0.869c0.314-0.311,0.602-0.596,0.861-0.853
				c1.041-1.03,1.635-1.619,1.635-1.619L698.584,77.356z"/>
			<path d="M666.51,60.896c0,0-0.1,0.693-0.273,1.906c-0.086,0.606-0.189,1.343-0.311,2.188c-0.117,0.845-0.273,1.798-0.35,2.84
				c-0.07,1.04-0.254,2.169-0.256,3.361c0.016,0.589-0.072,1.224,0.027,1.82c0.035,0.312,0.053,0.596,0.176,0.903
				c0.109,0.301,0.172,0.637,0.33,0.907c0.494,1.164,1.439,2.188,2.645,2.793c1.211,0.615,2.568,0.924,3.965,1.069
				c0.693,0.089,1.387,0.198,2.078,0.271c0.695,0.037,1.385,0.073,2.07,0.11c1.365,0.072,2.73-0.039,4.02-0.195
				c1.283-0.234,2.531-0.498,3.623-0.997c0.555-0.233,1.096-0.459,1.617-0.677c0.529-0.205,0.975-0.529,1.439-0.771
				c0.453-0.26,0.891-0.508,1.305-0.745c0.383-0.286,0.746-0.559,1.086-0.814c0.342-0.257,0.662-0.495,0.957-0.717
				c0.295-0.221,0.516-0.482,0.742-0.688c0.879-0.854,1.381-1.343,1.381-1.343s-0.496,0.494-1.367,1.358
				c-0.223,0.207-0.443,0.473-0.736,0.697c-0.291,0.225-0.609,0.468-0.947,0.729c-0.34,0.26-0.701,0.537-1.08,0.828
				c-0.414,0.243-0.85,0.498-1.305,0.763c-0.463,0.249-0.91,0.582-1.438,0.792c-0.52,0.224-1.057,0.455-1.609,0.694
				c-1.098,0.518-2.352,0.797-3.645,1.047c-1.313,0.173-2.66,0.299-4.049,0.242c-0.693-0.028-1.391-0.058-2.092-0.088
				c-0.695-0.065-1.387-0.166-2.082-0.248c-1.383-0.128-2.814-0.429-4.068-1.053c-1.268-0.62-2.283-1.683-2.828-2.933
				c-0.174-0.302-0.232-0.617-0.346-0.921c-0.125-0.294-0.166-0.648-0.203-0.965c-0.111-0.654-0.027-1.266-0.051-1.877
				c-0.012-1.217,0.16-2.347,0.223-3.4c0.064-1.057,0.209-2.008,0.316-2.854c0.111-0.846,0.207-1.583,0.289-2.19
				c0.158-1.215,0.248-1.909,0.248-1.909L666.51,60.896z"/>
			<path d="M671.428,41.96c0,0-0.092,0.166-0.254,0.457c-0.082,0.146-0.18,0.322-0.293,0.524c-0.105,0.207-0.264,0.425-0.359,0.688
				c-0.217,0.521-0.471,1.128-0.74,1.778c-0.15,0.321-0.242,0.68-0.359,1.034c-0.113,0.355-0.229,0.718-0.344,1.079
				c-0.225,0.728-0.484,1.444-0.633,2.144c-0.17,0.693-0.328,1.34-0.463,1.896c-0.273,1.11-0.455,1.851-0.455,1.851
				s0.152-0.747,0.377-1.868c0.113-0.561,0.246-1.215,0.389-1.916c0.119-0.707,0.35-1.437,0.545-2.176
				c0.102-0.368,0.201-0.738,0.301-1.101c0.104-0.362,0.182-0.726,0.32-1.061c0.252-0.679,0.486-1.313,0.688-1.856
				c0.092-0.278,0.238-0.496,0.334-0.708c0.105-0.207,0.195-0.389,0.271-0.537c0.15-0.297,0.236-0.468,0.236-0.468L671.428,41.96z"
				/>
		</g>
		<path d="M703.76,37.286c0,0,9.559,1.987,19.117,3.976c1.213,0.233,2.367,0.809,3.279,1.613c0.912,0.81,1.617,1.791,2.182,2.792
			c1.121,2.014,1.729,4.087,2.203,5.852c0.947,3.535,1.578,5.894,1.578,5.894s-0.66-2.349-1.652-5.873
			c-0.498-1.756-1.131-3.815-2.268-5.794c-0.57-0.982-1.277-1.938-2.176-2.716c-0.902-0.772-2.01-1.308-3.195-1.522
			c-9.584-1.864-19.166-3.729-19.166-3.729L703.76,37.286z"/>
		<path d="M714.588,70.375c0,0-1.783-6.69-3.568-13.381c-0.445-1.673-0.893-3.346-1.311-4.913c-0.213-0.782-0.4-1.549-0.613-2.255
			c-0.207-0.718-0.473-1.363-0.758-1.942c-0.162-0.278-0.318-0.547-0.467-0.801c-0.178-0.235-0.346-0.458-0.506-0.667
			c-0.373-0.359-0.852-0.462-1.191-0.613c-0.732-0.193-1.15-0.303-1.15-0.303s0.42,0.104,1.156,0.282
			c0.344,0.146,0.824,0.236,1.221,0.604c0.164,0.207,0.338,0.429,0.521,0.662c0.154,0.254,0.316,0.521,0.484,0.8
			c0.301,0.579,0.58,1.232,0.799,1.942c0.23,0.714,0.428,1.47,0.656,2.249c0.447,1.56,0.924,3.225,1.4,4.888
			c1.904,6.658,3.811,13.315,3.811,13.315L714.588,70.375z"/>
		<path fill="none" stroke="#000000" stroke-width="0.5" d="M692.596,88.92"/>
		<polygon points="717.238,78.669 710.215,84.74 716.898,78.301 		"/>
		<polygon points="746.586,100.049 713.502,93.129 746.686,99.559 		"/>
		<path d="M734.635,65.563c0,0,1.908,7.148,3.816,14.297c0.479,1.787,0.955,3.574,1.402,5.25c0.232,0.832,0.42,1.656,0.664,2.406
			c0.063,0.188,0.123,0.375,0.182,0.559c0.08,0.174,0.16,0.344,0.236,0.512c0.137,0.348,0.357,0.635,0.539,0.928
			c0.189,0.285,0.436,0.512,0.637,0.752c0.244,0.197,0.471,0.393,0.697,0.559c0.242,0.141,0.471,0.273,0.68,0.395
			c0.225,0.092,0.432,0.176,0.619,0.254c0.369,0.168,0.691,0.203,0.896,0.273c0.209,0.057,0.32,0.086,0.32,0.086
			s-0.113-0.027-0.322-0.08c-0.205-0.066-0.529-0.098-0.902-0.26c-0.189-0.074-0.398-0.156-0.625-0.244
			c-0.215-0.119-0.445-0.248-0.691-0.387c-0.23-0.162-0.463-0.355-0.713-0.551c-0.207-0.24-0.463-0.465-0.66-0.752
			c-0.189-0.293-0.418-0.58-0.561-0.932c-0.084-0.17-0.166-0.344-0.25-0.52c-0.063-0.182-0.127-0.367-0.191-0.555
			c-0.262-0.758-0.461-1.57-0.707-2.402c-0.477-1.668-0.984-3.445-1.49-5.224c-2.029-7.115-4.059-14.23-4.059-14.23L734.635,65.563z
			"/>
		<polygon points="738.443,44.267 752.297,47.316 738.344,44.758 		"/>
		<path d="M759.621,94.867c0,0,0.156,0.029,0.447,0.088c0.293,0.059,0.723,0.154,1.246,0.174c0.26,0.033,0.543,0.031,0.887,0.01
			c0.299-0.041,0.633-0.094,0.932-0.27c0.609-0.324,1.018-1.096,1.244-1.992c0.914-3.689,2.137-8.609,3.357-13.529
			c2.436-9.845,4.873-19.688,4.873-19.688s-2.314,9.873-4.629,19.747c-1.162,4.937-2.322,9.876-3.193,13.58
			c-0.225,0.928-0.656,1.846-1.432,2.279c-0.369,0.221-0.768,0.291-1.127,0.34c-0.322,0.025-0.654,0.035-0.945,0.002
			c-0.59-0.02-1.012-0.111-1.303-0.166c-0.293-0.055-0.449-0.082-0.449-0.082L759.621,94.867z"/>
		<polygon points="785.803,109.465 757.502,102.381 785.92,108.977 		"/>
		<path d="M784.594,100.033c0,0,0.15,0.176,0.375,0.441c0.105,0.15,0.271,0.215,0.428,0.348c0.158,0.123,0.338,0.252,0.551,0.346
			c0.203,0.104,0.406,0.207,0.598,0.305c0.203,0.076,0.393,0.146,0.553,0.205c0.326,0.121,0.545,0.201,0.545,0.201
			s-0.227-0.049-0.566-0.125c-0.17-0.039-0.371-0.084-0.584-0.131c-0.207-0.074-0.43-0.15-0.65-0.229
			c-0.227-0.064-0.443-0.174-0.645-0.297c-0.193-0.119-0.422-0.207-0.535-0.332c-0.26-0.232-0.432-0.389-0.432-0.389
			L784.594,100.033z"/>
		<path d="M800.367,75.909c0,0,0.02-0.248,0.055-0.684c0.016-0.219,0.045-0.485,0.041-0.782c-0.004-0.298,0.023-0.635-0.002-1.002
			c-0.029-0.368-0.027-0.771-0.102-1.187c-0.047-0.421-0.139-0.856-0.256-1.301c-0.129-0.44-0.266-0.9-0.48-1.332
			c-0.191-0.445-0.457-0.859-0.727-1.27c-0.299-0.392-0.611-0.771-0.971-1.102c-0.354-0.331-0.725-0.642-1.113-0.896
			c-0.381-0.268-0.77-0.491-1.152-0.685c-0.369-0.217-0.756-0.347-1.094-0.506c-0.695-0.272-1.287-0.478-1.709-0.59
			c-0.42-0.12-0.66-0.189-0.66-0.189s0.242,0.062,0.666,0.17c0.426,0.098,1.023,0.284,1.732,0.535
			c0.344,0.15,0.736,0.27,1.117,0.476c0.391,0.183,0.793,0.398,1.188,0.658c0.402,0.245,0.791,0.55,1.164,0.876
			c0.377,0.328,0.713,0.707,1.033,1.103c0.291,0.414,0.582,0.836,0.793,1.291c0.238,0.441,0.395,0.913,0.541,1.364
			c0.137,0.458,0.246,0.906,0.307,1.34c0.092,0.428,0.104,0.841,0.145,1.22c0.039,0.379,0.021,0.731,0.035,1.041
			c0.012,0.314-0.01,0.576-0.018,0.796c-0.021,0.436-0.031,0.687-0.031,0.687L800.367,75.909z"/>
		<polygon points="761.146,48.867 807.307,60.252 761.029,49.353 		"/>
		<polygon points="752.533,63.346 757.295,50.974 753.006,63.516 		"/>
		<g>
			<path d="M173.25,56.331c7.333-1.769,13.4-1.706,18.201,0.191c5.771,2.284,9.299,6.094,10.583,11.42
				c1.285,5.33-0.189,10.039-4.424,14.126c-3.379,3.25-8.822,5.781-16.326,7.588l-8.918,2.152l1.049,4.348
				c0.987,4.094,3.819,5.576,8.496,4.449l0.432,1.789l-28.066,6.768l-0.432-1.791c4.678-1.127,6.523-3.738,5.537-7.834l-7.36-30.533
				c-1.03-3.529-3.799-4.748-8.306-3.662l-0.433-1.788L173.25,56.331z M171.936,90.02l8.917-2.152
				c7.017-1.691,9.4-7.201,7.151-16.532c-2.531-10.504-7.305-14.905-14.322-13.218l-8.917,2.152L171.936,90.02z"/>
			<path d="M229.798,44.204c7.403-1.436,13.459-1.098,18.169,1.014c5.659,2.539,8.84,5.622,9.543,9.25
				c1.2,6.186-2.25,11.864-10.345,17.033c2.26-0.323,3.934-0.153,5.02,0.518l10.524,10.25c0.833,0.807,2.755,0.918,5.768,0.334
				l0.346,1.789c-3.325,1.207-6.629,2.129-9.914,2.766c-5.891,1.143-10.906-0.729-15.043-5.619l-6.403-7.564l-7.14,1.383
				l1.535,7.914c0.801,4.133,3.562,5.74,8.284,4.824l0.351,1.811l-28.335,5.492l-0.351-1.809c4.723-0.916,6.684-3.439,5.883-7.572
				l-5.976-30.824c-0.871-3.57-3.581-4.912-8.131-4.03l-0.351-1.81L229.798,44.204z M229.973,73.548l5.313-1.029
				c7.083-1.373,9.746-6.598,7.987-15.673c-1.667-8.597-6.042-12.206-13.125-10.833l-5.312,1.029L229.973,73.548z"/>
			<path d="M307.78,74.374c3.426-2.691,5.968-5.954,7.631-9.786l1.693,0.739c-1.756,4.037-4.485,7.539-8.183,10.502
				c-3.182,2.553-7.726,4.294-13.631,5.23c-8.057,1.268-14.544,0.193-19.465-3.224c-4.919-3.416-7.993-9.013-9.219-16.798
				c-1.225-7.76,0.002-14.039,3.679-18.834c3.641-4.767,9.461-7.777,17.456-9.039c7.981-1.26,14.445-0.183,19.39,3.229
				c4.973,3.435,8.071,9.029,9.295,16.789l-35.585,5.61c1.422,9.021,2.735,14.46,3.941,16.322c2.244,3.469,5.651,4.846,10.222,4.124
				C300.502,78.37,304.761,76.75,307.78,74.374z M301.905,53.609c-1.262-7.995-2.488-12.885-3.682-14.671
				c-2.238-3.358-5.637-4.68-10.197-3.959c-4.522,0.712-7.188,2.686-7.994,5.913c-0.822,3.31-0.647,8.672,0.521,16.083
				L301.905,53.609z"/>
			<g>
				<path d="M139.774,61.202c0,0,7.141-1.705,17.852-4.262c2.678-0.641,5.579-1.333,8.647-2.065
					c3.071-0.709,6.292-1.574,9.684-2.188c3.398-0.591,7.008-0.85,10.607-0.409c3.623,0.417,7.167,1.682,10.286,3.669
					c3.139,1.957,5.622,4.916,7.029,8.261c1.388,3.334,1.95,7.027,1.236,10.429c-0.67,3.41-2.489,6.364-4.653,8.646
					c-2.144,2.334-4.708,3.971-7.159,5.209c-2.464,1.23-4.842,2.115-6.984,2.756c-1.065,0.346-2.075,0.619-3.015,0.852
					c-0.936,0.25-1.798,0.465-2.581,0.645c-3.124,0.748-4.909,1.176-4.909,1.176s1.783-0.436,4.904-1.195
					c0.781-0.186,1.643-0.404,2.577-0.656c0.938-0.236,1.947-0.516,3.009-0.865c2.138-0.648,4.509-1.541,6.962-2.781
					c2.441-1.244,4.985-2.887,7.11-5.219c2.145-2.281,3.935-5.218,4.583-8.595c0.694-3.362,0.121-7.021-1.268-10.32
					c-1.407-3.301-3.868-6.209-6.976-8.129c-3.081-1.947-6.62-3.193-10.18-3.584c-3.583-0.422-7.144-0.149-10.514,0.449
					c-3.378,0.626-6.587,1.504-9.659,2.227c-3.065,0.746-5.963,1.451-8.638,2.102c-10.7,2.603-17.833,4.339-17.833,4.339
					L139.774,61.202z"/>
				<path d="M185.849,104.75l-33.646,8.01l-0.149,0.035l-0.035-0.148l-1.747-7.354l-0.031-0.129l0.127-0.031l2.828-0.674
					c0.938-0.236,1.865-0.527,2.621-1.1c0.37-0.285,0.66-0.666,0.786-1.111c0.131-0.441,0.108-0.924,0.027-1.393
					c-0.184-0.938-0.438-1.885-0.653-2.828l-2.696-11.326l-2.696-11.327l-1.348-5.663c-0.141-0.459-0.328-0.92-0.669-1.264
					c-0.34-0.345-0.819-0.527-1.298-0.576c-0.965-0.13-1.937,0.067-2.883,0.25c0.947-0.188,1.914-0.391,2.885-0.267
					c0.481,0.046,0.966,0.228,1.313,0.575c0.349,0.347,0.54,0.812,0.685,1.273l1.379,5.656l2.76,11.31l2.76,11.311
					c0.222,0.949,0.477,1.873,0.672,2.84c0.086,0.482,0.117,0.998-0.024,1.49c-0.136,0.494-0.461,0.924-0.856,1.229
					c-0.795,0.611-1.769,0.918-2.699,1.158l-2.831,0.691l0.097-0.158l1.789,7.344l-0.185-0.113l33.601-8.199L185.849,104.75z"/>
				<polygon points="173.801,86.627 168.213,62.38 174.288,86.51 				"/>
			</g>
			<g>
				<path d="M269.875,87.318l-4.644,1.457c-0.765,0.27-1.581,0.391-2.369,0.592l-2.382,0.551c-0.788,0.209-1.609,0.322-2.406,0.426
					c-0.802,0.135-1.628,0.105-2.461,0.154c-0.809-0.074-1.619-0.043-2.429-0.205c-0.812-0.137-1.623-0.268-2.396-0.541
					c-0.796-0.199-1.541-0.541-2.288-0.871c-0.755-0.314-1.427-0.791-2.144-1.18c-0.647-0.496-1.34-0.934-1.945-1.479
					c-0.592-0.559-1.239-1.063-1.763-1.689c-0.55-0.6-1.104-1.195-1.613-1.826l-1.562-1.867l-3.124-3.733l0.016,0.005l-2.692,0.507
					l2.686-0.538l0.01-0.002l0.006,0.007l3.167,3.696l1.584,1.847c0.518,0.627,1.077,1.211,1.629,1.801
					c0.528,0.617,1.176,1.107,1.77,1.656c0.607,0.531,1.298,0.957,1.943,1.441c0.714,0.373,1.382,0.838,2.131,1.139
					c0.741,0.314,1.478,0.645,2.263,0.83c0.766,0.26,1.559,0.379,2.35,0.504c0.785,0.148,1.613,0.109,2.418,0.174
					c0.784-0.061,1.592-0.037,2.391-0.18c0.811-0.117,1.596-0.234,2.376-0.453l2.354-0.572c0.78-0.209,1.578-0.334,2.343-0.615
					l4.626-1.514L269.875,87.318z"/>
				<path d="M199.837,46.848c0,0,5.194-0.992,12.985-2.479c3.896-0.744,8.441-1.611,13.311-2.541
					c1.223-0.221,2.444-0.492,3.72-0.683c1.262-0.186,2.539-0.373,3.826-0.563c1.302-0.097,2.622-0.144,3.942-0.217
					c0.661-0.066,1.33,0.034,1.985,0.044c0.659,0.05,1.321,0.021,1.979,0.136c2.653,0.278,5.229,0.975,7.646,1.996
					c2.352,1.097,4.604,2.398,6.504,4.005c1.9,1.597,3.421,3.571,4.185,5.735c0.151,0.551,0.301,1.094,0.448,1.629
					c0.068,0.549,0.134,1.089,0.199,1.62c0.097,0.528,0.046,1.06,0.045,1.577c-0.022,0.518,0.019,1.029-0.096,1.517
					c-0.081,0.491-0.161,0.972-0.238,1.439c-0.098,0.465-0.272,0.9-0.398,1.333c-0.225,0.884-0.659,1.633-0.993,2.366
					c-0.761,1.419-1.571,2.579-2.332,3.451c-0.7,0.925-1.397,1.519-1.824,1.968c-0.438,0.438-0.672,0.671-0.672,0.671
					s0.233-0.235,0.668-0.675c0.424-0.452,1.117-1.05,1.811-1.978c0.755-0.876,1.557-2.038,2.307-3.459
					c0.329-0.733,0.757-1.482,0.976-2.362c0.124-0.434,0.294-0.867,0.389-1.33c0.074-0.467,0.15-0.945,0.228-1.434
					c0.111-0.486,0.067-0.994,0.086-1.506c-0.002-0.514,0.047-1.037-0.054-1.566c-0.068-0.529-0.137-1.066-0.208-1.613
					c-0.148-0.528-0.3-1.065-0.453-1.609c-0.769-2.137-2.285-4.081-4.179-5.653c-1.899-1.584-4.124-2.854-6.491-3.943
					c-2.386-0.991-4.958-1.672-7.573-1.93c-0.647-0.108-1.317-0.077-1.975-0.122c-0.664-0.007-1.314-0.104-1.968-0.032
					c-1.308,0.081-2.612,0.134-3.903,0.236c-1.287,0.197-2.563,0.394-3.823,0.587c-1.247,0.191-2.486,0.475-3.702,0.702
					c-4.864,0.958-9.404,1.853-13.295,2.618c-7.783,1.533-12.971,2.555-12.971,2.555L199.837,46.848z"/>
				<path d="M211.211,90.539c0,0,0.167-0.035,0.48-0.102c0.317-0.068,0.746-0.18,1.291-0.383c0.524-0.211,1.185-0.533,1.563-1.18
					c0.389-0.65,0.279-1.586,0.073-2.58c-0.757-4.027-1.766-9.397-2.775-14.766c-1.009-5.37-2.018-10.739-2.774-14.767
					c-0.104-0.505-0.162-0.987-0.31-1.432c-0.147-0.438-0.389-0.819-0.718-1.068c-0.689-0.471-1.466-0.469-2.048-0.489
					c-0.598,0.019-1.065,0.062-1.38,0.122c-0.316,0.046-0.485,0.07-0.485,0.07s0.169-0.026,0.485-0.076
					c0.314-0.064,0.782-0.112,1.379-0.138c0.585,0.014,1.363-0.001,2.077,0.474c0.34,0.252,0.593,0.642,0.749,1.088
					c0.153,0.442,0.22,0.937,0.328,1.435c0.802,4.019,1.873,9.376,2.943,14.733c1.071,5.357,2.141,10.714,2.944,14.734
					c0.209,0.977,0.384,2.043-0.091,2.881c-0.473,0.818-1.226,1.168-1.78,1.404c-0.572,0.223-1.055,0.35-1.363,0.42
					c-0.312,0.07-0.479,0.107-0.479,0.107L211.211,90.539z"/>
				<polygon points="243.891,92.41 209.898,98.746 243.796,91.92 				"/>
				<path d="M234.685,69.47c0,0,0.116-0.026,0.335-0.075c0.214-0.057,0.553-0.104,0.929-0.237c0.389-0.107,0.851-0.285,1.363-0.526
					c0.492-0.27,1.056-0.585,1.537-1.083c0.491-0.481,0.947-1.089,1.235-1.845c0.191-0.374,0.256-0.767,0.392-1.164
					c0.066-0.418,0.189-0.837,0.213-1.279c0.107-0.878,0.106-1.799,0.049-2.73c-0.054-0.933-0.182-1.877-0.344-2.814
					c-0.337-1.875-0.836-3.726-1.644-5.318c-0.433-0.773-0.886-1.517-1.476-2.084c-0.574-0.577-1.223-1.016-1.882-1.283
					c-1.334-0.546-2.575-0.419-3.398-0.384c-0.416,0.031-0.739,0.097-0.961,0.122c-0.222,0.031-0.34,0.049-0.34,0.049
					s0.118-0.02,0.339-0.055c0.222-0.028,0.545-0.1,0.961-0.138c0.82-0.047,2.065-0.198,3.428,0.332
					c0.674,0.261,1.342,0.696,1.936,1.274c0.61,0.568,1.083,1.313,1.534,2.092c0.845,1.599,1.381,3.47,1.75,5.347
					c0.178,0.942,0.324,1.895,0.394,2.839c0.074,0.945,0.091,1.884-0.004,2.787c-0.019,0.455-0.137,0.893-0.2,1.327
					c-0.132,0.42-0.214,0.87-0.394,1.234c-0.287,0.789-0.771,1.467-1.291,1.991c-0.512,0.546-1.108,0.894-1.628,1.188
					c-0.537,0.264-1.021,0.459-1.438,0.583c-0.413,0.149-0.729,0.196-0.947,0.258c-0.217,0.052-0.334,0.08-0.334,0.08L234.685,69.47
					z"/>
			</g>
			<g>
				<path d="M293.869,29.544c0.847,0.041,1.689,0.032,2.542,0.114c0.851,0.09,1.708,0.146,2.545,0.317
					c0.42,0.076,0.843,0.135,1.26,0.225l1.243,0.308c0.834,0.188,1.63,0.511,2.443,0.769c0.78,0.349,1.593,0.624,2.337,1.05
					c0.376,0.201,0.761,0.389,1.131,0.602l1.083,0.686c0.748,0.463,1.354,1.029,2.039,1.539c0.675,0.509,1.236,1.182,1.858,1.766
					c0.622,0.594,1.089,1.314,1.64,1.965c0.553,0.652,0.936,1.424,1.412,2.13l0.34,0.541l0.283,0.573l0.563,1.146
					c0.409,0.749,0.667,1.563,0.975,2.357c0.145,0.398,0.309,0.793,0.439,1.196l0.341,1.229c0.227,0.82,0.477,1.633,0.609,2.474
					c0.156,0.835,0.333,1.667,0.47,2.503l0.387,2.51l0.018,0.116l-0.116,0.02l-35.587,5.489l35.55-5.723l-0.098,0.135l-0.403-2.508
					c-0.142-0.834-0.324-1.656-0.484-2.486c-0.137-0.834-0.391-1.639-0.621-2.45l-0.346-1.217c-0.132-0.399-0.297-0.788-0.443-1.183
					c-0.31-0.782-0.569-1.589-0.979-2.326l-0.564-1.13l-0.283-0.563l-0.339-0.532c-0.475-0.692-0.856-1.452-1.406-2.09
					c-0.546-0.636-1.014-1.348-1.624-1.921c-0.616-0.567-1.149-1.21-1.83-1.718c-0.676-0.496-1.324-1.086-2.023-1.506l-1.067-0.667
					c-0.364-0.206-0.744-0.388-1.115-0.583c-0.731-0.414-1.534-0.678-2.3-1.017c-0.801-0.247-1.583-0.56-2.405-0.738l-1.224-0.294
					c-0.41-0.086-0.827-0.143-1.241-0.214c-0.826-0.162-1.662-0.211-2.494-0.295c-0.833-0.075-1.689-0.062-2.532-0.097
					L293.869,29.544z"/>
				<path d="M319.948,66.582c0,0-0.175,0.338-0.502,0.973c-0.164,0.317-0.366,0.709-0.603,1.169
					c-0.255,0.453-0.466,1.011-0.88,1.553c-0.789,1.092-1.606,2.535-2.917,3.877c-1.18,1.462-2.782,2.834-4.548,4.321
					c-1.813,1.393-4.069,2.592-6.528,3.5c-2.47,0.918-5.175,1.596-8.006,2.035c-2.832,0.387-5.8,0.695-8.81,0.508
					c-3.015-0.158-6.053-0.797-8.88-1.986c-1.427-0.563-2.752-1.348-4.028-2.181c-0.624-0.456-1.198-0.936-1.797-1.401
					c-0.595-0.464-1.091-1.054-1.637-1.572c-2.07-2.199-3.614-4.771-4.754-7.396c-0.501-1.342-1.029-2.649-1.348-3.993
					c-0.413-1.317-0.622-2.65-0.876-3.938c-0.233-1.293-0.332-2.563-0.479-3.787c-0.018-1.233-0.147-2.426-0.069-3.568
					c0.068-1.143,0.078-2.242,0.279-3.269c0.078-0.516,0.154-1.019,0.228-1.507c0.1-0.482,0.239-0.943,0.35-1.395
					c0.118-0.449,0.232-0.884,0.342-1.304c0.155-0.406,0.305-0.796,0.449-1.172c0.144-0.375,0.282-0.735,0.414-1.079
					c0.14-0.342,0.325-0.643,0.472-0.941c0.315-0.588,0.57-1.128,0.838-1.57c0.292-0.428,0.54-0.792,0.742-1.087
					c0.402-0.59,0.617-0.905,0.617-0.905s-0.213,0.316-0.612,0.908c-0.2,0.296-0.446,0.661-0.736,1.09
					c-0.265,0.444-0.518,0.985-0.829,1.574c-0.146,0.299-0.329,0.601-0.467,0.941c-0.13,0.345-0.266,0.706-0.408,1.081
					c-0.142,0.376-0.289,0.766-0.442,1.172c-0.107,0.42-0.219,0.854-0.335,1.304c-0.109,0.451-0.245,0.911-0.342,1.394
					c-0.071,0.487-0.144,0.989-0.219,1.505c-0.196,1.024-0.2,2.122-0.262,3.262c-0.071,1.14,0.063,2.328,0.087,3.557
					c0.153,1.219,0.259,2.496,0.498,3.777c0.261,1.281,0.475,2.61,0.894,3.921c0.324,1.336,0.856,2.635,1.362,3.967
					c1.146,2.604,2.695,5.152,4.753,7.317c0.544,0.51,1.027,1.082,1.625,1.545c0.596,0.458,1.19,0.947,1.792,1.383
					c1.267,0.818,2.581,1.589,3.996,2.138c2.799,1.16,5.818,1.779,8.792,1.922c2.992,0.17,5.925-0.152,8.746-0.549
					c2.812-0.453,5.489-1.141,7.926-2.059c2.444-0.924,4.605-2.082,6.413-3.482c1.717-1.463,3.306-2.836,4.456-4.28
					c1.29-1.332,2.072-2.739,2.84-3.809c0.4-0.522,0.615-1.093,0.865-1.543c0.235-0.462,0.435-0.855,0.597-1.173
					c0.324-0.637,0.497-0.977,0.497-0.977L319.948,66.582z"/>
				<path d="M292.732,76.317c0,0,0.394-0.029,1.083-0.079c0.172-0.014,0.364-0.027,0.571-0.042c0.164-0.001,0.416-0.063,0.644-0.095
					c0.473-0.086,1.016-0.158,1.59-0.282c0.572-0.135,1.202-0.236,1.852-0.422c0.653-0.17,1.341-0.356,2.036-0.601
					c0.706-0.214,1.403-0.519,2.116-0.813c0.348-0.169,0.699-0.337,1.051-0.507c0.344-0.185,0.678-0.39,1.019-0.584
					c0.667-0.422,1.3-0.861,1.875-1.394c0.577-0.519,1.19-0.988,1.701-1.519c0.495-0.547,0.973-1.076,1.426-1.577
					c0.46-0.497,0.774-1.064,1.129-1.536c0.325-0.494,0.686-0.909,0.881-1.352c0.224-0.427,0.418-0.798,0.578-1.104
					c0.321-0.612,0.505-0.962,0.505-0.962s-0.177,0.354-0.485,0.972c-0.154,0.311-0.342,0.686-0.558,1.117
					c-0.188,0.448-0.539,0.871-0.855,1.372c-0.347,0.481-0.651,1.058-1.105,1.567c-0.448,0.514-0.92,1.058-1.408,1.619
					c-0.506,0.545-1.106,1.023-1.674,1.556c-0.557,0.538-1.217,1.018-1.876,1.452c-0.342,0.203-0.677,0.42-1.023,0.613
					c-0.354,0.179-0.706,0.358-1.055,0.535c-0.716,0.313-1.42,0.637-2.129,0.866c-0.699,0.263-1.391,0.464-2.048,0.649
					c-0.653,0.202-1.292,0.318-1.871,0.466c-0.582,0.137-1.117,0.218-1.59,0.313c-0.248,0.041-0.433,0.099-0.688,0.115
					c-0.207,0.019-0.398,0.037-0.57,0.053c-0.688,0.064-1.082,0.101-1.082,0.101L292.732,76.317z"/>
				<path d="M295.646,40.674c0,0-0.143-0.199-0.393-0.545c-0.118-0.188-0.297-0.345-0.484-0.561
					c-0.175-0.223-0.453-0.403-0.713-0.642c-0.3-0.183-0.607-0.418-0.987-0.564c-0.361-0.186-0.783-0.294-1.214-0.399
					c-0.221-0.038-0.445-0.076-0.672-0.115c-0.231-0.015-0.465-0.03-0.701-0.045c-0.453-0.01-0.96,0.052-1.441,0.075
					c-0.494,0.007-0.938,0.111-1.424,0.208c-0.236,0.047-0.47,0.093-0.702,0.139c-0.227,0.057-0.439,0.142-0.656,0.21
					c-0.215,0.071-0.426,0.142-0.633,0.212c-0.201,0.082-0.385,0.192-0.572,0.283c-0.386,0.168-0.696,0.408-0.981,0.636
					c-0.297,0.211-0.485,0.498-0.684,0.714c-0.146,0.255-0.305,0.466-0.369,0.671c-0.086,0.194-0.14,0.354-0.167,0.466
					c-0.032,0.109-0.05,0.168-0.05,0.168s0.016-0.059,0.044-0.17c0.023-0.112,0.072-0.273,0.152-0.473
					c0.058-0.208,0.21-0.425,0.351-0.688c0.193-0.224,0.376-0.522,0.67-0.746c0.282-0.241,0.592-0.496,0.977-0.679
					c0.187-0.099,0.372-0.218,0.574-0.309c0.209-0.077,0.423-0.156,0.639-0.236c0.218-0.076,0.438-0.171,0.665-0.236
					c0.23-0.053,0.462-0.106,0.697-0.16c0.454-0.107,0.961-0.236,1.448-0.259c0.493-0.038,0.958-0.114,1.466-0.122
					c0.245,0.008,0.487,0.016,0.727,0.023c0.239,0.033,0.475,0.066,0.707,0.098c0.457,0.096,0.907,0.197,1.3,0.382
					c0.412,0.146,0.751,0.384,1.081,0.574c0.29,0.246,0.589,0.43,0.794,0.669c0.21,0.227,0.425,0.416,0.541,0.589
					c0.261,0.34,0.41,0.533,0.41,0.533L295.646,40.674z"/>
			</g>
			<path d="M321.928,35.972c-1.12-2.017-2.375-3.329-3.76-3.936c-0.96-0.425-2.422-0.515-4.382-0.272l-0.228-1.824l16.983-2.109
				c2.023-0.248,4.116,1.729,6.277,5.936l12.929,23.125l6.809-25.576c0.284-1.068,0.409-1.733,0.377-1.991
				c-0.237-1.913-1.87-2.685-4.899-2.309l-0.227-1.823l11.62-1.439l0.227,1.821c-2.663,0.393-4.412,2.351-5.247,5.872l-7.366,27.781
				l-3.773,14.556l-2.252,0.278c-1.329,0.166-2.287-0.302-2.877-1.399l-2.886-5.43L321.928,35.972z"/>
			<path d="M349.576,76.629c0,0-0.923,0.11-2.539,0.303c-0.808,0.073-1.775,0.284-2.963,0.221c-0.559-0.018-1.217-0.184-1.823-0.413
				c-0.595-0.281-1.22-0.623-1.717-1.157c-0.519-0.501-0.94-1.153-1.279-1.823c-0.351-0.665-0.712-1.354-1.084-2.06
				c-0.75-1.414-1.513-2.91-2.364-4.433c-1.677-3.057-3.466-6.317-5.255-9.577c-3.578-6.521-7.156-13.042-9.839-17.933
				c-0.682-1.219-1.255-2.358-1.882-3.306c-0.636-0.912-1.341-1.694-2.148-1.88c-0.403-0.027-0.765-0.08-1.08-0.069
				c-0.315,0.021-0.583,0.039-0.801,0.053c-0.435,0.028-0.667,0.044-0.667,0.044s0.232-0.018,0.667-0.049
				c0.217-0.017,0.485-0.036,0.801-0.06c0.315-0.014,0.679,0.036,1.085,0.061c0.817,0.181,1.534,0.963,2.181,1.876
				c0.634,0.939,1.221,2.082,1.911,3.292c2.725,4.868,6.357,11.358,9.99,17.85c1.816,3.245,3.632,6.49,5.335,9.531
				c0.863,1.515,1.645,3.016,2.404,4.419c0.378,0.704,0.746,1.389,1.102,2.051c0.346,0.667,0.73,1.244,1.218,1.712
				c0.962,0.955,2.18,1.364,3.272,1.417c1.079,0.054,2.069-0.159,2.875-0.242c1.614-0.207,2.536-0.324,2.536-0.324L349.576,76.629z"
				/>
			<polygon points="360.806,34.519 353.803,59.958 360.321,34.39 			"/>
			<polygon points="348.588,22.458 365.908,20.564 348.65,22.954 			"/>
			<path d="M330.175,24.744l0.498-0.028c0.097-0.001,0.137-0.016,0.279-0.007l0.249,0.017c0.327,0.008,0.67,0.063,1.021,0.144
				c0.681,0.158,1.326,0.416,1.911,0.777c1.189,0.698,2.144,1.698,2.97,2.758c0.826,1.068,1.507,2.23,2.136,3.41
				c0.301,0.601,0.626,1.163,0.949,1.752l0.966,1.748l7.729,13.981l-0.178,0.021l5.282-19.498l-5.094,19.549l-0.061,0.231
				l-0.118-0.21l-7.863-13.906l-0.983-1.737c-0.322-0.575-0.668-1.163-0.97-1.75c-0.633-1.162-1.316-2.3-2.13-3.331
				c-0.814-1.025-1.746-1.977-2.869-2.619c-0.55-0.334-1.162-0.568-1.775-0.706c-0.301-0.067-0.613-0.119-0.955-0.124l-0.249-0.015
				c-0.024-0.007-0.149,0.008-0.22,0.011l-0.498,0.033L330.175,24.744z"/>
		</g>
	</g>
</g>
<g id="off">
	<g>
		<g>
			<line fill="#FFFFFF" x1="404.445" y1="133.965" x2="404.445" y2="147.635"/>
			<path d="M404.445,148.137c-0.277,0-0.5-0.225-0.5-0.502v-13.67c0-0.277,0.224-0.502,0.5-0.502s0.501,0.225,0.501,0.502v13.67
				C404.946,147.912,404.722,148.137,404.445,148.137z"/>
		</g>
		<g>
			<line fill="#FFFFFF" x1="417.274" y1="133.965" x2="417.274" y2="147.635"/>
			<path d="M417.274,148.137c-0.277,0-0.501-0.225-0.501-0.502v-13.67c0-0.277,0.224-0.502,0.501-0.502s0.501,0.225,0.501,0.502
				v13.67C417.775,147.912,417.551,148.137,417.274,148.137z"/>
		</g>
		<g>
			<line fill="#FFFFFF" x1="430.104" y1="133.965" x2="430.104" y2="147.635"/>
			<path d="M430.104,148.137c-0.277,0-0.501-0.225-0.501-0.502v-13.67c0-0.277,0.224-0.502,0.501-0.502s0.5,0.225,0.5,0.502v13.67
				C430.604,147.912,430.381,148.137,430.104,148.137z"/>
		</g>
		<g>
			<line fill="#FFFFFF" x1="442.933" y1="133.965" x2="442.933" y2="147.635"/>
			<path d="M442.933,148.137c-0.277,0-0.5-0.225-0.5-0.502v-13.67c0-0.277,0.224-0.502,0.5-0.502s0.501,0.225,0.501,0.502v13.67
				C443.434,147.912,443.21,148.137,442.933,148.137z"/>
		</g>
		<g>
			<line fill="#FFFFFF" x1="455.763" y1="133.965" x2="455.763" y2="147.635"/>
			<path d="M455.763,148.137c-0.277,0-0.501-0.225-0.501-0.502v-13.67c0-0.277,0.224-0.502,0.501-0.502s0.501,0.225,0.501,0.502
				v13.67C456.264,147.912,456.04,148.137,455.763,148.137z"/>
		</g>
		<g>
			<line fill="#FFFFFF" x1="468.591" y1="133.965" x2="468.591" y2="147.635"/>
			<path d="M468.591,148.137c-0.277,0-0.501-0.225-0.501-0.502v-13.67c0-0.277,0.224-0.502,0.501-0.502s0.5,0.225,0.5,0.502v13.67
				C469.092,147.912,468.868,148.137,468.591,148.137z"/>
		</g>
		<g>
			<line fill="#FFFFFF" x1="481.421" y1="133.965" x2="481.421" y2="147.635"/>
			<path d="M481.421,148.137c-0.275,0-0.5-0.225-0.5-0.502v-13.67c0-0.277,0.225-0.502,0.5-0.502c0.277,0,0.502,0.225,0.502,0.502
				v13.67C481.923,147.912,481.698,148.137,481.421,148.137z"/>
		</g>
		<g>
			<line fill="#FFFFFF" x1="494.251" y1="133.965" x2="494.251" y2="147.635"/>
			<path d="M494.251,148.137c-0.277,0-0.5-0.225-0.5-0.502v-13.67c0-0.277,0.223-0.502,0.5-0.502s0.501,0.225,0.501,0.502v13.67
				C494.752,147.912,494.528,148.137,494.251,148.137z"/>
		</g>
		<g>
			<line fill="#FFFFFF" x1="507.079" y1="133.965" x2="507.079" y2="147.635"/>
			<path d="M507.079,148.137c-0.277,0-0.502-0.225-0.502-0.502v-13.67c0-0.277,0.225-0.502,0.502-0.502c0.276,0,0.5,0.225,0.5,0.502
				v13.67C507.579,147.912,507.355,148.137,507.079,148.137z"/>
		</g>
		<g>
			<line fill="#FFFFFF" x1="519.906" y1="133.965" x2="519.906" y2="147.635"/>
			<path d="M519.906,148.137c-0.275,0-0.5-0.225-0.5-0.502v-13.67c0-0.277,0.225-0.502,0.5-0.502c0.277,0,0.502,0.225,0.502,0.502
				v13.67C520.408,147.912,520.184,148.137,519.906,148.137z"/>
		</g>
		<g>
			<line fill="#FFFFFF" x1="532.736" y1="133.965" x2="532.736" y2="147.635"/>
			<path d="M532.736,148.137c-0.277,0-0.5-0.225-0.5-0.502v-13.67c0-0.277,0.223-0.502,0.5-0.502s0.502,0.225,0.502,0.502v13.67
				C533.238,147.912,533.014,148.137,532.736,148.137z"/>
		</g>
		<g>
			<line fill="#FFFFFF" x1="545.566" y1="133.965" x2="545.566" y2="147.635"/>
			<path d="M545.566,148.137c-0.277,0-0.502-0.225-0.502-0.502v-13.67c0-0.277,0.225-0.502,0.502-0.502c0.275,0,0.5,0.225,0.5,0.502
				v13.67C546.066,147.912,545.842,148.137,545.566,148.137z"/>
		</g>
		<path d="M582.311,153.27H370.265c-0.277,0-0.501-0.225-0.501-0.502c0-0.275,0.224-0.5,0.501-0.5h212.046
			c0.277,0,0.5,0.225,0.5,0.5C582.811,153.045,582.588,153.27,582.311,153.27z"/>
		<path d="M579.746,155.832H365.667c-0.277,0-0.5-0.225-0.5-0.502c0-0.275,0.224-0.5,0.5-0.5h214.079c0.277,0,0.502,0.225,0.502,0.5
			C580.248,155.607,580.023,155.832,579.746,155.832z"/>
		<g>
			<path d="M547.4,72.296c-0.211-0.91-0.633-1.7-1.158-2.322c-1.053-1.25-2.371-1.989-3.695-2.514
				c-1.334-0.519-2.709-0.796-4.086-0.931c-2.773-0.206-5.42,0.092-8.076,0.508c-2.643,0.448-5.236,1.094-7.789,1.853
				c-5.107,1.526-10.053,3.498-14.894,5.669c-4.844,2.176-9.573,4.58-14.236,7.103c-9.344,5.006-18.417,10.498-27.3,16.271
				c-0.348,0.229-0.695,0.457-1.043,0.686V28.633c0-0.356-0.286-0.641-0.641-0.641h-9.4V0.858c0-0.354-0.287-0.645-0.641-0.645
				H0.642c-0.279,0-0.537,0.187-0.617,0.47c-0.096,0.341,0.103,0.694,0.444,0.79l0.007,0.004L7.69,3.506
				c2.4,0.692,4.821,1.316,7.204,2.067l7.155,2.224l3.578,1.115l3.546,1.209l7.091,2.422c2.354,0.831,4.684,1.733,7.028,2.594
				c2.343,0.867,4.686,1.731,6.991,2.691l6.946,2.812l6.868,2.987c2.303,0.968,4.533,2.091,6.804,3.128
				c2.274,1.034,4.505,2.153,6.734,3.276l3.346,1.678l3.302,1.767c2.213,1.15,4.385,2.379,6.549,3.623
				c2.185,1.203,4.29,2.543,6.434,3.814c2.101,1.342,4.213,2.666,6.261,4.085c2.048,1.398,4.097,2.861,5.971,4.412l0.007,0.008
				c0.172,0.142,0.411,0.192,0.634,0.114c4.538-1.595,9.141-3.118,13.724-4.645l13.787-4.489c9.205-2.955,18.43-5.845,27.687-8.629
				l13.902-4.117c4.641-1.352,9.292-2.664,13.95-3.949c2.324-0.659,4.664-1.264,6.996-1.89c2.333-0.63,4.667-1.25,7.011-1.833
				c2.343-0.587,4.678-1.209,7.028-1.765l7.048-1.673c0.281-0.066,0.498-0.322,0.498-0.626c0-0.352-0.287-0.64-0.641-0.64l0,0
				l-15.172,0.155l-15.173,0.092l-30.344,0.016l-30.346-0.183l-7.586-0.049c-2.544,0.006-5.02-0.074-7.635,0.002
				c-1.301,0.059-2.614,0.188-3.951,0.528c-0.67,0.175-1.338,0.427-2.011,0.8c-0.662,0.374-1.337,0.936-1.779,1.761
				c-0.422,0.824-0.569,1.837-0.417,2.712c0.136,0.886,0.476,1.658,0.849,2.37c0.383,0.71,0.854,1.333,1.339,1.935
				c0.25,0.312,0.494,0.571,0.785,0.877c0.316,0.326,0.54,0.548,0.751,0.79c0.313,0.354,0.73,0.642,1.214,0.794
				c1.407,0.44,2.907-0.344,3.35-1.75c0.442-1.407-0.34-2.907-1.749-3.35l-0.059-0.02l-0.829-0.26
				c-0.223-0.063-0.482-0.184-0.707-0.292c-0.474-0.219-0.892-0.509-1.26-0.813c-0.732-0.636-1.153-1.359-1.015-2.007
				c0.133-0.69,1.033-1.455,2.092-1.882c1.074-0.44,2.278-0.687,3.497-0.823c1.22-0.126,2.467-0.124,3.739-0.132l3.794-0.023
				l7.586-0.043l30.346-0.184l30.344,0.018c0,0,13.04,0.403,13.04,1.687c0,1.281-8.648,3.805-10.976,4.466
				c-4.665,1.283-9.32,2.598-13.966,3.951l-13.916,4.12c-9.264,2.789-18.496,5.683-27.708,8.638l-13.798,4.493
				c-4.479,1.491-8.945,2.972-13.416,4.537c-1.885-1.54-3.818-2.919-5.793-4.269c-2.067-1.432-4.193-2.766-6.31-4.116
				c-2.157-1.279-4.276-2.627-6.472-3.838c-2.176-1.248-4.358-2.484-6.582-3.642l-3.318-1.771l-3.361-1.688
				c-2.239-1.129-4.48-2.252-6.76-3.288c-2.28-1.043-4.521-2.172-6.831-3.14l-6.893-3.001l-6.969-2.819
				c-2.314-0.964-4.664-1.828-7.013-2.699c-2.351-0.866-4.689-1.77-7.052-2.604l-7.111-2.43c0,0-3.996-1.529-3.996-4.362
				c0-2.83,3.845-3.046,3.845-3.046H453.8v26.496h-32.69c-0.228,0.002-0.453,0.124-0.566,0.341
				c-0.166,0.313-0.045,0.698,0.268,0.864c1.787,0.965,3.522,2.027,5.2,3.182c1.666,1.171,3.284,2.411,4.842,3.729
				c3.111,2.644,6.009,5.54,8.73,8.592c2.714,3.063,5.265,6.275,7.649,9.604c2.38,3.328,4.643,6.774,6.644,10.315l0.006,0.01
				c0.109,0.191,0.318,0.32,0.558,0.32c0.354,0,0.641-0.283,0.641-0.64V29.275h8.759v70.186c-3.657,2.393-7.306,4.799-10.906,7.281
				c-4.364,3.006-8.693,6.055-12.981,9.188l-0.002,0.004c-0.154,0.117-0.255,0.305-0.253,0.512c0,0.352,0.287,0.641,0.641,0.641
				h24.143c0.354,0,0.641-0.289,0.641-0.641V99.586c0.494-0.326,0.98-0.662,1.476-0.986c8.862-5.773,17.901-11.285,27.223-16.275
				c4.676-2.465,9.418-4.805,14.259-6.914c4.836-2.104,9.77-4.005,14.826-5.454c2.529-0.718,5.088-1.324,7.672-1.731
				c2.566-0.365,5.23-0.653,7.738-0.385c1.25,0.16,2.475,0.528,3.551,1.107c1.076,0.564,2.006,1.404,2.475,2.331
				c0.934,1.966-0.58,3.196-2.736,3.637c-0.49,0.096-0.957,0.333-1.344,0.704c-1.07,1.037-1.098,2.746-0.063,3.818
				c1.039,1.074,2.748,1.102,3.82,0.064l0.16-0.152c1.188-1.15,2.432-2.412,3.047-4.237C547.521,74.215,547.613,73.208,547.4,72.296
				z M453.119,58.652c-0.962,0.372-2.894-2.365-4.844-5.092c-2.408-3.364-4.985-6.609-7.732-9.708
				c-2.756-3.093-5.694-6.033-8.861-8.723c-1.586-1.34-3.574-2.758-3.2-4.039c0.588-1.979,3.098-1.815,3.098-1.815H453.8v24.42
				C453.8,53.695,454.08,58.277,453.119,58.652z M463.841,115.803h-12.711c0,0-2.458-0.135-3.446-1.629
				c-0.989-1.496,2.12-3.988,2.12-3.988s2.457-1.77,3.691-2.641c3.419-2.41,6.867-4.781,10.347-7.1V115.803z"/>
			<path d="M474.952,126.484h-61.291c0,0,1.12-2.564,0.078-3.605c-1.041-1.041-3.152-0.988-3.152-0.988l29.564-29.566
				c0.114-0.115,0.19-0.277,0.191-0.453c0.001-0.352-0.285-0.637-0.636-0.639l-10.977-0.045l-10.977,0.135
				c-7.317,0.164-14.631,0.389-21.938,0.75c-3.657,0.141-7.307,0.391-10.959,0.6c-3.654,0.195-7.302,0.451-10.95,0.73
				c-7.3,0.504-14.587,1.156-21.872,1.844l-10.917,1.102L330.21,97.57c-7.262,0.883-14.521,1.785-21.766,2.809
				c-3.627,0.473-7.241,1.039-10.86,1.566c-3.622,0.521-7.234,1.088-10.845,1.676c-7.227,1.135-14.435,2.391-21.635,3.686
				c-7.201,1.295-14.381,2.697-21.554,4.137l-10.742,2.248l-10.714,2.379c-7.13,1.641-14.247,3.342-21.336,5.152
				c-7.089,1.814-14.154,3.723-21.188,5.742c-7.034,2.02-14.03,4.176-20.993,6.438l-10.396,3.541
				c-3.431,1.275-6.897,2.457-10.301,3.811c-3.411,1.332-6.828,2.65-10.188,4.113c-3.393,1.381-6.712,2.938-10.044,4.467
				c-6.606,3.174-13.12,6.578-19.293,10.584c-0.173,0.115-0.292,0.318-0.292,0.543c0.002,0.354,0.29,0.637,0.644,0.635h153.83
				c0.355,0,0.641-0.285,0.641-0.641v-34.291c0-0.102-0.025-0.211-0.076-0.305c-0.169-0.311-0.557-0.426-0.867-0.26l-0.005,0.002
				c-2.513,1.59-4.994,3.158-7.45,4.795c-2.453,1.631-4.883,3.309-7.192,5.166c-1.155,0.93-2.292,1.895-3.338,2.98
				c-0.533,0.531-1.021,1.117-1.497,1.723c-0.466,0.615-0.93,1.258-1.274,2.016c-0.399,0.721-0.601,1.623-0.613,2.598
				c0.087,0.469,0.096,1.021,0.34,1.455l0.319,0.695c0.129,0.209,0.283,0.389,0.423,0.594c0.284,0.432,0.616,0.736,0.958,1.051
				c0.347,0.34,0.69,0.613,1.049,0.875c0.728,0.574,1.438,0.979,2.187,1.516c0.501,0.361,1.129,0.561,1.792,0.512
				c1.505-0.107,2.639-1.412,2.531-2.916c-0.105-1.504-1.412-2.639-2.917-2.531h-0.022c-0.631,0.045-1.365,0.104-1.936-0.02
				c-0.312-0.039-0.636-0.074-0.877-0.182c-0.272-0.088-0.562-0.174-0.76-0.311c-0.517-0.232-0.744-0.602-0.987-1.047
				c-0.111-0.484-0.18-1.086,0.036-1.707c0.161-0.623,0.471-1.248,0.841-1.838c0.364-0.596,0.802-1.16,1.268-1.699
				c0.93-1.09,2.145-2.129,3.245-3.084c2.185-1.922,4.365-3.521,6.825-5.109c0.839-0.537,2.549-1.605,2.549-1.605
				s-0.48,2.244,1.015,3.207c1.496,0.961,3.151,0.428,3.151,0.428v26.652H100.965c5.54-3.451,11.339-6.49,17.231-9.322
				c3.315-1.521,6.617-3.068,9.995-4.447c3.347-1.453,6.75-2.768,10.151-4.094c3.391-1.348,6.847-2.527,10.269-3.799l10.367-3.533
				c6.945-2.254,13.925-4.406,20.946-6.424c7.02-2.016,14.074-3.92,21.15-5.73c7.08-1.807,14.185-3.506,21.305-5.145l10.7-2.377
				l10.726-2.246c7.165-1.434,14.336-2.836,21.527-4.131c7.193-1.291,14.391-2.547,21.61-3.678
				c3.605-0.588,7.215-1.152,10.831-1.674c3.615-0.531,7.225-1.096,10.847-1.566c7.235-1.021,14.486-1.922,21.74-2.809l10.893-1.217
				l10.903-1.102c7.275-0.686,14.554-1.336,21.842-1.844c3.643-0.273,7.287-0.533,10.935-0.727
				c3.647-0.211,7.291-0.459,10.941-0.598c7.298-0.359,14.6-0.584,21.903-0.75l10.956-0.135c0,0-1.667,2.664-0.573,4.213
				c1.095,1.547,3.926,1.895,3.926,1.895l-28.095,28.096c-0.114,0.115-0.188,0.277-0.188,0.453c0,0.355,0.288,0.643,0.64,0.643
				h70.507c0.354,0,0.641-0.287,0.641-0.643C475.592,126.773,475.305,126.484,474.952,126.484z"/>
			<path d="M114.579,46.655c-0.233-2.26-2.12-4.027-4.44-4.027c-1.797,0-3.336,1.064-4.052,2.588
				c1.341,0.948,2.663,1.933,3.96,2.993C111.558,47.678,113.068,47.169,114.579,46.655z"/>
			<path d="M251.897,155.555c-2.319,0.057-4.185,1.932-4.213,4.26h4.213V155.555z"/>
		</g>
		<g>
			<path d="M402.773,75.113c0.616,1.825,1.86,3.087,3.047,4.237l0.16,0.152c1.072,1.037,2.782,1.01,3.818-0.064
				c1.039-1.072,1.009-2.781-0.063-3.818c-0.386-0.371-0.852-0.608-1.342-0.704c-2.156-0.44-3.67-1.671-2.736-3.637
				c0.471-0.927,1.399-1.767,2.477-2.331c1.074-0.579,2.301-0.947,3.552-1.107c2.504-0.269,5.171,0.02,7.737,0.385
				c2.584,0.407,5.143,1.014,7.668,1.731c5.058,1.449,9.99,3.351,14.831,5.454c4.84,2.108,9.582,4.448,14.258,6.914
				c9.321,4.99,18.36,10.502,27.221,16.275c0.494,0.324,0.98,0.66,1.478,0.986v16.859c0,0.352,0.284,0.641,0.64,0.641h24.143
				c0.355,0,0.641-0.289,0.641-0.641c0.004-0.207-0.102-0.395-0.254-0.512l-0.002-0.004c-4.287-3.133-8.617-6.182-12.98-9.188
				c-3.6-2.482-7.25-4.889-10.904-7.281V29.275h8.758v35.036c0,0.356,0.289,0.64,0.64,0.64c0.241,0,0.449-0.129,0.559-0.32
				l0.006-0.01c2-3.541,4.265-6.987,6.644-10.315c2.385-3.329,4.936-6.541,7.65-9.604c2.722-3.052,5.618-5.948,8.729-8.592
				c1.559-1.318,3.178-2.559,4.844-3.729c1.676-1.154,3.412-2.217,5.197-3.182c0.316-0.166,0.436-0.551,0.27-0.864
				c-0.115-0.217-0.342-0.339-0.568-0.341h-32.688V1.497H920.57c0,0,3.844,0.216,3.844,3.046c0,2.833-3.996,4.362-3.996,4.362
				l-7.111,2.43c-2.363,0.834-4.699,1.737-7.051,2.604c-2.35,0.871-4.699,1.735-7.014,2.699l-6.969,2.819l-6.893,3.001
				c-2.313,0.968-4.553,2.097-6.832,3.14c-2.281,1.036-4.521,2.159-6.76,3.288l-3.361,1.688l-3.318,1.771
				c-2.223,1.157-4.406,2.394-6.582,3.642c-2.195,1.211-4.314,2.559-6.473,3.838c-2.115,1.351-4.242,2.685-6.309,4.116
				c-1.977,1.35-3.91,2.729-5.793,4.269c-4.471-1.565-8.936-3.046-13.418-4.537l-13.795-4.493
				c-9.213-2.955-18.445-5.849-27.709-8.638l-13.916-4.12c-4.646-1.354-9.301-2.668-13.967-3.951
				c-2.326-0.661-10.975-3.185-10.975-4.466c0-1.283,13.039-1.687,13.039-1.687l30.346-0.018l30.346,0.184l7.586,0.043l3.793,0.023
				c1.271,0.008,2.52,0.006,3.74,0.132c1.219,0.137,2.424,0.383,3.494,0.823c1.063,0.427,1.963,1.191,2.094,1.882
				c0.139,0.647-0.283,1.371-1.016,2.007c-0.367,0.305-0.785,0.595-1.26,0.813c-0.225,0.108-0.484,0.229-0.705,0.292l-0.83,0.26
				l-0.057,0.02c-1.41,0.442-2.193,1.942-1.75,3.35c0.443,1.406,1.943,2.19,3.35,1.75c0.486-0.152,0.902-0.439,1.215-0.794
				c0.211-0.242,0.434-0.464,0.75-0.79c0.293-0.306,0.535-0.565,0.785-0.877c0.486-0.602,0.957-1.225,1.338-1.935
				c0.373-0.712,0.715-1.484,0.85-2.37c0.152-0.875,0.004-1.888-0.416-2.712c-0.441-0.825-1.115-1.387-1.777-1.761
				c-0.674-0.373-1.342-0.625-2.014-0.8c-1.336-0.34-2.648-0.47-3.949-0.528c-2.615-0.076-5.092,0.004-7.635-0.002l-7.586,0.049
				l-30.346,0.183l-30.346-0.016l-15.17-0.092l-15.174-0.155h-0.002c-0.352,0-0.641,0.288-0.641,0.64
				c0,0.304,0.219,0.56,0.498,0.626l7.049,1.673c2.35,0.556,4.686,1.178,7.029,1.765c2.344,0.583,4.678,1.203,7.01,1.833
				c2.334,0.626,4.67,1.23,6.996,1.89c4.658,1.285,9.309,2.598,13.949,3.949l13.904,4.117c9.256,2.784,18.48,5.674,27.686,8.629
				l13.787,4.489c4.582,1.526,9.186,3.05,13.723,4.645c0.225,0.078,0.463,0.027,0.637-0.114l0.006-0.008
				c1.875-1.551,3.922-3.014,5.971-4.412c2.047-1.419,4.16-2.743,6.262-4.085c2.143-1.271,4.25-2.611,6.434-3.814
				c2.166-1.244,4.336-2.473,6.549-3.623l3.303-1.767l3.348-1.678c2.229-1.123,4.459-2.242,6.732-3.276
				c2.27-1.037,4.502-2.16,6.805-3.128l6.867-2.987l6.947-2.812c2.305-0.96,4.648-1.824,6.99-2.691
				c2.342-0.86,4.674-1.763,7.027-2.594l7.092-2.422l3.547-1.209l3.576-1.115l7.158-2.224c2.379-0.751,4.801-1.375,7.201-2.067
				l7.215-2.029l0.008-0.004c0.342-0.096,0.541-0.449,0.443-0.79c-0.08-0.283-0.336-0.47-0.617-0.47H495.559
				c-0.351,0-0.64,0.29-0.64,0.645v27.135h-9.4c-0.355,0-0.64,0.284-0.64,0.641v69.986c-0.349-0.229-0.696-0.457-1.044-0.686
				c-8.883-5.773-17.955-11.266-27.302-16.271c-4.661-2.523-9.391-4.927-14.234-7.103c-4.842-2.171-9.79-4.143-14.895-5.669
				c-2.554-0.759-5.147-1.404-7.79-1.853c-2.656-0.416-5.303-0.714-8.076-0.508c-1.378,0.135-2.752,0.412-4.086,0.931
				c-1.325,0.524-2.643,1.264-3.697,2.514c-0.526,0.622-0.949,1.412-1.159,2.322C402.387,73.208,402.478,74.215,402.773,75.113z
				 M496.201,53.695v-24.42h22.219c0,0,2.512-0.163,3.098,1.815c0.375,1.281-1.613,2.699-3.199,4.039
				c-3.166,2.689-6.105,5.63-8.86,8.723c-2.745,3.099-5.322,6.344-7.73,9.708c-1.952,2.727-3.885,5.464-4.846,5.092
				C495.921,58.277,496.201,53.695,496.201,53.695z M486.161,100.445c3.479,2.318,6.927,4.689,10.346,7.1
				c1.232,0.871,3.689,2.641,3.689,2.641s3.111,2.492,2.121,3.988c-0.988,1.494-3.443,1.629-3.443,1.629h-12.713V100.445z"/>
			<path d="M475.048,126.484h61.292c0,0-1.121-2.564-0.082-3.605c1.043-1.041,3.154-0.988,3.154-0.988L509.85,92.324
				c-0.114-0.115-0.192-0.277-0.192-0.453c-0.002-0.352,0.283-0.637,0.637-0.639l10.978-0.045l10.975,0.135
				c7.316,0.164,14.631,0.389,21.939,0.75c3.656,0.141,7.307,0.391,10.959,0.6c3.654,0.195,7.303,0.451,10.949,0.73
				c7.299,0.504,14.588,1.156,21.871,1.844l10.918,1.102l10.908,1.223c7.26,0.883,14.52,1.785,21.764,2.809
				c3.629,0.473,7.242,1.039,10.861,1.566c3.621,0.521,7.234,1.088,10.844,1.676c7.229,1.135,14.436,2.391,21.637,3.686
				c7.197,1.295,14.381,2.697,21.553,4.137l10.742,2.248l10.713,2.379c7.131,1.641,14.248,3.342,21.338,5.152
				c7.088,1.814,14.152,3.723,21.188,5.742s14.029,4.176,20.992,6.438l10.395,3.541c3.432,1.275,6.898,2.457,10.301,3.811
				c3.412,1.332,6.828,2.65,10.189,4.113c3.395,1.381,6.711,2.938,10.045,4.467c6.605,3.174,13.119,6.578,19.293,10.584
				c0.172,0.115,0.291,0.318,0.289,0.543c-0.002,0.354-0.289,0.637-0.643,0.635h-153.83c-0.354,0-0.641-0.285-0.641-0.641v-34.291
				c0-0.102,0.025-0.211,0.076-0.305c0.168-0.311,0.557-0.426,0.867-0.26l0.006,0.002c2.514,1.59,4.994,3.158,7.449,4.795
				c2.453,1.631,4.883,3.309,7.191,5.166c1.156,0.93,2.293,1.895,3.342,2.98c0.531,0.531,1.018,1.117,1.494,1.723
				c0.467,0.615,0.932,1.258,1.273,2.016c0.4,0.721,0.604,1.623,0.613,2.598c-0.086,0.469-0.094,1.021-0.34,1.455l-0.318,0.695
				c-0.127,0.209-0.281,0.389-0.424,0.594c-0.283,0.432-0.617,0.736-0.959,1.051c-0.346,0.34-0.689,0.613-1.049,0.875
				c-0.727,0.574-1.436,0.979-2.184,1.516c-0.504,0.361-1.131,0.561-1.795,0.512c-1.504-0.107-2.637-1.412-2.529-2.916
				c0.104-1.504,1.412-2.639,2.916-2.531h0.021c0.631,0.045,1.365,0.104,1.938-0.02c0.311-0.039,0.635-0.074,0.875-0.182
				c0.273-0.088,0.563-0.174,0.762-0.311c0.516-0.232,0.742-0.602,0.986-1.047c0.111-0.484,0.18-1.086-0.035-1.707
				c-0.162-0.623-0.473-1.248-0.846-1.838c-0.361-0.596-0.797-1.16-1.266-1.699c-0.93-1.09-2.146-2.129-3.244-3.084
				c-2.186-1.922-4.365-3.521-6.828-5.109c-0.836-0.537-2.547-1.605-2.547-1.605s0.48,2.244-1.014,3.207
				c-1.496,0.961-3.15,0.428-3.15,0.428v26.652h150.932c-5.541-3.451-11.34-6.49-17.232-9.322c-3.314-1.521-6.615-3.068-9.996-4.447
				c-3.344-1.453-6.75-2.768-10.148-4.094c-3.393-1.348-6.85-2.527-10.27-3.799l-10.367-3.533
				c-6.947-2.254-13.926-4.406-20.945-6.424c-7.023-2.016-14.074-3.92-21.152-5.73c-7.078-1.807-14.182-3.506-21.303-5.145
				l-10.699-2.377l-10.727-2.246c-7.164-1.434-14.338-2.836-21.529-4.131c-7.191-1.291-14.389-2.547-21.607-3.678
				c-3.609-0.588-7.215-1.152-10.832-1.674c-3.615-0.531-7.225-1.096-10.848-1.566c-7.236-1.021-14.486-1.922-21.74-2.809
				l-10.893-1.217l-10.904-1.102c-7.273-0.686-14.553-1.336-21.842-1.844c-3.643-0.273-7.285-0.533-10.934-0.727
				c-3.646-0.211-7.293-0.459-10.943-0.598c-7.295-0.359-14.598-0.584-21.9-0.75l-10.957-0.135c0,0,1.666,2.664,0.574,4.213
				c-1.096,1.547-3.928,1.895-3.928,1.895l28.096,28.096c0.115,0.115,0.188,0.277,0.188,0.453c0,0.355-0.287,0.643-0.643,0.643
				h-70.504c-0.353,0-0.641-0.287-0.641-0.643C474.407,126.773,474.696,126.484,475.048,126.484z"/>
			<path d="M835.422,46.655c0.23-2.26,2.119-4.027,4.441-4.027c1.795,0,3.334,1.064,4.049,2.588
				c-1.342,0.948-2.662,1.933-3.959,2.993C838.441,47.678,836.932,47.169,835.422,46.655z"/>
			<path d="M698.104,155.555c2.318,0.057,4.184,1.932,4.213,4.26h-4.213V155.555z"/>
		</g>
		<path d="M595.727,32.672c0.535-4.175-1.58-6.564-6.348-7.179l0.238-1.827l17.781,2.292c0.535,0.066,1.08,0.556,1.637,1.46
			c0.563,0.903,0.902,1.365,1.025,1.383c3.412-1.782,6.76-2.463,10.049-2.038c15.496,1.995,22.516,8.63,21.064,19.901l-2.873,22.311
			c-0.541,4.168,1.576,6.561,6.344,7.175l-0.232,1.827l-27.863-3.588l0.238-1.825c4.271,0.548,6.672-1.262,7.211-5.432l2.76-21.416
			c1.369-10.651-0.922-16.359-6.881-17.128c-3.066-0.397-6.232,0.322-9.494,2.146c-0.012,0.757-0.131,2.017-0.355,3.781
			l-3.906,30.313c-0.537,4.173,1.328,6.531,5.602,7.083l-0.234,1.825l-27.859-3.59l0.236-1.825c4.766,0.615,7.418-1.163,7.955-5.334
			L595.727,32.672z"/>
		<path d="M684.557,80.909c4.109-1.471,7.559-3.768,10.352-6.881l1.373,1.24c-2.947,3.28-6.648,5.742-11.104,7.386
			c-3.828,1.418-8.701,1.631-14.605,0.643c-8.053-1.346-13.879-4.42-17.473-9.224c-3.59-4.803-4.736-11.098-3.438-18.881
			c1.299-7.761,4.451-13.336,9.465-16.729c4.971-3.37,11.453-4.394,19.447-3.056c7.982,1.332,13.779,4.403,17.396,9.214
			c3.637,4.836,4.809,11.133,3.512,18.895l-35.586-5.944c-1.508,9.018-1.98,14.603-1.426,16.754c1.033,4.008,3.834,6.395,8.406,7.16
			C676.375,82.402,680.936,82.209,684.557,80.909z M685.553,59.321c1.338-7.992,1.719-13.031,1.152-15.105
			c-1.064-3.9-3.875-6.229-8.434-6.991c-4.521-0.757-7.68,0.272-9.471,3.085c-1.828,2.882-3.361,8.03-4.6,15.444L685.553,59.321z"/>
		<path d="M744.762,94.635l-0.363,1.803l-27.531-5.545l0.363-1.805c2.895,0.469,4.502-0.102,4.826-1.707
			c0.123-0.615,0.059-1.375-0.193-2.279l-3.279-11.863l-10.063,9.173c-1.063,0.959-1.666,1.805-1.813,2.527
			c-0.26,1.301,0.939,2.217,3.604,2.758l0.293,0.059l-0.363,1.801l-14.283-2.877l0.365-1.801c1.842,0.369,3.152,0.57,3.939,0.602
			c1.498-0.018,3.621-1.287,6.377-3.809l11.41-10.438l-6.07-21.96c-0.549-1.964-1.387-3.573-2.514-4.835
			c-0.699-0.779-1.99-1.36-3.881-1.739l0.363-1.804l16.781,3.38c2.02,0.509,3.672,3.106,4.961,7.796l2.928,10.665l8.85-8.293
			c1.213-1.132,1.83-1.762,1.857-1.885c0.342-1.704-1.07-2.876-4.234-3.516l0.363-1.802l14.279,2.876l-0.361,1.803
			c-1.875-0.377-3.531-0.373-4.965,0.018c-1.613,0.54-3.295,1.626-5.037,3.254l-10.193,9.532l6.398,23.178
			C738.613,91.633,741.006,93.877,744.762,94.635z"/>
		<path d="M806.963,63.11l-1.664,13.325l-1.834-0.248c0.717-7.847-2.816-12.705-10.602-14.581l-2.775-0.669l-8.648,35.885
			c-0.99,4.096,0.855,6.703,5.533,7.832l-0.43,1.791l-28.066-6.768l0.43-1.789c4.678,1.129,7.51-0.352,8.5-4.449l8.646-35.887
			l-2.775-0.669c-7.785-1.876-13.145,0.842-16.08,8.149l-1.746-0.614l4.588-12.621L806.963,63.11z"/>
		<path fill="none" stroke="#000000" stroke-width="0.5" d="M692.596,88.92"/>
		<g>
			<path d="M173.25,56.331c7.333-1.769,13.4-1.706,18.201,0.191c5.771,2.284,9.299,6.094,10.583,11.42
				c1.285,5.33-0.189,10.039-4.424,14.126c-3.379,3.25-8.822,5.781-16.326,7.588l-8.918,2.152l1.049,4.348
				c0.987,4.094,3.819,5.576,8.496,4.449l0.432,1.789l-28.066,6.768l-0.432-1.791c4.678-1.127,6.523-3.738,5.537-7.834l-7.36-30.533
				c-1.03-3.529-3.799-4.748-8.306-3.662l-0.433-1.788L173.25,56.331z M171.936,90.02l8.917-2.152
				c7.017-1.691,9.4-7.201,7.151-16.532c-2.531-10.504-7.305-14.905-14.322-13.218l-8.917,2.152L171.936,90.02z"/>
			<path d="M229.798,44.204c7.403-1.436,13.459-1.098,18.169,1.014c5.659,2.539,8.84,5.622,9.543,9.25
				c1.2,6.186-2.25,11.864-10.345,17.033c2.26-0.323,3.934-0.153,5.02,0.518l10.524,10.25c0.833,0.807,2.755,0.918,5.768,0.334
				l0.346,1.789c-3.325,1.207-6.629,2.129-9.914,2.766c-5.891,1.143-10.906-0.729-15.043-5.619l-6.403-7.564l-7.14,1.383
				l1.535,7.914c0.801,4.133,3.562,5.74,8.284,4.824l0.351,1.811l-28.335,5.492l-0.351-1.809c4.723-0.916,6.684-3.439,5.883-7.572
				l-5.976-30.824c-0.871-3.57-3.581-4.912-8.131-4.03l-0.351-1.81L229.798,44.204z M229.973,73.548l5.313-1.029
				c7.083-1.373,9.746-6.598,7.987-15.673c-1.667-8.597-6.042-12.206-13.125-10.833l-5.312,1.029L229.973,73.548z"/>
			<path d="M307.78,74.374c3.426-2.691,5.968-5.954,7.631-9.786l1.693,0.739c-1.756,4.037-4.485,7.539-8.183,10.502
				c-3.182,2.553-7.726,4.294-13.631,5.23c-8.057,1.268-14.544,0.193-19.465-3.224c-4.919-3.416-7.993-9.013-9.219-16.798
				c-1.225-7.76,0.002-14.039,3.679-18.834c3.641-4.767,9.461-7.777,17.456-9.039c7.981-1.26,14.445-0.183,19.39,3.229
				c4.973,3.435,8.071,9.029,9.295,16.789l-35.585,5.61c1.422,9.021,2.735,14.46,3.941,16.322c2.244,3.469,5.651,4.846,10.222,4.124
				C300.502,78.37,304.761,76.75,307.78,74.374z M301.905,53.609c-1.262-7.995-2.488-12.885-3.682-14.671
				c-2.238-3.358-5.637-4.68-10.197-3.959c-4.522,0.712-7.188,2.686-7.994,5.913c-0.822,3.31-0.647,8.672,0.521,16.083
				L301.905,53.609z"/>
			<path d="M321.928,35.972c-1.12-2.017-2.375-3.329-3.76-3.936c-0.96-0.425-2.422-0.515-4.382-0.272l-0.228-1.824l16.983-2.109
				c2.023-0.248,4.116,1.729,6.277,5.936l12.929,23.125l6.809-25.576c0.284-1.068,0.409-1.733,0.377-1.991
				c-0.237-1.913-1.87-2.685-4.899-2.309l-0.227-1.823l11.62-1.439l0.227,1.821c-2.663,0.393-4.412,2.351-5.247,5.872l-7.366,27.781
				l-3.773,14.556l-2.252,0.278c-1.329,0.166-2.287-0.302-2.877-1.399l-2.886-5.43L321.928,35.972z"/>
		</g>
	</g>
</g>
</svg>
